<svg id="Layer_1" data-name="Layer 1" xmlns="http://www.w3.org/2000/svg" viewBox="0 0 350.54 350.54"><defs><style>.cls-1{fill:#fcb13f;isolation:isolate;}.cls-2{fill:#010101;}</style></defs><title>Untitled-1</title><rect class="cls-1" width="350.54" height="350.54"/><path class="cls-2" d="M647.77,951.42a83.8,83.8,0,1,1,83.8-83.8A83.89,83.89,0,0,1,647.77,951.42Zm0-147.39a63.59,63.59,0,1,0,63.59,63.59A63.67,63.67,0,0,0,647.77,804Z" transform="translate(-472.5 -687.91)"/><path class="cls-2" d="M679.33,721.54a63.49,63.49,0,1,1-63.12,0,73.47,73.47,0,1,0,63.12,0Z" transform="translate(-472.5 -687.91)"/><path class="cls-2" d="M505.49,913.32A63.48,63.48,0,1,1,537.05,968a73.47,73.47,0,1,0-31.56-54.66Z" transform="translate(-472.5 -687.91)"/><path class="cls-2" d="M758.46,968A63.48,63.48,0,1,1,790,913.31,73.47,73.47,0,1,0,758.46,968Z" transform="translate(-472.5 -687.91)"/></svg>