<?xml version="1.0" standalone="no"?>
<!DOCTYPE svg PUBLIC "-//W3C//DTD SVG 20010904//EN"
 "http://www.w3.org/TR/2001/REC-SVG-20010904/DTD/svg10.dtd">
<svg version="1.0" xmlns="http://www.w3.org/2000/svg"
   viewBox="0 0 4429.000000 1379.000000"
 preserveAspectRatio="xMidYMid meet">
<metadata>
Created by potrace 1.16, written by Peter Selinger 2001-2019
</metadata>
<g transform="translate(0.000000,1379.000000) scale(0.100000,-0.100000)"
fill="#000000" stroke="none">
<path d="M29117 13650 l-308 -140 -426 0 -426 0 -319 -110 -319 -110 -1115 0
-1115 0 -99 -45 -99 -46 -53 14 c-44 11 -92 11 -288 1 -154 -8 -570 -13 -1202
-13 l-967 -1 -1368 -115 c-1218 -103 -1423 -123 -1866 -180 l-498 -65 -506
-125 -506 -125 -250 75 -251 75 -495 -55 c-273 -30 -775 -84 -1116 -120 -341
-37 -650 -70 -687 -75 l-68 -8 -262 -193 -263 -193 -155 -13 c-133 -11 -262
-35 -900 -171 l-745 -158 -5 -444 -5 -444 -350 -58 c-192 -31 -361 -58 -373
-58 l-24 0 8 335 c7 325 6 335 -12 334 -10 0 -89 -19 -174 -43 l-155 -42 -3
-322 -2 -322 -23 -5 c-41 -9 -828 -135 -843 -135 -12 0 -14 41 -14 260 0 143
-3 260 -7 260 -5 0 -93 -26 -198 -58 l-190 -59 -6 -159 c-5 -128 -24 -317 -32
-320 -1 0 -164 -26 -362 -58 -198 -32 -370 -60 -382 -63 l-23 -5 0 185 0 185
-150 -50 -150 -50 -2 -161 -3 -162 -255 -62 c-140 -34 -265 -65 -277 -68 -22
-5 -23 -3 -23 75 0 48 -4 80 -10 80 -6 0 -440 -74 -965 -165 -526 -91 -975
-165 -998 -165 -23 0 -58 -4 -77 -9 -19 -5 -92 -12 -162 -16 l-128 -6 0 118 0
118 -297 73 c-291 70 -301 72 -425 72 l-128 0 0 103 0 102 -143 74 -143 75
-1235 -12 c-679 -7 -1429 -15 -1667 -19 l-432 -6 0 -174 0 -173 -183 0 -183 0
-169 -50 c-93 -27 -171 -50 -172 -50 -2 0 -3 -24 -3 -54 l0 -53 -67 -6 c-38
-4 -120 -9 -183 -12 -207 -10 -192 -4 -247 -95 l-48 -79 -172 -1 -173 0 0
-855 0 -855 95 0 95 0 0 -320 0 -320 -95 0 -95 0 0 -845 0 -845 70 0 70 0 0
-970 0 -970 690 0 690 0 0 -113 0 -114 193 -51 192 -50 1095 -6 c602 -3 1402
-9 1777 -12 l683 -7 157 -110 158 -111 125 -21 125 -21 3 -752 2 -752 115 0
115 0 0 -120 0 -120 1705 0 1705 0 0 120 0 120 225 0 225 0 0 -33 c0 -29 11
-42 102 -119 l103 -88 1508 0 1509 0 93 83 c86 75 93 85 94 120 l1 37 225 0
225 0 0 -34 c0 -30 11 -45 97 -126 l98 -92 200 6 c110 3 759 6 1441 6 l1242 0
96 86 c80 71 96 90 96 115 l0 29 109 0 108 0 7 37 c3 21 6 106 6 189 0 83 3
239 7 347 l6 197 779 0 778 0 0 -319 0 -319 -42 -5 c-24 -4 -159 -14 -300 -23
l-258 -18 0 -498 c0 -467 1 -498 17 -498 31 0 517 -40 551 -46 l32 -5 0 -389
0 -390 791 0 792 0 50 -31 50 -31 1021 4 1021 3 53 33 52 34 0 189 0 189 75 0
75 0 0 559 0 558 83 6 c45 4 550 25 1122 49 l1041 42 429 -162 430 -162 143 0
142 0 0 -142 0 -143 326 -142 325 -143 422 0 422 0 306 -175 307 -175 548 2
547 3 63 170 62 170 569 5 569 5 151 140 151 140 1 101 1 101 558 6 c505 5
627 3 1317 -23 950 -37 865 -37 865 -1 l0 28 92 7 c50 3 230 6 400 6 199 0
308 4 308 10 0 7 -140 10 -400 10 l-400 0 0 145 0 145 364 0 c301 0 371 3 407
15 37 13 173 17 879 27 752 9 924 16 819 32 -19 2 -396 12 -839 21 -646 12
-815 18 -854 30 -40 12 -121 15 -413 15 l-363 0 0 190 0 190 358 0 c299 0 367
3 408 16 41 13 168 18 764 29 393 8 775 14 848 14 l132 1 0 35 0 35 -87 0
c-49 0 -429 9 -845 20 -706 19 -761 22 -808 40 -47 19 -75 20 -410 20 l-360 0
0 95 0 94 48 14 c26 8 268 80 537 161 l490 146 1262 90 1261 90 661 0 661 0
-2 226 -3 226 -114 63 c-89 49 -127 77 -175 129 l-61 66 -593 151 -593 151
-164 78 c-91 44 -165 81 -165 82 -1 2 -49 378 -108 837 l-107 834 -60 33 c-33
19 -64 35 -68 37 -5 1 1 145 12 319 12 174 21 328 21 341 l0 25 488 6 c268 4
526 9 575 12 l87 6 0 29 c0 16 -5 29 -12 29 -7 0 -249 7 -538 15 -289 8 -540
15 -558 15 l-33 0 6 98 7 97 66 62 67 62 -59 60 -59 59 25 422 25 422 135 136
135 137 42 115 c22 63 63 192 90 285 l49 170 228 223 228 222 2620 0 2621 1
74 63 c54 47 96 73 153 95 76 30 86 31 226 31 81 0 311 -14 512 -30 201 -16
377 -30 393 -30 l27 0 0 76 c0 70 -2 78 -32 115 -19 24 -169 136 -374 280
-262 184 -473 319 -896 577 l-553 338 -730 350 -730 351 -905 301 -905 302
-1160 225 c-661 129 -1199 238 -1250 255 -63 20 -364 74 -1015 183 l-925 155
-400 16 c-220 8 -476 18 -568 21 l-168 6 -201 159 -202 160 -509 0 -508 0
-117 82 c-64 45 -133 94 -153 110 l-37 28 -654 0 -654 0 -59 140 -60 140 -550
0 -550 -1 -308 -139z"/>
</g>
</svg>
