<?xml version="1.0" standalone="no"?>
<!DOCTYPE svg PUBLIC "-//W3C//DTD SVG 20010904//EN"
 "http://www.w3.org/TR/2001/REC-SVG-20010904/DTD/svg10.dtd">
<svg version="1.0" xmlns="http://www.w3.org/2000/svg"
   viewBox="0 0 4235.000000 850.000000"
 preserveAspectRatio="xMidYMid meet">
<metadata>
Created by potrace 1.16, written by Peter Selinger 2001-2019
</metadata>
<g transform="translate(0.000000,850.000000) scale(0.100000,-0.100000)"
fill="#000000" stroke="none">
<path d="M36013 8418 l-33 -83 23 -21 c12 -11 125 -117 251 -235 167 -156 224
-215 210 -217 -10 -1 -343 13 -739 32 -396 19 -1394 67 -2218 107 l-1499 71
-391 -55 c-349 -50 -437 -67 -806 -151 l-413 -96 -797 12 c-669 10 -1003 9
-2092 -6 l-1297 -16 -218 -66 c-200 -59 -297 -80 -1139 -239 -900 -170 -934
-177 -1545 -330 -344 -86 -928 -237 -1297 -336 -370 -98 -682 -179 -693 -179
-11 0 -37 -7 -57 -15 -30 -12 -378 -29 -1716 -85 l-1677 -70 -648 70 c-356 38
-705 77 -777 85 -71 8 -499 55 -950 105 l-820 89 -1279 37 -1279 36 -956 -40
c-538 -23 -1000 -38 -1056 -35 -129 7 -934 -32 -1180 -57 -472 -49 -1323 -118
-2715 -220 l-1505 -110 -825 -95 c-669 -77 -978 -107 -1635 -160 l-810 -65
-705 -151 c-388 -82 -711 -152 -717 -154 -10 -3 -10 -10 -1 -30 6 -14 15 -25
19 -25 4 0 189 -14 411 -30 356 -27 430 -36 638 -74 129 -24 219 -45 200 -45
-222 -7 -544 -32 -558 -43 -10 -7 -47 -39 -84 -72 l-68 -59 0 -626 1 -626 82
-70 82 -70 395 -21 c217 -12 549 -30 738 -40 317 -16 342 -19 342 -36 0 -10
-6 -18 -12 -18 -39 1 -1390 -72 -1426 -76 -35 -4 -57 -18 -122 -76 l-80 -70 0
-623 0 -623 73 -64 c39 -35 79 -68 86 -73 8 -5 740 -47 1625 -95 l1611 -86
129 74 128 74 47 -44 c88 -84 73 -78 339 -120 l247 -38 2430 -43 2430 -43 124
-57 124 -57 1741 0 1742 0 374 75 c206 41 384 77 395 80 11 3 40 34 64 70 l44
65 331 0 c182 0 1006 -4 1831 -10 l1500 -10 515 -42 c513 -41 515 -41 546 -67
17 -14 135 -120 263 -236 l231 -210 -114 -5 -114 -5 -59 -46 -60 -46 -21 -109
c-12 -60 -22 -137 -22 -170 0 -55 -5 -71 -52 -155 -28 -52 -51 -98 -51 -104 0
-5 23 -63 51 -128 l52 -117 -7 -148 -6 -147 56 -52 c40 -36 67 -52 94 -56 21
-4 862 -11 1868 -18 1702 -10 3115 -6 3263 9 56 6 69 12 122 56 l60 50 0 190
c0 179 2 196 26 269 21 63 24 83 15 107 -9 28 -8 30 13 30 12 0 201 -16 421
-35 l398 -36 248 -114 249 -115 1616 -25 c890 -14 1619 -27 1622 -29 4 -4 19
-137 37 -329 l7 -67 1299 0 1299 0 0 103 c0 56 3 146 7 199 l6 98 1392 0 1393
0 6 -57 c4 -32 9 -79 12 -104 l5 -46 -53 -14 -53 -14 -3 -54 c-4 -64 3 -71 75
-71 l51 0 7 -89 c4 -49 10 -94 14 -100 4 -6 68 -24 142 -39 l135 -29 1350 43
1349 44 195 36 195 36 250 118 c138 65 283 132 324 149 40 17 114 60 165 94
50 35 148 96 217 135 l126 72 105 0 c103 0 105 0 154 35 l49 35 482 0 483 0 0
90 0 90 -257 1 -258 1 160 54 160 55 155 -6 c308 -12 730 -61 931 -109 58 -14
169 -50 246 -81 l139 -55 234 2 234 3 28 90 c19 63 45 217 87 520 l59 430
-194 993 -195 994 -364 601 -364 602 -426 500 -425 500 -316 293 c-173 161
-411 370 -527 464 -267 217 -763 567 -1129 795 l-281 176 -471 202 c-259 111
-558 243 -665 294 l-194 91 -360 55 c-198 30 -368 55 -376 55 -11 0 -27 -28
-48 -82z"/>
</g>
</svg>
