<?xml version="1.0" standalone="no"?>
<!DOCTYPE svg PUBLIC "-//W3C//DTD SVG 20010904//EN"
 "http://www.w3.org/TR/2001/REC-SVG-20010904/DTD/svg10.dtd">
<svg version="1.0" xmlns="http://www.w3.org/2000/svg"
   viewBox="0 0 2829.000000 3468.000000"
 preserveAspectRatio="xMidYMid meet">
<metadata>
Created by potrace 1.16, written by Peter Selinger 2001-2019
</metadata>
<g transform="translate(0.000000,3468.000000) scale(0.100000,-0.100000)"
fill="#000000" stroke="none">
<path d="M18207 34474 c-9 -114 -18 -207 -19 -209 -2 -1 -308 17 -681 40
l-679 41 -486 -22 c-268 -13 -493 -23 -499 -24 -10 0 -13 -26 -13 -94 l0 -94
-37 -6 c-64 -11 -802 -106 -818 -106 -12 0 -15 -13 -15 -59 l0 -60 -52 -5
c-29 -3 -813 -42 -1743 -86 -929 -43 -1767 -87 -1861 -95 l-171 -16 -325 85
c-178 47 -335 86 -349 86 -13 0 -701 -90 -1527 -201 -1191 -160 -1506 -199
-1512 -189 -4 7 -11 35 -14 62 -6 45 -9 49 -29 45 -12 -3 -893 -168 -1957
-367 l-1935 -361 -1709 -572 c-1534 -514 -1709 -575 -1721 -597 -6 -14 -22
-54 -35 -90 l-22 -65 180 -405 180 -405 110 -51 109 -52 946 161 947 161 797
-182 798 -182 1050 135 c578 75 1057 134 1066 132 9 -3 341 -191 738 -418
l722 -414 -3 -312 c-2 -171 -5 -313 -8 -316 -3 -2 -1123 -23 -2490 -47 -1367
-23 -2486 -43 -2488 -45 -6 -6 11 -373 18 -385 5 -8 536 -21 1876 -45 1028
-19 1899 -35 1937 -35 l67 0 -431 -487 c-238 -269 -440 -496 -449 -507 -18
-18 -24 -14 -233 137 l-214 155 -1057 -350 -1056 -351 0 -113 c0 -110 -1 -114
-23 -119 -12 -3 -328 -81 -702 -174 -374 -93 -776 -193 -893 -221 l-212 -52 0
-2908 0 -2908 1678 -417 c922 -229 1885 -469 2140 -532 254 -64 465 -113 468
-110 4 3 56 162 116 354 61 191 111 349 112 350 1 1 136 -37 301 -86 l300 -87
233 -270 233 -269 252 -123 252 -123 54 -80 c30 -44 62 -86 70 -93 9 -8 476
-251 1038 -541 l1023 -526 1237 -365 c681 -201 1250 -367 1264 -370 24 -5 37
8 144 140 l118 146 146 -5 c169 -7 1614 -45 1693 -45 l54 0 18 -87 c9 -49 20
-96 22 -105 5 -17 46 -18 673 -18 l668 0 269 55 269 56 114 -116 115 -116 204
-20 204 -19 172 -124 c94 -68 201 -141 237 -163 l65 -41 1075 -6 c591 -3 1212
-9 1380 -12 l305 -6 250 -307 249 -307 609 -309 c335 -171 615 -314 622 -320
10 -8 10 -113 3 -540 -10 -516 -11 -547 -64 -1170 -55 -634 -56 -649 -186
-1555 l-131 -915 -88 -195 c-88 -194 -90 -198 -189 -586 -89 -350 -152 -557
-609 -1990 l-510 -1599 -601 -1338 -602 -1337 -625 -1025 -624 -1025 -513
-723 c-505 -713 -516 -728 -852 -1127 -319 -381 -348 -412 -482 -525 -79 -66
-143 -122 -143 -125 0 -3 66 -32 148 -63 l147 -57 205 0 205 1 573 247 572
247 759 578 759 578 914 934 915 933 992 1289 992 1288 987 1645 986 1645 852
1928 853 1927 341 1045 341 1045 266 1075 c146 592 264 1077 262 1079 -2 2
-25 6 -51 9 l-46 6 -208 -164 c-115 -90 -209 -163 -210 -162 -2 3 817 3891
821 3895 2 2 32 -1 67 -6 34 -5 64 -9 65 -8 1 1 18 217 38 481 19 264 36 486
38 494 1 7 38 28 82 46 73 31 80 36 86 67 11 56 32 959 23 968 -5 5 -43 22
-84 38 -52 21 -76 35 -78 48 -1 11 -25 327 -52 704 l-49 685 -190 865 -190
865 -309 820 -308 820 -423 770 -422 770 -537 713 -536 714 -621 616 -620 617
-711 529 -711 529 -779 379 -779 378 -840 279 -840 279 -476 76 c-262 42 -482
76 -490 76 -12 0 -18 -40 -32 -206z"/>
</g>
</svg>
