<?xml version="1.0" standalone="no"?>
<!DOCTYPE svg PUBLIC "-//W3C//DTD SVG 20010904//EN"
 "http://www.w3.org/TR/2001/REC-SVG-20010904/DTD/svg10.dtd">
<svg version="1.0" xmlns="http://www.w3.org/2000/svg"
   viewBox="0 0 2482.000000 3695.000000"
 preserveAspectRatio="xMidYMid meet">
<metadata>
Created by potrace 1.16, written by Peter Selinger 2001-2019
</metadata>
<g transform="translate(0.000000,3695.000000) scale(0.100000,-0.100000)"
fill="#000000" stroke="none">
<path d="M13573 36556 c-365 -369 -390 -395 -385 -424 3 -20 11 -32 26 -36 11
-3 268 -6 570 -6 l549 0 -6 -29 c-3 -16 -9 -40 -13 -55 -6 -26 -6 -26 55 -26
l61 0 0 -325 0 -325 -58 0 c-55 0 -62 -3 -138 -59 -66 -49 -97 -64 -194 -95
l-115 -35 -102 -174 -103 -173 -2 -303 -3 -303 -225 212 -224 213 -121 -7
c-66 -4 -121 -8 -122 -9 0 -1 50 -229 113 -507 l115 -505 -11 -160 c-7 -108
-42 -355 -106 -755 l-95 -595 6 -285 c3 -157 8 -318 11 -357 3 -47 1 -73 -6
-73 -5 0 -10 7 -10 15 0 8 -8 15 -18 15 -17 0 -21 -18 -36 -164 -17 -150 -17
-166 -2 -194 20 -39 20 -42 -4 -42 -15 0 -23 -14 -40 -70 -16 -53 -25 -70 -39
-70 -29 0 -74 -77 -78 -135 -5 -68 28 -129 73 -133 28 -3 32 -8 53 -72 14 -43
28 -70 36 -70 12 0 12 -5 3 -24 -8 -19 -5 -60 12 -180 20 -137 25 -156 42
-156 15 0 18 -8 18 -49 0 -27 4 -51 8 -53 5 -1 -45 -327 -109 -723 -65 -396
-118 -727 -119 -737 0 -9 63 -68 144 -136 l143 -120 7 -144 c15 -327 9 -540
-28 -1008 -20 -250 -40 -457 -44 -460 -4 -4 -36 -27 -72 -51 -36 -25 -180
-127 -321 -227 l-257 -182 -19 -103 -19 -102 198 -3 198 -2 0 -30 0 -30 -354
0 -354 0 -7 -55 -6 -55 -118 0 -117 0 -99 70 -99 70 -520 0 c-608 0 -557 11
-526 -111 10 -41 88 -324 174 -630 85 -305 158 -574 162 -597 12 -74 2 -72
448 -72 l394 0 33 70 32 70 118 0 118 0 6 -55 7 -55 265 0 c247 0 264 -1 259
-17 -3 -10 -8 -44 -12 -75 l-6 -58 -328 0 -328 0 -7 -55 -6 -55 -122 0 -122 0
-95 70 -95 69 -516 1 c-602 0 -558 8 -533 -100 8 -36 86 -321 174 -635 87
-313 162 -587 166 -608 4 -22 16 -45 31 -57 25 -19 42 -20 417 -20 l392 0 31
70 31 70 120 0 121 0 6 -55 7 -55 241 0 c132 0 237 -3 233 -7 -4 -5 -141 -40
-304 -79 -241 -58 -297 -74 -304 -90 -4 -10 -143 -723 -309 -1584 -255 -1324
-355 -1872 -649 -3558 -191 -1095 -349 -1995 -353 -1998 -6 -6 -226 63 -238
75 -4 3 35 209 86 456 51 248 91 452 89 454 -5 5 14 6 -1538 -109 l-1219 -91
-32 -27 c-18 -15 -231 -202 -474 -417 l-442 -390 -415 -454 c-386 -423 -427
-471 -587 -693 l-171 -239 -17 103 c-10 64 -36 157 -68 243 -44 123 -53 160
-71 305 -30 250 -24 230 -70 230 -22 0 -40 -4 -40 -9 0 -6 -5 -101 -11 -212
l-11 -202 -50 -136 c-37 -101 -52 -161 -60 -231 -6 -52 -14 -98 -17 -101 -3
-4 -123 -9 -267 -12 l-260 -5 -17 109 c-11 73 -34 158 -70 261 -50 141 -56
168 -77 346 l-23 192 -39 0 c-22 0 -40 -5 -43 -13 -2 -6 -8 -102 -13 -212 l-9
-200 -50 -137 c-39 -105 -54 -161 -63 -242 l-13 -106 -136 0 c-75 0 -199 -3
-277 -7 l-140 -6 -17 114 c-12 84 -30 154 -70 264 -50 140 -55 163 -77 348
l-24 197 -38 0 c-22 0 -40 -5 -43 -12 -2 -7 -8 -103 -14 -213 l-10 -200 -50
-138 c-40 -109 -53 -161 -63 -246 l-12 -108 -229 -6 c-126 -3 -231 -8 -233
-10 -3 -2 -83 -416 -179 -918 -96 -503 -180 -938 -186 -966 l-10 -53 -45 0
-44 0 0 -40 0 -40 -147 -1 c-174 -2 -149 -16 30 -18 l117 -1 0 -40 c0 -36 3
-40 25 -40 27 0 29 -8 18 -73 -5 -33 -22 -53 -114 -138 l-108 -99 -786 0
c-687 0 -785 -2 -785 -15 0 -12 -38 -15 -262 -18 l-263 -2 262 -3 c256 -2 261
-2 256 -22 -5 -20 0 -20 422 -20 l426 0 212 -91 c116 -49 213 -92 215 -94 3
-2 -9 -15 -24 -29 l-29 -25 81 -1 c49 0 86 -5 96 -12 19 -17 81 -189 71 -199
-5 -4 -53 -28 -108 -52 -88 -39 -101 -48 -109 -75 -16 -57 -7 -62 103 -62 145
0 732 67 753 87 13 12 41 14 144 11 l127 -3 42 100 42 100 109 -2 c1640 -35
2528 -55 2562 -59 l42 -5 0 -105 0 -104 -75 0 -75 0 0 -617 1 -618 419 -460
420 -460 105 -5 104 -5 386 -419 385 -418 -39 -47 c-308 -367 -291 -344 -273
-365 351 -393 1529 -1673 1545 -1678 12 -4 733 -41 1602 -83 869 -42 1613 -79
1653 -82 l72 -6 0 -646 0 -645 101 -346 c55 -190 110 -376 121 -414 l21 -69
612 8 612 7 6 -23 c3 -13 49 -269 102 -569 54 -300 98 -546 99 -547 1 -1 64
-5 139 -9 l137 -7 0 -684 0 -683 -25 0 c-26 0 -26 -1 -23 -72 l3 -73 48 -3 47
-3 0 -458 c0 -377 3 -467 15 -507 8 -27 15 -64 15 -82 0 -31 22 -53 38 -38 18
18 25 171 29 608 l4 478 363 0 c411 0 376 -8 376 86 l0 54 -50 0 -50 0 0 690
0 690 193 0 193 0 564 551 c311 303 621 606 689 673 l124 121 321 510 322 510
75 200 c42 110 87 244 100 298 21 88 25 97 46 97 13 0 23 3 23 7 0 64 50 392
76 495 30 121 33 144 25 200 -7 47 -4 104 12 230 l20 167 42 18 42 17 11 100
c7 55 14 102 17 105 3 2 306 36 672 73 l668 69 608 277 c347 157 612 283 615
291 3 9 10 19 16 23 6 4 254 9 551 10 355 1 494 4 405 9 -74 3 -323 7 -553 8
-393 1 -418 2 -413 19 2 9 7 62 11 117 3 55 9 115 12 132 l5 33 242 1 c156 1
223 4 191 9 -27 5 -135 9 -239 9 -156 1 -192 4 -206 16 -14 13 -142 27 -601
67 l-584 51 -233 121 c-159 82 -226 122 -210 124 13 1 655 -38 1428 -87 773
-49 1406 -89 1407 -87 1 1 7 91 14 201 6 110 15 203 18 207 3 3 98 -1 210 -9
l205 -16 30 34 c17 19 51 59 76 88 l46 54 279 -17 c154 -9 310 -19 348 -23
l67 -6 0 32 c0 30 2 31 42 31 23 0 103 -5 178 -10 74 -6 359 -19 632 -30 418
-16 502 -17 528 -6 40 16 22 25 -53 27 l-52 2 56 7 c60 8 113 29 74 30 -11 0
-324 27 -695 60 -371 33 -680 60 -687 60 -9 0 -13 17 -13 55 l0 55 -32 0 c-63
1 -280 19 -285 24 -3 2 41 109 96 236 56 128 101 235 101 239 0 20 -153 217
-173 223 -12 3 -60 6 -106 7 -81 1 -83 2 -77 23 3 13 6 49 6 81 l0 57 98 0 97
1 75 101 c41 56 77 105 79 110 1 5 -69 105 -158 222 l-161 213 -187 6 -186 6
-31 30 -30 30 25 9 c13 5 116 44 228 87 l204 77 396 -8 396 -7 35 -38 35 -38
460 -10 c253 -6 593 -11 755 -10 255 0 300 3 333 17 38 17 26 18 -515 46 -304
15 -580 32 -613 37 -33 5 -334 47 -670 92 l-609 83 -241 -36 c-132 -19 -248
-34 -258 -32 -15 3 -16 13 -11 101 l7 97 -324 17 c-178 10 -357 20 -398 24
l-74 6 7 77 c7 91 11 89 -119 91 -44 1 -111 5 -150 9 l-70 7 60 1 c33 1 245
-7 470 -18 226 -11 435 -19 465 -19 30 1 -175 16 -457 33 l-512 31 35 57 35
57 129 -6 130 -6 0 75 0 75 -82 6 c-46 4 -153 10 -238 13 -85 4 -166 10 -179
14 -13 3 73 14 191 25 l216 18 808 -52 c445 -28 823 -51 840 -51 29 0 32 3 38
40 l6 40 663 1 c364 1 874 5 1132 8 422 6 375 7 -451 9 -506 1 -1016 5 -1132
9 -192 6 -212 8 -212 24 0 12 -29 29 -107 62 -290 121 -258 113 -583 147 -240
25 -940 79 -1040 80 l-25 0 3 107 c2 60 5 108 5 109 1 0 95 -4 209 -10 l208
-11 4 40 c7 57 39 1216 35 1240 -4 18 -25 23 -229 50 l-225 31 -2 79 c-2 44
-10 148 -18 230 -25 244 -25 245 -44 245 -15 0 -20 -21 -35 -162 -10 -90 -20
-211 -23 -270 -6 -103 -7 -107 -27 -103 -12 2 -57 9 -101 15 -44 6 -95 13
-112 16 l-33 5 0 82 c0 45 -9 163 -20 262 -11 99 -20 188 -20 198 0 20 -40 24
-40 5 0 -7 -9 -96 -20 -198 -11 -102 -20 -218 -20 -259 l0 -74 -56 7 c-31 3
-89 11 -130 17 l-74 11 0 97 c0 53 -7 170 -17 260 -14 142 -15 166 -2 174 8 5
139 59 292 121 l279 112 420 -52 421 -52 331 125 331 125 525 -15 c298 -8 529
-11 534 -6 6 5 161 10 345 10 185 1 386 5 446 9 71 4 -45 7 -327 8 -241 1
-438 4 -438 6 0 3 14 27 31 55 l32 51 196 1 c108 1 223 5 256 9 39 4 -29 8
-193 9 l-254 1 6 38 c3 20 19 170 35 332 34 334 48 651 32 690 -5 14 -204 261
-440 548 l-431 524 181 189 182 189 308 0 309 0 0 43 c0 92 -14 86 214 90
l201 2 -202 3 -203 2 0 39 c0 21 3 59 6 85 l7 46 406 2 406 2 -405 6 c-223 4
-406 8 -407 8 -1 1 -3 14 -5 28 -3 23 -14 29 -140 70 l-138 45 0 215 0 214
348 1 c191 1 536 5 767 8 l420 7 -571 2 c-314 1 -659 5 -767 9 l-197 6 0 132
0 132 248 6 c136 4 495 8 797 9 l550 2 -490 7 c-269 3 -628 7 -797 8 l-308 1
0 108 -1 107 -499 320 -499 320 -1 784 0 783 -256 595 c-141 326 -254 596
-251 600 3 3 309 34 679 70 370 36 674 66 676 68 8 7 242 618 239 622 -3 2
-402 80 -888 173 -486 93 -893 172 -904 174 -12 3 -73 77 -148 179 l-127 174
-87 13 -88 12 -18 41 c-9 22 -15 42 -13 44 2 2 167 19 367 38 200 20 370 39
378 43 12 7 254 612 247 619 -2 2 -320 65 -707 139 -387 74 -707 138 -710 142
-6 7 -268 611 -265 613 0 0 101 11 224 23 122 13 224 25 225 27 17 20 237 613
231 619 -5 4 -412 85 -904 179 -492 94 -900 177 -907 184 -6 6 -63 82 -125
167 l-115 156 158 299 c87 165 159 304 159 309 0 6 -99 327 -219 715 -121 388
-299 976 -396 1306 -97 330 -184 610 -193 623 -37 48 -1542 1441 -2163 2001
l-226 203 -7 337 c-3 185 -6 445 -7 577 l0 242 462 637 c254 351 462 644 463
650 0 7 -156 200 -347 429 l-348 416 -100 0 -99 0 0 325 0 325 100 0 c55 0
100 2 100 5 0 3 -7 34 -16 68 l-15 63 -192 47 c-177 44 -202 47 -315 47 l-124
0 -81 75 -82 75 -505 0 -506 0 -34 -95 -35 -95 -555 0 -554 0 373 375 c321
321 372 376 361 390 -7 8 -14 15 -15 15 -1 0 -178 -177 -392 -394z m-493
-6173 c0 -71 2 -180 4 -243 5 -114 5 -114 -4 -25 -17 189 -23 395 -11 395 8 0
11 -39 11 -127z m6877 -16260 c-4 -27 -9 -83 -13 -126 -4 -43 -10 -75 -14 -70
-13 15 -31 151 -25 187 7 33 26 55 49 56 5 0 6 -21 3 -47z m311 -1879 l32 -5
0 -89 c0 -48 2 -94 5 -102 4 -10 -12 -12 -87 -6 -51 3 -112 7 -135 7 l-43 1 0
104 0 103 98 -4 c53 -2 112 -6 130 -9z m379 -20 l41 -5 4 -102 c2 -56 3 -104
2 -105 -3 -5 -274 14 -277 19 -1 2 -1 50 1 105 l3 101 92 -4 c51 -2 111 -6
134 -9z m-8794 -406 c-3 -68 -7 -125 -9 -127 -2 -2 -4 53 -4 122 0 74 4 127
10 127 5 0 7 -48 3 -122z m6812 -47 c1120 -80 1599 -116 1565 -119 -19 -2
-507 22 -1083 53 -576 30 -1066 55 -1087 55 -36 0 -40 3 -40 25 0 23 3 25 48
25 26 0 295 -18 597 -39z m1708 -128 c-18 -2 -48 -2 -65 0 -18 2 -4 4 32 4 36
0 50 -2 33 -4z m-2497 -2765 l47 -116 41 -6 c22 -3 132 -11 243 -17 l202 -12
-5 -66 c-11 -173 -16 -241 -19 -241 -1 0 -63 31 -136 69 -93 48 -184 84 -299
121 -91 28 -168 55 -172 58 -3 4 3 85 15 179 12 95 25 167 29 160 4 -6 29 -64
54 -129z"/>
<path d="M21693 11283 c9 -2 25 -2 35 0 9 3 1 5 -18 5 -19 0 -27 -2 -17 -5z"/>
</g>
</svg>
