<?xml version="1.0" standalone="no"?>
<!DOCTYPE svg PUBLIC "-//W3C//DTD SVG 20010904//EN"
 "http://www.w3.org/TR/2001/REC-SVG-20010904/DTD/svg10.dtd">
<svg version="1.0" xmlns="http://www.w3.org/2000/svg"
   viewBox="0 0 3900.000000 2930.000000"
 preserveAspectRatio="xMidYMid meet">
<metadata>
Created by potrace 1.16, written by Peter Selinger 2001-2019
</metadata>
<g transform="translate(0.000000,2930.000000) scale(0.100000,-0.100000)"
fill="#000000" stroke="none">
<path d="M11285 29211 l-420 -87 -50 -160 -50 -159 -5 -2645 -5 -2644 -242
-179 -243 -179 0 -1766 1 -1767 244 -190 244 -190 1 -932 0 -931 -27 -6 c-16
-3 -606 -80 -1313 -172 -707 -91 -1287 -169 -1290 -173 -3 -4 -185 -213 -404
-464 l-399 -457 -1659 0 -1658 0 0 -70 0 -70 -768 0 c-756 0 -769 0 -787 -20
-18 -20 -31 -20 -747 -20 l-728 0 0 -120 c0 -108 2 -120 18 -120 9 0 250 -53
535 -117 l517 -118 0 -192 0 -193 -180 0 -180 0 0 50 0 50 -80 0 -79 0 -10
-37 c-6 -21 -11 -44 -11 -50 0 -10 -98 -13 -455 -13 l-455 0 0 50 0 50 -84 0
c-92 0 -87 4 -101 -67 l-7 -33 -157 0 -158 0 -47 -70 -46 -70 0 -195 0 -195
55 0 55 0 0 -315 0 -315 -55 0 -55 0 0 -205 0 -205 46 -70 47 -70 162 0 162 0
7 -40 6 -40 85 0 85 0 0 40 0 40 455 0 c356 0 456 -3 459 -12 3 -7 7 -25 10
-40 6 -28 7 -28 86 -28 l80 0 0 40 0 40 180 0 180 0 0 -114 0 -114 71 -78 c62
-68 69 -79 53 -86 -33 -14 -516 -128 -540 -128 -24 0 -24 0 -24 -120 l0 -120
1200 0 1200 0 0 -80 0 -80 200 0 c110 0 201 -1 202 -2 1 -2 4 -104 7 -226 l6
-224 195 -64 195 -64 465 0 466 0 21 -87 c11 -49 38 -159 58 -246 l38 -157
1685 2 1685 3 359 570 c197 313 362 573 366 577 7 7 601 -15 740 -28 l62 -6 0
-5979 0 -5979 52 -175 c35 -119 56 -176 67 -179 9 -3 204 -44 435 -91 l418
-85 1841 2 1840 3 184 349 183 350 2 4930 3 4931 142 -165 142 -166 453 -22
c249 -13 490 -26 536 -29 l82 -6 0 -421 0 -422 63 -62 63 -62 162 0 162 0 0
-68 0 -68 63 -62 63 -62 541 0 541 0 41 70 42 70 1292 0 1292 -1 55 -119 55
-120 1175 0 1176 0 62 63 62 63 0 422 0 422 43 -1 c23 0 229 -10 457 -22 l415
-22 3 -724 2 -724 78 7 c42 3 725 40 1517 82 l1440 76 1885 1014 c1037 557
2344 1260 2905 1562 l1020 550 3 46 3 46 405 0 405 0 59 30 60 30 0 139 0 140
53 5 c49 5 2221 136 2259 136 16 0 18 -19 20 -217 l3 -217 95 -42 95 -43 313
0 312 -1 0 90 0 90 78 0 78 0 294 395 295 395 107 0 c59 0 109 4 112 9 4 5 35
388 71 851 l65 842 -23 28 c-12 16 -245 299 -517 629 l-495 600 -132 1 -133 0
0 430 c0 310 -3 430 -11 430 -6 0 -1387 124 -3068 275 -1681 151 -3614 324
-4296 385 -682 61 -3273 293 -5758 515 l-4518 405 -2135 -2 -2134 -3 0 2615 0
2615 -99 181 c-89 164 -114 200 -255 370 l-156 189 0 1855 0 1856 114 -4 115
-4 810 242 811 243 0 215 0 214 -172 282 c-94 154 -177 287 -184 295 -10 11
-163 24 -656 57 l-643 43 -1880 0 -1880 -1 -420 -87z m1735 -2043 l0 -591 370
-1056 370 -1056 0 -183 0 -182 -195 0 -195 0 0 186 0 186 -340 1027 -340 1027
0 617 0 617 165 0 165 0 0 -592z m-11740 -12458 c-14 -11 -37 -28 -52 -37
l-28 -17 0 -428 0 -427 72 -51 71 -50 -341 0 -341 0 24 53 25 52 0 423 c0 405
-1 425 -20 462 l-20 40 317 0 318 0 -25 -20z m770 -495 l0 -515 -144 0 -145 0
25 55 24 56 0 420 c0 401 -1 422 -20 459 l-20 40 140 0 140 0 0 -515z"/>
</g>
</svg>
