<?xml version="1.0" standalone="no"?>
<!DOCTYPE svg PUBLIC "-//W3C//DTD SVG 20010904//EN"
 "http://www.w3.org/TR/2001/REC-SVG-20010904/DTD/svg10.dtd">
<svg version="1.0" xmlns="http://www.w3.org/2000/svg"
   viewBox="0 0 4376.000000 2771.000000"
 preserveAspectRatio="xMidYMid meet">
<metadata>
Created by potrace 1.16, written by Peter Selinger 2001-2019
</metadata>
<g transform="translate(0.000000,2771.000000) scale(0.100000,-0.100000)"
fill="#000000" stroke="none">
<path d="M11985 27530 c-542 -154 -697 -202 -1105 -346 l-475 -167 -455 -319
-455 -319 -376 -419 c-368 -409 -398 -440 -1365 -1382 l-989 -964 -203 -279
-202 -280 -370 -182 c-204 -100 -370 -185 -370 -190 0 -4 18 -131 41 -282 30
-198 38 -276 30 -281 -7 -4 -422 -114 -924 -246 l-913 -239 -379 -448 c-209
-246 -389 -456 -400 -466 -11 -10 -707 -272 -1547 -582 l-1527 -563 100 -196
c56 -107 109 -204 120 -215 10 -12 71 -129 135 -260 64 -132 136 -274 159
-315 84 -148 303 -567 342 -655 229 -506 315 -679 650 -1300 370 -687 435
-813 518 -995 64 -139 350 -679 499 -940 39 -69 143 -269 231 -445 171 -342
608 -1194 711 -1385 l61 -115 584 -7 c321 -4 891 -11 1266 -16 375 -4 684 -10
687 -12 2 -3 14 -95 26 -205 16 -151 45 -324 121 -705 56 -278 106 -508 113
-512 6 -4 103 -42 216 -84 113 -42 414 -166 670 -275 l464 -198 416 -414 415
-414 280 -103 c154 -57 283 -106 286 -109 4 -3 48 -247 99 -541 144 -836 714
-3807 1224 -6380 256 -1290 468 -2354 471 -2366 3 -16 86 -60 347 -189 l343
-168 330 -30 330 -30 378 27 377 28 348 168 347 168 151 238 151 239 452 2415
c450 2408 452 2418 637 3590 l185 1175 248 940 248 940 201 45 200 45 812 755
c447 415 825 766 841 780 l28 25 30 670 c24 544 28 728 24 978 l-6 308 574 -6
c316 -3 621 -8 679 -10 l106 -5 28 707 c19 460 33 714 40 725 6 9 149 144 317
301 l305 284 625 7 c343 3 703 9 799 12 l175 6 890 -539 890 -540 800 -420
800 -420 745 -63 745 -64 356 -661 356 -660 768 -246 c429 -137 772 -252 777
-260 4 -8 30 -93 58 -189 28 -96 56 -180 63 -186 7 -6 82 -72 168 -146 185
-161 122 -140 675 -228 209 -33 503 -81 653 -106 190 -32 292 -45 330 -41 41
3 105 26 245 88 l189 83 104 159 104 159 52 -6 c29 -3 383 -31 787 -61 404
-31 744 -58 755 -60 34 -7 196 -273 238 -390 19 -55 382 -932 806 -1950 l770
-1850 1201 -1008 1201 -1008 701 -385 c385 -212 704 -383 708 -382 5 2 154
138 332 304 177 165 339 314 359 332 l35 31 663 -230 c365 -127 667 -227 671
-222 5 4 138 250 297 545 l288 538 225 136 c124 75 232 139 241 141 10 3 25
-13 45 -50 l29 -55 340 182 339 183 22 84 c41 161 114 388 357 1104 344 1011
896 2591 1024 2928 24 65 42 125 39 132 -4 11 -193 342 -358 627 l-38 67 -77
-34 c-42 -20 -77 -34 -78 -33 -1 2 -37 89 -80 193 -43 105 -197 460 -343 790
l-265 600 -13 250 c-7 138 -20 293 -28 345 -9 52 -16 99 -16 104 0 5 -46 6
-107 3 l-108 -6 -234 752 c-129 414 -297 950 -374 1192 l-139 440 21 320 c14
208 21 420 21 608 l0 288 -234 837 -234 837 -573 940 -572 940 -525 630 -524
630 -552 507 -551 508 -575 368 c-479 307 -661 417 -1086 655 l-510 287 -1575
285 -1574 284 -1750 233 -1750 232 -1220 -107 c-671 -59 -1235 -108 -1253
-107 -17 0 -584 88 -1260 195 -675 108 -1538 243 -1919 300 l-691 105 -989
-163 -988 -163 -1050 33 c-577 18 -1212 41 -1410 51 l-360 19 -1045 -34 c-575
-18 -1060 -32 -1079 -31 -34 3 -36 7 -186 271 l-151 268 -780 746 -779 745
-360 272 c-198 150 -365 275 -372 279 -11 7 -430 98 -442 96 -3 0 -289 -81
-636 -179z"/>
</g>
</svg>
