<?xml version="1.0" standalone="no"?>
<!DOCTYPE svg PUBLIC "-//W3C//DTD SVG 20010904//EN"
 "http://www.w3.org/TR/2001/REC-SVG-20010904/DTD/svg10.dtd">
<svg version="1.0" xmlns="http://www.w3.org/2000/svg"
   viewBox="0 0 4450.000000 1987.000000"
 preserveAspectRatio="xMidYMid meet">
<metadata>
Created by potrace 1.16, written by Peter Selinger 2001-2019
</metadata>
<g transform="translate(0.000000,1987.000000) scale(0.100000,-0.100000)"
fill="#000000" stroke="none">
<path d="M38599 19857 c-15 -6 -34 -24 -44 -40 -18 -30 -18 -30 11 -54 16 -12
33 -23 38 -23 5 0 -1 -11 -14 -25 -13 -14 -20 -28 -16 -32 4 -5 134 -96 289
-204 l282 -197 3 -1171 2 -1171 -340 0 c-216 0 -340 4 -340 10 0 9 -63 420
-75 488 l-6 32 -99 0 c-55 0 -100 -2 -100 -4 0 -2 -18 -119 -40 -261 -22 -142
-40 -259 -40 -261 0 -2 -90 -4 -200 -4 -110 0 -200 2 -200 4 0 3 -18 120 -40
260 -22 140 -40 257 -40 260 0 3 -45 6 -99 6 l-99 0 -6 -27 c-8 -40 -76 -480
-76 -492 0 -8 -73 -11 -223 -11 l-223 0 -38 253 c-22 138 -41 258 -44 265 -6
16 -202 17 -202 1 0 -6 -16 -112 -35 -236 -19 -124 -35 -239 -35 -254 l0 -29
-501 0 c-459 0 -512 -2 -621 -20 -198 -34 -1114 -295 -1510 -430 -180 -61
-257 -81 -678 -169 -774 -163 -691 -141 -756 -197 -32 -27 -415 -436 -853
-909 -437 -473 -895 -963 -1017 -1089 l-223 -228 -98 16 c-161 27 -153 24
-153 57 0 22 5 29 19 29 11 0 21 8 23 17 2 13 31 23 113 43 l110 25 3 93 3 92
-37 0 c-29 0 -35 3 -30 16 3 9 6 22 6 30 0 8 9 14 21 14 15 0 20 5 17 23 -3
21 -9 22 -125 31 l-122 9 -6 48 -7 49 -64 0 -64 0 -6 -40 -7 -40 -603 0 -603
0 -7 45 -6 46 -67 -3 c-57 -3 -66 -6 -69 -23 -1 -11 -5 -30 -8 -42 l-4 -23
-520 0 c-497 0 -520 -1 -529 -19 -12 -21 -5 -31 21 -31 13 0 18 -8 18 -30 0
-27 -3 -30 -30 -30 l-30 0 0 -160 0 -160 64 0 64 0 -11 -25 c-10 -20 -21 -26
-70 -31 -56 -6 -60 -9 -152 -96 -62 -59 -95 -84 -95 -73 0 10 29 95 65 189
l65 171 0 147 c0 125 -2 147 -16 152 -9 4 -143 -10 -298 -30 -224 -29 -374
-56 -741 -134 l-460 -98 -350 -122 c-261 -92 -439 -162 -700 -277 -192 -85
-355 -161 -361 -169 -6 -7 -14 -46 -17 -85 -3 -39 -8 -73 -10 -76 -2 -2 -23
-1 -45 3 -31 5 -42 12 -46 29 l-6 22 -382 6 c-1153 20 -2173 0 -3208 -63 -355
-22 -904 -54 -1222 -70 -317 -16 -584 -33 -595 -36 -10 -4 -26 -14 -35 -22
-11 -9 -49 -16 -106 -20 l-89 -5 -84 57 -84 56 -170 0 -171 0 -69 70 -69 70
-170 0 c-135 0 -171 3 -180 14 -8 12 -62 18 -236 27 -155 8 -232 16 -247 25
-31 19 -162 18 -187 -1 -27 -21 -175 -21 -202 0 -25 19 -166 20 -197 1 -12 -7
-96 -23 -187 -36 -213 -28 -210 -27 -210 -55 0 -15 19 -37 60 -70 48 -38 60
-54 60 -77 0 -27 -1 -28 -55 -28 -43 0 -55 3 -55 15 0 9 -7 29 -15 45 l-16 30
-99 0 c-74 0 -102 4 -114 15 -10 11 -36 15 -91 15 -55 0 -81 -4 -91 -15 -22
-22 -371 -22 -400 0 -27 20 -160 21 -180 0 -10 -10 -35 -15 -74 -15 -58 0 -59
-1 -80 -38 l-22 -39 -55 16 c-39 10 -58 22 -66 38 -9 21 -17 23 -81 23 -80 0
-132 14 -321 88 -166 64 -238 98 -258 120 -16 17 -37 16 -519 -30 -447 -42
-546 -55 -885 -113 -287 -50 -411 -76 -502 -105 -173 -56 -180 -61 -142 -107
16 -19 29 -23 76 -23 49 0 62 -4 92 -30 l34 -30 -26 -10 c-15 -6 -62 -10 -106
-10 l-80 0 -107 95 -107 95 -102 0 c-77 0 -105 4 -117 15 -10 11 -36 15 -91
15 -55 0 -81 -4 -91 -15 -13 -13 -55 -15 -256 -15 l-240 0 -130 -95 -130 -95
-351 0 -350 0 -81 -51 c-69 -44 -83 -50 -100 -39 -10 7 -191 144 -402 306
l-383 294 -244 0 c-198 0 -247 3 -263 15 -25 19 -170 21 -176 3 -3 -9 -36 -14
-106 -16 -89 -3 -102 -6 -107 -23 -5 -14 -16 -19 -46 -19 -32 0 -39 3 -39 20
0 17 -7 20 -40 20 -33 0 -40 -3 -40 -20 0 -15 -7 -20 -25 -20 -18 0 -25 5 -25
20 0 17 -7 20 -40 20 -33 0 -40 -3 -40 -20 0 -15 -7 -20 -25 -20 -18 0 -25 5
-25 20 0 17 -7 20 -40 20 -33 0 -40 -3 -40 -20 0 -15 -7 -20 -25 -20 -18 0
-25 5 -25 20 0 17 -7 20 -40 20 -33 0 -40 -3 -40 -20 0 -19 -7 -20 -138 -20
l-138 0 -29 -30 -29 -30 -186 0 -186 0 -29 30 -29 30 -179 0 c-163 0 -181 2
-207 20 l-28 20 -264 -33 -263 -32 -3 -63 c-3 -60 -4 -62 -30 -62 -15 0 -45
-14 -66 -30 -49 -37 -79 -39 -94 -5 l-12 25 -170 0 c-212 0 -708 -27 -735 -40
-11 -5 -76 -11 -145 -13 -122 -4 -391 -25 -399 -32 -2 -2 -6 -19 -10 -37 -6
-31 -10 -33 -52 -36 l-46 -3 -57 76 -56 75 -1219 0 -1219 0 -51 -46 c-46 -42
-51 -50 -51 -89 0 -43 0 -43 -42 -49 -60 -8 -203 -10 -215 -3 -5 3 -135 2
-289 -3 l-279 -9 -170 -68 -170 -69 -3 -102 -3 -102 -72 0 c-40 0 -82 -3 -94
-6 l-23 -6 0 -278 0 -279 -77 -16 c-128 -27 -121 -22 -178 -128 -28 -54 -62
-108 -73 -120 -22 -23 -22 -26 -22 -472 0 -446 0 -449 22 -472 11 -12 45 -66
73 -120 57 -106 50 -101 178 -128 l77 -16 0 -53 c0 -40 5 -57 20 -71 24 -21
26 -35 6 -35 -8 0 -17 -8 -20 -18 -4 -10 -22 -45 -41 -77 l-35 -57 0 -263 c0
-202 3 -265 13 -273 7 -6 26 -38 41 -70 26 -54 32 -60 65 -66 20 -3 69 -13
109 -22 l72 -16 0 -84 0 -84 -88 0 c-115 0 -122 -7 -122 -113 l0 -77 105 0
105 0 0 -40 0 -40 -83 0 c-74 0 -86 -3 -105 -23 -18 -19 -22 -35 -22 -95 l0
-72 105 0 105 0 0 -63 c0 -36 5 -68 12 -75 8 -8 67 -12 199 -12 l187 0 57
-162 58 -163 83 -70 c66 -56 83 -76 83 -97 1 -24 5 -28 32 -28 24 0 52 -19
135 -91 l104 -90 1 -107 c0 -59 0 -158 -1 -221 -1 -105 1 -115 21 -137 16 -17
33 -24 61 -24 l38 0 0 -50 0 -50 -239 0 c-193 0 -241 -3 -250 -14 -7 -9 -11
-39 -9 -77 l3 -64 90 -70 c50 -38 106 -82 125 -97 l35 -27 -338 -1 c-213 0
-345 -4 -358 -10 -17 -10 -19 -22 -19 -130 l0 -120 -99 0 c-109 0 -111 -1
-111 -65 0 -38 4 -36 -117 -61 l-82 -17 -51 -85 -50 -85 0 -262 c0 -256 0
-262 23 -292 12 -17 33 -53 46 -80 l23 -50 102 -21 c57 -12 130 -22 163 -22
58 0 61 -1 65 -27 3 -16 13 -45 22 -65 l16 -38 -130 0 -130 0 0 -24 c0 -13 6
-29 13 -35 9 -7 90 -12 228 -13 213 -3 214 -3 217 -25 l3 -23 414 0 413 0 6
25 6 25 379 0 c353 0 379 1 394 18 10 10 17 26 17 35 0 15 -23 17 -255 17
l-255 0 0 40 0 41 437 -3 c338 -2 437 -6 441 -15 2 -9 28 -13 82 -13 54 0 80
4 82 13 3 8 43 13 141 15 l136 4 10 29 10 29 275 0 276 0 0 45 0 45 -62 29
-63 29 185 1 185 1 144 160 145 160 323 0 323 0 0 35 0 35 145 0 145 0 0 99 0
99 -57 15 -58 15 68 1 67 1 0 55 0 55 -65 0 c-36 0 -65 2 -65 5 0 3 9 24 20
46 13 25 27 39 37 37 12 -2 35 31 82 119 l66 122 148 1 c120 0 147 -3 147 -14
0 -8 -5 -16 -11 -18 -6 -2 -8 -14 -4 -29 l6 -26 217 -6 c119 -4 303 -7 409 -7
l191 0 11 32 c8 22 8 34 1 36 -5 2 -10 10 -10 18 0 11 23 14 118 14 82 1 124
5 142 15 18 10 62 14 163 15 l137 0 0 -29 c0 -16 -5 -31 -12 -33 -7 -3 -9 -14
-5 -29 l7 -26 217 -6 c120 -4 304 -7 410 -7 l191 0 11 31 c14 40 14 39 -4 39
-10 0 -15 10 -15 30 l0 30 225 0 225 0 0 -29 c0 -16 -4 -31 -9 -33 -5 -1 -7
-15 -4 -29 l5 -27 291 -7 c161 -3 346 -5 411 -3 l119 3 10 30 c7 21 7 30 -1
33 -7 2 -12 17 -12 33 l0 29 136 0 c216 0 477 19 487 36 6 11 43 14 175 14
l167 0 70 64 71 64 177 7 176 7 133 92 c73 50 164 115 202 144 39 29 76 50 84
47 7 -3 34 -5 58 -5 l44 0 0 -113 0 -112 -110 -168 c-60 -93 -110 -176 -109
-185 0 -9 49 -179 107 -377 l108 -360 311 -3 311 -2 342 287 c188 159 347 289
353 291 7 1 393 -47 859 -107 l847 -110 263 -200 263 -200 56 -1 56 0 6 -152
c4 -83 7 -193 7 -245 l0 -93 388 0 c214 0 524 3 690 7 l301 6 60 49 60 48 95
0 96 0 550 -360 551 -360 902 -1 902 0 315 -347 316 -347 561 -3 562 -2 97
-105 c55 -59 106 -105 116 -105 14 0 18 -8 18 -34 0 -43 -34 -38 483 -73 l407
-27 0 -78 0 -78 80 0 80 0 0 -89 c0 -74 3 -92 21 -115 18 -23 28 -26 80 -26
33 0 59 -4 59 -10 0 -6 33 -10 80 -10 47 0 80 4 80 10 0 6 31 10 73 10 100 0
107 8 107 127 0 74 3 92 16 97 9 3 56 6 105 6 l89 0 0 -82 c0 -46 3 -120 7
-165 l6 -83 93 0 94 0 0 -131 c0 -125 1 -132 26 -165 l26 -34 114 0 c69 0 114
-4 114 -10 0 -6 33 -10 80 -10 47 0 80 4 80 10 0 6 51 10 133 10 l132 0 23 35
c20 31 22 47 22 165 l0 130 140 0 140 0 0 -122 c0 -112 2 -125 25 -165 l26
-43 134 0 c83 0 135 -4 135 -10 0 -6 33 -10 79 -10 44 0 83 5 86 10 4 6 53 10
115 10 l109 0 25 33 c25 32 26 40 26 165 l0 132 140 0 140 0 0 -132 c0 -126 1
-134 26 -170 l27 -38 131 -1 c72 0 514 0 981 1 l850 1 360 182 360 182 3 48 3
47 -560 0 -561 0 0 78 0 78 58 57 58 57 572 0 572 0 0 63 0 64 249 73 c254 74
260 77 261 123 0 4 -306 7 -680 7 l-680 0 0 43 c0 37 -5 46 -38 72 -33 27 -46
31 -132 36 -52 4 -141 7 -197 8 l-103 1 0 158 0 158 -48 47 -48 47 -157 0
-157 0 0 439 0 439 180 126 180 126 188 0 189 0 23 -50 23 -50 783 0 782 0
151 -115 c126 -96 157 -115 186 -115 l35 0 0 -147 0 -146 405 5 404 6 38 31
c31 26 46 31 88 31 50 0 61 -6 372 -210 l320 -210 528 0 527 0 189 -137 188
-138 1 -52 c0 -42 -4 -55 -20 -65 -18 -11 -20 -24 -20 -115 l0 -103 -646 0
-645 0 3 -36 3 -37 125 -48 125 -49 715 0 715 0 203 -171 202 -170 0 -144 0
-144 103 -4 c56 -1 -59 -4 -255 -5 l-358 -2 0 -23 c0 -21 8 -25 83 -41 45 -10
98 -22 118 -27 l36 -9 7 -85 c5 -76 13 -100 78 -245 l71 -160 164 0 163 0 0
-137 c0 -127 2 -138 22 -160 l21 -23 -485 0 c-506 0 -578 -3 -578 -26 0 -12
51 -14 285 -14 273 0 286 -1 305 -20 20 -20 32 -21 287 -20 l267 1 197 -197
198 -198 -114 -70 -115 -71 0 -121 0 -121 141 -151 c78 -84 149 -152 158 -152
9 0 215 -23 459 -50 440 -50 627 -61 649 -39 9 9 146 5 550 -17 516 -28 531
-29 352 -32 -171 -2 -188 -4 -204 -22 -17 -19 -32 -20 -342 -20 -280 0 -323
-2 -323 -15 0 -13 -33 -15 -238 -15 -289 0 -542 -10 -542 -22 0 -4 132 -8 293
-8 l294 0 14 -26 14 -26 313 3 313 4 20 -31 20 -32 -22 -36 c-19 -33 -24 -36
-69 -36 -27 0 -52 4 -55 10 -4 6 -101 10 -258 10 l-251 0 -22 -27 -22 -28
-291 -3 c-160 -2 -291 -7 -291 -11 0 -5 174 -10 386 -13 318 -4 387 -7 395
-19 7 -11 65 -14 330 -16 271 -2 325 -5 339 -18 14 -13 57 -15 263 -15 l247 0
0 -80 0 -80 -575 0 -575 0 0 -137 0 -138 233 -72 233 -73 304 -10 c168 -6 346
-13 397 -16 l92 -6 3 -30 c3 -29 9 -33 118 -76 l115 -46 750 -4 c413 -2 769
-1 793 3 l42 6 0 75 0 74 39 16 c38 15 41 20 70 107 28 83 31 105 31 215 l0
122 235 0 235 0 119 -50 c102 -43 128 -50 185 -50 l66 0 0 50 0 50 35 0 35 0
0 -70 0 -70 70 0 c54 0 70 -3 70 -14 0 -31 -23 -73 -76 -138 l-54 -67 0 -218
0 -218 35 -53 36 -52 30 15 c27 15 33 14 74 -4 25 -11 45 -22 45 -24 0 -2 -27
-23 -60 -47 -54 -39 -60 -47 -60 -79 1 -44 28 -79 67 -87 24 -4 47 9 158 92
72 53 190 137 263 186 365 245 886 668 1292 1048 151 142 302 286 335 321 33
35 99 106 147 156 l87 93 38 -14 38 -13 292 349 293 349 -16 31 c-15 29 -15
32 5 57 31 39 412 566 464 642 137 200 430 693 586 984 282 525 544 1128 773
1773 31 89 30 95 -15 132 -27 23 -24 44 21 168 l42 114 0 228 c0 219 1 232 25
298 21 58 25 87 25 180 0 87 -4 117 -17 141 -10 17 -21 31 -25 31 -4 0 -18 4
-32 9 -24 10 -24 10 -10 57 17 56 19 185 3 201 -8 8 33 100 151 334 89 178
172 339 183 358 18 30 21 51 21 163 1 96 -2 131 -12 137 -9 5 -65 -27 -168
-96 -86 -58 -158 -103 -160 -100 -3 2 0 33 5 68 5 35 17 152 26 259 10 107 23
209 30 225 9 19 16 98 20 222 l7 191 123 77 123 76 7 74 c4 42 4 112 0 158
l-6 82 -122 75 -122 75 -10 195 c-6 107 -16 206 -21 220 -6 14 -21 133 -33
265 -12 132 -25 253 -28 269 -7 35 -22 42 170 -88 117 -79 150 -97 160 -87 8
8 12 50 12 134 l-1 122 -187 368 c-133 259 -184 367 -173 367 13 0 16 13 16
73 0 39 -7 96 -14 125 l-14 53 29 6 c52 10 69 54 69 181 0 95 -4 122 -25 178
-24 64 -25 75 -25 299 l0 232 -64 169 -64 169 29 9 c16 5 29 12 29 15 0 3 -67
184 -149 403 -102 273 -145 401 -139 412 10 17 -101 289 -220 537 -139 293
-417 796 -613 1112 -175 280 -550 824 -663 961 l-40 48 17 31 c15 25 16 32 4
46 -8 9 -132 158 -277 331 -145 173 -271 323 -281 334 -15 16 -22 17 -50 7
l-33 -11 -276 275 c-152 152 -279 273 -282 270 -3 -3 -30 21 -59 55 -91 103
-519 467 -824 700 -345 264 -765 556 -1230 857 -187 121 -344 222 -350 225 -5
2 -22 0 -36 -5z m-10456 -5894 c-10 -27 -23 -33 -73 -33 -38 0 -47 4 -57 25
l-11 25 74 0 c66 0 73 -2 67 -17z m477 -3 c0 -18 -7 -20 -64 -20 -55 0 -64 3
-69 20 -5 19 0 20 64 20 62 0 69 -2 69 -20z m1100 -14 c0 -41 26 -36 -335 -71
l-260 -26 -128 51 c-71 27 -137 50 -148 50 -10 0 -19 7 -19 15 0 13 56 15 445
15 l445 0 0 -34z m210 4 c-30 -16 -70 -29 -87 -30 -30 0 -33 3 -33 30 l0 30
88 0 87 -1 -55 -29z m14179 -2554 l-2 -71 -12 70 c-6 39 -15 81 -19 95 l-7 25
20 -24 c17 -19 21 -36 20 -95z m-20 -3514 c-16 -19 -20 -21 -14 -7 4 11 12 56
19 100 l11 80 3 -73 c2 -63 0 -76 -19 -100z m-39689 -1147 c0 -41 2 -45 25
-45 16 0 25 -6 25 -15 0 -11 -12 -15 -49 -15 l-50 0 -128 -140 -128 -139 -282
-1 -283 0 0 105 c0 87 -3 105 -15 105 -11 0 -15 12 -15 50 0 47 2 50 25 50 22
0 25 -4 25 -35 l0 -35 295 0 295 0 0 35 c0 31 3 35 25 35 23 0 25 4 25 45 l0
45 105 0 105 0 0 -45z m22030 -2787 c0 -39 -7 -51 -78 -130 -64 -73 -165 -158
-187 -158 -3 0 -5 46 -5 103 l0 103 35 41 c19 23 35 51 35 62 0 20 5 21 100
21 l100 0 0 -42z m9480 -2463 l0 -35 -95 0 -95 0 0 35 0 35 95 0 95 0 0 -35z"/>
</g>
</svg>
