<?xml version="1.0" standalone="no"?>
<!DOCTYPE svg PUBLIC "-//W3C//DTD SVG 20010904//EN"
 "http://www.w3.org/TR/2001/REC-SVG-20010904/DTD/svg10.dtd">
<svg version="1.0" xmlns="http://www.w3.org/2000/svg"
   viewBox="0 0 4215.000000 3791.000000"
 preserveAspectRatio="xMidYMid meet">
<metadata>
Created by potrace 1.16, written by Peter Selinger 2001-2019
</metadata>
<g transform="translate(0.000000,3791.000000) scale(0.100000,-0.100000)"
fill="#000000" stroke="none">
<path d="M18560 37310 l0 -600 -1060 0 -1060 0 0 -569 0 -569 -37 -7 c-21 -4
-1163 -9 -2538 -12 l-2501 -4 -306 318 c-169 175 -327 338 -352 362 l-46 45
-25 -24 c-14 -13 -25 -29 -25 -35 0 -7 142 -159 316 -339 l315 -326 -238 -1
-238 0 -1185 -1325 -1185 -1324 -3115 0 -3116 0 -49 51 c-48 48 -52 50 -99 47
l-48 -3 -334 323 c-184 177 -338 322 -342 322 -9 0 -52 -43 -52 -52 0 -3 144
-144 320 -313 304 -293 320 -310 320 -344 0 -33 10 -46 95 -131 l95 -95 0
-101 0 -101 -1035 -1564 -1035 -1564 0 -722 0 -723 235 0 235 0 0 -125 0 -125
168 0 168 0 326 -287 c180 -159 323 -289 317 -291 -5 -2 -9 -355 -9 -907 l0
-903 70 -27 70 -27 0 -951 -1 -952 -54 -33 -55 -33 0 -890 0 -889 335 0 335 0
0 105 0 105 25 0 25 0 0 -235 0 -235 922 0 c748 0 924 -2 937 -13 9 -7 36 -21
60 -30 42 -16 48 -16 177 13 l134 30 745 0 c410 0 745 -4 745 -9 0 -4 25 -18
55 -29 l54 -21 133 29 133 30 748 0 c453 0 747 -4 747 -9 0 -5 24 -19 53 -29
l54 -20 133 29 134 29 571 0 570 0 93 -107 92 -108 0 -1010 0 -1010 93 -93 92
-92 167 0 168 0 629 -585 c347 -322 633 -585 636 -585 4 0 39 29 77 65 l70 65
2143 0 2142 0 252 -142 251 -142 0 -890 c0 -490 3 -1218 7 -1618 l6 -726 -56
-7 -57 -7 0 -253 0 -253 50 -7 c27 -4 52 -10 54 -13 2 -4 5 -443 7 -977 l4
-970 -58 -9 -57 -8 2 -252 3 -251 58 -9 57 -9 0 -186 0 -186 -190 -104 -190
-104 1 -341 0 -341 41 -33 40 -32 399 0 400 0 106 80 106 80 2157 0 2158 0
262 -135 c157 -81 274 -135 291 -135 23 0 67 -35 224 -175 l196 -175 321 0
321 0 898 95 c493 52 902 95 908 95 8 0 11 50 11 160 l0 159 79 63 c70 55 80
67 80 96 1 25 5 32 20 32 11 0 1073 34 2361 75 1288 41 2363 75 2389 75 46 0
48 2 89 57 36 49 42 65 42 106 0 41 -6 56 -42 104 l-43 56 -2407 -7 -2408 -7
0 30 c0 27 -4 31 -42 41 -24 6 -73 20 -109 31 -36 10 -80 19 -97 19 -28 0 -45
21 -253 303 l-223 302 -3 1115 c-2 613 -4 1539 -6 2058 l-3 942 665 0 666 -1
1260 -1244 1260 -1244 5 -90 5 -90 136 -138 c74 -76 437 -447 806 -824 l672
-685 73 -16 73 -16 27 25 27 26 258 -251 c142 -138 335 -328 428 -422 94 -94
273 -271 399 -393 l229 -222 405 -16 405 -17 102 -103 c57 -57 964 -984 2017
-2060 l1913 -1956 53 -354 53 -354 109 -105 c109 -104 110 -105 110 -151 l0
-46 1428 -1409 c785 -775 1534 -1509 1664 -1630 l236 -222 46 9 c210 39 799
139 806 137 4 -2 88 -102 185 -223 97 -121 190 -233 205 -250 l29 -30 -54
-510 c-30 -280 -55 -520 -55 -532 0 -17 7 -23 35 -29 20 -3 37 -5 39 -3 2 2
28 235 57 517 30 283 57 518 60 524 4 6 225 -70 549 -188 600 -218 544 -205
622 -140 34 28 38 36 38 77 0 46 -3 50 -378 520 -576 723 -1209 1499 -1257
1544 -24 22 -1379 1689 -3011 3705 -1632 2016 -3003 3709 -3047 3763 l-80 98
27 77 27 76 -32 45 c-26 37 -29 46 -17 55 8 6 27 21 42 33 l27 22 -934 1533
c-514 843 -1069 1756 -1235 2028 l-301 495 -294 363 -294 363 22 73 23 74 -75
93 c-41 52 -78 98 -83 103 -5 5 -30 -9 -58 -33 l-50 -41 -33 45 c-19 24 -37
45 -40 45 -4 0 -167 -61 -362 -135 -196 -74 -360 -135 -365 -135 -5 0 -52 53
-105 118 -52 64 -104 128 -115 142 l-20 24 -47 -38 c-46 -38 -47 -38 -65 -20
-10 11 -305 375 -657 809 -351 435 -1001 1231 -1443 1769 l-803 979 188 466
187 467 697 428 c707 436 837 522 822 541 -5 5 -146 190 -313 410 -168 220
-542 710 -831 1089 -290 380 -525 691 -523 693 2 2 89 -5 193 -17 l190 -22
1049 687 c577 378 1052 692 1056 700 4 7 33 84 63 171 l55 157 -59 656 c-33
361 -57 675 -54 699 3 25 2 42 -4 42 -9 0 -33 215 -37 320 -1 18 92 150 327
467 l328 443 -6 72 -6 73 174 235 173 235 2717 3 2717 2 0 -90 0 -90 220 0
220 0 0 90 0 90 125 0 125 0 0 125 0 125 -125 0 -125 0 0 90 0 90 -220 0 -220
0 0 -90 0 -90 -2649 0 -2649 0 -7 53 c-3 28 -8 63 -11 77 -4 19 -287 245
-1204 959 l-1200 934 0 399 0 398 4933 2 4932 3 133 263 132 262 -5065 0
-5065 0 0 523 0 523 -55 27 c-44 21 -70 27 -125 27 l-70 0 0 484 0 483 423 7
c232 3 868 11 1412 16 545 5 1113 12 1263 15 l272 6 0 -143 c0 -79 5 -150 10
-158 7 -11 10 -1 10 36 0 28 3 99 7 157 l6 107 54 0 53 0 0 40 0 40 -53 0 -54
0 -6 107 c-4 58 -7 131 -8 162 0 41 -3 50 -9 36 -5 -11 -9 -83 -9 -161 l-1
-140 -242 3 c-335 5 -2933 33 -3040 33 l-88 0 0 824 0 824 -23 15 c-32 21
-250 26 -289 7 l-28 -13 -3 -1371 -2 -1371 -3 1381 -2 1380 -1562 402 -1563
403 -3082 -1 -3083 0 0 600 0 600 -25 0 -25 0 0 -600z m-16340 -9525 c0 -122
-2 -145 -15 -145 -13 0 -15 -54 -15 -430 l0 -430 -25 0 -25 0 0 160 c0 153 -1
160 -20 160 -20 0 -20 7 -20 415 l0 415 60 0 60 0 0 -145z"/>
</g>
</svg>
