<?xml version="1.0" standalone="no"?>
<!DOCTYPE svg PUBLIC "-//W3C//DTD SVG 20010904//EN"
 "http://www.w3.org/TR/2001/REC-SVG-20010904/DTD/svg10.dtd">
<svg version="1.0" xmlns="http://www.w3.org/2000/svg"
   viewBox="0 0 4372.000000 2430.000000"
 preserveAspectRatio="xMidYMid meet">
<metadata>
Created by potrace 1.16, written by Peter Selinger 2001-2019
</metadata>
<g transform="translate(0.000000,2430.000000) scale(0.100000,-0.100000)"
fill="#000000" stroke="none">
<path d="M26938 24283 c-66 -17 -65 -17 -41 -109 9 -35 15 -65 13 -67 -7 -5
-397 -107 -409 -107 -6 0 -20 33 -32 73 -11 39 -22 73 -24 75 -7 7 -145 -34
-145 -44 0 -6 38 -157 85 -336 73 -280 85 -337 85 -407 0 -73 13 -131 120
-531 96 -359 127 -460 154 -507 28 -48 76 -186 76 -218 0 -5 -36 52 -80 127
l-79 137 -141 528 c-167 628 -147 556 -170 586 l-19 24 -203 -54 c-112 -30
-204 -56 -205 -57 -1 -1 -6 -58 -11 -126 l-9 -124 122 -456 121 -455 126 -215
c69 -118 130 -224 136 -235 11 -21 1252 -4694 1252 -4714 0 -8 -370 -11 -1310
-11 l-1310 0 0 -261 0 -261 -22 5 c-13 3 -207 42 -433 87 -267 52 -414 86
-421 95 -6 8 -21 65 -34 126 -21 99 -27 114 -51 128 -21 12 -192 320 -744
1337 l-718 1322 -44 -21 c-23 -11 -43 -26 -43 -31 0 -6 311 -582 690 -1281
379 -698 688 -1270 687 -1271 -1 -2 -596 150 -1322 336 -726 187 -1327 340
-1335 340 -8 0 -49 -17 -90 -38 l-75 -37 -77 -140 c-43 -77 -79 -144 -80 -148
-3 -6 -2797 528 -3190 609 -19 4 -75 58 -185 180 -87 96 -162 174 -168 174 -5
-1 -39 -27 -74 -58 l-64 -58 157 -190 c130 -157 154 -190 139 -196 -20 -7
-345 -48 -386 -48 -23 0 -25 4 -31 68 -12 118 -16 130 -51 152 l-33 21 -174
-22 c-151 -19 -177 -25 -207 -48 -30 -23 -33 -28 -28 -66 3 -22 9 -70 13 -107
7 -68 7 -68 -19 -68 -24 0 -25 3 -37 104 l-13 104 -39 18 c-37 17 -45 17 -210
-4 -164 -20 -173 -23 -202 -51 l-29 -30 12 -97 c6 -53 10 -98 9 -99 -2 -1 -13
-5 -24 -9 -24 -7 -28 4 -40 127 -7 65 -9 70 -43 92 l-36 24 -178 -23 c-170
-21 -179 -24 -207 -52 -31 -31 -30 -24 -5 -197 5 -37 5 -38 -22 -35 -27 3 -28
5 -39 94 -13 105 -15 109 -55 130 -28 14 -45 14 -202 -6 -152 -20 -174 -25
-204 -48 -30 -24 -34 -31 -29 -62 3 -19 8 -67 12 -106 l7 -70 -109 -13 c-60
-6 -125 -14 -145 -17 l-35 -6 -18 178 c-10 99 -18 179 -19 180 -1 1 -84 -14
-185 -33 -100 -20 -185 -33 -189 -30 -3 4 -12 39 -19 79 l-13 73 52 50 c29 28
82 77 119 111 l67 60 11 90 c10 76 9 105 -7 197 l-17 109 -29 -6 c-21 -4 -28
-2 -25 7 23 62 51 198 43 205 -6 5 -702 201 -1547 435 -1397 387 -1540 424
-1572 415 -33 -10 -36 -15 -55 -87 -12 -42 -29 -106 -40 -142 -10 -37 -16 -71
-12 -77 3 -5 670 -195 1481 -422 811 -226 1481 -418 1489 -425 9 -9 11 -20 6
-32 -5 -10 -9 -31 -9 -48 l-1 -30 -1925 -364 -1925 -365 -290 -348 c-159 -191
-293 -348 -297 -348 -4 0 -709 -133 -1565 -296 l-1558 -296 -1415 -28 c-2027
-41 -2923 -58 -3942 -76 l-896 -15 -72 30 c-40 17 -81 31 -93 31 -11 0 -59 24
-106 53 -78 48 -146 77 -182 77 -22 0 6 -21 121 -90 58 -36 126 -86 151 -112
l46 -49 -133 -302 -133 -302 0 -325 0 -325 366 -225 c202 -124 493 -303 647
-397 l279 -173 69 0 c37 0 68 -2 68 -4 0 -18 -120 -113 -231 -183 -93 -58
-136 -90 -132 -99 13 -34 94 -7 218 70 59 37 143 85 188 106 l82 40 348 0 347
0 0 -30 0 -30 -205 0 -205 0 0 -662 0 -661 150 -229 150 -229 0 -499 0 -500
1183 0 1182 0 90 -113 90 -112 240 -3 240 -2 155 -165 155 -165 1020 0 1020
-1 3295 -208 3295 -208 1511 -687 1511 -686 1197 0 1196 0 103 -51 c56 -28
104 -53 106 -55 2 -2 -13 -130 -35 -284 l-38 -280 671 -1003 671 -1003 195
-418 195 -418 2333 -984 c1283 -542 2334 -986 2336 -987 1 -2 -196 -79 -438
-171 l-439 -169 0 -468 c0 -257 3 -474 6 -483 6 -15 176 -16 1825 -16 l1820 0
-16 -31 c-12 -22 -24 -134 -47 -435 -34 -444 -35 -418 18 -601 l15 -51 103 -7
c131 -9 210 6 231 44 13 24 14 22 9 -34 -32 -362 -71 -891 -66 -897 6 -6 34
-2 119 17 18 4 22 15 28 65 4 33 10 60 13 60 4 0 92 18 195 40 103 22 190 40
192 40 2 0 7 -20 10 -43 4 -24 10 -49 13 -54 5 -8 50 -3 145 17 76 15 140 30
143 33 14 13 164 1661 164 1800 l0 27 239 0 240 0 3 31 3 32 140 -116 140
-116 438 -1 437 0 0 -140 0 -140 740 0 740 0 0 345 0 345 1295 0 c712 0 1295
3 1295 7 0 6 -221 749 -240 805 l-9 28 605 0 604 0 0 -120 0 -120 1543 0 1543
0 250 -556 c201 -449 253 -558 272 -565 76 -29 252 9 252 55 0 19 -171 983
-185 1043 -5 23 -4 23 92 23 l98 0 159 -88 160 -87 249 -585 c136 -322 252
-588 256 -592 4 -5 40 -11 81 -14 67 -6 82 -3 133 19 31 14 57 31 57 38 0 13
-158 889 -167 926 -5 20 18 13 234 -75 l240 -97 224 -542 c176 -426 228 -543
244 -547 68 -19 204 3 243 39 10 9 -1 86 -58 401 -38 214 -70 395 -70 401 0
10 10 9 40 -3 23 -9 43 -14 46 -12 3 3 80 192 173 420 l168 414 -20 140 -20
139 327 809 c180 445 325 813 324 818 -2 6 -40 25 -83 42 -84 34 -85 35 -70
97 5 20 -9 59 -60 165 l-66 139 -1996 998 c-1097 549 -1997 997 -1998 995 -2
-2 -20 -46 -41 -98 -20 -52 -38 -96 -39 -98 -1 -1 -405 224 -896 501 -492 277
-904 509 -915 515 -21 11 -23 7 -59 -138 l-37 -150 -183 0 -184 0 -108 -115
c-59 -63 -110 -115 -113 -115 -3 0 -12 4 -20 10 -12 8 -12 13 2 42 l15 33
-236 120 -236 121 -20 -33 c-16 -25 -24 -30 -37 -22 -10 6 -44 4 -95 -6 -43
-8 -82 -15 -86 -15 -4 0 3 19 17 43 l24 42 -56 144 -57 143 -1115 570 c-998
510 -1145 582 -1404 689 l-289 119 -129 0 -128 0 30 56 c16 31 30 62 30 69 0
14 54 17 930 45 349 11 668 23 708 26 l73 6 -3 36 -3 37 -815 18 c-448 10
-816 20 -817 21 -2 2 18 62 44 134 l48 132 202 0 202 0 14 28 c8 15 22 51 31
80 13 37 23 52 36 52 13 0 25 18 44 68 14 37 79 213 146 391 115 310 120 328
120 401 l0 76 -184 176 c-157 152 -185 175 -197 163 -8 -8 -149 -314 -314
-679 -165 -366 -301 -663 -302 -662 -2 1 71 249 161 551 l165 548 -35 42 c-18
23 -34 45 -34 48 0 4 41 98 91 209 58 129 88 207 83 215 -5 7 -408 398 -896
868 -489 471 -888 862 -888 869 0 8 11 68 25 134 l24 121 -88 373 c-79 333
-94 384 -139 478 -27 58 -56 111 -63 117 -17 13 -1175 360 -1334 399 -60 15
-111 28 -112 28 -1 1 22 105 51 231 l52 230 277 3 277 2 0 260 0 260 -60 0
-60 0 0 419 0 419 23 6 c12 3 507 6 1100 6 1070 0 1077 0 1077 20 0 20 -7 20
-1085 20 l-1085 0 0 25 c0 24 -2 25 -65 25 l-65 0 0 50 0 50 -100 0 -100 0 0
-50 0 -50 -105 0 c-87 0 -105 3 -105 15 0 12 -19 15 -110 15 -91 0 -110 -3
-110 -15 0 -13 -45 -15 -344 -15 l-344 0 -7 28 c-3 15 -366 1402 -805 3082
-663 2536 -901 3423 -1001 3736 -10 33 -26 43 -149 88 l-65 24 -31 103 c-38
125 -46 132 -126 112z m3532 -7693 c0 -413 0 -420 -20 -420 -20 0 -20 7 -20
420 0 413 0 420 20 420 20 0 20 -7 20 -420z m1298 -3505 c62 -129 112 -239
112 -243 0 -5 -8 -16 -17 -25 -17 -14 -27 -7 -146 106 l-128 122 28 138 c15
75 30 137 34 137 3 0 56 -106 117 -235z"/>
</g>
</svg>
