<?xml version="1.0" standalone="no"?>
<!DOCTYPE svg PUBLIC "-//W3C//DTD SVG 20010904//EN"
 "http://www.w3.org/TR/2001/REC-SVG-20010904/DTD/svg10.dtd">
<svg version="1.0" xmlns="http://www.w3.org/2000/svg"
   viewBox="0 0 4811.000000 2325.000000"
 preserveAspectRatio="xMidYMid meet">
<metadata>
Created by potrace 1.16, written by Peter Selinger 2001-2019
</metadata>
<g transform="translate(0.000000,2325.000000) scale(0.100000,-0.100000)"
fill="#000000" stroke="none">
<path d="M20320 23196 l0 -54 -140 -91 c-135 -87 -140 -92 -140 -124 0 -19 -3
-62 -6 -96 l-7 -61 -3225 0 -3224 0 -100 -54 -99 -55 -2252 -4 c-1239 -3
-2268 -8 -2288 -12 -34 -7 -38 -12 -112 -161 l-77 -154 0 -266 0 -265 76 -145
76 -144 254 0 254 0 0 -609 0 -608 79 -249 79 -249 43 -3 c52 -3 1814 -220
1847 -227 21 -5 22 -10 22 -90 l0 -85 -2057 2 -2058 3 -57 -425 c-31 -234 -57
-431 -57 -437 -1 -10 -369 -13 -1803 -13 l-1803 0 -200 -244 c-191 -232 -210
-251 -408 -422 -193 -167 -214 -182 -312 -226 l-105 -48 -1125 0 -1125 0 0
-810 0 -810 -107 -1 c-187 -2 -187 1 -29 -109 l136 -94 0 -908 0 -908 785 0
784 0 10 -37 c6 -20 9 -38 7 -40 -2 -2 -185 -6 -407 -9 -222 -2 -450 -7 -506
-10 l-103 -6 0 -289 0 -289 1238 0 1237 -1 835 -193 835 -193 191 -214 191
-214 -43 -9 c-24 -4 -44 -14 -44 -21 0 -9 10 -10 46 -2 34 8 51 8 65 -1 28
-18 49 -15 49 7 0 14 12 22 45 30 55 14 62 35 8 25 -61 -12 -78 -10 -76 6 1 8
-65 91 -147 184 -82 94 -148 171 -146 173 1 2 876 -198 1944 -444 l1941 -448
-6 -25 c-3 -14 -6 -26 -7 -27 -1 -1 -24 4 -51 11 l-50 12 -10 -45 c-11 -48
-16 -50 -69 -37 -21 5 -25 1 -35 -39 -6 -24 -11 -50 -11 -58 0 -7 125 -89 278
-182 l279 -167 -19 -95 c-11 -52 -18 -96 -16 -99 4 -4 885 -204 898 -204 4 0
20 65 36 145 l28 145 92 0 92 0 6 35 c4 19 12 35 19 35 7 0 129 -29 272 -64
143 -36 263 -61 266 -58 6 7 39 133 39 150 0 5 -103 35 -229 67 l-229 57 9 30
c4 17 10 32 11 34 2 1 107 -23 233 -53 127 -30 408 -90 625 -132 l395 -78 6
466 c3 256 7 576 8 711 l1 245 682 -47 c375 -26 683 -46 685 -45 1 2 9 35 16
75 l14 71 -66 14 c-36 8 -207 44 -378 78 -172 35 -313 66 -313 69 0 3 204 20
453 38 248 18 462 35 475 38 17 3 22 11 22 34 0 25 4 30 25 30 l25 0 0 -995 0
-995 86 2 87 3 187 -446 c103 -246 200 -462 215 -481 16 -21 307 -701 711
-1664 l683 -1629 -132 -25 c-129 -25 -132 -26 -135 -53 -4 -33 2 -34 129 -8
178 35 157 38 181 -19 22 -52 25 -54 78 -44 32 7 32 7 28 63 l-3 55 128 24
c102 19 127 27 127 41 -1 40 -11 41 -144 15 -71 -14 -134 -23 -141 -20 -7 2
-15 22 -17 43 -3 21 -320 790 -706 1710 -646 1539 -702 1676 -702 1728 0 49
-16 95 -136 381 -75 179 -134 327 -131 330 2 3 164 9 358 13 l354 8 237 -59
c131 -32 248 -58 261 -58 24 0 24 -2 30 -126 3 -69 7 -127 9 -128 2 -1 349 2
772 7 l769 10 150 -29 c83 -15 156 -34 162 -41 9 -9 14 -188 19 -740 4 -400 9
-745 12 -765 l6 -37 -484 -322 c-266 -177 -491 -328 -500 -337 -17 -14 -16
-21 11 -61 7 -11 120 61 509 323 l501 336 325 0 326 0 0 -55 0 -55 640 0 c562
0 640 -2 640 -15 0 -12 -17 -15 -95 -15 l-95 0 0 -70 0 -70 1838 0 1837 0 505
-67 505 -66 60 23 c33 12 69 23 80 23 11 1 370 -247 797 -551 l778 -552 157
50 158 50 99 -67 100 -68 22 -75 c12 -41 48 -129 79 -195 92 -193 95 -206 95
-382 l0 -153 48 0 48 0 353 -1109 c195 -610 357 -1114 360 -1119 4 -6 85 -1
205 12 l198 22 8 -21 c4 -11 52 -155 106 -320 54 -165 108 -313 120 -330 13
-18 239 -691 558 -1660 294 -897 538 -1638 542 -1648 5 -14 0 -17 -37 -17 -24
0 -81 -3 -126 -7 -81 -6 -83 -7 -83 -32 l0 -26 88 7 c48 3 107 7 132 7 l45 1
66 -199 66 -198 -81 -7 c-44 -3 -100 -6 -123 -6 -41 0 -43 -1 -43 -31 0 -30 1
-31 38 -25 20 3 80 8 133 11 l96 7 13 -47 c13 -45 15 -47 43 -41 16 3 33 6 38
6 5 0 9 20 9 44 l0 44 120 7 120 8 0 29 c0 27 -2 29 -32 24 -18 -3 -77 -8
-130 -12 -105 -6 -103 -7 -99 46 0 8 -23 90 -52 181 l-54 167 45 6 c25 3 66 6
93 6 63 0 79 7 79 37 0 24 -1 24 -72 18 -40 -3 -93 -8 -118 -10 l-46 -5 -567
1727 c-515 1570 -567 1734 -567 1793 0 54 -12 101 -70 275 -38 115 -69 209
-67 210 1 2 157 19 347 39 190 20 364 39 386 42 l42 6 22 -67 c21 -63 23 -66
49 -60 l26 5 314 -917 c173 -505 346 -1010 384 -1122 l70 -203 35 6 c19 3 36
7 38 9 3 3 -768 2263 -800 2347 -5 13 59 22 444 64 248 26 453 46 456 43 15
-14 734 -2231 734 -2261 0 -40 8 -66 21 -66 5 0 9 24 9 54 0 30 4 56 9 58 5 1
9 48 9 103 0 296 -4 434 -10 441 -10 10 -10 15 -17 -113 l-6 -113 -313 956
c-172 526 -312 957 -310 959 3 3 955 105 976 105 9 0 12 60 12 267 l0 267
-324 1170 c-317 1142 -326 1178 -371 1441 -38 222 -126 604 -191 828 -5 16 79
17 1665 17 l1671 0 0 280 0 279 -128 3 -129 3 122 430 122 430 552 3 551 2 0
127 0 126 143 -6 c78 -4 283 -10 455 -13 266 -6 312 -5 308 7 -23 66 -416
1442 -413 1445 2 3 156 -14 342 -36 185 -23 338 -40 339 -38 2 2 13 20 25 41
21 33 26 37 54 32 38 -6 7397 -893 7397 -891 -17 78 -97 512 -96 514 4 3 267
-35 271 -40 2 -2 -6 -67 -17 -146 -18 -131 -19 -166 -2 -149 3 3 15 70 26 149
10 78 20 143 21 144 1 1 61 -7 132 -17 165 -23 155 -24 155 10 l0 28 -132 18
c-119 16 -161 27 -147 38 2 3 238 -24 524 -59 286 -35 520 -62 521 -61 1 1 15
108 31 239 l29 236 -51 6 c-27 4 -981 118 -2120 256 -1138 137 -2436 293
-2884 347 l-815 98 832 3 c824 2 832 2 832 22 0 20 -8 20 -1032 21 -568 0
-1055 4 -1083 9 -27 4 433 8 1023 9 l1072 1 0 70 0 70 715 0 715 0 0 209 0
208 46 7 c26 3 1632 6 3570 6 l3524 0 0 75 0 75 -5505 0 -5505 0 0 65 0 65
5440 0 5440 0 0 30 0 30 -5440 0 -5440 0 0 25 0 25 -725 0 -725 0 0 30 c0 31
15 192 25 263 5 32 3 37 -15 37 -17 0 -20 7 -20 40 l0 40 -110 0 -110 0 0 295
0 295 -245 0 -245 0 0 -80 0 -80 -165 0 -165 0 7 165 6 165 -266 0 -267 0 0
1075 0 1075 -1172 0 c-1146 1 -1179 1 -1421 24 -136 13 -249 25 -250 27 -2 2
-1 32 1 67 l4 64 91 44 91 44 123 0 123 0 0 170 0 170 -510 0 -510 0 0 -91 0
-91 -27 5 c-16 3 -560 115 -1210 248 l-1183 244 0 532 c0 293 4 533 8 533 5 0
41 -11 80 -24 l72 -25 0 455 c0 250 -4 454 -8 454 -5 0 -42 -11 -82 -25 -40
-14 -75 -25 -77 -25 -2 0 -3 204 -3 454 l0 454 38 15 37 15 3 -214 c2 -181 5
-214 17 -214 13 0 15 33 15 223 l0 222 95 39 95 38 0 384 0 384 125 0 125 0 0
85 0 85 -525 0 -525 0 0 -80 c0 -64 -3 -80 -15 -80 -8 0 -21 13 -30 30 -13 25
-15 123 -15 745 l0 715 -40 0 -40 0 0 -695 c0 -424 -4 -695 -9 -695 -5 0 -21
4 -34 9 -31 12 -106 -6 -232 -55 -88 -34 -92 -38 -165 -124 l-75 -89 -66 -1
-67 0 -18 115 c-10 63 -20 119 -24 124 -3 6 -44 33 -90 60 -75 45 -86 49 -105
37 -11 -7 -46 -27 -77 -45 -31 -18 -61 -38 -68 -45 -8 -10 -49 -210 -50 -243
0 -2 -278 -3 -617 -3 l-618 1 -160 199 -160 200 -302 0 c-167 0 -303 3 -303 8
0 4 9 58 19 121 l19 114 -72 145 -71 146 -142 58 -143 59 -142 -59 -143 -58
-71 -145 -71 -145 18 -114 c10 -63 19 -118 19 -122 0 -5 -53 -8 -118 -8 l-119
0 -62 373 c-35 204 -68 398 -73 430 l-10 57 -491 -2 -491 -3 -86 -470 -86
-470 -155 -3 -154 -2 -134 -215 -134 -215 -709 0 -708 0 0 445 0 445 145 0
145 0 0 54 c0 52 1 54 31 60 17 3 67 6 110 6 l79 0 0 410 0 410 -110 0 -110 0
0 -54z m22318 -11511 c15 -15 -17 -13 -142 5 -75 11 -141 20 -147 20 -5 0 -9
4 -9 8 0 8 289 -24 298 -33z"/>
</g>
</svg>
