<?xml version="1.0" standalone="no"?>
<!DOCTYPE svg PUBLIC "-//W3C//DTD SVG 20010904//EN"
 "http://www.w3.org/TR/2001/REC-SVG-20010904/DTD/svg10.dtd">
<svg version="1.0" xmlns="http://www.w3.org/2000/svg"
   viewBox="0 0 4785.000000 1291.000000"
 preserveAspectRatio="xMidYMid meet">
<metadata>
Created by potrace 1.16, written by Peter Selinger 2001-2019
</metadata>
<g transform="translate(0.000000,1291.000000) scale(0.100000,-0.100000)"
fill="#000000" stroke="none">
<path d="M1360 12883 c0 -16 -9 -147 -20 -293 -11 -146 -20 -275 -20 -288 0
-19 -11 -28 -60 -49 l-60 -26 0 -124 0 -123 -50 0 -50 0 0 -175 0 -175 50 0
c49 0 50 -1 50 -30 l0 -30 -95 0 c-90 0 -98 -2 -200 -46 l-105 -47 0 -223 0
-224 -122 -1 c-68 0 -132 -4 -143 -9 -12 -5 34 -9 123 -9 l142 -1 0 -230 0
-230 -70 0 -70 0 0 -335 0 -335 70 0 70 0 0 -230 0 -230 60 0 60 0 0 -70 0
-70 -142 -71 c-128 -64 -146 -76 -171 -116 -23 -37 -27 -55 -27 -114 0 -38 -1
-69 -2 -70 -2 0 -43 -6 -93 -12 l-90 -12 -3 -81 -3 -82 33 -5 c18 -4 61 -9 95
-13 l62 -6 3 -129 3 -129 -155 0 c-113 0 -193 -6 -292 -22 l-138 -22 0 -68 c0
-37 3 -68 8 -68 4 0 59 -9 122 -20 88 -15 161 -20 308 -20 l192 0 0 -180 0
-180 35 0 35 0 0 -110 0 -110 -75 0 -75 0 0 -240 0 -240 75 0 75 0 0 -135 0
-135 -25 0 -25 0 0 -105 0 -105 25 0 c23 0 25 -3 25 -49 0 -77 23 -119 76
-142 25 -10 65 -19 88 -19 l43 0 7 -167 c4 -93 11 -499 16 -903 5 -404 9 -736
9 -737 1 -2 5 -3 10 -3 6 0 12 265 15 663 5 606 12 867 21 867 2 0 358 -248
792 -552 692 -485 793 -553 831 -556 26 -3 42 0 42 7 0 8 77 11 260 11 l260 0
0 56 0 56 -260 -8 c-234 -6 -260 -5 -260 9 0 11 -12 17 -41 19 -36 3 -140 72
-835 558 l-794 555 0 60 1 60 127 41 127 40 383 -273 383 -273 625 0 c548 0
624 -2 624 -15 0 -13 85 -15 705 -15 620 0 705 2 705 15 0 13 22 15 140 15
118 0 140 -2 140 -15 0 -13 84 -15 700 -15 616 0 700 2 700 15 0 13 23 15 145
15 122 0 145 -2 145 -15 0 -13 68 -15 555 -15 l555 0 0 -898 0 -897 328 -328
327 -327 1540 0 1540 0 3120 -1256 c1716 -691 3126 -1258 3133 -1261 6 -3 12
-12 12 -19 0 -10 10 -14 33 -13 19 1 78 -17 145 -44 l112 -45 0 210 c0 196 1
210 18 203 9 -4 27 -10 40 -12 22 -5 22 -6 22 -204 l0 -199 90 0 90 0 0 -85 0
-85 -225 0 -225 0 0 -250 0 -250 230 0 230 0 0 145 0 145 55 0 c54 0 55 0 55
30 0 28 2 30 40 30 l40 0 0 -200 0 -200 4195 0 4195 0 0 178 c0 216 2 222 46
222 31 0 34 -3 34 -30 0 -30 1 -30 55 -30 l55 0 0 -145 0 -145 230 0 230 0 0
145 0 145 55 0 c54 0 55 0 55 30 0 27 3 30 34 30 44 0 46 -6 46 -222 l0 -178
4195 0 4195 0 0 178 c0 216 2 222 46 222 31 0 34 -3 34 -30 0 -29 1 -30 50
-30 l50 0 0 -129 c0 -71 3 -136 6 -145 5 -14 36 -16 235 -16 l229 0 0 145 0
145 55 0 c54 0 55 0 55 30 0 28 3 30 35 30 l35 0 0 -200 0 -200 4085 0 4085 0
0 -80 0 -80 665 0 665 0 0 60 0 60 708 3 707 2 -707 3 -708 2 0 35 0 35 708 3
707 2 -707 3 -708 2 0 145 0 145 533 1 c292 0 550 4 572 8 23 5 -202 9 -532
10 l-573 1 0 95 0 95 -450 0 -450 0 0 85 0 85 105 0 105 0 0 2410 0 2410 250
0 250 0 0 25 0 25 -250 0 -250 0 0 65 0 65 250 0 c243 0 250 1 250 20 0 19 -7
20 -250 20 l-250 0 0 1645 0 1645 225 0 c192 0 225 2 225 15 0 13 39 15 268
18 l267 2 -267 3 -268 2 0 86 c0 72 3 89 19 102 34 30 351 551 351 577 l0 25
433 3 432 2 -432 3 -433 2 0 45 c0 35 -4 45 -17 47 -10 1 50 5 132 8 l150 6
-144 2 c-110 2 -142 5 -138 15 3 6 15 35 27 63 l22 52 86 24 87 25 3 141 3
142 -73 0 c-64 0 -75 3 -100 27 l-28 27 0 316 0 317 -44 31 -44 32 -1777 0
-1777 0 -142 -100 -141 -101 -230 5 c-126 2 -249 7 -272 11 -41 7 -43 9 -43
41 l0 34 -140 0 -140 0 0 -35 c0 -31 3 -35 26 -35 17 0 46 -16 80 -46 l54 -46
0 -139 0 -139 -2487 0 c-1369 0 -2498 3 -2510 6 -21 6 -23 13 -23 66 0 42 -5
64 -17 76 -16 16 -16 17 0 20 9 2 17 12 17 23 0 14 -7 19 -30 19 -28 0 -30 -3
-28 -32 1 -18 -3 -33 -10 -36 -8 -2 -12 -26 -12 -67 0 -74 -1 -75 -127 -75
l-83 0 0 50 0 50 100 0 c60 0 100 4 100 10 0 6 -40 10 -100 10 l-100 0 -2 278
-2 277 -6 -275 c-4 -151 -7 -276 -8 -277 -1 -2 -49 -3 -107 -3 l-105 0 -3 493
-2 492 -3 -492 -2 -493 -110 0 c-67 0 -110 -4 -110 -10 0 -6 43 -10 110 -10
l110 0 0 -50 0 -50 -97 0 c-144 0 -140 -2 -147 83 -3 40 -5 84 -5 100 -1 23
-5 27 -31 27 -23 0 -30 -4 -30 -20 0 -11 7 -20 15 -20 9 0 12 -6 9 -15 -4 -8
-15 -15 -25 -15 -17 0 -19 -8 -19 -64 0 -49 -4 -65 -16 -70 -9 -3 -125 -6
-260 -6 l-243 0 -17 32 c-11 22 -13 33 -5 36 6 2 11 10 11 18 0 11 -26 14
-143 14 -142 0 -143 0 -216 -35 l-73 -35 -3214 0 -3214 0 -70 35 -70 35 -145
0 c-118 0 -145 -3 -145 -14 0 -8 5 -16 12 -18 9 -3 9 -12 -1 -36 l-13 -32
-252 0 c-138 0 -261 3 -273 6 -21 6 -23 13 -23 66 0 42 -5 64 -17 76 -16 16
-16 17 0 20 9 2 17 12 17 23 0 14 -7 19 -30 19 -28 0 -30 -3 -28 -32 1 -18 -3
-33 -10 -36 -8 -2 -12 -26 -12 -67 0 -75 0 -75 -132 -75 l-88 0 0 50 0 50 105
0 c63 0 105 4 105 10 0 6 -42 10 -105 10 l-105 0 -2 233 -2 232 -7 -190 c-3
-104 -7 -209 -8 -232 l-1 -43 -105 0 -105 0 -3 493 -2 492 -3 -492 -2 -493
-105 0 c-63 0 -105 -4 -105 -10 0 -6 42 -10 105 -10 l105 0 0 -50 0 -50 -92 0
c-138 0 -138 1 -138 72 0 33 -5 68 -10 79 -7 13 -7 19 0 19 5 0 10 9 10 20 0
16 -7 20 -35 20 -28 0 -35 -4 -35 -20 0 -11 7 -20 15 -20 22 0 18 -21 -5 -27
-17 -5 -20 -14 -20 -68 0 -57 -2 -63 -22 -69 -13 -3 -132 -6 -265 -6 l-242 0
-17 32 c-11 22 -13 33 -5 36 6 2 11 10 11 18 0 11 -26 14 -141 14 -139 0 -141
0 -216 -35 l-76 -35 -3214 0 -3213 0 -70 35 -70 35 -145 0 c-122 0 -145 -2
-145 -15 0 -8 7 -15 15 -15 13 0 12 -5 -2 -35 l-17 -35 -252 0 c-139 0 -259 3
-268 6 -12 5 -16 21 -16 70 0 48 -3 64 -14 64 -8 0 -16 7 -20 15 -3 9 0 15 9
15 8 0 15 9 15 20 0 16 -7 20 -31 20 -30 0 -31 -2 -25 -30 4 -22 1 -32 -9 -36
-11 -5 -15 -23 -15 -69 0 -48 -4 -64 -16 -69 -9 -3 -60 -6 -115 -6 l-99 0 0
50 0 50 110 0 c67 0 110 4 110 10 0 6 -43 10 -110 10 l-110 0 -2 188 c-1 162
-2 175 -9 97 -4 -49 -7 -134 -8 -187 l-1 -98 -105 0 -105 0 -3 493 -2 492 -3
-492 -2 -493 -80 0 c-47 0 -80 4 -80 10 0 6 -15 10 -34 10 -21 0 -36 6 -40 15
-3 8 -1 15 4 15 6 0 10 9 10 20 0 16 -7 20 -35 20 -28 0 -35 -4 -35 -20 0 -11
7 -20 16 -20 11 0 14 -6 9 -20 -5 -14 -2 -20 9 -20 13 0 16 -12 16 -59 0 -52
-2 -59 -22 -65 -13 -3 -710 -6 -1551 -6 l-1527 0 -243 194 c-166 133 -251 195
-271 198 -31 3 -50 28 -22 28 9 0 16 8 16 20 0 16 -7 20 -31 20 -30 0 -31 -1
-25 -35 l7 -35 -2186 0 -2185 0 0 -90 0 -90 -905 0 c-875 0 -905 1 -905 19 0
10 -18 39 -41 65 l-41 46 -2597 0 -2598 0 -41 -49 c-23 -27 -42 -57 -42 -65 0
-12 -11 -16 -50 -16 -56 0 -94 16 -125 51 -11 12 -14 19 -7 15 8 -5 12 1 12
19 0 25 0 25 -25 9 -23 -15 -24 -18 -10 -34 8 -9 15 -22 15 -28 0 -27 -46 -32
-309 -32 -264 0 -271 0 -271 20 0 18 7 20 65 20 l65 0 -2 572 -3 573 -102 16
c-56 8 -105 18 -108 20 -3 3 -8 109 -12 236 l-6 230 33 11 c18 7 80 12 136 12
87 0 104 3 104 15 0 9 7 18 15 21 20 8 19 21 -2 27 -17 4 -17 5 0 6 25 2 22 8
-28 57 l-46 44 -244 0 -245 0 0 -27z m6237 -1779 c-36 -28 -47 -44 -52 -75
l-7 -39 -2144 0 c-2137 0 -2144 0 -2144 20 0 19 -7 20 -205 20 -198 0 -205 1
-205 20 0 11 -3 20 -7 20 -5 1 -26 16 -48 35 l-40 35 2449 0 2449 0 -46 -36z
m34922 -32 c-52 -40 -339 -242 -344 -242 -3 0 -5 44 -5 97 0 96 0 98 32 130
l32 33 154 0 c152 0 154 0 131 -18z m-40169 -247 l0 -185 419 0 c363 0 420 -2
425 -15 3 -8 1 -15 -4 -15 -6 0 -10 -9 -10 -20 0 -16 7 -20 30 -20 26 0 30 4
30 26 0 21 -4 25 -17 20 -13 -4 -12 -1 5 13 12 11 22 31 22 45 l0 26 2145 0
2145 0 0 -30 0 -30 1000 0 1000 0 0 -170 0 -170 -895 0 -895 0 0 -135 0 -135
-115 0 -115 0 0 155 0 155 -1020 0 -1020 0 0 -155 0 -155 -430 0 -430 0 0
-195 0 -195 -275 0 c-238 0 -275 -2 -275 -15 0 -13 -39 -15 -295 -15 -256 0
-295 2 -295 15 0 13 -28 15 -189 15 l-189 0 -78 -115 -79 -115 -187 0 -187 0
-16 30 -16 30 -99 0 c-85 0 -100 -2 -100 -16 0 -12 -5 -15 -22 -9 -13 4 -71 9
-130 12 l-108 5 0 -111 0 -111 79 0 c44 0 90 4 103 9 60 22 78 22 78 1 0 -16
7 -20 35 -20 l35 0 0 -100 0 -100 -365 0 -365 0 0 195 c0 167 2 195 15 195 13
0 15 95 15 795 l0 795 320 0 320 0 0 -185z m1400 20 l0 -95 -250 0 -250 0 0
95 0 95 250 0 250 0 0 -95z m80 0 c0 -88 -1 -95 -20 -95 -19 0 -20 7 -20 95 0
88 1 95 20 95 19 0 20 -7 20 -95z m920 0 l0 -95 -440 0 -440 0 0 95 0 95 440
0 440 0 0 -95z m80 0 c0 -95 0 -95 -25 -95 -25 0 -25 0 -25 95 0 95 0 95 25
95 25 0 25 0 25 -95z m910 0 l0 -95 -440 0 -440 0 0 95 0 95 440 0 440 0 0
-95z m80 0 c0 -88 -1 -95 -20 -95 -19 0 -20 7 -20 95 0 88 1 95 20 95 19 0 20
-7 20 -95z m910 0 l0 -95 -440 0 -440 0 0 95 0 95 440 0 440 0 0 -95z m80 0
c0 -88 -1 -95 -20 -95 -19 0 -20 7 -20 95 0 88 1 95 20 95 19 0 20 -7 20 -95z
m680 0 l0 -95 -320 0 -320 0 0 95 0 95 320 0 320 0 0 -95z m10470 25 l0 -50
-57 0 c-94 0 -103 5 -103 56 l0 44 80 0 80 0 0 -50z m40 0 c0 -38 -4 -50 -15
-50 -11 0 -15 12 -15 50 0 38 4 50 15 50 11 0 15 -12 15 -50z m120 21 c0 -15
-3 -56 -6 -90 l-7 -61 -38 0 -39 0 0 90 0 90 45 0 c43 0 45 -1 45 -29z m60
-21 c0 -38 -4 -50 -15 -50 -11 0 -15 12 -15 50 0 38 4 50 15 50 11 0 15 -12
15 -50z m9050 0 c0 -27 -4 -50 -10 -50 -5 0 -10 23 -10 50 0 28 5 50 10 50 6
0 10 -22 10 -50z m120 21 c0 -15 -3 -56 -6 -90 -6 -56 -9 -61 -30 -61 -21 0
-24 5 -24 40 0 29 -4 40 -15 40 -11 0 -15 12 -15 50 l0 50 45 0 c43 0 45 -1
45 -29z m70 -21 c0 -43 -3 -50 -20 -50 -17 0 -20 7 -20 50 0 43 3 50 20 50 17
0 20 -7 20 -50z m9160 21 c0 -15 -3 -56 -6 -90 -6 -56 -9 -61 -30 -61 -21 0
-24 5 -24 40 0 33 -3 40 -20 40 -17 0 -20 7 -20 50 l0 50 50 0 c48 0 50 -1 50
-29z m80 -21 c0 -47 -2 -50 -25 -50 -23 0 -25 3 -25 50 0 47 2 50 25 50 23 0
25 -3 25 -50z m-17239 -14 l74 -35 -149 0 c-137 -1 -148 0 -141 17 4 9 10 25
12 35 4 14 17 17 68 17 50 0 77 -7 136 -34z m6782 -1 l17 -35 -152 0 -153 0
70 34 c57 28 82 35 136 35 65 1 65 1 82 -34z m2448 1 l74 -35 -149 0 c-137 -1
-148 0 -141 17 4 9 10 25 12 35 4 14 17 17 68 17 50 0 77 -7 136 -34z m6782
-1 l17 -35 -152 0 -153 0 70 34 c57 28 82 35 136 35 65 1 65 1 82 -34z
m-31363 -1421 l0 -24 -295 0 -295 0 0 24 0 25 295 -1 295 0 0 -24z m-2740
-204 l0 -190 -45 0 -45 0 0 190 0 190 45 0 45 0 0 -190z m2853 163 l337 -6 0
-69 0 -68 -182 0 c-218 0 -258 5 -258 31 0 17 -8 19 -75 19 -68 0 -75 2 -75
20 0 19 -7 20 -149 20 -141 0 -150 -1 -156 -20 -6 -17 -15 -20 -76 -20 l-69 0
0 50 0 50 183 0 c100 0 334 -3 520 -7z m337 -248 c0 -50 4 -85 10 -85 6 0 10
-11 10 -25 0 -14 -4 -25 -10 -25 -6 0 -10 -73 -10 -200 0 -127 4 -200 10 -200
6 0 10 -13 10 -30 0 -27 3 -30 30 -30 27 0 30 3 30 30 0 17 5 30 10 30 6 0 10
-93 9 -262 -1 -145 -4 -253 -6 -240 -6 30 -63 33 -63 2 0 -11 -7 -20 -15 -20
-13 0 -15 -29 -15 -200 0 -171 2 -200 15 -200 9 0 15 -9 15 -25 0 -21 5 -25
29 -25 25 0 30 5 34 28 2 15 5 -50 6 -144 l1 -171 113 -12 c182 -20 187 -21
187 -42 0 -19 -46 -19 -1750 -19 l-1750 0 0 290 0 290 120 0 120 0 0 195 c0
123 4 195 10 195 6 0 10 55 10 145 l0 145 135 0 c100 0 137 -3 140 -12 2 -7 9
-66 15 -130 l12 -118 153 0 153 0 47 75 c25 41 53 82 61 90 13 12 49 15 200
15 l184 0 0 120 0 120 125 0 125 0 0 140 0 140 -45 0 -45 0 0 75 0 75 100 0
c93 0 100 1 100 20 0 20 7 20 470 20 456 0 470 1 470 19 0 17 10 20 78 26 42
4 82 8 87 10 6 2 70 4 143 4 l132 1 0 -85z m100 -110 c0 -14 -4 -25 -10 -25
-5 0 -10 11 -10 25 0 14 5 25 10 25 6 0 10 -11 10 -25z m589 -1751 c2 -2 -30
-4 -72 -4 -48 0 -77 4 -77 11 0 9 138 3 149 -7z m-289 -204 l0 -30 70 0 70 0
0 30 0 30 455 0 455 0 0 -30 0 -30 75 0 75 0 0 30 0 30 455 0 455 0 0 -30 0
-30 75 0 75 0 0 30 0 30 280 0 280 0 0 -235 0 -235 -590 0 -590 0 0 -205 0
-205 35 0 c24 0 35 -5 35 -15 0 -13 -23 -15 -145 -15 -122 0 -145 2 -145 15 0
12 13 15 60 15 l60 0 0 205 0 205 -790 0 -790 0 0 -205 0 -205 30 0 c20 0 30
-5 30 -15 0 -13 -22 -15 -140 -15 -118 0 -140 2 -140 15 0 12 13 15 55 15 l55
0 0 205 0 205 -790 0 -790 0 0 -205 0 -205 30 0 c20 0 30 -5 30 -15 0 -13 -76
-15 -623 -15 l-623 0 -305 218 -306 217 13 35 c8 24 13 102 13 238 l1 202
1750 0 1750 0 0 -30z m22410 -5822 c0 -13 3 -40 6 -60 6 -36 5 -38 -20 -38
-25 0 -26 2 -26 60 0 53 2 60 20 60 14 0 20 -7 20 -22z m9240 -178 l0 -200 90
0 90 0 0 -85 0 -85 -220 0 -220 0 0 85 0 85 105 0 105 0 0 200 0 200 25 0 25
0 0 -200z m-9230 -75 l0 -125 90 0 90 0 0 -85 0 -85 -220 0 -220 0 0 85 0 85
105 0 105 0 0 125 0 125 25 0 25 0 0 -125z m-380 -260 l0 -135 -35 0 c-24 0
-35 5 -35 15 0 12 -13 15 -55 15 -48 0 -55 -2 -55 -20 0 -20 -7 -20 -4095 -20
-4088 0 -4095 0 -4095 20 0 17 -7 20 -50 20 -38 0 -50 -4 -50 -15 0 -11 -11
-15 -40 -15 l-40 0 0 135 0 135 4275 0 4275 0 0 -135z m9230 0 l0 -135 -35 0
c-24 0 -35 5 -35 15 0 12 -13 15 -55 15 -48 0 -55 -2 -55 -20 0 -20 -7 -20
-4095 -20 -4088 0 -4095 0 -4095 20 0 18 -7 20 -55 20 -42 0 -55 -3 -55 -15 0
-10 -11 -15 -35 -15 l-35 0 0 135 0 135 4275 0 4275 0 0 -135z m9230 50 l0
-85 -155 0 -155 0 0 -55 0 -55 -4030 0 c-4023 0 -4030 0 -4030 20 0 18 -7 20
-55 20 -42 0 -55 -3 -55 -15 0 -10 -11 -15 -35 -15 l-35 0 0 135 0 135 4275 0
4275 0 0 -85z"/>
</g>
</svg>
