<?xml version="1.0" standalone="no"?>
<!DOCTYPE svg PUBLIC "-//W3C//DTD SVG 20010904//EN"
 "http://www.w3.org/TR/2001/REC-SVG-20010904/DTD/svg10.dtd">
<svg version="1.0" xmlns="http://www.w3.org/2000/svg"
   viewBox="0 0 4886.000000 823.000000"
 preserveAspectRatio="xMidYMid meet">
<metadata>
Created by potrace 1.16, written by Peter Selinger 2001-2019
</metadata>
<g transform="translate(0.000000,823.000000) scale(0.100000,-0.100000)"
fill="#000000" stroke="none">
<path d="M6500 7880 l0 -350 -93 0 -94 0 -6 143 c-4 78 -7 175 -7 216 l0 74
-1007 -6 c-553 -4 -1278 -7 -1610 -7 l-603 0 0 -309 0 -308 -72 -6 c-40 -4
-122 -10 -183 -13 l-110 -7 -667 -278 c-366 -154 -669 -279 -672 -279 -3 0 -6
41 -6 90 0 89 0 90 -22 85 -13 -3 -286 -55 -608 -115 -391 -74 -589 -116 -596
-125 -16 -22 -24 -304 -24 -925 0 -537 2 -581 31 -652 11 -26 16 -28 69 -28
31 0 84 -3 117 -6 l60 -7 -4 -271 c-2 -149 -6 -317 -9 -373 l-6 -103 -83 0
c-54 0 -86 -4 -93 -12 -5 -7 -13 -35 -17 -63 -4 -27 -40 -194 -81 -370 l-74
-320 -9 -512 c-5 -281 -12 -516 -15 -522 -4 -5 -1 -13 5 -17 6 -3 313 -13 682
-21 545 -11 672 -11 679 -1 4 7 8 55 8 106 l0 92 274 0 274 0 7 -192 c4 -106
10 -249 14 -318 l6 -124 373 -170 c204 -94 371 -174 370 -178 -2 -4 -73 -59
-158 -123 -85 -64 -160 -126 -167 -138 -9 -16 -12 -119 -13 -385 0 -352 1
-365 21 -393 l20 -29 153 0 153 0 7 -52 c3 -29 6 -171 6 -315 l0 -263 2005 0
2006 0 -2 293 c0 160 2 342 6 402 l8 110 773 -3 774 -4 0 199 c0 109 2 892 3
1740 1 848 4 1543 7 1546 3 3 268 10 589 15 321 6 585 13 587 15 2 2 7 63 10
135 l7 132 2730 -2 2730 -3 22 -95 c13 -52 42 -175 65 -272 l42 -178 372 0
372 0 73 -175 74 -174 56 4 c31 3 164 9 296 15 132 5 283 13 336 16 l95 6 33
-71 33 -72 306 -251 306 -252 841 88 840 87 135 134 c74 74 142 135 150 135
16 0 2604 -497 2633 -506 15 -5 17 -24 17 -224 l0 -218 -67 -20 c-38 -11 -103
-31 -145 -43 l-78 -22 0 -398 0 -398 148 -103 c81 -58 154 -108 162 -113 8 -5
102 -30 210 -55 178 -41 195 -47 198 -68 3 -19 -1 -22 -30 -22 -49 0 -648 -28
-1088 -50 -212 -11 -406 -20 -432 -20 -41 0 -48 -3 -48 -20 0 -11 1 -20 3 -20
18 0 1220 -63 1380 -71 l217 -12 0 -84 0 -83 1710 0 1710 0 0 60 0 60 180 0
180 0 0 -25 0 -25 130 0 130 0 0 190 0 190 -130 0 c-123 0 -130 -1 -130 -20 0
-19 -7 -20 -180 -20 l-180 0 0 165 0 165 -110 0 -110 0 0 674 0 675 58 16 c31
9 74 21 95 27 l37 11 0 384 c0 225 4 383 9 383 5 0 46 14 90 31 l81 31 0 299
0 299 83 0 82 0 140 91 c134 88 140 90 165 76 297 -172 3551 -1980 3555 -1975
1 2 24 38 50 80 l46 78 57 -37 c31 -20 116 -74 188 -120 l131 -83 6 -108 c4
-59 9 -186 13 -282 5 -164 4 -177 -15 -215 -25 -47 -26 -95 -10 -475 11 -247
13 -268 36 -312 l23 -48 124 0 124 0 26 44 c25 43 26 51 25 188 -1 292 -15
552 -33 586 -13 25 -16 66 -16 227 0 108 4 195 8 193 39 -15 302 -193 302
-203 0 -8 -4 -25 -10 -39 l-10 -26 2130 0 2130 0 0 -335 0 -335 35 0 35 0 0
-67 0 -66 283 7 c155 3 560 9 900 13 l617 6 0 -261 0 -261 43 -6 c45 -6 1046
-115 1058 -115 3 0 26 -45 50 -100 l44 -100 2453 0 2452 0 0 363 0 363 403 17
c221 10 439 20 485 24 l82 6 0 132 0 132 38 7 c20 3 95 6 166 6 104 0 133 3
147 16 15 14 103 17 731 24 392 5 782 9 866 10 128 0 152 2 152 15 0 13 -31
15 -212 16 -117 0 -509 4 -871 8 -619 8 -658 9 -671 26 -12 16 -34 19 -180 23
l-166 5 0 92 c0 73 3 94 15 99 8 3 349 13 757 22 l743 16 18 23 c10 13 26 34
36 47 l19 23 594 6 c326 4 986 7 1466 8 l872 1 0 54 0 53 -61 7 c-34 3 -86 6
-115 6 l-54 0 0 64 0 63 -43 17 c-39 15 -178 16 -1535 16 l-1492 0 0 64 0 63
303 6 c166 4 697 10 1180 13 844 7 877 8 877 26 0 10 -1 18 -2 18 -18 2 -2059
30 -2185 30 l-173 0 0 45 0 45 -610 0 -610 0 0 78 0 78 -44 43 -44 43 -7 354
-7 354 -92 1 c-50 0 -205 4 -343 8 l-253 8 -82 88 -82 88 -391 -4 c-636 -6
-2309 12 -2317 25 -4 6 -17 39 -29 74 l-21 62 -418 0 -418 0 -27 -75 -28 -75
-943 0 -944 0 -70 -140 -70 -140 -290 0 -290 0 0 -30 c0 -27 -3 -30 -30 -30
l-30 0 0 -73 c0 -41 -3 -136 -7 -212 l-6 -137 -786 6 c-432 3 -873 9 -978 12
l-193 6 0 99 0 99 -1687 0 -1688 0 -1462 853 -1462 852 859 3 859 2 46 75 47
75 574 0 574 0 0 55 c0 53 0 54 33 59 27 4 643 27 715 26 12 0 22 6 22 14 0
11 142 14 833 20 457 3 946 9 1085 12 l252 7 0 32 0 32 -312 7 c-172 3 -661 9
-1085 12 l-773 7 0 23 c0 22 -4 24 -57 24 -32 0 -317 9 -634 21 l-576 21 -41
-21 c-39 -20 -56 -21 -340 -21 l-300 0 -33 54 -33 55 -1290 3 -1291 3 -135 98
-135 98 -106 -5 -106 -5 -76 44 c-66 39 -84 45 -134 46 l-58 0 -340 374 c-187
206 -356 392 -375 414 l-35 40 -628 100 c-458 74 -652 101 -717 101 l-90 0
-540 360 -540 360 -300 0 -300 0 0 50 0 50 -500 0 c-393 0 -500 -3 -501 -12 0
-7 -10 24 -21 70 l-20 82 -467 0 -468 0 -38 -84 c-37 -83 -37 -86 -22 -123
l15 -38 -122 -63 c-66 -35 -201 -104 -299 -154 l-178 -91 -112 111 -112 112
-73 0 c-70 0 -72 1 -72 25 l0 25 -1205 0 c-797 0 -1205 3 -1205 10 0 7 -393
10 -1160 10 l-1160 0 0 -40 0 -40 -162 0 c-90 0 -173 3 -185 6 -23 6 -23 8
-23 190 l0 184 -55 0 c-30 0 -55 -4 -55 -10 0 -7 -197 -10 -570 -10 -373 0
-570 3 -570 10 0 6 -35 10 -85 10 l-85 0 0 -190 0 -190 -3005 0 -3005 0 0 355
0 355 -650 0 -650 0 0 -350z m7310 -780 l0 -30 79 0 c73 0 80 2 83 21 2 16 25
-11 88 -105 l85 -126 393 0 393 0 81 125 c44 69 84 125 89 125 4 0 11 -9 14
-20 5 -17 15 -20 61 -20 53 0 54 0 54 30 0 30 1 30 53 30 28 0 89 -3 135 -7
l82 -6 0 -271 0 -271 -255 -315 c-167 -206 -255 -322 -255 -337 l0 -23 -1110
0 -1110 0 -2 -287 c-2 -159 -3 -318 -3 -356 l0 -67 -1642 0 -1643 0 0 134 0
133 -585 5 c-321 2 -588 7 -592 11 -4 4 -10 353 -14 775 -4 422 -8 768 -8 770
-1 1 -114 2 -252 2 -234 0 -250 1 -246 18 3 9 8 34 12 55 l6 37 3004 0 3005 0
0 -30z m6810 -95 l0 -95 -110 0 -110 0 0 95 0 95 110 0 110 0 0 -95z m7331
-2695 c707 -453 782 -502 699 -457 -91 50 -1615 900 -1619 903 -2 2 45 4 105
4 l110 0 705 -450z"/>
</g>
</svg>
