<?xml version="1.0" standalone="no"?>
<!DOCTYPE svg PUBLIC "-//W3C//DTD SVG 20010904//EN"
 "http://www.w3.org/TR/2001/REC-SVG-20010904/DTD/svg10.dtd">
<svg version="1.0" xmlns="http://www.w3.org/2000/svg"
   viewBox="0 0 4276.000000 3521.000000"
 preserveAspectRatio="xMidYMid meet">
<metadata>
Created by potrace 1.16, written by Peter Selinger 2001-2019
</metadata>
<g transform="translate(0.000000,3521.000000) scale(0.100000,-0.100000)"
fill="#000000" stroke="none">
<path d="M25045 35108 l-2520 -99 -2630 -344 -2630 -344 -1888 -385 -1889
-386 -486 0 -487 0 -760 -65 -760 -64 -33 -38 c-18 -21 -49 -57 -68 -79 l-34
-42 2 -228 3 -228 108 -45 c66 -27 103 -47 95 -51 -7 -4 -330 -176 -718 -383
l-706 -375 -834 -566 -835 -566 -170 -164 -170 -165 -82 -1 -83 0 0 -78 0 -78
-177 -169 c-98 -94 -219 -210 -270 -259 l-92 -88 -823 -167 -823 -168 -1315
-695 -1315 -695 -412 -619 c-227 -340 -413 -621 -413 -624 0 -3 298 -181 662
-395 l662 -390 308 -234 c170 -129 305 -237 301 -241 -4 -4 -480 -64 -1058
-135 -577 -71 -1053 -131 -1057 -134 -3 -3 -49 -174 -102 -380 -52 -205 -97
-375 -99 -377 -2 -3 -328 -132 -723 -287 l-719 -282 0 -1143 0 -1144 715 -280
c393 -154 720 -285 727 -292 6 -6 53 -103 103 -216 51 -113 93 -206 94 -207 0
-1 522 -66 1159 -144 l1157 -143 0 -363 c0 -256 3 -363 11 -363 10 0 3405
-602 3471 -616 l28 -6 0 -2144 0 -2144 4149 0 4149 0 206 -302 206 -303 0
-175 c1 -131 27 -1623 30 -1637 0 -2 991 -3 2203 -3 l2202 0 1595 -2100 1594
-2100 1020 -2 1019 -3 992 -2570 c885 -2292 1006 -2601 1127 -2860 l136 -290
-124 -3 c-68 -1 -124 -5 -124 -8 0 -3 361 -552 802 -1220 l803 -1214 2327 0
2328 0 0 1220 0 1220 -110 0 -110 0 0 310 0 310 -170 0 -170 0 0 2170 0 2170
170 0 170 0 0 385 0 385 355 0 355 0 0 73 c0 39 -18 1755 -40 3812 -22 2057
-39 3834 -38 3949 l3 210 813 501 c447 276 826 515 841 531 78 80 1231 1547
1231 1565 0 17 58 49 336 185 184 90 338 164 342 164 3 0 369 192 814 428
l807 427 1 46 0 46 95 29 95 29 1215 1170 c669 644 1233 1186 1255 1206 l39
36 177 1009 177 1009 -457 1260 c-251 693 -464 1270 -474 1283 -9 13 -341 331
-737 707 l-720 683 -2045 983 c-1680 807 -2758 1336 -2886 1414 -15 10 -350
486 -387 551 -4 7 -69 300 -146 652 l-138 639 -499 794 -499 793 -850 307
-850 306 -2160 122 c-1188 67 -2203 121 -2255 120 -52 -1 -1229 -46 -2615
-101z"/>
</g>
</svg>
