<?xml version="1.0" standalone="no"?>
<!DOCTYPE svg PUBLIC "-//W3C//DTD SVG 20010904//EN"
 "http://www.w3.org/TR/2001/REC-SVG-20010904/DTD/svg10.dtd">
<svg version="1.0" xmlns="http://www.w3.org/2000/svg"
   viewBox="0 0 3428.000000 4249.000000"
 preserveAspectRatio="xMidYMid meet">
<metadata>
Created by potrace 1.16, written by Peter Selinger 2001-2019
</metadata>
<g transform="translate(0.000000,4249.000000) scale(0.100000,-0.100000)"
fill="#000000" stroke="none">
<path d="M14633 42307 l-158 -179 -212 -522 -212 -521 0 -845 c0 -1563 13
-2465 50 -3370 31 -778 32 -826 19 -1058 -13 -232 -14 -243 -34 -247 -12 -2
-284 -39 -606 -81 l-585 -76 -1050 -8 c-577 -5 -1050 -9 -1051 -9 -21 -16 -35
-871 -34 -2066 0 -304 3 -386 17 -463 l17 -93 40 6 c61 8 1669 155 1697 155
l25 0 -81 -651 c-79 -633 -81 -650 -61 -645 12 2 61 8 110 12 l89 7 -7 -74
c-4 -41 -9 -94 -12 -119 l-5 -45 891 -699 890 -699 1 -46 c1 -25 4 -212 8
-416 l7 -370 118 -308 118 -309 10 -249 c6 -137 8 -252 5 -256 -4 -3 -394 2
-868 11 l-861 18 -612 342 -611 343 -795 121 -795 122 -960 -70 -960 -70 -705
-113 -705 -114 -569 -189 -568 -189 -231 -295 c-127 -162 -232 -297 -233 -299
-2 -2 -465 53 -1031 123 l-1028 126 -1390 20 c-765 11 -1463 21 -1552 23
l-163 4 0 -3273 0 -3273 143 5 c78 3 834 25 1679 49 l1536 43 410 235 409 235
1604 146 c882 80 1611 146 1620 146 11 0 25 30 49 108 18 59 36 110 39 114 3
4 533 -29 1176 -72 644 -44 1252 -85 1352 -92 101 -6 187 -14 193 -18 6 -4 20
-175 35 -416 14 -225 26 -419 28 -432 1 -18 101 -97 437 -347 l434 -323 1116
-1 c614 0 1575 6 2138 15 563 8 1025 14 1026 12 11 -15 164 -626 187 -742 15
-82 30 -150 31 -151 2 -1 57 -47 123 -102 l120 -100 90 -318 90 -318 165 7
165 6 415 -440 415 -441 424 -352 c234 -194 432 -357 440 -364 14 -10 4 -24
-68 -97 -47 -47 -82 -88 -79 -91 3 -3 324 -145 714 -316 389 -170 709 -310
710 -312 1 -1 -21 -57 -51 -124 l-53 -122 211 -104 c117 -57 498 -245 847
-417 349 -172 636 -314 637 -314 1 -1 -2 -279 -7 -617 -12 -803 -31 -1033
-170 -2099 -55 -421 -100 -770 -100 -777 0 -6 -64 -55 -142 -109 -79 -53 -146
-100 -150 -103 -4 -4 -70 -340 -147 -748 l-139 -740 79 -484 c43 -266 79 -500
79 -519 0 -19 -45 -281 -98 -581 l-98 -546 -409 -664 c-403 -654 -673 -1057
-728 -1085 -12 -6 -553 -213 -1202 -459 -649 -247 -1181 -449 -1183 -450 -1
-1 -23 -123 -48 -271 -26 -148 -47 -270 -49 -272 -1 -1 -751 -111 -1666 -243
-915 -132 -1671 -244 -1679 -248 -8 -4 -84 -116 -168 -247 -84 -131 -158 -244
-165 -251 -7 -6 -95 -34 -197 -63 -102 -29 -191 -56 -199 -60 -8 -4 -34 -58
-58 -120 l-43 -112 0 -1343 0 -1343 26 -68 c14 -38 35 -92 45 -120 l19 -50
234 -75 234 -74 106 -157 c73 -108 114 -159 129 -162 64 -14 1738 -162 2282
-203 l630 -47 980 117 c539 65 983 117 987 117 4 0 9 -78 10 -173 l3 -174
1120 378 c616 207 1273 425 1460 484 187 59 358 116 380 128 22 11 641 348
1375 750 l1335 730 798 646 797 645 0 171 1 170 985 715 c543 393 995 719
1006 724 12 6 75 3 178 -9 103 -12 166 -15 178 -9 10 5 99 72 197 149 l177
140 762 950 761 950 730 1055 731 1055 599 1045 600 1045 560 1305 560 1305
200 33 c109 18 201 35 203 37 7 7 94 261 128 375 28 92 76 372 243 1420 l209
1305 26 866 26 865 -95 485 -95 485 -114 292 -115 293 10 60 c11 70 11 70
-118 429 -40 113 -168 507 -283 875 -254 815 -242 778 -287 833 -32 39 -45 72
-90 231 -30 102 -72 271 -94 376 l-41 189 -379 511 -379 511 -333 248 -332
247 -55 -5 c-30 -4 -75 -9 -100 -12 l-46 -5 -510 528 c-281 290 -539 559 -574
596 l-63 68 -152 504 c-84 277 -165 534 -179 572 l-27 68 15 374 c8 206 19
377 24 380 43 28 282 216 282 221 0 4 -83 217 -184 473 l-185 466 -197 237
-197 238 -122 355 -121 356 -695 1087 c-382 598 -697 1087 -701 1087 -3 1 -54
-27 -114 -61 -103 -59 -108 -61 -120 -42 -7 10 -235 343 -507 739 l-494 720
-709 598 -709 597 -955 617 -955 616 -690 237 -689 238 -42 98 -42 99 -36 356
c-20 196 -36 394 -37 440 l0 84 -376 335 c-449 401 -797 718 -801 731 -2 5 5
37 17 71 11 35 27 101 36 148 l17 85 -263 600 -263 600 -303 395 -302 395
-668 324 -668 324 -660 -22 c-363 -12 -842 -24 -1065 -27 l-405 -5 -577 58
-577 59 -158 -179z"/>
</g>
</svg>
