<?xml version="1.0" standalone="no"?>
<!DOCTYPE svg PUBLIC "-//W3C//DTD SVG 20010904//EN"
 "http://www.w3.org/TR/2001/REC-SVG-20010904/DTD/svg10.dtd">
<svg version="1.0" xmlns="http://www.w3.org/2000/svg"
   viewBox="0 0 3784.000000 1449.000000"
 preserveAspectRatio="xMidYMid meet">
<metadata>
Created by potrace 1.16, written by Peter Selinger 2001-2019
</metadata>
<g transform="translate(0.000000,1449.000000) scale(0.100000,-0.100000)"
fill="#000000" stroke="none">
<path d="M3850 14451 c0 -34 21 -67 189 -297 103 -143 187 -260 186 -262 -3
-3 -696 -61 -736 -62 -9 0 -28 22 -43 51 -16 28 -34 53 -42 56 -8 3 -96 -5
-197 -18 -197 -26 -202 -28 -239 -97 -12 -22 -26 -32 -50 -36 -18 -3 -627 -53
-1353 -110 l-1320 -104 -123 -58 c-93 -43 -121 -61 -118 -73 3 -9 134 -603
292 -1321 157 -718 290 -1309 294 -1313 16 -17 379 -120 623 -177 142 -33 268
-62 281 -66 17 -4 22 -11 19 -28 -4 -18 18 -43 112 -131 l117 -109 333 3 334
3 9 -34 c5 -18 69 -266 142 -551 74 -285 139 -524 144 -531 6 -7 368 -136 803
-287 l793 -274 0 -240 0 -240 207 -207 208 -208 676 0 677 0 166 70 166 70
112 0 113 0 219 -100 c120 -55 219 -100 221 -100 1 0 8 12 14 28 9 21 8 44 -2
100 l-14 72 146 0 146 0 40 -76 c32 -61 50 -84 90 -110 l50 -34 166 0 166 0
21 -47 c11 -27 26 -66 33 -87 10 -34 9 -41 -5 -51 -9 -7 -113 -86 -231 -176
-166 -127 -215 -169 -215 -186 l0 -23 288 0 289 0 70 -242 70 -243 108 -32
c59 -17 108 -33 110 -35 1 -2 316 -779 699 -1728 383 -948 701 -1727 707
-1731 6 -3 51 -11 101 -17 50 -6 94 -15 98 -19 6 -6 87 -207 187 -460 4 -9 -6
-13 -30 -13 -36 0 -760 -272 -784 -294 -20 -19 -173 -354 -173 -379 0 -21 34
-43 248 -166 l247 -143 200 -23 c189 -22 201 -25 220 -49 11 -14 26 -26 32
-26 6 0 14 -9 18 -20 3 -11 19 -27 36 -37 16 -10 31 -24 33 -33 3 -8 39 -217
82 -465 71 -414 79 -452 101 -471 21 -18 28 -42 53 -205 17 -101 30 -190 30
-196 0 -7 18 -22 40 -33 l40 -20 0 27 c0 15 -52 335 -116 711 -103 610 -114
686 -102 712 l13 30 92 0 93 0 0 -220 c0 -220 0 -220 23 -225 12 -3 231 -39
486 -80 l463 -75 762 0 761 1 127 28 c72 16 143 39 164 52 38 23 40 23 682 41
355 9 649 19 656 22 6 2 -68 5 -164 5 -96 1 -392 6 -658 11 -415 9 -487 13
-508 26 l-24 16 0 237 0 236 -193 78 -192 77 -395 1 -395 1 46 21 c41 19 75
57 263 297 269 343 262 317 120 442 l-97 85 -196 27 c-108 14 -217 26 -243 26
l-46 0 -25 75 c-30 87 -40 82 108 60 148 -21 135 -28 135 68 1 65 -10 126 -51
299 l-52 217 -53 22 c-29 11 -56 28 -58 38 -10 33 -886 3624 -886 3632 0 4 11
20 25 34 l26 25 1086 0 c1020 0 1100 1 1297 20 236 23 259 27 254 40 -2 5
-154 116 -338 247 l-335 239 -225 40 -225 39 -483 5 -483 5 85 120 c81 113 85
120 71 142 -8 12 -15 25 -15 27 0 3 66 37 147 76 l146 70 331 0 c275 1 334 3
350 15 17 13 109 15 632 15 l613 0 121 140 121 140 542 -1 542 0 338 -375 337
-375 0 -149 0 -148 188 -62 c134 -45 195 -70 214 -89 24 -24 29 -42 54 -208
l28 -183 406 0 405 0 1074 -298 1074 -298 333 -464 334 -464 1261 -518 1261
-519 395 -255 394 -256 522 -135 c287 -74 529 -135 537 -135 8 -1 125 42 259
95 l245 95 193 -320 c106 -176 193 -322 193 -324 0 -2 -54 16 -121 39 -102 35
-121 39 -129 27 -5 -8 -10 -18 -10 -21 0 -4 68 -31 152 -60 l152 -54 105 -173
106 -174 921 -667 921 -668 588 -6 c324 -4 754 -7 956 -7 l367 0 27 75 28 75
-32 72 c-26 59 -29 74 -19 87 80 101 234 270 251 275 12 3 38 6 57 6 33 -1 39
-6 109 -110 l75 -110 506 0 507 0 9 -53 9 -52 676 -3 677 -2 6 37 c15 81 -39
73 499 73 l482 0 127 120 126 120 59 0 c58 0 60 1 328 165 l269 165 1606 0
1607 0 23 -63 c12 -34 26 -66 30 -70 8 -10 318 -43 325 -35 3 3 -11 86 -30
185 l-35 180 -196 379 c-108 208 -197 380 -197 381 -1 1 -69 13 -152 27 -206
36 -205 36 -205 50 0 8 -260 114 -647 265 l-648 251 -465 81 c-451 78 -468 80
-572 73 -83 -5 -108 -10 -108 -21 0 -7 -6 -16 -14 -19 -11 -4 -3392 521 -3484
541 -16 4 -25 17 -34 51 -9 31 -18 46 -33 49 -11 2 -348 47 -750 100 -401 53
-746 98 -766 101 -29 5 -37 2 -45 -16 -8 -19 -12 -12 -27 51 l-18 74 -167 100
c-92 55 -179 112 -193 127 -18 18 -253 130 -700 334 -371 168 -679 311 -686
318 -7 6 -213 357 -458 779 l-445 768 32 27 c18 15 42 36 55 47 l23 20 -792
660 -791 660 -98 210 c-57 121 -106 213 -116 218 -10 4 -1325 338 -2923 741
l-2905 734 -855 405 -855 404 -2280 603 c-1254 332 -2286 605 -2292 608 -9 3
-13 -6 -13 -28 0 -25 18 -54 87 -138 48 -58 81 -103 73 -100 -8 3 -529 175
-1156 382 l-1142 376 -191 122 c-105 68 -428 274 -718 459 l-528 336 -212 47
-212 47 -89 -54 -89 -53 -1594 217 -1594 218 -810 1 c-688 0 -817 2 -859 15
-66 20 -66 20 -66 -24z m11459 -5935 c35 -8 71 -22 80 -31 15 -17 -2 -17 -318
-11 -184 3 -422 6 -529 6 l-195 0 23 25 23 25 426 0 c321 -1 442 -4 490 -14z
m-4479 -5592 c261 -37 480 -72 487 -78 6 -6 27 -62 46 -123 l35 -113 -404 -2
c-222 -1 -427 -2 -455 -3 l-51 0 -69 175 c-82 208 -83 210 -72 210 4 0 222
-30 483 -66z"/>
</g>
</svg>
