<?xml version="1.0" standalone="no"?>
<!DOCTYPE svg PUBLIC "-//W3C//DTD SVG 20010904//EN"
 "http://www.w3.org/TR/2001/REC-SVG-20010904/DTD/svg10.dtd">
<svg version="1.0" xmlns="http://www.w3.org/2000/svg"
   viewBox="0 0 4859.000000 812.000000"
 preserveAspectRatio="xMidYMid meet">
<metadata>
Created by potrace 1.16, written by Peter Selinger 2001-2019
</metadata>
<g transform="translate(0.000000,812.000000) scale(0.100000,-0.100000)"
fill="#000000" stroke="none">
<path d="M20967 7805 c-4 -176 -10 -375 -13 -442 l-6 -123 -187 0 c-183 0
-188 -1 -209 -23 -19 -20 -22 -35 -22 -105 l0 -82 -198 0 -198 0 -37 -44 c-36
-44 -37 -46 -37 -130 l0 -86 -115 0 c-134 0 -135 -1 -135 -99 l0 -61 -353 0
-353 0 -62 -63 -62 -63 0 -292 0 -292 -1740 0 c-1733 0 -1740 0 -1740 20 0 19
7 20 205 20 232 0 225 -3 225 84 0 34 -4 46 -15 46 -11 0 -15 11 -15 40 0 29
4 40 15 40 11 0 15 12 15 50 0 38 -4 50 -15 50 -11 0 -15 12 -15 45 0 33 4 45
15 45 13 0 15 28 15 190 l0 190 -480 0 -480 0 0 -55 0 -55 -1018 0 -1019 0 -6
107 c-4 58 -7 134 -7 167 -1 56 -4 64 -39 104 l-39 42 -415 0 -416 0 -3 38 -3
37 -492 3 -493 2 0 -40 0 -40 -85 0 -85 0 0 83 c0 74 -3 86 -23 105 -23 22
-30 22 -304 22 l-280 0 -6 248 c-4 136 -8 328 -9 427 l-2 180 -6 -195 c-4
-107 -8 -300 -9 -427 l-1 -233 -434 0 -433 0 -7 61 c-3 34 -7 164 -7 288 -1
124 -5 269 -9 321 -6 82 -7 67 -8 -106 -1 -110 -5 -283 -9 -382 l-6 -182 -24
0 -23 0 0 139 c0 119 2 140 16 143 10 2 -46 62 -160 171 l-176 168 -110 6
c-74 4 -114 10 -121 19 -8 10 -42 14 -124 14 -126 0 -133 3 -146 68 l-7 37 -1
-32 -1 -33 -178 0 -178 0 -17 -30 c-15 -24 -25 -30 -53 -30 l-34 0 0 -185 0
-185 105 0 105 0 0 -135 0 -135 -78 0 c-69 0 -81 -3 -100 -23 -19 -20 -22 -35
-22 -105 l0 -82 -202 -1 -203 -1 -33 -38 c-31 -36 -34 -45 -39 -129 l-6 -91
-103 0 -104 0 0 185 0 185 -642 0 c-612 0 -647 1 -718 20 -63 17 -120 21 -350
27 -272 6 -276 5 -392 -21 -113 -25 -128 -26 -433 -26 l-315 0 0 -133 0 -133
-88 -21 c-48 -11 -167 -40 -265 -63 l-177 -43 2 -240 3 -241 250 -58 250 -58
900 3 900 2 3 138 3 137 104 0 105 0 0 -165 0 -165 -1258 0 -1259 0 -154 -100
-154 -100 -112 0 -113 0 0 -203 0 -204 -233 -6 c-127 -4 -249 -10 -270 -13
l-37 -7 0 96 c0 85 -2 98 -19 107 -13 7 -300 10 -860 10 l-840 0 -528 -80
c-290 -44 -540 -83 -555 -86 l-28 -6 0 -349 c0 -254 3 -349 11 -349 14 0 902
-138 941 -146 l28 -6 0 -117 0 -118 145 -28 c79 -16 142 -31 139 -34 -2 -2
-66 -16 -142 -30 l-137 -26 -3 -351 -2 -350 353 -72 c271 -55 372 -72 437 -72
80 0 86 2 166 45 100 55 52 53 674 20 389 -21 560 -25 1043 -25 l577 0 0 405
0 405 1090 0 1090 0 0 -65 0 -65 -540 0 -540 0 0 -60 0 -60 538 0 539 0 6
-247 c4 -137 7 -318 7 -404 l0 -156 61 -67 61 -66 314 0 314 0 0 -98 0 -98 58
-57 57 -57 1169 -2 1168 -3 66 -177 65 -178 187 0 187 0 6 -293 c4 -160 7
-362 8 -447 2 -218 16 -325 18 -135 0 77 4 305 8 508 l6 367 142 0 142 0 6
-162 c4 -90 10 -363 14 -608 l8 -445 6 300 c3 165 7 438 8 608 l1 307 670 0
669 0 6 32 c3 18 11 74 18 123 l12 90 380 5 380 5 3 53 3 52 279 0 279 0 3
-52 3 -53 484 -3 c381 -2 486 0 493 10 4 7 8 32 8 56 l0 42 118 0 118 0 52 53
52 53 0 102 0 102 418 0 418 0 67 68 67 68 0 402 0 402 280 0 280 0 0 60 0 60
-280 0 -280 0 0 65 0 65 1050 0 c927 0 1050 -2 1050 -15 0 -13 -32 -15 -225
-15 l-225 0 0 -65 0 -65 225 0 c193 0 225 -2 225 -15 0 -12 17 -15 95 -15 78
0 95 3 95 15 0 13 28 15 190 15 162 0 190 -2 190 -15 0 -12 17 -15 95 -15 78
0 95 3 95 15 0 13 40 15 303 15 l304 0 6 -142 c4 -79 7 -280 7 -448 l0 -306
68 -67 68 -67 312 0 312 0 0 -103 0 -103 53 -52 53 -52 1170 0 1169 0 29 -77
c16 -43 46 -124 68 -181 l39 -102 133 0 133 0 6 -302 c4 -166 7 -369 8 -452 0
-83 4 -171 8 -196 6 -33 9 -7 10 100 0 80 4 304 8 498 l6 352 147 0 148 0 8
-523 c5 -297 11 -494 15 -457 4 36 10 271 14 523 l8 457 718 0 c678 0 719 1
719 18 0 9 7 65 16 124 l17 108 381 2 381 3 3 53 3 52 274 0 274 0 3 -52 3
-53 491 -3 491 -2 7 31 c3 17 6 42 6 55 0 24 1 24 113 24 l113 0 57 58 57 58
0 97 0 97 418 1 417 1 63 68 62 67 5 484 c3 266 8 503 11 527 l5 42 1105 0
1104 0 0 -95 0 -95 95 0 95 0 0 95 0 95 185 0 185 0 0 -95 0 -95 95 0 95 0 0
95 0 95 310 0 310 0 0 -529 0 -529 68 -66 67 -66 313 0 312 0 0 -104 0 -104
59 -51 59 -51 2180 0 2181 0 3 -52 3 -53 490 0 490 0 3 53 3 52 274 0 274 0 3
-52 3 -53 490 0 490 0 8 53 9 52 113 0 114 0 50 53 51 52 0 103 0 102 130 0
130 0 0 -75 c0 -43 4 -75 10 -75 6 0 10 -38 10 -95 0 -57 -4 -95 -10 -95 -6 0
-10 -37 -10 -90 0 -53 4 -90 10 -90 6 0 10 -30 10 -70 0 -40 -4 -70 -10 -70
-14 0 -13 -183 2 -215 l11 -25 594 0 593 0 0 -30 c0 -29 -1 -30 -50 -30 l-50
0 0 -185 c0 -117 4 -185 10 -185 6 0 10 -22 10 -50 0 -27 -4 -50 -10 -50 -5 0
-10 -22 -10 -50 0 -27 5 -50 10 -50 6 0 10 -16 10 -35 0 -19 -4 -35 -10 -35
-14 0 -12 -104 2 -118 9 -9 72 -12 220 -12 l208 0 0 -170 0 -170 43 -1 42 0
411 -522 410 -522 112 -3 112 -3 0 146 0 145 29 0 c16 0 31 6 33 12 4 10 265
16 1164 29 637 9 1146 17 1129 18 -44 2 -2016 31 -2167 31 -107 0 -128 2 -128
15 0 10 -10 15 -30 15 l-30 0 0 73 c0 56 -5 78 -20 97 -17 21 -20 41 -20 136
0 98 2 113 20 129 18 16 20 31 20 137 l0 118 -243 0 c-134 0 -312 3 -395 7
l-152 6 0 138 0 138 88 3 87 3 3 63 c2 38 -1 62 -8 62 -5 0 -10 16 -10 35 0
19 5 35 10 35 6 0 10 23 10 50 0 28 -4 50 -10 50 -5 0 -10 23 -10 50 0 28 5
50 10 50 6 0 10 68 10 185 l0 185 -260 0 -260 0 0 30 0 30 98 0 c90 0 100 2
120 23 19 21 22 34 22 120 0 90 -1 97 -20 97 -18 0 -20 7 -20 70 0 63 2 70 20
70 19 0 20 7 20 90 l0 90 -30 0 -30 0 0 95 0 95 30 0 30 0 0 345 0 345 -204 0
-204 0 -12 73 c-18 111 -14 106 -74 109 l-53 3 348 288 347 287 201 0 201 0 0
145 0 145 320 0 320 0 0 53 0 54 278 6 c253 6 285 9 361 31 l84 24 55 -24 54
-24 619 0 619 0 0 -126 0 -125 658 3 c361 2 665 7 675 12 13 6 17 4 17 -13 0
-18 6 -21 40 -21 32 0 40 4 40 18 0 21 55 22 1498 39 320 3 580 9 577 11 -5 5
-1557 30 -1932 31 -120 1 -143 3 -143 16 0 11 -11 15 -40 15 -29 0 -40 -4 -40
-15 0 -11 -11 -15 -43 -15 -41 0 -47 4 -155 113 l-114 114 84 6 c46 4 184 8
308 9 l225 1 -315 9 c-173 4 -329 13 -346 18 -17 6 -76 10 -133 10 -81 0 -103
3 -107 15 -4 9 -19 15 -40 15 l-34 0 0 88 0 89 143 6 c78 4 225 7 327 8 102 1
244 5 315 8 l130 8 -150 1 c-82 1 -288 5 -457 9 -290 6 -308 7 -308 25 0 17
11 18 165 18 140 0 165 -2 165 -15 0 -11 11 -15 40 -15 29 0 40 4 40 15 0 8 1
15 3 16 7 1 1920 28 2127 30 135 1 -234 10 -820 20 -586 9 -1120 18 -1187 18
-102 1 -123 4 -123 16 0 11 -11 15 -40 15 -29 0 -40 -4 -40 -15 0 -13 -22 -15
-134 -15 -73 0 -148 3 -165 6 -29 6 -31 9 -31 50 0 24 1 45 3 46 1 0 232 6
512 12 l510 11 -435 8 c-239 4 -470 10 -512 13 l-78 6 0 39 0 39 -215 0 c-240
0 -222 -6 -209 73 5 28 12 39 30 43 30 8 36 26 28 94 -8 73 -13 79 -60 90 -53
13 -508 12 -564 0 -25 -6 -55 -12 -67 -15 -20 -5 -23 -12 -23 -58 l0 -53 73
-15 c69 -13 72 -15 83 -49 6 -19 14 -52 18 -72 l7 -38 -180 0 c-150 0 -194 4
-268 22 -79 19 -116 21 -368 22 -154 0 -320 0 -370 0 -413 2 -577 0 -617 -8
l-48 -8 0 36 0 36 -320 0 -320 0 0 135 0 135 -303 0 -302 0 -280 93 -280 94
-3 31 c-3 27 0 32 17 32 18 0 21 6 21 50 0 43 -3 50 -20 50 -17 0 -20 7 -20
50 0 43 3 50 20 50 19 0 20 7 20 185 l0 185 -250 0 -250 0 0 65 0 65 -170 0
-170 0 0 -65 0 -65 -65 0 -65 0 0 -55 0 -55 -1050 0 -1050 0 -1 123 c-1 179
-9 220 -49 262 l-34 35 -457 0 -457 0 -6 23 c-3 12 -6 86 -6 165 l0 142 -622
0 -623 0 -93 25 c-77 21 -116 25 -223 25 l-129 0 -1 143 c-1 78 -5 234 -9 347
l-6 205 -2 -220 c-1 -121 -5 -277 -9 -347 l-6 -128 -116 6 c-105 5 -130 3
-259 -25 -129 -28 -160 -31 -316 -31 l-173 0 -7 92 c-3 50 -7 197 -8 327 -1
192 -3 217 -8 136 -4 -55 -8 -202 -9 -327 l-1 -228 -130 0 -130 0 0 -60 0 -60
-310 0 -310 0 -1 233 c-1 127 -5 320 -9 427 l-6 195 -2 -180 c-1 -99 -5 -291
-9 -427 l-6 -248 -180 0 c-171 0 -183 -1 -214 -22 -33 -23 -33 -23 -33 -105
l0 -83 -191 0 -191 0 -39 -42 c-38 -43 -38 -43 -39 -130 l0 -87 -122 -3 -123
-3 -3 -77 -3 -78 -351 0 -350 0 -65 -63 -65 -63 -6 -292 -5 -292 -1794 0
c-1780 0 -1793 0 -1793 20 0 19 8 20 213 22 l212 3 3 63 c2 38 -1 62 -8 62 -5
0 -10 18 -10 40 0 22 5 40 10 40 6 0 10 23 10 50 0 38 -4 50 -15 50 -11 0 -15
12 -15 45 0 33 4 45 15 45 13 0 15 28 15 190 l0 190 -480 0 -480 0 0 -55 0
-55 -1020 0 -1020 0 0 168 -1 167 -40 43 -40 42 -364 0 -365 0 0 165 0 165
-144 0 -144 0 -7 29 c-3 16 -14 33 -23 37 -9 4 -129 9 -266 12 -210 3 -261 1
-332 -14 -76 -16 -84 -19 -84 -41 0 -23 -1 -23 -122 -23 -100 0 -141 5 -216
25 -81 22 -114 25 -255 25 -89 0 -192 3 -229 7 l-68 6 -1 236 c-1 130 -5 247
-9 261 -4 14 -8 -90 -9 -237 l-1 -263 -23 0 c-13 0 -88 -13 -165 -30 -138 -29
-150 -30 -415 -30 l-274 0 -6 152 c-4 83 -7 225 -7 316 0 91 -3 162 -7 158 -4
-4 -10 -145 -13 -314 l-5 -307 -22 -3 c-21 -3 -23 -9 -23 -63 l0 -59 -410 0
-410 0 -1 148 c-1 81 -5 280 -8 442 l-6 295 -8 -320z m-11847 -430 l0 -135
-245 0 -245 0 0 135 0 135 245 0 245 0 0 -135z m31780 -1450 c0 -25 -1 -25
-80 -25 -79 0 -80 0 -80 25 0 25 1 25 80 25 79 0 80 0 80 -25z m-38664 -1563
c-11 -10 -210 -20 -221 -10 -6 6 -6 11 2 16 14 9 228 3 219 -6z m15934 -67 c0
-13 -28 -15 -190 -15 -162 0 -190 2 -190 15 0 13 28 15 190 15 162 0 190 -2
190 -15z m800 0 c0 -13 -41 -15 -305 -15 -264 0 -305 2 -305 15 0 13 41 15
305 15 264 0 305 -2 305 -15z m21930 -270 l0 -185 -80 0 -80 0 0 185 0 185 80
0 80 0 0 -185z"/>
</g>
</svg>
