<?xml version="1.0" standalone="no"?>
<!DOCTYPE svg PUBLIC "-//W3C//DTD SVG 20010904//EN"
 "http://www.w3.org/TR/2001/REC-SVG-20010904/DTD/svg10.dtd">
<svg version="1.0" xmlns="http://www.w3.org/2000/svg"
   viewBox="0 0 4811.000000 1753.000000"
 preserveAspectRatio="xMidYMid meet">
<metadata>
Created by potrace 1.16, written by Peter Selinger 2001-2019
</metadata>
<g transform="translate(0.000000,1753.000000) scale(0.100000,-0.100000)"
fill="#000000" stroke="none">
<path d="M19430 17493 l-2175 -34 -950 -100 -950 -100 -874 -165 c-481 -90
-876 -166 -879 -168 -2 -3 12 -100 33 -216 20 -116 35 -213 33 -214 -1 -2
-466 -103 -1033 -225 -566 -123 -1208 -263 -1425 -312 -217 -50 -1018 -216
-1779 -370 -1070 -216 -1387 -277 -1392 -267 -31 54 -133 179 -142 175 -38
-14 -5548 -1587 -5559 -1587 -7 0 -35 34 -62 74 l-50 74 -55 5 c-48 3 -83 -5
-241 -56 -102 -33 -186 -61 -188 -62 -2 -2 64 -285 147 -630 83 -346 151 -633
151 -639 0 -6 -373 -195 -828 -419 l-827 -409 -188 -248 -187 -249 -1 -108
c-1 -59 5 -148 12 -198 9 -62 13 -218 14 -505 0 -228 6 -665 14 -970 8 -305
15 -694 15 -864 l1 -309 194 -246 195 -246 790 -388 790 -388 1015 25 c2171
54 1943 53 3126 17 853 -25 1544 -54 1551 -64 1 -1 -68 -191 -153 -422 l-154
-420 -169 -715 -169 -715 -50 -686 c-28 -378 -51 -700 -51 -715 1 -24 6 -17
30 36 l30 65 -6 -60 c-4 -33 -4 -58 -2 -55 5 4 515 1183 915 2111 99 232 155
341 358 709 156 282 283 497 360 612 117 172 121 177 155 178 19 0 161 -9 316
-20 l280 -20 1200 -476 1199 -476 1160 -400 c638 -220 1161 -401 1163 -403 2
-2 -11 -79 -28 -173 l-32 -169 67 -258 c56 -217 71 -263 93 -286 15 -15 94
-57 175 -94 l148 -67 452 -59 c249 -33 464 -61 478 -62 21 -2 43 19 130 118
216 250 197 222 218 329 10 53 21 99 24 102 3 3 534 -185 1179 -419 l1173
-426 2030 -521 c1117 -286 2037 -523 2046 -526 11 -3 15 -13 12 -32 -3 -15
-61 -313 -129 -662 -115 -593 -339 -1870 -332 -1892 2 -5 46 101 98 236 52
134 96 244 97 242 1 -1 -16 -107 -38 -235 -22 -128 -38 -235 -36 -237 2 -2
119 294 259 659 253 657 257 667 443 1282 l188 620 276 -3 c152 -2 926 -11
1721 -21 l1445 -19 899 276 899 275 246 -122 246 -122 243 1 243 0 257 116
c141 64 262 121 268 126 7 5 26 49 44 98 23 65 37 90 49 90 10 0 294 -58 632
-130 613 -129 616 -129 1644 -284 l1030 -154 465 17 465 17 340 113 340 114
297 184 298 184 558 -175 558 -175 685 -61 686 -61 519 236 519 236 190 -89
189 -89 77 25 c70 23 91 37 210 137 l132 112 172 -81 173 -81 185 -405 186
-405 167 -595 c118 -420 216 -801 334 -1295 133 -553 169 -694 175 -670 7 23
10 26 14 12 4 -10 83 297 178 690 l172 708 -18 730 -18 730 -83 363 -83 363
20 22 c11 12 193 218 404 457 l384 435 397 747 397 747 -69 748 -69 748 -273
581 c-271 575 -275 582 -351 672 -42 50 -77 93 -77 96 0 4 210 146 468 316
l467 309 58 106 c56 104 57 106 41 136 -8 17 -14 32 -12 33 2 2 395 252 873
556 479 304 879 561 891 572 11 10 31 40 43 66 22 47 32 54 669 459 l646 412
34 -15 c19 -8 40 -14 46 -14 6 0 25 24 40 53 28 50 28 54 13 78 l-16 24 964
650 c531 357 965 651 965 653 0 2 -10 -2 -22 -10 -16 -10 -1617 -978 -1910
-1155 -5 -2 -8 -2 -8 1 0 2 406 296 903 652 496 356 909 653 917 661 8 8 -430
-274 -975 -626 -964 -624 -990 -640 -1007 -621 -13 16 -29 20 -82 20 l-66 0 0
-49 0 -49 -632 -428 -631 -429 -76 -11 -76 -11 -844 -573 c-546 -371 -846
-569 -850 -561 -8 13 -257 35 -275 24 -19 -12 -908 -594 -967 -634 l-56 -37
-204 245 c-196 236 -232 273 -944 967 -407 397 -766 747 -797 777 l-57 54 153
145 153 145 -14 40 c-7 21 -12 46 -11 55 1 8 -2 21 -6 29 -7 11 114 137 499
515 442 437 508 506 514 537 5 31 55 84 362 388 336 331 359 351 393 351 20 0
36 2 36 4 0 2 -6 21 -14 42 l-13 39 556 575 556 575 -323 -305 c-178 -168
-333 -312 -345 -320 -12 -8 99 112 246 268 148 155 266 282 262 282 -3 0 -240
-225 -527 -500 -287 -275 -525 -497 -530 -492 -4 4 -28 6 -53 4 -46 -4 -46 -4
-39 -34 6 -30 -8 -45 -352 -389 -317 -317 -362 -359 -396 -364 -34 -6 -87 -56
-519 -494 -514 -521 -495 -506 -553 -467 -22 14 -25 13 -41 -4 -10 -11 -31
-20 -46 -20 -22 0 -52 -26 -158 -136 l-130 -137 -302 294 c-165 162 -304 293
-308 292 -4 -1 -68 -36 -142 -78 -116 -67 -259 -125 -304 -125 -9 0 -1063 677
-1082 694 -1 1 -47 489 -102 1084 l-101 1082 -471 569 -471 570 -666 419 -667
419 -1138 72 -1137 71 -1026 -361 c-564 -198 -1027 -359 -1029 -357 -8 9 -16
188 -8 188 5 0 17 6 27 13 18 13 17 16 -9 74 -23 53 -32 63 -69 77 -23 9 -49
16 -59 16 -9 0 -164 -66 -344 -146 l-328 -146 -50 11 c-27 6 -1692 231 -3700
501 -3498 470 -3656 490 -3795 489 -80 -1 -1124 -17 -2320 -36z"/>
</g>
</svg>
