<?xml version="1.0" standalone="no"?>
<!DOCTYPE svg PUBLIC "-//W3C//DTD SVG 20010904//EN"
 "http://www.w3.org/TR/2001/REC-SVG-20010904/DTD/svg10.dtd">
<svg version="1.0" xmlns="http://www.w3.org/2000/svg"
   viewBox="0 0 4023.000000 689.000000"
 preserveAspectRatio="xMidYMid meet">
<metadata>
Created by potrace 1.16, written by Peter Selinger 2001-2019
</metadata>
<g transform="translate(0.000000,689.000000) scale(0.100000,-0.100000)"
fill="#000000" stroke="none">
<path d="M16515 6859 c-137 -15 -253 -28 -256 -28 -6 -1 -39 -80 -39 -94 0 -4
7 -7 16 -7 15 0 16 -11 10 -97 -4 -54 -8 -99 -10 -100 -1 -1 -816 3 -1811 9
-996 7 -3016 12 -4490 13 -2134 1 -2845 5 -3490 18 -445 10 -1137 20 -1536 24
l-726 6 -6 -39 c-4 -21 -7 -51 -7 -65 l0 -26 -632 -7 c-704 -7 -748 -9 -748
-37 0 -17 -9 -19 -82 -19 -46 0 -128 -3 -182 -7 -96 -6 -99 -7 -109 -34 -9
-22 -18 -28 -56 -33 -25 -3 -358 -9 -738 -13 l-693 -6 0 -27 0 -28 -133 -6
c-72 -4 -271 -11 -442 -17 -247 -8 -313 -13 -324 -24 -12 -11 -16 -59 -21
-212 -6 -187 4 -706 16 -820 l5 -53 52 0 c49 0 1222 55 1335 63 l52 4 0 -174
0 -173 350 7 350 6 0 -91 c0 -75 3 -92 15 -92 13 0 15 -32 15 -224 l0 -224 82
-6 c46 -4 103 -9 128 -12 l45 -6 70 -113 69 -113 78 -7 78 -6 0 -79 0 -79 48
-7 c70 -10 78 -17 92 -84 l13 -60 481 -1 c264 -1 567 -4 672 -8 l191 -6 222
-263 222 -262 42 0 c23 -1 530 14 1127 31 l1085 32 425 -24 425 -25 525 18
c289 9 818 29 1175 43 358 14 659 25 671 25 18 0 24 -11 39 -67 22 -86 43
-117 155 -228 l90 -90 0 -94 0 -93 878 7 877 7 169 -47 168 -46 2772 15 c1524
9 3041 19 3371 22 l601 6 37 99 38 99 58 0 58 0 16 -197 c9 -109 20 -241 23
-293 11 -184 43 -493 51 -501 4 -4 103 -51 218 -104 l210 -96 1525 16 1525 17
240 110 c132 61 243 113 247 117 7 6 25 284 63 976 17 322 23 388 24 285 l1
-135 345 -158 345 -158 778 -5 777 -6 395 -114 c217 -62 586 -178 820 -257
l425 -143 380 -12 c301 -9 382 -9 391 1 6 6 142 159 302 338 l290 327 4 70 c2
39 7 74 10 77 4 4 164 10 357 13 l350 5 37 83 37 83 576 3 576 3 31 -32 31
-33 235 0 234 0 250 50 c137 27 259 52 272 55 21 5 22 10 22 102 l0 96 473 -6
c259 -4 627 -13 817 -22 190 -8 357 -15 371 -15 22 0 48 -26 147 -149 l121
-149 -252 -6 c-139 -3 -513 -8 -832 -11 l-580 -6 -78 -25 -79 -26 43 -44 43
-44 -859 -1 -860 -2 717 -30 c395 -17 716 -32 715 -33 -1 -1 -333 -8 -737 -15
-486 -9 -705 -16 -645 -21 50 -4 475 -15 945 -23 l855 -16 160 -167 c88 -92
189 -197 225 -234 l65 -66 360 8 c198 4 456 10 574 12 l213 3 148 -210 148
-210 -366 -5 -367 -5 -62 -40 c-35 -22 -63 -44 -63 -49 0 -6 12 -23 28 -39
l27 -30 -1300 6 -1300 5 370 -18 c389 -18 388 -18 -115 -29 -252 -5 -148 -9
915 -30 660 -13 1274 -27 1365 -31 l164 -7 53 -58 c29 -32 51 -60 49 -62 -2
-3 -280 -13 -618 -24 -337 -10 -635 -20 -663 -21 -27 -2 276 -20 675 -41 l725
-38 80 -84 80 -83 1946 -30 1946 -29 352 -198 c193 -108 364 -201 379 -206 15
-4 171 -12 347 -16 l320 -9 472 -357 472 -358 107 3 106 3 -298 340 -297 340
67 7 c37 3 70 8 72 11 2 2 -80 82 -183 178 -103 96 -367 344 -587 553 -434
410 -441 417 -2480 2139 l-1119 945 -546 241 -546 240 -521 120 c-1029 237
-1161 259 -3049 520 -1564 216 -1680 231 -2015 255 -496 36 -477 34 -484 60
-3 12 -18 34 -34 49 -26 25 -63 36 -334 97 l-304 69 -94 -18 -95 -18 -59 27
-59 27 -141 -82 -141 -83 -557 41 c-307 23 -559 39 -561 37 -3 -3 0 -38 5 -79
5 -40 7 -75 5 -77 -2 -2 -286 23 -633 56 -346 33 -635 60 -643 60 -10 0 -12
12 -6 55 l6 55 -78 0 c-43 0 -284 9 -535 19 l-457 19 -61 37 c-58 35 -69 38
-173 45 -62 5 -130 11 -152 15 -42 8 -85 39 -85 62 0 7 -7 13 -16 13 -9 0 -55
36 -102 80 -85 79 -90 82 -242 141 l-155 61 -411 15 -412 14 -128 -40 c-121
-39 -133 -45 -248 -132 l-121 -91 -205 6 c-113 3 -405 10 -650 16 -245 6 -634
15 -865 20 -231 5 -610 13 -842 17 -232 3 -426 9 -431 12 -4 3 -37 59 -72 124
l-63 117 -291 0 -291 0 -70 69 -70 69 -305 4 c-284 4 -322 3 -555 -23z"/>
</g>
</svg>
