<?xml version="1.0" standalone="no"?>
<!DOCTYPE svg PUBLIC "-//W3C//DTD SVG 20010904//EN"
 "http://www.w3.org/TR/2001/REC-SVG-20010904/DTD/svg10.dtd">
<svg version="1.0" xmlns="http://www.w3.org/2000/svg"
   viewBox="0 0 4198.000000 502.000000"
 preserveAspectRatio="xMidYMid meet">
<metadata>
Created by potrace 1.16, written by Peter Selinger 2001-2019
</metadata>
<g transform="translate(0.000000,502.000000) scale(0.100000,-0.100000)"
fill="#000000" stroke="none">
<path d="M27775 5014 c-22 -2 -337 -13 -700 -24 -657 -22 -661 -22 -925 -60
-261 -37 -265 -38 -286 -19 -11 10 -31 19 -45 19 -50 0 -404 -54 -417 -63 -18
-14 -5 -108 18 -127 13 -12 15 -22 8 -39 -5 -13 -7 -26 -4 -28 2 -2 172 3 377
12 330 14 431 22 517 40 l22 5 0 -178 0 -179 -132 -6 c-73 -4 -272 -9 -443
-13 l-310 -6 -575 85 -575 86 -845 7 -845 6 -113 -80 -113 -80 -202 -6 c-111
-3 -438 -11 -726 -17 -289 -5 -528 -12 -532 -14 -3 -3 -9 -28 -13 -56 l-7 -51
-112 6 c-62 3 -1280 11 -2707 17 -1427 6 -2598 11 -2602 12 -23 5 427 244 674
357 l286 132 56 79 55 78 -292 -5 c-161 -2 -940 -9 -1732 -14 -792 -6 -2430
-19 -3640 -30 -1210 -11 -2894 -24 -3742 -29 l-1541 -10 -539 -175 c-367 -119
-590 -197 -703 -246 l-165 -72 -175 3 c-194 3 -249 -7 -346 -62 -49 -28 -124
-105 -124 -128 0 -8 -68 -11 -217 -11 -239 0 -283 -7 -379 -65 -103 -61 -151
-151 -131 -245 5 -25 15 -52 23 -61 8 -8 14 -20 14 -25 0 -19 -321 -159 -835
-362 l-530 -210 -418 -246 -418 -246 -252 -234 -252 -234 -84 -215 -83 -216
73 -218 74 -218 240 -154 240 -154 420 -73 c396 -68 1179 -171 1770 -233 99
-10 162 -19 140 -20 -177 -6 -719 -31 -721 -34 -2 -2 45 -27 104 -55 92 -45
181 -73 631 -197 l524 -145 576 -104 576 -104 560 -33 560 -32 1655 67 c1774
71 4105 150 7294 246 1094 33 1990 61 1992 62 1 2 -18 35 -42 73 -25 39 -49
75 -52 82 -5 7 -126 28 -317 53 -308 42 -312 42 -660 140 -279 77 -421 124
-702 228 l-351 131 -1689 -50 c-928 -27 -1713 -48 -1743 -47 -30 2 188 18 485
36 425 27 1433 65 4745 182 l4205 149 120 -118 c99 -97 169 -152 394 -311
l274 -193 373 -179 372 -179 440 -148 439 -149 579 -22 c318 -11 746 -27 949
-35 514 -21 453 -26 498 43 l37 59 362 6 c199 4 483 7 633 7 l271 0 34 130 33
130 71 0 c39 0 325 -9 636 -20 829 -29 2765 -80 3017 -80 l142 0 308 172 c169
94 312 174 316 178 4 4 -30 29 -77 56 -47 27 -86 51 -86 54 1 3 58 45 128 95
l127 89 175 42 c96 22 187 43 201 47 16 4 52 40 98 97 l73 90 232 0 c474 0
2822 -21 3981 -36 l1200 -15 944 126 c795 106 964 132 1070 161 96 26 145 34
206 34 44 -1 526 -31 1070 -69 l990 -68 239 57 239 58 117 118 117 119 28 126
28 127 -59 101 c-43 74 -82 124 -146 188 l-87 86 -453 194 -453 194 -865 220
-865 221 -726 134 c-399 73 -935 174 -1190 224 -457 90 -485 94 -1819 270
-745 98 -1830 237 -2410 309 l-1055 130 -530 9 -530 9 -231 95 c-230 95 -232
96 -388 117 -126 18 -176 29 -259 62 -71 27 -151 48 -265 69 -178 32 -167 28
-240 85 -41 32 -51 46 -52 70 0 24 -14 44 -64 94 l-65 64 -478 -17 -478 -17
-182 80 c-191 85 -187 84 -318 75z m-16762 -4041 c-13 -2 -35 -2 -50 0 -16 2
-5 4 22 4 28 0 40 -2 28 -4z"/>
</g>
</svg>
