<?xml version="1.0" standalone="no"?>
<!DOCTYPE svg PUBLIC "-//W3C//DTD SVG 20010904//EN"
 "http://www.w3.org/TR/2001/REC-SVG-20010904/DTD/svg10.dtd">
<svg version="1.0" xmlns="http://www.w3.org/2000/svg"
   viewBox="0 0 4450.000000 1662.000000"
 preserveAspectRatio="xMidYMid meet">
<metadata>
Created by potrace 1.16, written by Peter Selinger 2001-2019
</metadata>
<g transform="translate(0.000000,1662.000000) scale(0.100000,-0.100000)"
fill="#000000" stroke="none">
<path d="M7986 16320 c-109 -165 -202 -300 -206 -300 -5 0 -664 -130 -1467
-289 l-1458 -289 -1269 -447 -1269 -447 -851 -398 -851 -399 -307 -333 c-170
-183 -308 -335 -308 -338 0 -3 41 -58 91 -122 l90 -118 1482 0 1482 -1 315
-471 c282 -421 323 -477 391 -539 l76 -69 219 -2 219 -3 -365 -48 -365 -49
-96 -56 -96 -56 -17 -71 c-47 -197 -136 -1156 -136 -1465 0 -207 -3 -198 99
-257 l86 -50 473 -59 c261 -33 478 -61 482 -64 5 -3 4 -55 -1 -115 -6 -61 -11
-194 -12 -297 l-2 -188 56 -56 56 -56 1479 -143 c1271 -123 1486 -146 1527
-164 43 -19 69 -21 220 -21 119 0 277 -11 515 -34 189 -18 345 -36 348 -39 3
-3 30 -134 59 -293 30 -158 58 -291 62 -295 5 -5 229 -162 498 -349 l489 -340
226 -1 225 0 65 -73 64 -73 111 -7 c60 -3 149 -9 197 -12 l87 -7 -5 -41 c-3
-23 -1 -106 4 -186 5 -80 7 -147 5 -150 -5 -5 -32 -8 -278 -30 l-120 -11 -62
-62 -63 -61 0 -326 0 -326 63 -61 62 -61 335 -25 335 -25 415 -127 415 -127
242 -127 242 -126 20 -87 c16 -70 30 -100 68 -153 l47 -65 235 0 236 0 41 -53
c39 -51 43 -63 152 -493 l112 -441 259 -474 258 -474 179 -92 179 -92 1713 -1
1712 0 183 88 182 89 263 481 c144 264 262 488 262 496 0 9 5 16 11 16 7 0
777 -38 1712 -85 l1700 -85 41 -34 c23 -18 127 -106 231 -195 105 -89 199
-163 210 -165 11 -3 430 -16 930 -30 501 -15 960 -29 1020 -32 l110 -6 114
171 114 171 362 0 362 0 107 -125 107 -125 514 0 514 0 578 -120 579 -119 744
39 745 39 61 -61 61 -60 137 17 136 17 212 -132 213 -133 995 -367 995 -368
365 -355 c214 -208 548 -518 807 -747 l441 -392 302 -205 301 -205 327 -100
327 -101 323 17 322 16 1374 240 1374 240 873 0 873 0 172 67 173 67 273 253
c150 140 296 277 324 306 l50 52 13 146 13 146 -126 170 -126 171 122 358 122
358 -13 336 -13 336 510 1034 c483 981 1343 2723 2123 4300 315 639 373 748
542 1030 110 183 209 336 236 365 41 43 50 62 70 138 13 49 21 90 18 93 -3 3
-345 129 -761 280 l-757 274 -2045 590 c-1124 325 -2049 590 -2054 590 -6 0
-46 -22 -90 -50 l-80 -50 -164 0 -163 0 -379 100 c-242 64 -529 131 -794 185
-228 47 -764 163 -1190 258 l-775 173 0 167 c1 92 -2 167 -5 167 -3 0 -130 28
-282 63 l-277 63 -668 -203 c-367 -112 -679 -204 -693 -204 -14 0 -936 139
-2050 309 l-2025 310 -675 30 -675 29 -477 197 -477 197 -418 -6 c-230 -3
-439 -8 -465 -11 l-47 -5 -104 138 -105 138 -278 118 -279 118 -416 94 -416
94 -489 47 -489 47 -503 -17 -504 -17 -81 69 -82 68 -405 -6 -405 -6 -85 34
c-76 31 -94 34 -170 33 l-86 -2 -94 130 -95 129 -281 121 -280 120 -425 95
-424 95 -495 50 -495 49 -493 -20 -492 -20 -94 81 -94 81 -125 0 -126 0 -123
59 -123 60 -2030 20 c-1116 12 -2197 24 -2401 27 l-371 7 -28 198 c-16 110
-33 203 -39 208 -6 6 -191 118 -411 250 l-399 241 -1496 0 -1497 0 -197 -300z
m11939 -6794 l319 -255 103 -272 103 -272 -126 -299 c-70 -164 -132 -298 -138
-298 -92 -2 -462 -42 -474 -52 -22 -17 -271 -226 -298 -250 -19 -17 -58 -21
-340 -38 -175 -10 -320 -17 -321 -16 -2 1 -28 214 -58 472 -54 453 -58 480
-129 789 l-73 320 302 3 303 2 216 210 c205 200 217 210 254 210 36 0 65 -21
357 -254z"/>
</g>
</svg>
