<?xml version="1.0" standalone="no"?>
<!DOCTYPE svg PUBLIC "-//W3C//DTD SVG 20010904//EN"
 "http://www.w3.org/TR/2001/REC-SVG-20010904/DTD/svg10.dtd">
<svg version="1.0" xmlns="http://www.w3.org/2000/svg"
   viewBox="0 0 3832.000000 1523.000000"
 preserveAspectRatio="xMidYMid meet">
<metadata>
Created by potrace 1.16, written by Peter Selinger 2001-2019
</metadata>
<g transform="translate(0.000000,1523.000000) scale(0.100000,-0.100000)"
fill="#000000" stroke="none">
<path d="M13545 15219 l-740 -8 -775 -55 -775 -56 -765 -119 -765 -119 -760
-211 -759 -211 -669 -292 -669 -293 -223 -245 c-122 -135 -319 -350 -437 -479
l-216 -234 -648 -187 -649 -187 -671 -261 c-470 -182 -826 -328 -1183 -486
l-512 -225 -1162 -367 c-639 -201 -1164 -368 -1166 -370 -12 -11 395 -506 429
-520 15 -7 56 -38 91 -71 35 -32 94 -82 130 -111 l66 -51 854 85 854 86 335
-24 c215 -15 308 -24 259 -26 l-76 -3 -78 -116 c-85 -126 -77 -118 -349 -306
l-156 -108 0 -314 0 -315 -22 -4 c-13 -3 -47 -7 -76 -10 -29 -3 -57 -8 -62
-11 -5 -3 -9 -318 -9 -786 l0 -780 25 -9 c14 -6 42 -10 62 -10 20 0 47 -3 60
-6 l22 -6 0 -599 0 -599 213 -106 213 -107 59 -109 c67 -120 59 -115 198 -139
l69 -11 -46 -47 -45 -46 -3 -89 -3 -90 -172 -125 -173 -125 0 -1122 0 -1122
185 -133 185 -133 0 -301 0 -301 3118 -457 c3181 -467 3894 -570 4872 -702
305 -41 565 -78 578 -80 19 -5 22 -12 22 -51 l0 -46 368 4 367 5 259 91 259
92 1287 0 1287 0 309 -74 309 -74 675 -67 675 -67 765 210 c421 116 1076 295
1455 398 l690 189 1610 909 c1512 854 1626 920 1868 1086 l258 177 442 6 c249
4 773 23 1199 43 l758 35 312 -272 c172 -150 320 -278 330 -286 13 -12 128
-17 613 -28 l597 -15 526 140 527 140 919 52 918 53 842 -69 841 -69 529 -340
530 -340 560 22 c309 12 577 21 596 21 28 0 101 -38 325 -169 186 -109 292
-165 296 -158 4 7 28 89 55 184 l49 171 95 6 c52 3 146 7 209 8 l113 3 822
-1386 821 -1386 148 541 149 541 63 453 63 453 -79 542 -79 542 -112 325 -112
325 -173 290 c-95 159 -169 293 -165 296 4 3 55 23 114 44 91 32 106 40 98 54
-5 9 -278 463 -607 1009 l-599 993 -705 805 -704 805 -645 571 -645 570 -723
504 -722 503 -713 403 -712 402 -790 372 -790 371 -900 272 -900 271 -1264
260 -1264 261 -581 285 c-680 335 -1886 917 -2065 998 -124 55 -126 56 -320
81 -108 14 -531 50 -941 80 -802 60 -1857 116 -4607 247 l-1553 73 0 343 0
342 -387 -2 c-214 -1 -721 -5 -1128 -9z"/>
</g>
</svg>
