<?xml version="1.0" standalone="no"?>
<!DOCTYPE svg PUBLIC "-//W3C//DTD SVG 20010904//EN"
 "http://www.w3.org/TR/2001/REC-SVG-20010904/DTD/svg10.dtd">
<svg version="1.0" xmlns="http://www.w3.org/2000/svg"
   viewBox="0 0 4554.000000 3323.000000"
 preserveAspectRatio="xMidYMid meet">
<metadata>
Created by potrace 1.16, written by Peter Selinger 2001-2019
</metadata>
<g transform="translate(0.000000,3323.000000) scale(0.100000,-0.100000)"
fill="#000000" stroke="none">
<path d="M5435 33151 l-230 -77 -47 -70 -47 -69 -16 -305 c-9 -168 -19 -308
-23 -311 -4 -3 -42 -31 -84 -62 -47 -35 -79 -66 -82 -79 -3 -13 -12 -138 -21
-278 -22 -370 -27 -430 -31 -430 -2 0 -732 -88 -1621 -195 -890 -107 -1625
-195 -1633 -195 -8 -1 -36 -20 -62 -43 l-48 -42 -171 -490 -172 -490 22 -65
23 -66 455 -249 c250 -137 458 -256 460 -263 3 -7 3 -16 -1 -19 -3 -4 -291
-71 -639 -150 -347 -79 -635 -147 -638 -151 -4 -4 -38 -75 -77 -157 l-70 -151
-200 -963 c-127 -614 -205 -967 -213 -972 -8 -5 -39 -9 -70 -9 l-56 0 -7 -127
c-4 -71 -20 -348 -36 -618 -43 -721 -53 -1093 -51 -1845 l2 -675 23 -33 23
-33 -46 -87 -46 -87 8 -165 c5 -91 10 -166 11 -167 1 -1 83 -14 184 -29 100
-16 182 -31 182 -34 0 -4 -42 -29 -92 -57 l-93 -51 -23 -218 c-21 -207 -25
-228 -77 -389 l-54 -171 13 -192 13 -191 49 -46 c27 -24 58 -47 69 -50 11 -3
211 -43 444 -90 l424 -85 96 10 c53 6 113 13 134 16 l37 6 0 -371 0 -371 619
0 619 0 6 -31 c3 -17 6 -141 6 -274 l0 -243 265 -196 265 -196 445 0 445 0 2
-207 3 -207 110 -28 c61 -15 113 -28 117 -28 4 0 9 107 11 238 2 211 3 200 5
-95 l2 -333 200 0 200 0 0 95 0 95 1135 0 1135 0 0 235 c0 150 4 235 10 235 6
0 10 -117 10 -330 l0 -330 190 0 190 0 0 95 0 95 33 0 c81 -1 2000 61 2062 66
l70 6 48 63 47 63 333 6 c182 3 2076 19 4207 36 2131 16 4079 32 4328 36 l452
6 0 58 0 58 -282 6 c-156 3 -2040 19 -4188 36 -2148 16 -4118 33 -4378 36
l-472 7 -47 63 c-26 35 -54 66 -62 68 -9 3 -142 8 -296 11 -154 4 -327 10
-383 14 l-104 6 151 110 150 110 1 188 0 187 121 0 120 0 235 103 234 102 0
423 0 422 5185 0 5185 0 5 -22 c11 -45 145 -701 145 -709 0 -5 999 -9 2220 -9
l2220 0 0 -287 0 -288 -173 -66 -172 -66 -3 -275 -2 -275 -53 -6 c-28 -3 -206
-18 -394 -33 l-343 -28 -2 -515 -3 -515 -495 -72 -495 -73 -447 -128 -448
-128 -16 -42 c-9 -24 -17 -43 -18 -44 0 0 -145 -9 -321 -19 l-320 -19 -404
-100 -404 -100 -44 -48 -44 -48 7 -237 c8 -314 8 -961 -1 -1256 l-7 -237 48
-52 49 -51 415 -100 415 -101 220 -11 c121 -5 257 -13 303 -16 l83 -6 21 -42
c11 -22 21 -42 23 -43 1 -2 199 -60 441 -129 l439 -126 500 -74 c275 -41 501
-74 503 -74 1 0 2 -81 2 -179 l0 -180 53 -6 c28 -3 740 -59 1582 -125 l1530
-120 180 -180 180 -180 1748 0 1747 0 0 -159 0 -158 63 -10 c34 -6 527 -84
1095 -174 l1032 -163 0 -402 0 -401 123 -44 122 -44 3 -178 c2 -138 0 -177
-10 -177 -7 0 -243 -25 -524 -55 l-511 -54 -376 -117 -376 -117 -32 -81 c-18
-45 -37 -86 -43 -92 -6 -6 -126 -50 -266 -99 -140 -48 -262 -91 -271 -96 -10
-5 -24 -46 -39 -119 -13 -60 -28 -114 -34 -119 -6 -4 -208 -83 -449 -175
l-439 -166 -514 -360 -514 -360 -527 0 -528 -1 -332 -282 -333 -282 0 -406 0
-406 505 -356 505 -357 178 0 c98 0 355 -3 570 -7 l391 -6 36 -68 c19 -37 35
-71 35 -77 0 -5 -23 -12 -51 -16 -34 -5 -64 -17 -88 -36 l-36 -28 -890 -28
c-830 -25 -891 -28 -905 -45 -14 -18 -81 -19 -1450 -29 -789 -5 -1535 -10
-1657 -10 -184 0 -223 -2 -223 -14 0 -22 166 -25 1790 -32 1475 -6 1516 -7
1536 -25 20 -18 69 -21 913 -48 l893 -29 27 -26 c26 -25 61 -32 612 -126 l584
-100 1068 0 c780 0 1067 -3 1067 -11 0 -26 322 -1926 329 -1944 7 -16 56 -38
195 -90 l186 -69 2 -380 3 -380 373 -220 372 -220 0 -363 0 -363 -115 0 -115
0 0 -133 0 -134 -392 -6 c-1223 -21 -1148 -19 -1148 -37 0 -19 140 -24 1048
-36 l492 -7 0 -27 c0 -25 4 -27 115 -50 l115 -24 0 -303 0 -303 -115 0 -115 0
0 -184 0 -184 -197 -6 c-109 -3 -360 -8 -558 -11 -198 -3 -456 -8 -572 -11
-200 -6 -213 -8 -213 -25 0 -17 8 -19 63 -19 34 0 394 -7 799 -15 l737 -14 74
-40 c57 -32 104 -72 207 -176 l134 -135 753 0 753 0 0 -562 c0 -310 3 -586 6
-613 6 -47 13 -58 94 -145 l89 -95 129 130 c121 122 172 188 791 1032 l661
902 593 1063 593 1063 130 53 130 53 522 1047 522 1047 421 1095 c232 602 424
1103 426 1112 3 11 -57 123 -156 291 -88 150 -161 282 -160 293 0 10 44 216
97 457 l98 439 295 -2 296 -1 274 134 274 133 44 207 c24 113 47 211 51 216 3
6 45 28 92 50 l86 40 12 53 c6 29 83 393 171 808 87 415 163 763 167 773 4 9
56 45 116 80 l109 62 43 190 c34 148 59 313 113 740 39 303 73 561 75 575 4
23 -7 31 -160 110 -90 47 -164 89 -164 95 0 22 49 377 52 380 2 1 92 53 202
116 109 62 200 118 202 123 15 44 157 1231 163 1374 5 95 11 176 14 179 3 2
340 -14 749 -36 409 -23 788 -44 843 -47 l100 -5 70 59 71 60 142 1128 c79
621 145 1134 147 1141 2 7 -34 33 -85 60 -67 36 -90 53 -90 68 0 11 9 90 20
175 11 85 20 161 20 168 0 10 21 11 99 6 98 -7 99 -6 153 25 l55 31 6 127 c4
71 10 221 13 334 l7 205 67 39 68 39 6 126 c4 69 22 539 41 1045 19 506 36
957 39 1003 l5 83 -54 26 -55 27 0 252 0 251 -67 31 -68 31 -645 26 c-355 14
-667 28 -695 31 l-50 5 -92 127 c-50 70 -93 132 -94 137 -1 6 74 21 174 35
l176 25 -180 205 c-99 113 -188 213 -197 222 -13 13 -48 20 -137 29 l-121 12
-99 135 c-55 74 -103 141 -107 148 -6 9 19 23 87 50 52 20 94 39 92 40 -2 2
-125 90 -274 196 l-270 193 -2650 1115 -2650 1115 -71 116 c-71 114 -72 116
-129 138 -32 12 -1327 505 -2878 1096 l-2820 1074 -2090 601 -2090 602 -90 92
-90 93 -2020 592 -2021 591 -2374 525 c-1306 289 -2382 528 -2392 531 -11 3
-40 -24 -99 -96 -66 -82 -86 -100 -103 -96 -12 2 -79 17 -151 31 -71 15 -134
31 -139 36 -5 5 -21 39 -35 76 l-26 68 -99 24 -98 24 -54 -61 -54 -60 -178 37
c-98 21 -183 40 -188 44 -6 3 -23 38 -38 77 -23 58 -32 71 -54 76 -15 3 -52
12 -83 20 -31 8 -64 14 -73 14 -9 0 -41 -25 -70 -57 l-52 -56 -180 37 c-98 21
-182 43 -186 49 -4 6 -10 32 -13 58 -4 26 -12 54 -18 62 -9 11 -190 62 -192
54 -1 -1 -21 -27 -45 -57 -24 -30 -45 -56 -46 -58 0 -1 -69 12 -152 29 l-151
31 -211 -177 -212 -178 -231 51 c-178 39 -235 48 -243 39 -8 -9 -282 -449
-288 -464 -1 -1 -127 -5 -281 -8 l-280 -7 -4226 406 c-2325 223 -4240 406
-4255 405 -16 0 -132 -35 -259 -78z"/>
</g>
</svg>
