<?xml version="1.0" standalone="no"?>
<!DOCTYPE svg PUBLIC "-//W3C//DTD SVG 20010904//EN"
 "http://www.w3.org/TR/2001/REC-SVG-20010904/DTD/svg10.dtd">
<svg version="1.0" xmlns="http://www.w3.org/2000/svg"
   viewBox="0 0 4413.000000 2028.000000"
 preserveAspectRatio="xMidYMid meet">
<metadata>
Created by potrace 1.16, written by Peter Selinger 2001-2019
</metadata>
<g transform="translate(0.000000,2028.000000) scale(0.100000,-0.100000)"
fill="#000000" stroke="none">
<path d="M16990 20134 l-745 -144 -765 -289 -765 -290 -1510 -486 -1510 -487
-120 -5 c-66 -3 -125 -10 -132 -15 -6 -5 -1009 -135 -2229 -289 l-2216 -279
-809 -552 -809 -551 0 -337 0 -337 -1272 -6 c-700 -4 -1911 -10 -2691 -14
l-1417 -6 0 -284 0 -283 363 0 c199 0 676 -3 1061 -7 l698 -6 89 -106 88 -106
-402 -6 c-221 -4 -491 -7 -599 -8 l-198 -1 0 -1938 0 -1938 2057 -67 c1132
-37 2095 -70 2141 -73 l82 -6 0 -327 0 -326 495 -477 c273 -263 506 -480 518
-482 18 -4 3067 -147 3104 -146 10 0 13 -189 15 -896 l3 -896 1160 -354 1160
-353 2263 -1 c1244 0 2263 -1 2263 -2 1 -2 7 -202 13 -445 6 -243 14 -444 17
-447 3 -3 1510 -13 3349 -21 1839 -8 3345 -17 3348 -19 2 -3 350 -607 772
-1343 l767 -1338 879 -681 c484 -374 1453 -1127 2154 -1672 l1275 -991 1892
-1 c1867 0 1892 0 1906 20 7 10 37 44 67 75 49 53 57 57 109 63 40 4 71 15
110 40 l54 35 1605 -12 c882 -6 1607 -9 1612 -6 4 3 11 20 14 38 l6 34 113 6
c61 3 378 16 702 29 325 13 579 24 565 25 -39 4 -1267 53 -1326 53 -52 0 -52
0 -61 38 l-9 37 -894 -2 c-492 -1 -1217 -5 -1610 -8 -596 -5 -718 -4 -733 7
-18 13 10 65 426 809 365 653 496 897 733 1370 l288 577 -247 638 c-289 751
-271 702 -259 689 5 -5 285 -426 623 -935 577 -868 627 -946 804 -1267 l190
-343 238 0 237 0 0 159 0 159 83 6 c45 3 703 10 1462 16 759 6 1381 12 1382
14 1 1 -538 8 -1200 14 -661 7 -1320 15 -1464 19 l-263 6 0 43 0 44 703 0
c410 1 986 8 1387 19 604 16 697 17 785 4 99 -14 106 -14 557 34 251 26 455
49 452 52 -2 3 -206 26 -452 53 l-447 48 -105 -15 c-97 -14 -125 -14 -365 5
-234 18 -352 20 -1177 20 l-918 0 0 1749 c0 1658 -1 1750 -17 1755 -10 3 -96
22 -190 42 -95 21 -170 40 -167 43 3 3 94 31 202 61 l197 55 3 690 c2 380 0
758 -3 841 l-7 150 -114 74 c-63 40 -112 75 -110 78 3 2 356 -60 785 -138
l781 -142 965 222 c531 122 984 229 1006 239 l41 18 -85 49 c-46 27 -846 555
-1777 1174 -1476 981 -1689 1125 -1662 1128 24 3 122 -44 460 -222 l430 -226
294 0 295 0 294 188 294 188 3 101 3 101 779 4 780 3 77 76 78 75 1175 -13
c1125 -13 1182 -15 1330 -36 l155 -23 565 67 c311 37 609 73 663 79 l97 12 0
178 0 177 -37 6 c-21 3 -319 41 -662 83 l-624 77 -171 -27 -171 -27 -1163 -12
-1162 -12 -77 78 -78 77 -425 0 c-234 0 -584 3 -777 7 l-353 6 0 152 0 151
-336 79 -336 79 -72 57 -72 57 -1097 158 -1097 157 -217 -89 c-120 -49 -222
-88 -228 -86 -5 2 -640 242 -1410 533 l-1400 530 -1025 682 -1025 682 -620
142 c-341 78 -671 154 -732 168 l-113 27 0 57 0 57 -1272 214 -1273 214 -105
74 c-58 42 -595 440 -1194 886 l-1090 811 225 6 c448 13 637 11 695 -8 50 -16
73 -14 661 31 334 26 618 49 631 52 22 4 23 5 20 157 l-3 152 -624 49 c-621
49 -624 49 -691 32 -64 -17 -112 -17 -811 -6 l-744 12 -659 492 c-362 270
-666 495 -675 499 -9 4 -598 -13 -1310 -37 -1146 -41 -1297 -44 -1317 -31 -18
12 -70 15 -245 17 l-223 3 -438 640 c-274 399 -445 641 -456 642 -9 1 -352
-63 -762 -143z m16213 -13815 c69 -18 45 -35 -100 -69 -76 -17 -153 -35 -172
-40 l-33 -9 6 42 c3 23 8 65 12 93 l6 51 122 -29 c66 -16 138 -33 159 -39z
m-318 -679 c9 -91 18 -166 18 -167 1 0 133 -34 292 -75 l290 -74 213 -318
c118 -175 212 -319 210 -321 -2 -2 -255 59 -563 136 -308 76 -569 141 -581
144 -20 4 -20 8 35 446 33 263 58 431 62 417 4 -13 15 -97 24 -188z"/>
</g>
</svg>
