<?xml version="1.0" standalone="no"?>
<!DOCTYPE svg PUBLIC "-//W3C//DTD SVG 20010904//EN"
 "http://www.w3.org/TR/2001/REC-SVG-20010904/DTD/svg10.dtd">
<svg version="1.0" xmlns="http://www.w3.org/2000/svg"
   viewBox="0 0 4181.000000 838.000000"
 preserveAspectRatio="xMidYMid meet">
<metadata>
Created by potrace 1.16, written by Peter Selinger 2001-2019
</metadata>
<g transform="translate(0.000000,838.000000) scale(0.100000,-0.100000)"
fill="#000000" stroke="none">
<path d="M25094 8333 l-41 -48 -154 -30 c-151 -30 -154 -31 -157 -58 -3 -24
-8 -27 -38 -27 -28 0 -36 5 -44 26 -7 18 -15 24 -28 20 -9 -3 -147 -28 -307
-56 -159 -28 -300 -54 -312 -57 -23 -5 -23 -8 -23 -154 l0 -149 165 0 165 0 0
-90 0 -90 -1592 0 -1593 0 -275 -114 c-227 -94 -276 -117 -278 -135 -3 -21 -6
-21 -304 -21 -287 0 -301 -1 -329 -21 -26 -18 -121 -29 -1066 -114 -571 -52
-1062 -97 -1090 -100 l-53 -6 0 -162 c0 -89 -3 -172 -6 -184 l-6 -23 -243 0
c-235 0 -244 -1 -250 -20 -6 -19 -15 -20 -256 -20 -238 0 -249 1 -261 20 -12
19 -24 20 -210 20 -187 0 -199 -1 -210 -20 -12 -19 -24 -20 -260 -20 -237 0
-248 1 -258 20 -10 19 -21 20 -210 20 -189 0 -201 -1 -212 -20 -12 -19 -24
-20 -260 -20 -237 0 -248 1 -258 20 -10 19 -21 20 -210 20 l-198 0 -68 -95
-67 -95 -1644 0 -1643 0 -12 -25 -11 -25 -2930 0 c-2858 0 -2930 0 -2956 -19
-14 -10 -42 -51 -60 -90 l-35 -71 -269 0 -269 0 -143 -110 -144 -110 -353 -1
c-257 0 -362 -4 -388 -13 -28 -10 -44 -29 -82 -90 -25 -43 -51 -83 -56 -88 -6
-6 -79 -7 -204 -3 l-194 8 -74 127 -74 127 -306 6 c-168 4 -618 7 -1001 7
l-695 0 -59 -80 -59 -80 -318 0 -318 0 0 -1400 0 -1400 165 0 165 0 0 -304 0
-305 115 -36 114 -35 838 -12 838 -12 143 48 142 48 0 60 0 60 63 -6 c138 -12
253 -16 263 -9 6 4 21 58 33 118 12 61 25 118 27 127 3 11 37 27 97 47 76 24
103 28 152 24 l60 -6 105 -107 105 -107 1505 -213 c1085 -154 1510 -217 1523
-228 16 -15 16 -16 -13 -28 l-30 -13 0 -299 0 -298 51 -19 c45 -16 70 -17 190
-11 l139 6 0 -223 0 -224 44 -17 c41 -16 86 -17 493 -11 l448 7 60 -51 60 -50
2013 -1 2012 0 0 -130 0 -130 2993 0 2992 0 78 61 c73 57 77 63 77 100 l0 39
1285 0 1285 0 137 -100 c125 -91 142 -100 181 -100 34 0 43 -3 39 -14 -3 -8
-11 -32 -18 -55 l-12 -41 -554 0 -553 0 0 -200 0 -200 533 0 533 0 42 -117
c24 -65 46 -124 50 -131 15 -23 172 -62 252 -62 64 0 214 33 248 54 4 2 27 61
52 130 l45 126 245 0 245 0 44 -123 c24 -67 47 -125 51 -129 17 -20 179 -58
250 -58 71 0 233 37 251 58 3 4 26 62 50 130 l44 122 240 -2 240 -3 43 -120
c24 -66 47 -123 51 -127 4 -5 45 -19 91 -33 113 -33 197 -33 317 1 l92 26 47
129 47 129 376 0 376 0 30 -128 30 -127 507 -3 507 -2 6 -55 7 -55 1074 0
1074 0 0 30 0 30 -815 0 -815 0 0 25 c0 24 3 25 58 25 l59 0 92 100 93 100
301 0 c166 0 623 3 1015 7 l712 6 0 44 0 43 -495 0 c-431 0 -496 2 -501 15 -5
13 -70 15 -495 15 -425 0 -489 2 -489 15 0 8 -10 17 -22 20 -190 45 -337 75
-368 75 -39 0 -39 0 -42 42 l-3 42 -156 21 -155 21 -70 56 c-38 31 -80 58 -93
60 -17 2 -28 15 -41 48 l-18 45 -153 0 -154 0 -19 -52 c-10 -29 -23 -53 -28
-53 -6 0 -42 25 -81 55 l-71 55 -315 -2 -314 -3 -20 -57 -19 -58 -293 0 -294
0 -22 60 -21 59 -72 3 -71 3 50 31 50 32 623 6 623 7 114 92 114 92 3 135 3
134 635 527 635 528 141 0 c126 1 144 3 167 21 22 18 41 20 154 20 l128 1 245
204 245 204 123 1 123 0 412 340 412 340 165 0 165 0 -3 -234 -3 -234 87 -151
c73 -126 91 -151 110 -151 29 0 25 23 69 -430 46 -473 38 -433 88 -470 40 -29
44 -30 154 -30 l113 0 0 -100 0 -100 795 0 795 0 0 24 c0 22 4 23 83 29 45 4
118 7 163 7 47 0 100 7 127 16 45 15 47 18 47 53 0 55 -38 70 -202 78 -71 3
-131 9 -133 13 -3 5 6 15 20 24 14 9 25 23 25 30 0 20 40 25 270 32 l210 7 0
27 0 28 -217 7 c-168 6 -220 11 -231 22 -13 12 -10 57 17 346 39 402 36 387
66 387 19 0 37 25 109 149 l87 150 -3 235 -3 236 49 0 c37 0 57 6 82 25 l33
25 541 0 541 0 33 -25 c24 -18 45 -25 79 -25 l47 0 1 -242 0 -243 83 -140 c70
-119 86 -140 109 -143 15 -2 27 -9 27 -15 0 -7 18 -190 40 -407 22 -217 40
-404 40 -414 0 -11 19 -36 42 -58 l41 -38 114 0 113 0 0 -100 0 -100 795 0
795 0 0 24 c0 22 4 23 92 30 50 3 126 6 169 6 49 0 94 6 119 16 36 15 40 19
40 53 0 57 -33 70 -196 78 -74 3 -134 9 -134 12 0 3 14 21 32 40 30 34 31 34
147 42 64 4 169 8 234 8 l117 1 0 29 0 29 -219 7 c-185 6 -222 10 -234 24 -12
14 -9 66 21 374 l35 357 26 0 c23 1 37 19 114 153 l87 152 -2 233 -3 232 610
0 c336 0 620 3 633 6 19 6 22 13 22 55 l0 49 970 0 970 0 0 80 0 80 335 0 335
0 0 34 c0 41 12 46 126 46 45 0 115 3 157 6 l77 7 0 33 c0 26 -4 34 -17 34
-51 1 -336 20 -338 22 -1 2 0 22 3 44 l4 41 51 7 c29 3 86 6 128 6 42 0 97 3
123 6 44 6 46 8 46 39 l0 32 -97 6 c-54 4 -125 7 -158 7 -33 0 -70 3 -82 6
l-23 6 0 536 c0 484 -2 537 -17 554 -15 17 -14 18 15 18 27 0 56 22 193 150
l161 150 163 0 163 0 36 -45 37 -45 130 0 129 0 0 64 0 64 55 4 c53 3 55 2 55
-23 l0 -25 367 37 c201 21 369 42 372 47 3 6 65 13 136 17 176 8 175 8 175 49
l0 34 -155 7 c-109 5 -155 11 -155 19 0 8 -99 22 -327 45 -181 18 -347 35
-370 38 -41 5 -43 5 -43 -21 0 -25 -2 -26 -55 -26 l-55 0 0 45 0 45 -709 0
-710 0 -216 50 -216 50 -1096 0 -1095 0 -382 92 c-365 88 -387 92 -525 97
l-144 6 -26 67 c-22 58 -36 76 -99 131 l-74 63 -356 37 c-487 51 -659 51
-1138 -1 l-342 -37 -75 -68 c-66 -59 -77 -74 -98 -134 l-24 -68 -646 -3 -646
-2 -161 115 -161 115 -108 0 -108 0 -182 194 -183 193 -78 5 c-65 5 -91 13
-160 47 l-82 41 -230 0 -230 0 0 115 0 116 69 33 c61 29 83 34 183 40 62 4
115 11 116 17 2 5 256 9 648 9 l644 0 0 25 0 25 385 0 c366 0 388 -1 425 -20
37 -19 59 -20 340 -20 l300 0 0 65 0 65 180 0 c148 0 180 -3 187 -15 7 -13 47
-15 247 -16 l238 -1 71 44 72 44 3 51 3 50 -80 50 c-79 51 -79 51 -268 83
-103 17 -208 31 -233 31 -25 0 -278 26 -562 59 -484 56 -532 60 -743 60 -217
0 -227 -1 -292 -26 -62 -23 -76 -25 -161 -19 -59 5 -95 12 -100 20 -5 10 -139
19 -577 39 -313 14 -616 29 -672 32 l-102 6 -88 99 -88 99 -250 0 c-180 0
-254 3 -263 12 -8 8 -105 14 -324 19 -172 4 -314 7 -315 8 -2 0 -24 33 -49 71
l-47 70 -67 0 c-37 0 -70 3 -74 8 -19 19 -430 34 -1024 38 -558 4 -633 3 -638
-11 -9 -23 -612 -23 -620 0 -5 13 -109 15 -848 15 l-841 0 -41 -47z"/>
</g>
</svg>
