<?xml version="1.0" standalone="no"?>
<!DOCTYPE svg PUBLIC "-//W3C//DTD SVG 20010904//EN"
 "http://www.w3.org/TR/2001/REC-SVG-20010904/DTD/svg10.dtd">
<svg version="1.0" xmlns="http://www.w3.org/2000/svg"
   viewBox="0 0 4683.000000 3480.000000"
 preserveAspectRatio="xMidYMid meet">
<metadata>
Created by potrace 1.16, written by Peter Selinger 2001-2019
</metadata>
<g transform="translate(0.000000,3480.000000) scale(0.100000,-0.100000)"
fill="#000000" stroke="none">
<path d="M16250 34358 c-1 -244 -9 -2747 -19 -5564 -13 -3554 -22 -5127 -29
-5141 -6 -11 -18 -25 -26 -33 -12 -9 -16 -32 -16 -94 0 -44 -3 -165 -7 -268
l-6 -188 -314 0 -313 0 0 23 c0 42 -29 409 -32 411 -2 1 -67 57 -144 124
l-141 122 -132 0 -132 0 -305 293 -305 294 -541 138 -540 139 -122 -30 -123
-31 -6 531 c-4 292 -7 736 -7 987 0 811 -12 1539 -25 1539 -16 0 -25 -304 -25
-829 0 -768 -13 -2251 -20 -2251 -4 0 -28 32 -54 70 l-46 70 -490 0 -490 0
-157 235 -156 235 -1815 2 -1815 3 -69 123 -69 122 -402 0 -402 0 -70 -125
-70 -125 -386 0 -386 0 -1516 -797 -1517 -798 0 -136 0 -136 232 -140 233
-139 3 -557 2 -557 -895 0 -895 0 0 655 0 655 -193 0 -193 0 -652 -482 -651
-483 -1 -405 0 -405 523 -340 522 -340 3 -848 2 -847 820 0 820 0 0 -150 0
-150 55 0 55 0 0 -685 0 -685 340 0 340 0 0 -528 0 -528 70 -69 71 -70 544 -3
544 -3 15 -52 c8 -29 45 -170 82 -314 l67 -263 89 0 88 0 0 -978 0 -977 158
-158 157 -157 388 0 387 0 0 -2673 0 -2672 398 -398 397 -397 991 0 990 0 180
-249 179 -250 133 0 132 -1 0 -1048 0 -1047 288 -288 287 -287 3151 0 3151 0
262 256 261 256 0 1079 0 1079 878 0 878 0 787 427 787 426 0 464 0 463 1215
0 1215 0 0 -3028 0 -3027 383 -383 382 -382 933 0 932 0 0 285 0 285 1689 0
1689 0 7 -368 7 -367 590 -280 590 -280 1131 -5 1131 -5 203 -425 202 -425
994 -3 994 -2 7 76 c3 43 6 117 6 166 l0 88 981 0 980 0 65 55 65 55 365 0
364 0 80 40 80 40 1680 0 1680 0 0 30 0 30 353 1 c1091 2 5087 35 5093 42 4 4
4 10 0 14 -6 6 -4102 40 -5153 42 l-293 1 0 30 0 30 -1686 0 -1686 0 -62 35
-63 35 -369 0 -369 0 -73 60 -74 60 -979 0 -979 0 0 58 0 58 517 58 517 58
206 111 c140 76 287 167 463 288 l258 176 628 652 628 652 538 771 c319 457
546 792 558 822 10 28 174 498 363 1045 l345 995 93 999 94 999 -159 347 -158
346 -73 70 c-40 39 -132 124 -203 190 l-130 120 -351 145 -351 145 -50 263
-50 264 139 237 c77 130 143 240 148 244 4 5 291 38 636 73 l629 63 755 403
756 403 996 803 997 804 998 1255 998 1255 543 1440 543 1440 220 1710 221
1710 -299 722 c-164 396 -305 728 -313 736 -9 8 -306 247 -660 531 l-645 517
-915 275 -915 275 -1167 82 -1167 82 -1433 -267 -1433 -267 -458 -204 -457
-204 -2900 0 -2899 0 -513 -164 -513 -164 -379 -215 -378 -215 -174 -261 -174
-261 -1018 0 -1017 1 -360 884 -359 885 -1096 0 -1095 0 -218 -508 c-120 -279
-221 -512 -225 -518 -4 -6 -456 -147 -1004 -315 l-998 -304 0 -377 0 -378
-400 0 -400 0 -5 23 c-3 12 -54 194 -113 403 l-107 381 -395 380 -395 379
-532 137 c-293 75 -541 137 -552 137 -35 0 -1074 -271 -1097 -287 l-24 -15 0
778 c0 429 -7 2442 -15 4474 -8 2032 -15 4043 -15 4468 0 765 0 772 -20 772
-20 0 -20 -7 -20 -572 0 -315 -7 -2305 -15 -4423 -8 -2117 -15 -4244 -15
-4726 l0 -876 -237 -226 -237 -227 -285 0 -285 0 -64 -62 -63 -63 -20 24 c-18
23 -19 49 -20 980 0 526 -8 3028 -17 5561 -16 4370 -18 4605 -34 4608 -17 3
-18 -23 -18 -440z"/>
</g>
</svg>
