<?xml version="1.0" standalone="no"?>
<!DOCTYPE svg PUBLIC "-//W3C//DTD SVG 20010904//EN"
 "http://www.w3.org/TR/2001/REC-SVG-20010904/DTD/svg10.dtd">
<svg version="1.0" xmlns="http://www.w3.org/2000/svg"
   viewBox="0 0 4023.000000 4535.000000"
 preserveAspectRatio="xMidYMid meet">
<metadata>
Created by potrace 1.16, written by Peter Selinger 2001-2019
</metadata>
<g transform="translate(0.000000,4535.000000) scale(0.100000,-0.100000)"
fill="#000000" stroke="none">
<path d="M29610 43952 c0 -769 -3 -2195 -7 -3168 l-6 -1770 -2701 -820 -2701
-821 -95 -199 -95 -199 -5 -1793 -5 -1794 -438 -266 c-240 -147 -435 -272
-433 -278 2 -6 179 -265 393 -575 325 -471 397 -582 436 -670 l47 -106 0 -319
-1 -319 -408 -217 c-224 -120 -412 -218 -417 -218 -8 0 -1353 1819 -1386 1875
-4 6 -14 225 -23 486 -11 356 -15 827 -15 1891 l0 1418 -573 0 -574 0 -6 143
c-4 78 -7 583 -7 1122 l0 981 -67 33 c-38 19 -1139 555 -2447 1192 l-2379
1159 -4647 0 -4646 0 -426 -420 -426 -420 -1971 0 -1971 0 0 -2193 0 -2193
-805 -1102 -805 -1102 0 -1950 0 -1950 400 -413 399 -412 1 -985 0 -985 958
-652 958 -652 326 -30 c179 -17 335 -31 347 -31 l21 0 0 -1294 0 -1294 583 -6
c320 -3 1788 -8 3263 -11 l2680 -5 1076 535 c592 294 1079 535 1082 535 3 0 6
-1216 6 -2702 l1 -2703 95 -115 c52 -63 103 -123 112 -133 17 -16 121 -20
1421 -57 772 -22 1406 -42 1409 -44 2 -3 89 -1149 193 -2548 104 -1399 190
-2552 191 -2563 2 -15 84 -55 378 -187 l375 -168 233 0 232 0 0 -2380 0 -2379
33 -9 c17 -5 387 -85 821 -178 l788 -169 334 -665 333 -665 123 -126 123 -127
458 -141 457 -141 365 0 365 0 0 -65 0 -65 -625 0 -625 0 0 -51 c0 -40 50
-200 236 -753 130 -385 257 -761 281 -834 l45 -132 1425 2 1425 3 191 497 192
498 1238 0 1237 0 0 -310 0 -310 -1034 0 c-817 0 -1037 -3 -1043 -12 -4 -7 -9
-122 -11 -255 l-4 -242 69 -20 c392 -116 3777 -1101 3784 -1101 5 0 9 316 9
815 l0 815 -620 0 -620 0 0 310 0 310 950 0 950 0 0 -1530 0 -1530 140 0 140
0 0 -55 0 -55 -485 0 -485 0 0 -710 0 -710 2125 0 2125 0 0 178 0 177 1998
108 c1098 60 2032 111 2075 114 l77 6 0 87 0 87 -62 6 c-35 3 -969 79 -2075
169 l-2013 163 0 162 0 163 -75 0 -75 0 0 55 0 55 130 0 130 0 0 224 0 224
103 7 c146 9 5522 265 5568 265 l39 0 0 100 0 100 -35 0 c-45 0 -5434 257
-5572 266 l-103 6 0 1319 0 1319 -1135 0 -1135 0 0 65 0 65 1190 0 1190 0 0
65 0 65 405 0 405 0 0 1120 c0 616 2 1120 5 1120 8 0 456 79 483 85 l22 5 0
233 0 233 -252 45 -253 45 -3 687 -2 687 178 0 177 0 67 45 c37 25 79 45 93
45 15 0 25 6 25 14 0 8 8 21 18 28 17 12 52 372 357 3678 186 2016 338 3665
339 3666 1 0 486 -13 1079 -30 886 -24 1087 -28 1125 -17 26 7 50 15 54 19 4
4 -139 684 -317 1512 -177 828 -322 1506 -321 1506 0 1 225 24 499 52 275 28
500 52 501 54 9 10 310 764 637 1598 209 530 382 966 384 968 2 3 532 66 1177
141 l1173 136 3 186 2 185 -1001 100 c-550 54 -1005 101 -1010 105 -5 3 87
250 205 550 118 299 211 546 206 549 -4 3 -5 58 -2 123 4 99 7 117 21 117 32
-1 1297 91 1329 96 l33 5 -3 127 -3 127 -680 43 c-373 24 -681 44 -682 46 -2
1 -5 556 -8 1232 -3 676 -8 1355 -11 1509 l-6 281 -140 154 c-145 160 -729
763 -1558 1610 -1051 1073 -1397 1428 -1892 1940 -284 294 -602 621 -708 725
-105 105 -402 406 -658 670 -257 264 -693 710 -969 991 l-503 511 0 5037 0
5036 -1290 0 -1290 0 0 -1398z m4090 -10605 c0 -2 -15 -16 -32 -33 l-33 -29
29 33 c28 30 36 37 36 29z m-120 -110 c0 -1 -24 -25 -52 -52 l-53 -50 50 53
c46 48 55 57 55 49z m-195 -185 c-190 -182 -532 -497 -450 -414 94 96 516 491
525 491 3 0 -31 -34 -75 -77z m-615 -577 c-41 -41 -77 -75 -79 -75 -3 0 28 34
69 75 41 41 77 75 79 75 3 0 -28 -34 -69 -75z m-160 -148 c0 -2 -19 -21 -42
-42 l-43 -40 40 43 c36 39 45 47 45 39z m2610 -791 c0 -2 -8 -10 -17 -17 -16
-13 -17 -12 -4 4 13 16 21 21 21 13z m-100 -89 c0 -2 -10 -12 -22 -23 l-23
-19 19 23 c18 21 26 27 26 19z m-100 -90 c0 -2 -15 -16 -32 -33 l-33 -29 29
33 c28 30 36 37 36 29z m-100 -90 c0 -2 -17 -19 -37 -38 l-38 -34 34 38 c33
34 41 42 41 34z m-110 -100 c0 -2 -17 -19 -37 -38 l-38 -34 34 38 c33 34 41
42 41 34z m-100 -90 c0 -2 -19 -21 -42 -42 l-43 -40 40 43 c36 39 45 47 45 39z
m-100 -90 c0 -2 -17 -19 -37 -38 l-38 -34 34 38 c33 34 41 42 41 34z m-100
-90 c0 -2 -17 -19 -37 -38 l-38 -34 34 38 c33 34 41 42 41 34z m-100 -90 c0
-2 -15 -16 -32 -33 l-33 -29 29 33 c28 30 36 37 36 29z m-110 -100 c0 -2 -10
-12 -22 -23 l-23 -19 19 23 c18 21 26 27 26 19z m-100 -90 c0 -2 -10 -12 -22
-23 l-23 -19 19 23 c18 21 26 27 26 19z m-100 -91 c0 -2 -8 -10 -17 -17 -16
-13 -17 -12 -4 4 13 16 21 21 21 13z m-16825 -15085 l55 -1153 -27 -21 c-179
-142 -359 -275 -361 -268 -2 5 58 587 133 1294 74 708 135 1292 135 1298 0 7
2 10 5 8 2 -3 29 -524 60 -1158z m15010 1117 c10 -74 165 -1553 165 -1576 0
-22 -3 -22 -137 -22 l-136 0 6 458 c4 251 7 620 7 820 l0 362 44 0 45 0 6 -42z
m-4235 -11133 l0 -65 -2685 0 -2685 0 0 65 0 65 2685 0 2685 0 0 -65z"/>
</g>
</svg>
