<?xml version="1.0" standalone="no"?>
<!DOCTYPE svg PUBLIC "-//W3C//DTD SVG 20010904//EN"
 "http://www.w3.org/TR/2001/REC-SVG-20010904/DTD/svg10.dtd">
<svg version="1.0" xmlns="http://www.w3.org/2000/svg"
   viewBox="0 0 4027.000000 1717.000000"
 preserveAspectRatio="xMidYMid meet">
<metadata>
Created by potrace 1.16, written by Peter Selinger 2001-2019
</metadata>
<g transform="translate(0.000000,1717.000000) scale(0.100000,-0.100000)"
fill="#000000" stroke="none">
<path d="M12395 17159 c-209 -3 -459 -7 -555 -8 l-176 -1 -136 -392 -136 -393
-73 -520 -73 -521 52 -107 51 -107 -337 0 c-326 0 -356 2 -937 55 l-600 54
-675 111 c-790 129 -893 147 -927 163 -55 25 -352 508 -496 808 l-108 224
-237 171 c-191 138 -268 187 -390 248 l-152 76 -2780 0 c-2641 0 -2780 -1
-2779 -17 0 -10 8 -51 17 -90 l17 -73 260 -216 c165 -138 377 -329 582 -525
l323 -309 -828 0 -827 0 -235 -92 c-129 -50 -237 -93 -239 -95 -8 -6 157 -169
242 -240 42 -36 98 -93 124 -127 25 -33 99 -115 165 -181 l118 -121 141 -294
c78 -162 260 -544 405 -849 l264 -553 45 -332 c60 -443 82 -843 55 -991 l-17
-95 24 -6 c22 -6 24 -11 21 -51 l-3 -45 -102 -55 -103 -55 0 -119 c0 -65 2
-119 4 -119 3 0 130 -34 283 -75 238 -64 404 -99 1153 -242 481 -91 887 -168
903 -171 15 -2 27 -9 27 -16 0 -6 -20 -332 -45 -725 -25 -393 -42 -717 -39
-720 3 -3 94 -32 202 -64 l197 -58 685 -44 c377 -25 701 -45 721 -45 31 0 68
-26 310 -221 151 -121 282 -228 292 -238 16 -16 12 -18 -85 -50 -672 -216
-748 -244 -755 -270 -4 -15 7 -92 24 -179 l30 -153 -54 -81 c-50 -77 -53 -85
-53 -145 0 -66 57 -312 103 -449 21 -59 22 -72 10 -80 -11 -8 -10 -18 7 -71
15 -42 26 -60 35 -57 9 4 20 -16 36 -63 48 -144 161 -407 202 -471 l44 -67 89
-31 89 -31 52 -113 c50 -110 85 -160 108 -160 7 0 439 139 960 310 522 170
953 310 959 310 6 0 157 -228 336 -506 l325 -505 1253 -784 1253 -783 547
-121 547 -121 1150 105 c633 57 1174 107 1202 110 l53 6 2 529 3 530 205 -164
c113 -89 560 -445 994 -790 l789 -628 364 -144 c333 -131 370 -143 436 -146
l72 -3 155 -290 c85 -159 292 -573 461 -920 316 -651 323 -663 524 -942 1 -2
298 -106 660 -233 l658 -231 826 -89 c454 -50 1152 -126 1551 -170 3494 -384
5318 -577 5645 -600 l130 -9 538 78 c296 43 542 82 546 87 5 5 81 187 171 404
89 217 254 617 367 889 112 271 202 495 200 497 -2 2 -48 13 -102 24 -54 11
-101 22 -103 25 -2 2 19 113 48 247 28 134 56 264 62 291 l10 47 109 0 109 0
0 205 0 205 28 -5 c15 -3 137 -21 272 -41 135 -19 323 -48 419 -64 96 -17 178
-27 183 -22 4 4 -15 34 -43 65 l-51 57 81 0 81 0 0 42 c0 23 -66 426 -146 896
-80 469 -144 855 -142 857 2 2 379 7 838 11 l836 7 39 58 40 59 123 0 122 0
37 -41 38 -42 1490 7 1490 7 113 40 113 39 452 0 452 0 83 55 c45 31 82 57 82
59 0 2 -36 27 -80 55 l-81 51 -448 0 -449 0 -111 40 -111 40 -1497 10 -1497
11 -34 -41 -34 -40 -128 0 -128 0 -37 55 -38 55 -151 1 c-83 1 -387 5 -676 8
l-524 6 -60 407 c-33 225 -56 411 -53 415 4 3 303 11 666 16 l658 10 36 -22
36 -22 1098 31 c604 17 1107 33 1118 36 11 2 33 15 49 28 l29 24 -39 25 -39
26 -1110 35 -1109 35 -33 -25 -34 -26 -677 13 c-412 7 -679 16 -683 22 -8 12
-33 196 -28 201 2 2 818 16 1813 33 l1809 30 21 24 c12 14 28 34 36 46 15 21
24 21 1120 52 608 17 1146 33 1196 36 l92 6 48 -58 48 -58 1571 78 1570 79 73
54 c39 30 72 58 72 62 -1 4 -33 31 -72 61 l-71 54 -1569 70 -1569 70 -52 -50
-52 -50 -1195 33 c-657 17 -1196 32 -1197 33 -1 1 -15 23 -31 50 l-31 49 -93
6 c-51 3 -946 14 -1988 26 -2061 22 -2394 28 -2317 43 26 5 47 13 47 18 0 5
-23 111 -51 237 -47 215 -54 236 -127 395 l-77 168 -830 954 -830 955 -1130
867 c-621 476 -1305 997 -1520 1158 -214 160 -829 619 -1365 1020 -827 619
-1100 816 -1798 1301 l-822 572 -958 491 -958 491 -218 -30 -217 -29 -542 75
-542 75 -1420 345 -1420 344 -1176 230 c-890 174 -1192 230 -1240 228 -35 -1
-235 -5 -444 -9z"/>
</g>
</svg>
