<?xml version="1.0" standalone="no"?>
<!DOCTYPE svg PUBLIC "-//W3C//DTD SVG 20010904//EN"
 "http://www.w3.org/TR/2001/REC-SVG-20010904/DTD/svg10.dtd">
<svg version="1.0" xmlns="http://www.w3.org/2000/svg"
   viewBox="0 0 1998.000000 3870.000000"
 preserveAspectRatio="xMidYMid meet">
<metadata>
Created by potrace 1.16, written by Peter Selinger 2001-2019
</metadata>
<g transform="translate(0.000000,3870.000000) scale(0.100000,-0.100000)"
fill="#000000" stroke="none">
<path d="M3270 38695 c0 -3 164 -358 365 -790 201 -431 365 -788 365 -793 0
-4 -55 -16 -121 -25 -67 -9 -124 -19 -127 -22 -5 -4 106 -534 113 -543 1 -1
102 -20 224 -41 122 -21 223 -40 226 -42 2 -3 76 -161 165 -353 103 -222 158
-351 151 -355 -6 -4 -88 -18 -183 -30 -95 -13 -175 -25 -177 -27 -2 -2 28
-144 65 -317 l69 -313 290 -53 c159 -29 297 -54 306 -57 9 -2 114 -217 259
-528 l244 -524 209 -224 c207 -220 209 -223 181 -230 -16 -4 -159 -17 -319
-28 -159 -12 -290 -22 -291 -23 0 -1 -54 -119 -120 -262 l-120 -260 -455 -42
-456 -41 -116 -72 -117 -72 2 -501 3 -501 115 -72 115 -71 415 -37 c228 -20
433 -39 456 -42 l40 -6 120 -260 c112 -245 121 -261 157 -279 20 -11 37 -23
37 -27 0 -4 -326 -89 -723 -189 l-724 -183 -84 25 c-46 13 -140 36 -209 50
l-125 25 -525 -78 -525 -79 -559 -280 -559 -280 174 -150 c96 -82 183 -154
194 -160 11 -5 368 -99 794 -209 l774 -199 -259 -6 c-143 -4 -484 -10 -760
-14 l-501 -7 -181 -119 -182 -120 0 -882 1 -882 180 -118 180 -117 888 -88
888 -87 310 -340 310 -340 234 -146 234 -146 8 -134 c4 -74 10 -175 13 -226
l6 -92 239 -282 c131 -156 239 -288 238 -294 0 -5 -19 -53 -43 -105 l-42 -95
-184 -5 -184 -5 -98 -126 -97 -126 -218 -7 -218 -7 -267 -166 -268 -166 0
-1051 0 -1051 271 -167 270 -168 217 0 218 0 72 -104 c60 -88 69 -105 55 -110
-10 -3 -292 -71 -628 -151 -335 -80 -621 -150 -634 -155 -52 -23 -1061 -623
-1061 -631 0 -5 47 -80 105 -166 l104 -157 570 -131 c313 -72 572 -133 576
-137 3 -3 19 -55 35 -115 l30 -109 -28 -99 -28 -100 -166 -120 -165 -120 -6
-65 -6 -65 48 -46 49 -46 323 -64 324 -65 -202 -39 c-169 -32 -203 -42 -203
-56 0 -38 34 -107 87 -178 93 -123 193 -411 193 -557 l0 -70 155 -49 156 -49
-7 -135 c-3 -75 -9 -139 -13 -142 -3 -3 -132 -27 -286 -54 -154 -26 -282 -49
-284 -51 -9 -8 36 -96 87 -169 61 -87 152 -297 172 -400 7 -33 15 -105 19
-159 l6 -100 125 -31 c69 -17 137 -35 153 -38 l27 -7 0 -188 0 -187 -285 -40
c-157 -21 -289 -41 -294 -45 -6 -3 -4 -32 4 -72 12 -55 25 -80 73 -145 47 -62
70 -106 110 -213 60 -159 82 -254 82 -356 l0 -76 70 -31 70 -32 0 -626 0 -626
-53 -22 c-28 -12 -186 -77 -350 -143 -243 -98 -300 -125 -307 -144 -7 -18 5
-53 61 -170 38 -80 68 -148 65 -151 -2 -3 -224 -11 -493 -19 l-488 -15 -88
-36 c-132 -54 -127 -37 -127 -435 0 -316 1 -324 23 -363 19 -33 34 -45 102
-73 l80 -34 605 -19 c333 -10 618 -20 633 -21 l28 -3 -86 -144 c-47 -80 -85
-153 -83 -163 2 -14 65 -48 244 -130 l240 -110 -245 -887 -245 -888 -83 -27
-84 -28 109 -116 c60 -64 174 -187 253 -272 l143 -155 -60 -6 c-32 -4 -134 -7
-225 -8 l-167 -1 -222 230 c-180 186 -228 230 -249 230 -40 -1 -1511 -227
-1518 -234 -3 -3 -41 -175 -84 -382 -42 -207 -83 -380 -89 -384 -7 -4 -58 -17
-114 -30 l-102 -22 -14 -50 c-14 -47 -20 -53 -80 -87 l-65 -37 -3 -76 -3 -76
117 -64 c63 -35 131 -76 150 -93 l34 -30 -160 -835 c-88 -459 -165 -858 -171
-887 l-10 -52 -47 -6 c-26 -4 -58 -10 -72 -15 -14 -5 -44 -14 -66 -20 -26 -6
-44 -17 -46 -28 -3 -10 -40 -38 -82 -61 l-77 -42 3 -76 3 -76 113 -62 c61 -34
128 -75 147 -91 l36 -29 -56 -315 c-30 -173 -55 -322 -55 -331 0 -14 384 -554
425 -598 11 -11 162 28 937 245 507 141 926 260 930 263 4 4 99 381 211 839
112 457 206 834 208 837 3 3 109 16 235 30 126 14 243 27 259 30 20 4 -13 -21
-94 -70 -69 -42 -127 -77 -129 -80 -3 -2 -93 -389 -202 -860 -109 -471 -199
-857 -202 -858 -2 -1 -46 -44 -99 -95 l-95 -92 -899 -220 c-859 -210 -904
-220 -997 -220 -54 0 -98 -4 -98 -9 0 -5 29 -40 66 -79 l65 -71 -20 -68 -20
-68 -125 -62 c-75 -37 -126 -69 -130 -80 -80 -276 -96 -335 -92 -341 2 -4 46
-21 96 -37 50 -16 89 -34 87 -39 -2 -6 -186 -557 -408 -1224 l-404 -1214 -87
-94 c-49 -52 -88 -98 -88 -104 0 -5 40 -52 90 -103 84 -88 92 -101 124 -188
19 -52 37 -102 41 -111 4 -9 68 -73 143 -141 l137 -124 1520 -70 c1387 -63
1540 -69 1745 -61 l224 8 152 81 c84 44 159 88 166 97 8 9 67 100 131 202
l116 185 97 60 c54 33 112 65 129 72 20 8 114 12 278 12 l247 1 0 30 0 30
-255 0 c-235 0 -256 1 -261 18 -3 9 -19 50 -35 91 l-29 74 389 1066 388 1066
140 190 c77 105 147 201 155 215 9 14 44 102 78 197 l62 172 -41 92 c-23 50
-41 96 -41 102 0 14 121 350 130 360 4 4 83 22 175 39 154 28 185 38 345 105
150 64 182 81 225 124 l51 49 135 0 c110 0 147 4 194 20 50 17 84 20 249 20
161 0 199 3 239 18 l49 19 -44 16 c-35 14 -81 17 -234 17 -165 0 -199 3 -249
20 -47 16 -84 20 -198 20 l-140 0 -56 53 c-53 50 -66 56 -263 127 -115 41
-208 80 -208 86 0 11 917 2435 923 2439 1 1 88 18 194 38 179 34 204 41 370
112 152 64 182 80 197 106 41 69 41 69 204 69 123 0 159 4 207 20 50 17 85 20
254 21 163 0 203 3 235 18 l39 17 -44 17 c-36 14 -80 17 -235 17 -165 0 -199
3 -249 20 -48 17 -84 20 -211 20 l-153 0 -38 51 -38 51 -208 78 c-115 43 -210
80 -213 82 -3 4 403 1114 412 1126 1 2 55 14 119 26 64 13 120 27 125 32 17
17 141 304 136 313 -3 5 -53 12 -111 16 -58 4 -108 11 -111 16 -7 12 24 110
40 125 6 6 60 21 120 33 61 11 114 25 118 29 4 4 39 78 77 163 l69 154 -108
10 c-60 6 -112 13 -115 17 -4 3 3 29 15 57 21 49 23 50 79 61 161 33 184 39
191 46 19 20 141 307 133 314 -4 4 -54 12 -111 17 -56 6 -105 12 -108 15 -6 7
304 729 320 744 6 6 121 53 255 105 214 82 255 101 332 157 49 34 93 71 98 80
5 10 19 56 31 102 29 114 75 208 160 322 38 53 70 100 70 104 0 5 -52 36 -116
70 l-115 61 72 24 73 24 22 85 c40 157 63 205 170 353 35 48 64 91 64 95 0 4
-91 41 -202 81 -112 41 -204 75 -205 76 -6 3 479 1210 488 1215 5 4 134 42
286 86 l277 79 207 420 208 420 370 295 370 295 146 376 147 375 316 238 317
237 130 181 129 181 103 286 c57 157 103 292 103 298 0 7 -25 63 -56 125 l-56
113 -284 155 -284 155 2 80 3 80 490 41 c452 39 505 45 677 83 l188 41 265 0
c170 0 265 -4 265 -10 0 -7 270 -10 790 -10 520 0 790 3 790 10 0 6 -6 10 -12
10 -7 0 -272 7 -588 15 -316 8 -614 15 -662 15 -72 0 -88 3 -88 15 0 13 -48
15 -376 15 l-377 0 -126 39 -126 39 -475 36 c-261 20 -495 39 -521 42 l-45 5
-59 178 -58 177 40 85 40 85 99 38 c95 36 116 40 504 86 223 26 500 56 616 66
l211 17 -69 60 c-38 33 -68 63 -66 68 2 4 183 282 402 616 l399 609 85 -13
c46 -8 89 -12 94 -11 5 2 -58 64 -139 138 -144 131 -153 138 -326 228 -97 52
-177 96 -177 100 0 4 36 92 81 197 l80 191 292 17 c161 10 298 17 305 17 7 0
12 14 12 39 l0 39 -62 6 c-35 3 -164 10 -288 16 -124 6 -235 13 -247 16 -21 4
-23 10 -23 62 0 53 2 58 33 79 32 22 44 23 442 33 370 10 415 13 462 31 48 19
87 21 580 29 482 8 533 10 583 28 l55 19 -65 21 c-61 19 -95 21 -584 28 -474
6 -523 8 -561 25 -37 16 -91 20 -461 30 l-419 12 -40 26 c-38 25 -40 30 -46
86 -5 50 -30 112 -152 370 l-146 309 -316 316 -315 315 0 447 0 446 268 106
c147 58 886 350 1643 648 l1376 543 172 219 c94 120 171 222 171 227 0 13 -90
212 -101 224 -6 6 -503 58 -1105 116 -602 59 -1097 109 -1100 111 -6 6 65 270
76 282 5 4 1094 157 2420 340 l2413 331 199 399 c110 219 208 420 218 446 l19
48 -32 6 c-18 3 -1116 201 -2442 440 l-2410 434 -965 36 c-531 20 -991 40
-1024 44 l-59 7 -28 75 -28 75 0 345 0 345 119 103 119 102 986 0 986 0 285
-90 286 -90 391 -10 c215 -6 450 -17 522 -25 95 -11 213 -15 437 -13 l307 3
-306 440 -307 440 -305 143 -306 142 -93 0 -92 0 -739 420 -739 420 -617 -2
-617 -3 -34 -95 c-18 -52 -41 -114 -50 -137 l-16 -43 -453 0 -454 0 -160 -116
c-88 -64 -163 -115 -168 -115 -4 1 -149 156 -322 344 l-314 342 -166 84 -166
83 -504 100 -505 100 -112 117 c-95 99 -1124 1303 -1124 1315 0 2 28 7 63 11
51 6 78 17 155 64 l92 56 -2 74 -3 74 -92 58 -91 57 -244 22 c-219 20 -245 24
-265 44 -12 11 -233 271 -492 576 l-471 554 0 62 0 63 -97 52 -98 52 -709 839
-708 838 -709 0 -709 0 -134 75 -134 75 -421 0 c-232 0 -421 -2 -421 -5z m775
-30437 c-8 -23 -215 -915 -215 -926 0 -7 34 -37 75 -68 42 -31 74 -58 72 -60
-9 -9 -475 61 -471 70 2 6 55 225 119 486 64 261 119 483 121 493 5 15 21 17
154 17 115 0 148 -3 145 -12z"/>
</g>
</svg>
