<?xml version="1.0" standalone="no"?>
<!DOCTYPE svg PUBLIC "-//W3C//DTD SVG 20010904//EN"
 "http://www.w3.org/TR/2001/REC-SVG-20010904/DTD/svg10.dtd">
<svg version="1.0" xmlns="http://www.w3.org/2000/svg"
   viewBox="0 0 3739.000000 830.000000"
 preserveAspectRatio="xMidYMid meet">
<metadata>
Created by potrace 1.16, written by Peter Selinger 2001-2019
</metadata>
<g transform="translate(0.000000,830.000000) scale(0.100000,-0.100000)"
fill="#000000" stroke="none">
<path d="M1826 8213 c-4 -48 -11 -143 -16 -211 -6 -67 -10 -354 -10 -637 l0
-515 -52 -78 c-45 -67 -70 -91 -199 -189 l-148 -113 -415 0 -416 0 -67 90 -68
90 -112 0 -112 0 -96 -135 -96 -134 -10 -230 c-13 -294 -5 -4125 8 -4196 7
-39 31 -80 103 -184 l93 -134 60 7 c33 3 84 6 112 6 l53 0 67 90 67 90 413 0
413 0 150 -115 c128 -98 157 -125 199 -187 l48 -73 6 -585 c5 -504 19 -853 33
-867 2 -3 687 54 1522 126 836 72 2268 189 3184 261 1359 106 1913 154 3015
260 743 72 1361 129 1374 128 20 -3 46 -42 157 -238 l133 -235 173 -6 c193 -8
803 -24 1478 -39 450 -11 1166 -49 1760 -95 179 -14 527 -34 774 -45 l448 -18
548 191 547 192 439 428 c416 406 442 434 499 528 33 54 65 99 72 99 6 0 430
54 943 120 l931 121 102 50 c79 40 110 61 137 96 19 25 42 53 50 64 13 16 122
33 864 129 l849 111 26 -31 c14 -17 46 -55 71 -85 25 -30 51 -54 58 -55 7 0
200 29 430 65 397 62 419 67 470 98 61 36 90 61 112 96 15 23 44 26 1905 242
1743 201 1891 220 1907 239 15 19 61 24 585 74 363 34 574 50 586 44 20 -10
247 12 387 37 47 9 265 34 484 56 394 39 399 40 420 21 21 -19 29 -19 766 64
410 47 1205 137 1767 202 l1022 118 95 -48 c146 -73 144 -73 721 -5 396 47
698 92 1570 233 594 95 1091 177 1105 180 82 20 1068 369 1057 375 -21 11
-1010 357 -1052 368 -22 6 -515 87 -1095 181 -827 134 -1163 184 -1555 231
-602 72 -608 72 -748 -1 l-93 -49 -1294 148 c-712 82 -1510 173 -1772 202
-463 51 -478 52 -498 34 -19 -17 -32 -17 -442 24 -233 24 -436 47 -453 52 -44
13 -354 42 -385 35 -15 -2 -282 19 -595 48 -526 49 -569 55 -584 74 -15 19
-154 36 -1906 239 l-1889 218 -23 33 c-12 19 -53 53 -90 77 l-68 42 -410 62
c-226 33 -420 61 -430 61 -13 0 -46 -30 -89 -80 -37 -44 -75 -80 -84 -80 -8 0
-387 47 -842 105 -454 58 -828 105 -832 105 -3 0 -32 33 -65 73 -56 67 -66 75
-164 119 l-104 47 -1805 230 -1805 230 -2200 225 c-1210 124 -3014 304 -4010
401 -1604 154 -2000 189 -3480 304 -1350 106 -4411 361 -4632 386 l-51 6 -6
-88z"/>
</g>
</svg>
