<?xml version="1.0" standalone="no"?>
<!DOCTYPE svg PUBLIC "-//W3C//DTD SVG 20010904//EN"
 "http://www.w3.org/TR/2001/REC-SVG-20010904/DTD/svg10.dtd">
<svg version="1.0" xmlns="http://www.w3.org/2000/svg"
   viewBox="0 0 4695.000000 1621.000000"
 preserveAspectRatio="xMidYMid meet">
<metadata>
Created by potrace 1.16, written by Peter Selinger 2001-2019
</metadata>
<g transform="translate(0.000000,1621.000000) scale(0.100000,-0.100000)"
fill="#000000" stroke="none">
<path d="M30360 16135 l0 -75 -283 0 -283 0 -63 -150 c-55 -131 -66 -150 -86
-150 -12 0 -29 -9 -36 -19 -13 -18 -49 -20 -519 -40 -773 -33 -728 -29 -744
-60 -12 -21 -29 -29 -97 -46 l-83 -21 -38 -89 c-25 -61 -37 -106 -38 -137 l0
-48 -545 0 -545 0 0 -85 0 -85 95 0 95 0 0 -200 0 -200 -90 0 -90 0 0 -45 0
-45 -960 0 -960 0 0 40 0 40 65 0 65 0 0 290 0 290 -983 0 -983 0 -26 63 -26
62 -173 5 -174 5 -70 48 c-63 43 -75 47 -127 47 l-58 0 0 53 c0 28 -5 69 -11
90 l-10 37 -59 0 c-56 0 -60 1 -60 24 0 45 -13 86 -26 86 -11 0 -14 31 -16
158 l-2 157 -7 -180 c-3 -99 -7 -195 -8 -212 -1 -28 -5 -33 -24 -33 -20 0 -25
-8 -35 -51 -7 -28 -12 -68 -12 -90 l0 -39 -224 0 c-208 0 -225 1 -247 20 l-24
19 96 1 97 0 5 27 c3 16 -1 43 -8 60 l-14 33 -774 0 -775 0 -13 -32 c-12 -30
-11 -32 18 -57 l32 -26 -60 -73 -61 -72 -179 0 -179 0 0 65 0 65 -185 0 -185
0 0 -130 0 -130 -1512 0 -1513 0 -182 -228 -183 -227 0 -62 0 -63 -831 0
c-551 0 -828 3 -824 10 3 6 50 10 105 10 l100 0 92 115 92 115 60 0 61 0 78
76 77 76 0 89 0 89 -2897 -1 -2898 0 -205 -256 c-113 -140 -457 -569 -766
-952 l-560 -696 -112 -3 -111 -3 -668 -829 -668 -829 -102 0 -103 -1 0 -125 0
-125 -61 -75 -62 -75 -320 0 -320 0 -102 -65 -102 -65 -367 0 c-359 0 -366 0
-366 -20 0 -20 7 -20 337 -20 l338 0 -63 -42 c-43 -30 -111 -99 -224 -228 -88
-102 -175 -201 -193 -221 l-33 -37 -321 -33 -321 -33 0 -336 -1 -335 -410
-470 c-226 -258 -418 -473 -428 -477 -9 -4 -385 -84 -836 -178 -451 -93 -830
-172 -841 -175 -12 -3 -95 -84 -184 -181 -133 -144 -160 -179 -148 -189 9 -8
211 -27 613 -59 330 -26 603 -47 608 -46 4 0 7 -18 7 -39 0 -38 -39 -83 -1017
-1195 l-1018 -1155 -87 -189 c-49 -104 -88 -192 -88 -195 0 -4 189 -7 420 -7
l420 0 -506 -578 -506 -577 671 -3 671 -2 0 -159 0 -158 -95 -124 c-92 -120
-95 -126 -95 -176 l0 -53 875 0 875 0 0 -195 0 -195 220 0 220 0 0 -195 0
-195 630 0 630 0 0 195 0 195 235 0 235 0 0 195 0 195 334 0 c213 0 337 4 341
10 8 14 1485 14 1485 0 0 -6 218 -11 620 -12 l619 -3 -40 -53 c-27 -36 -36
-54 -27 -57 109 -36 62 -35 1722 -35 l1601 0 -3 -387 c-2 -214 -1 -412 3 -440
l6 -53 175 0 174 0 0 -40 0 -40 135 0 135 0 0 -335 0 -335 195 0 195 0 0 -55
0 -55 1583 0 c1416 0 1585 2 1605 16 l22 15 0 380 0 379 60 0 60 0 0 -400 0
-400 465 0 465 0 0 135 0 135 75 0 75 0 0 -135 0 -135 465 0 465 0 0 135 0
135 1310 0 1310 0 0 -74 0 -74 48 -6 c26 -3 788 -78 1695 -166 l1647 -160
1125 0 1125 0 0 -225 0 -225 79 0 78 0 79 -115 c74 -106 81 -114 112 -115 l33
0 -3 -52 -3 -53 -40 -6 c-27 -3 -87 -35 -188 -99 l-148 -94 3 -109 3 -110 155
-98 155 -99 340 0 340 0 88 95 88 95 65 0 64 0 0 131 0 131 -63 -6 -64 -7 -92
97 -93 98 -129 -3 -129 -3 0 46 c0 42 2 46 24 46 18 0 43 25 111 115 l88 115
93 0 94 0 48 104 49 103 49 6 c27 3 158 14 292 24 l242 17 0 98 0 98 785 0
786 0 237 35 c130 20 247 38 260 40 l22 5 -2 222 -3 222 -247 90 c-241 89
-248 92 -248 119 l0 27 380 0 380 0 0 145 0 145 450 0 450 0 0 -145 0 -145 87
0 c92 0 101 -6 31 -21 -24 -6 -60 -14 -80 -20 l-38 -10 0 -69 0 -70 -51 0
c-29 0 -94 -13 -150 -31 l-99 -31 0 -48 0 -49 99 -31 c55 -17 121 -30 150 -30
l51 0 0 -433 0 -434 94 -21 95 -22 1444 0 1443 0 82 61 82 61 0 169 0 169 93
0 c132 0 127 -9 127 222 0 227 5 218 -128 218 l-92 0 0 148 -1 147 -74 54
c-41 30 -75 60 -75 65 0 6 40 76 89 156 l88 145 327 3 326 2 0 435 0 435 267
2 267 3 26 89 25 89 903 350 902 351 0 148 0 148 415 0 414 0 10 -37 c6 -21
14 -56 19 -78 l8 -40 211 -3 210 -2 13 80 12 80 49 0 c54 0 47 10 67 -110 l8
-45 317 -3 317 -2 0 -433 1 -432 47 -32 48 -33 240 0 239 0 975 241 975 242
1290 1510 c2284 2672 2663 3116 2972 3480 l303 358 0 105 0 104 -75 0 -75 0 0
170 0 170 75 0 75 0 0 66 c0 57 5 74 36 130 l36 64 -23 64 -23 64 -65 9 -66 8
-32 85 c-17 47 -32 90 -32 97 -1 8 20 13 57 15 l58 3 -211 601 -210 602 -65
57 c-36 31 -74 61 -86 67 -16 8 -50 95 -158 406 -76 219 -310 878 -519 1465
l-381 1069 -88 79 -88 79 -310 0 -310 0 0 70 0 70 100 0 100 0 0 78 0 78 -48
47 -48 47 -361 0 -361 0 -49 60 -48 60 -237 0 -238 0 0 80 0 80 -93 0 -92 0
-15 63 -15 62 -63 3 -62 3 0 74 c0 60 -3 75 -15 75 -11 0 -15 14 -16 58 -1 31
-5 102 -9 157 -5 82 -7 58 -8 -132 l-2 -233 -25 0 c-25 0 -27 -4 -51 -102 l-6
-28 -94 0 -94 0 0 -80 0 -80 -255 0 -255 0 0 70 0 70 -155 0 -155 0 0 -70 0
-70 -50 0 -50 0 0 70 0 70 -150 0 -150 0 0 -70 0 -70 -165 0 -165 0 0 -60 0
-60 -79 0 c-73 0 -85 -3 -185 -50 l-106 -50 0 -75 0 -75 140 0 140 0 0 -70 0
-70 -442 0 -442 0 -118 -77 -118 -78 0 -192 0 -193 -1035 0 -1035 0 0 61 c0
56 2 60 20 54 15 -5 22 0 29 17 5 13 18 47 30 76 l21 52 -55 24 c-30 14 -457
182 -949 375 l-895 351 -96 0 c-87 0 -95 2 -95 19 0 23 -18 27 -151 36 l-97 7
-17 44 c-16 42 -19 44 -55 44 -34 0 -44 6 -77 45 l-37 45 -101 0 -100 0 -28
-45 c-47 -73 -57 -62 -57 63 l0 108 -159 47 -159 47 -158 0 -157 0 -86 91 -86
90 -275 70 -274 69 -238 0 c-205 0 -238 2 -238 15 0 13 -126 15 -1075 15
l-1075 0 -6 -25 c-5 -19 -13 -25 -35 -25 l-29 0 0 75 0 75 -140 0 -140 0 0
-75 c0 -68 -2 -75 -20 -75 -18 0 -20 7 -20 75 l0 75 -140 0 -140 0 0 -75z
m9430 -8630 l0 -415 -1005 0 -1005 0 0 260 c0 250 1 260 19 260 11 0 29 13 40
29 19 26 21 44 21 155 l0 126 965 0 965 0 0 -415z m0 -1140 l0 -35 -950 0
-950 0 0 35 0 35 950 0 950 0 0 -35z m0 -295 l0 -90 -960 0 c-947 0 -961 0
-950 19 5 11 10 51 10 90 l0 71 950 0 950 0 0 -90z m0 -360 l0 -90 -317 -2
-317 -3 -7 -30 c-4 -16 -10 -42 -13 -57 -6 -26 -10 -28 -56 -28 l-49 0 -12 60
-12 60 -210 -2 -211 -3 -16 -55 -16 -55 -187 -3 -187 -2 0 140 0 140 -200 0
c-127 0 -200 4 -200 10 0 7 342 10 1005 10 l1005 0 0 -90z m-15730 -3440 l0
-160 -1680 0 -1680 0 0 -30 0 -30 -1310 0 -1310 0 0 185 0 185 1263 3 c694 1
2039 3 2990 5 l1727 2 0 -160z m-6910 -35 l0 -185 -75 0 -75 0 0 185 0 185 75
0 75 0 0 -185z"/>
</g>
</svg>
