<?xml version="1.0" standalone="no"?>
<!DOCTYPE svg PUBLIC "-//W3C//DTD SVG 20010904//EN"
 "http://www.w3.org/TR/2001/REC-SVG-20010904/DTD/svg10.dtd">
<svg version="1.0" xmlns="http://www.w3.org/2000/svg"
   viewBox="0 0 4915.000000 1485.000000"
 preserveAspectRatio="xMidYMid meet">
<metadata>
Created by potrace 1.16, written by Peter Selinger 2001-2019
</metadata>
<g transform="translate(0.000000,1485.000000) scale(0.100000,-0.100000)"
fill="#000000" stroke="none">
<path d="M35083 14843 l-283 -3 0 -70 c0 -39 -2 -70 -3 -70 -2 0 -219 -20
-483 -45 -263 -25 -486 -45 -496 -45 -13 0 -18 8 -18 28 0 15 -4 33 -8 40 -7
9 -152 1 -697 -43 -378 -30 -689 -56 -691 -58 -2 -1 109 -90 246 -197 l250
-195 232 -6 c128 -4 384 -7 568 -9 184 -1 395 -5 468 -9 l133 -6 -90 -78 -91
-79 5 -101 c3 -56 8 -121 10 -144 l5 -43 -310 -2 -311 -3 147 -198 c81 -109
143 -202 138 -206 -21 -19 -447 -344 -530 -404 l-91 -67 -160 0 -159 0 -45
103 -45 102 -295 0 -294 0 -23 -65 c-12 -36 -29 -84 -38 -107 l-16 -43 -189 0
-189 0 -26 -40 c-19 -29 -35 -41 -58 -44 -17 -3 -170 -15 -341 -26 -170 -11
-328 -23 -350 -25 -38 -5 -41 -3 -52 25 -10 26 -16 30 -50 30 -21 0 -323 -11
-672 -25 l-634 -25 -71 53 c-39 29 -77 57 -84 61 -7 4 -695 27 -1530 50
l-1517 43 -114 -104 -114 -103 -116 0 c-64 0 -332 -7 -595 -14 l-479 -14 -78
49 -79 49 -152 0 c-84 0 -311 3 -504 7 l-351 6 -172 226 -171 226 -533 177
-532 176 -510 12 c-280 6 -520 13 -532 16 l-23 4 0 248 0 248 123 13 c67 6
137 14 155 18 l33 5 -3 66 -3 65 -60 33 -60 34 -598 0 -597 0 -50 -32 -50 -33
0 -67 c0 -62 2 -68 23 -72 24 -6 266 -36 283 -36 11 0 -71 -328 -86 -344 -5
-5 -548 -5 -1263 -1 l-1254 7 -13 118 c-7 65 -16 122 -19 127 -3 5 -70 7 -147
5 l-142 -4 -6 -72 c-11 -113 -3 -106 -115 -106 l-98 0 -13 45 -13 45 -58 0
-59 0 -34 -69 -35 -69 -78 -6 c-77 -6 -1710 -106 -1735 -106 -9 0 -24 -41 -42
-110 -16 -60 -34 -116 -40 -124 -6 -9 -60 -37 -121 -64 l-110 -50 -680 -41
c-374 -23 -690 -41 -702 -41 -22 0 -23 -4 -23 -65 l0 -66 -292 -143 c-161 -78
-425 -213 -586 -299 l-293 -157 -102 -1 c-56 -1 -148 -4 -204 -8 l-102 -6
-169 -157 -170 -158 -838 -8 -839 -9 -438 240 -439 240 -466 8 c-257 4 -560
11 -673 14 l-206 7 -7 147 c-4 80 -10 163 -13 184 l-6 37 -312 0 -313 0 -6
-62 c-3 -35 -8 -112 -11 -172 -3 -60 -7 -111 -10 -114 -2 -2 -92 -1 -199 3
l-194 7 -6 107 c-4 58 -9 134 -12 169 l-6 62 -263 0 -264 0 -7 -47 c-4 -25 -4
-100 0 -165 l7 -118 -317 0 -317 0 4 -402 4 -402 -482 -105 -483 -106 0 -117
0 -118 -370 0 -370 0 0 115 c0 103 -2 115 -17 115 -10 0 -344 -32 -742 -70
-398 -39 -728 -70 -733 -70 -4 0 -8 29 -8 65 l0 65 -38 -5 c-63 -9 -424 -37
-427 -33 -1 2 -23 39 -48 83 l-46 80 -281 -20 c-226 -16 -283 -23 -289 -35 -5
-8 -16 -109 -27 -224 -10 -118 -23 -210 -29 -212 -5 -1 -239 -31 -519 -64
l-510 -62 -55 -38 -56 -37 0 -611 0 -611 61 -35 c55 -32 68 -36 135 -36 41 0
80 -4 88 -9 11 -7 13 -26 8 -89 -3 -43 -2 -95 3 -114 l10 -34 432 -57 c238
-31 740 -91 1116 -134 588 -67 684 -75 692 -63 5 8 12 40 15 70 10 87 33 252
37 255 4 4 585 -60 694 -76 l82 -12 7 -62 6 -61 425 -233 424 -233 0 -87 0
-86 141 -115 141 -115 505 -5 505 -5 51 -117 52 -118 42 0 43 0 0 -45 0 -45
575 0 575 0 0 -206 0 -207 52 7 c29 3 71 6 94 6 39 0 42 2 64 51 13 28 27 52
31 55 4 2 85 -27 180 -65 l174 -68 1230 -27 c677 -14 1264 -27 1305 -28 l74
-1 61 111 c33 61 63 112 68 112 4 0 7 -73 7 -162 l0 -161 278 6 c152 4 385 7
518 7 l240 0 11 125 c6 69 12 127 14 130 4 3 2566 35 2831 35 l127 0 3 -67 3
-68 120 -2 c113 -3 121 -1 146 21 25 22 27 31 34 140 l7 116 302 0 301 -1 145
-169 c80 -93 150 -170 155 -170 6 0 194 -9 420 -21 l409 -21 298 -124 298
-124 275 0 275 0 0 185 0 185 28 0 c64 0 544 -39 550 -44 3 -3 16 -77 28 -164
13 -86 24 -157 24 -158 0 -1 134 -3 298 -6 281 -5 301 -7 341 -27 l42 -22 -3
-1155 -3 -1154 201 0 c313 0 260 25 488 -235 l195 -222 482 -6 c265 -4 733 -7
1039 -7 l558 0 177 236 177 237 257 -8 258 -7 6 174 c4 95 7 205 7 244 l0 71
143 6 c78 4 288 7 467 7 l325 0 190 -108 190 -108 1588 13 1588 13 78 65 78
64 601 -6 c331 -3 602 -7 602 -7 13 -91 30 -334 30 -427 0 -70 3 -141 6 -158
l7 -31 737 0 c405 0 792 3 858 7 l122 6 0 127 0 127 208 -4 c189 -3 3202 -43
3263 -43 20 0 30 -7 39 -30 l13 -31 161 5 c88 3 351 8 583 11 l422 6 5 -33 c3
-18 7 -138 9 -266 l3 -232 -65 0 c-36 0 -322 11 -636 25 -313 14 -578 25 -588
25 -12 0 -30 -26 -60 -86 l-42 -86 -67 4 -68 4 0 -333 0 -333 70 0 70 0 35
-70 c20 -39 42 -73 50 -76 7 -3 269 1 582 10 312 9 587 16 610 16 l41 0 6 -82
c3 -46 7 -179 10 -295 l4 -213 -672 0 -672 0 -52 -59 -52 -60 0 -173 0 -174
53 -51 52 -51 1315 -17 1315 -17 102 45 103 46 1171 51 c644 28 1194 50 1222
48 l51 -3 173 -650 c94 -357 172 -656 172 -663 1 -11 -21 -13 -106 -8 -60 3
-170 8 -245 12 l-138 6 0 -193 0 -192 294 7 293 8 43 -169 43 -168 71 -70 c39
-39 187 -178 330 -309 l258 -240 459 -9 c253 -5 462 -8 464 -5 3 3 12 232 21
509 8 277 19 506 24 509 5 3 753 28 1662 55 1096 33 1623 52 1563 57 -49 4
-794 33 -1655 64 -861 31 -1567 58 -1569 60 -6 5 38 1427 44 1433 4 3 37 7 75
9 64 4 69 6 78 32 10 27 10 27 133 33 68 4 210 10 314 14 239 9 190 18 -149
28 -135 4 -249 11 -251 16 -5 7 182 1057 191 1070 2 4 47 10 99 14 l95 7 0 28
c0 16 4 31 8 34 4 2 570 31 1257 63 688 32 1230 59 1205 61 -25 2 -578 32
-1228 67 -651 35 -1186 65 -1188 68 -2 2 10 92 28 199 l32 194 294 80 c161 43
297 81 301 84 4 3 2 142 -6 309 -8 167 -13 304 -11 306 2 1 690 35 1530 76
840 40 1525 75 1524 77 -2 1 -691 63 -1532 137 -841 74 -1538 136 -1549 137
-17 3 -24 29 -62 258 -23 140 -44 267 -47 283 l-5 27 199 0 200 0 0 63 c0 116
18 107 -213 107 l-201 0 69 50 c39 28 107 76 151 106 l82 56 37 139 38 139
948 0 948 0 33 44 33 44 95 6 c52 3 1092 47 2310 96 1218 50 2238 94 2265 98
31 4 -823 49 -2230 116 -1254 59 -2316 110 -2360 113 l-81 6 -32 58 -33 59
-1009 0 -1010 0 1 23 c0 12 17 130 37 262 l37 240 210 8 c115 4 210 9 212 10
1 2 27 111 58 242 31 132 57 240 58 241 1 1 522 19 1157 40 635 21 1148 40
1140 41 -8 1 -492 21 -1075 43 -583 22 -1083 43 -1111 46 l-50 5 120 547 119
547 -93 87 -92 87 31 39 c36 47 24 44 307 73 l212 22 7 144 7 144 -63 93 -64
93 -880 478 -879 478 -149 2 -149 2 -87 87 -86 86 -528 0 c-423 0 -527 -3
-527 -13 0 -9 -50 -19 -177 -34 -97 -12 -180 -20 -184 -17 -4 2 -10 18 -14 34
-6 28 -10 30 -52 30 l-45 0 7 63 6 62 -147 124 -146 124 -305 53 c-176 30
-312 59 -321 67 -10 8 -70 57 -134 110 l-117 97 -215 0 -216 0 -72 105 -72
105 -198 0 -198 0 -373 337 c-204 185 -413 374 -463 419 l-90 83 -240 12 -239
12 -141 232 -140 232 89 7 c50 3 160 7 246 7 86 1 223 4 304 8 l148 6 -54 53
c-47 46 -63 56 -126 72 l-72 18 -182 175 c-100 96 -225 215 -278 266 l-97 91
-278 -2 c-154 -2 -406 -4 -561 -5z m-10349 -5934 c5 -4 46 -931 46 -1026 l0
-33 1740 0 1739 0 5 -32 c3 -18 21 -240 41 -493 20 -253 38 -488 42 -522 l6
-63 -567 0 -566 0 -79 75 -78 75 -1599 9 -1598 9 -183 -114 -183 -114 -459 0
-458 0 -6 68 c-4 37 -7 200 -7 363 l0 296 170 73 171 74 -3 85 c-3 96 3 89
-110 111 l-58 11 0 142 c0 78 -3 165 -6 193 l-6 51 58 7 c33 4 76 9 97 12 l37
6 0 114 0 114 168 -7 c92 -4 192 -8 222 -8 l55 0 27 80 27 80 165 3 166 2 0
174 0 173 258 11 c256 10 717 11 726 1z m-14524 -684 c0 -14 -4 -25 -8 -25 -5
0 -14 11 -20 25 -10 22 -9 25 8 25 15 0 20 -7 20 -25z m25985 -3541 c95 -40
115 -52 143 -90 17 -24 32 -46 32 -49 0 -3 -67 -5 -150 -5 l-150 0 0 95 c0 52
3 95 8 95 4 0 57 -21 117 -46z m807 -1113 l126 -260 109 -34 c59 -18 334 -103
611 -188 454 -139 497 -154 450 -157 -29 -1 -485 15 -1013 37 l-960 39 -99 43
-98 42 -320 -19 -319 -19 7 305 c3 168 7 306 8 307 0 1 283 5 628 9 l626 7 47
73 c26 41 52 74 59 74 7 0 69 -117 138 -259z"/>
</g>
</svg>
