<?xml version="1.0" standalone="no"?>
<!DOCTYPE svg PUBLIC "-//W3C//DTD SVG 20010904//EN"
 "http://www.w3.org/TR/2001/REC-SVG-20010904/DTD/svg10.dtd">
<svg version="1.0" xmlns="http://www.w3.org/2000/svg"
   viewBox="0 0 4026.000000 1767.000000"
 preserveAspectRatio="xMidYMid meet">
<metadata>
Created by potrace 1.16, written by Peter Selinger 2001-2019
</metadata>
<g transform="translate(0.000000,1767.000000) scale(0.100000,-0.100000)"
fill="#000000" stroke="none">
<path d="M18390 17644 c-360 -21 -505 -34 -1095 -104 -768 -90 -607 -62 -2345
-405 -803 -159 -1015 -204 -1146 -245 -139 -43 -174 -50 -245 -50 -62 0 -273
-33 -799 -124 l-715 -124 -1060 -261 c-1210 -298 -1349 -338 -3085 -890 -503
-159 -1187 -369 -1520 -465 -601 -174 -610 -177 -1275 -424 -572 -213 -856
-327 -1949 -781 -1165 -485 -1320 -552 -1740 -755 l-461 -222 -440 -283 c-242
-155 -443 -286 -447 -290 -4 -4 -21 -72 -37 -151 l-29 -144 59 -126 60 -126
237 -38 c130 -20 328 -57 438 -82 l202 -44 333 0 c290 0 343 -3 404 -19 l70
-18 -115 -7 c-65 -4 -162 -18 -222 -33 l-108 -25 0 -604 0 -603 32 -6 c18 -3
127 -19 242 -35 l209 -30 474 20 475 21 122 -89 121 -90 277 -578 278 -579
168 -246 c93 -135 213 -323 266 -417 l98 -172 38 0 c21 0 145 26 277 58 l238
58 295 235 295 236 1571 393 1571 393 83 109 c45 60 92 114 104 119 12 5 597
146 1301 314 704 168 1287 308 1296 310 8 3 68 73 133 156 65 82 127 154 139
159 16 7 3489 784 3650 817 24 5 27 10 27 43 l0 37 88 -3 c48 -2 465 -9 927
-14 l840 -11 1159 -70 1158 -70 1437 -365 1436 -365 900 -437 899 -437 716
-795 c708 -786 718 -797 941 -992 123 -109 232 -212 242 -230 l17 -33 -185
-439 -185 -440 175 -527 c120 -360 182 -533 197 -545 11 -11 33 -44 49 -75 27
-54 34 -60 146 -125 90 -51 164 -106 312 -232 l193 -165 312 -98 c235 -75 345
-104 451 -122 l140 -23 665 18 665 19 233 60 234 61 76 -22 c43 -13 286 -115
542 -228 l464 -205 495 -361 495 -361 710 -161 711 -161 630 123 630 123 358
242 c197 132 361 239 363 236 3 -3 166 -407 363 -898 l357 -894 90 -3 91 -3
639 -884 638 -885 676 0 675 0 135 -318 136 -317 254 -3 c140 -2 346 0 458 3
l202 7 0 2112 0 2111 183 55 182 56 0 1169 0 1168 -175 73 -175 72 -3 183 -2
183 149 151 150 150 231 787 c126 433 230 794 230 802 0 9 -95 289 -211 623
l-210 608 -421 585 c-231 322 -585 810 -786 1085 l-366 500 -242 508 c-167
352 -256 551 -288 645 -44 133 -46 144 -61 340 l-14 203 50 242 c36 174 74
320 139 526 49 157 88 286 87 287 -1 0 -159 127 -352 281 l-350 280 -1123 391
-1124 392 -1086 249 -1087 249 -740 101 -740 101 -990 79 -990 80 -1210 36
c-665 19 -1599 41 -2075 48 -852 12 -871 12 -1265 -10 -220 -12 -1052 -56
-1850 -98 -797 -41 -1473 -78 -1500 -81 l-50 -5 -38 -72 c-62 -121 -32 -122
-280 12 l-218 119 -617 122 -617 123 -275 18 c-348 23 -460 22 -970 -7z"/>
</g>
</svg>
