<?xml version="1.0" standalone="no"?>
<!DOCTYPE svg PUBLIC "-//W3C//DTD SVG 20010904//EN"
 "http://www.w3.org/TR/2001/REC-SVG-20010904/DTD/svg10.dtd">
<svg version="1.0" xmlns="http://www.w3.org/2000/svg"
   viewBox="0 0 4128.000000 619.000000"
 preserveAspectRatio="xMidYMid meet">
<metadata>
Created by potrace 1.16, written by Peter Selinger 2001-2019
</metadata>
<g transform="translate(0.000000,619.000000) scale(0.100000,-0.100000)"
fill="#000000" stroke="none">
<path d="M5782 6167 c-16 -17 -22 -36 -22 -70 0 -26 -1 -47 -2 -47 -2 -1 -103
-7 -226 -14 -268 -17 -262 -14 -262 -121 l0 -71 -277 -55 -277 -54 -187 -157
-188 -158 -144 0 c-137 0 -144 -1 -165 -23 -12 -13 -22 -35 -22 -50 l0 -27
-245 0 -245 0 0 47 c0 37 -6 53 -27 75 l-27 28 -776 0 -776 0 -32 -33 -32 -33
0 -122 0 -122 -200 0 -200 0 -47 61 -47 61 -66 -6 c-36 -4 -294 -22 -575 -41
-700 -47 -645 -41 -645 -76 0 -26 -3 -29 -35 -29 l-35 0 0 -525 0 -525 35 0
c32 0 35 -2 35 -30 0 -25 4 -30 33 -34 32 -5 1207 -96 1239 -96 9 0 38 27 63
60 l46 60 115 0 114 0 0 -285 0 -285 -192 0 c-222 -1 -225 -2 -246 -86 -12
-47 -10 -68 22 -255 19 -112 40 -249 46 -304 10 -81 16 -103 34 -117 19 -16
78 -18 814 -18 l792 0 0 -165 0 -165 -190 0 -190 0 0 -35 0 -35 -70 0 -70 0 0
-850 0 -850 70 0 70 0 0 -40 0 -40 1333 0 1333 0 32 33 c30 31 32 38 32 105
l0 72 83 0 c45 0 411 -7 812 -15 402 -8 801 -15 888 -15 l157 0 0 -73 c0 -125
-91 -112 870 -131 454 -9 842 -16 863 -16 l37 0 0 -73 c0 -59 4 -77 18 -90 17
-16 87 -17 805 -17 l787 0 0 -43 c0 -84 -93 -77 1062 -77 980 0 1026 1 1041
18 10 11 17 36 17 60 l0 42 163 0 c203 0 202 -1 210 133 3 49 7 91 10 93 7 7
2065 60 2071 53 3 -2 -26 -89 -65 -192 -38 -103 -69 -194 -69 -202 0 -11 13
-15 55 -15 30 0 55 -2 55 -4 0 -2 -7 -20 -16 -41 -8 -20 -14 -53 -12 -73 l3
-37 60 -2 c33 -2 3600 165 7926 370 l7865 374 32 23 c31 23 35 23 1084 71
1020 47 1053 48 1073 30 19 -18 49 -17 980 27 900 42 962 46 988 64 26 19 71
22 640 48 539 24 614 25 629 12 15 -13 302 -1 2415 98 1319 61 2408 114 2421
116 21 4 22 9 22 84 l0 80 -57 0 c-32 0 -274 -9 -538 -20 -264 -11 -492 -20
-506 -20 l-26 0 46 130 46 130 366 0 c201 0 434 3 517 7 l152 6 0 89 0 88
-660 0 -660 0 0 28 c0 15 5 33 12 40 9 9 169 12 660 12 l648 0 0 154 0 154
-307 7 -307 7 -108 72 c-90 59 -108 76 -112 101 -8 47 -29 355 -25 359 4 4
525 -16 752 -29 l107 -5 0 190 c0 145 -3 190 -12 190 -7 0 -1597 90 -3533 199
-3262 185 -3522 198 -3547 184 -24 -15 -66 -14 -520 11 -271 14 -533 29 -582
33 l-88 6 4 63 c2 35 6 65 9 68 2 3 862 -59 1909 -137 l1905 -142 3 39 c2 21
-1 42 -7 45 -11 7 -1749 139 -7170 545 l-3755 281 3 56 c2 40 -2 59 -13 68
-11 9 -557 54 -1843 151 -1590 119 -1830 136 -1844 123 -10 -8 -20 -38 -23
-67 l-7 -53 -42 4 c-23 2 -316 24 -652 49 -1031 75 -1170 86 -1173 93 -1 3
-16 29 -32 58 l-30 52 -817 3 -818 4 -1269 97 c-698 53 -1275 97 -1282 97 -8
0 -14 -10 -14 -21 0 -21 -2 -21 -132 -15 -73 4 -145 9 -160 12 -25 5 -28 3
-28 -20 0 -14 3 -26 8 -26 52 -1 2525 -190 2528 -193 2 -2 -12 -40 -33 -85
l-36 -81 -71 5 c-232 18 -3012 182 -3018 178 -11 -7 -10 -84 4 -262 6 -83 9
-154 7 -157 -3 -2 -155 2 -339 10 -184 8 -338 15 -341 15 -3 0 -63 62 -132
139 l-126 138 -113 7 c-62 4 -159 9 -215 13 l-103 6 0 133 0 134 80 0 c72 0
80 2 80 19 0 18 18 19 408 27 l407 9 -405 11 c-223 6 -406 12 -407 13 -2 0 -3
10 -3 21 0 18 -7 20 -80 20 l-80 0 0 65 0 65 -58 0 -59 0 -11 51 c-7 28 -12
55 -12 60 0 5 108 9 260 9 l260 0 0 50 c0 48 -5 57 -86 168 -48 64 -105 136
-127 160 l-41 42 -953 0 -953 0 -16 40 -16 40 -332 0 -331 0 -95 95 -95 95
-132 0 -133 0 -27 55 -27 55 -1183 0 -1183 0 0 35 0 35 -1293 0 -1294 0 -21
-23z m15113 -1602 c259 -19 541 -40 628 -46 l158 -12 -5 -51 c-3 -28 -8 -85
-11 -127 -6 -75 -7 -77 -56 -125 l-49 -48 -518 28 c-284 15 -519 30 -521 32
-4 4 -171 376 -171 381 0 7 101 1 545 -32z"/>
</g>
</svg>
