<?xml version="1.0" standalone="no"?>
<!DOCTYPE svg PUBLIC "-//W3C//DTD SVG 20010904//EN"
 "http://www.w3.org/TR/2001/REC-SVG-20010904/DTD/svg10.dtd">
<svg version="1.0" xmlns="http://www.w3.org/2000/svg"
   viewBox="0 0 4371.000000 1874.000000"
 preserveAspectRatio="xMidYMid meet">
<metadata>
Created by potrace 1.16, written by Peter Selinger 2001-2019
</metadata>
<g transform="translate(0.000000,1874.000000) scale(0.100000,-0.100000)"
fill="#000000" stroke="none">
<path d="M17151 18699 c-51 -41 -51 -41 -51 -99 0 -93 -6 -101 -113 -150 l-95
-44 -6 -65 c-3 -36 -9 -117 -12 -180 l-7 -114 -204 -151 -203 -150 0 -1071 0
-1070 35 -28 35 -28 0 -388 0 -388 177 -319 c97 -175 178 -326 180 -334 2 -9
-33 -45 -92 -94 -53 -44 -97 -89 -100 -100 -2 -12 -12 -70 -20 -131 -9 -60
-18 -122 -21 -137 l-6 -28 -89 0 c-80 0 -109 -6 -251 -50 -88 -27 -162 -51
-163 -52 -1 -2 -39 -87 -85 -190 -46 -104 -89 -188 -95 -188 -7 0 -194 -20
-415 -45 -221 -25 -406 -45 -410 -45 -4 0 -18 -27 -30 -60 l-22 -60 -133 0
-133 0 -12 -30 c-8 -20 -19 -30 -34 -30 -11 0 -244 -12 -516 -26 l-495 -27
-62 -54 -63 -55 0 -139 0 -139 96 -45 97 -45 118 0 119 0 0 -164 0 -163 -102
-12 c-75 -9 -236 -49 -597 -149 l-494 -137 -17 -45 -18 -45 -561 -3 -561 -2 0
143 0 144 -162 29 -163 28 -71 67 c-43 41 -83 69 -102 74 -26 5 -32 11 -32 34
0 25 -5 28 -87 49 -70 18 -109 22 -193 20 l-105 -3 -15 -42 -14 -43 -72 0
c-94 0 -143 -22 -214 -94 l-54 -56 -816 0 -815 1 -153 197 -152 198 -178 43
c-97 24 -193 47 -213 52 -35 9 -36 10 -117 211 l-82 203 0 131 0 132 90 22 89
22 -96 109 c-53 60 -104 111 -112 113 -9 2 -291 44 -627 92 l-611 88 -33 43
-32 43 -117 0 -116 0 -57 -45 c-85 -66 -92 -64 -176 59 l-72 104 0 287 0 286
-67 -3 -67 -3 -42 -245 c-24 -135 -43 -246 -43 -247 -1 -2 -74 -3 -163 -3
-142 0 -167 -3 -194 -19 -17 -10 -75 -73 -130 -140 -58 -71 -106 -121 -117
-121 -9 0 -107 45 -217 100 l-200 100 -646 0 -646 0 -143 -59 -143 -59 -291
292 -292 292 -83 27 c-61 20 -102 27 -162 27 l-81 0 -94 86 c-146 134 -112
124 -416 124 -162 0 -271 -4 -285 -11 -13 -5 -52 -53 -87 -105 l-65 -94 -60 0
c-43 0 -79 -8 -122 -26 l-62 -26 -118 -188 -117 -187 -211 -7 c-116 -3 -253
-9 -303 -13 l-93 -6 -60 -80 c-33 -44 -60 -87 -60 -94 0 -7 -6 -13 -14 -13
-27 0 -110 -103 -130 -162 -18 -56 -19 -60 -1 -123 15 -56 24 -70 64 -103 25
-21 54 -42 64 -45 15 -6 17 -26 17 -222 0 -174 -3 -215 -14 -215 -27 0 -110
-103 -130 -162 -18 -56 -19 -60 -1 -123 15 -58 23 -70 67 -105 28 -22 57 -40
64 -40 11 0 14 -40 14 -220 0 -173 -3 -220 -13 -220 -26 0 -104 -95 -127 -154
-23 -59 -24 -60 -7 -125 14 -55 24 -73 59 -104 24 -21 53 -42 66 -47 22 -9 22
-11 22 -225 0 -174 -3 -215 -14 -215 -27 0 -110 -103 -130 -162 -18 -55 -18
-60 -2 -122 15 -55 25 -70 66 -105 27 -23 56 -41 64 -41 13 0 16 -15 16 -92
l0 -93 121 -237 122 -238 153 0 153 0 348 -229 348 -228 345 -121 344 -121
118 100 c128 108 112 102 275 114 l72 5 -24 -57 -23 -57 347 -355 346 -354
125 -59 124 -60 340 -31 339 -31 15 -36 c15 -35 42 -144 82 -322 l22 -98 783
0 784 0 10 38 c6 20 24 100 42 177 17 77 36 148 41 158 8 15 28 17 207 17 193
0 204 1 345 35 l147 35 800 0 799 0 69 34 68 35 32 -43 32 -43 262 -62 262
-62 416 1 417 0 68 25 c126 47 122 44 138 93 27 78 27 77 -81 100 l-98 20 308
1 307 1 0 -83 0 -83 58 -41 c58 -41 64 -43 319 -92 194 -38 283 -51 350 -51
l89 0 45 -130 44 -130 41 0 c24 0 44 5 47 13 2 6 17 81 33 166 l28 154 58 75
58 76 0 103 0 103 33 0 c30 0 35 -5 65 -66 19 -37 49 -92 69 -123 19 -30 41
-73 47 -95 l12 -40 319 -83 320 -83 355 0 355 0 47 -87 c71 -130 74 -132 395
-203 720 -158 737 -161 795 -149 30 6 73 26 100 45 l46 33 52 -37 c48 -34 55
-46 104 -157 84 -195 88 -198 364 -348 130 -70 331 -178 446 -239 l210 -112
143 -4 144 -5 192 -86 192 -87 21 -194 22 -195 -48 -55 c-72 -83 -76 -85 -197
-110 -62 -13 -113 -25 -113 -27 0 -4 30 -127 50 -204 l10 -35 110 -19 111 -18
55 -102 56 -103 139 -71 139 -72 0 -239 0 -239 49 -124 49 -124 16 -214 c9
-118 19 -230 22 -249 l5 -35 -146 -72 -145 -73 0 -378 0 -377 -105 -58 -105
-59 0 -1107 0 -1107 234 -158 233 -159 7 -81 c3 -45 9 -126 12 -180 l7 -99
108 -51 109 -51 0 -101 0 -102 57 -51 57 -51 100 98 c56 53 271 259 479 456
l377 359 0 628 0 629 83 65 c45 37 96 73 112 80 17 8 127 35 245 60 118 26
215 47 216 48 0 1 58 169 127 372 l127 370 0 145 -1 145 -119 104 c-113 99
-118 106 -113 135 4 17 23 119 43 226 l36 195 271 80 c150 44 274 83 277 86 3
3 19 70 35 150 16 79 33 145 39 147 5 1 33 17 63 35 50 30 55 36 63 80 l8 49
-46 47 -47 47 68 90 68 89 5 154 5 154 283 66 282 65 0 146 0 146 -63 62 -63
62 -164 47 c-91 25 -166 47 -168 48 -1 1 28 52 65 113 l68 111 135 33 135 34
3 226 2 226 33 7 c17 4 192 51 388 106 l355 99 600 0 600 0 320 98 319 99 3
76 3 77 363 0 362 0 85 -105 c46 -58 91 -107 99 -109 8 -3 90 -19 183 -36 141
-26 176 -36 226 -65 l59 -35 249 0 248 0 28 35 28 35 1104 0 1104 0 222 -260
223 -260 392 0 391 0 28 -40 28 -40 188 0 189 0 0 -22 c0 -20 20 -32 125 -81
94 -43 223 -87 513 -174 l387 -117 216 -221 c161 -164 226 -224 255 -234 22
-8 85 -32 142 -53 l102 -40 0 -72 c0 -64 3 -76 34 -121 l33 -50 499 -188 499
-187 252 0 251 0 31 -42 c19 -26 49 -97 78 -187 l48 -144 122 -111 123 -111
147 -47 148 -46 10 31 c10 31 12 32 56 29 44 -3 50 -7 113 -76 l66 -74 12
-142 c8 -101 16 -144 25 -147 8 -3 16 -3 19 0 3 3 14 78 25 167 10 89 22 167
26 173 4 6 9 56 13 111 l5 100 109 95 110 96 189 5 190 5 38 123 c38 121 39
123 138 246 56 69 109 127 118 130 10 3 234 49 498 102 l480 96 53 51 c49 49
52 54 52 103 l0 51 343 68 342 68 52 51 52 51 11 120 c5 66 13 144 16 173 l5
52 840 -2 840 -3 82 -178 82 -178 35 5 c98 14 770 69 776 63 3 -3 9 -35 11
-71 5 -56 9 -66 25 -66 10 0 168 20 351 45 l332 45 388 124 c214 69 390 126
391 128 2 1 71 94 155 205 l152 201 332 172 c311 161 349 178 599 266 147 52
269 94 272 94 3 0 6 -69 6 -154 l0 -154 25 -6 c13 -3 227 -62 475 -131 248
-69 457 -125 463 -125 7 -1 208 41 448 91 l435 92 176 446 175 446 -18 160
c-10 88 -14 162 -9 165 4 3 16 35 26 71 17 64 17 70 0 133 -12 45 -26 73 -43
86 -34 27 -42 100 -43 385 l0 230 34 27 c26 21 37 41 52 94 17 64 17 69 0 133
-14 51 -25 72 -52 94 l-34 28 0 252 0 252 34 27 c26 21 37 41 52 94 17 64 17
69 0 133 -14 51 -25 72 -52 94 l-34 28 0 245 0 245 34 29 c26 23 38 46 52 96
17 63 17 69 0 131 -17 65 -44 99 -116 145 -16 11 -32 34 -39 57 -9 33 -25 49
-94 98 l-82 58 -475 147 c-429 133 -543 164 -1172 314 l-697 168 -56 80 -55
80 -958 183 c-870 166 -1021 192 -1654 284 l-698 101 -61 -34 -62 -34 -169 25
-168 25 -48 -46 -47 -45 -390 23 c-214 13 -411 23 -436 24 l-45 0 -134 -198
-135 -198 -240 -28 c-132 -15 -274 -30 -315 -33 l-76 -6 -207 108 -207 108 0
210 0 209 -40 15 c-22 9 -42 23 -44 32 -36 120 -65 294 -71 424 l-8 147 -28 0
c-16 0 -29 -6 -30 -12 -13 -266 -17 -294 -43 -348 -25 -53 -26 -62 -26 -222
l0 -168 -126 -175 -125 -175 -55 0 -54 0 0 275 c0 226 -4 301 -20 413 -27 182
-27 182 -49 182 -16 0 -18 -14 -24 -147 l-7 -147 -50 -51 -50 -51 0 -242 0
-242 -34 -68 c-31 -61 -44 -75 -153 -158 l-119 -91 -108 -12 c-120 -12 -126
-14 -126 -41 0 -12 20 -29 60 -51 32 -18 58 -35 56 -37 -2 -2 -127 -9 -278
-16 l-275 -14 -309 -118 -309 -118 -475 33 c-261 18 -548 36 -638 39 l-163 5
-200 278 c-111 154 -202 279 -203 279 -2 0 -56 16 -122 35 l-119 35 -393 0
-394 0 -39 -31 c-33 -26 -39 -36 -39 -70 l0 -39 -156 0 -156 0 -50 41 -49 42
-612 129 c-856 180 -1750 329 -2642 443 l-650 82 -60 65 c-33 36 -170 147
-305 249 l-245 185 -180 62 c-164 56 -228 71 -708 166 l-528 104 -96 88 c-52
49 -96 93 -96 99 0 5 38 33 84 61 87 52 95 63 98 135 1 24 -11 34 -101 87 -88
52 -131 69 -293 117 -137 41 -212 69 -267 101 l-77 44 -211 0 -211 0 -104 -85
c-115 -95 -103 -75 -157 -278 -20 -77 -26 -89 -48 -93 -60 -14 -59 -13 -49
-47 5 -17 9 -32 9 -32 0 0 -183 10 -407 22 -225 12 -424 22 -443 22 l-35 1
-125 274 -125 274 -132 47 c-73 26 -137 53 -142 59 -4 6 -21 59 -37 118 l-29
106 -359 96 -360 95 -116 80 -117 80 -269 51 c-148 27 -281 53 -296 56 l-28 6
0 192 0 192 228 53 c125 29 235 55 245 57 16 5 17 25 17 239 l0 233 -107 25
c-60 14 -195 45 -300 68 l-193 43 0 127 0 126 117 7 c65 4 119 9 122 11 2 3
-24 114 -59 247 -56 218 -72 265 -157 458 -52 118 -98 219 -102 223 -5 5 -96
30 -202 56 l-194 46 -3 322 -2 321 -457 374 c-252 205 -467 381 -479 390 -21
17 -23 17 -73 -23z"/>
</g>
</svg>
