<?xml version="1.0" standalone="no"?>
<!DOCTYPE svg PUBLIC "-//W3C//DTD SVG 20010904//EN"
 "http://www.w3.org/TR/2001/REC-SVG-20010904/DTD/svg10.dtd">
<svg version="1.0" xmlns="http://www.w3.org/2000/svg"
   viewBox="0 0 4347.000000 2043.000000"
 preserveAspectRatio="xMidYMid meet">
<metadata>
Created by potrace 1.16, written by Peter Selinger 2001-2019
</metadata>
<g transform="translate(0.000000,2043.000000) scale(0.100000,-0.100000)"
fill="#000000" stroke="none">
<path d="M15001 20170 l-443 -260 -481 0 -480 0 -371 -171 -371 -172 -1100 12
c-662 7 -1104 16 -1110 22 -5 5 -760 9 -2000 9 l-1990 0 -287 -359 -286 -359
-79 -16 c-105 -23 -101 -21 -120 -61 l-17 -35 -240 0 -241 0 -145 280 -145
280 -1109 0 -1108 0 -842 -246 -841 -245 -68 -67 -67 -66 0 -277 0 -276 -122
-32 c-68 -17 -158 -41 -200 -53 l-78 -20 0 -438 0 -437 -313 -62 c-171 -34
-320 -64 -330 -67 -16 -5 -17 -32 -15 -432 l3 -426 490 -82 490 -82 38 36 37
36 0 -145 0 -146 125 -474 c69 -261 129 -484 134 -495 7 -17 22 -23 68 -29 58
-7 1949 -321 1988 -330 16 -3 33 -33 67 -117 l46 -113 88 -62 89 -62 492 -1
492 0 12 -35 c10 -27 29 -45 77 -75 l63 -40 390 0 390 0 762 -250 c419 -138
765 -254 768 -258 4 -4 97 -136 209 -294 l202 -287 126 -50 c70 -27 464 -182
875 -345 l748 -296 935 0 934 0 -2 -96 -3 -96 1110 -324 c611 -178 1117 -327
1125 -332 8 -5 24 -50 36 -101 l21 -91 -42 -19 c-24 -10 -60 -25 -80 -32 -27
-10 -76 -54 -167 -149 -70 -74 -128 -141 -128 -150 0 -8 79 -401 175 -873
l174 -857 201 -225 201 -225 194 0 194 0 11 -42 c6 -24 20 -77 31 -118 l21
-75 331 -332 332 -333 302 0 303 0 0 -185 0 -185 30 -53 30 -54 0 -866 0 -867
243 0 242 1 55 89 55 89 3 -37 c3 -37 6 -38 256 -200 l253 -162 589 0 589 0
17 30 c11 20 25 30 40 30 13 0 176 9 363 20 267 16 353 24 400 40 58 18 116
19 1538 26 l1477 7 0 43 c0 24 -1 44 -2 45 -2 0 -650 13 -1441 28 l-1438 28
-27 26 c-16 15 -51 35 -78 44 l-50 18 68 215 c37 118 75 239 84 268 l15 52
107 0 107 0 64 -50 65 -50 161 0 161 0 844 438 c465 240 850 440 856 444 6 4
53 82 103 172 l91 165 0 196 0 195 358 0 357 0 358 -129 c197 -71 359 -130
361 -132 6 -9 336 -647 336 -652 0 -2 -99 -217 -220 -477 -121 -260 -220 -478
-220 -484 0 -6 141 -227 313 -491 l314 -480 663 -5 664 -5 92 -214 92 -214
-62 -97 c-55 -89 -77 -113 -234 -251 -95 -84 -172 -158 -170 -164 2 -6 144
-260 317 -564 211 -371 321 -555 335 -561 12 -4 558 -139 1213 -299 l1193
-292 320 245 320 246 1299 0 1300 0 208 -195 207 -195 266 -585 265 -585 792
-575 792 -575 363 0 363 0 183 365 182 365 1727 0 1728 0 450 -335 450 -335
751 0 751 0 174 296 c96 163 173 302 171 308 -1 6 -68 188 -148 403 l-145 393
177 340 c97 187 178 340 181 340 16 0 2820 -211 2871 -216 l62 -6 0 111 c0
107 -1 111 -22 115 -21 5 -2742 276 -2761 276 -5 0 23 62 63 137 l71 137 33
185 c20 109 30 194 26 206 -4 11 -405 643 -890 1405 -486 762 -1054 1655
-1263 1985 -209 330 -408 643 -443 696 -97 150 -95 127 -14 223 l70 83 0 207
0 206 -719 898 -718 899 -254 87 c-140 47 -517 176 -839 285 l-585 198 -587
749 c-323 412 -587 751 -587 754 0 3 85 104 189 225 l189 220 1 201 0 200
-1828 2260 -1827 2259 -373 228 -372 227 -928 196 c-510 107 -935 197 -944
200 -10 3 -86 80 -169 172 l-151 167 -583 126 -583 125 -58 50 c-32 27 -366
315 -741 640 l-683 590 -948 178 c-521 97 -952 177 -959 176 -6 0 -366 -255
-799 -568 l-787 -567 -551 57 -551 58 -102 -36 c-56 -20 -107 -34 -112 -32 -5
1 -106 96 -223 209 -118 114 -223 209 -234 212 -10 3 -269 70 -574 148 l-555
142 -137 119 c-75 65 -147 122 -160 128 -13 6 -322 89 -688 185 l-665 175
-850 0 -850 0 -444 -260z"/>
</g>
</svg>
