<?xml version="1.0" standalone="no"?>
<!DOCTYPE svg PUBLIC "-//W3C//DTD SVG 20010904//EN"
 "http://www.w3.org/TR/2001/REC-SVG-20010904/DTD/svg10.dtd">
<svg version="1.0" xmlns="http://www.w3.org/2000/svg"
   viewBox="0 0 4419.000000 1089.000000"
 preserveAspectRatio="xMidYMid meet">
<metadata>
Created by potrace 1.16, written by Peter Selinger 2001-2019
</metadata>
<g transform="translate(0.000000,1089.000000) scale(0.100000,-0.100000)"
fill="#000000" stroke="none">
<path d="M11513 10765 l-88 -124 -440 -1 c-357 0 -783 -13 -2260 -70 -1001
-38 -2052 -77 -2335 -86 l-515 -17 -435 81 c-239 45 -436 80 -438 77 -2 -2 -8
-23 -13 -46 -8 -32 -7 -45 3 -54 7 -7 94 -37 193 -66 l180 -54 -60 -2 c-33 -2
-820 14 -1750 35 l-1690 38 -75 -67 -76 -68 -169 -15 c-117 -10 -356 -48 -765
-121 -327 -58 -603 -108 -612 -111 -14 -4 -17 -22 -21 -112 -2 -59 -29 -426
-60 -817 -88 -1118 -85 -1064 -67 -1070 24 -6 936 -244 1814 -472 l799 -208
336 -1445 336 -1445 55 -7 c30 -4 514 -42 1075 -84 l1020 -77 195 27 195 27
798 -1 c712 0 801 -2 829 -16 28 -15 32 -15 40 0 15 27 58 19 92 -18 l31 -34
715 -162 c393 -89 735 -167 759 -172 34 -9 72 -36 176 -127 l132 -116 898
-305 c785 -266 894 -306 864 -312 -19 -4 -380 -56 -803 -115 l-769 -107 -118
20 -117 20 -6 -38 c-3 -21 -8 -38 -11 -38 -8 0 -5910 -829 -5943 -835 -26 -5
-32 -11 -32 -30 0 -29 0 -29 -158 -50 -145 -19 -152 -19 -152 3 0 30 -8 31
-71 10 -46 -15 -59 -24 -55 -37 2 -9 8 -40 11 -69 l7 -52 64 0 c64 0 65 0 62
27 l-3 27 153 21 c84 12 155 19 157 16 3 -2 5 -15 5 -27 0 -20 4 -23 28 -19
15 3 1419 201 3120 440 l3092 434 2498 -469 c1373 -258 2500 -465 2505 -461 4
4 13 42 19 84 14 83 10 81 75 56 19 -7 21 -12 12 -41 -5 -18 -9 -47 -9 -65 0
-30 5 -34 88 -75 48 -25 535 -282 1082 -573 547 -291 1013 -535 1035 -543 29
-11 357 -31 1235 -76 l1195 -62 442 -231 441 -232 228 -30 227 -31 1806 20
1806 21 1805 75 1805 74 2175 165 c2021 153 2245 172 3160 266 894 91 1000
100 1148 97 174 -3 182 -6 182 -56 0 -22 2 -23 63 -17 34 4 80 11 102 17 26 7
40 7 43 0 1 -5 11 -8 20 -6 9 1 33 5 53 9 34 5 38 10 58 65 25 68 18 64 164
78 54 5 99 11 101 13 2 2 0 33 -4 69 -4 36 -6 66 -6 67 1 0 188 24 416 52 228
29 427 54 442 57 21 4 30 14 37 39 5 19 7 43 4 54 -6 24 -18 25 -543 47 -206
9 -378 19 -381 22 -4 4 -10 41 -14 83 l-6 77 63 6 c35 3 223 17 418 31 488 34
460 30 460 64 0 17 -13 42 -32 64 l-33 37 -455 66 c-250 36 -456 67 -458 68
-1 2 -18 133 -37 291 -18 158 -35 288 -37 289 -2 2 -455 83 -1008 180 -553 98
-1952 355 -3110 571 l-2105 393 -1720 430 -1720 431 -2065 376 -2065 377 -985
39 c-541 21 -1015 40 -1052 41 l-68 3 56 85 c31 47 57 86 58 87 1 0 181 25
401 53 l400 53 336 -7 c185 -3 343 -8 352 -12 8 -3 23 -35 33 -75 10 -38 21
-74 25 -81 5 -8 75 -8 280 1 151 7 275 14 278 16 2 2 6 36 9 74 l5 70 286 -5
c157 -2 787 -9 1400 -15 l1114 -10 267 -125 266 -124 206 0 206 0 694 114 693
114 1325 -13 c729 -8 1360 -14 1403 -15 68 0 77 -2 77 -18 0 -11 8 -26 18 -35
15 -14 86 -16 632 -18 l615 -2 10 32 c6 20 18 34 32 37 23 6 23 8 23 174 0
152 -2 169 -17 173 -10 2 14 2 52 0 39 -3 1013 -69 2165 -147 l2095 -142 1475
53 c811 28 1496 52 1523 52 l47 1 0 60 c0 33 -1 60 -2 61 -2 0 -681 47 -1511
103 l-1508 103 -274 124 c-151 68 -275 129 -275 134 0 37 -6 37 957 -19 l941
-53 799 218 798 217 1208 -90 1209 -89 791 240 c436 132 1136 342 1557 467
421 124 772 230 781 235 8 4 26 35 40 69 19 48 40 77 99 134 l75 73 195 12
c107 6 225 15 263 18 l67 6 -2 166 -3 165 -245 39 c-244 39 -245 39 -365 95
-111 51 -130 57 -248 72 -124 16 -128 16 -145 -3 -9 -11 -29 -28 -44 -38 -27
-20 -29 -19 -347 18 l-320 37 -138 -22 c-135 -22 -142 -22 -293 -7 -85 9
-1235 128 -2555 265 l-2400 250 -843 144 c-807 139 -850 147 -985 194 -78 27
-266 79 -417 116 l-275 68 -58 61 -57 62 -298 32 c-163 18 -430 46 -592 63
-162 17 -846 89 -1520 161 -674 72 -1238 128 -1254 126 -37 -5 -1037 98 -1091
113 -22 6 -830 94 -1795 196 -1514 160 -1780 186 -1934 188 l-178 1 -26 -33
c-30 -39 -21 -51 38 -52 58 -2 117 -15 98 -22 -9 -4 -126 5 -260 19 -200 21
-246 28 -258 43 -10 12 -52 24 -137 39 -119 20 -123 22 -160 61 l-38 41 -1785
190 c-1591 169 -1804 190 -1964 191 l-178 1 -25 -32 c-13 -17 -22 -35 -19 -40
3 -4 42 -12 86 -15 l81 -7 -27 -26 -27 -25 -1051 81 c-768 58 -1126 82 -1331
87 l-280 6 -65 58 -66 58 -1253 72 -1254 71 -19 25 -19 24 -2124 0 -2124 0
-88 -125z m17312 -4965 c259 -17 481 -33 494 -36 22 -5 22 -6 7 -23 -9 -10
-16 -24 -16 -32 0 -12 -76 -14 -522 -11 -287 2 -524 5 -527 7 -2 3 6 31 19 65
20 52 26 60 49 60 14 0 238 -13 496 -30z m-5472 -47 c-13 -2 -33 -2 -45 0 -13
2 -3 4 22 4 25 0 35 -2 23 -4z m6090 0 c-18 -2 -48 -2 -65 0 -18 2 -4 4 32 4
36 0 50 -2 33 -4z m400 -60 c-7 -2 -19 -2 -25 0 -7 3 -2 5 12 5 14 0 19 -2 13
-5z m630 -10 c-18 -2 -48 -2 -65 0 -18 2 -4 4 32 4 36 0 50 -2 33 -4z m-600
-360 c-13 -2 -33 -2 -45 0 -13 2 -3 4 22 4 25 0 35 -2 23 -4z m550 -10 c-72
-2 -194 -2 -270 0 -76 1 -16 3 132 3 149 0 211 -2 138 -3z m-18646 -2350 l172
-58 3 -59 c3 -58 4 -60 38 -72 l35 -12 -45 -1 c-25 0 -373 24 -775 52 l-730
53 530 76 c292 41 546 76 565 77 20 1 109 -23 207 -56z"/>
</g>
</svg>
