<?xml version="1.0" standalone="no"?>
<!DOCTYPE svg PUBLIC "-//W3C//DTD SVG 20010904//EN"
 "http://www.w3.org/TR/2001/REC-SVG-20010904/DTD/svg10.dtd">
<svg version="1.0" xmlns="http://www.w3.org/2000/svg"
   viewBox="0 0 2624.000000 4328.000000"
 preserveAspectRatio="xMidYMid meet">
<metadata>
Created by potrace 1.16, written by Peter Selinger 2001-2019
</metadata>
<g transform="translate(0.000000,4328.000000) scale(0.100000,-0.100000)"
fill="#000000" stroke="none">
<path d="M17921 43238 l-1883 -40 -572 -413 -572 -413 -1053 -1679 -1054
-1678 -62 -635 c-34 -349 -111 -1106 -171 -1681 l-108 -1046 -285 -6 c-156 -4
-462 -7 -679 -7 l-394 0 -921 -276 -922 -276 -795 -315 c-437 -174 -798 -318
-802 -322 -3 -3 -2 -82 3 -174 l9 -168 156 -437 c85 -240 163 -459 173 -487
36 -97 292 -919 511 -1638 201 -660 228 -741 291 -875 79 -167 222 -413 250
-431 11 -6 116 -22 235 -36 119 -13 217 -25 218 -27 0 -2 -1 -1029 -4 -2283
-5 -1726 -9 -2325 -19 -2464 l-13 -184 -264 -516 -264 -516 -626 -505 c-344
-278 -633 -511 -643 -518 -11 -7 -459 -146 -998 -307 -538 -162 -987 -299
-998 -304 -11 -4 -225 -161 -476 -347 -437 -325 -461 -345 -607 -495 l-152
-156 -236 -729 -236 -729 -89 -690 c-49 -379 -124 -980 -168 -1335 l-80 -645
-120 -534 c-67 -293 -126 -541 -133 -550 -7 -9 -101 -115 -208 -236 -108 -121
-225 -256 -260 -300 -36 -45 -132 -157 -214 -251 l-149 -171 -546 -6 c-300 -4
-861 -7 -1247 -7 l-701 0 -6 -852 c-4 -566 -12 -948 -22 -1135 -14 -250 -14
-288 -1 -340 11 -41 17 -144 21 -358 l7 -300 39 -107 38 -108 302 -372 302
-373 -6 -1195 c-4 -657 -10 -2366 -14 -3797 l-6 -2601 54 -6 c30 -2 832 -15
1784 -27 l1730 -22 195 -152 195 -151 395 -201 c217 -110 1750 -874 3406
-1697 l3011 -1497 284 -50 284 -49 2201 0 2202 1 223 29 c208 27 232 32 344
75 66 26 199 75 296 111 196 71 555 231 605 269 l33 25 313 0 313 0 224 51
223 52 271 139 270 139 231 209 231 209 148 265 147 264 0 397 0 397 28 37
c68 87 351 569 447 760 87 174 86 168 111 488 23 290 24 295 89 570 37 153
289 1068 560 2033 l494 1755 291 1745 c164 985 296 1750 303 1756 7 6 185 161
397 344 212 183 502 441 645 574 256 238 264 244 504 401 284 187 278 180 369
413 l57 144 115 61 116 61 76 127 76 126 12 135 12 134 -57 115 -58 114 26
105 c14 58 31 146 38 196 l12 92 -178 333 c-198 371 -188 331 -114 419 l37 45
5 200 4 200 52 210 c29 116 169 748 312 1405 l260 1195 150 1815 149 1815 23
1430 22 1431 79 134 c44 74 97 166 119 203 l39 68 -107 302 c-344 970 -682
1904 -718 1982 -22 50 -109 198 -194 330 -126 198 -180 271 -308 420 -85 99
-151 183 -147 186 4 4 126 62 272 130 l265 122 247 53 c240 51 250 54 330 102
46 27 209 118 363 202 154 84 285 158 292 164 10 9 7 70 -12 284 -14 151 -28
279 -32 285 -3 7 -93 130 -200 273 l-193 261 -223 98 c-122 54 -301 126 -397
160 l-175 63 -230 343 -230 343 -205 88 -205 89 -990 220 c-544 121 -998 223
-1008 227 -15 6 3 40 129 247 l147 240 184 588 183 588 -20 987 -20 987 -195
885 c-107 487 -246 1117 -309 1400 l-115 515 183 337 184 337 -208 909 -209
909 -378 529 -379 529 -565 367 -564 368 -185 -1 c-102 -1 -1033 -19 -2069
-41z"/>
</g>
</svg>
