<?xml version="1.0" standalone="no"?>
<!DOCTYPE svg PUBLIC "-//W3C//DTD SVG 20010904//EN"
 "http://www.w3.org/TR/2001/REC-SVG-20010904/DTD/svg10.dtd">
<svg version="1.0" xmlns="http://www.w3.org/2000/svg"
   viewBox="0 0 3322.000000 814.000000"
 preserveAspectRatio="xMidYMid meet">
<metadata>
Created by potrace 1.16, written by Peter Selinger 2001-2019
</metadata>
<g transform="translate(0.000000,814.000000) scale(0.100000,-0.100000)"
fill="#000000" stroke="none">
<path d="M6720 7995 l-235 -145 -270 0 -270 0 -136 -165 -136 -164 -7 -153
c-4 -84 -9 -179 -13 -210 l-6 -58 -381 0 -381 0 -455 -165 c-250 -91 -499
-182 -552 -202 l-98 -35 0 -189 0 -189 -95 0 -95 0 0 35 0 35 -195 0 -195 0 0
55 0 55 -340 0 -340 0 0 -55 c0 -52 -1 -55 -25 -55 -22 0 -25 -4 -25 -35 l0
-35 -300 0 -300 0 0 -90 c0 -88 -1 -90 -23 -90 -16 0 -28 9 -35 25 -7 14 -23
30 -37 35 -24 9 -25 12 -25 108 0 55 3 133 6 174 l7 74 302 89 c167 48 309 91
315 95 13 8 8 42 -9 69 -10 15 -30 9 -1304 -365 l-659 -193 -134 -86 -134 -87
0 -195 c0 -119 4 -202 11 -214 10 -20 17 -20 157 -14 l147 6 125 -40 125 -41
503 -22 504 -22 79 21 79 21 0 -219 c0 -121 -2 -219 -5 -219 -3 0 -298 -85
-656 -189 l-650 -190 -275 -143 -274 -143 0 -345 c0 -190 -3 -368 -6 -396 l-6
-51 232 -136 c128 -75 251 -142 274 -148 l41 -12 -40 -14 c-32 -12 -71 -13
-192 -8 -145 6 -152 5 -162 -14 -7 -12 -11 -97 -11 -221 l0 -201 132 -86 133
-87 980 -287 980 -287 12 27 c18 38 16 69 -4 75 -112 33 -538 157 -569 165
l-41 11 -7 76 c-3 43 -6 119 -6 171 0 90 1 94 24 103 14 5 30 18 36 30 6 12
21 20 35 20 25 0 25 -1 25 -85 l0 -85 300 0 300 0 0 -25 c0 -20 5 -25 25 -25
24 0 25 -2 25 -65 l0 -65 340 0 340 0 0 65 0 65 195 0 195 0 0 25 c0 25 0 25
95 25 l95 0 0 -78 0 -78 555 -222 555 -222 128 0 127 -1 135 -124 135 -125
465 0 466 0 87 -50 87 -50 216 0 215 0 91 -61 c86 -58 96 -62 172 -71 53 -6
87 -15 101 -27 11 -10 82 -70 157 -134 l137 -117 2061 0 2060 0 70 35 c67 34
74 35 177 35 79 -1 113 -5 127 -15 30 -23 1437 -22 1456 0 19 22 571 22 590 0
11 -13 104 -15 730 -15 626 0 719 2 730 15 11 13 55 15 285 15 230 0 274 -2
285 -15 19 -22 1426 -23 1456 0 13 10 46 14 114 15 52 0 358 16 680 35 322 19
600 35 618 35 30 0 35 5 49 40 l16 40 504 0 505 0 211 205 212 205 510 0 510
0 431 298 c236 164 572 407 746 540 l317 242 855 0 856 0 767 -236 c423 -129
980 -301 1238 -381 l470 -145 361 -249 361 -248 1102 -96 c606 -52 1118 -95
1139 -95 20 0 169 42 330 94 229 73 300 100 322 121 17 16 35 25 44 22 8 -3
97 -61 198 -128 572 -381 859 -599 1221 -922 163 -146 205 -192 435 -467 204
-245 259 -304 276 -302 16 3 164 65 184 78 2 1 -92 186 -209 411 l-213 408
-283 377 -283 378 -35 124 -35 125 24 56 c24 54 26 55 53 44 20 -8 69 -8 173
1 80 6 178 12 218 13 l73 2 -152 220 c-83 121 -266 387 -405 590 l-254 370
-248 267 c-244 262 -252 270 -578 536 -181 148 -490 388 -685 534 -323 240
-393 287 -791 531 -403 246 -480 288 -970 536 l-533 270 -630 251 c-729 292
-1277 487 -2285 817 l-685 224 -1050 214 -1050 215 -1200 150 -1200 150 -1180
57 -1180 56 -3700 4 -3700 5 -60 36 c-50 29 -82 39 -195 58 l-135 24 -1440 0
-1440 0 -235 -145z m-4203 -1671 c-3 -3 -12 -4 -19 -1 -8 3 -5 6 6 6 11 1 17
-2 13 -5z m791 -1 c-21 -2 -55 -2 -75 0 -21 2 -4 4 37 4 41 0 58 -2 38 -4z"/>
</g>
</svg>
