<?xml version="1.0" standalone="no"?>
<!DOCTYPE svg PUBLIC "-//W3C//DTD SVG 20010904//EN"
 "http://www.w3.org/TR/2001/REC-SVG-20010904/DTD/svg10.dtd">
<svg version="1.0" xmlns="http://www.w3.org/2000/svg"
   viewBox="0 0 4027.000000 1717.000000"
 preserveAspectRatio="xMidYMid meet">
<metadata>
Created by potrace 1.16, written by Peter Selinger 2001-2019
</metadata>
<g transform="translate(0.000000,1717.000000) scale(0.100000,-0.100000)"
fill="#000000" stroke="none">
<path d="M12365 17159 c-203 -3 -444 -7 -536 -8 l-165 -1 -136 -392 -135 -393
-73 -520 -72 -520 50 -105 50 -105 -326 -3 c-326 -2 -329 -2 -937 53 l-610 55
-705 115 c-753 123 -849 140 -893 157 -33 13 -56 45 -243 344 -95 152 -172
291 -251 454 l-113 235 -233 168 c-187 136 -262 184 -389 248 l-158 79 -2780
0 c-1529 0 -2780 -3 -2780 -7 1 -5 9 -45 18 -89 l17 -82 255 -212 c158 -131
379 -331 580 -524 l326 -311 -826 -2 -825 -3 -237 -92 c-131 -51 -238 -95
-238 -98 0 -4 77 -78 171 -165 94 -88 187 -182 207 -210 20 -27 91 -106 158
-175 l122 -125 401 -844 402 -843 44 -327 c59 -439 82 -846 56 -995 l-17 -97
23 -5 c21 -6 24 -11 21 -51 l-3 -45 -102 -55 -103 -55 0 -119 c0 -65 2 -119 6
-119 3 0 132 -34 287 -76 239 -64 413 -100 1147 -239 476 -90 880 -167 898
-171 21 -4 32 -12 32 -24 0 -9 -20 -336 -45 -725 -25 -390 -43 -711 -40 -714
3 -3 95 -31 203 -63 l197 -58 690 -45 c380 -25 704 -45 721 -45 26 0 82 -40
317 -230 157 -126 288 -234 291 -238 3 -5 -27 -19 -67 -31 -40 -13 -231 -75
-424 -138 l-353 -116 -5 -31 c-3 -17 7 -98 23 -179 l29 -148 -54 -81 c-50 -77
-53 -85 -53 -144 0 -60 73 -367 114 -481 14 -39 14 -43 0 -43 -16 0 -16 -4 15
-90 9 -25 22 -45 30 -45 8 0 28 -42 51 -105 68 -192 138 -355 180 -423 41 -64
43 -66 123 -96 45 -17 88 -34 96 -39 7 -4 35 -57 62 -117 48 -106 81 -155 104
-155 7 0 438 140 959 310 521 171 953 310 959 310 7 0 158 -227 337 -505 l325
-504 1247 -781 c686 -429 1254 -783 1262 -786 8 -3 257 -59 552 -124 l537
-118 1151 103 c633 58 1175 107 1203 110 l53 6 2 530 3 529 997 -792 998 -793
363 -143 c343 -134 366 -142 432 -142 l70 0 166 -313 c91 -171 297 -584 458
-917 277 -572 299 -614 405 -766 l111 -162 660 -231 661 -231 3112 -340 c2989
-326 4646 -502 4912 -520 124 -8 131 -7 663 70 296 42 542 81 546 86 5 5 173
409 375 898 231 560 363 892 356 896 -6 3 -53 14 -105 24 -52 10 -95 22 -95
26 0 4 27 133 60 287 33 153 60 281 60 286 0 4 50 7 110 7 l110 0 0 205 0 205
23 -5 c12 -2 137 -21 277 -41 140 -19 331 -49 425 -65 93 -16 173 -25 178 -20
4 4 -15 34 -43 65 l-52 56 81 0 81 0 0 42 c0 24 -66 427 -146 896 -80 470
-144 855 -142 857 2 2 379 7 839 11 l835 7 39 58 40 59 124 0 124 0 35 -41 36
-41 1490 7 1491 7 129 44 128 44 445 0 444 0 74 50 c41 28 75 52 75 54 0 2
-35 27 -78 55 l-78 51 -447 0 -447 0 -117 40 -117 41 -1495 10 -1495 10 -34
-40 -34 -41 -127 0 -128 0 -38 55 -37 55 -112 1 c-61 1 -365 5 -676 8 l-564 6
-59 408 c-33 224 -57 411 -53 414 4 4 302 12 664 18 l657 10 36 -23 35 -22
1110 31 1109 31 38 26 39 26 -34 28 c-19 16 -45 28 -63 28 -16 0 -518 16
-1114 35 l-1084 35 -34 -26 -34 -25 -677 12 c-372 7 -680 16 -683 21 -7 10
-32 198 -27 203 2 1 817 16 1813 33 l1809 30 21 24 c11 13 27 33 35 45 15 21
19 22 1210 57 l1195 35 52 -57 51 -56 1474 73 c810 40 1517 75 1571 78 l98 6
69 54 c39 30 70 58 70 61 0 4 -32 32 -71 62 l-72 54 -1568 70 -1569 70 -53
-50 -52 -51 -1195 33 c-657 18 -1196 33 -1197 33 -1 1 -15 23 -32 50 -30 49
-30 49 -93 55 -35 3 -920 14 -1968 26 -2095 22 -2442 28 -2367 43 27 5 47 15
47 22 0 7 -23 113 -50 236 -48 209 -56 235 -128 392 l-76 168 -825 950 -825
951 -1171 897 c-643 494 -1771 1347 -2505 1896 -1205 901 -1414 1053 -2151
1565 l-816 567 -879 450 c-483 248 -916 469 -961 492 l-82 41 -213 -29 -213
-29 -545 75 -545 75 -1420 344 -1420 345 -1174 230 c-1034 202 -1185 229
-1260 227 -47 -1 -252 -5 -456 -9z"/>
</g>
</svg>
