<?xml version="1.0" standalone="no"?>
<!DOCTYPE svg PUBLIC "-//W3C//DTD SVG 20010904//EN"
 "http://www.w3.org/TR/2001/REC-SVG-20010904/DTD/svg10.dtd">
<svg version="1.0" xmlns="http://www.w3.org/2000/svg"
   viewBox="0 0 4309.000000 2268.000000"
 preserveAspectRatio="xMidYMid meet">
<metadata>
Created by potrace 1.16, written by Peter Selinger 2001-2019
</metadata>
<g transform="translate(0.000000,2268.000000) scale(0.100000,-0.100000)"
fill="#000000" stroke="none">
<path d="M10345 22566 c-830 -63 -1863 -134 -2295 -160 l-785 -45 -955 -126
-955 -125 -720 -150 c-688 -143 -750 -158 -1383 -330 l-662 -180 -913 -434
-912 -435 -140 -6 -140 -7 -138 -71 -137 -71 -20 -65 c-59 -201 -190 -667
-190 -676 0 -14 396 -92 538 -107 l112 -11 2 -560 3 -561 180 -53 180 -53 55
-63 c30 -34 71 -80 91 -101 l36 -39 1349 -164 c1157 -140 1543 -182 2715 -297
l1367 -135 393 -139 394 -140 445 14 445 14 62 62 62 61 68 -53 c37 -30 142
-114 233 -188 91 -75 170 -139 176 -144 11 -8 510 -118 1084 -239 l345 -72
271 -264 272 -263 753 -102 754 -102 390 99 391 99 304 -28 c168 -15 321 -30
340 -33 33 -4 38 -1 100 69 l65 74 675 39 675 40 213 205 c162 155 221 206
245 211 18 3 71 18 120 34 78 25 92 33 136 80 l48 54 85 -8 c74 -7 149 -31
585 -184 l500 -177 319 37 319 38 473 -15 c459 -15 474 -16 490 -36 14 -17
159 -53 882 -219 l865 -198 270 7 270 7 845 -276 c535 -176 926 -309 1065
-365 121 -48 252 -96 292 -106 76 -19 71 -19 753 39 23 2 27 -6 62 -118 l39
-120 -46 -248 c-45 -239 -51 -261 -178 -636 l-132 -389 -144 -128 -143 -128
-472 86 c-259 47 -474 83 -479 79 -4 -4 -47 -104 -96 -222 -49 -118 -119 -283
-155 -368 -37 -84 -64 -157 -59 -162 13 -13 482 -287 892 -521 211 -121 548
-326 750 -455 201 -130 371 -238 377 -240 7 -2 40 32 74 76 l63 81 46 -37 c39
-32 659 -540 670 -549 2 -2 -8 -62 -21 -134 l-25 -131 356 -313 c344 -303 366
-324 656 -644 165 -182 303 -331 307 -331 3 -1 42 25 85 57 43 32 83 61 90 65
7 5 161 -189 438 -554 235 -309 432 -570 437 -579 9 -14 1 -32 -40 -92 -29
-41 -52 -78 -52 -81 0 -7 669 -1327 677 -1336 2 -3 54 1 115 7 61 7 113 10
116 8 2 -3 103 -280 223 -617 120 -336 222 -616 227 -622 5 -7 47 -61 94 -122
l85 -110 67 -232 c36 -128 66 -238 66 -245 0 -7 -43 -42 -94 -78 -52 -35 -92
-69 -90 -75 1 -5 33 -122 70 -260 61 -231 119 -521 105 -529 -3 -2 -78 -27
-166 -56 -88 -29 -299 -111 -470 -183 -255 -107 -391 -156 -765 -278 l-455
-147 -200 -307 -200 -306 -45 5 c-25 4 -211 53 -413 111 -201 58 -374 105
-383 105 -8 0 -612 -275 -1341 -612 l-1326 -612 6 -110 c4 -77 26 -214 71
-446 37 -184 88 -452 116 -595 69 -361 107 -543 123 -590 14 -39 16 -40 58
-38 65 4 1197 92 1243 97 l39 4 -6 -81 c-4 -45 -15 -117 -25 -159 -11 -43 -15
-78 -10 -78 4 0 342 -55 751 -122 l742 -121 1603 -5 1603 -4 585 98 c322 54
590 101 596 105 7 4 -55 122 -166 318 -97 171 -176 315 -176 319 0 6 583 276
666 309 6 2 92 -101 191 -229 100 -129 190 -241 200 -250 18 -17 25 -16 128
11 281 74 1105 315 1205 352 l111 42 107 -51 c59 -27 168 -79 242 -115 l136
-64 1698 578 1698 579 78 68 c42 37 149 131 237 208 l160 141 276 92 c152 51
285 100 296 109 10 9 242 262 516 562 274 300 505 553 515 563 16 17 27 17
281 -2 145 -10 266 -18 269 -16 3 2 118 309 255 683 l250 680 190 66 c148 51
216 69 305 81 63 9 117 19 121 23 3 4 41 194 84 422 42 228 79 423 81 432 4
12 -11 28 -49 53 l-54 36 -12 100 c-6 55 -11 110 -11 122 0 13 -12 30 -30 42
-18 12 -29 26 -27 36 2 8 44 220 93 471 l88 456 89 10 c49 5 92 13 97 18 4 5
61 191 125 414 65 223 121 409 125 413 4 5 175 1 380 -8 205 -9 374 -14 376
-12 5 4 43 318 44 352 0 19 -19 23 -251 57 -138 20 -253 38 -256 41 -6 7 -28
736 -22 742 3 2 214 9 470 16 255 6 465 12 467 13 2 3 32 504 32 552 l0 31
207 7 c114 4 209 9 212 11 4 5 239 907 243 938 2 10 -105 204 -237 431 l-240
414 -345 197 -345 197 -557 436 -557 437 -438 199 c-241 110 -492 225 -559
257 l-121 56 -1028 999 -1027 999 -1302 870 -1302 870 -1370 837 -1369 837
-225 226 c-202 203 -236 233 -330 290 l-106 64 -224 -23 c-184 -18 -243 -21
-326 -13 l-102 10 -6 56 c-3 31 -11 126 -17 212 l-12 156 -61 21 c-291 98
-1523 502 -1532 502 -6 0 -37 -30 -69 -67 -32 -38 -61 -69 -65 -71 -4 -2 -192
82 -416 186 -225 104 -472 217 -550 251 l-140 62 -189 -31 -190 -30 -1055 296
-1055 296 -213 125 -214 125 -214 49 -214 48 -112 -55 c-66 -32 -128 -55 -148
-56 -27 0 -732 185 -885 232 -29 10 -30 11 -30 77 l0 68 -80 17 c-44 10 -222
47 -395 83 -173 36 -363 76 -422 89 l-107 23 -97 -156 c-54 -86 -98 -157 -98
-158 -1 0 -156 30 -345 68 l-344 69 -137 82 c-133 80 -139 85 -174 148 l-37
65 -209 48 -210 48 -97 -76 c-92 -72 -99 -75 -137 -70 -23 3 -356 37 -741 76
-666 67 -748 73 -1695 124 -879 48 -1144 59 -2270 89 -1159 32 -1405 35 -2705
40 l-1430 5 -1510 -113z m5307 -3096 c68 -38 71 -41 54 -65 -12 -17 -16 -17
-104 0 l-92 17 0 65 0 65 43 -25 c23 -13 68 -39 99 -57z m-6287 -1639 l460
-60 328 -126 c284 -109 346 -129 467 -152 77 -15 140 -30 140 -34 0 -4 -75
-45 -167 -91 l-168 -85 -290 18 c-512 31 -566 37 -805 86 l-225 46 -170 140
c-93 77 -174 144 -180 149 -6 5 22 39 70 88 44 44 80 80 80 80 0 0 207 -27
460 -59z m7950 -700 c107 -7 250 -34 792 -147 365 -76 659 -142 655 -146 -16
-16 -249 -20 -562 -9 l-325 10 -335 92 -335 91 -68 63 -67 63 57 -4 c32 -3
116 -9 188 -13z m-2173 -69 c42 -15 53 -26 93 -90 25 -39 45 -74 45 -76 0 -2
-34 -32 -76 -65 l-77 -61 -199 0 -199 0 173 154 c95 85 178 155 183 155 6 0
31 -8 57 -17z m-967 -252 c94 -17 175 -33 180 -35 6 -2 -74 -4 -176 -4 l-185
-1 -17 35 c-22 46 -21 48 6 42 12 -3 99 -20 192 -37z m11543 -1883 c130 -74
332 -186 449 -250 194 -107 249 -144 690 -468 263 -193 490 -363 504 -378 15
-14 128 -195 252 -402 l225 -377 -180 -178 c-113 -113 -303 -324 -516 -572
-185 -216 -341 -391 -347 -389 -5 3 -50 15 -100 27 l-90 23 -188 -88 -189 -87
-154 104 -153 105 -163 -27 -163 -28 -395 301 c-217 165 -401 306 -409 313
-12 11 -2 40 67 192 45 98 82 184 82 189 0 6 -61 89 -135 184 -111 142 -135
178 -131 199 3 14 10 113 17 220 l12 195 124 337 c68 186 154 442 191 570 l69
231 184 93 c101 51 190 93 197 93 6 1 119 -59 250 -132z m3072 -3139 c139
-227 255 -416 257 -420 2 -4 -521 -510 -645 -623 -11 -10 -3 -82 42 -406 31
-217 62 -404 68 -417 8 -14 158 -104 397 -240 261 -148 391 -227 408 -249 l24
-30 -51 -61 c-36 -44 -82 -80 -168 -135 l-117 -74 -163 -6 -163 -5 -244 106
-244 107 -521 550 c-287 303 -524 556 -527 563 -3 7 18 51 46 98 28 47 51 90
51 95 0 4 -80 110 -177 235 l-177 226 31 27 c18 14 68 58 113 96 l82 70 -7
101 -6 101 478 210 c449 198 492 219 713 352 129 77 238 141 241 141 4 0 120
-186 259 -412z m1537 -3088 c261 -61 581 -140 712 -175 131 -36 250 -65 264
-65 31 0 18 76 112 -680 42 -333 91 -722 110 -866 19 -144 35 -268 35 -277 0
-9 -82 -78 -190 -159 -182 -137 -190 -144 -185 -173 2 -16 7 -93 10 -170 l6
-140 -386 -420 c-212 -231 -394 -427 -403 -436 -14 -14 -51 -18 -218 -24
l-201 -7 -94 211 -94 212 -79 62 c-44 34 -84 65 -88 68 -5 3 -40 108 -77 232
l-67 225 35 174 34 173 -293 610 c-161 336 -297 620 -303 633 -10 21 -4 30 55
90 l66 67 21 192 21 193 105 134 c101 130 108 136 222 208 97 62 377 217 392
218 2 0 217 -50 478 -110z"/>
</g>
</svg>
