<?xml version="1.0" standalone="no"?>
<!DOCTYPE svg PUBLIC "-//W3C//DTD SVG 20010904//EN"
 "http://www.w3.org/TR/2001/REC-SVG-20010904/DTD/svg10.dtd">
<svg version="1.0" xmlns="http://www.w3.org/2000/svg"
   viewBox="0 0 4489.000000 3787.000000"
 preserveAspectRatio="xMidYMid meet">
<metadata>
Created by potrace 1.16, written by Peter Selinger 2001-2019
</metadata>
<g transform="translate(0.000000,3787.000000) scale(0.100000,-0.100000)"
fill="#000000" stroke="none">
<path d="M22545 37860 c-146 -5 -452 -37 -1335 -140 -630 -73 -1147 -134
-1148 -136 -2 -1 5 -90 15 -196 l18 -194 -1405 -178 c-876 -111 -1854 -242
-2599 -348 l-1195 -171 -180 185 c-100 102 -193 195 -207 207 l-27 22 -1123
-221 -1124 -222 -885 -239 -885 -239 -1015 -351 c-828 -286 -1092 -382 -1435
-521 -397 -161 -454 -187 -1055 -490 -349 -176 -818 -422 -1043 -546 l-407
-226 0 -185 0 -186 -2200 -1160 -2199 -1160 -1 -316 0 -316 -522 -203 c-288
-111 -526 -206 -530 -209 -9 -8 -58 -224 -58 -254 0 -41 123 -211 367 -508
l252 -307 35 -453 36 -454 -35 -445 c-33 -420 -35 -471 -35 -915 0 -361 5
-551 21 -820 19 -327 23 -362 59 -525 21 -96 48 -267 61 -379 21 -183 25 -204
44 -212 21 -9 2761 -839 2770 -839 3 0 5 -47 5 -104 l0 -104 29 -10 c24 -9 30
-18 36 -54 4 -23 38 -151 75 -283 116 -406 381 -1457 600 -2373 114 -480 211
-876 214 -880 4 -3 691 -121 1528 -262 l1520 -256 29 -57 29 -57 296 0 295 0
279 -114 c278 -113 281 -114 422 -217 79 -56 175 -125 213 -153 40 -29 129
-115 210 -203 l140 -152 103 -248 c92 -222 105 -260 123 -368 11 -66 24 -135
30 -152 l11 -33 1199 0 c793 0 1199 -3 1199 -10 0 -6 58 -10 155 -10 l155 0 0
55 0 55 280 0 280 0 0 -55 0 -55 1070 0 1070 0 0 25 0 25 663 0 c365 0 813 -3
995 -7 l332 -6 0 -94 0 -93 410 0 410 0 0 100 0 100 380 0 c361 0 380 -1 389
-19 6 -10 178 -135 383 -278 l373 -260 380 -156 380 -156 595 -164 c561 -156
632 -173 1245 -301 l650 -135 610 -75 c458 -57 859 -98 1610 -166 550 -49
1019 -92 1043 -95 l42 -6 0 -650 c0 -357 -3 -649 -7 -649 -5 -1 -299 -36 -655
-79 l-647 -78 -114 -106 c-63 -59 -136 -126 -163 -150 l-49 -43 -965 -214
-965 -214 -100 -87 c-55 -47 -106 -93 -113 -101 -8 -10 -14 -100 -18 -306 -6
-257 -9 -292 -23 -292 -65 -1 -703 -59 -709 -64 -3 -4 -8 -35 -10 -71 l-4 -63
366 -721 366 -721 0 -474 0 -475 -52 -6 c-29 -3 -190 -17 -357 -30 -167 -14
-306 -27 -309 -29 -2 -3 -7 -34 -9 -69 l-6 -65 367 -722 366 -723 0 -451 0
-452 -359 -28 -359 -29 -6 -30 c-19 -92 -26 -76 354 -824 l360 -710 0 -521 0
-521 83 -69 c45 -37 96 -77 112 -89 17 -11 400 -129 878 -269 l847 -248 0 -65
c0 -37 7 -266 15 -511 14 -427 17 -461 64 -835 l49 -390 92 -360 91 -360 265
-485 c146 -267 273 -493 282 -502 9 -9 257 -174 550 -368 l534 -351 585 -165
585 -166 49 48 c27 27 49 56 49 66 0 10 7 21 15 24 8 3 317 -48 687 -115 l673
-120 530 -27 530 -27 611 26 610 26 645 86 644 85 488 189 c515 199 510 197
890 425 16 9 27 2 78 -52 l60 -64 162 124 c720 547 642 481 1069 896 l394 382
274 380 c227 314 307 434 463 697 l189 318 485 1035 484 1035 554 1480 c304
814 659 1764 789 2111 130 348 236 643 236 657 0 26 -67 224 -113 332 -14 33
-69 152 -122 264 l-96 204 101 284 c55 156 103 290 107 298 4 13 101 15 704
15 668 0 698 1 711 19 12 17 29 3 208 -166 107 -102 196 -188 197 -191 2 -4
-67 -45 -152 -91 -85 -46 -155 -87 -155 -90 0 -3 17 -36 38 -73 l38 -67 172
97 172 97 137 145 136 145 90 185 89 185 24 165 c13 91 26 179 29 196 l5 32
-77 11 c-42 6 -80 8 -83 4 -4 -5 -15 -73 -25 -153 -9 -80 -20 -157 -23 -171
l-7 -27 -242 87 c-233 84 -242 88 -228 107 11 15 14 60 14 229 l0 210 -88 120
-88 119 24 81 c13 44 39 130 58 190 18 61 61 210 95 333 l62 222 124 0 c76 0
124 4 124 10 0 6 -50 10 -129 10 l-128 0 -64 -236 c-61 -225 -65 -234 -81
-215 -16 20 -25 21 -382 21 l-366 0 0 95 c0 52 -5 104 -11 117 -5 13 -46 43
-90 68 -43 25 -79 48 -79 51 0 11 244 520 356 740 l109 217 225 -129 c171 -97
228 -125 236 -116 12 13 633 1034 706 1162 102 178 802 1492 1046 1965 l260
505 546 1450 545 1450 251 2350 251 2350 99 1240 99 1240 131 530 c72 292 205
829 294 1195 l164 665 7 186 7 187 -178 618 c-165 577 -181 626 -231 719 -30
55 -60 105 -66 112 -7 6 -311 164 -677 351 l-665 341 -780 299 c-445 171
-1152 432 -1645 607 -476 169 -878 312 -894 319 -25 10 -32 24 -66 135 -21 67
-42 126 -46 130 -12 11 -2000 715 -3371 1195 l-1132 397 -1318 380 c-1263 364
-2227 638 -4005 1138 l-817 229 -983 191 -983 190 -1539 91 c-1307 77 -1760
100 -2656 133 -58 2 -190 1 -295 -3z m1840 -15669 c55 -15 519 -195 1030 -400
910 -364 1118 -456 1150 -506 7 -11 30 -171 51 -355 l38 -335 537 -440 538
-440 0 -800 0 -800 -131 -134 -131 -135 -1521 138 -1521 138 -979 144 -979
144 -336 111 -336 111 -240 149 -240 148 -285 253 -285 254 -294 394 -294 395
-105 216 -104 217 140 182 140 183 266 128 266 129 1435 0 1435 0 152 76 153
76 168 265 167 264 0 130 c0 71 3 129 8 129 4 0 52 -13 107 -29z"/>
</g>
</svg>
