<?xml version="1.0" standalone="no"?>
<!DOCTYPE svg PUBLIC "-//W3C//DTD SVG 20010904//EN"
 "http://www.w3.org/TR/2001/REC-SVG-20010904/DTD/svg10.dtd">
<svg version="1.0" xmlns="http://www.w3.org/2000/svg"
   viewBox="0 0 3902.000000 373.000000"
 preserveAspectRatio="xMidYMid meet">
<metadata>
Created by potrace 1.16, written by Peter Selinger 2001-2019
</metadata>
<g transform="translate(0.000000,373.000000) scale(0.100000,-0.100000)"
fill="#000000" stroke="none">
<path d="M2663 3697 c-13 -18 -23 -43 -23 -55 0 -12 -13 -31 -30 -44 l-30 -22
0 -221 0 -221 30 -22 c20 -15 30 -31 30 -48 0 -29 79 -132 116 -152 22 -11 24
-18 18 -50 -15 -78 -22 -90 -23 -38 -1 36 -8 58 -27 83 l-25 33 -603 0 -603 0
-28 -42 -28 -42 6 -254 5 -253 -36 -34 -37 -34 -30 30 c-17 16 -36 29 -43 29
-9 0 -12 65 -12 265 l0 265 -40 25 -40 25 -561 0 -562 0 -44 -25 -43 -26 0
-692 0 -692 43 -26 c29 -18 64 -28 112 -33 48 -5 76 -13 91 -27 19 -18 37 -19
399 -19 362 0 380 1 399 19 15 14 42 22 91 27 50 4 82 14 112 33 l43 26 0 183
c0 135 3 182 12 182 7 0 27 14 45 32 l32 31 40 -34 39 -34 1 -173 c1 -95 6
-193 12 -217 l11 -43 98 -7 c93 -7 101 -9 138 -41 l39 -33 349 11 c344 11 349
11 377 34 23 20 40 24 91 24 l63 0 102 -77 c77 -58 101 -82 101 -100 0 -23 -1
-23 -135 -23 -143 0 -147 -1 -327 -70 l-58 -21 0 -332 0 -332 118 -51 117 -52
230 -21 c172 -16 303 -21 517 -21 l287 0 83 36 c69 31 103 55 200 143 105 95
117 109 123 147 l6 42 97 26 c53 15 120 34 148 42 35 10 85 40 154 93 134 103
164 154 210 361 27 124 35 148 58 167 26 22 27 26 37 195 6 100 15 181 22 193
10 16 12 -5 13 -120 l0 -140 43 -26 c30 -19 62 -29 112 -33 49 -5 76 -13 91
-27 19 -18 37 -19 399 -19 362 0 380 1 399 19 15 14 43 22 91 27 48 5 83 15
112 33 l43 26 1 180 1 180 39 34 40 34 32 -31 c18 -18 38 -32 45 -32 9 0 12
-45 12 -176 0 -96 5 -195 11 -219 l11 -43 100 -7 c96 -7 102 -9 138 -41 l37
-33 349 11 c344 11 349 11 377 34 21 18 41 24 75 24 26 0 71 3 100 7 79 9 82
20 82 253 0 141 3 190 12 190 7 0 27 14 45 32 l32 31 40 -34 39 -34 1 -170 1
-169 52 -111 c38 -80 69 -129 112 -177 l61 -68 1735 0 1735 0 104 69 104 70
69 123 68 123 0 156 0 155 35 34 35 34 35 -34 35 -34 0 -162 0 -162 55 -117
c41 -87 72 -136 116 -187 l61 -68 1736 0 1736 0 102 67 103 68 70 127 71 127
1 153 1 153 39 34 40 34 34 -34 34 -34 6 -465 c5 -425 13 -554 35 -590 5 -8
54 -16 136 -22 l128 -10 47 -41 48 -42 473 13 473 13 41 29 c38 27 50 29 166
36 l125 7 21 41 c20 40 21 58 26 535 l5 495 35 35 35 34 40 -34 39 -34 2 -155
c1 -87 7 -173 14 -195 l12 -40 99 -8 c95 -7 102 -9 132 -40 l33 -32 349 10
c335 10 351 11 379 32 24 18 50 23 130 29 134 9 132 6 133 231 l1 168 39 34
40 34 29 -28 30 -29 0 -185 1 -186 43 -26 c31 -19 64 -28 120 -34 60 -5 80
-11 89 -26 11 -18 29 -19 393 -19 364 0 382 1 398 19 12 14 38 22 81 26 l62 7
122 -93 c94 -71 121 -98 121 -116 0 -23 0 -23 -135 -23 -143 0 -147 -1 -327
-70 l-58 -21 0 -330 0 -330 108 -51 c105 -50 110 -51 277 -70 126 -15 263 -21
530 -24 l360 -5 81 38 c65 30 106 60 197 142 104 95 116 109 122 147 l6 42
137 37 c75 21 146 42 157 48 11 6 62 42 113 81 124 95 157 152 202 356 28 123
37 149 60 171 28 26 28 27 35 196 7 159 9 173 31 199 l23 29 1 -145 0 -145 43
-26 c30 -19 62 -28 111 -33 50 -4 75 -11 91 -26 21 -19 34 -20 400 -20 366 0
379 1 400 20 16 15 42 22 91 27 48 4 82 14 111 32 l43 26 0 92 c0 81 2 93 17
93 9 0 32 14 50 32 l33 32 33 -32 c18 -18 41 -32 50 -32 15 0 17 -11 17 -79 0
-44 5 -102 11 -129 l12 -49 101 -7 c96 -6 102 -8 136 -39 l35 -33 352 10 c338
11 352 12 375 32 19 18 41 23 126 29 100 7 103 8 117 36 11 21 15 66 15 177
l0 150 40 4 40 4 0 -146 0 -145 43 -26 c30 -19 62 -28 111 -33 50 -4 75 -11
91 -26 21 -19 34 -20 400 -20 366 0 379 1 400 20 16 15 42 22 91 27 48 4 82
14 111 32 l43 26 0 177 c0 132 3 178 12 178 7 0 27 14 45 32 l32 31 40 -34 39
-34 1 -330 1 -331 48 -35 c37 -28 64 -39 122 -49 41 -7 92 -21 112 -31 84 -43
156 -49 714 -59 l534 -10 43 21 c23 12 54 30 69 40 24 18 69 20 580 35 l553
15 82 37 83 37 0 331 0 330 35 34 35 34 33 -32 34 -33 6 -403 c4 -247 11 -422
18 -453 l12 -51 76 -6 c194 -16 191 -15 238 -59 l43 -40 478 13 477 13 36 28
c33 26 45 29 145 34 146 8 147 9 172 54 22 38 22 45 22 453 l0 414 35 34 35
34 33 -32 c18 -18 38 -32 45 -32 8 0 12 -23 12 -72 0 -40 5 -89 10 -110 l10
-36 98 -7 c92 -7 99 -10 137 -42 l40 -35 110 6 c61 3 217 9 348 12 232 6 239
7 267 30 22 19 40 24 83 24 30 0 74 3 99 6 60 8 78 40 79 142 1 77 1 77 40
111 l40 34 34 -33 c34 -33 35 -36 35 -116 l0 -82 48 -31 c41 -26 59 -31 110
-31 50 0 66 -4 90 -25 l30 -25 374 0 375 0 23 25 c20 22 32 25 86 25 51 0 72
5 109 27 l45 28 0 85 c0 85 0 86 35 120 l35 34 35 -34 34 -35 6 -400 c7 -405
16 -505 48 -505 7 0 66 -5 131 -11 119 -10 119 -10 164 -50 53 -46 -5 -44 572
-28 l425 12 36 28 c34 26 46 29 145 34 145 8 149 9 173 51 21 34 21 45 21 505
l0 471 39 -31 c21 -17 46 -31 55 -31 10 0 16 -9 16 -25 0 -13 6 -28 13 -32 7
-4 22 -30 33 -58 l20 -50 58 -5 58 -5 31 -85 c36 -103 145 -267 212 -324 l47
-39 -28 -12 c-16 -7 -63 -44 -105 -83 l-75 -71 -34 -113 c-45 -152 -47 -185
-19 -239 12 -24 32 -74 43 -110 20 -60 30 -73 111 -151 94 -88 400 -305 470
-332 22 -8 114 -43 205 -76 l165 -61 466 -11 467 -11 67 49 c98 71 161 148
168 205 6 42 3 48 -26 77 -18 17 -59 58 -92 91 -37 37 -80 68 -112 81 -29 13
-53 26 -53 29 0 4 9 56 20 116 15 82 20 152 20 283 l0 175 -45 163 c-58 206
-119 341 -187 411 l-51 52 6 75 c11 143 -19 280 -97 450 -57 123 -102 178
-212 258 -101 73 -182 112 -260 124 l-44 6 0 114 0 113 -30 16 c-23 12 -35 13
-50 5 -15 -8 -26 -7 -45 6 -47 31 -174 -2 -254 -65 l-36 -29 -182 -3 c-170 -4
-183 -3 -183 13 0 16 -14 18 -162 18 -139 0 -169 -3 -205 -20 l-43 -19 0 -91
0 -90 -40 0 -40 0 0 -108 0 -108 -35 -34 -35 -34 0 531 0 531 -47 42 -48 42
-119 -6 c-66 -3 -422 -6 -792 -6 l-673 0 -35 -52 -35 -51 6 -511 6 -511 -29
-27 -29 -27 -37 35 -38 34 0 358 0 357 -45 28 -46 27 -552 0 -552 0 -47 -30
-48 -30 -1 -358 -1 -357 -37 -32 -36 -31 -38 34 -38 35 3 367 3 367 -24 32
-25 33 -606 0 -606 0 -24 -41 -23 -42 5 -361 4 -361 -35 -32 -36 -31 -37 34
-37 33 6 513 5 513 -48 45 -49 46 -795 -4 -795 -4 -34 -51 -34 -51 8 -505 7
-506 -34 -33 -34 -32 -32 33 -32 33 -2 289 -3 289 -75 33 -75 32 -1347 1
-1347 0 -46 -32 -45 -32 0 -293 c0 -235 -3 -293 -13 -293 -7 0 -26 -14 -42
-30 l-29 -30 -31 30 c-17 16 -36 30 -43 30 -9 0 -12 66 -12 268 l0 267 -45 28
c-35 21 -59 27 -100 27 l-55 0 -2 161 -3 161 -59 24 -59 24 -1071 0 -1071 0
-38 -25 -37 -26 0 -154 0 -155 -39 0 c-34 0 -42 -5 -65 -40 l-26 -40 7 -345
c5 -300 4 -345 -9 -345 -8 0 -27 -14 -43 -30 l-29 -30 -31 30 c-17 16 -41 30
-53 30 l-22 0 0 353 0 352 -45 28 -46 27 -556 0 -556 0 -43 -27 -44 -28 -2
-255 -3 -255 -22 36 c-14 22 -23 52 -23 78 l0 41 -44 0 -44 0 -5 373 c-6 416
-9 439 -71 513 -48 57 -178 124 -240 124 -37 0 -45 5 -82 51 -35 43 -54 56
-115 80 -72 28 -79 29 -255 29 -173 0 -182 1 -187 20 -5 20 -14 20 -491 20
l-485 0 -25 -33 c-15 -19 -26 -43 -26 -55 0 -12 -13 -31 -30 -44 l-30 -22 0
-219 0 -218 30 -26 c20 -17 30 -34 30 -53 0 -22 17 -46 70 -100 l69 -72 -31
-147 c-17 -80 -35 -150 -40 -155 -4 -6 -8 56 -8 137 l0 147 -40 25 -40 25
-561 0 -562 0 -44 -25 -43 -26 0 -262 0 -263 -33 -32 -33 -32 -32 33 -32 33 0
284 -1 285 -29 33 -30 32 -232 0 c-128 0 -399 -3 -601 -7 l-369 -6 -26 -39
-25 -39 6 -272 6 -272 -34 -28 -34 -28 -36 28 -35 28 0 442 0 442 -44 35 -43
36 -795 0 -795 0 -35 -53 -35 -52 5 -425 4 -425 -31 -29 -31 -30 -28 27 c-15
15 -33 27 -40 27 -9 0 -12 39 -12 145 l0 146 -71 125 -70 125 -104 69 -104 70
-1733 0 -1733 0 -61 -68 c-45 -50 -75 -98 -118 -186 l-56 -119 0 -152 0 -151
-32 -31 -33 -32 -37 35 -38 34 0 142 0 141 -71 126 -70 126 -103 68 -102 67
-1731 0 -1731 0 -57 -57 c-44 -45 -70 -86 -116 -179 l-59 -122 0 -161 c0 -119
-3 -161 -12 -161 -7 0 -26 -13 -43 -29 l-30 -30 -37 35 -38 34 0 262 0 261
-26 34 -25 33 -603 0 -603 0 -28 -42 -28 -42 6 -258 c5 -197 4 -258 -5 -258
-7 0 -26 -13 -43 -29 l-30 -30 -37 35 -38 34 0 259 0 258 -40 27 -40 26 -565
0 -565 0 -40 -26 -40 -27 0 -236 0 -236 -20 25 c-11 14 -20 41 -20 63 0 36 -1
37 -38 37 l-39 0 -6 368 c-3 238 -10 385 -18 417 -19 78 -77 140 -173 186 -52
25 -94 39 -120 39 -37 0 -45 6 -84 52 -36 43 -57 57 -115 80 -69 27 -79 28
-253 28 -173 0 -182 1 -187 20 -5 20 -14 20 -494 20 l-488 0 -22 -33z"/>
</g>
</svg>
