<?xml version="1.0" standalone="no"?>
<!DOCTYPE svg PUBLIC "-//W3C//DTD SVG 20010904//EN"
 "http://www.w3.org/TR/2001/REC-SVG-20010904/DTD/svg10.dtd">
<svg version="1.0" xmlns="http://www.w3.org/2000/svg"
   viewBox="0 0 2377.000000 972.000000"
 preserveAspectRatio="xMidYMid meet">
<metadata>
Created by potrace 1.16, written by Peter Selinger 2001-2019
</metadata>
<g transform="translate(0.000000,972.000000) scale(0.100000,-0.100000)"
fill="#000000" stroke="none">
<path d="M9396 9698 c-3 -13 -6 -88 -6 -168 0 -115 27 -403 129 -1400 l129
-1255 6 -432 6 -433 -135 0 -135 0 0 -30 c0 -16 -3 -30 -7 -30 -5 0 -105 36
-223 79 -118 44 -221 81 -228 83 -8 2 -41 -57 -86 -155 -40 -87 -77 -162 -82
-167 -5 -5 -76 -33 -159 -64 l-150 -55 -30 64 c-16 35 -36 64 -42 65 -9 0 -13
17 -13 50 l0 50 -585 0 -585 0 -1 -57 c0 -38 -10 -82 -28 -128 l-27 -70 -154
-6 c-119 -5 -170 -11 -220 -28 -63 -20 -80 -21 -661 -21 -508 0 -602 2 -632
15 -24 10 -70 15 -137 15 -67 0 -113 -5 -137 -15 -26 -11 -76 -15 -194 -15
l-159 0 0 25 0 25 -135 0 -135 0 0 -25 c0 -22 -4 -25 -35 -25 l-35 0 0 130 0
130 -190 0 -190 0 0 -130 0 -130 -640 0 -640 0 0 -30 0 -30 -932 1 -933 0
-100 144 c-55 79 -104 144 -108 145 -5 0 7 -21 26 -47 49 -70 152 -216 161
-231 6 -11 -62 -13 -381 -12 -213 1 -402 1 -419 1 -27 -1 -34 -7 -54 -52 -14
-28 -36 -60 -50 -71 -16 -14 -21 -22 -12 -25 19 -7 15 -25 -19 -77 -16 -27
-29 -50 -27 -52 2 -1 21 1 43 6 22 5 93 10 158 10 l117 0 0 -370 0 -370 678 0
677 0 60 -87 c85 -123 234 -323 241 -323 6 0 -57 92 -131 190 -23 30 -67 92
-99 138 l-57 82 344 0 345 0 112 -90 c103 -82 116 -90 156 -90 l44 0 0 -170 0
-170 315 0 315 0 0 170 0 170 185 0 185 0 0 -25 0 -25 745 0 c436 0 745 -4
745 -9 0 -18 66 -31 160 -31 94 0 160 13 160 31 0 5 351 9 850 9 499 0 850 -4
850 -9 0 -18 66 -31 160 -31 94 0 160 13 160 31 0 5 231 9 553 9 506 0 577 -2
857 -25 168 -14 316 -29 330 -34 14 -4 64 -36 113 -70 l87 -63 0 -159 0 -159
505 0 505 0 0 187 c0 181 1 187 25 230 28 47 32 49 70 31 22 -10 25 -17 25
-66 0 -30 -36 -901 -80 -1936 -80 -1908 -91 -2206 -77 -2206 4 0 7 -7 7 -15 0
-12 14 -15 65 -15 51 0 65 3 65 15 0 8 8 15 18 15 23 0 10 -253 108 2085 43
1018 81 1854 84 1858 4 4 77 13 162 19 l156 12 7 108 7 108 366 0 367 1 1315
168 c723 92 1317 165 1320 161 12 -17 80 -30 158 -30 102 0 162 15 162 42 0
17 16 18 328 17 262 0 346 -3 422 -17 l95 -17 3 -112 3 -113 174 0 175 0 0 80
c0 44 3 80 8 80 4 0 50 -7 102 -15 57 -9 168 -15 278 -15 l182 0 0 -45 c0 -42
2 -45 26 -45 14 0 23 -4 19 -10 -12 -19 73 -32 194 -29 103 3 125 7 135 22 12
16 63 17 820 17 680 0 806 -2 806 -14 0 -20 33 -26 155 -26 122 0 155 6 155
26 0 12 126 14 800 14 674 0 800 -2 800 -14 0 -20 33 -26 155 -26 122 0 155 6
155 26 0 10 16 14 60 14 l60 0 0 110 0 110 360 0 c281 0 360 -3 360 -12 0 -7
-6 -39 -14 -71 -28 -121 32 -226 143 -245 127 -23 241 32 278 133 21 55 21 56
2 116 -10 33 -19 65 -19 70 0 5 74 9 169 9 l169 0 91 -174 91 -175 0 -90 0
-91 226 0 226 0 -8 -27 c-16 -52 -8 -112 17 -139 45 -48 126 -52 186 -7 38 28
50 74 35 133 l-10 40 104 0 104 0 0 280 0 280 -61 0 -62 0 5 656 c4 476 9 658
17 663 6 4 14 37 18 74 5 62 8 67 29 67 23 0 24 -3 24 -65 l0 -65 44 0 c24 0
64 3 90 6 l46 7 0 58 0 59 85 0 85 0 0 49 c0 31 5 53 15 61 21 18 19 99 -3
125 -45 52 -120 52 -162 -2 l-20 -26 0 995 c0 1147 13 1028 -108 1028 l-72 0
0 -1035 0 -1035 -160 0 c-153 0 -160 -1 -160 -20 0 -13 -7 -20 -18 -20 -10 0
-149 -36 -309 -80 l-291 -80 -901 0 -901 0 0 80 0 80 -215 0 -215 0 0 -37 0
-38 -673 1 c-488 0 -680 4 -700 12 -41 17 -210 15 -254 -3 -30 -13 -106 -15
-469 -15 l-433 0 -46 -40 -46 -40 -314 0 c-242 0 -314 3 -317 13 -4 9 -44 12
-158 12 -114 0 -154 -3 -157 -12 -7 -19 -1869 -19 -1875 0 -4 9 -43 12 -151
12 -103 0 -150 -4 -158 -12 -10 -10 -97 -13 -365 -13 l-351 0 -7 50 c-12 87
10 80 -257 80 l-238 0 -19 -62 -18 -63 -359 -3 c-280 -2 -360 0 -366 10 -13
21 -249 24 -290 4 -26 -13 -67 -16 -206 -16 l-173 0 -208 98 -207 99 -125 6
c-106 6 -140 4 -215 -13 -81 -18 -128 -20 -482 -20 l-393 0 0 -60 c0 -53 -2
-60 -20 -60 -17 0 -216 83 -228 95 -3 3 -60 540 -126 1194 l-122 1190 33 462
c18 254 31 465 28 468 -16 15 -23 -44 -44 -366 -13 -192 -27 -354 -30 -360 -4
-7 -26 180 -50 415 -24 235 -45 448 -48 475 -5 41 -9 47 -29 47 -12 0 -26 5
-29 10 -3 6 -32 10 -64 10 -52 0 -59 -2 -65 -22z m309 -3350 c6 -58 4 -68 -9
-68 -14 0 -16 17 -15 128 2 133 4 125 24 -60z m5 -94 c0 -2 -7 -4 -15 -4 -8 0
-15 4 -15 10 0 5 7 7 15 4 8 -4 15 -8 15 -10z m14 -102 c4 -43 10 -92 13 -109
5 -31 4 -33 -26 -33 l-31 0 0 114 c0 107 1 114 19 109 16 -4 20 -18 25 -81z
m319 -42 c34 -16 55 -29 47 -29 -8 0 -46 16 -85 35 -83 40 -52 35 38 -6z m-33
-16 c24 -13 24 -13 -17 -14 -24 0 -43 2 -43 4 0 2 -3 12 -7 21 -5 14 -2 16 18
10 13 -4 35 -14 49 -21z"/>
<path d="M23467 4214 c-4 -4 -7 -342 -7 -751 l0 -743 85 0 85 0 0 595 0 595
-40 0 -39 0 -3 153 -3 152 -35 3 c-20 2 -39 0 -43 -4z"/>
</g>
</svg>
