<?xml version="1.0" standalone="no"?>
<!DOCTYPE svg PUBLIC "-//W3C//DTD SVG 20010904//EN"
 "http://www.w3.org/TR/2001/REC-SVG-20010904/DTD/svg10.dtd">
<svg version="1.0" xmlns="http://www.w3.org/2000/svg"
   viewBox="0 0 4878.000000 1130.000000"
 preserveAspectRatio="xMidYMid meet">
<metadata>
Created by potrace 1.16, written by Peter Selinger 2001-2019
</metadata>
<g transform="translate(0.000000,1130.000000) scale(0.100000,-0.100000)"
fill="#000000" stroke="none">
<path d="M9310 11285 c-756 -7 -1376 -13 -1377 -14 -2 0 -3 -8 -3 -17 0 -15
-15 -16 -142 -10 -79 3 -248 9 -375 12 l-233 7 0 -226 0 -226 26 -3 c24 -3 21
-7 -38 -50 l-63 -46 -180 -21 c-99 -12 -190 -24 -202 -26 l-23 -5 0 -515 0
-515 24 0 c13 0 38 -3 56 -7 l33 -6 -7 -301 c-3 -166 -9 -358 -12 -427 l-6
-127 -338 -86 c-185 -47 -349 -86 -363 -86 -14 0 -27 -4 -29 -8 -1 -5 -52 -21
-113 -37 -108 -28 -115 -28 -450 -32 -252 -3 -352 -8 -385 -18 -37 -12 -318
-15 -1625 -20 -869 -3 -2009 -8 -2532 -11 l-953 -6 0 -23 0 -22 2532 -8 c2131
-6 2537 -9 2571 -21 26 -9 83 -14 167 -14 192 0 340 -11 340 -25 0 -14 -154
-25 -352 -25 -121 0 -128 -1 -128 -20 0 -19 7 -20 240 -20 l240 0 0 -540 0
-540 -410 0 c-358 0 -410 2 -410 15 0 12 -17 15 -90 15 -73 0 -90 -3 -90 -15
0 -13 -196 -15 -1700 -15 -1693 0 -1700 0 -1700 -20 0 -20 7 -20 1700 -20
1504 0 1700 -2 1700 -15 0 -12 17 -15 90 -15 73 0 90 3 90 15 0 13 53 15 415
15 270 0 415 -3 415 -10 0 -5 -11 -10 -24 -10 -55 0 -3936 -110 -4093 -116
l-173 -6 0 -38 0 -37 -143 -6 c-78 -4 -377 -7 -664 -7 l-523 0 0 -25 0 -25
1173 0 1172 1 2040 -67 c1122 -37 2042 -69 2044 -71 5 -3 -12 -17 -79 -63 -32
-23 -61 -29 -238 -50 l-202 -24 0 -513 c0 -282 1 -513 3 -513 1 0 94 -15 207
-34 l205 -33 95 -59 95 -58 143 -4 142 -4 0 -269 0 -269 28 0 c15 0 43 -3 63
-6 l37 -6 17 78 c9 44 20 82 23 86 4 3 37 -5 73 -19 l66 -24 7 -107 c7 -105
18 -178 30 -190 3 -3 1106 9 2451 26 l2444 32 73 -47 73 -46 510 -88 510 -88
525 149 525 149 780 10 c429 6 819 11 866 11 l86 0 20 93 19 92 115 3 c358 8
4844 92 4917 92 l87 0 49 -428 c26 -235 50 -435 53 -444 4 -17 -17 -18 -345
-18 l-350 0 -49 -68 -50 -68 -159 -12 c-98 -7 -162 -8 -168 -2 -5 5 -21 31
-35 57 l-26 48 -148 3 -147 3 0 -301 0 -300 145 0 144 0 34 58 34 57 49 -1
c27 0 101 -4 166 -8 l116 -8 49 -70 48 -70 550 6 c303 3 996 8 1540 11 545 3
1009 8 1031 11 37 4 43 9 59 45 11 24 26 41 39 43 21 4 5846 197 5919 196 l37
0 0 55 c0 42 -3 55 -15 55 -43 0 -5727 160 -5764 162 l-44 3 39 22 c39 21 42
21 987 28 761 6 947 10 947 21 0 21 -79 23 -1012 29 l-887 6 -53 29 c-49 28
-60 30 -163 30 l-110 0 30 29 30 29 1190 1 c655 0 1280 0 1390 0 110 0 273 2
363 6 l162 7 0 48 0 47 -77 7 c-168 13 -639 19 -659 8 -14 -7 -367 -8 -1198
-3 l-1177 8 -58 57 -57 56 -142 0 -142 0 0 25 0 25 231 0 c225 0 232 1 272 24
l42 24 669 5 c367 3 671 8 674 11 3 3 3 8 1 10 -2 2 -308 8 -679 12 -631 7
-676 8 -705 25 -27 17 -54 19 -257 19 -176 0 -228 3 -228 13 0 6 10 94 21 195
l22 182 129 0 128 0 0 48 0 49 -117 7 c-64 3 -119 8 -121 11 -4 4 125 1096
130 1100 2 0 453 -7 1003 -16 550 -10 1087 -18 1193 -18 180 -1 192 -2 192
-20 0 -16 137 -57 1023 -309 l1022 -291 2500 -125 2500 -125 2083 -323 c1205
-187 2082 -327 2082 -333 0 -5 -24 -41 -53 -79 -44 -60 -104 -110 -405 -342
-195 -149 -360 -278 -367 -285 -10 -12 11 -87 120 -429 l133 -414 433 -157
434 -157 1095 -252 1095 -252 45 -41 c574 -531 809 -751 807 -753 -2 -2 -207
-10 -457 -18 -349 -12 -455 -18 -462 -28 -27 -46 26 -43 -885 -51 -726 -6
-865 -10 -904 -22 -39 -14 -317 -17 -2195 -25 -1182 -5 -2346 -10 -2586 -10
l-438 0 0 -25 0 -25 978 -1 c537 -1 1704 -4 2592 -8 1391 -5 1618 -8 1640 -21
21 -12 111 -15 541 -18 496 -4 516 -5 512 -23 -5 -17 11 -18 364 -21 269 -2
374 -6 384 -15 11 -8 202 -18 664 -33 628 -20 650 -21 670 -41 l20 -20 -48
-45 -49 -44 -501 0 c-276 0 -1084 -5 -1795 -10 -1247 -9 -1295 -9 -1330 9 -36
18 -52 18 -562 0 -289 -10 -528 -18 -532 -18 -5 -1 -8 -34 -8 -75 l0 -74 73
-6 c39 -3 281 -12 536 -21 450 -14 465 -14 495 4 30 18 79 18 1736 9 l1705
-10 66 -34 c55 -28 78 -34 129 -34 62 0 62 0 127 -60 l66 -60 202 0 202 0 297
-275 c163 -151 297 -275 299 -275 19 -3 6772 -169 6774 -167 1 2 -69 198 -157
437 -138 373 -160 442 -160 491 l0 58 -473 778 c-404 663 -565 916 -1092 1713
l-619 935 -244 520 -243 520 -314 1185 c-186 704 -336 1293 -369 1450 -41 189
-70 300 -102 387 l-46 122 -52 5 c-28 4 -229 17 -446 31 -217 14 -409 28 -427
31 -27 4 -36 13 -51 47 -19 42 -19 47 2 281 l22 238 -5636 -7 c-5420 -6 -5762
-5 -8960 18 -1829 14 -3326 24 -3327 24 -1 -1 -5 -69 -9 -150 -4 -81 -10 -149
-13 -151 -3 -2 -818 38 -1809 89 l-1804 93 -436 -82 -437 -82 -1440 23 c-1177
19 -1811 35 -3470 87 l-2030 64 -142 48 -143 49 0 226 0 227 -230 -6 -230 -5
0 545 0 544 -97 18 c-127 24 -133 27 -133 75 l0 39 -72 6 c-40 3 -309 8 -598
11 -289 3 -589 8 -667 12 l-143 6 0 -37 0 -36 -495 0 -495 0 0 55 c0 53 1 55
28 55 15 0 320 14 677 30 358 16 656 30 663 30 6 0 12 11 12 25 0 17 -6 25
-17 25 -10 0 -297 9 -638 20 -341 11 -644 20 -672 20 l-53 0 0 80 0 80 -252
-2 c-139 -1 -872 -7 -1628 -13z m3870 -600 l0 -45 -315 0 -315 0 0 45 0 45
315 0 315 0 0 -45z m7279 -2084 l424 -6 163 -489 163 -488 -222 6 c-122 4
-467 11 -767 17 -300 6 -545 12 -546 12 -2 3 -416 921 -421 934 -3 7 9 13 34
16 58 6 698 5 1172 -2z m-1254 -457 c83 -251 152 -463 154 -471 3 -14 -34 -15
-350 -9 -195 3 -461 9 -592 12 l-237 7 -62 122 c-61 121 -63 123 -113 144 -27
12 -128 70 -223 129 l-173 107 -83 183 -84 182 47 1 c41 1 1445 44 1531 48
l35 1 150 -456z m3521 399 c7 -22 87 -247 179 -498 92 -251 164 -459 161 -462
-3 -3 -290 2 -638 11 -348 9 -694 16 -769 16 l-137 0 -218 481 c-121 265 -220
485 -222 490 -2 5 361 8 814 6 l818 -2 12 -42z m1522 31 c235 -5 302 -9 302
-19 0 -7 81 -239 179 -516 98 -277 178 -505 176 -507 -3 -3 -1517 37 -1521 40
-1 2 -102 215 -224 473 -122 259 -230 486 -240 505 l-18 35 522 -2 c286 -2
657 -5 824 -9z m1790 -19 c4 -3 -57 -1047 -61 -1051 -5 -6 -752 18 -758 24 -5
6 -451 971 -476 1031 -6 12 86 13 643 7 357 -4 650 -9 652 -11z m-8764 -92
c14 -42 24 -78 22 -81 -3 -2 -64 32 -137 77 l-133 81 111 0 111 0 26 -77z
m1911 -2064 c919 -11 1700 -23 1737 -26 66 -6 68 -6 73 -37 15 -92 124 -1070
120 -1075 -7 -6 -4055 77 -4270 87 l-140 7 95 25 95 25 8 115 c4 63 5 210 1
327 -3 116 -3 295 1 397 l8 186 301 -6 c165 -3 1053 -14 1971 -25z m-2995
-959 l0 -81 -82 3 -82 3 -16 78 -17 77 99 0 98 0 0 -80z m-9189 -61 c-16 -6
-28 -6 -35 1 -7 7 1 10 25 9 32 0 33 -1 10 -10z"/>
</g>
</svg>
