<?xml version="1.0" standalone="no"?>
<!DOCTYPE svg PUBLIC "-//W3C//DTD SVG 20010904//EN"
 "http://www.w3.org/TR/2001/REC-SVG-20010904/DTD/svg10.dtd">
<svg version="1.0" xmlns="http://www.w3.org/2000/svg"
   viewBox="0 0 3201.000000 4624.000000"
 preserveAspectRatio="xMidYMid meet">
<metadata>
Created by potrace 1.16, written by Peter Selinger 2001-2019
</metadata>
<g transform="translate(0.000000,4624.000000) scale(0.100000,-0.100000)"
fill="#000000" stroke="none">
<path d="M14677 46149 l-159 -92 -1061 13 c-584 6 -1109 10 -1166 9 l-104 -4
-180 -238 -180 -237 17 -128 c10 -70 20 -142 23 -159 l5 -33 -1774 0 -1773 0
-300 175 -300 175 -1351 0 -1350 0 -117 -124 -117 -124 0 -131 0 -131 243 0
242 -1 -185 -94 -185 -95 -317 -317 -316 -318 -201 -394 -202 -394 -69 -440
-70 -440 70 -441 70 -441 201 -395 201 -395 315 -316 315 -317 397 -202 396
-202 440 -70 440 -71 435 68 435 69 399 200 399 201 316 311 316 311 795 -350
c437 -193 797 -352 800 -355 3 -2 -56 -62 -130 -132 l-135 -129 22 -22 23 -23
-133 -136 -133 -135 -266 -525 -265 -525 -53 -375 c-28 -206 -54 -385 -57
-397 -4 -19 -12 -23 -44 -23 l-39 0 0 -182 -1 -183 -25 30 c-13 17 -66 75
-116 131 l-91 101 -641 7 c-353 3 -794 9 -981 12 l-340 6 -477 -373 -476 -374
-15 -64 c-9 -35 -19 -67 -24 -71 -4 -4 -638 -157 -1408 -339 l-1400 -332 -665
-295 -665 -296 -182 -229 -183 -229 1 -247 c0 -216 13 -392 30 -407 2 -2 146
-98 319 -213 l315 -209 165 7 c91 4 401 10 690 13 l525 7 654 -79 655 -78
-223 -64 -222 -65 -1734 -1275 -1734 -1275 -29 -65 c-54 -117 -102 -290 -102
-368 l0 -69 -268 -509 c-154 -293 -288 -560 -315 -629 l-47 -120 -125 -1519
c-69 -835 -125 -1533 -125 -1550 0 -27 25 -57 176 -213 l176 -183 116 -1 c65
0 167 -4 227 -8 l110 -6 79 -58 c43 -31 88 -57 99 -57 11 0 913 191 2006 426
l1986 425 495 -198 496 -197 25 -113 26 -113 -720 -427 c-822 -489 -757 -439
-896 -680 l-70 -123 -7 -112 c-6 -113 -7 -114 -125 -439 l-119 -326 40 -1531
39 -1532 32 -115 32 -116 65 -47 c36 -26 108 -72 160 -102 l95 -55 73 -170 72
-170 47 -14 c44 -14 94 -8 1306 163 694 98 1263 175 1266 172 3 -3 32 -119 64
-258 32 -139 61 -261 63 -271 3 -13 -84 -97 -344 -328 -312 -278 -351 -315
-366 -357 -10 -26 -23 -61 -29 -78 -10 -25 -3 -299 36 -1418 26 -762 51 -1392
55 -1399 5 -6 144 -175 311 -374 239 -286 309 -363 335 -372 18 -5 189 -51
380 -101 l347 -91 148 40 c81 22 148 39 149 38 3 -4 54 -236 54 -245 0 -5 -58
-24 -130 -43 l-129 -33 -81 -174 c-45 -95 -80 -175 -78 -176 1 -1 68 -16 146
-32 l144 -29 155 -425 c85 -234 158 -429 162 -433 4 -4 163 -37 352 -73 281
-53 2722 -562 2781 -580 10 -3 887 -1206 1949 -2675 l1931 -2669 142 0 142 0
84 114 84 114 31 -51 c17 -29 170 -280 338 -560 l307 -507 0 -373 0 -372 219
-455 218 -455 405 -325 406 -325 501 -114 502 -115 377 86 377 86 1700 -980
1701 -980 58 -273 59 -274 1466 -974 c806 -536 1546 -1027 1643 -1090 l177
-116 228 211 c125 115 228 212 228 214 0 2 -65 54 -145 115 -80 61 -148 114
-152 118 -4 4 -356 2613 -783 5799 l-775 5793 -10 456 c-6 251 -9 457 -8 459
2 1 892 -391 1978 -872 1086 -481 1976 -874 1978 -874 2 0 19 35 39 77 29 63
33 79 22 86 -8 5 -562 252 -1233 550 l-1218 542 -45 110 -45 110 -205 179
-206 180 -551 244 c-303 134 -555 248 -560 252 -8 8 -57 361 -51 368 2 2 246
-103 542 -233 296 -131 544 -240 550 -242 15 -6 87 137 75 148 -4 3 -270 122
-592 264 -322 142 -589 262 -594 267 -11 9 -89 628 -81 637 3 3 170 12 371 21
352 15 366 16 382 37 l17 21 915 -402 915 -403 37 76 c26 53 33 78 25 82 -7 4
-417 185 -912 404 -495 219 -903 400 -907 404 -4 3 14 54 39 113 38 87 50 105
62 99 9 -5 1350 -599 2979 -1321 1655 -733 2968 -1308 2972 -1304 5 5 24 43
43 85 l35 76 -2979 1323 c-1638 728 -2979 1328 -2979 1334 0 6 9 31 20 55 11
24 20 49 20 56 0 7 -260 128 -602 280 -332 147 -608 272 -614 279 -6 6 -84
601 -173 1321 -146 1185 -177 1464 -323 2934 l-162 1623 37 642 38 641 231
675 232 675 664 1090 665 1090 423 1097 424 1098 316 1637 316 1638 53 640 54
640 42 2135 42 2135 -118 465 c-65 256 -123 475 -129 487 -6 12 -117 154 -245
315 l-235 293 -860 646 -861 647 -735 442 -735 443 -900 472 c-495 259 -1231
639 -1635 843 -711 358 -752 381 -1275 692 l-540 321 -157 -7 -157 -6 -149
299 c-83 164 -157 315 -165 335 l-16 37 67 7 67 6 44 61 c24 34 46 68 48 77 3
11 -86 54 -369 179 -298 131 -2165 976 -2539 1149 l-87 40 -618 7 -619 6 -158
-92z m-1849 -2449 l23 -40 -226 0 -225 0 0 -85 0 -85 -1552 0 -1553 0 -60 117
c-33 64 -61 120 -63 125 -2 4 815 8 1815 8 l1818 0 23 -40z m73 -1540 l509
-300 289 0 289 0 253 -402 c265 -422 257 -406 303 -591 6 -27 3 -25 -163 58
l-170 85 -348 65 c-191 36 -372 70 -400 76 l-53 10 0 40 0 39 -360 0 -360 0 0
-35 c0 -31 -3 -35 -32 -40 -18 -3 -201 -32 -405 -64 l-372 -59 -210 -108
c-127 -64 -217 -105 -228 -101 -26 7 -2145 905 -2151 912 -4 4 84 586 104 688
l6 27 1494 0 1495 0 510 -300z"/>
</g>
</svg>
