<?xml version="1.0" standalone="no"?>
<!DOCTYPE svg PUBLIC "-//W3C//DTD SVG 20010904//EN"
 "http://www.w3.org/TR/2001/REC-SVG-20010904/DTD/svg10.dtd">
<svg version="1.0" xmlns="http://www.w3.org/2000/svg"
   viewBox="0 0 4579.000000 1459.000000"
 preserveAspectRatio="xMidYMid meet">
<metadata>
Created by potrace 1.16, written by Peter Selinger 2001-2019
</metadata>
<g transform="translate(0.000000,1459.000000) scale(0.100000,-0.100000)"
fill="#000000" stroke="none">
<path d="M16763 14583 c-112 -4 -113 -4 -127 -32 -12 -21 -24 -30 -53 -34 -21
-3 -478 -52 -1017 -109 l-978 -103 6 -67 6 -66 -38 -6 c-20 -3 -829 -101
-1797 -216 -968 -115 -1777 -212 -1797 -216 l-38 -6 0 39 c0 21 -3 49 -7 62
-6 23 -8 23 -77 17 -39 -4 -86 -9 -103 -13 l-33 -5 0 -64 c0 -45 -4 -64 -13
-64 -7 0 -159 -16 -337 -35 -178 -19 -335 -35 -347 -35 -21 0 -23 4 -23 60 l0
61 -32 -6 c-18 -3 -211 -26 -428 -50 -217 -25 -768 -90 -1225 -145 -456 -54
-918 -108 -1025 -120 -269 -29 -241 -15 -233 -109 l6 -79 -44 -6 c-131 -17
-332 -37 -336 -32 -3 2 -8 34 -13 71 -5 37 -10 68 -12 71 -4 3 -890 -115 -895
-119 -6 -6 140 -494 266 -892 83 -258 174 -549 203 -645 l54 -175 200 -83
c109 -45 245 -102 302 -125 l102 -43 -45 -32 -46 -32 -173 0 -173 0 -7 -427
c-4 -236 -10 -431 -14 -434 -4 -3 -207 -36 -452 -73 -245 -37 -683 -103 -974
-147 l-530 -79 -40 37 c-23 21 -84 80 -137 131 l-96 94 -1269 -8 -1269 -9 -20
-109 c-11 -60 -25 -111 -30 -112 -6 -2 -350 -44 -765 -94 -415 -50 -771 -93
-791 -96 l-36 -5 -7 -106 -8 -106 338 -1001 338 -1000 78 -133 c44 -73 80
-133 81 -133 28 -1 1290 -130 1292 -132 1 -2 60 -159 131 -350 l129 -348 902
0 c850 0 902 1 907 18 3 9 64 222 136 472 72 250 133 456 135 458 3 3 1862
-271 1926 -284 l27 -5 6 -1097 c4 -603 9 -1136 12 -1184 l5 -88 173 0 173 0
804 -371 804 -371 1363 -93 c750 -51 1365 -95 1368 -98 3 -2 -3 -89 -12 -194
l-17 -189 532 -1108 531 -1107 1 -177 0 -177 147 -359 147 -359 152 -107 153
-107 262 -7 c145 -3 932 -11 1749 -18 l1486 -12 175 125 175 124 94 272 94
273 857 0 858 0 94 30 c85 27 99 36 134 77 l40 46 1121 23 c1031 22 1128 26
1204 44 75 18 181 22 1199 47 614 15 1115 30 1112 32 -2 2 -507 17 -1122 33
-887 22 -1130 31 -1182 43 -52 12 -287 20 -1198 40 l-1133 25 -47 49 c-40 41
-61 54 -137 80 l-90 31 -748 0 c-434 0 -747 4 -747 9 0 5 51 157 114 337 l113
328 104 39 104 38 119 385 119 384 2661 -2 2660 -3 164 -285 c90 -157 235
-411 322 -565 l158 -280 688 -6 c379 -3 1538 -7 2575 -8 l1887 -1 233 216
c165 153 235 224 237 242 2 13 -1 74 -7 136 -11 117 -127 1078 -136 1134 l-6
33 1338 -7 1338 -7 115 37 c110 36 118 40 170 96 l55 58 1990 31 c1864 28
1996 32 2080 50 82 17 221 22 1515 53 1012 23 1389 35 1300 40 -69 4 -701 21
-1405 38 -1234 29 -1285 31 -1425 55 l-145 24 -1955 27 -1955 27 -55 58 c-52
55 -60 59 -175 97 l-120 39 -1340 -9 c-737 -5 -1356 -7 -1375 -6 l-34 3 -22
180 c-12 99 -20 182 -19 184 2 2 1135 -3 2517 -11 l2513 -14 195 63 195 62 86
93 86 92 3144 43 3144 43 173 36 174 36 1131 28 c623 16 1137 25 1142 20 6 -5
179 -218 385 -474 l375 -465 359 0 c337 -1 358 0 353 17 -2 9 -91 224 -196
476 -105 253 -191 465 -191 471 0 9 162 15 608 26 355 8 580 16 542 20 -36 4
-317 12 -625 19 -308 6 -561 13 -561 13 -3 3 -1065 2560 -1185 2852 -65 160
-122 296 -126 303 -5 8 -262 117 -572 243 l-564 230 -2821 638 -2821 638 -400
17 c-220 9 -577 16 -792 16 l-393 0 0 -185 0 -184 -27 4 c-67 12 -1216 126
-1220 121 -3 -2 -10 -42 -15 -88 -6 -46 -12 -84 -13 -86 -1 -1 -60 4 -131 12
-70 9 -129 14 -130 13 -1 -1 -7 -54 -13 -117 -7 -63 -13 -115 -14 -116 -1 -1
-311 28 -689 64 l-688 67 0 112 c0 128 8 118 -105 128 -38 4 -78 9 -87 11 -15
5 -18 -2 -18 -38 0 -24 -4 -50 -10 -58 -7 -12 -206 7 -1417 133 -774 81 -1413
147 -1420 147 -6 0 -14 22 -18 48 -3 26 -10 53 -14 60 -7 11 -121 31 -183 32
-28 0 -28 0 -28 -71 0 -62 -2 -70 -17 -65 -10 2 -80 10 -155 17 -81 7 -138 16
-138 22 0 6 -36 306 -80 666 -44 361 -93 791 -110 956 -31 316 -65 495 -97
525 -22 21 -521 390 -527 390 -2 0 -57 -43 -121 -95 -65 -52 -125 -95 -134
-95 -9 0 -1132 -43 -2496 -94 l-2480 -94 -90 88 -90 88 -687 -26 -688 -26 0
-417 0 -418 -32 5 c-18 3 -352 51 -743 108 l-710 101 -673 -28 c-383 -17 -677
-26 -682 -21 -4 5 -137 495 -295 1089 -157 594 -310 1163 -340 1265 -30 102
-76 260 -102 352 l-48 168 -110 -2 c-60 -1 -161 -4 -222 -5z m-9786 -3191 c24
-9 43 -20 43 -24 0 -3 -29 -27 -65 -52 l-65 -45 0 59 c0 32 3 66 6 75 7 17 8
17 81 -13z m27893 -4197 l0 -375 -160 0 -160 0 -109 -54 c-60 -30 -111 -62
-115 -71 -3 -9 -6 -30 -6 -46 0 -27 -3 -29 -37 -29 -28 0 -50 9 -83 36 -52 41
-58 55 -59 144 l-1 65 -98 82 -98 81 -566 209 c-312 114 -565 210 -562 212 4
4 1895 117 2007 120 l47 1 0 -375z m6124 -687 c63 -84 114 -153 113 -154 -1
-1 -423 9 -937 21 -864 22 -941 25 -1015 44 -53 13 -117 21 -190 22 -60 1
-160 4 -222 8 l-112 6 46 75 c25 41 49 79 54 84 7 8 991 29 2046 45 l102 1
115 -152z m486 -643 l326 -430 706 -6 706 -5 28 -34 c67 -78 142 -175 139
-178 -1 -2 -488 9 -1081 23 l-1079 25 -166 35 -166 35 -3154 44 -3154 44 -39
44 c-137 149 -105 129 -323 202 l-198 65 -2579 -15 c-1418 -9 -2582 -12 -2586
-7 -4 4 -11 46 -15 92 l-7 84 2653 -8 2654 -7 43 51 43 51 251 -2 250 -3 18
-45 18 -45 75 -3 75 -3 50 43 51 43 0 101 1 101 400 7 401 6 192 -180 192
-180 751 0 c413 0 825 -3 915 -6 l164 -7 220 206 220 207 285 0 c248 1 297 3
375 21 81 18 174 23 975 43 487 13 921 23 965 22 l79 -1 326 -430z"/>
</g>
</svg>
