<?xml version="1.0" standalone="no"?>
<!DOCTYPE svg PUBLIC "-//W3C//DTD SVG 20010904//EN"
 "http://www.w3.org/TR/2001/REC-SVG-20010904/DTD/svg10.dtd">
<svg version="1.0" xmlns="http://www.w3.org/2000/svg"
   viewBox="0 0 3264.000000 1416.000000"
 preserveAspectRatio="xMidYMid meet">
<metadata>
Created by potrace 1.16, written by Peter Selinger 2001-2019
</metadata>
<g transform="translate(0.000000,1416.000000) scale(0.100000,-0.100000)"
fill="#000000" stroke="none">
<path d="M8445 14110 c-244 -60 -664 -226 -920 -362 l-170 -90 -690 57 c-667
55 -691 58 -733 82 -45 26 -91 26 -131 1 -12 -7 -241 9 -801 55 -888 75 -2156
165 -2166 154 -4 -4 -5 -9 -3 -12 3 -2 108 -24 234 -48 l230 -43 3 -62 c3 -60
3 -61 35 -67 18 -3 361 -48 762 -100 566 -74 762 -103 874 -130 80 -20 147
-37 149 -40 2 -2 -10 -29 -28 -59 -31 -54 -32 -56 -68 -51 -20 3 -248 21 -507
41 l-470 36 -115 69 c-85 50 -121 67 -137 63 -26 -7 -30 -37 -11 -79 6 -14 9
-27 7 -29 -3 -3 -112 4 -243 14 l-238 19 -116 69 c-68 41 -123 67 -133 65 -27
-7 -31 -35 -14 -76 12 -29 12 -37 3 -37 -7 0 -114 7 -238 16 l-225 16 -117 69
c-64 38 -123 69 -131 69 -8 0 -20 -7 -28 -16 -10 -13 -10 -23 3 -58 l16 -43
-41 4 c-128 13 -2222 171 -2225 168 -2 -2 -17 -112 -33 -245 l-30 -241 90 -98
c49 -54 109 -115 133 -137 24 -21 359 -232 744 -469 l702 -430 162 -475 c89
-261 164 -477 166 -478 1 -2 615 -79 1363 -171 749 -92 1363 -170 1366 -173 3
-2 -22 -67 -55 -144 -58 -134 -63 -141 -121 -188 -34 -26 -70 -64 -82 -84
l-21 -35 -250 6 c-519 13 -2146 40 -2150 36 -3 -3 -8 -23 -12 -45 l-6 -41 48
-12 c27 -7 655 -66 1396 -130 742 -65 1350 -120 1353 -123 3 -3 7 -18 8 -34
l2 -28 -515 -92 c-283 -51 -557 -101 -607 -110 l-93 -16 0 -69 0 -69 -205 0
-205 0 0 -80 c0 -67 24 -186 149 -738 155 -681 311 -1377 311 -1389 0 -3 54
-3 119 0 l119 7 247 -255 248 -255 585 -2 584 -3 146 -312 146 -313 252 0 252
0 571 -710 c314 -390 571 -718 571 -728 0 -10 -245 -1102 -545 -2427 -300
-1326 -543 -2415 -541 -2420 3 -9 278 -59 282 -52 0 1 273 993 605 2203 332
1211 607 2200 611 2198 4 -3 199 -243 433 -534 l426 -529 452 -314 452 -313
19 30 c10 17 20 32 21 34 2 2 49 -20 106 -49 84 -42 150 -64 337 -114 215 -57
234 -61 244 -45 10 16 18 14 97 -20 l86 -38 16 21 c16 20 11 28 -147 224 -130
163 -190 228 -295 322 -119 107 -159 152 -404 462 -150 189 -269 345 -265 347
3 1 153 -31 332 -73 180 -41 332 -75 340 -75 7 1 39 43 72 94 l58 94 112 -71
c3821 -2435 5900 -3757 5903 -3753 2 2 19 28 38 57 26 42 31 57 22 65 -7 7
-1328 850 -2937 1875 -1609 1024 -2955 1882 -2993 1906 -66 42 -67 44 -52 66
15 23 12 27 -211 228 -124 112 -229 204 -234 204 -4 0 -29 -26 -54 -58 -29
-35 -52 -55 -59 -50 -11 6 -588 373 -719 457 l-58 37 -35 -55 c-19 -30 -35
-59 -35 -63 0 -5 173 -119 384 -253 l383 -244 -70 -88 c-39 -48 -74 -88 -78
-88 -8 0 -264 58 -291 66 -50 15 -156 138 -587 684 -258 327 -469 596 -468
597 1 0 407 -43 902 -98 495 -54 914 -99 930 -99 17 0 55 15 85 33 l56 34
1316 -141 c723 -78 1322 -146 1329 -152 8 -6 48 -38 89 -71 41 -33 167 -117
280 -187 113 -71 237 -152 276 -182 l71 -54 879 -184 879 -184 335 -122 335
-121 435 -68 435 -68 380 9 c349 8 395 11 570 39 105 16 703 104 1330 194 804
117 1582 237 2640 410 l1500 245 2410 225 c1326 123 3112 283 3970 356 1558
130 1560 131 1625 159 36 15 126 45 200 65 74 20 267 74 428 120 l293 84 144
88 144 88 1 199 0 199 39 -6 c61 -8 71 19 71 185 0 152 -4 161 -72 173 -34 7
-38 10 -38 39 0 29 -8 36 -144 119 -118 71 -165 94 -258 123 -62 19 -245 78
-405 132 l-293 97 0 41 c0 38 -2 42 -31 48 -17 3 -51 6 -74 6 -42 0 -44 2
-113 88 l-69 89 -74 12 c-41 6 -686 50 -1434 97 l-1360 86 -130 -30 -131 -29
-2394 123 c-2467 127 -2647 139 -2825 188 -52 14 -2023 291 -2675 376 -165 22
-264 40 -370 70 -144 40 -152 41 -935 120 -434 44 -884 89 -1000 101 l-210 22
-30 31 c-18 19 -210 132 -475 279 l-445 246 -642 148 c-353 81 -640 149 -639
150 1 1 1900 -187 4220 -419 3789 -379 4217 -424 4213 -439 -4 -14 21 -19 192
-39 108 -12 199 -23 203 -24 3 0 49 56 102 127 l97 127 14 118 c8 64 15 118
15 120 0 1 43 2 95 2 l95 0 -7 33 c-3 17 -6 35 -7 39 0 4 97 137 217 296 l217
289 -26 69 c-14 38 -39 104 -55 146 l-28 78 185 162 c101 90 188 164 192 166
4 1 22 -28 38 -65 89 -198 799 -1633 808 -1633 6 0 18 6 28 13 15 12 -8 66
-233 552 -412 891 -501 1086 -524 1154 l-22 65 54 51 53 50 -19 90 c-10 50
-42 213 -71 363 l-53 272 -38 0 c-28 0 -41 5 -49 20 -6 11 -9 24 -6 29 3 5
-12 29 -34 54 -28 32 -77 65 -163 112 l-122 67 -375 63 c-606 102 -698 121
-970 201 l-255 76 -1715 274 -1715 274 -297 170 c-163 94 -302 170 -307 170
-6 0 -11 -17 -11 -38 0 -36 5 -41 125 -136 69 -54 124 -100 122 -103 -2 -2
-150 20 -328 48 l-323 52 -293 169 c-161 92 -298 168 -303 168 -6 0 -10 -18
-10 -39 0 -38 3 -42 125 -137 68 -54 123 -99 122 -101 -2 -1 -151 22 -332 51
l-330 53 -288 166 c-159 92 -295 167 -303 167 -10 0 -14 -12 -14 -37 1 -37 6
-42 133 -141 78 -61 122 -101 107 -98 -14 3 -166 28 -338 56 l-313 50 -279
161 c-154 88 -289 163 -300 166 -17 5 -20 0 -20 -34 0 -37 3 -41 121 -133 66
-52 116 -96 112 -97 -5 -2 -625 96 -1378 217 l-1370 221 -515 49 c-283 27
-756 72 -1050 100 l-535 51 -359 185 -359 185 -176 43 c-97 24 -237 51 -311
60 -74 9 -427 52 -784 96 -616 76 -658 80 -840 79 l-191 -1 -190 -48z m6506
-4253 c-4 -31 -10 -60 -14 -63 -3 -4 -36 -3 -73 2 l-66 9 78 56 c44 32 80 56
81 55 1 -1 -2 -27 -6 -59z m-571 -132 c91 -8 224 -20 295 -25 72 -5 158 -13
193 -16 l62 -6 -6 -52 c-4 -28 -10 -69 -13 -92 l-6 -41 -421 97 c-232 54 -427
99 -434 102 -20 6 89 46 130 47 19 0 109 -6 200 -14z"/>
</g>
</svg>
