<?xml version="1.0" standalone="no"?>
<!DOCTYPE svg PUBLIC "-//W3C//DTD SVG 20010904//EN"
 "http://www.w3.org/TR/2001/REC-SVG-20010904/DTD/svg10.dtd">
<svg version="1.0" xmlns="http://www.w3.org/2000/svg"
   viewBox="0 0 4177.000000 3930.000000"
 preserveAspectRatio="xMidYMid meet">
<metadata>
Created by potrace 1.16, written by Peter Selinger 2001-2019
</metadata>
<g transform="translate(0.000000,3930.000000) scale(0.100000,-0.100000)"
fill="#000000" stroke="none">
<path d="M17774 39286 l-41 -11 193 -835 c106 -459 196 -853 198 -875 3 -22
82 -370 176 -774 93 -404 170 -738 170 -743 0 -4 -688 -8 -1530 -8 l-1530 0 0
-545 0 -545 -2322 -1 -2323 0 -1185 -1325 -1185 -1324 -3115 0 -3116 0 -49 51
c-48 48 -52 50 -99 47 l-48 -3 -334 323 c-184 177 -338 322 -342 322 -9 0 -52
-43 -52 -52 0 -3 144 -144 320 -313 304 -293 320 -310 320 -344 0 -33 10 -46
95 -131 l95 -95 0 -101 0 -101 -1035 -1564 -1035 -1564 0 -722 0 -723 235 0
235 0 0 -125 0 -125 168 0 168 0 182 -160 182 -161 0 -289 0 -290 -25 0 -25 0
0 160 0 160 -350 0 -350 0 0 -903 0 -904 70 -27 70 -28 0 -952 0 -951 -55 -33
-55 -33 0 -890 0 -889 335 0 335 0 0 155 0 155 25 0 25 0 0 -285 0 -285 922 0
c748 0 924 -2 937 -13 9 -7 36 -21 60 -30 42 -16 48 -15 179 13 l136 30 743 0
c409 0 743 -4 743 -9 0 -4 25 -18 55 -29 l55 -21 135 29 136 30 744 0 c452 0
745 -4 745 -9 0 -5 24 -19 54 -30 l53 -20 134 30 134 29 635 0 636 0 144 -56
145 -55 345 3 346 3 47 -55 47 -55 0 -1010 0 -1010 93 -93 92 -92 167 0 168 0
629 -585 c347 -322 633 -585 636 -585 4 0 39 29 77 65 l70 65 2394 0 2394 0 0
-1108 c0 -610 3 -1304 7 -1544 l6 -435 -61 -12 -62 -12 0 -72 c0 -40 3 -163 7
-274 l6 -201 54 -7 53 -6 0 -954 0 -953 -52 -9 -53 -8 -3 -272 c-3 -304 -10
-275 76 -288 l42 -7 0 -163 0 -163 -190 -103 -190 -104 0 -362 0 -362 37 -30
38 -31 408 0 409 0 96 74 97 74 2152 7 2152 7 274 -141 c152 -78 286 -141 301
-141 21 0 73 -41 224 -176 l197 -177 345 6 345 6 883 93 882 93 0 160 1 160
79 64 c65 52 80 68 80 91 l0 28 98 6 c53 3 1123 38 2377 77 1254 38 2295 72
2313 75 24 4 41 17 72 58 38 50 40 57 40 123 0 67 -2 73 -42 126 l-43 55
-2407 -5 -2408 -6 0 30 c0 30 0 30 -119 61 -65 18 -129 32 -142 33 -20 0 -63
54 -239 294 -118 162 -218 303 -221 314 -4 10 -9 843 -11 1850 l-3 1831 2070
-1 2070 0 1085 -1402 c597 -771 1422 -1824 1834 -2339 l750 -938 290 0 291 -1
265 -300 c146 -166 298 -338 337 -384 l73 -82 30 -373 c17 -205 32 -376 35
-380 2 -4 51 -41 107 -82 57 -41 914 -689 1904 -1439 l1802 -1366 523 84 c288
45 534 82 546 80 16 -1 244 -290 855 -1082 458 -594 1152 -1493 1541 -1997
l708 -917 11 -118 11 -118 84 -168 84 -168 -65 -627 c-36 -345 -68 -646 -71
-668 l-6 -42 40 -4 c39 -3 40 -3 45 32 3 19 36 320 72 668 63 601 68 635 89
656 18 19 24 39 30 102 11 131 12 132 112 209 l91 70 11 83 11 84 -3667 4751
c-2017 2614 -4991 6466 -6608 8562 -1617 2096 -2944 3815 -2948 3822 -4 7 20
31 63 63 69 51 70 52 70 98 0 26 11 327 25 670 l24 622 -891 1168 c-490 642
-892 1172 -894 1177 -2 6 252 876 565 1934 l568 1925 94 82 93 83 76 5 c145
10 177 17 210 44 30 26 32 31 42 140 l11 112 153 136 c136 120 152 138 145
157 -5 12 -34 83 -66 157 -31 74 -61 145 -66 158 l-9 22 2930 0 2930 0 0 -90
0 -90 220 0 220 0 0 90 0 90 125 0 125 0 0 125 0 125 -125 0 -125 0 0 90 0 90
-220 0 -220 0 0 -90 0 -90 -2961 0 -2962 0 7 53 c3 28 6 60 6 70 0 16 20 17
279 17 l279 0 6 28 c6 25 56 368 56 379 0 3 46 4 103 2 56 -2 317 -2 580 -1
l477 2 0 1165 0 1165 1960 0 1960 0 0 -85 0 -85 220 0 220 0 0 85 0 85 45 0
45 0 0 130 0 130 -45 0 -45 0 0 90 0 90 -220 0 -220 0 0 -90 0 -90 -1960 0
-1960 0 0 1455 0 1455 -1450 0 -1450 0 0 -455 0 -455 -1497 1376 c-824 757
-1511 1389 -1528 1404 -28 26 -41 29 -195 46 -155 17 -338 19 -2980 24 l-2814
5 -178 765 c-350 1509 -578 2483 -580 2485 -2 1 -21 -3 -44 -9z m-15554
-12101 l0 -145 -60 0 -60 0 0 145 0 145 60 0 60 0 0 -145z"/>
</g>
</svg>
