<?xml version="1.0" standalone="no"?>
<!DOCTYPE svg PUBLIC "-//W3C//DTD SVG 20010904//EN"
 "http://www.w3.org/TR/2001/REC-SVG-20010904/DTD/svg10.dtd">
<svg version="1.0" xmlns="http://www.w3.org/2000/svg"
   viewBox="0 0 4043.000000 4042.000000"
 preserveAspectRatio="xMidYMid meet">
<metadata>
Created by potrace 1.16, written by Peter Selinger 2001-2019
</metadata>
<g transform="translate(0.000000,4042.000000) scale(0.100000,-0.100000)"
fill="#000000" stroke="none">
<path d="M23215 40336 l-150 -83 -7 -124 c-4 -68 -6 -421 -5 -785 l2 -660 223
-177 222 -177 -1 -92 c0 -51 -8 -318 -17 -593 l-17 -500 -3236 4 -3237 4 -6
-714 c-4 -393 -6 -1031 -4 -1419 l3 -705 650 -132 c358 -72 653 -132 658 -132
4 -1 7 -317 7 -704 l0 -704 135 -179 134 -179 1 -792 c0 -786 0 -793 -20 -793
-20 0 -20 7 -20 665 0 366 -3 665 -7 664 -5 0 -89 -28 -188 -63 l-180 -62 -3
-1365 -2 -1365 182 -67 c101 -37 186 -67 191 -67 4 0 7 290 7 645 0 638 0 645
20 645 20 0 20 -7 20 -755 l0 -755 748 0 747 0 435 -480 c378 -417 435 -485
438 -515 l3 -35 -140 0 -141 0 0 115 0 115 -850 0 -850 0 0 -115 0 -115 -580
0 -579 0 -517 591 c-492 563 -516 593 -511 624 5 28 -1 40 -39 83 -41 47 -47
50 -69 40 -14 -6 -26 -9 -28 -7 -2 2 -49 56 -105 120 l-102 117 -45 -17 c-37
-13 -45 -20 -43 -37 2 -12 287 -356 633 -765 347 -408 631 -748 633 -753 1 -7
-1060 -163 -2955 -434 l-2958 -423 -1795 1 -1795 1 -228 23 c-125 13 -230 25
-233 28 -4 5 -33 331 -34 390 0 17 -32 18 -497 20 l-497 3 -98 325 c-54 179
-105 349 -113 378 l-16 52 -254 0 -255 0 0 -380 0 -380 -733 0 -732 0 -348
-430 -349 -430 -333 0 -333 0 -283 403 c-156 221 -371 528 -479 682 -755 1075
-1704 2422 -1714 2432 -9 10 -69 -22 -290 -156 -153 -93 -279 -171 -282 -173
-2 -3 40 -67 94 -144 l98 -139 134 0 134 0 604 -858 604 -858 -21 -35 -21 -36
212 -304 213 -305 39 3 39 3 183 -260 182 -260 -131 -6 c-73 -4 -488 -7 -924
-8 l-791 -1 4 -2157 c5 -2488 10 -3632 17 -3639 3 -3 102 -36 221 -73 l216
-67 -324 -460 -323 -459 -133 0 -134 0 -98 -139 c-54 -77 -97 -140 -95 -142 1
-2 128 -80 282 -173 218 -133 282 -168 291 -158 7 6 229 320 494 697 265 377
485 686 490 688 9 3 550 -165 559 -174 3 -3 45 -69 92 -147 l86 -142 162 -3
161 -2 0 -175 c0 -96 3 -175 7 -175 12 0 1256 -180 1285 -186 24 -5 28 -11 28
-38 l0 -32 -391 -57 c-215 -31 -395 -55 -399 -52 -4 2 -29 57 -55 120 -39 94
-52 116 -72 121 -18 5 -192 -68 -686 -287 -364 -161 -665 -296 -668 -301 -3
-5 -49 -127 -102 -271 l-97 -263 272 -649 273 -650 5 -462 5 -461 -67 -30 -67
-30 25 -64 c14 -34 29 -66 33 -71 4 -4 40 -1 81 8 53 11 302 117 911 387 l838
371 3 85 3 85 125 33 125 34 320 -149 320 -149 1697 -14 c933 -7 1699 -16
1703 -20 7 -6 1005 -2627 1005 -2638 0 -3 -14 -25 -32 -48 l-32 -42 -103 0
-103 0 0 -76 c0 -68 3 -80 30 -120 l31 -44 184 0 c117 0 185 -4 185 -10 0 -6
44 -10 113 -10 l113 0 69 85 70 85 260 -5 c143 -3 454 -7 690 -11 l430 -5
1250 -732 c688 -402 1282 -750 1321 -772 l71 -41 -111 -94 c-230 -196 -2504
-2196 -2566 -2257 -173 -169 -2421 -2059 -2475 -2079 -7 -3 -23 8 -36 25 -25
34 -27 35 -48 22 -11 -7 0 -25 49 -85 34 -42 69 -76 76 -76 26 0 26 22 0 49
-14 15 -26 32 -26 38 0 11 1316 1101 1375 1139 27 17 3254 2731 3300 2775 15
15 17 21 7 31 -7 7 -12 17 -12 24 0 14 252 234 268 234 5 0 16 -9 23 -19 13
-19 24 -11 188 130 l175 149 2041 0 c1123 0 2210 3 2416 6 l374 7 50 -114 c49
-112 52 -116 194 -266 l143 -153 387 -2 386 -3 -515 -440 c-283 -243 -931
-796 -1440 -1230 -509 -434 -1629 -1408 -2490 -2164 -1801 -1582 -1701 -1494
-1696 -1499 3 -2 -307 -269 -687 -594 -381 -324 -702 -600 -713 -613 -12 -13
-421 -353 -910 -756 -489 -403 -902 -743 -919 -757 l-29 -24 -43 48 c-39 45
-43 48 -58 33 -15 -15 -9 -25 71 -122 83 -101 89 -106 106 -91 17 16 16 19
-23 66 -23 27 -40 50 -38 52 2 1 415 342 918 756 503 414 920 753 926 754 13
2 4404 3699 4420 3721 7 10 3 21 -13 38 l-23 24 161 138 161 138 29 -28 28
-27 1512 1291 1511 1291 214 0 213 0 109 118 c59 64 120 132 135 150 l27 32
1235 0 1235 0 5 -52 c3 -29 13 -316 21 -638 9 -322 18 -595 21 -607 4 -21 10
-23 62 -23 l58 0 12 -482 c7 -266 12 -516 12 -555 l0 -73 -70 0 -70 0 1 -162
c0 -90 53 -1793 117 -3786 l117 -3624 -223 -177 -223 -177 -5 -675 c-2 -371 0
-707 4 -747 l7 -74 150 -84 150 -84 565 0 565 0 223 84 c123 47 225 86 226 88
2 2 55 1949 120 4328 64 2379 120 4400 123 4492 l6 168 -96 0 -97 0 0 38 c0
20 7 260 15 532 8 272 15 505 15 518 0 21 4 22 80 22 l80 0 0 48 c0 26 11 405
25 842 14 437 25 801 25 808 0 9 103 12 480 12 420 0 480 2 480 15 0 12 13 15
55 15 51 0 55 -2 55 -23 0 -13 306 -817 680 -1787 374 -969 680 -1765 680
-1766 0 -2 331 -4 736 -4 l736 0 -6 1067 c-3 588 -9 1303 -12 1590 l-6 523
-194 141 -194 141 0 224 0 224 -1210 0 -1210 0 0 -25 c0 -24 -3 -25 -55 -25
-52 0 -55 1 -55 25 l0 25 -320 0 -320 0 0 105 0 105 200 0 200 0 0 130 0 130
-202 0 -203 1 980 318 980 319 3 101 3 101 282 0 283 0 57 58 57 58 0 512 0
512 780 0 780 0 0 -328 0 -327 333 -480 c183 -264 356 -514 385 -556 l53 -76
19 -4929 c11 -2711 20 -5261 20 -5666 l0 -738 -378 0 -378 0 -944 -431 c-520
-237 -957 -437 -972 -443 l-27 -12 33 -72 c18 -40 36 -75 39 -78 3 -3 312 134
686 304 l680 311 333 -35 333 -34 1615 138 1616 138 35 27 c34 26 40 27 186
29 l150 3 -35 78 -35 77 -313 0 -314 0 0 4925 0 4924 40 32 40 32 0 158 0 158
30 16 30 16 0 1419 0 1420 3399 0 c3323 0 3403 0 3533 20 131 19 135 20 241
81 l107 62 62 106 63 106 3 138 4 138 -61 108 c-34 59 -69 115 -79 123 -9 8
-60 39 -112 70 -167 96 169 88 -3782 88 -3418 0 -3438 0 -3438 20 0 12 -20 36
-51 60 l-51 40 -134 0 -134 0 0 500 0 500 -190 0 c-189 0 -191 0 -230 26 l-40
27 0 146 -1 146 -82 51 c-75 46 -82 53 -80 80 2 16 39 312 83 659 l80 629 0
261 0 261 35 17 c30 14 68 17 230 17 l195 0 0 30 0 30 590 0 590 0 0 -80 0
-80 160 0 160 0 0 155 0 155 -25 0 c-20 0 -25 5 -25 25 l0 25 -725 0 -725 0 0
180 0 180 185 0 185 0 0 229 0 229 30 12 30 12 0 958 0 958 -30 12 -30 12 0
199 0 199 -185 0 -185 0 0 30 0 30 725 0 c718 0 725 0 725 20 0 15 7 20 25 20
l25 0 0 160 0 160 -160 0 -160 0 0 -85 0 -85 -590 0 -590 0 0 803 0 803 -105
472 -105 472 0 3351 0 3351 140 198 140 198 0 896 0 896 -95 0 -95 0 0 359 0
359 -37 6 c-68 11 -2185 251 -4563 517 -1963 219 -2326 258 -2335 246 -5 -8
-107 -186 -225 -396 -212 -378 -215 -382 -222 -344 -4 21 -37 1161 -73 2533
-36 1372 -67 2512 -68 2534 l-2 38 -225 84 -225 84 -565 0 -565 -1 -150 -83z
m-14281 -13789 c15 -11 -18 -18 -216 -46 -128 -18 -243 -35 -255 -38 -22 -5
-23 -2 -23 46 l0 51 238 0 c179 0 243 -3 256 -13z m-5056 -8833 l63 -7 -3
-150 -3 -151 -74 -13 c-40 -8 -76 -12 -78 -9 -3 3 -8 82 -11 177 l-5 172 24
-6 c13 -3 52 -9 87 -13z"/>
</g>
</svg>
