<?xml version="1.0" standalone="no"?>
<!DOCTYPE svg PUBLIC "-//W3C//DTD SVG 20010904//EN"
 "http://www.w3.org/TR/2001/REC-SVG-20010904/DTD/svg10.dtd">
<svg version="1.0" xmlns="http://www.w3.org/2000/svg"
   viewBox="0 0 4498.000000 1518.000000"
 preserveAspectRatio="xMidYMid meet">
<metadata>
Created by potrace 1.16, written by Peter Selinger 2001-2019
</metadata>
<g transform="translate(0.000000,1518.000000) scale(0.100000,-0.100000)"
fill="#000000" stroke="none">
<path d="M4740 15144 c-30 -20 -60 -43 -66 -50 -6 -8 -21 -65 -34 -128 l-23
-114 -84 -18 c-46 -9 -86 -21 -89 -26 -6 -10 -44 -252 -44 -283 0 -17 7 -24
33 -29 35 -7 470 -127 475 -132 2 -1 0 -84 -4 -183 l-7 -181 -56 -31 c-31 -18
-123 -77 -205 -133 l-148 -101 7 -180 c4 -99 8 -181 10 -183 1 -1 74 -11 161
-22 l159 -20 147 -72 c80 -39 145 -76 143 -82 -2 -6 -6 -24 -10 -39 l-6 -28
-29 25 -30 25 -132 -45 c-73 -24 -266 -73 -432 -109 -223 -49 -413 -100 -731
-194 l-430 -129 -310 -167 -310 -167 -192 -191 -193 -192 -55 -139 c-54 -134
-56 -141 -46 -188 6 -27 11 -50 11 -52 0 -3 -289 -139 -330 -155 -14 -5 -142
-85 -285 -178 l-260 -168 -34 -67 c-27 -54 -100 -141 -372 -440 l-339 -373 0
-75 c0 -65 -6 -91 -47 -200 -45 -121 -51 -129 -160 -261 -78 -95 -142 -187
-209 -300 l-97 -164 -37 -165 -38 -165 -7 -341 -7 -341 218 -6 c121 -4 288 -7
371 -7 l153 0 2 -382 3 -382 298 -62 c164 -34 300 -64 303 -67 3 -2 27 -33 54
-68 l49 -64 663 -97 c450 -66 722 -101 846 -109 l182 -12 0 -279 c0 -235 2
-278 14 -278 8 0 117 -12 243 -26 l228 -26 505 11 c278 6 579 14 669 17 l163
6 -7 -21 c-3 -12 -3 -61 0 -109 l7 -87 527 -59 c289 -32 535 -60 546 -63 13
-2 34 -30 58 -76 21 -40 53 -89 72 -110 l34 -39 269 11 c148 6 319 11 380 11
l111 0 109 -60 109 -60 1495 0 1494 0 870 130 c478 71 884 132 902 135 31 6
32 7 32 60 0 63 -30 52 254 95 174 27 220 38 355 86 l156 56 95 116 c92 113
96 121 140 247 l45 129 40 12 c26 8 130 13 305 13 l265 1 175 -135 175 -135
712 0 713 0 602 332 c332 182 607 331 613 331 5 0 158 -48 339 -106 l328 -106
662 -107 661 -107 2115 25 2115 24 65 35 c37 19 197 142 373 287 l309 252
1321 0 1322 0 285 -46 285 -46 185 -102 185 -101 75 -150 c41 -83 219 -443
395 -800 l320 -650 128 -105 128 -105 2582 -633 c1481 -363 3160 -766 3937
-947 745 -174 1364 -319 1375 -324 13 -5 109 -172 264 -456 135 -246 252 -455
260 -465 10 -11 195 -77 457 -164 l440 -146 270 105 c148 58 275 105 283 105
8 0 170 -71 360 -159 190 -87 391 -178 446 -201 55 -24 105 -47 111 -51 6 -5
98 -152 204 -328 l194 -318 70 -37 c65 -33 298 -88 2636 -627 1411 -325 2591
-596 2622 -604 l58 -13 77 106 c42 59 87 121 100 138 l22 30 -85 119 -85 120
33 26 c30 25 31 29 20 54 -11 23 -267 390 -293 419 -5 5 -25 -2 -47 -17 l-39
-26 -22 29 c-27 37 -27 39 10 70 29 23 31 28 20 49 -12 21 -284 406 -300 423
-4 4 -24 -4 -44 -19 l-38 -27 -24 30 c-13 16 -24 32 -25 36 0 4 15 18 34 30
33 22 34 23 20 51 -11 21 -281 404 -300 426 -2 2 -21 -8 -43 -22 l-40 -27 -20
29 c-28 39 -27 47 10 68 20 12 29 24 25 35 -2 10 -73 114 -157 232 l-152 214
-40 -26 -39 -26 -24 29 c-13 17 -24 33 -24 36 0 4 15 17 34 30 34 23 34 24 19
53 -13 25 -441 625 -464 650 -5 6 -23 -1 -45 -17 l-37 -26 -17 22 c-9 12 -45
63 -80 112 -35 50 -76 104 -91 120 l-28 30 609 -4 c388 -2 610 0 610 6 0 6
-10 21 -22 34 -23 24 -33 25 -752 87 l-728 63 -172 159 -173 159 -63 3 -63 3
-449 670 c-682 1017 -750 1130 -1085 1804 l-225 455 -184 505 -184 504 -52
410 -52 410 62 56 61 56 56 265 c34 159 89 373 137 535 75 251 87 284 178 465
54 107 121 233 149 280 48 80 51 89 51 152 l0 67 -372 121 c-205 67 -554 181
-775 253 l-403 131 0 38 c0 47 17 38 -275 137 l-209 72 -1116 194 c-614 107
-1134 195 -1157 195 -23 0 -217 36 -432 80 -676 138 -2645 501 -2771 510 -241
19 -573 31 -1415 50 -818 19 -1193 20 -6260 20 -3202 0 -5402 -3 -5420 -9 -85
-25 -85 -25 -85 -121 l0 -87 -67 -6 c-38 -4 -297 -7 -576 -7 -503 0 -512 0
-765 30 -142 17 -292 37 -336 45 -61 12 -167 15 -480 15 -328 -1 -508 5 -991
32 l-591 32 38 206 c21 113 36 213 34 222 -2 9 -63 99 -136 200 l-133 184
-246 67 -246 68 -61 67 -62 66 -298 23 c-290 21 -345 22 -1857 22 l-1559 1
-66 -55 -66 -55 -941 0 -940 0 -35 -41 -36 -41 -74 9 c-46 5 -88 5 -108 -1
-20 -6 -112 -78 -240 -191 l-207 -183 -6 62 c-4 33 -7 85 -8 114 l-1 52 45 22
c25 12 45 27 45 33 0 6 -14 54 -30 105 l-30 95 185 183 186 182 1224 0 1223 0
41 33 c22 17 49 39 59 47 16 12 26 54 51 209 17 107 28 197 24 201 -4 4 -332
66 -728 139 l-720 131 -780 40 -780 40 -1042 0 -1042 0 -27 38 c-26 36 -33 40
-103 51 -173 29 -157 20 -240 139 l-74 107 -151 57 -151 56 -280 11 c-154 6
-368 11 -475 11 l-195 0 -55 -36z"/>
</g>
</svg>
