<?xml version="1.0" standalone="no"?>
<!DOCTYPE svg PUBLIC "-//W3C//DTD SVG 20010904//EN"
 "http://www.w3.org/TR/2001/REC-SVG-20010904/DTD/svg10.dtd">
<svg version="1.0" xmlns="http://www.w3.org/2000/svg"
   viewBox="0 0 4629.000000 1054.000000"
 preserveAspectRatio="xMidYMid meet">
<metadata>
Created by potrace 1.16, written by Peter Selinger 2001-2019
</metadata>
<g transform="translate(0.000000,1054.000000) scale(0.100000,-0.100000)"
fill="#000000" stroke="none">
<path d="M7523 10443 l-73 -96 0 -66 -1 -66 -89 -65 -89 -65 -1 -626 0 -627
90 -67 90 -67 0 -77 0 -76 133 -161 c121 -148 138 -164 203 -199 51 -27 70
-42 68 -54 -2 -9 -45 -202 -94 -430 -50 -228 -93 -425 -97 -439 -5 -20 -10
-23 -33 -18 -31 6 -18 43 -152 -444 l-53 -194 -3 804 -3 805 -120 73 -121 72
-1488 0 -1489 0 -120 -72 -121 -73 0 -927 c0 -877 -1 -928 -17 -928 -10 0 -61
-34 -113 -76 -52 -41 -100 -78 -107 -81 -7 -2 -57 32 -111 76 -68 56 -107 81
-126 81 l-26 0 0 928 -1 927 -121 73 -121 72 -1488 0 -1488 0 -120 -72 -121
-73 2 -1844 3 -1845 115 -69 115 -70 189 -14 189 -15 49 -54 50 -54 1017 0
1016 0 50 55 50 54 190 15 190 14 117 72 118 72 2 261 3 262 29 3 c20 3 63 32
125 83 57 48 99 75 105 70 6 -4 52 -40 103 -79 50 -40 100 -72 112 -72 20 0
21 -4 23 -267 l3 -267 115 -69 115 -70 189 -14 189 -15 49 -54 50 -54 1018 0
1018 0 47 54 46 54 92 6 c51 4 108 9 127 12 l35 5 93 -193 94 -193 359 -275
c198 -151 375 -282 394 -290 35 -15 35 -15 35 -82 l0 -66 -102 -6 c-57 -3
-245 -10 -418 -16 l-315 -10 -328 -122 -327 -121 2 -956 3 -955 325 -146 325
-147 675 -62 675 -62 819 1 819 0 240 108 240 107 337 308 337 308 7 107 c3
58 9 109 14 113 4 3 198 59 431 124 l425 119 299 231 299 231 100 190 100 189
97 425 97 425 50 40 c27 22 59 47 71 55 22 14 23 28 43 320 11 168 20 388 20
491 l0 186 163 220 162 220 7 -301 c7 -275 10 -310 34 -408 l26 -107 36 -5
c21 -3 141 -13 267 -22 l230 -17 63 -56 c35 -31 80 -70 100 -88 l37 -32 933
29 c513 16 938 33 945 37 7 4 41 30 77 58 l65 52 210 12 c116 6 235 14 265 18
l55 5 44 77 44 76 5 302 5 303 53 45 53 46 66 -51 65 -52 0 -296 1 -297 116
-69 116 -69 186 -14 186 -15 55 -54 56 -54 1009 0 1009 0 56 54 55 54 186 15
186 14 116 69 116 69 1 300 0 300 52 42 c29 23 58 42 63 43 6 1 40 -22 76 -49
l66 -51 7 -262 c7 -234 10 -274 33 -365 l25 -102 37 -5 c20 -3 140 -13 266
-22 l230 -17 63 -56 c35 -31 80 -70 100 -88 l37 -32 933 29 c513 16 938 33
945 37 7 4 41 30 77 58 l65 52 210 12 c116 6 235 14 265 18 l55 5 44 76 44 76
5 268 5 268 24 0 c16 0 50 26 106 79 l82 79 82 -79 c58 -55 90 -79 107 -79 14
0 27 -4 30 -9 3 -4 13 -499 21 -1100 l15 -1091 36 -132 c19 -73 36 -134 38
-136 4 -3 615 -51 666 -52 17 0 65 -35 153 -111 l128 -111 1262 36 1262 37 95
72 95 73 300 18 c165 9 317 19 337 22 35 5 42 13 96 101 l59 94 7 1137 c4 625
9 1138 10 1140 2 1 21 5 42 9 32 4 54 20 119 84 l80 79 85 -79 c77 -71 91 -79
137 -86 l51 -7 6 -181 c3 -100 11 -591 17 -1092 l11 -910 35 -135 c19 -74 36
-136 38 -138 3 -4 622 -52 666 -52 18 0 63 -32 153 -110 118 -102 130 -110
169 -110 23 0 587 16 1252 35 666 19 1215 35 1221 35 6 0 54 33 105 73 l94 72
331 21 c182 11 336 24 342 28 6 4 36 48 67 99 l55 92 6 1137 7 1137 46 7 c39
6 59 18 132 85 l85 78 80 -80 79 -79 82 -7 81 -6 6 -181 c3 -100 10 -588 16
-1086 l10 -905 37 -146 37 -145 325 -23 c179 -13 338 -26 353 -29 15 -4 82
-55 150 -113 l123 -105 1261 36 1261 36 95 72 95 72 304 20 c167 11 318 20
336 20 29 0 36 8 92 99 l61 100 7 1156 c4 796 10 1152 17 1145 5 -5 31 -10 58
-10 l47 0 3 -72 c3 -71 4 -73 31 -76 16 -2 27 -9 27 -19 0 -9 26 -73 58 -144
l57 -128 148 -3 149 -3 89 -245 c71 -195 99 -259 137 -315 27 -38 103 -149
170 -246 110 -160 133 -186 251 -294 72 -65 131 -120 131 -121 0 -2 -29 -12
-65 -23 -62 -19 -78 -31 -271 -208 l-204 -188 -40 -125 c-22 -69 -71 -231
-110 -361 -92 -310 -92 -315 -6 -487 36 -71 89 -203 121 -297 l57 -170 231
-220 232 -220 475 -321 475 -321 310 -113 c171 -62 409 -151 530 -198 l220
-84 1252 -30 1252 -31 192 136 c190 135 193 137 315 284 l123 148 6 75 c3 41
7 94 10 117 4 39 0 47 -60 122 -49 60 -81 89 -128 115 -51 29 -82 59 -163 155
l-99 119 -161 72 -160 71 53 297 53 297 0 484 0 485 -120 433 -120 433 -125
267 -126 268 -128 125 -128 125 10 214 c10 198 9 228 -12 410 -21 180 -28 211
-82 376 -37 112 -98 266 -163 408 -93 204 -115 244 -207 370 -99 137 -107 145
-223 229 -461 332 -404 297 -591 365 -129 47 -192 65 -260 73 -49 5 -96 10
-102 10 -10 0 -13 73 -15 313 l-3 312 -60 31 c-53 28 -66 31 -108 25 -28 -5
-58 -17 -73 -32 -28 -27 -23 -29 -68 33 -6 9 -36 23 -66 30 -47 12 -69 12
-172 -3 -102 -15 -133 -24 -237 -72 -82 -38 -150 -79 -218 -131 l-99 -76 -119
-5 c-66 -3 -283 -7 -482 -10 l-363 -5 0 43 0 44 -167 6 c-91 4 -286 7 -432 7
l-266 0 -117 -51 -118 -52 0 -243 0 -244 -115 0 -115 0 -3 -297 c-1 -164 -1
276 1 977 l4 1275 -117 109 -116 108 -2059 -7 c-1133 -4 -2086 -10 -2117 -14
l-57 -6 -88 -130 -89 -130 11 -735 c6 -404 15 -972 18 -1263 l7 -527 -71 0
c-66 0 -72 -2 -100 -31 -16 -17 -55 -54 -87 -82 l-58 -50 -82 81 c-77 77 -85
82 -125 82 l-43 0 7 1297 7 1297 -119 114 -119 113 -745 -5 c-410 -3 -1360 -9
-2111 -12 l-1367 -6 -92 -135 -91 -134 10 -652 c6 -359 14 -928 17 -1264 l7
-613 -44 0 c-41 0 -48 -4 -126 -82 l-82 -82 -90 82 c-78 72 -94 82 -126 82
l-37 0 7 248 c4 136 8 721 8 1300 l2 1053 -115 109 -115 109 -1185 -6 c-652
-3 -1603 -8 -2114 -12 l-928 -6 -90 -132 -90 -132 16 -1153 c20 -1458 21
-1378 -2 -1378 -9 0 -55 -38 -102 -85 l-85 -85 -85 85 c-57 57 -93 85 -108 85
l-23 0 5 203 c11 403 17 1299 10 1510 l-7 216 -70 83 -69 82 -677 -2 c-372 -1
-1097 -5 -1612 -9 l-936 -6 -68 -106 -68 -105 12 -691 c6 -379 14 -814 17
-966 l7 -276 -61 -46 c-33 -26 -63 -47 -67 -47 -4 0 -31 21 -61 46 l-54 46 0
963 0 962 -119 72 -119 71 -1487 0 -1487 0 -119 -71 -119 -72 0 -961 0 -961
-57 -44 c-31 -24 -62 -44 -69 -45 -7 -1 -36 17 -64 39 l-51 40 5 295 c13 689
17 1254 11 1473 l-8 234 -69 84 -70 83 -676 -2 c-373 -1 -1098 -5 -1613 -9
l-936 -6 -68 -105 -68 -106 16 -915 c9 -503 15 -917 13 -919 -2 -1 -74 96
-160 217 l-156 220 0 106 0 105 -119 0 -119 0 -6 303 c-3 166 -8 642 -11 1057
l-6 755 -41 157 -41 158 -121 141 -121 140 -218 100 -218 99 -120 7 -119 6
-124 146 -123 147 -214 82 -214 82 -522 0 -523 0 0 38 c0 20 -3 47 -6 60 l-6
22 -1397 0 -1396 0 -72 -97z"/>
</g>
</svg>
