<?xml version="1.0" standalone="no"?>
<!DOCTYPE svg PUBLIC "-//W3C//DTD SVG 20010904//EN"
 "http://www.w3.org/TR/2001/REC-SVG-20010904/DTD/svg10.dtd">
<svg version="1.0" xmlns="http://www.w3.org/2000/svg"
   viewBox="0 0 4661.000000 1334.000000"
 preserveAspectRatio="xMidYMid meet">
<metadata>
Created by potrace 1.16, written by Peter Selinger 2001-2019
</metadata>
<g transform="translate(0.000000,1334.000000) scale(0.100000,-0.100000)"
fill="#000000" stroke="none">
<path d="M18653 13267 l-103 -72 7 -35 c13 -69 10 -77 -97 -204 -101 -122
-106 -127 -168 -147 l-63 -21 -55 -109 -54 -110 -308 3 -307 3 -110 41 -111
42 -269 -97 -270 -98 -319 -234 c-273 -201 -320 -239 -330 -269 -11 -33 -13
-35 -96 -52 -47 -9 -93 -17 -102 -18 -13 0 -34 33 -74 113 -31 61 -58 114 -59
115 -2 2 -114 -30 -250 -71 -164 -50 -254 -82 -270 -97 -18 -17 -27 -20 -43
-11 -17 9 -876 31 -1224 31 l-107 0 -114 -105 -115 -105 -111 0 -111 0 0 65 0
65 -150 225 -150 225 -38 -5 c-20 -3 -552 -69 -1182 -146 -909 -111 -1198
-149 -1403 -188 -142 -27 -262 -53 -267 -57 -5 -5 -26 -54 -48 -108 l-39 -99
-730 -248 -730 -247 -365 -257 -364 -257 23 -142 c12 -77 25 -156 28 -173 6
-31 4 -33 -22 -33 -25 0 -34 11 -92 121 l-65 121 -75 -6 c-42 -4 -336 -29
-653 -56 -317 -28 -606 -50 -642 -50 l-66 0 -65 130 -65 130 -215 0 -214 0
-42 63 c-23 34 -43 63 -44 64 -1 2 -114 -17 -251 -41 -161 -28 -366 -74 -580
-129 l-331 -86 -695 -268 -695 -268 -55 -65 c-54 -64 -67 -71 -654 -407 l-599
-342 -579 -396 c-494 -339 -626 -434 -902 -656 l-324 -259 -40 -80 c-22 -44
-40 -86 -40 -95 0 -13 57 -15 482 -15 l482 0 117 55 c64 30 119 55 122 55 2 0
7 -35 11 -78 l7 -77 52 -21 53 -21 427 30 c235 16 429 28 431 26 2 -2 6 -21
10 -41 7 -41 18 -35 -99 -53 l-35 -6 0 -74 c0 -71 -1 -75 -22 -75 -13 0 -162
-5 -333 -10 l-310 -10 -87 -42 -88 -42 0 -281 0 -281 85 -42 c74 -36 94 -42
150 -42 l65 0 0 -355 0 -355 148 -74 148 -74 259 -17 c143 -9 270 -18 283 -21
21 -4 22 -8 22 -124 l0 -120 58 -29 c81 -41 127 -51 537 -117 260 -41 366 -62
383 -75 14 -11 51 -20 97 -24 l75 -7 56 -64 56 -64 336 0 c385 0 622 -19 1148
-89 166 -23 306 -41 311 -41 6 0 14 -24 19 -52 8 -48 13 -55 52 -76 26 -15
136 -45 279 -78 169 -38 239 -58 249 -71 7 -10 50 -73 96 -140 l83 -122 280 0
280 0 75 64 75 65 461 0 461 0 12 -70 c6 -38 16 -92 22 -120 l11 -50 581 0
582 0 59 -250 c33 -138 66 -256 73 -262 7 -5 321 -172 698 -369 l686 -358 972
-45 972 -44 265 -85 265 -85 1045 -41 c575 -23 1055 -41 1068 -41 l22 0 0 730
0 730 449 0 450 0 778 214 778 213 259 106 259 107 38 -22 38 -21 298 122
c177 73 371 161 476 217 l178 94 181 0 180 0 60 50 60 50 357 0 357 0 49 -50
49 -50 189 0 189 0 60 50 60 50 357 0 356 0 60 -50 60 -49 1321 -1 1322 0 65
-152 66 -153 -419 -21 -419 -22 -64 -53 -65 -53 28 -81 c16 -44 59 -143 95
-220 37 -77 98 -218 136 -313 114 -285 108 -276 246 -363 118 -75 118 -75 258
-103 77 -15 149 -30 160 -32 14 -4 42 14 96 60 l75 64 460 -64 c454 -63 461
-64 686 -64 l227 0 73 -95 73 -94 153 -1 152 0 0 -68 c0 -37 5 -73 11 -79 13
-13 13 -13 -207 -48 -157 -25 -857 -185 -871 -199 -4 -4 -16 -95 -28 -204
l-20 -197 31 -188 c17 -103 35 -192 40 -196 5 -5 167 -52 359 -104 323 -88
374 -99 655 -141 168 -25 319 -48 336 -51 28 -5 35 -14 67 -83 l35 -77 179
-73 178 -72 531 0 530 0 149 -34 149 -34 109 34 c114 36 226 45 281 24 15 -5
68 -40 118 -77 l93 -68 302 -10 c217 -7 306 -14 315 -22 9 -10 76 -13 265 -13
l252 0 107 328 c58 180 108 329 110 331 2 2 22 -9 45 -24 32 -23 50 -28 87
-26 47 2 48 1 110 -68 l63 -71 363 0 363 0 22 -82 c12 -46 31 -118 42 -160
l21 -78 203 0 c163 0 204 3 208 14 4 11 57 15 254 21 136 4 259 12 273 17 14
5 40 24 58 41 l33 32 622 14 622 14 257 -182 256 -181 148 -21 c148 -21 149
-22 205 -65 48 -36 66 -45 120 -51 l64 -8 3 -323 2 -322 255 0 255 0 0 -110 0
-110 96 -193 97 -193 225 -85 226 -86 214 86 214 86 99 197 99 198 0 105 0
105 190 0 190 0 0 180 0 180 793 0 792 0 35 -55 35 -55 390 0 c215 0 470 5
568 12 l177 11 28 44 27 43 536 0 537 0 167 -130 c144 -112 172 -130 204 -130
20 0 365 -14 766 -30 402 -16 747 -30 767 -30 37 0 40 3 158 160 l120 160 395
0 395 0 0 38 0 38 63 -3 c34 -2 314 -15 622 -28 l560 -25 293 -105 294 -105
296 0 297 0 41 52 41 53 -516 263 c-284 144 -724 359 -977 477 -454 210 -474
219 -1315 533 -470 176 -924 346 -1009 377 -85 32 -194 77 -241 101 -47 23
-137 63 -200 88 -135 55 -147 55 -474 26 -121 -11 -225 -20 -231 -20 -7 0
-119 -93 -250 -206 -162 -140 -294 -244 -410 -323 l-172 -117 -668 -12 c-800
-15 -1324 -16 -1324 -3 0 6 5 13 11 16 6 4 194 7 417 6 224 0 447 3 496 8 l90
9 124 126 c124 126 124 126 158 117 33 -9 38 -6 139 75 102 82 105 84 159 84
55 0 55 0 100 56 26 31 46 66 46 79 0 36 466 400 890 696 340 237 520 376 520
402 0 22 -58 219 -66 227 -5 5 -133 64 -284 131 -151 67 -281 127 -288 133 -7
7 -34 47 -61 90 l-48 78 -384 165 c-211 90 -669 298 -1018 460 l-634 296 -156
-77 c-86 -43 -196 -101 -246 -128 -224 -125 -1071 -612 -1083 -623 -12 -10
-11 -18 2 -44 l17 -31 -43 0 c-24 0 -189 11 -368 25 -179 14 -339 25 -357 25
l-32 0 143 187 c79 104 141 191 137 194 -3 3 -297 68 -652 143 l-645 137 -279
-107 -278 -107 -194 10 -193 11 -126 118 c-69 66 -148 138 -174 161 l-48 43
-481 43 -481 43 -21 -21 -20 -20 6 25 c8 36 205 1112 205 1122 0 4 159 8 354
8 l355 0 97 108 98 107 437 -10 c415 -9 438 -11 460 -30 13 -11 87 -79 164
-151 l140 -131 220 -7 c121 -4 252 -9 290 -11 l70 -5 129 141 c103 112 149
154 226 205 l96 64 459 -20 c252 -11 494 -20 538 -20 73 0 78 1 75 20 -2 15
-59 52 -215 138 l-213 117 -87 130 -88 130 -535 353 -535 352 -889 483 -890
482 -55 87 -56 86 -940 493 -940 492 -160 12 -160 13 -58 -34 c-49 -29 -61
-32 -85 -23 -15 6 -153 21 -307 34 l-280 24 -1300 448 -1300 448 -90 175 -90
174 -349 116 c-270 90 -351 121 -357 136 -5 10 -15 44 -24 74 l-15 55 -290 97
-290 96 -61 -71 c-72 -83 -66 -81 -270 -92 -132 -7 -137 -7 -148 13 -6 12 -46
46 -89 77 l-78 55 -42 128 -42 127 -1082 97 -1083 97 -35 -33 -35 -32 -118 11
c-109 10 -119 9 -135 -8 -16 -17 -17 -17 -32 1 -13 17 -56 22 -370 50 l-355
32 -303 -36 -303 -35 -112 79 -112 78 -142 33 c-78 18 -218 41 -310 52 -92 10
-174 20 -180 22 -20 3 -192 140 -188 148 3 3 44 10 91 14 l87 7 -45 45 -44 44
-345 95 -344 95 -395 24 c-297 19 -488 25 -772 25 -360 0 -377 1 -383 19 -4
15 -39 27 -170 60 l-165 41 -282 0 -283 -1 -102 -72z"/>
</g>
</svg>
