<?xml version="1.0" standalone="no"?>
<!DOCTYPE svg PUBLIC "-//W3C//DTD SVG 20010904//EN"
 "http://www.w3.org/TR/2001/REC-SVG-20010904/DTD/svg10.dtd">
<svg version="1.0" xmlns="http://www.w3.org/2000/svg"
   viewBox="0 0 4364.000000 1848.000000"
 preserveAspectRatio="xMidYMid meet">
<metadata>
Created by potrace 1.16, written by Peter Selinger 2001-2019
</metadata>
<g transform="translate(0.000000,1848.000000) scale(0.100000,-0.100000)"
fill="#000000" stroke="none">
<path d="M13868 18453 l-26 -28 548 -565 c302 -311 546 -566 542 -567 -4 -1
-324 -6 -712 -12 -388 -6 -764 -14 -836 -17 l-131 -6 -578 597 -578 596 -30
-30 -31 -30 246 -253 c135 -139 380 -392 546 -563 l300 -310 -197 -6 c-108 -4
-466 -12 -796 -18 -330 -6 -619 -14 -642 -16 l-42 -5 -577 595 c-317 327 -580
595 -584 595 -3 0 -18 -12 -32 -27 l-27 -28 549 -565 c301 -311 543 -566 536
-567 -6 -2 -416 -12 -911 -23 -3089 -71 -3375 -81 -6300 -215 -1502 -68 -3039
-137 -3417 -152 l-688 -27 0 -263 0 -263 389 0 388 0 219 -227 c120 -126 263
-274 318 -330 l99 -102 -55 -15 c-40 -12 -66 -28 -100 -64 -25 -26 -48 -58
-51 -72 -4 -14 -58 -541 -121 -1170 -95 -950 -115 -1182 -119 -1363 l-5 -217
40 -49 40 -49 167 -32 c91 -17 1192 -226 2446 -463 l2280 -433 3 -24 c11 -110
9 -106 72 -147 40 -25 60 -45 60 -58 0 -11 12 -74 27 -139 l27 -119 86 -68 85
-68 683 -1 682 0 -16 -25 -16 -25 -493 0 -493 0 -6 -37 c-2 -21 -26 -209 -52
-418 l-48 -380 -48 -53 c-26 -29 -52 -70 -57 -90 -42 -161 -132 -598 -141
-687 -6 -60 -20 -150 -31 -200 -11 -49 -22 -100 -25 -112 l-4 -23 615 0 615 0
42 -85 42 -85 796 0 795 0 38 -70 37 -70 1379 0 1378 0 197 -200 197 -200 352
0 353 0 1843 -1015 1842 -1015 1057 0 1057 0 915 -398 915 -398 3 -504 2 -504
-42 -43 c-23 -24 -45 -43 -49 -43 -3 0 -13 18 -22 40 l-15 40 -76 0 -76 0 0
199 0 199 -35 31 -36 31 -212 0 c-147 0 -538 -20 -1265 -65 -579 -36 -1069
-65 -1088 -65 -32 0 -34 -2 -34 -33 l0 -34 118 -6 c64 -4 212 -10 327 -13 116
-4 219 -10 231 -14 11 -5 25 -23 30 -42 l11 -34 -91 -77 -90 -77 -458 0 c-252
0 -458 -2 -458 -5 0 -3 -72 -328 -161 -723 -88 -394 -163 -728 -165 -742 -4
-18 -58 -67 -179 -165 l-174 -140 0 -707 -1 -708 1475 0 1475 0 0 -50 c0 -27
-2 -50 -5 -50 -3 0 -117 -25 -252 -55 l-247 -55 -947 0 -947 0 -6 -72 c-3 -40
-7 -100 -8 -133 l-3 -60 595 -32 c344 -18 861 -38 1225 -47 752 -18 1574 -58
1760 -86 225 -34 238 -40 447 -208 101 -81 259 -211 351 -290 l168 -142 2211
0 2210 0 83 62 84 61 143 -2 c79 -1 670 -17 1313 -35 l1170 -32 460 22 460 22
2185 321 2185 322 2065 89 c1601 70 2083 93 2145 106 56 12 103 30 159 62 89
52 209 149 201 163 -3 5 -1 18 5 29 9 16 21 20 63 20 l52 0 144 321 143 321
-31 38 -30 38 51 73 c28 40 89 140 135 221 91 161 305 511 968 1578 240 388
440 711 442 718 6 14 -34 62 -51 61 -10 0 -1391 -2112 -1428 -2183 -15 -30
-23 -33 -121 -55 -57 -13 -109 -26 -114 -30 -6 -3 -29 -36 -52 -74 -24 -37
-44 -67 -46 -67 -7 0 -360 403 -358 409 1 4 45 77 98 163 76 125 94 161 86
175 -5 10 -148 248 -319 530 l-309 511 33 54 c19 29 34 56 34 61 0 4 -61 7
-135 7 l-135 0 0 325 0 325 -355 0 c-348 0 -355 0 -355 -20 0 -20 -7 -20
-3130 -20 l-3130 0 0 -306 0 -305 -28 3 c-22 2 -60 38 -171 161 l-144 157
-553 0 -554 0 0 54 0 54 -82 30 c-46 16 -366 134 -713 262 l-630 232 -255 35
-255 35 -652 228 c-587 206 -664 230 -765 244 -62 9 -116 16 -120 16 -4 0 -8
101 -8 224 l0 225 -178 123 -179 124 59 64 59 65 -6 50 c-3 28 -20 104 -36
169 l-30 120 -101 139 c-87 120 -120 156 -247 267 -130 115 -164 139 -302 214
l-157 85 -118 16 c-65 8 -145 15 -178 15 l-59 0 -91 -87 -90 -88 -63 475 c-35
261 -61 484 -58 495 2 11 22 41 44 67 l39 48 109 -85 108 -85 64 0 64 0 106
104 106 104 4140 19 4140 20 101 51 101 51 6 77 c4 42 7 87 7 100 0 31 -48 63
-129 86 -61 18 -248 24 -2641 83 -1416 35 -2624 65 -2683 67 l-108 3 1018 179
c560 99 1030 182 1046 184 27 4 27 4 27 88 l0 84 -992 0 -993 0 957 428 c937
418 958 428 962 457 3 17 8 60 11 98 l7 67 762 0 761 0 80 80 c77 77 81 80
127 80 40 0 47 -3 50 -21 2 -18 20 -26 103 -50 98 -28 106 -28 358 -29 247 0
257 1 257 19 0 13 8 21 23 23 12 2 26 13 32 26 9 20 17 22 82 22 55 0 73 -3
73 -14 0 -9 39 -24 114 -45 113 -31 114 -31 365 -31 241 0 251 1 251 19 0 13
8 21 23 23 12 2 26 13 32 26 9 19 17 22 72 22 40 0 67 -5 76 -14 7 -8 64 -28
125 -45 111 -31 113 -31 362 -31 243 0 250 1 250 20 0 13 7 20 20 20 10 0 24
9 30 20 9 17 21 20 85 20 40 0 75 -4 77 -8 2 -5 55 -23 118 -40 115 -32 115
-32 363 -32 240 0 247 1 247 20 0 12 7 20 16 20 9 0 23 8 30 17 19 27 133 18
278 -23 l121 -34 248 0 247 0 0 25 c0 18 5 25 19 25 11 0 23 5 26 10 14 23
154 11 281 -25 l124 -35 245 0 245 0 0 25 c0 18 5 25 20 25 11 0 23 7 26 15 5
12 24 15 83 15 42 0 81 -4 86 -9 6 -4 62 -22 126 -40 127 -34 158 -36 432 -24
144 6 157 8 157 25 0 12 7 18 24 18 13 0 27 7 30 16 10 26 150 13 275 -25
l104 -31 254 0 c246 0 253 1 253 20 0 13 7 20 19 20 10 0 24 7 31 15 22 27
128 19 263 -20 l121 -35 253 0 c246 0 253 1 253 20 0 13 7 20 19 20 10 0 24 7
31 15 23 27 132 19 267 -20 l122 -35 250 0 c244 0 251 1 251 20 0 12 7 20 16
20 9 0 22 6 28 14 9 12 74 2 421 -65 226 -43 418 -79 429 -79 10 0 31 11 48
25 28 24 35 25 172 25 l142 0 30 31 c26 27 34 53 80 263 l50 233 -28 39 -27
39 398 1260 c219 693 402 1278 405 1300 4 22 20 53 35 70 82 89 182 301 274
580 120 365 262 1015 288 1315 6 74 13 156 16 183 4 42 3 47 -15 47 -19 0 -20
6 -19 130 1 85 -3 134 -10 141 -6 6 -46 15 -90 21 -43 5 -2596 173 -5673 373
l-5595 363 -255 51 -255 51 -300 130 -300 130 -1950 116 -1950 115 -1230 21
-1230 20 -1060 -36 -1060 -36 -509 -51 -508 -52 -489 489 -488 488 -26 -24
c-19 -18 -25 -33 -25 -66 l0 -43 411 -427 c226 -235 407 -430 402 -434 -4 -4
-91 -15 -193 -24 -102 -10 -340 -35 -530 -56 l-345 -39 -288 88 -289 88 -459
459 -458 458 -28 -20 c-22 -17 -29 -30 -30 -65 l-3 -44 366 -380 c265 -275
361 -381 348 -382 -232 -29 -663 -67 -924 -83 -184 -10 -384 -22 -444 -26
l-109 -6 -493 493 -493 493 -31 -29 c-21 -20 -30 -38 -30 -61 0 -30 41 -76
417 -466 l416 -433 -214 -8 c-118 -4 -566 -28 -996 -52 -674 -39 -834 -45
-1166 -45 l-385 0 -571 590 c-315 325 -576 590 -580 590 -4 0 -19 -12 -33 -27z
m11990 -9410 c-16 -2 -40 -2 -55 0 -16 2 -3 4 27 4 30 0 43 -2 28 -4z m-5531
-659 c97 -25 186 -44 199 -41 21 4 22 3 7 -20 -8 -12 -23 -23 -32 -23 -9 0
-179 -7 -379 -16 -199 -9 -365 -14 -369 -10 -3 3 -1 17 5 31 10 22 18 25 64
25 29 0 96 3 150 7 l96 6 31 43 c17 24 35 44 41 44 6 0 90 -21 187 -46z"/>
</g>
</svg>
