<?xml version="1.0" standalone="no"?>
<!DOCTYPE svg PUBLIC "-//W3C//DTD SVG 20010904//EN"
 "http://www.w3.org/TR/2001/REC-SVG-20010904/DTD/svg10.dtd">
<svg version="1.0" xmlns="http://www.w3.org/2000/svg"
   viewBox="0 0 4468.000000 877.000000"
 preserveAspectRatio="xMidYMid meet">
<metadata>
Created by potrace 1.16, written by Peter Selinger 2001-2019
</metadata>
<g transform="translate(0.000000,877.000000) scale(0.100000,-0.100000)"
fill="#000000" stroke="none">
<path d="M32786 8755 c-5 -13 -45 -15 -278 -15 l-273 -1 -72 -134 c-40 -74
-73 -142 -73 -150 0 -12 -18 -15 -99 -15 l-98 0 -7 -37 c-3 -21 -6 -55 -6 -75
0 -35 -6 -41 -103 -117 l-104 -80 -109 -11 c-194 -19 -192 -18 -206 -48 -9
-18 -22 -28 -41 -30 -31 -4 -45 -26 -73 -114 -14 -46 -22 -58 -38 -58 -12 0
-151 -13 -311 -29 l-290 -28 -92 -47 -93 -46 -260 0 -260 0 0 50 c0 38 -4 50
-15 50 -10 0 -15 10 -15 30 l0 29 -212 5 c-117 3 -268 8 -335 11 l-123 6 0
-38 c0 -37 -2 -39 -52 -58 -29 -11 -73 -34 -99 -52 -44 -30 -54 -32 -141 -35
l-93 -3 -3 -172 -2 -173 -1202 0 -1202 0 -795 -231 c-438 -126 -811 -235 -828
-240 -31 -10 -33 -13 -33 -59 l0 -49 -42 -5 c-40 -6 -1096 -85 -2108 -159
l-445 -32 -3 77 -3 78 -52 0 c-29 0 -218 5 -421 10 -241 7 -373 7 -379 1 -8
-8 -47 -203 -47 -238 0 -10 35 -13 141 -13 129 0 140 -1 135 -17 -8 -27 -25
-107 -26 -118 0 -6 43 -44 95 -84 52 -41 95 -76 95 -78 0 -1 -346 -3 -770 -3
l-770 0 0 30 0 30 -185 0 -185 0 0 -30 0 -30 -165 0 -165 0 0 30 0 30 -185 0
-185 0 0 -30 0 -30 -82 0 c-80 0 -113 -9 -896 -247 -625 -191 -813 -252 -818
-265 -3 -12 -16 -18 -35 -18 -21 0 -29 -5 -29 -17 0 -16 -35 -37 -92 -56 -9
-3 -19 -20 -23 -38 -4 -18 -18 -42 -31 -54 l-24 -22 35 -38 c19 -21 32 -42 29
-47 -3 -4 -32 -8 -65 -8 l-59 0 0 -44 0 -43 -86 -33 c-48 -19 -93 -43 -104
-57 l-18 -23 -505 0 -504 0 -7 31 c-3 17 -6 75 -6 128 l0 97 -62 61 -63 61
-187 56 -187 56 -268 0 -267 0 -61 -60 c-44 -44 -78 -67 -130 -88 -53 -22 -71
-34 -73 -50 l-3 -22 -475 0 -474 0 0 25 0 25 -190 0 -190 0 0 23 c0 16 -18 33
-65 64 -36 24 -72 43 -80 43 -9 0 -29 7 -45 15 l-30 16 0 149 0 150 -42 0 -43
0 -40 -75 -40 -75 -60 0 -60 0 -93 -155 -93 -155 -247 0 c-195 1 -252 4 -272
15 -36 20 -496 22 -525 1 -11 -7 -76 -23 -145 -36 l-125 -22 -205 -204 -205
-204 -213 0 -212 0 -160 -80 -160 -80 -348 0 -349 0 -321 -130 -321 -130 -406
0 -405 0 0 -30 0 -30 400 0 400 0 0 -90 0 -90 -1400 0 -1400 0 0 -30 0 -30
-127 0 c-123 0 -128 1 -154 26 -21 21 -80 41 -286 98 l-259 73 -210 7 c-115 3
-275 9 -356 13 l-148 6 0 53 0 54 -65 0 c-51 0 -65 3 -65 15 0 13 -21 15 -130
15 -109 0 -130 -2 -130 -15 0 -13 -26 -15 -175 -15 -168 0 -175 -1 -175 -20 0
-18 -7 -20 -69 -20 -39 0 -73 5 -76 10 -3 6 -28 10 -56 10 l-49 0 0 -60 0 -60
-80 0 -80 0 0 85 0 85 -435 0 -435 0 0 66 0 67 -358 -7 -357 -7 -258 -44
c-142 -25 -271 -52 -287 -60 -21 -11 -61 -15 -140 -15 l-110 0 -190 -87 -190
-86 0 -44 0 -43 -120 0 -121 0 3 -147 3 -148 40 -6 c22 -3 56 -15 75 -27 22
-14 51 -22 78 -22 l42 0 0 -45 0 -45 -185 0 -185 0 0 -57 c0 -31 8 -80 17
-110 l17 -53 71 0 71 0 13 -37 c8 -21 16 -44 18 -50 4 -10 -11 -13 -56 -13
l-61 0 0 -36 c0 -55 32 -92 82 -96 38 -3 42 -6 52 -41 6 -21 36 -66 69 -102
l58 -65 60 0 59 0 0 -35 0 -35 -59 0 c-38 0 -70 -6 -90 -17 l-31 -18 0 -118 0
-117 33 -20 c22 -14 50 -20 90 -20 l57 0 0 -78 0 -79 200 -89 200 -89 0 -62 0
-63 -69 0 c-48 0 -79 -5 -100 -17 l-31 -18 0 -117 0 -117 30 -16 c18 -9 56
-15 100 -15 l70 0 0 -80 0 -79 83 -25 c45 -14 235 -72 422 -129 l341 -103 464
48 c256 26 477 47 493 47 26 1 27 3 27 52 0 48 1 51 23 46 12 -4 178 -42 369
-87 l346 -80 1831 0 1831 0 0 -45 0 -45 670 0 670 0 0 -50 c0 -49 1 -50 30
-50 23 0 30 -4 30 -20 0 -19 7 -20 255 -20 163 0 255 4 255 10 0 6 38 10 95
10 57 0 95 4 95 10 0 6 16 10 35 10 l35 0 0 165 0 165 210 0 210 0 0 -160 0
-160 350 0 350 0 0 70 0 70 -54 0 -54 0 63 112 64 113 54 3 54 3 7 -42 c4 -23
23 -71 42 -106 l36 -63 302 0 c290 0 304 1 321 20 18 20 31 20 687 20 l668 0
0 -25 0 -25 151 0 151 0 38 30 c30 24 44 46 66 110 l29 80 516 0 516 0 67 -79
c56 -66 74 -81 105 -85 20 -4 273 -35 563 -71 l528 -65 715 0 715 0 0 -50 c0
-27 -3 -50 -7 -50 -174 -4 -1396 -60 -1403 -65 -11 -7 -14 -112 -2 -118 4 -3
304 -33 667 -68 l659 -64 98 -59 c54 -32 95 -62 92 -67 -3 -5 -68 -9 -145 -9
-76 0 -139 -2 -139 -5 0 -3 25 -43 56 -89 l56 -85 62 -5 c33 -3 189 -11 346
-17 245 -10 290 -14 322 -30 34 -17 62 -19 301 -19 l263 0 29 -30 c25 -26 35
-30 86 -30 55 0 60 2 140 65 l82 65 492 0 492 0 91 -83 92 -84 312 -7 311 -7
70 -64 69 -65 74 0 c67 0 83 -4 154 -40 l80 -40 355 0 c344 0 355 -1 367 -20
8 -13 24 -20 43 -20 16 0 41 -9 55 -20 23 -18 42 -20 245 -19 125 0 309 8 426
18 175 15 211 21 241 39 24 15 52 22 84 22 125 0 244 13 244 27 0 10 39 13
203 13 191 0 205 1 222 20 10 11 24 20 32 20 10 0 13 23 13 100 l0 99 -32 5
c-18 3 -127 10 -243 16 -340 17 -299 5 -411 129 -53 58 -98 111 -101 117 -2 6
20 48 49 93 l52 81 348 0 348 0 0 115 0 115 378 -2 377 -3 3 -30 c1 -16 5 -49
8 -72 l5 -43 162 0 162 0 84 -100 84 -100 269 0 269 0 167 -85 c163 -83 169
-87 242 -170 l75 -84 228 -1 227 0 0 85 0 85 243 0 242 -1 60 -99 60 -99 149
-1 148 0 38 -43 c30 -33 52 -47 107 -65 65 -21 87 -22 358 -22 l288 0 475
-265 475 -265 591 0 591 0 214 -80 214 -80 1307 0 1308 0 70 65 70 65 64 0
c105 0 104 -3 204 390 46 184 81 337 77 340 -5 4 -55 44 -112 89 l-103 81
-106 0 -106 0 -478 182 -478 183 0 82 0 83 1045 0 1045 0 0 50 0 50 216 0 216
0 57 -49 57 -50 420 34 c230 19 424 35 430 35 6 0 29 16 52 36 40 34 42 39 42
90 0 47 2 54 20 54 19 0 20 7 20 155 l0 155 108 0 c59 1 382 9 717 20 l610 19
190 34 c182 33 203 35 520 42 l330 7 48 30 c26 17 46 32 45 34 -2 1 -269 8
-595 14 l-592 12 -673 98 -673 98 317 1 317 1 25 55 c14 30 30 55 35 55 7 0
11 39 11 108 0 106 -1 109 -25 122 -18 9 -25 22 -25 42 0 15 5 28 10 28 6 0
10 11 10 25 0 14 -4 25 -10 25 -5 0 -10 11 -10 25 0 14 5 25 10 25 6 0 10 18
10 40 l0 40 188 0 188 0 40 75 c21 41 45 75 52 75 9 0 12 35 12 140 0 116 -3
142 -15 146 -8 4 -15 15 -15 25 0 12 -7 19 -20 19 -17 0 -20 7 -20 40 0 33 3
40 20 40 16 0 20 7 20 30 0 23 -4 30 -20 30 -16 0 -20 7 -20 35 0 28 4 35 20
35 18 0 20 7 20 55 l0 55 326 0 327 0 241 135 c241 135 241 135 314 220 l73
85 -215 0 -216 0 6 63 c7 86 14 127 21 127 7 0 930 219 956 226 12 4 17 16 17
39 0 29 4 36 25 41 14 4 27 5 29 3 1 -2 13 -19 25 -36 l22 -33 320 0 319 0 0
35 c0 33 2 35 35 35 35 0 35 0 35 45 0 45 0 45 -35 45 l-35 0 0 55 0 55 715 0
715 0 0 -29 c0 -26 8 -34 68 -68 54 -31 68 -44 70 -66 2 -15 12 -33 23 -40 11
-7 19 -23 19 -39 l0 -28 -100 0 -100 0 0 -100 0 -100 30 0 c17 0 30 -5 30 -11
0 -9 38 -10 138 -5 75 4 200 10 277 14 143 7 186 19 184 52 0 8 -10 44 -22 80
l-22 65 -109 3 c-106 3 -108 3 -102 25 3 12 6 29 6 38 0 10 13 20 33 25 25 7
45 28 91 97 l60 87 253 0 253 0 0 -40 0 -40 103 0 102 -1 38 -54 c21 -30 42
-55 47 -55 6 0 10 -43 10 -100 l0 -100 -25 0 c-35 0 -36 -46 -1 -60 13 -5 25
-13 27 -19 6 -15 244 -27 253 -12 4 6 32 11 62 11 48 0 56 -3 66 -25 11 -25
13 -25 135 -25 97 0 123 3 123 14 0 15 80 26 199 26 42 0 93 5 114 11 33 9 37
13 37 43 0 29 -5 35 -50 56 -47 22 -50 26 -50 62 0 21 -3 38 -7 38 -43 1 -30
80 12 80 13 0 79 25 146 55 119 54 125 55 213 55 74 0 93 -3 110 -19 19 -17
60 -21 376 -40 195 -12 378 -24 407 -27 46 -5 52 -3 58 15 5 16 15 21 44 21
34 0 41 -5 81 -60 l44 -60 165 2 c108 2 166 7 168 14 2 6 -22 31 -53 55 -51
39 -54 44 -36 52 18 8 37 45 28 55 -2 1 -35 6 -73 9 l-70 6 -109 88 -109 89
-76 0 c-41 0 -79 4 -85 9 -5 6 -119 76 -254 156 l-244 146 -376 107 -375 106
-283 173 c-276 169 -285 174 -358 184 -74 10 -75 10 -115 -19 l-40 -30 -62 14
c-34 8 -68 17 -75 19 -8 3 -246 12 -530 21 l-516 15 -49 45 -49 44 -82 0 -82
0 -299 -130 c-164 -72 -302 -127 -305 -123 -4 5 -24 58 -45 118 -21 63 -49
122 -63 138 -25 26 -28 27 -139 27 l-113 0 0 -80 0 -80 -345 0 -345 0 0 65 0
65 31 0 c28 0 30 2 27 33 -2 27 -8 33 -30 35 -16 2 -28 9 -28 17 0 24 -46 28
-244 22 -105 -4 -196 -3 -202 1 -6 4 -14 17 -18 30 -7 22 -10 22 -167 22 -154
0 -159 -1 -159 -21 0 -33 -48 -21 -82 22 l-29 36 7 122 7 121 753 0 754 0 0
25 0 25 -760 0 -760 0 0 70 0 70 325 0 c318 0 325 0 325 20 0 20 -7 20 -325
20 l-325 0 0 170 0 170 -237 0 -237 0 -357 190 -356 190 -228 16 -229 15 -80
50 -80 49 -322 0 -322 0 -125 59 -124 59 -179 17 c-154 14 -235 30 -574 108
l-395 91 -260 7 c-143 4 -293 8 -332 8 -69 1 -75 3 -112 36 -34 31 -44 35 -96
35 -52 0 -63 4 -128 50 l-71 50 -82 0 -82 0 -16 40 c-10 25 -16 70 -16 115 0
42 -4 75 -10 75 -6 0 -5 10 2 25 10 23 16 25 85 25 l74 0 55 114 c30 63 54
126 54 140 l0 26 -239 0 c-203 0 -240 -2 -245 -15z"/>
</g>
</svg>
