<?xml version="1.0" standalone="no"?>
<!DOCTYPE svg PUBLIC "-//W3C//DTD SVG 20010904//EN"
 "http://www.w3.org/TR/2001/REC-SVG-20010904/DTD/svg10.dtd">
<svg version="1.0" xmlns="http://www.w3.org/2000/svg"
   viewBox="0 0 3243.000000 4249.000000"
 preserveAspectRatio="xMidYMid meet">
<metadata>
Created by potrace 1.16, written by Peter Selinger 2001-2019
</metadata>
<g transform="translate(0.000000,4249.000000) scale(0.100000,-0.100000)"
fill="#000000" stroke="none">
<path d="M16457 42433 c-4 -32 -9 -239 -13 -460 l-7 -403 -88 0 -89 0 0 -28 0
-29 -152 -6 c-83 -4 -291 -7 -462 -7 l-311 -1 -82 -78 c-71 -68 -83 -84 -83
-112 0 -18 -5 -84 -11 -146 l-12 -113 -253 0 -254 0 0 164 0 164 -627 5 -628
4 -1470 -149 c-808 -82 -1471 -151 -1472 -152 -1 -1 -26 -129 -56 -284 -43
-227 -58 -286 -73 -297 -10 -7 -26 -19 -35 -27 -12 -10 -105 -633 -428 -2888
-226 -1581 -412 -2882 -411 -2890 0 -8 33 -46 74 -85 l75 -70 -17 -112 -16
-113 -68 0 c-73 0 -128 -19 -128 -45 0 -12 -18 -15 -95 -15 l-95 0 0 -26 c0
-15 23 -58 56 -105 48 -68 59 -79 85 -79 l29 0 0 -95 0 -95 -32 0 c-30 -1 -38
-8 -85 -78 -29 -43 -53 -87 -53 -100 0 -22 2 -22 145 -22 l145 0 -1 -32 c0
-18 -6 -69 -12 -113 l-12 -80 -188 -3 -187 -2 0 -25 c0 -13 25 -60 57 -105 48
-68 60 -80 85 -80 l28 0 0 -90 0 -90 -29 0 c-25 0 -37 -11 -85 -80 -32 -45
-56 -90 -56 -105 l0 -25 145 0 c110 0 145 -3 145 -12 0 -7 -7 -58 -15 -113 -8
-55 -15 -106 -15 -112 0 -10 -45 -13 -190 -13 -190 0 -190 0 -190 -22 0 -12
26 -60 57 -105 48 -71 61 -83 85 -83 l28 0 0 -90 0 -90 -28 0 c-24 0 -37 -12
-85 -83 -31 -45 -57 -93 -57 -105 0 -20 5 -22 50 -22 42 0 50 -3 50 -18 0 -27
61 -52 125 -52 49 0 55 -2 55 -21 0 -11 -218 -1613 -485 -3559 -267 -1946
-485 -3542 -485 -3547 0 -5 -151 -37 -335 -71 l-335 -62 -34 -38 c-18 -20
-104 -117 -190 -215 l-156 -178 2 -567 3 -566 187 -126 187 -125 1 -1072 c0
-590 -1 -1073 -2 -1074 -2 0 -876 -114 -1943 -252 l-1939 -252 -351 -550
c-267 -419 -363 -562 -403 -599 l-52 -49 0 -93 0 -94 -60 0 -60 0 0 55 0 55
-400 0 -400 0 0 65 0 65 -95 0 -95 0 0 -65 0 -65 -140 0 -140 0 0 -125 0 -125
-30 0 c-26 0 -30 -3 -30 -29 0 -27 -4 -30 -52 -41 -29 -7 -65 -20 -80 -31 -26
-18 -49 -19 -383 -19 -341 0 -360 -1 -431 -23 -72 -21 -74 -23 -74 -54 l0 -33
-210 0 c-236 0 -235 1 -185 -72 25 -36 25 -41 25 -228 0 -187 0 -192 -25 -228
-14 -20 -25 -47 -25 -59 l0 -23 233 0 233 0 0 -130 0 -130 -233 0 c-228 0
-233 0 -233 -21 0 -11 11 -37 25 -57 25 -36 25 -40 25 -227 0 -188 0 -192 -25
-225 -14 -19 -25 -44 -25 -57 l0 -23 233 0 233 0 -1 -125 0 -125 -232 0 -233
0 0 -23 c0 -13 11 -38 25 -57 25 -33 25 -37 25 -225 0 -187 0 -191 -25 -227
-14 -20 -25 -46 -25 -57 0 -21 5 -21 209 -21 l210 0 3 -31 c3 -29 8 -32 78
-55 62 -20 96 -24 197 -24 l122 0 3 -107 3 -106 75 -24 c70 -21 92 -23 338
-23 l262 0 0 -85 0 -85 431 -2 431 -3 143 -329 143 -330 1223 -416 1223 -416
44 -139 44 -140 159 -99 159 -99 0 -256 c0 -248 1 -260 31 -401 l31 -145 106
-140 106 -140 2113 -1360 2114 -1360 74 -3 75 -3 25 -82 c14 -45 294 -939 624
-1986 l598 -1904 -30 -43 c-31 -45 -31 -59 0 -140 4 -11 -10 -14 -71 -14 -72
0 -76 -1 -76 -22 0 -13 27 -62 60 -110 l60 -86 0 -92 0 -91 -60 -86 c-33 -48
-60 -95 -60 -104 0 -17 14 -19 171 -21 l171 -3 39 -120 c21 -66 39 -123 39
-127 0 -5 -34 -8 -75 -8 -68 0 -75 -2 -75 -20 0 -11 27 -58 60 -104 l60 -85 0
-95 0 -95 -60 -86 c-90 -129 -94 -125 113 -125 l173 0 41 -133 40 -132 -73 -3
c-67 -3 -74 -5 -74 -23 0 -11 27 -59 60 -106 l60 -86 0 -91 0 -91 -60 -85
c-33 -47 -60 -95 -60 -107 0 -23 1 -23 155 -23 l155 0 0 -43 c0 -42 0 -42 78
-90 43 -26 83 -47 89 -47 7 0 14 -8 17 -17 4 -14 183 -589 237 -760 l11 -33
1329 0 1329 0 0 -125 c0 -77 4 -125 10 -125 6 0 10 -20 10 -45 l0 -45 69 0 68
0 6 -133 c4 -72 17 -502 29 -954 l22 -823 28 0 28 0 0 73 c0 39 11 457 25 927
14 470 25 867 25 883 l0 27 185 0 185 0 0 30 0 30 183 0 182 1 33 29 c29 27
32 35 32 90 0 47 3 60 15 60 12 0 15 19 15 115 0 96 -3 115 -15 115 -11 0 -15
12 -15 53 0 47 -3 55 -32 80 l-33 27 33 30 c29 27 32 35 32 85 0 42 3 55 15
55 12 0 15 19 15 115 0 96 -3 115 -15 115 -12 0 -15 13 -15 59 0 57 -2 61 -35
87 l-35 26 35 27 c33 25 34 29 35 89 0 48 3 62 15 62 13 0 15 20 15 120 0 100
-2 120 -15 120 -11 0 -15 12 -15 49 0 44 -4 52 -32 75 l-33 26 60 0 61 0 41
84 c37 74 49 89 111 134 l69 50 162 -162 c88 -88 161 -166 161 -172 0 -6 13
-23 30 -39 l30 -29 0 -433 c0 -349 3 -440 14 -466 8 -18 74 -92 148 -165 l134
-133 27 29 27 28 -135 134 -135 135 0 430 0 429 70 -69 c55 -55 72 -67 82 -57
10 10 -4 29 -65 90 -73 73 -76 79 -60 95 16 16 16 18 -5 40 -21 22 -22 33 -22
165 l0 142 320 0 320 0 0 -45 0 -45 334 0 c258 0 335 -3 339 -12 4 -10 6 -10
6 0 1 9 28 12 101 12 l100 0 0 28 0 29 677 6 c372 4 1297 7 2055 7 1218 0
1378 2 1378 15 0 13 -185 15 -1605 15 l-1605 0 0 40 0 40 -450 0 -450 0 0 42
0 41 -760 -7 -760 -7 0 210 0 211 -40 0 -40 0 0 -209 0 -209 -187 -4 c-104 -3
-191 -2 -194 1 -4 3 58 132 137 285 l144 279 0 188 0 189 533 0 534 0 280 200
280 200 477 0 476 0 0 -270 0 -270 159 0 159 0 421 228 421 227 0 397 0 396
2049 1457 2048 1456 99 116 c55 64 105 125 112 135 8 11 31 81 52 156 l38 137
7 1089 7 1089 -208 208 -209 209 -107 0 -107 0 6 -787 c3 -434 3 -786 1 -783
-3 3 -19 52 -36 110 l-31 105 -11 1075 c-5 591 -10 1092 -10 1113 l0 37 1650
0 1650 0 0 -25 0 -25 625 0 626 0 37 60 37 60 1028 0 1027 0 0 25 0 25 733 3
732 2 -732 3 -733 2 0 35 0 35 -984 0 c-779 0 -985 3 -988 13 -4 9 -486 13
-2355 15 l-2351 4 -7 391 c-3 216 -5 472 -3 570 l3 179 403 216 402 217 -2
808 -3 809 -410 130 -410 130 -917 106 -918 106 0 623 0 623 925 0 c816 0 925
2 925 15 0 13 -109 15 -925 15 l-925 0 0 71 0 72 -94 111 c-51 61 -111 130
-132 154 l-39 42 -405 65 c-223 36 -417 68 -432 71 l-28 6 0 126 -1 127 -35
39 -34 40 -948 153 -947 153 -232 0 -233 0 0 150 0 150 28 0 c28 0 176 59 191
76 4 5 22 45 40 89 l31 80 0 343 0 342 490 0 490 0 0 -25 0 -25 623 0 622 0
50 85 50 84 820 3 820 3 -812 2 c-447 2 -813 7 -813 11 0 4 11 23 24 43 l25
36 -406 6 c-224 4 -761 7 -1195 7 l-788 0 0 910 0 910 1123 0 1123 0 67 68 67
68 0 57 0 57 1370 0 c1363 0 1370 0 1370 20 0 20 -7 20 -1370 20 l-1370 0 0
1575 0 1575 41 0 c33 0 40 -3 35 -15 -3 -8 -9 -22 -12 -30 -5 -13 98 -15 895
-15 l901 0 31 50 31 50 174 0 c109 0 174 4 174 10 0 6 -61 10 -163 10 l-163 0
4 60 4 60 -890 0 c-782 0 -891 -2 -896 -15 -4 -12 -24 -15 -86 -15 l-80 0 0
3308 0 3308 -68 67 -68 67 -352 0 -352 0 0 480 0 480 30 0 30 0 0 190 0 190
-55 0 -55 0 0 140 0 140 55 0 55 0 0 89 0 90 -57 7 c-32 4 -114 14 -183 23
l-125 16 -3 63 -3 62 132 0 132 0 67 -50 67 -50 337 0 336 0 75 150 75 150 75
0 75 0 0 58 c0 31 3 81 7 111 l6 54 868 -6 c757 -6 868 -5 873 8 4 13 45 15
261 15 206 0 255 3 255 13 0 18 -486 27 -1497 27 l-763 0 0 25 c0 24 2 25 65
25 l65 0 0 150 0 150 -60 0 -60 0 0 80 0 80 -44 0 -45 0 2 193 c1 105 0 228
-4 272 l-6 80 -1 -67 c-2 -86 -8 -98 -43 -98 l-29 0 0 -110 0 -110 -52 1 -53
0 -248 215 -247 214 -1145 0 -1145 0 0 449 0 448 -255 324 -254 324 489 3
c315 1 490 6 490 12 0 7 206 10 588 10 l588 0 103 -75 104 -75 548 0 c359 0
549 -3 549 -10 0 -7 152 -10 435 -10 l435 0 0 40 0 40 450 0 450 0 0 40 0 40
1605 0 c1420 0 1605 2 1605 15 0 13 -185 15 -1605 15 -1063 0 -1605 3 -1605
10 0 7 -157 10 -450 10 l-450 0 0 25 0 25 -330 0 c-287 0 -330 2 -330 15 0 13
87 15 724 15 443 0 726 4 728 9 2 6 292 13 731 17 400 4 727 11 727 16 0 4
-328 8 -730 8 l-730 0 0 35 0 35 -991 0 c-544 0 -988 4 -985 8 7 12 -659 22
-1422 22 -599 0 -632 1 -624 18 6 12 -14 109 -67 317 l-76 300 -312 3 c-197 1
-313 6 -313 12 0 6 113 10 311 10 286 0 311 1 305 17 -4 9 -27 98 -52 197 -25
100 -49 198 -55 218 l-10 38 -252 3 -252 2 252 3 251 2 -37 141 c-20 77 -43
144 -51 149 -8 6 -46 10 -85 11 -38 1 -60 4 -47 6 12 2 22 9 22 14 0 5 -56 9
-128 9 l-129 0 -41 -49 -42 -50 2 -503 2 -503 5 367 c4 201 9 370 13 373 9 9
10 -1068 2 -1090 -9 -23 -24 -18 -24 8 l-1 22 -18 -22 c-18 -22 -26 -23 -168
-23 l-148 0 -32 40 -33 39 0 738 0 738 -215 119 -215 118 0 37 c0 29 -158 926
-201 1139 l-10 52 -222 0 c-122 0 -286 3 -364 7 l-143 6 0 29 0 28 -79 0 -78
0 -7 368 c-3 202 -9 409 -13 460 l-6 92 -42 0 -42 0 -6 -57z m-1342 -1740
c-31 -220 -35 -368 -35 -1268 l0 -920 -90 -90 -90 -90 0 -387 0 -388 -130 0
-130 0 0 1590 0 1590 240 0 240 0 -5 -37z m2795 -1440 l0 -683 -55 0 -55 0 0
85 0 85 -65 0 -65 0 0 660 0 661 120 -63 120 -63 0 -682z m768 670 l-77 -4
-35 -42 c-34 -42 -35 -47 -39 -138 l-3 -94 -2 98 -2 99 36 44 36 44 82 -2 81
-2 -77 -3z m-4408 -1014 l0 -741 -82 -119 -82 -119 -148 0 -148 0 0 110 0 110
210 0 210 0 0 650 0 650 -210 0 -210 0 0 100 0 100 230 0 230 0 0 -741z m7400
-669 l0 -30 -236 0 -235 0 21 30 21 30 215 0 214 0 0 -30z m-1062 -37 c-10 -2
-26 -2 -35 0 -10 3 -2 5 17 5 19 0 27 -2 18 -5z m-2098 -1155 l0 -408 -302 0
-303 0 -28 -35 c-18 -23 -36 -35 -52 -35 l-25 0 0 425 0 425 270 0 270 0 0 25
c0 23 -3 25 -50 25 l-50 0 0 55 0 55 50 0 c43 0 50 3 50 20 0 17 -7 20 -50 20
l-50 0 0 91 0 91 135 -173 135 -174 0 -407z m3165 -670 c3 -18 5 -62 3 -98 -2
-52 -6 -65 -20 -68 -16 -3 -18 7 -18 97 0 82 3 101 15 101 8 0 17 -13 20 -32z
m-65 -228 c0 -17 -3 -19 -19 -10 -32 16 -34 30 -7 30 19 0 26 -5 26 -20z m64
4 c3 -9 6 -31 6 -50 0 -32 -2 -34 -20 -24 -24 13 -30 90 -6 90 8 0 17 -7 20
-16z m-3514 -16699 l0 -315 -40 0 -40 0 0 315 0 315 40 0 40 0 0 -315z
m-15270 -910 l0 -195 -60 0 -60 0 0 195 0 195 60 0 60 0 0 -195z m-1690 -80
l-34 -35 -293 0 -293 0 0 35 0 35 327 0 327 0 -34 -35z m-80 -81 c0 -20 -55
-157 -65 -160 -7 -3 -38 -4 -69 -2 l-58 3 72 83 c53 60 78 82 96 82 13 0 24
-3 24 -6z m280 -109 c0 -20 -5 -25 -27 -25 l-26 0 23 25 c13 14 25 25 27 25 2
0 3 -11 3 -25z m1490 -50 l0 -65 -60 0 -60 0 0 65 0 65 60 0 60 0 0 -65z m0
-240 l0 -105 -60 0 -60 0 0 105 0 105 60 0 60 0 0 -105z m-1850 -12 c-1 -61
-2 -66 -15 -49 -8 10 -35 40 -60 67 l-46 49 60 0 61 0 0 -67z m360 -28 l0 -65
-45 0 -45 0 0 65 0 65 45 0 45 0 0 -65z m-600 -160 l0 -35 -120 0 -120 0 0 35
0 35 120 0 120 0 0 -35z m0 -190 l0 -35 -120 0 -120 0 0 35 0 35 120 0 120 0
0 -35z m0 -680 l0 -35 -120 0 -120 0 0 35 0 35 120 0 120 0 0 -35z m0 -185 l0
-30 -120 0 -120 0 0 30 0 30 120 0 120 0 0 -30z m20 -670 l0 -30 -120 0 -120
0 0 30 0 30 120 0 120 0 0 -30z m321 0 l64 -29 -107 -1 -108 0 0 30 c0 29 2
30 44 30 27 0 67 -11 107 -30z m273 -120 l86 -39 0 -71 0 -70 -255 0 -255 0 0
110 0 110 169 0 169 0 86 -40z m6404 -3820 l1630 -1025 31 -115 c16 -63 29
-115 28 -116 -1 -2 -749 472 -1662 1051 -993 631 -1667 1064 -1679 1081 -15
21 -22 48 -25 102 l-3 74 25 -14 c13 -7 758 -474 1655 -1038z m181 -553 l1585
-972 43 -159 c23 -88 40 -162 38 -164 -4 -4 -3379 2060 -3399 2078 -7 8 131
191 143 189 3 0 719 -438 1590 -972z m16377 -1908 c-4 -23 -17 -54 -29 -70
-12 -15 -861 -625 -1887 -1354 -1330 -945 -1866 -1321 -1868 -1309 -2 8 -2 17
0 19 1 2 840 598 1863 1325 1832 1301 1860 1322 1889 1376 16 30 31 54 34 54
2 0 2 -19 -2 -41z m-4086 -2947 c0 -13 -84 -78 -270 -210 -148 -106 -272 -192
-275 -192 -3 0 -5 7 -5 15 0 8 123 102 273 209 149 107 273 195 275 195 1 1 2
-7 2 -17z m0 -996 l0 -214 -202 -107 c-112 -59 -236 -126 -275 -147 l-73 -40
0 169 0 168 272 193 c149 105 273 192 275 192 1 0 3 -96 3 -214z m-3340 -1886
c0 -60 -1 -110 -3 -110 -1 0 -52 50 -112 110 l-110 110 113 0 112 0 0 -110z"/>
</g>
</svg>
