<?xml version="1.0" standalone="no"?>
<!DOCTYPE svg PUBLIC "-//W3C//DTD SVG 20010904//EN"
 "http://www.w3.org/TR/2001/REC-SVG-20010904/DTD/svg10.dtd">
<svg version="1.0" xmlns="http://www.w3.org/2000/svg"
   viewBox="0 0 2611.000000 667.000000"
 preserveAspectRatio="xMidYMid meet">
<metadata>
Created by potrace 1.16, written by Peter Selinger 2001-2019
</metadata>
<g transform="translate(0.000000,667.000000) scale(0.100000,-0.100000)"
fill="#000000" stroke="none">
<path d="M11703 6655 c-11 -8 -33 -43 -49 -79 l-27 -64 -176 -7 -176 -7 -72
-71 -73 -71 0 -103 0 -103 -220 0 -220 0 0 50 0 50 -170 0 -170 0 0 -53 0 -52
-197 -102 -198 -102 -40 -71 -40 -70 -66 0 c-36 0 -70 -5 -76 -11 -7 -7 -64
51 -192 195 l-182 206 -350 0 -349 0 0 -30 c0 -26 7 -34 50 -58 50 -27 50 -27
50 -79 l0 -52 -51 -28 -50 -28 3 -54 3 -53 -140 -78 -140 -78 -3 -156 -3 -156
-254 0 -255 0 0 145 0 144 -32 5 c-18 3 -229 7 -470 10 l-436 5 -12 -72 c-6
-39 -13 -82 -16 -94 l-4 -23 -270 0 -270 0 0 205 0 205 -77 0 c-65 0 -80 -3
-100 -22 -18 -17 -26 -19 -35 -10 -9 9 -86 12 -278 12 -211 0 -327 -5 -567
-27 l-302 -27 -13 -56 -14 -55 -537 -3 -537 -2 0 275 c0 213 -3 275 -12 275
-7 1 -361 -34 -787 -77 -502 -50 -778 -82 -786 -90 -7 -6 -16 -34 -20 -60 -14
-99 3 -90 -176 -98 -132 -6 -163 -5 -182 7 -20 14 -74 8 -547 -58 -289 -40
-526 -74 -527 -74 -6 -1 -47 -156 -78 -292 -19 -84 -49 -205 -66 -268 -64
-238 -214 -1028 -198 -1044 2 -2 254 6 560 18 l555 22 35 27 c35 27 38 27 192
27 l157 0 0 -25 0 -25 480 0 480 0 0 -90 0 -91 -140 -102 -139 -102 -1 -117 0
-118 -25 0 c-14 0 -68 7 -121 15 -74 12 -116 26 -185 61 -84 41 -89 46 -89 76
l0 31 -81 -6 c-45 -4 -557 -12 -1138 -18 -581 -6 -1057 -12 -1058 -13 -7 -6
57 -208 160 -506 64 -184 149 -435 188 -557 55 -169 77 -223 89 -223 11 0 20
-16 30 -52 7 -29 19 -74 27 -100 l14 -48 887 0 887 0 189 145 188 145 394 0
394 0 0 -264 0 -265 66 -95 67 -96 531 0 531 0 119 -28 119 -29 105 -161 105
-162 172 0 171 0 103 95 103 95 243 0 c240 0 243 0 258 22 12 19 18 21 28 10
8 -8 44 -12 101 -12 l88 0 0 560 0 560 270 0 270 0 4 -22 c3 -13 10 -56 16
-95 l12 -73 96 -1 c54 -1 175 -4 270 -8 l173 -6 -30 -40 c-17 -22 -31 -43 -31
-47 0 -5 104 -8 230 -8 l230 0 0 -90 0 -90 -241 -2 -241 -3 61 -75 c33 -40 66
-77 73 -81 7 -3 52 -14 101 -25 l87 -19 0 -60 0 -61 123 -115 122 -115 170
-49 170 -50 340 -5 340 -5 5 -132 5 -132 129 -166 129 -165 43 0 c37 0 44 -3
44 -20 0 -20 7 -20 410 -20 l410 0 0 -90 0 -90 -413 0 -413 0 -33 -28 -34 -28
29 -87 28 -87 314 0 c293 0 313 -1 310 -18 -3 -16 -27 -17 -306 -20 -166 -1
-302 -6 -302 -10 1 -4 27 -126 58 -272 l58 -265 402 -3 401 -2 10 37 c5 21 29
111 52 200 l42 162 254 306 253 305 0 90 0 90 609 0 610 0 211 225 212 225
893 0 c797 0 894 2 906 16 11 14 13 14 21 0 8 -14 42 -16 255 -16 l246 0 142
75 143 74 328 1 c181 0 359 0 395 0 l65 0 34 -118 c18 -64 37 -122 42 -128 4
-6 26 -16 48 -23 35 -10 40 -16 40 -41 l0 -30 118 0 c136 0 292 25 292 46 0
12 56 14 343 14 286 0 346 2 363 15 17 13 9 14 -83 15 l-101 0 -7 30 -7 30
-235 0 -235 0 -58 36 -57 35 7 42 c5 23 11 78 15 122 9 96 16 111 55 120 29 6
30 9 30 60 0 46 -3 55 -26 70 -27 17 -27 17 -20 114 6 89 10 103 53 189 l47
92 353 0 353 0 0 -250 0 -250 100 0 100 0 0 -60 c0 -60 0 -60 30 -60 19 0 34
-7 42 -20 12 -19 24 -20 160 -20 l147 0 103 -125 103 -126 214 2 c139 1 228 6
256 14 l42 13 123 -94 c68 -52 124 -94 124 -94 1 0 219 -5 486 -10 l485 -10
115 -115 115 -115 50 0 c28 0 206 -10 397 -22 l346 -22 314 -213 313 -213 597
0 598 0 337 139 338 140 3 160 2 161 81 0 c76 0 84 -2 120 -31 l39 -31 0 -99
0 -99 380 0 381 0 73 -40 73 -40 557 0 558 0 15 40 16 40 259 0 258 0 0 35 0
35 -244 0 c-239 0 -244 0 -239 20 5 18 0 20 -39 20 -43 0 -46 -2 -63 -40 l-18
-40 -484 0 -483 0 0 73 0 72 86 108 86 107 155 0 156 0 -7 38 c-3 20 -6 42 -6
49 0 9 -34 13 -119 15 l-118 3 78 120 79 120 0 108 0 107 -604 0 -604 0 -63
-79 -64 -80 -72 0 c-40 -1 -73 1 -73 4 0 3 9 24 20 45 l20 40 -270 0 -270 0 0
69 0 69 -46 27 -47 28 7 96 c3 53 6 110 6 128 l0 32 176 58 c170 56 177 59
198 95 21 37 22 38 82 38 59 0 62 1 74 30 l12 30 419 0 c408 0 418 0 424 20 6
19 17 20 277 22 l272 3 7 27 7 28 -740 -7 -740 -6 21 41 c18 35 26 42 51 42
39 0 39 17 -2 88 l-31 55 94 -7 c52 -3 120 -9 152 -12 l57 -7 0 32 c0 20 -5
31 -14 31 -40 0 -708 62 -751 70 -27 5 -55 9 -60 9 -11 1 -10 165 1 269 l6 54
34 -4 c39 -5 26 -36 114 288 l52 191 -102 164 c-56 90 -110 171 -119 180 -9 8
-68 40 -131 69 l-116 53 -79 102 -80 102 -415 233 c-228 128 -416 234 -418
235 -1 1 19 53 46 116 50 117 87 218 81 223 -2 1 -383 140 -846 309 l-842 307
-470 0 -471 0 0 -39 0 -38 220 -124 220 -124 0 -51 c0 -50 -1 -51 -57 -92
l-57 -42 -317 0 -317 0 -12 29 c-8 21 -9 43 -1 87 6 32 11 133 11 226 l0 168
-157 0 c-124 0 -160 -3 -173 -15 -13 -11 -24 -13 -51 -5 -18 6 -50 10 -71 10
-58 0 -82 14 -204 115 l-115 95 -97 0 -97 0 -43 75 -44 75 -569 0 -570 0 -54
-40 c-53 -39 -56 -40 -137 -40 -46 0 -120 -3 -165 -7 l-83 -6 0 -28 0 -29 170
0 170 0 0 -49 c0 -55 18 -43 -164 -111 l-109 -40 -220 0 c-190 0 -223 -2 -239
-16 -16 -16 -18 -16 -24 0 -5 12 -20 16 -68 16 -55 0 -68 4 -112 35 l-49 35
-271 0 -272 0 -26 -35 -27 -35 -272 0 -272 0 -27 -43 -27 -42 138 -3 137 -3
21 -43 21 -43 -21 -36 c-21 -37 -21 -37 -87 -37 -61 0 -69 -3 -107 -35 l-41
-35 -196 0 -196 0 0 -24 c0 -63 -8 -68 -192 -128 l-174 -58 -201 0 c-230 0
-205 -12 -219 110 -6 56 -15 76 -62 147 -48 73 -59 83 -84 83 -22 0 -40 11
-71 44 -45 48 -290 206 -319 206 -10 0 -18 1 -18 3 0 1 6 36 14 77 8 41 18
121 21 178 l8 102 108 0 c60 0 109 3 109 8 -1 35 -46 143 -72 170 l-32 32
-212 0 -213 0 24 55 25 55 -353 0 c-294 0 -356 -2 -374 -15z m-6733 -2605 l0
-80 -144 0 -144 0 -196 -160 -196 -160 -480 0 -480 0 0 -70 0 -70 -30 0 c-25
0 -30 4 -30 25 0 20 -5 25 -25 25 l-25 0 0 140 0 141 41 54 41 55 483 0 482 0
38 90 38 90 313 0 314 0 0 -80z m14340 -128 l45 -27 305 -5 304 -5 28 -120
c15 -66 25 -125 23 -131 -2 -7 -59 -14 -157 -18 -201 -9 -248 -15 -248 -32 0
-11 -36 -14 -195 -14 l-195 0 0 -45 0 -45 -52 0 c-29 0 -110 -3 -180 -7 l-128
-6 0 241 0 242 203 0 202 0 45 -28z m-15523 -1557 l118 -185 366 0 366 0 56
-92 57 -93 -523 -3 -522 -3 -47 53 -48 53 0 228 0 227 29 0 c27 0 38 -15 148
-185z m15706 -665 l45 -180 -358 0 -358 0 -30 76 -31 75 52 105 52 104 291 0
292 0 45 -180z m-7345 -172 l-196 -203 -546 -3 c-541 -2 -546 -2 -546 18 0 20
-6 20 -544 20 -471 0 -545 -2 -556 -15 -7 -9 -29 -15 -51 -15 -33 0 -43 6 -76
45 -29 36 -44 45 -68 45 -23 0 -37 8 -53 30 -22 29 -25 30 -102 30 -78 0 -79
0 -108 36 l-30 36 17 48 16 48 1137 4 1137 4 53 37 53 37 329 0 329 0 -195
-202z m-1516 -295 c11 -10 18 -30 18 -55 l0 -38 -470 0 -470 0 0 55 0 55 452
0 c406 0 453 -2 470 -17z"/>
</g>
</svg>
