<?xml version="1.0" standalone="no"?>
<!DOCTYPE svg PUBLIC "-//W3C//DTD SVG 20010904//EN"
 "http://www.w3.org/TR/2001/REC-SVG-20010904/DTD/svg10.dtd">
<svg version="1.0" xmlns="http://www.w3.org/2000/svg"
   viewBox="0 0 4433.000000 846.000000"
 preserveAspectRatio="xMidYMid meet">
<metadata>
Created by potrace 1.16, written by Peter Selinger 2001-2019
</metadata>
<g transform="translate(0.000000,846.000000) scale(0.100000,-0.100000)"
fill="#000000" stroke="none">
<path d="M13287 8415 c-5 -28 -12 -57 -16 -63 -6 -9 -150 -19 -542 -37 -478
-22 -596 -31 -1124 -86 l-590 -62 -325 -117 c-179 -65 -333 -121 -342 -125
-17 -7 -18 -34 -18 -381 l0 -374 -27 0 c-16 0 -418 -20 -894 -46 l-866 -45
-221 110 -221 111 -116 -27 -116 -27 -564 151 -565 150 -1428 -372 -1427 -373
-690 -315 c-624 -284 -757 -349 -1387 -679 l-697 -364 -307 -274 -306 -275
-190 -283 -189 -283 -60 -266 c-32 -147 -59 -275 -59 -285 0 -11 27 -114 60
-229 l61 -210 185 -247 185 -247 307 -154 c306 -154 308 -154 677 -278 l370
-123 1240 -156 1240 -155 1765 -124 1765 -124 656 164 656 164 115 -10 116
-10 277 120 277 119 352 -58 351 -58 675 -31 c371 -17 736 -31 810 -31 96 0
1715 -135 5555 -465 l5420 -464 3445 -336 3445 -336 2905 -219 2905 -219 1735
62 1736 61 1004 -88 c553 -48 1026 -91 1053 -93 46 -6 47 -5 58 26 l11 31 82
0 c79 0 906 57 912 63 6 5 -791 58 -873 57 l-81 0 21 65 21 65 409 0 c323 0
411 3 422 13 9 9 81 17 246 26 129 6 264 15 302 18 l67 6 0 -32 c0 -18 5 -31
13 -30 6 0 84 13 172 29 l160 28 -146 1 -145 1 -29 30 -29 30 700 1 699 1
-265 29 c-245 26 -296 28 -686 28 -232 1 -455 4 -497 7 -76 7 -77 7 -77 35 l0
29 -498 0 -498 0 -29 30 c-28 29 -32 30 -120 30 l-92 0 -123 185 -122 184 30
213 c24 165 28 216 19 224 -7 6 -856 481 -1887 1055 l-1875 1045 -1115 217
-1115 216 -2440 742 -2440 741 -2935 650 -2935 649 -2875 310 -2875 311 -200
-32 c-196 -30 -216 -32 -1075 -60 -481 -17 -882 -30 -892 -30 -17 0 -18 25
-18 465 0 365 -3 465 -12 465 -7 0 -282 41 -612 90 l-598 90 -1029 0 -1029 0
-1 48 -2 47 -10 -52 -10 -53 -48 0 -48 0 -3 63 -3 62 -8 -50z"/>
</g>
</svg>
