<?xml version="1.0" standalone="no"?>
<!DOCTYPE svg PUBLIC "-//W3C//DTD SVG 20010904//EN"
 "http://www.w3.org/TR/2001/REC-SVG-20010904/DTD/svg10.dtd">
<svg version="1.0" xmlns="http://www.w3.org/2000/svg"
   viewBox="0 0 4304.000000 690.000000"
 preserveAspectRatio="xMidYMid meet">
<metadata>
Created by potrace 1.16, written by Peter Selinger 2001-2019
</metadata>
<g transform="translate(0.000000,690.000000) scale(0.100000,-0.100000)"
fill="#000000" stroke="none">
<path d="M8887 6810 l-199 -90 -311 0 c-252 -1 -317 -3 -337 -15 -17 -10 -59
-14 -135 -15 l-110 0 -114 -65 -113 -65 -247 0 -246 -1 -180 -84 -180 -84 -3
-101 -3 -100 103 0 102 0 110 -62 109 -63 -604 -3 -603 -2 -43 -42 -43 -42 42
-43 42 -43 1153 0 c1146 0 1153 0 1153 20 0 19 7 20 104 20 82 0 236 -21 737
-99 349 -55 645 -101 659 -104 14 -2 -361 -5 -832 -6 l-858 -1 0 30 0 29
-1452 4 c-1167 3 -1527 7 -1828 21 -341 15 -397 15 -610 2 -136 -9 -567 -20
-1020 -26 l-785 -11 -240 -35 c-196 -28 -269 -44 -401 -84 -155 -48 -166 -50
-280 -50 l-119 0 -252 -124 -253 -125 -9 37 c-6 20 -16 60 -23 88 l-13 52
-177 -82 -177 -81 -1 -361 c0 -280 -3 -363 -12 -367 -7 -2 -46 -10 -86 -17
l-72 -13 0 -76 1 -76 156 -170 c86 -93 159 -169 162 -168 3 1 30 11 58 22 l52
20 125 -149 c69 -82 126 -151 126 -154 0 -3 -94 -6 -208 -6 -278 0 -387 -21
-574 -112 l-128 -62 0 -566 0 -566 127 -62 c189 -91 295 -112 573 -112 l210 0
0 -70 0 -70 565 0 565 0 0 -104 0 -105 66 -75 66 -76 63 0 c57 0 64 -2 67 -21
3 -21 82 -49 451 -160 l67 -20 0 -47 0 -47 258 -258 257 -257 203 0 c186 0
205 -2 220 -19 10 -10 112 -73 228 -140 l211 -121 191 0 191 0 3 -51 3 -51
755 -338 755 -339 1341 -1 1341 0 96 53 c65 35 97 58 97 70 0 16 50 17 913 17
l913 0 398 190 398 190 3994 0 c2243 0 3994 -4 3994 -9 0 -4 19 -5 43 0 23 4
1743 8 3822 9 l3781 0 252 -70 252 -70 460 0 460 0 0 -190 0 -190 1476 0 1477
0 98 52 c85 46 99 57 99 78 0 24 3 25 44 22 28 -3 51 -11 62 -23 17 -18 43
-19 831 -19 l814 0 409 241 410 241 0 109 0 109 -86 40 -87 40 -238 0 c-153 0
-239 4 -239 10 0 7 501 10 1484 10 l1484 0 170 133 c96 74 171 139 171 149 2
45 9 48 105 48 l91 0 193 140 c106 77 201 144 212 150 12 6 244 10 670 10
l651 0 342 81 c188 44 350 82 360 85 15 5 17 21 17 147 l0 142 1243 290 c683
159 1247 294 1253 300 6 5 205 55 442 110 l432 100 0 462 c0 255 -2 463 -5
463 -12 0 -3275 330 -3317 336 l-47 6 -3 46 -3 47 -365 87 -365 87 -542 0
c-299 1 -543 4 -543 7 0 3 92 101 205 217 l205 212 -2 195 -3 195 -420 232
-420 232 -110 0 c-75 1 -105 -2 -95 -9 10 -6 -245 -10 -729 -10 -628 0 -746
-2 -755 -14 -6 -8 -30 -17 -52 -21 -39 -6 -42 -5 -47 22 -5 23 -22 37 -105 81
l-99 52 -1340 0 -1340 0 -754 -338 -754 -338 -3 -97 -3 -97 -58 0 c-54 0 -69
-5 -185 -71 -69 -39 -126 -77 -126 -85 0 -12 -66 -14 -423 -14 l-423 0 -280
89 c-264 85 -341 103 -494 116 l-65 6 -135 121 c-119 107 -147 127 -238 170
l-103 48 -284 0 c-278 0 -285 0 -285 20 0 20 -7 20 -270 20 -263 0 -270 0
-270 -20 0 -20 -7 -20 -1700 -20 -1693 0 -1700 0 -1700 20 0 20 -7 20 -270 20
-263 0 -270 0 -270 -20 0 -20 -7 -20 -1695 -20 -1688 0 -1695 0 -1695 20 0 20
-7 20 -270 20 -263 0 -270 0 -270 -20 0 -20 -7 -20 -1700 -20 -1693 0 -1700 0
-1700 20 0 20 -7 20 -270 20 -263 0 -270 0 -270 -20 0 -19 -7 -20 -117 -20
l-118 0 -827 322 -828 323 0 68 0 67 241 0 241 0 84 39 84 40 0 108 -1 108
-404 238 -404 237 -822 0 c-737 0 -824 -2 -840 -16 -10 -9 -35 -18 -57 -21
-38 -5 -41 -4 -44 22 -3 25 -17 36 -103 82 l-100 53 -1340 -1 -1340 0 -198
-89z m5812 -1464 l835 -326 123 0 123 0 0 -25 c0 -25 1 -25 80 -25 47 0 80 -4
80 -10 0 -6 -56 -10 -147 -10 -157 0 -213 -11 -213 -42 0 -17 -15 -18 -234
-18 l-235 0 -3 37 -3 37 -435 162 -435 163 -682 0 -683 1 0 48 c0 41 -4 50
-27 64 -27 17 -13 17 312 18 l340 0 149 139 150 139 35 -13 c20 -7 411 -160
870 -339z m5021 -356 c0 -18 7 -20 75 -20 43 0 75 -4 75 -10 0 -6 -55 -10
-144 -10 -155 0 -206 -10 -206 -41 0 -19 -33 -19 -1515 -19 -1464 0 -1515 1
-1515 18 0 33 -43 42 -195 42 -90 0 -145 4 -145 10 0 6 35 10 85 10 78 0 85 2
85 20 0 20 7 20 1700 20 1693 0 1700 0 1700 -20z m3930 0 c0 -18 7 -20 80 -20
47 0 80 -4 80 -10 0 -6 -57 -10 -150 -10 -157 0 -210 -11 -210 -45 0 -13 -186
-15 -1510 -15 -1477 0 -1510 0 -1510 19 0 31 -51 41 -201 41 -86 0 -139 4
-139 10 0 6 35 10 85 10 78 0 85 2 85 20 0 20 7 20 1695 20 1688 0 1695 0
1695 -20z m3940 0 c0 -18 7 -20 80 -20 47 0 80 -4 80 -10 0 -6 -56 -10 -147
-10 -157 0 -213 -11 -213 -42 0 -17 -63 -18 -1510 -18 -1324 0 -1510 2 -1510
15 0 33 -53 45 -205 45 -90 0 -145 4 -145 10 0 6 35 10 85 10 78 0 85 2 85 20
0 20 7 20 1700 20 1693 0 1700 0 1700 -20z m1193 -36 c37 -30 67 -57 67 -60 0
-2 -124 -4 -275 -4 -264 0 -275 1 -275 19 0 31 -51 41 -201 41 -86 0 -139 4
-139 10 0 6 35 10 85 10 78 0 85 2 85 20 0 20 7 20 293 20 l293 0 67 -56z
m9367 -116 c1 -43 1 -43 -237 -275 l-238 -232 -215 0 -215 0 28 24 c27 24 33
25 174 25 l145 0 209 201 c141 136 209 209 209 223 1 16 15 28 58 48 78 36 82
35 82 -14z m-30980 -48 l0 -80 -145 0 -145 0 0 80 0 80 145 0 145 0 0 -80z
m10420 -340 c0 -6 -53 -10 -139 -10 -83 0 -142 4 -146 10 -4 6 45 10 139 10
91 0 146 -4 146 -10z m-50 -2834 c0 -85 4 -105 44 -217 l44 -124 371 -3 371
-2 0 -145 0 -145 520 0 520 0 0 -120 0 -120 -1485 0 -1485 0 0 120 0 120 505
0 505 0 0 365 0 365 45 0 45 0 0 -94z m3940 -3 c0 -90 4 -109 42 -220 l43
-123 368 0 367 0 0 -145 0 -145 525 0 525 0 0 -120 0 -120 -757 0 -758 0 133
72 132 71 0 179 0 178 -360 0 -360 0 0 235 0 235 50 0 50 0 0 -97z m3847 -40
c-2 -27 -3 -5 -3 47 0 52 1 74 3 48 2 -27 2 -69 0 -95z m-10887 -448 l0 -145
520 0 520 0 0 -120 0 -120 -1707 0 c-938 0 -1704 2 -1701 5 3 3 250 123 549
265 l544 260 638 0 637 0 0 -145z m19770 80 l0 -35 115 0 115 0 0 35 0 35
1195 0 c657 0 1195 -2 1195 -4 0 -2 -39 -33 -87 -69 l-88 -64 -900 -7 c-495
-3 -1155 -9 -1467 -12 -473 -6 -568 -5 -568 7 0 7 -14 28 -32 46 l-32 33 82 0
82 0 0 35 0 35 195 0 195 0 0 -35z m-7995 -404 l210 -60 -325 0 c-253 0 -321
2 -305 11 74 44 192 107 200 107 6 1 105 -26 220 -58z"/>
</g>
</svg>
