<?xml version="1.0" standalone="no"?>
<!DOCTYPE svg PUBLIC "-//W3C//DTD SVG 20010904//EN"
 "http://www.w3.org/TR/2001/REC-SVG-20010904/DTD/svg10.dtd">
<svg version="1.0" xmlns="http://www.w3.org/2000/svg"
   viewBox="0 0 4767.000000 2635.000000"
 preserveAspectRatio="xMidYMid meet">
<metadata>
Created by potrace 1.16, written by Peter Selinger 2001-2019
</metadata>
<g transform="translate(0.000000,2635.000000) scale(0.100000,-0.100000)"
fill="#000000" stroke="none">
<path d="M27292 26338 c-9 -9 -12 -533 -12 -2298 l0 -2285 -105 -53 -105 -52
0 -564 0 -563 105 -49 105 -48 0 -343 0 -343 -35 0 c-30 0 -48 12 -139 100
l-103 100 -135 0 -134 0 -76 55 -76 55 -226 0 c-219 0 -226 -1 -226 -20 0 -18
-7 -20 -60 -20 -53 0 -60 2 -60 20 0 16 -7 20 -30 20 -23 0 -30 -4 -30 -20 0
-18 -7 -20 -60 -20 -53 0 -60 2 -60 20 0 16 -7 20 -30 20 -23 0 -30 -4 -30
-20 0 -18 -7 -20 -60 -20 -53 0 -60 2 -60 20 0 19 -7 20 -220 20 l-219 0 -23
30 c-21 29 -25 30 -95 30 -56 0 -75 4 -79 15 -5 13 -39 15 -220 15 -136 0
-214 -4 -214 -10 0 -16 -129 -12 -146 4 -11 12 -14 62 -16 253 l-2 238 -7
-230 c-3 -126 -7 -236 -8 -242 0 -7 -14 -13 -31 -13 l-30 0 -1 133 -2 132 -11
-130 c-6 -71 -15 -138 -20 -147 -6 -14 -20 -18 -58 -18 -44 0 -51 -3 -66 -30
l-17 -30 -764 0 -764 0 -89 -55 -88 -55 -128 0 -127 0 -267 -188 -267 -187 0
-52 -1 -53 -836 0 -835 0 -58 55 -58 55 -2295 0 -2296 0 -45 50 -45 50 -641 0
-641 0 0 75 c0 82 -15 129 -50 160 -18 16 -36 20 -102 20 -79 0 -80 0 -114
-37 -33 -37 -34 -39 -34 -128 l0 -90 -249 0 -248 0 -7 53 c-3 28 -6 70 -6 92
-1 83 -76 125 -194 111 -43 -6 -56 -13 -78 -40 -23 -29 -28 -47 -34 -125 l-7
-91 -253 0 -254 0 0 86 c0 81 -2 89 -30 124 -25 32 -38 39 -80 45 -28 4 -73 4
-101 0 -44 -6 -54 -12 -80 -48 -27 -37 -29 -47 -29 -124 l0 -83 -389 0 -389 0
-77 120 -78 120 -478 0 -479 0 0 1573 c0 1210 -3 1576 -12 1585 -9 9 -232 12
-943 12 l-930 0 -2350 -1470 -2350 -1471 -3 -249 -2 -249 -309 -100 c-170 -56
-312 -101 -315 -101 -3 0 -6 67 -6 149 0 123 -3 151 -16 162 -13 10 -277 14
-1410 17 -1328 4 -1396 4 -1414 -13 -20 -18 -20 -38 -20 -1420 l0 -1402 21
-19 c11 -10 123 -55 247 -100 l227 -81 47 -174 c70 -254 98 -341 120 -371 l19
-28 138 0 138 0 12 -39 c6 -22 59 -116 117 -210 l106 -171 815 0 c542 0 821 3
834 10 14 8 19 21 19 55 l0 45 208 0 c114 0 264 -3 335 -7 l127 -6 0 -207 0
-208 53 -6 c28 -4 720 -145 1537 -315 l1485 -307 1160 -1581 c638 -870 1175
-1602 1192 -1627 l33 -46 529 0 c460 0 530 2 541 15 10 12 14 397 18 1850 l5
1835 273 0 274 0 0 519 0 518 1378 6 c757 4 2246 8 3309 9 l1932 3 187 -178
186 -177 577 0 576 0 78 -63 77 -62 487 -78 c469 -75 489 -80 518 -106 156
-144 317 -289 351 -317 l41 -34 1919 -76 c1055 -41 1924 -77 1929 -78 6 -2 53
-185 105 -407 77 -327 99 -408 116 -424 18 -16 45 -114 143 -524 104 -437 119
-507 107 -520 -21 -24 14 -168 48 -196 15 -13 518 -1052 1421 -2939 l1397
-2920 739 -3340 c406 -1838 741 -3352 744 -3365 l6 -23 -105 4 c-101 3 -105 3
-101 -17 9 -38 75 -339 75 -342 0 -2 274 -3 608 -3 l608 0 23 -55 23 -55 532
0 532 0 67 55 66 55 368 0 368 1 75 64 c87 75 51 67 424 95 149 11 271 22 273
23 1 2 6 17 9 34 l6 31 -53 6 c-30 3 -346 17 -704 31 -357 14 -678 28 -712 31
l-63 6 0 7164 0 7164 120 0 119 0 42 -90 42 -90 137 0 137 0 26 -39 c23 -34
27 -52 30 -133 l3 -93 2 96 c1 58 7 100 14 107 7 7 33 12 60 12 40 0 50 4 64
25 l16 25 379 0 378 0 53 90 53 90 137 0 c127 0 138 -1 148 -20 6 -11 17 -20
25 -20 12 0 15 -21 17 -112 l1 -113 7 110 c4 61 8 111 9 113 0 1 12 2 25 2 15
0 26 7 29 20 5 18 14 20 94 20 l89 0 162 195 c89 107 162 199 162 203 0 4 -25
16 -55 27 -65 22 -66 18 45 104 63 49 80 55 550 211 466 154 488 162 564 215
l80 55 153 0 153 0 0 108 0 107 52 34 51 33 911 118 911 117 515 17 c283 9
558 14 610 11 56 -4 461 8 980 29 856 34 941 40 2615 162 1248 92 1736 131
1752 140 l22 14 -6 265 -6 265 876 0 877 0 0 133 0 134 242 6 c133 4 302 7
376 7 l135 0 259 195 259 195 98 0 c96 0 97 0 119 30 17 22 31 30 54 30 29 0
140 46 456 187 120 54 146 77 100 88 -13 2 -795 122 -1737 266 -1193 182
-1720 258 -1730 252 -9 -6 -20 -30 -24 -54 -5 -24 -13 -48 -17 -53 -5 -5 -55
-3 -120 4 l-111 14 6 55 c3 31 2 62 -4 70 -7 11 -469 77 -1763 253 -1413 192
-1901 254 -2518 321 -724 79 -768 83 -819 70 -46 -12 -90 -43 -288 -199 l-235
-184 -1399 0 -1399 0 0 179 0 179 -162 156 -163 156 -672 0 -673 0 0 -40 0
-41 -92 3 -93 3 -3 38 -3 37 -315 0 -314 0 0 -40 0 -40 -80 0 -80 0 0 40 0 40
-140 0 -140 0 0 -40 0 -40 -85 0 -85 0 0 40 0 40 -140 0 -140 0 0 -40 0 -40
-85 0 -85 0 0 40 0 40 -145 0 -145 0 0 -40 0 -40 -85 0 -85 0 0 40 0 40 -80 0
-80 0 0 370 0 370 1322 0 1322 0 212 100 212 100 1108 15 c610 8 1115 15 1122
15 6 0 12 8 12 18 0 15 11 17 120 14 120 -3 120 -3 120 -27 0 -24 1 -25 73
-19 39 3 434 23 877 45 443 21 809 39 815 40 5 0 -372 56 -840 124 -467 68
-867 126 -887 129 -29 5 -38 3 -38 -8 0 -27 -17 -26 -129 1 -97 24 -111 30
-111 48 0 19 -34 31 -357 122 l-358 101 -996 23 -996 23 -129 149 c-71 83
-157 183 -192 224 l-63 73 938 0 938 0 79 -120 79 -120 449 0 c383 0 449 2
446 14 -2 8 -327 831 -723 1828 l-720 1814 -1420 577 -1420 577 -2192 0
c-2145 0 -2193 0 -2193 19 0 10 -7 22 -16 25 -31 12 -479 7 -492 -6z m-17342
-3848 l0 -490 -1632 0 c-1006 0 -1627 4 -1617 10 9 5 359 225 780 490 l763
480 853 0 853 0 0 -490z m0 -1585 l0 -995 -335 0 -334 0 -5 33 c-3 17 -15 174
-26 347 -11 173 -23 341 -27 373 l-6 57 -193 0 -193 0 -5 -32 c-5 -30 -46
-717 -46 -760 0 -17 -41 -18 -730 -18 l-730 0 0 28 c0 49 -30 655 -36 720 l-6
62 -189 0 c-188 0 -189 0 -193 -22 -3 -13 -13 -195 -22 -405 l-18 -383 -597 0
-598 0 -98 115 -98 114 -783 1 -783 0 3 52 3 53 1305 827 1305 827 1718 0
1717 1 0 -995z m8187 -4668 l351 -64 61 -49 61 -49 -461 -3 -462 -2 -46 42
c-25 23 -81 75 -123 115 l-78 73 173 0 c168 0 181 -2 524 -63z"/>
</g>
</svg>
