<?xml version="1.0" standalone="no"?>
<!DOCTYPE svg PUBLIC "-//W3C//DTD SVG 20010904//EN"
 "http://www.w3.org/TR/2001/REC-SVG-20010904/DTD/svg10.dtd">
<svg version="1.0" xmlns="http://www.w3.org/2000/svg"
   viewBox="0 0 2918.000000 3577.000000"
 preserveAspectRatio="xMidYMid meet">
<metadata>
Created by potrace 1.16, written by Peter Selinger 2001-2019
</metadata>
<g transform="translate(0.000000,3577.000000) scale(0.100000,-0.100000)"
fill="#000000" stroke="none">
<path d="M18796 35748 c-3 -13 -12 -108 -21 -213 -9 -104 -17 -191 -19 -193
-2 -2 -316 16 -697 39 l-694 43 -490 -22 c-269 -13 -502 -23 -517 -22 l-28 0
0 -99 0 -99 -27 -6 c-16 -3 -208 -28 -428 -56 -220 -28 -410 -53 -422 -56 -21
-4 -23 -10 -23 -63 l0 -60 -52 -5 c-29 -3 -870 -44 -1868 -91 -998 -47 -1861
-92 -1917 -99 l-103 -12 -348 92 -349 91 -1566 -210 c-862 -116 -1569 -208
-1572 -205 -3 3 -8 29 -12 58 -3 28 -11 54 -17 56 -7 2 -923 -166 -2036 -375
l-2025 -379 -1735 -581 c-954 -319 -1742 -585 -1750 -589 -8 -5 -30 -48 -48
-96 l-34 -87 97 -217 c54 -119 138 -309 188 -421 l90 -203 112 -53 112 -52
975 165 976 165 821 -187 821 -187 1094 140 1094 140 748 -429 749 -429 0
-325 c0 -178 -2 -326 -5 -329 -3 -2 -1159 -23 -2570 -47 -1411 -24 -2565 -44
-2566 -44 -5 -5 15 -398 20 -403 4 -5 903 -24 1997 -44 1094 -20 1991 -38
1993 -40 5 -5 -886 -1010 -907 -1023 -10 -7 -72 32 -231 146 l-216 156 -223
-72 c-122 -40 -612 -203 -1090 -362 l-867 -289 0 -115 0 -115 -940 -235 -940
-235 2 -2999 3 -3000 2200 -547 c1210 -301 2202 -545 2205 -542 3 2 57 168
120 367 l115 363 310 -91 310 -90 235 -273 235 -273 265 -134 265 -134 65 -92
65 -92 1060 -545 1060 -546 1305 -383 1304 -384 21 25 c11 14 65 81 120 150
l100 124 47 1 c192 1 1903 -52 1908 -60 4 -6 14 -53 24 -105 l18 -95 704 0
703 0 268 55 268 55 115 -120 115 -120 212 -19 212 -20 168 -123 c92 -67 203
-143 246 -169 l78 -46 1217 -7 c669 -3 1309 -9 1422 -12 l205 -7 257 -317 257
-318 638 -322 c351 -178 639 -324 641 -326 2 -1 -2 -256 -8 -566 -11 -552 -12
-576 -66 -1208 l-56 -645 -137 -950 -137 -950 -88 -190 c-87 -190 -87 -190
-196 -610 -97 -376 -163 -590 -629 -2055 l-520 -1635 -623 -1385 -623 -1385
-643 -1054 -643 -1055 -524 -740 -524 -741 -355 -424 c-347 -414 -360 -428
-506 -549 -83 -69 -149 -126 -147 -128 2 -3 73 -31 158 -64 l154 -60 215 6
215 7 580 247 581 246 794 606 795 607 936 958 937 958 1026 1333 1026 1334
1012 1686 1012 1687 879 1985 878 1985 350 1070 350 1070 275 1110 c151 611
277 1117 280 1127 4 13 -5 17 -51 20 l-55 3 -215 -167 c-118 -92 -215 -164
-215 -160 0 12 843 4007 846 4011 2 2 34 0 72 -5 l68 -10 38 511 c21 280 39
510 39 511 1 0 38 15 82 33 44 18 83 36 87 39 4 4 11 187 17 407 6 220 13 450
16 511 l6 110 -88 36 c-80 33 -88 39 -91 65 -1 15 -25 339 -52 718 l-50 690
-195 889 -195 890 -317 850 -317 851 -441 800 -440 800 -542 720 -541 720
-648 647 -649 647 -735 548 -735 549 -805 391 -805 390 -860 286 -860 286
-497 80 c-273 45 -502 81 -507 81 -6 0 -13 -10 -15 -22z"/>
</g>
</svg>
