<?xml version="1.0" standalone="no"?>
<!DOCTYPE svg PUBLIC "-//W3C//DTD SVG 20010904//EN"
 "http://www.w3.org/TR/2001/REC-SVG-20010904/DTD/svg10.dtd">
<svg version="1.0" xmlns="http://www.w3.org/2000/svg"
   viewBox="0 0 4098.000000 849.000000"
 preserveAspectRatio="xMidYMid meet">
<metadata>
Created by potrace 1.16, written by Peter Selinger 2001-2019
</metadata>
<g transform="translate(0.000000,849.000000) scale(0.100000,-0.100000)"
fill="#000000" stroke="none">
<path d="M7980 8380 l0 -110 -90 0 -90 0 0 -85 0 -85 30 0 30 0 0 -170 0 -170
130 0 130 0 0 -35 0 -35 -100 0 -100 0 0 -45 0 -45 45 0 45 0 0 -105 0 -105
-220 0 -220 0 0 -85 0 -85 -29 0 c-21 0 -40 -12 -75 -50 -25 -27 -46 -56 -46
-65 0 -8 -3 -15 -7 -15 -5 -1 -144 -11 -310 -24 l-302 -23 -89 -57 c-84 -53
-90 -59 -102 -104 -7 -26 -16 -50 -19 -53 -3 -4 -1208 -10 -2677 -13 l-2670
-6 -285 -84 c-156 -46 -317 -93 -357 -105 l-73 -22 6 -32 c4 -18 16 -40 27
-50 24 -20 24 -19 -19 -41 -18 -9 -59 -38 -91 -65 -56 -47 -61 -54 -81 -128
-24 -89 -28 -208 -10 -310 10 -57 16 -68 55 -100 39 -33 42 -39 29 -53 -12
-14 -15 -56 -15 -237 0 -205 1 -221 19 -229 18 -9 18 -13 -6 -129 l-24 -120
22 -104 c16 -77 18 -105 9 -111 -19 -12 -352 -22 -359 -11 -9 15 -91 1 -91
-15 0 -12 44 -14 240 -14 l239 0 31 -45 31 -45 -50 0 c-27 0 -53 -4 -56 -10
-4 -6 18 -10 58 -10 l63 0 23 -40 c14 -25 63 -72 133 -126 110 -87 111 -88
272 -141 88 -29 177 -56 196 -59 22 -4 46 -18 65 -39 l30 -33 1853 -213 1852
-214 0 -102 0 -103 85 0 84 0 3 96 3 96 28 -22 c25 -20 27 -27 27 -96 l0 -74
85 0 85 0 0 29 0 29 143 -55 c78 -30 179 -69 225 -85 l83 -31 217 83 c146 56
228 83 252 81 19 -1 341 -37 715 -80 l680 -79 2330 -835 2330 -835 5 -394 c4
-329 9 -418 24 -429 0 -1 325 -22 721 -48 l720 -46 3 -417 2 -416 48 -11 c26
-5 187 -37 357 -70 l311 -61 2699 0 2700 -1 420 53 420 53 440 262 440 263
672 0 672 0 16 23 c15 22 17 22 337 25 l322 4 78 39 c43 21 87 39 99 39 12 0
42 7 68 15 25 8 210 33 411 56 349 38 377 43 655 109 160 39 315 81 345 95 50
23 159 36 1297 165 l1242 139 248 136 248 137 1759 107 1759 107 266 -28 c146
-15 286 -27 312 -28 25 0 178 29 340 64 161 35 337 71 389 80 52 9 707 86
1455 171 1077 123 1390 162 1503 187 l142 31 0 44 0 43 -45 0 -45 0 0 54 c0
43 4 56 18 60 9 3 168 34 353 70 l337 66 381 0 381 0 0 75 0 74 38 7 c20 3 68
12 105 20 49 10 152 14 372 14 l303 0 64 71 64 71 320 63 c175 35 333 69 351
75 29 11 36 8 101 -35 l69 -46 157 75 c145 69 157 73 166 56 16 -30 12 -40
-15 -40 -16 0 -25 -6 -25 -15 0 -13 7 -15 38 -9 20 4 47 13 59 21 18 12 116
15 545 19 288 3 538 7 556 10 19 3 32 11 32 19 0 11 -13 15 -54 15 -30 0 -56
-4 -58 -10 -3 -9 -927 5 -936 15 -2 2 2 13 8 25 8 15 9 25 2 32 -7 7 -14 2
-22 -13 -7 -13 -14 -26 -16 -28 -3 -3 -18 8 -34 24 -38 37 -40 85 -5 137 21
30 39 41 116 69 139 50 252 122 325 208 53 63 63 82 78 145 16 71 16 76 -2
149 -28 107 -92 186 -213 263 -49 31 -89 63 -89 70 0 7 -21 19 -47 27 -45 14
-33 15 197 16 276 1 350 7 350 27 0 16 -95 20 -105 5 -6 -10 -548 -3 -577 8
-14 5 -9 15 29 55 41 42 53 49 100 55 64 9 88 29 174 148 81 112 128 245 136
388 l6 102 -57 169 -56 169 -113 91 c-122 99 -139 110 -179 118 l-27 6 47 44
46 44 -64 95 c-64 94 -66 96 -135 123 l-70 28 -505 15 -505 16 -3 126 c-3 124
-3 126 -28 138 -17 7 -128 11 -357 11 l-332 0 -125 -123 -125 -124 -1239 38
c-681 21 -1240 40 -1242 42 -2 2 -7 177 -10 388 -5 417 -9 469 -28 469 -13 0
-26 -332 -26 -692 l0 -168 -49 0 -48 0 -7 77 c-3 42 -6 109 -6 150 0 42 -4 73
-10 73 -5 0 -10 9 -10 20 0 13 -7 20 -20 20 -11 0 -20 -7 -20 -15 0 -9 -7 -18
-15 -21 -11 -4 -15 -21 -15 -59 0 -28 -3 -93 -6 -143 l-7 -92 -38 0 c-34 0
-39 3 -39 23 -1 13 -25 48 -58 84 l-57 62 -1073 33 -1072 32 -65 -64 c-36 -35
-65 -73 -65 -84 0 -18 -6 -19 -96 -13 -54 4 -98 8 -100 10 -2 2 -7 92 -12 200
-5 108 -11 199 -14 203 -19 18 -28 -15 -28 -100 0 -51 -3 -141 -7 -199 l-6
-107 -79 0 -78 0 0 58 c0 33 -3 134 -7 225 l-6 167 81 0 c48 0 82 4 82 10 0 6
-9 10 -20 10 -18 0 -20 7 -21 83 -1 45 -5 143 -8 217 -6 106 -8 120 -11 65 -1
-38 -6 -124 -10 -190 l-6 -120 -3 150 c-4 189 -18 148 -20 -57 -1 -91 -5 -148
-11 -148 -5 0 -10 12 -11 28 l-1 27 -10 -27 c-5 -16 -16 -28 -24 -28 -11 0
-14 20 -14 95 0 74 -3 95 -14 95 -19 0 -26 -32 -26 -117 0 -71 -1 -73 -25 -73
-24 0 -25 2 -26 78 -1 42 -4 102 -9 132 -6 44 -7 29 -9 -77 -1 -111 -3 -133
-16 -133 -8 0 -15 -4 -15 -10 0 -5 23 -10 51 -10 l51 0 -6 -37 c-3 -21 -8
-120 -12 -220 l-6 -183 -83 0 -82 0 -6 122 c-4 66 -7 161 -7 210 0 80 -2 89
-17 86 -16 -3 -19 -24 -25 -207 -3 -111 -8 -204 -10 -206 -2 -1 -109 1 -238 6
-129 4 -274 8 -322 8 l-86 1 -7 170 c-7 153 -9 170 -25 170 -16 0 -19 -17 -25
-169 l-7 -168 -42 4 c-22 2 -387 28 -811 59 -423 30 -771 56 -773 58 -2 2 -58
215 -126 472 -104 398 -120 470 -107 475 9 3 86 14 171 24 l155 18 960 -51
960 -50 125 93 125 93 203 5 c112 2 205 7 208 9 2 3 -9 60 -25 128 l-29 122
78 57 c66 47 84 67 115 125 32 59 39 83 50 179 l13 111 -29 43 c-30 43 -30 43
-92 43 -34 0 -746 25 -1582 55 l-1520 55 -1385 6 c-762 3 -2085 1 -2940 -4
-1495 -10 -1591 -12 -2505 -46 -522 -20 -1404 -61 -1960 -91 -1000 -55 -1019
-57 -1898 -144 -488 -48 -889 -90 -892 -93 -7 -7 27 -371 35 -381 4 -5 418 10
920 33 502 23 913 40 914 38 2 -2 60 -70 129 -151 70 -81 127 -151 127 -155 0
-5 -150 -27 -332 -50 -315 -40 -347 -43 -584 -42 l-252 0 -368 -336 -368 -336
-36 39 c-19 21 -49 54 -66 74 -17 20 -51 48 -76 63 l-45 26 -1295 0 -1296 0
-62 78 -62 77 178 8 c169 7 185 10 308 48 71 21 130 40 131 42 0 1 6 13 12 27
6 14 53 57 105 95 85 62 99 77 148 159 55 89 55 90 55 170 -1 80 -1 82 -55
169 -43 70 -67 98 -122 138 -52 39 -68 57 -68 75 0 21 -12 31 -77 62 -43 20
-165 94 -272 164 l-194 128 -1541 0 -1541 0 -260 -45 c-189 -33 -327 -64 -505
-114 l-245 -68 -190 -123 c-104 -68 -239 -164 -300 -215 -60 -50 -115 -94
-122 -98 -6 -4 -285 -59 -620 -122 -609 -115 -733 -132 -733 -100 0 13 -33 15
-235 15 l-235 0 0 105 0 105 45 0 45 0 0 45 0 45 -100 0 -100 0 0 105 0 105
-87 1 -88 1 45 14 c25 8 93 24 153 37 l107 22 0 212 c0 193 -2 212 -17 217
-10 2 -56 12 -102 21 -46 9 -120 28 -164 41 -45 13 -106 24 -139 24 l-58 0 0
-110z m70 -490 c40 0 70 -4 70 -10 0 -6 -32 -10 -75 -10 l-75 0 2 118 2 117 3
-107 4 -108 69 0z m10708 -853 c-7 -13 -37 -62 -67 -109 l-54 -85 -96 -21
c-53 -11 -97 -19 -98 -18 -1 1 62 59 140 128 90 81 150 127 165 127 21 1 22
-1 10 -22z m14095 -733 l77 -7 0 -55 0 -55 -172 7 c-95 4 -175 9 -177 12 -3 2
17 27 44 54 55 56 63 57 228 44z m962 -29 c297 -9 573 -18 613 -21 l72 -6 0
-55 0 -55 -107 6 c-60 3 -362 13 -673 21 -311 9 -607 18 -657 21 l-93 6 0 55
0 56 153 -6 c83 -4 395 -14 692 -22z m1010 -75 c70 -68 64 -74 -62 -67 -58 4
-130 7 -160 7 l-53 0 0 56 0 56 115 -3 114 -4 46 -45z m3295 -71 l0 -102 -37
7 c-21 3 -86 6 -146 6 l-107 0 97 95 c95 92 99 94 146 95 l47 0 0 -101z m320
-5 l0 -106 -31 6 c-17 3 -76 6 -130 6 l-99 0 0 100 0 100 130 0 130 0 0 -106z
m230 1 l0 -105 -85 0 -85 0 0 105 0 105 85 0 85 0 0 -105z"/>
</g>
</svg>
