<?xml version="1.0" standalone="no"?>
<!DOCTYPE svg PUBLIC "-//W3C//DTD SVG 20010904//EN"
 "http://www.w3.org/TR/2001/REC-SVG-20010904/DTD/svg10.dtd">
<svg version="1.0" xmlns="http://www.w3.org/2000/svg"
   viewBox="0 0 3068.000000 805.000000"
 preserveAspectRatio="xMidYMid meet">
<metadata>
Created by potrace 1.16, written by Peter Selinger 2001-2019
</metadata>
<g transform="translate(0.000000,805.000000) scale(0.100000,-0.100000)"
fill="#000000" stroke="none">
<path d="M5690 7989 c-806 -32 -1800 -76 -2210 -97 l-745 -39 -232 -93 -233
-94 0 -728 0 -728 -502 0 -503 1 -550 -97 c-302 -54 -554 -100 -558 -104 -5
-4 -42 -131 -83 -281 l-74 -274 0 -1432 0 -1432 75 -277 c42 -153 77 -279 78
-280 1 -1 258 -47 572 -103 l570 -101 488 0 487 0 0 -724 0 -724 243 -96 242
-95 810 -41 c446 -22 1458 -65 2250 -96 l1440 -55 765 25 c421 15 1089 35
1485 46 l720 20 910 85 c733 68 1071 94 1735 135 l825 50 520 80 c465 72 674
97 1980 240 1453 159 1464 160 2227 277 l768 118 1 270 c2 239 3 256 10 146 4
-68 12 -128 18 -134 8 -8 327 30 1099 132 598 78 1600 210 2227 292 627 82
1557 209 2067 284 l928 135 144 91 c143 90 147 91 295 129 l151 38 173 166
c158 150 178 174 225 259 29 51 58 101 64 110 9 12 97 34 308 77 l295 61 597
241 c510 205 597 243 600 262 2 15 13 23 38 28 19 4 334 28 700 53 1003 69
923 58 1250 163 l275 87 3 30 c2 16 9 33 15 37 9 6 9 8 0 8 -7 0 -13 8 -13 18
0 21 -38 35 -375 141 -183 57 -197 60 -380 75 -174 15 -1452 106 -1488 106 -8
0 -19 13 -25 28 -9 26 -42 41 -430 197 l-421 169 -7 66 c-6 58 -17 84 -103
237 l-96 173 -173 166 -173 167 -150 37 c-147 37 -151 39 -296 129 l-146 92
-961 139 c-529 77 -1530 214 -2226 305 -696 91 -1686 221 -2200 288 l-935 123
-7 -45 c-3 -25 -7 -278 -7 -562 l-1 -515 -30 -22 c-24 -18 -43 -22 -103 -22
l-73 0 -17 228 c-10 125 -17 246 -17 270 0 27 -8 55 -23 77 l-22 35 -132 0
-133 0 0 83 c0 45 -4 98 -9 117 -5 19 -12 47 -15 63 l-6 27 -145 0 -145 0 0
270 0 270 -22 5 c-13 3 -345 54 -738 115 -701 108 -744 113 -2215 275 -1330
147 -1559 175 -2015 245 l-515 79 -835 51 c-670 41 -1014 68 -1740 135 l-905
83 -775 22 c-426 11 -1085 32 -1465 45 -379 14 -717 24 -750 24 -33 -1 -719
-28 -1525 -60z"/>
</g>
</svg>
