<?xml version="1.0" standalone="no"?>
<!DOCTYPE svg PUBLIC "-//W3C//DTD SVG 20010904//EN"
 "http://www.w3.org/TR/2001/REC-SVG-20010904/DTD/svg10.dtd">
<svg version="1.0" xmlns="http://www.w3.org/2000/svg"
   viewBox="0 0 4203.000000 3068.000000"
 preserveAspectRatio="xMidYMid meet">
<metadata>
Created by potrace 1.16, written by Peter Selinger 2001-2019
</metadata>
<g transform="translate(0.000000,3068.000000) scale(0.100000,-0.100000)"
fill="#000000" stroke="none">
<path d="M5015 30604 l-220 -74 -41 -63 -41 -62 -13 -277 c-7 -153 -16 -281
-19 -286 -3 -5 -39 -32 -79 -61 -42 -31 -74 -62 -76 -74 -5 -26 -27 -347 -35
-527 l-6 -124 -1500 -182 c-825 -100 -1509 -184 -1520 -188 -11 -4 -35 -20
-54 -37 -30 -28 -50 -77 -194 -482 l-159 -452 16 -50 c9 -28 21 -58 28 -67 7
-9 200 -118 429 -244 313 -171 415 -231 412 -243 -3 -12 -143 -48 -591 -151
l-586 -136 -69 -139 -69 -140 -170 -820 c-93 -451 -176 -854 -185 -897 -17
-84 -21 -88 -100 -88 -24 0 -43 -3 -43 -7 0 -5 -14 -240 -30 -523 -43 -744
-60 -1268 -60 -1910 l0 -566 23 -34 24 -34 -43 -80 -43 -81 7 -147 c4 -81 11
-150 14 -153 3 -4 81 -18 172 -33 91 -14 166 -28 166 -32 0 -3 -38 -26 -84
-50 -97 -52 -85 -21 -111 -280 -14 -132 -24 -180 -67 -320 l-51 -165 12 -178
12 -178 46 -42 45 -42 407 -82 406 -82 95 9 c52 6 110 13 127 16 l33 5 0 -346
0 -345 568 0 569 0 6 -167 c4 -91 7 -204 7 -250 l0 -83 242 -180 242 -180 408
0 408 0 0 -190 0 -189 43 -11 c23 -6 59 -16 80 -21 20 -5 55 -14 77 -19 l40
-11 0 -84 0 -85 185 0 185 0 0 85 0 85 1045 0 1045 0 0 220 c0 189 2 220 15
220 13 0 15 -41 15 -305 l0 -305 170 0 170 0 0 84 0 83 113 6 c61 3 511 19
999 34 l887 27 48 63 48 62 125 1 c69 0 1912 16 4095 35 2184 19 4063 35 4178
35 l207 0 0 60 0 60 -117 0 c-341 -2 -8248 62 -8360 66 l-132 6 -45 58 -45 57
-143 6 c-79 4 -245 10 -371 13 l-227 7 140 104 140 103 0 175 0 175 116 0 116
0 214 93 214 92 0 393 0 392 4789 0 4789 0 67 -345 67 -345 2049 0 2049 0 0
-263 0 -262 -157 -62 -158 -61 -3 -256 c-1 -141 -6 -256 -10 -256 -22 1 -681
-52 -699 -56 l-23 -4 -2 -1038 c-2 -578 -4 -788 -5 -474 -2 339 -7 562 -12
562 -6 0 -211 -30 -456 -66 l-447 -66 -406 -117 -407 -118 -23 -41 c-23 -40
-23 -40 -95 -46 -40 -3 -166 -11 -282 -17 l-210 -10 -380 -90 -380 -90 -45
-49 -45 -48 7 -399 c4 -219 4 -578 0 -797 l-7 -400 39 -46 39 -47 381 -91 381
-92 265 -15 c146 -8 275 -15 288 -15 16 0 28 -11 43 -42 l21 -43 408 -118 409
-118 437 -65 c240 -35 445 -64 455 -64 18 0 19 24 22 583 2 577 2 575 5 -170
1 -414 5 -753 10 -753 4 1 660 -49 1457 -111 l1450 -111 165 -169 165 -169
1612 0 1612 0 3 -147 3 -147 1012 -161 1013 -160 2 -370 3 -369 110 -41 110
-40 0 -165 0 -164 -475 -48 -475 -48 -340 -106 c-187 -59 -346 -110 -354 -114
-7 -4 -28 -42 -46 -85 l-32 -79 -256 -89 -255 -89 -21 -97 c-12 -53 -25 -103
-30 -111 -4 -8 -192 -85 -417 -171 l-410 -157 -472 -331 -472 -331 -488 0
-488 0 -302 -256 -302 -256 0 -381 0 -382 463 -327 462 -328 460 0 c253 0 489
-3 525 -6 l66 -7 36 -68 c19 -38 34 -69 33 -69 -37 0 -115 -26 -135 -44 l-25
-24 -823 -25 c-736 -22 -825 -27 -842 -42 -17 -15 -113 -17 -1187 -25 -642 -5
-1329 -9 -1525 -10 -298 0 -358 -2 -358 -14 0 -17 400 -23 2000 -32 992 -5
1056 -6 1070 -23 14 -16 79 -20 800 -40 432 -12 804 -24 827 -27 24 -3 55 -15
70 -28 24 -19 102 -35 558 -114 l530 -92 987 0 986 0 6 -27 c3 -16 71 -417
151 -893 80 -476 149 -874 154 -885 6 -14 56 -38 180 -84 l171 -65 0 -350 1
-351 344 -200 345 -200 0 -337 0 -338 -105 0 -105 0 0 -124 0 -123 -542 -7
c-695 -8 -888 -15 -888 -31 0 -18 163 -24 847 -31 l582 -7 3 -25 c3 -23 10
-27 78 -42 41 -9 87 -20 103 -23 l27 -7 0 -280 0 -280 -105 0 -105 0 0 -169 0
-168 -247 -7 c-137 -3 -403 -8 -593 -11 -466 -7 -590 -14 -590 -30 0 -16 131
-21 919 -35 l573 -10 67 -39 c43 -26 107 -81 185 -160 l120 -121 698 0 698 0
0 -563 0 -562 85 -93 85 -92 114 110 c106 103 158 171 732 953 l617 841 548
981 547 980 118 50 119 50 478 955 479 955 398 1038 398 1037 -149 254 c-82
140 -149 259 -149 266 0 9 151 714 175 816 4 20 8 20 277 16 l273 -4 250 122
c137 67 251 122 252 124 1 1 20 85 43 186 22 102 43 192 46 201 2 10 41 32 86
50 44 19 82 38 84 44 2 5 74 341 159 745 85 404 159 743 163 754 4 10 53 45
108 76 l99 58 42 188 c32 145 58 310 107 704 60 480 64 516 48 528 -9 8 -75
43 -147 79 -71 36 -132 67 -134 69 -4 4 38 344 44 354 3 4 86 54 186 110 111
64 184 111 189 124 14 35 148 1161 154 1295 3 68 8 127 11 130 6 5 870 -38
1293 -65 134 -9 253 -13 265 -10 12 4 47 29 77 58 l54 51 18 131 c10 72 69
545 133 1050 92 732 113 921 103 928 -7 5 -44 25 -81 46 l-68 37 6 50 c3 28
13 105 22 172 l16 123 86 -7 c80 -5 90 -4 138 20 28 15 54 35 57 44 2 10 8
149 11 309 l7 291 64 39 63 38 5 61 c5 53 77 1944 76 2002 0 17 -13 29 -50 48
l-50 25 0 229 0 229 -62 29 -63 29 -639 27 c-576 25 -641 29 -652 45 -6 9 -46
64 -88 122 -41 57 -72 107 -68 111 4 3 74 16 156 28 83 12 151 23 153 25 2 2
-75 94 -172 204 -127 145 -184 202 -203 206 -15 3 -66 8 -113 12 l-86 6 -94
126 c-52 69 -97 130 -101 137 -5 8 19 23 77 46 47 19 84 37 82 40 -1 4 -112
85 -247 181 l-245 175 -2446 1029 -2447 1029 -68 109 -69 110 -2650 1009
-2650 1008 -1935 559 -1935 559 -79 82 c-78 80 -82 83 -170 110 -50 15 -890
262 -1866 548 l-1775 519 -2202 486 c-1212 267 -2207 486 -2212 486 -5 0 -42
-40 -82 -90 -40 -49 -73 -90 -74 -90 0 0 -63 14 -140 30 -77 17 -143 30 -146
30 -3 0 -16 28 -29 63 -12 34 -26 67 -31 73 -5 6 -47 19 -94 29 l-86 18 -52
-56 -52 -55 -166 35 -166 36 -34 71 -34 71 -84 18 -85 18 -53 -53 -53 -52
-163 33 c-89 18 -165 35 -168 37 -4 2 -12 32 -19 67 l-12 64 -77 16 c-42 10
-83 17 -91 17 -9 0 -33 -22 -55 -50 -22 -27 -44 -50 -50 -50 -5 0 -69 13 -141
28 l-131 28 -129 -109 c-71 -60 -159 -133 -196 -163 l-67 -55 -210 46 c-116
26 -214 44 -219 41 -5 -3 -68 -101 -141 -219 l-133 -214 -142 -6 c-77 -4 -192
-7 -254 -7 -73 0 -1517 134 -4036 375 -2157 206 -3925 375 -3927 374 -2 0
-103 -34 -224 -75z"/>
</g>
</svg>
