<?xml version="1.0" standalone="no"?>
<!DOCTYPE svg PUBLIC "-//W3C//DTD SVG 20010904//EN"
 "http://www.w3.org/TR/2001/REC-SVG-20010904/DTD/svg10.dtd">
<svg version="1.0" xmlns="http://www.w3.org/2000/svg"
   viewBox="0 0 1741.000000 3822.000000"
 preserveAspectRatio="xMidYMid meet">
<metadata>
Created by potrace 1.16, written by Peter Selinger 2001-2019
</metadata>
<g transform="translate(0.000000,3822.000000) scale(0.100000,-0.100000)"
fill="#000000" stroke="none">
<path d="M3365 37857 l-187 -362 6 -79 c4 -44 8 -81 9 -82 1 -1 227 -74 502
-163 275 -88 583 -188 685 -223 l185 -63 43 -635 c24 -349 45 -640 47 -646 2
-6 515 -381 1142 -834 626 -452 1148 -832 1159 -844 19 -19 28 -70 78 -446 32
-234 58 -431 59 -438 2 -15 -361 -182 -395 -182 -19 0 -47 43 -178 270 l-155
270 -358 0 -358 0 -962 -250 c-529 -138 -965 -254 -968 -258 -4 -4 -26 -76
-50 -159 l-43 -153 -350 0 -351 0 -712 -297 -713 -298 0 -722 0 -723 -32 0
c-18 0 -206 11 -418 24 l-385 24 -314 -44 c-240 -34 -319 -48 -334 -62 -18
-16 -19 -26 -13 -133 l6 -115 314 -568 c173 -313 320 -574 328 -581 7 -6 193
-49 413 -94 220 -45 408 -85 417 -87 17 -5 18 -62 20 -965 l3 -960 699 -295
700 -294 178 0 178 0 2 -287 3 -287 377 -110 376 -111 34 -110 34 -109 39 -11
c66 -17 65 -15 65 -144 0 -134 2 -131 -87 -131 l-43 0 0 -45 0 -45 65 0 65 0
0 -990 0 -990 -29 0 -29 0 -7 97 c-14 188 -41 209 -253 197 l-127 -7 -69 212
-69 211 -373 0 -373 0 -1158 -276 c-637 -151 -1160 -278 -1163 -281 -3 -2 -28
-140 -55 -306 l-51 -302 51 -304 c44 -267 53 -305 70 -313 11 -4 533 -129
1160 -277 l1140 -269 375 -7 375 -7 71 214 71 213 139 0 c86 0 149 5 166 12
17 8 37 32 53 62 21 42 25 64 25 136 l0 85 29 0 29 0 6 -892 c4 -491 9 -931
12 -978 l6 -85 179 -98 179 -98 0 -937 -1 -937 58 -189 58 -188 158 -120 c104
-78 177 -126 210 -137 l52 -18 5 -829 c5 -846 7 -886 43 -920 7 -6 95 -39 197
-74 102 -34 249 -85 328 -112 l142 -50 0 -318 c0 -175 3 -326 7 -336 3 -9 183
-224 400 -478 l393 -461 0 -925 0 -925 433 -218 432 -217 643 0 642 0 0 -400
0 -400 -27 -6 c-16 -4 -145 -37 -288 -74 l-260 -67 -3 -171 c-2 -171 -2 -172
20 -177 13 -3 151 -30 308 -61 157 -30 293 -57 302 -60 16 -5 18 -24 18 -218
l0 -213 88 -41 c48 -22 229 -108 402 -191 l315 -150 3 -358 2 -358 175 -110
175 -110 0 -1284 0 -1285 -175 -176 -175 -176 0 -903 0 -903 -50 -60 -50 -60
0 -1773 c0 -976 4 -1776 8 -1779 5 -3 299 286 654 642 l646 647 638 1055 637
1055 615 1250 614 1250 503 1395 503 1395 425 1495 c420 1476 428 1505 623
2320 l196 825 68 700 c61 642 65 701 51 717 -13 14 -42 19 -156 24 l-140 6
-204 -251 -205 -251 -133 0 -133 0 0 1423 0 1423 353 434 353 435 141 1174
142 1174 -114 122 -115 122 -128 18 -128 19 -53 123 c-58 133 -70 151 -179
267 l-70 76 -184 40 c-230 50 -241 55 -233 89 3 14 39 226 80 470 41 244 75
444 77 446 2 1 47 12 101 24 l97 22 0 173 0 173 302 6 c166 4 382 7 480 7
l178 0 0 29 c0 25 -4 29 -37 35 -21 3 -237 6 -480 6 l-443 0 0 159 0 159 27 6
c14 4 29 3 32 -2 3 -5 23 -36 45 -68 l39 -60 477 -113 c263 -62 484 -111 493
-109 8 1 81 91 162 198 81 107 150 198 154 202 4 5 51 -7 104 -25 l98 -32 97
-165 c86 -145 102 -167 137 -184 22 -10 170 -68 329 -128 246 -92 292 -106
304 -95 11 12 11 32 3 113 -6 54 -22 326 -37 604 l-25 505 -117 795 -117 795
-62 41 c-35 22 -65 42 -67 45 -3 3 -111 578 -240 1279 l-236 1275 -507 1240
-507 1240 -596 955 c-328 525 -610 979 -626 1008 -16 29 -405 526 -864 1104
l-835 1052 -710 557 -710 558 -199 223 -198 223 -957 548 -956 549 -888 410
-887 410 -612 132 -612 133 -335 -112 -334 -111 -781 142 c-430 79 -793 145
-807 148 -25 5 -33 -8 -214 -357z m825 -15297 c0 -159 0 -160 -22 -160 -23 0
-23 1 -23 160 0 159 0 160 23 160 22 0 22 -1 22 -160z"/>
</g>
</svg>
