<?xml version="1.0" standalone="no"?>
<!DOCTYPE svg PUBLIC "-//W3C//DTD SVG 20010904//EN"
 "http://www.w3.org/TR/2001/REC-SVG-20010904/DTD/svg10.dtd">
<svg version="1.0" xmlns="http://www.w3.org/2000/svg"
   viewBox="0 0 3993.000000 828.000000"
 preserveAspectRatio="xMidYMid meet">
<metadata>
Created by potrace 1.16, written by Peter Selinger 2001-2019
</metadata>
<g transform="translate(0.000000,828.000000) scale(0.100000,-0.100000)"
fill="#000000" stroke="none">
<path d="M8224 7376 c2 -780 0 -909 -12 -914 -12 -4 -14 -52 -7 -324 l7 -318
-136 0 -136 0 0 28 c0 15 -5 137 -12 270 -9 184 -15 245 -25 249 -10 4 -13 40
-13 152 0 80 -7 263 -15 406 -8 143 -15 328 -16 410 -1 83 -4 184 -8 225 -3
41 -7 -208 -8 -554 -1 -434 -5 -632 -12 -639 -7 -7 -11 -76 -11 -191 0 -100
-3 -218 -7 -263 l-6 -83 -41 0 c-36 0 -47 -6 -98 -57 -32 -31 -60 -54 -63 -52
-4 5 -35 994 -35 1147 0 32 -4 52 -11 52 -9 0 -10 -152 -4 -600 l7 -600 -260
0 -260 0 -6 -22 c-3 -13 -6 -44 -6 -70 l0 -46 -62 -21 c-196 -66 -894 -305
-896 -307 -2 -1 -8 -92 -13 -201 -8 -177 -58 -864 -63 -870 -2 -2 -28 2 -58 8
-51 10 -57 14 -62 41 -3 17 -6 45 -6 63 l0 32 -92 7 c-51 3 -167 9 -257 12
l-163 7 6 86 c3 47 8 138 12 201 l6 115 -119 173 -118 174 -168 -7 -168 -7 5
23 c6 24 26 174 26 188 0 5 -181 6 -402 3 -369 -5 -401 -4 -395 12 6 14 -6 16
-107 16 -105 0 -114 -1 -119 -20 -5 -18 -14 -20 -91 -20 -70 0 -86 3 -86 15 0
12 -19 15 -111 15 -102 0 -111 -2 -116 -20 -5 -18 -14 -20 -88 -20 -78 0 -83
1 -78 20 5 17 0 20 -28 20 -91 0 -199 -14 -199 -25 0 -16 -153 -25 -420 -25
l-207 0 -6 83 c-4 45 -7 107 -7 138 0 31 -3 59 -8 63 -4 4 -12 139 -18 299
l-11 292 -1 -292 c-1 -182 -6 -294 -12 -298 -6 -4 -10 -65 -10 -151 l0 -144
-41 0 c-34 0 -49 -7 -92 -45 -47 -42 -56 -45 -97 -43 l-45 3 -3 173 c-1 94 -6
172 -11 172 -8 0 -15 153 -30 625 -6 201 -7 184 -9 -202 -1 -233 -5 -423 -10
-423 -4 0 -6 -78 -4 -173 l4 -174 -230 -7 -231 -7 -121 -49 -121 -50 -633 0
-634 0 -7 -562 c-4 -310 -5 -597 -3 -638 l3 -75 414 -3 414 -2 -7 -68 c-3 -37
-9 -142 -13 -234 l-6 -168 -263 0 c-144 0 -269 -3 -278 -6 -14 -5 -16 -59 -16
-500 l0 -494 881 0 882 0 -7 345 -8 345 236 0 236 0 0 84 0 83 108 7 c59 3
257 9 440 12 l332 7 0 -197 0 -196 660 0 660 0 0 205 0 205 98 1 c53 1 141 4
195 8 l98 6 123 100 124 99 7 88 c5 73 9 88 23 88 10 0 123 -5 251 -11 182 -8
236 -8 242 2 4 7 10 36 14 66 5 44 10 53 23 49 9 -2 33 -7 54 -10 l36 -7 -5
-57 c-3 -31 -22 -266 -42 -522 l-36 -465 -514 -3 c-440 -2 -517 -4 -531 -17
-13 -12 -46 -15 -156 -15 -76 0 -311 -3 -521 -7 -310 -5 -383 -9 -383 -20 0
-10 -34 -13 -168 -13 -191 0 -322 -9 -322 -21 0 -5 84 -9 188 -9 499 1 2069
-22 2084 -31 10 -5 84 -9 164 -9 l147 0 -7 -102 c-4 -57 -9 -117 -12 -133 -5
-30 0 -34 257 -214 145 -101 277 -187 293 -191 17 -5 75 -14 128 -20 l97 -12
162 -259 161 -259 82 0 c44 0 486 7 981 16 621 12 903 20 911 28 6 6 62 124
124 261 63 138 116 253 119 256 5 6 927 39 1071 39 l55 0 290 199 290 198 9
152 8 151 349 0 349 0 2 -446 3 -446 290 -112 290 -112 3 -88 3 -88 189 7 190
8 0 -70 0 -70 31 -7 c17 -3 41 -6 53 -6 16 0 37 -26 84 -100 l64 -100 41 0
c23 0 501 -9 1061 -20 561 -11 1023 -17 1028 -14 5 3 35 45 68 94 63 93 62 93
150 102 25 3 25 4 33 132 4 71 8 131 10 132 1 1 69 6 150 10 l148 7 75 103
c72 98 78 105 127 119 51 14 412 113 493 134 29 8 43 18 47 32 3 12 11 169 17
348 6 179 13 354 16 389 l6 62 294 0 294 0 0 -330 0 -330 65 0 65 0 32 -65 32
-65 477 0 476 0 62 65 63 65 166 0 c137 0 222 7 471 40 l305 40 435 0 c380 0
437 2 452 16 15 14 113 14 994 5 717 -7 981 -13 989 -21 8 -9 -80 -11 -364
-10 -555 4 -550 4 -550 -20 0 -25 -12 -24 522 -20 l408 3 6 -32 7 -31 128 0
129 0 0 -128 c0 -88 4 -133 13 -143 6 -9 80 -53 162 -99 83 -45 223 -125 311
-176 128 -75 170 -94 200 -94 22 0 62 -3 91 -6 l52 -7 47 -108 48 -109 192 0
c106 0 203 -4 216 -9 22 -8 24 -18 46 -211 12 -112 23 -205 25 -207 5 -5 2741
-52 2746 -47 4 3 30 358 31 416 l0 27 175 -6 174 -6 52 111 c57 124 54 122
167 122 67 0 100 9 404 115 182 63 332 115 333 117 1 2 10 206 19 453 9 248
19 494 22 548 l7 97 204 0 205 0 -6 -57 c-3 -32 -8 -148 -11 -258 -3 -110 -8
-236 -11 -280 l-6 -80 114 -31 113 -30 3 -145 3 -145 259 -112 260 -112 2063
20 2062 21 182 87 c201 97 193 88 193 197 l0 41 123 30 122 30 12 84 c6 47 12
118 12 159 l1 74 153 -7 c83 -4 171 -9 194 -13 l43 -5 -5 -112 c-7 -145 -35
-1098 -36 -1244 -1 -62 1 -115 4 -118 3 -3 117 5 255 18 l250 24 -5 -96 c-4
-60 -1 -110 6 -131 l11 -35 328 50 c346 53 406 57 677 41 l120 -7 70 -155 70
-155 62 4 63 4 23 -61 23 -60 45 3 c115 7 558 50 566 55 6 4 16 33 22 65 l13
58 1278 109 1277 110 48 137 c27 75 51 142 54 147 4 5 143 21 311 35 168 15
320 29 338 32 l32 5 0 226 0 226 -305 -7 -306 -7 3 128 3 127 93 17 c51 9 95
18 97 21 3 3 2 91 -1 196 l-7 192 -94 0 -93 0 0 360 0 360 -62 0 c-35 0 -443
14 -908 30 -465 16 -871 30 -902 30 l-58 0 0 99 c0 94 -1 99 -22 104 -13 3
-131 18 -262 33 l-239 28 -164 248 c-152 228 -167 248 -198 254 -26 5 -35 12
-39 33 -8 36 -76 498 -76 511 0 14 -456 14 -465 0 -4 -6 -15 -129 -26 -272
-19 -258 -23 -277 -55 -278 -8 0 -14 -54 -18 -167 -4 -93 -9 -192 -13 -220 -5
-51 -6 -53 -37 -53 -99 0 -609 34 -900 61 -244 22 -341 28 -346 20 -4 -7 -102
-21 -233 -34 -124 -13 -229 -25 -232 -28 -3 -3 -8 -108 -12 -232 l-6 -227 -61
0 c-34 0 -118 3 -188 7 l-127 6 -3 100 -3 100 -50 14 c-27 8 -81 23 -118 34
l-68 20 3 116 3 116 -150 94 c-82 52 -156 98 -164 102 -8 5 -16 31 -19 65 -2
31 -6 56 -7 56 -1 0 -152 34 -335 75 -183 41 -336 75 -340 75 -5 0 -11 -18
-15 -41 -4 -22 -12 -42 -19 -45 -7 -3 -79 11 -160 31 -81 19 -149 35 -151 35
-1 0 -5 -30 -8 -66 -4 -37 -8 -69 -10 -71 -3 -2 -1820 360 -1914 382 -22 5
-23 10 -23 94 0 62 -4 90 -12 93 -7 3 -97 22 -200 44 l-188 39 0 50 0 51 -355
82 c-196 46 -360 80 -364 77 -5 -2 -12 -30 -16 -60 -3 -30 -9 -55 -13 -56 -4
0 -124 -15 -267 -32 l-260 -32 -8 -160 c-4 -88 -10 -192 -13 -232 l-6 -72 -99
-7 c-90 -6 -100 -9 -104 -28 -16 -73 -45 -330 -45 -402 l0 -86 -32 5 c-18 3
-106 9 -194 13 -89 3 -167 9 -172 13 -10 6 4 462 32 1057 l5 112 -330 156
-331 156 -270 0 -271 0 7 149 c6 139 6 150 -11 154 -10 3 -207 49 -438 102
-231 53 -428 98 -437 101 -15 4 -18 17 -18 70 l0 64 -37 0 c-64 0 -83 10 -99
50 l-15 37 -301 6 c-166 4 -380 7 -475 7 l-174 0 -17 -40 c-17 -40 -17 -40
-73 -40 -65 0 -69 -5 -69 -82 l0 -51 -342 7 -343 7 -136 -65 c-75 -36 -139
-72 -143 -81 -3 -9 -6 -86 -6 -170 0 -84 -3 -160 -6 -169 -5 -14 -36 -16 -233
-16 l-226 -1 -325 -87 -324 -87 -8 -35 c-4 -19 -12 -88 -19 -152 l-12 -118
-84 0 -83 0 -6 -29 c-6 -27 -10 -29 -67 -35 -76 -7 -1078 -9 -1085 -1 -3 3
-140 5 -304 5 l-298 0 0 160 0 160 -322 0 c-178 0 -374 -3 -435 -7 l-113 -6 0
-30 0 -29 -483 7 -484 7 -144 -96 -144 -96 -573 0 -573 0 -35 -72 -35 -73 7
-173 7 -174 -79 6 c-44 3 -180 11 -304 16 -124 5 -265 13 -313 16 l-89 6 4
174 3 174 -195 76 c-107 42 -231 91 -275 108 l-80 32 -3 87 -3 87 -110 0 -110
0 6 103 7 102 -132 100 -133 100 -333 3 -332 3 -12 87 c-18 134 -6 122 -128
122 -59 1 -462 7 -897 14 -434 8 -791 13 -793 11 -3 -2 -21 -166 -22 -197 0
-5 -22 -8 -50 -8 -41 0 -72 -11 -174 -62 -146 -73 -136 -53 -136 -267 0 -193
0 -191 -64 -191 -91 0 -92 -1 -117 -105 l-22 -93 -131 -39 c-128 -39 -131 -39
-135 -19 -1 12 9 222 25 468 15 247 26 450 23 452 -2 2 -200 34 -439 70 -239
37 -447 69 -462 72 -28 6 -28 6 -28 84 l0 78 -372 92 c-205 51 -375 95 -377
96 -4 3 8 104 26 217 l6 37 -114 0 c-63 0 -205 3 -315 7 l-202 6 -7 201 c-4
111 -10 206 -15 211 -7 10 -12 110 -30 669 -5 159 -12 291 -16 295 -3 3 -4
-73 -1 -169 2 -96 0 -410 -6 -697 l-11 -523 -44 0 c-44 0 -44 0 -38 30 l6 30
-114 0 -114 0 -11 -30 -10 -30 -85 0 -85 0 9 30 9 30 -113 0 c-111 0 -113 0
-124 -25 -7 -15 -20 -25 -32 -25 -17 0 -20 6 -20 48 0 26 -5 53 -12 60 -9 9
-14 245 -21 960 -6 521 -11 949 -13 951 -2 2 -6 2 -8 0 -2 -2 -7 -430 -13
-952 -7 -705 -12 -950 -21 -959 -7 -7 -12 -34 -12 -60 0 -28 -5 -48 -11 -48
-7 0 -9 10 -5 25 l6 25 -115 0 c-114 0 -115 0 -121 -25 -6 -24 -9 -25 -84 -25
l-77 0 -6 152 c-4 83 -7 225 -7 316 0 138 -3 167 -16 176 -13 10 -17 57 -25
311 -5 165 -13 377 -18 470 -6 94 -13 351 -17 573 -4 222 -10 418 -14 435 -4
18 -7 -377 -6 -877z m13930 -3381 l7 -35 79 0 80 0 0 -30 0 -30 -237 0 c-131
0 -255 -3 -275 -6 l-38 -7 0 72 0 71 189 0 189 0 6 -35z m-10574 -195 c0 -183
-1 -190 -20 -190 -18 0 -20 7 -20 59 0 33 -4 62 -9 65 -5 3 -109 10 -232 16
-123 6 -251 13 -284 16 l-60 5 3 70 c2 38 4 69 5 70 2 1 586 76 605 78 9 1 12
-43 12 -189z m10730 -34 l0 -45 -42 -5 c-24 -3 -145 -8 -270 -11 l-228 -7 0
56 0 56 270 0 270 0 0 -44z m-197 -272 c103 -3 187 -9 187 -13 -1 -30 -17 -31
-278 -19 -242 11 -262 13 -262 30 0 16 8 18 83 13 45 -3 166 -8 270 -11z m132
-961 c-3 -43 -8 -111 -11 -150 l-6 -73 -137 0 -137 0 -14 -57 -15 -58 -285 -7
c-157 -3 -553 -8 -880 -10 l-595 -4 130 18 c105 14 249 20 750 27 341 6 637
10 658 10 l37 1 0 98 c0 55 3 140 6 190 l7 92 248 0 249 0 -5 -77z"/>
</g>
</svg>
