<?xml version="1.0" standalone="no"?>
<!DOCTYPE svg PUBLIC "-//W3C//DTD SVG 20010904//EN"
 "http://www.w3.org/TR/2001/REC-SVG-20010904/DTD/svg10.dtd">
<svg version="1.0" xmlns="http://www.w3.org/2000/svg"
   viewBox="0 0 3958.000000 1490.000000"
 preserveAspectRatio="xMidYMid meet">
<metadata>
Created by potrace 1.16, written by Peter Selinger 2001-2019
</metadata>
<g transform="translate(0.000000,1490.000000) scale(0.100000,-0.100000)"
fill="#000000" stroke="none">
<path d="M12895 14890 l-770 -5 -3 -107 -3 -108 -147 0 c-81 0 -847 -5 -1702
-11 l-1555 -11 -37 -40 c-38 -41 -38 -41 -38 -129 l0 -89 -339 0 -338 0 -63
-98 -62 -98 -177 -23 c-97 -12 -414 -51 -705 -86 -519 -63 -741 -96 -776 -115
-10 -5 -60 -62 -111 -125 l-93 -115 -124 0 c-68 0 -132 -5 -142 -10 -11 -6
-101 -118 -201 -250 -135 -178 -187 -240 -203 -240 -12 0 -32 -9 -46 -20 -23
-18 -42 -20 -235 -19 -164 0 -216 3 -235 14 -21 12 -220 14 -1350 14 -1130 0
-1329 -2 -1350 -14 -37 -21 -438 -21 -466 0 -16 12 -115 14 -682 15 l-663 0
-139 -122 -139 -123 -1 -1376 0 -1376 136 -121 137 -122 667 0 c570 0 669 2
686 15 15 12 60 14 234 14 174 0 219 -2 234 -14 17 -13 84 -15 423 -15 l403 0
0 -65 0 -65 -700 0 -700 0 -5 -22 c-31 -136 -43 -204 -38 -212 4 -6 64 -82
133 -171 70 -88 266 -340 436 -560 268 -346 668 -856 878 -1120 l63 -80 145
-43 145 -44 397 4 398 3 23 28 c24 27 25 27 151 27 124 0 129 -1 155 -26 26
-25 32 -26 193 -31 l166 -6 0 -233 0 -232 148 -36 c81 -19 538 -117 1016 -216
479 -99 872 -182 874 -184 2 -3 -54 -96 -125 -208 l-128 -203 -172 -3 -172 -2
-80 -76 -81 -76 0 -383 0 -383 -107 -6 c-116 -7 -2050 -96 -2088 -96 -19 0
-27 -12 -49 -72 l-26 -73 0 -471 c0 -392 3 -479 15 -514 18 -52 154 -245 227
-322 l53 -57 1310 -150 1310 -150 515 -3 c328 -2 521 1 531 7 8 6 46 61 83
123 l68 112 263 0 262 0 28 -73 c15 -39 41 -87 58 -104 l31 -33 1377 0 1377 0
6 -22 c3 -13 6 -109 6 -214 l0 -191 96 -101 96 -102 226 0 227 0 82 -82 82
-81 203 -1 203 -1 371 -332 c205 -182 382 -336 394 -343 14 -8 543 -43 1499
-101 812 -49 1492 -89 1511 -89 l35 0 74 -298 c40 -163 80 -302 88 -308 23
-19 93 -23 603 -35 445 -11 488 -13 516 -30 30 -18 65 -19 760 -19 401 0 873
-5 1048 -10 278 -8 322 -8 336 5 14 12 58 15 253 15 216 0 236 1 241 18 2 9
14 49 25 87 17 58 322 1227 417 1595 15 58 32 110 38 116 6 7 96 37 200 68
104 31 191 58 194 61 3 2 77 296 166 652 l161 647 375 109 c206 60 823 239
1370 397 l995 287 6 334 c3 184 7 358 8 387 l1 52 1008 0 1007 0 259 -674
c142 -371 261 -678 265 -682 3 -5 125 -38 269 -74 145 -36 268 -67 272 -70 5
-3 -11 -72 -36 -154 -25 -81 -44 -149 -42 -151 1 -2 311 -89 688 -194 685
-190 685 -190 1291 -312 l606 -122 266 -352 265 -352 59 -12 c32 -6 1023 -187
2202 -402 l2144 -390 234 -227 c129 -125 287 -277 352 -338 l117 -111 1144
-82 c630 -45 1159 -84 1175 -86 27 -5 66 -60 410 -585 l380 -579 528 -1 c499
0 528 1 523 18 -3 9 -57 273 -120 586 -68 340 -119 572 -127 576 -7 5 -31 11
-55 15 -23 3 -47 11 -52 18 -8 10 -42 173 -42 203 0 6 25 16 55 23 30 7 55 18
55 24 -1 19 -48 228 -52 233 -3 2 -65 7 -139 10 l-135 7 -42 211 c-38 192 -56
253 -203 688 l-161 477 -65 43 c-36 23 -71 47 -77 54 -7 6 -36 94 -66 195
l-54 184 -637 524 -638 523 -698 452 c-384 248 -968 621 -1298 828 -330 206
-1230 770 -1999 1252 l-1399 877 -181 40 c-100 22 -383 86 -631 144 -247 57
-844 181 -1325 276 -481 94 -880 176 -886 180 -6 5 -50 96 -98 202 l-87 192
-1912 752 -1912 752 -210 17 -210 17 -119 104 c-65 57 -123 103 -128 103 -5 0
-943 151 -2083 335 -1141 184 -2076 335 -2079 335 -3 0 -231 246 -507 548
-276 301 -513 559 -527 574 -19 21 -44 104 -128 425 -57 219 -113 418 -124
443 -12 25 -63 103 -113 174 l-92 129 -327 126 c-180 70 -332 131 -337 136 -5
6 -61 111 -125 235 -66 126 -131 239 -149 257 l-32 32 -1200 56 c-660 31
-1200 57 -1202 58 -1 1 -24 54 -52 117 l-50 115 -568 0 c-312 0 -914 -2 -1338
-5z"/>
</g>
</svg>
