<?xml version="1.0" standalone="no"?>
<!DOCTYPE svg PUBLIC "-//W3C//DTD SVG 20010904//EN"
 "http://www.w3.org/TR/2001/REC-SVG-20010904/DTD/svg10.dtd">
<svg version="1.0" xmlns="http://www.w3.org/2000/svg"
   viewBox="0 0 4388.000000 820.000000"
 preserveAspectRatio="xMidYMid meet">
<metadata>
Created by potrace 1.16, written by Peter Selinger 2001-2019
</metadata>
<g transform="translate(0.000000,820.000000) scale(0.100000,-0.100000)"
fill="#000000" stroke="none">
<path d="M5197 8098 l-46 -103 -378 -3 -378 -2 -105 -104 -105 -104 -955 -11
c-525 -6 -1120 -11 -1321 -11 l-365 0 -18 -55 -17 -55 -167 0 c-143 0 -186 4
-294 27 l-127 26 -303 -27 -303 -27 -51 -54 -51 -55 -107 0 c-58 0 -106 -4
-106 -9 0 -8 179 -747 200 -826 11 -40 14 -42 588 -395 799 -493 753 -466 819
-479 128 -25 133 -28 133 -70 l0 -38 715 -454 c579 -367 712 -456 700 -465
-13 -10 -15 -64 -13 -403 l3 -392 850 -318 c468 -176 927 -350 1020 -389 98
-40 372 -134 645 -221 l475 -151 326 -30 c755 -69 803 -76 919 -118 58 -21
118 -46 134 -54 l29 -15 -31 -23 c-31 -23 -32 -26 -32 -104 l0 -81 403 -58
c279 -40 432 -57 501 -57 l99 0 1451 -515 1451 -515 1745 0 1746 0 284 -330
c157 -182 294 -333 305 -335 11 -3 481 -82 1045 -176 l1024 -172 183 -153 182
-154 600 0 c590 0 601 0 613 -20 13 -20 24 -20 1098 -20 l1086 0 39 40 39 40
841 0 c463 0 965 3 1115 7 251 6 273 8 277 24 5 17 22 18 201 21 179 3 196 2
200 -14 4 -15 17 -18 91 -18 146 -1 2282 50 2358 56 69 5 73 7 73 30 l0 24
368 0 c202 0 1539 -7 2971 -16 1432 -9 2607 -12 2611 -7 7 8 436 1146 442
1172 2 10 -121 71 -392 196 -267 123 -394 187 -392 196 2 8 42 116 89 242 l86
227 1121 0 c944 1 1130 3 1181 15 42 10 120 15 261 15 170 0 203 2 208 15 4
13 36 15 199 15 131 0 197 -4 204 -11 9 -9 121 -10 415 -7 l403 5 125 -103
125 -104 446 0 446 0 123 115 123 115 154 0 153 0 0 30 0 30 523 0 524 0 155
143 c153 140 156 144 239 283 l83 141 361 6 c198 4 538 9 755 13 l395 5 336
-428 336 -428 481 -3 480 -2 363 -450 363 -450 243 0 c134 0 243 3 243 8 0 27
-566 1431 -847 2102 l-337 806 -401 117 c-220 64 -1290 385 -2379 712 l-1978
595 -1582 60 -1581 61 -375 44 c-206 24 -376 40 -378 37 -17 -40 -153 -238
-166 -240 -15 -3 -16 32 -16 387 l0 391 -3140 0 -3140 0 -157 -60 -158 -60
-595 0 -595 0 -643 -206 -643 -206 -176 37 c-141 29 -178 33 -185 23 -4 -7
-29 -48 -55 -91 -25 -43 -51 -81 -58 -83 -6 -3 -124 20 -260 51 -217 48 -263
55 -356 55 -59 0 -109 4 -111 9 -1 6 -950 254 -2108 552 l-2105 541 -50 53
-50 52 -160 43 c-87 23 -167 45 -176 49 -9 3 -62 62 -117 131 -154 193 -167
204 -291 230 l-103 21 -64 -22 -65 -23 -82 22 c-45 12 -120 32 -167 45 l-86
24 -126 -48 -126 -47 -194 52 -193 53 -70 -34 -70 -35 -316 81 -316 81 -2579
0 -2579 0 -205 220 -205 219 -461 1 -461 0 -44 105 -44 105 -2356 0 -2356 0
-46 -102z m28332 -5217 l92 -29 977 8 c767 6 980 5 992 -4 399 -327 539 -443
555 -459 20 -19 19 -19 -316 -13 -296 6 -337 5 -343 -9 -8 -23 -391 -22 -404
0 -7 13 -44 17 -223 22 -118 3 -232 10 -254 16 -27 8 -381 13 -1126 17 l-1086
5 63 165 62 165 129 7 c96 6 206 24 443 72 173 35 322 64 330 65 9 1 58 -12
109 -28z m-9639 -2312 l0 -282 -135 5 c-118 5 -138 8 -150 24 -13 18 -51 19
-1117 22 -1092 3 -1104 3 -1155 23 -29 12 -53 27 -53 33 0 7 20 53 44 102 40
83 53 99 182 222 l139 132 1123 0 1122 0 0 -281z"/>
</g>
</svg>
