<?xml version="1.0" standalone="no"?>
<!DOCTYPE svg PUBLIC "-//W3C//DTD SVG 20010904//EN"
 "http://www.w3.org/TR/2001/REC-SVG-20010904/DTD/svg10.dtd">
<svg version="1.0" xmlns="http://www.w3.org/2000/svg"
   viewBox="0 0 3722.000000 999.000000"
 preserveAspectRatio="xMidYMid meet">
<metadata>
Created by potrace 1.16, written by Peter Selinger 2001-2019
</metadata>
<g transform="translate(0.000000,999.000000) scale(0.100000,-0.100000)"
fill="#000000" stroke="none">
<path d="M28930 9972 c0 -10 -181 -283 -402 -607 -308 -450 -409 -590 -428
-596 -14 -3 -71 -34 -128 -68 -57 -33 -114 -61 -126 -61 -13 0 -303 34 -645
75 l-622 75 -1245 65 -1244 65 -1516 0 -1516 0 -1152 -130 c-633 -72 -1160
-133 -1171 -135 -11 -2 -72 -61 -135 -130 -91 -100 -141 -144 -241 -215 -70
-50 -135 -93 -144 -97 -10 -3 -340 -43 -734 -87 l-716 -81 -3 -42 -3 -43 -985
0 -984 0 0 160 0 160 -4284 0 -4285 0 -38 23 c-37 21 -47 22 -402 27 l-365 5
-159 338 c-155 326 -161 337 -188 337 -22 0 -30 6 -35 25 -6 24 -10 25 -74 25
l-67 0 -46 95 -46 95 -75 0 c-50 0 -76 -4 -79 -12 -3 -10 -9 -10 -26 0 -11 6
-50 12 -86 12 l-65 0 0 -95 0 -95 -65 0 -65 0 0 -60 0 -60 65 0 65 0 0 -295 0
-295 -182 -2 -182 -3 -730 -929 -731 -929 -195 -101 -195 -101 -868 -1045
c-477 -575 -984 -1185 -1126 -1356 l-259 -311 74 -53 c41 -29 79 -59 84 -65 8
-9 -2 -28 -34 -68 l-45 -54 81 -64 82 -63 445 -37 c361 -31 458 -42 511 -60
58 -19 118 -24 542 -45 l477 -24 85 -65 84 -65 4334 0 4334 0 22 -30 23 -30
124 0 c77 0 125 -4 125 -10 0 -5 7 -10 15 -10 8 0 15 -9 15 -20 0 -20 7 -20
290 -20 283 0 290 0 290 20 0 11 7 20 15 20 8 0 15 5 15 10 0 6 98 10 275 10
177 0 275 -4 275 -10 0 -5 7 -10 15 -10 8 0 15 -9 15 -20 0 -20 7 -20 290 -20
283 0 290 0 290 20 0 11 7 20 15 20 8 0 15 5 15 10 0 6 98 10 274 10 l274 0
14 -30 13 -30 292 0 c254 0 293 2 293 15 0 8 5 15 10 15 6 0 10 7 10 15 0 13
38 15 280 15 242 0 280 -2 280 -15 0 -8 5 -15 10 -15 6 0 10 -7 10 -15 0 -13
39 -15 290 -15 187 0 290 4 290 10 0 6 9 19 20 30 19 19 33 20 290 20 233 0
270 -2 270 -15 0 -8 5 -15 10 -15 6 0 10 -7 10 -15 0 -13 39 -15 290 -15 251
0 290 2 290 15 0 8 7 15 15 15 8 0 15 7 15 15 0 13 38 15 280 15 242 0 280 -2
280 -15 0 -8 5 -15 10 -15 6 0 10 -7 10 -15 0 -13 39 -15 290 -15 251 0 290 2
290 15 0 8 7 15 15 15 8 0 15 7 15 15 0 13 38 15 280 15 242 0 280 -2 280 -15
0 -8 5 -15 10 -15 6 0 10 -7 10 -15 0 -13 39 -15 290 -15 251 0 290 2 290 15
0 8 7 15 15 15 8 0 15 7 15 15 0 13 38 15 280 15 242 0 280 -2 280 -15 0 -8 5
-15 10 -15 6 0 10 -7 10 -15 0 -13 39 -15 290 -15 251 0 290 2 290 15 0 8 7
15 15 15 8 0 15 7 15 15 0 12 14 15 68 15 64 0 69 2 84 28 l17 29 1692 7
c1680 7 1693 8 1733 28 23 11 125 67 228 124 l186 104 317 0 317 0 67 60 68
60 326 0 327 0 186 -135 c170 -123 191 -135 229 -135 29 0 45 -5 49 -15 8 -21
114 -21 122 0 5 11 22 15 69 15 47 0 64 -4 69 -15 8 -23 112 -21 125 3 8 12
10 -12 11 -88 l0 -106 65 -78 c63 -75 65 -80 65 -133 0 -55 -1 -56 -121 -219
l-121 -164 19 -23 c10 -13 182 -209 383 -436 l365 -412 212 -542 c117 -298
235 -602 264 -674 l51 -133 69 0 69 0 0 520 0 520 38 0 c35 0 41 5 124 113
l87 112 1 481 0 481 -70 27 -70 28 0 80 c0 60 3 79 13 76 6 -3 51 -20 99 -38
l87 -32 3 -74 3 -74 23 15 c22 16 22 16 22 321 l0 304 43 1 42 0 188 269 c137
197 187 278 187 299 l0 28 133 29 132 28 71 68 71 68 258 0 259 0 376 95 375
94 1135 46 c624 25 1150 45 1168 45 30 0 32 2 32 36 0 38 -48 345 -55 352 -2
3 -149 21 -327 41 l-323 36 630 27 c516 22 748 27 1281 27 l650 1 32 33 c41
42 46 103 10 112 -13 3 -52 12 -88 20 -36 8 -91 15 -122 15 -57 0 -58 0 -58
29 l0 28 211 5 212 6 120 82 120 81 373 -7 372 -7 35 77 c35 74 37 76 71 76
21 0 38 -6 43 -15 6 -11 178 -44 633 -124 344 -60 626 -108 628 -106 2 1 0 25
-4 51 l-6 49 -204 64 c-156 49 -206 61 -217 53 -10 -9 -38 -7 -113 7 l-99 19
328 1 c180 1 327 4 327 9 -1 44 -65 212 -82 212 -16 0 -7 18 47 90 30 40 55
82 55 92 0 28 -138 904 -151 961 -11 46 -16 51 -95 102 -55 36 -85 62 -89 77
-14 62 -105 679 -103 700 1 13 -8 51 -21 85 -22 60 -23 61 -68 67 -71 9 -211
7 -218 -4 -4 -6 -50 -9 -108 -9 l-102 1 74 15 c49 9 77 11 84 4 6 -6 62 8 164
43 84 30 156 56 159 58 9 9 -31 68 -46 68 -46 1 -987 -165 -1001 -177 -12 -10
-94 -13 -405 -13 l-390 0 -22 46 c-13 25 -20 54 -17 64 3 10 -1 35 -9 55 -9
20 -15 39 -14 43 1 4 -4 24 -11 44 l-12 37 -67 3 -67 3 72 19 72 20 -15 28
c-11 21 -20 27 -37 23 -12 -2 -119 -21 -237 -40 -118 -19 -228 -42 -243 -50
-21 -11 -63 -15 -166 -15 l-137 0 -79 55 -79 55 -80 0 -81 1 -113 134 -113
135 -289 0 -288 0 -42 50 -42 50 -427 0 -427 0 -37 75 -37 75 530 0 530 0 0
24 c0 21 -6 25 -47 30 -27 3 -811 49 -1743 102 -932 54 -1696 98 -1697 98 -1
1 -9 303 -18 671 -9 369 -18 671 -19 672 -1 2 -101 23 -222 48 -120 25 -225
48 -231 50 -7 2 -13 -4 -13 -13z m-13750 -2076 c0 -2 -74 -69 -164 -150 -136
-121 -170 -146 -195 -146 l-31 0 0 150 0 150 195 0 c107 0 195 -2 195 -4z
m19497 -232 c-3 -3 -12 -4 -19 -1 -8 3 -5 6 6 6 11 1 17 -2 13 -5z m1376 -281
c-7 -2 -21 -2 -30 0 -10 3 -4 5 12 5 17 0 24 -2 18 -5z m310 -2394 c-8 -8 -28
-9 -70 -2 l-58 10 70 2 c51 1 66 -2 58 -10z"/>
</g>
</svg>
