<?xml version="1.0" standalone="no"?>
<!DOCTYPE svg PUBLIC "-//W3C//DTD SVG 20010904//EN"
 "http://www.w3.org/TR/2001/REC-SVG-20010904/DTD/svg10.dtd">
<svg version="1.0" xmlns="http://www.w3.org/2000/svg"
   viewBox="0 0 2775.000000 4624.000000"
 preserveAspectRatio="xMidYMid meet">
<metadata>
Created by potrace 1.16, written by Peter Selinger 2001-2019
</metadata>
<g transform="translate(0.000000,4624.000000) scale(0.100000,-0.100000)"
fill="#000000" stroke="none">
<path d="M14676 46149 l-158 -92 -887 12 c-487 6 -1010 11 -1162 11 l-277 0
-181 -237 -181 -238 0 -112 c0 -88 4 -121 19 -156 11 -25 34 -104 51 -176 l32
-131 320 -462 c325 -469 518 -769 1474 -2290 325 -518 548 -882 572 -935 27
-62 44 -89 58 -91 10 -1 26 -15 35 -30 9 -15 37 -61 63 -103 33 -54 52 -99 67
-160 11 -46 22 -92 25 -102 4 -13 -40 5 -166 68 l-171 86 -396 74 c-217 41
-397 75 -399 75 -2 0 -4 18 -4 40 l0 40 -360 0 -360 0 0 -35 c0 -19 -3 -35 -7
-35 -5 -1 -186 -29 -403 -64 l-396 -63 -524 -267 c-392 -199 -535 -277 -565
-307 -37 -36 -42 -38 -57 -23 -15 15 -37 -4 -272 -226 -141 -133 -256 -246
-256 -250 0 -4 9 -15 20 -25 21 -19 20 -20 -109 -149 l-130 -131 -267 -523
-266 -524 -54 -381 c-30 -210 -57 -392 -59 -404 -5 -19 -12 -23 -45 -23 l-40
0 0 -182 -1 -183 -27 35 c-15 19 -66 78 -114 131 l-88 96 -602 7 c-332 3 -774
9 -983 12 l-380 6 -477 -373 -476 -374 -12 -55 c-6 -30 -14 -62 -19 -70 -6
-10 -447 -119 -1422 -351 l-1414 -336 -655 -293 -655 -292 -178 -224 -179
-224 4 -318 c2 -256 6 -322 17 -336 8 -9 154 -110 325 -224 l311 -207 140 6
c77 4 385 10 685 14 l545 7 640 -76 c352 -42 649 -77 660 -78 11 -2 -75 -29
-190 -62 -116 -32 -221 -66 -235 -74 -36 -22 -3420 -2511 -3448 -2536 -36 -32
-65 -97 -111 -245 -31 -100 -41 -150 -41 -201 l0 -67 -269 -510 c-152 -290
-288 -562 -315 -629 l-46 -119 -125 -1525 c-69 -838 -125 -1537 -123 -1552 2
-20 50 -76 175 -206 l172 -179 223 -7 223 -7 67 -47 c37 -26 79 -54 92 -62 23
-13 172 17 2023 414 l1998 427 496 -197 497 -197 11 -56 c7 -31 18 -82 25
-113 l14 -57 -721 -428 -721 -428 -60 -77 c-34 -43 -89 -128 -123 -190 l-62
-113 -6 -110 c-7 -109 -8 -113 -126 -435 l-119 -326 40 -1533 40 -1533 32
-115 c32 -113 32 -114 82 -151 28 -20 100 -66 161 -102 l110 -66 73 -171 73
-171 46 -12 c41 -12 141 0 1305 164 693 98 1263 174 1267 169 7 -7 41 -150
112 -466 l17 -78 -348 -310 -347 -309 -30 -79 -30 -79 48 -1363 c27 -750 48
-1376 49 -1390 0 -18 82 -123 300 -385 165 -197 310 -366 322 -376 13 -9 188
-60 390 -113 l367 -96 133 36 c73 20 140 38 149 40 12 4 20 -18 42 -112 15
-65 27 -123 27 -129 0 -5 -58 -25 -129 -44 l-130 -34 -81 -174 c-45 -96 -80
-175 -78 -176 2 -2 68 -16 147 -32 l144 -29 156 -427 c86 -235 159 -429 162
-432 3 -3 149 -33 325 -66 175 -33 879 -178 1564 -322 1037 -217 1249 -265
1266 -282 12 -12 884 -1215 1939 -2673 l1918 -2653 142 0 141 0 84 114 c72 98
86 112 95 98 7 -9 159 -261 338 -558 l327 -542 0 -371 0 -372 222 -460 222
-461 403 -321 403 -322 501 -114 501 -114 377 86 376 86 895 -516 c492 -284
1257 -725 1700 -980 l806 -465 58 -273 59 -273 1506 -1000 c828 -550 1568
-1041 1643 -1091 l137 -90 228 211 c125 116 229 212 231 213 1 1 -62 51 -140
111 -78 60 -148 114 -155 119 -8 7 -273 1956 -787 5805 l-775 5795 -11 510
c-12 591 -9 562 -136 1585 -52 420 -93 767 -92 771 2 4 480 -195 1063 -441
l1060 -448 24 49 c14 27 23 51 20 53 -3 3 -495 213 -1094 467 -600 254 -1091
462 -1092 463 -1 1 -105 838 -232 1861 -224 1814 -234 1899 -387 3440 l-158
1580 38 645 37 645 232 675 232 674 664 1091 664 1090 423 1097 424 1098 316
1637 317 1638 53 625 53 625 41 2155 42 2155 -120 471 -120 471 -243 306 -244
306 -865 648 -865 649 -730 439 c-725 436 -736 442 -1600 895 -478 251 -1212
629 -1630 840 -739 373 -775 393 -1305 708 l-545 324 -158 -7 -157 -7 -165
334 -165 333 28 6 c15 4 45 7 67 8 37 1 43 6 84 63 24 34 46 69 48 78 3 11
-88 56 -379 184 -351 156 -1602 721 -2320 1049 l-297 136 -618 6 -618 7 -159
-93z"/>
</g>
</svg>
