<?xml version="1.0" standalone="no"?>
<!DOCTYPE svg PUBLIC "-//W3C//DTD SVG 20010904//EN"
 "http://www.w3.org/TR/2001/REC-SVG-20010904/DTD/svg10.dtd">
<svg version="1.0" xmlns="http://www.w3.org/2000/svg"
   viewBox="0 0 4869.000000 1768.000000"
 preserveAspectRatio="xMidYMid meet">
<metadata>
Created by potrace 1.16, written by Peter Selinger 2001-2019
</metadata>
<g transform="translate(0.000000,1768.000000) scale(0.100000,-0.100000)"
fill="#000000" stroke="none">
<path d="M5075 17618 c-32 -35 -63 -72 -70 -83 -7 -11 -22 -99 -34 -195 -12
-96 -26 -184 -30 -195 -6 -15 -34 -29 -98 -49 l-90 -29 -22 -236 c-12 -130
-24 -246 -27 -259 -3 -17 2 -25 23 -33 16 -6 139 -58 276 -116 l247 -105 0
-301 0 -302 -220 -225 -220 -225 1 -210 c1 -115 4 -255 8 -310 l6 -100 177
-35 177 -35 150 -118 c91 -71 151 -126 151 -136 0 -53 -25 -139 -53 -182 -32
-48 -33 -49 -167 -94 -82 -28 -261 -73 -460 -116 -257 -55 -421 -98 -780 -206
l-455 -135 -350 -189 -350 -188 -193 -194 -193 -194 -63 -154 -63 -154 12 -53
12 -53 -108 -55 c-60 -30 -144 -68 -187 -85 -50 -20 -178 -96 -363 -217 l-287
-187 -35 -70 c-29 -58 -95 -137 -396 -468 l-361 -398 0 -79 c0 -69 -6 -94 -50
-215 l-50 -136 -125 -151 c-89 -109 -151 -197 -219 -312 -52 -89 -99 -172
-105 -186 -6 -14 -26 -95 -46 -180 l-35 -155 -7 -371 -6 -371 144 -6 c79 -4
258 -7 397 -7 l252 0 0 -409 c0 -382 1 -410 18 -415 9 -2 155 -33 324 -67
l306 -62 46 -62 c25 -34 52 -68 60 -74 24 -20 1423 -219 1639 -233 l187 -12 0
-298 c0 -232 3 -298 13 -298 6 0 125 -13 262 -29 l250 -28 570 13 c314 7 631
15 706 16 l137 3 1 -109 c1 -60 3 -111 5 -113 4 -4 1116 -133 1148 -133 10 0
33 -31 62 -82 25 -46 61 -100 80 -122 l33 -39 398 17 397 16 129 -70 128 -70
1591 0 1591 0 952 140 c524 77 962 142 975 145 20 5 22 11 22 64 l0 58 233 37
c171 27 265 48 357 78 238 78 215 64 330 205 l103 126 52 151 53 151 324 3
324 2 182 -140 181 -140 776 0 775 0 640 350 c352 193 644 350 649 350 5 0
168 -51 363 -114 l353 -114 720 -115 720 -115 2252 29 2251 28 79 40 c58 30
161 109 398 305 l320 265 1425 0 1425 1 301 -49 301 -48 199 -110 199 -110
421 -858 421 -858 139 -112 139 -113 435 -106 c2697 -663 5289 -1293 5815
-1415 358 -83 1003 -234 1435 -335 l785 -183 275 -499 275 -499 480 -159 480
-159 290 113 c160 62 297 113 305 112 8 -1 168 -72 355 -160 187 -87 404 -185
483 -218 l144 -59 209 -346 209 -347 62 -36 c58 -35 183 -65 2862 -682 1541
-355 2813 -646 2828 -647 23 -2 39 15 132 142 l105 144 -33 46 c-90 124 -146
205 -146 210 0 3 16 16 35 29 l35 22 -16 32 c-13 25 -207 299 -301 425 l-24
33 -40 -27 -40 -27 -24 30 c-32 39 -31 47 9 75 l34 23 -16 32 c-26 50 -316
454 -326 454 -5 0 -25 -12 -44 -27 l-35 -26 -24 29 c-30 38 -29 48 8 75 19 14
29 28 26 39 -2 9 -78 120 -168 247 l-164 231 -40 -29 -40 -30 -27 33 c-15 18
-28 36 -28 40 0 3 16 16 35 28 19 12 35 27 35 35 0 9 -306 451 -334 482 -1 2
-21 -11 -43 -27 l-41 -30 -28 37 -27 36 23 19 c13 10 29 22 37 27 28 15 25 19
-324 496 l-44 60 745 5 745 5 -32 39 -33 38 -766 39 c-542 27 -773 42 -787 51
-16 10 -23 10 -33 0 -13 -13 -47 -16 -72 -6 -9 3 -51 54 -92 113 -42 58 -87
117 -100 131 l-23 25 1526 -3 1527 -4 -26 34 c-24 32 -29 33 -114 40 -49 4
-773 37 -1609 73 -836 36 -1543 68 -1571 71 -50 5 -56 9 -225 165 l-174 159
-66 0 -67 0 -473 702 c-502 744 -743 1123 -898 1408 -52 96 -194 378 -317 625
l-222 450 -190 530 -191 530 -56 432 -56 433 38 32 c105 92 89 54 158 379 41
196 89 386 144 569 80 267 86 282 198 505 64 127 135 259 157 295 39 62 41 68
41 148 l0 84 -828 271 -827 271 5 30 c3 17 2 37 -3 44 -5 7 -121 51 -258 98
l-249 86 -1217 213 c-669 117 -1225 211 -1235 209 -10 -3 -207 34 -438 81
-231 47 -976 189 -1655 315 l-1235 229 -255 15 c-387 23 -459 25 -1389 46
-812 19 -1213 20 -6665 20 l-5801 0 -52 -22 -53 -22 0 -174 0 -175 -37 6 c-21
3 -170 20 -330 38 l-293 33 0 34 c0 25 -12 49 -46 93 l-47 59 -1233 0 c-1198
0 -1246 1 -1661 25 -235 14 -428 26 -429 28 -1 1 17 106 40 232 l42 230 -148
205 -147 205 -258 70 -258 70 -76 72 -75 73 -328 25 -328 25 -1660 0 -1660 0
-66 -55 -66 -55 -1013 0 -1012 0 -33 -45 c-36 -48 -47 -51 -153 -36 -76 10
-109 -5 -214 -99 -53 -47 -153 -136 -223 -198 l-128 -114 0 249 0 248 33 23
c17 12 42 31 54 41 l22 19 -33 169 c-18 94 -37 176 -42 184 -20 33 -524 628
-536 632 -7 3 112 6 264 6 264 1 277 2 283 20 3 11 16 35 29 53 21 31 24 55
39 269 8 129 12 237 9 240 -4 3 -160 73 -347 156 l-340 151 -400 51 -401 51
-411 0 c-370 0 -411 2 -417 16 -4 10 9 43 32 83 l38 66 -76 170 -76 169 -127
37 c-71 20 -130 38 -131 40 -2 2 -36 76 -75 164 -40 88 -78 169 -86 181 -7 11
-82 61 -167 111 l-153 91 -135 7 c-74 3 -207 13 -295 20 -88 8 -260 15 -382
15 l-221 0 -57 -62z m16806 -4899 l734 -204 -400 -3 -399 -2 -181 76 c-99 42
-267 117 -372 167 l-193 90 0 47 0 47 38 -7 c22 -4 369 -99 773 -211z"/>
</g>
</svg>
