<?xml version="1.0" standalone="no"?>
<!DOCTYPE svg PUBLIC "-//W3C//DTD SVG 20010904//EN"
 "http://www.w3.org/TR/2001/REC-SVG-20010904/DTD/svg10.dtd">
<svg version="1.0" xmlns="http://www.w3.org/2000/svg"
   viewBox="0 0 3550.000000 3664.000000"
 preserveAspectRatio="xMidYMid meet">
<metadata>
Created by potrace 1.16, written by Peter Selinger 2001-2019
</metadata>
<g transform="translate(0.000000,3664.000000) scale(0.100000,-0.100000)"
fill="#000000" stroke="none">
<path d="M21565 36553 c-862 -70 -1421 -123 -3275 -311 l-2235 -227 -42 -64
c-24 -36 -44 -68 -45 -72 -4 -11 -3472 -352 -3476 -342 -1 4 -27 53 -56 108
l-54 100 -207 -2 -207 -1 -546 -329 -547 -328 -367 -411 -366 -411 -121 -413
c-67 -228 -121 -419 -121 -426 0 -7 40 -35 89 -64 l89 -51 -103 -237 c-57
-130 -122 -280 -145 -332 -37 -84 -50 -140 -120 -492 l-78 -396 37 -601 37
-600 174 -351 175 -351 275 -268 276 -269 265 -117 c145 -64 267 -120 271
-123 4 -4 -123 -152 -281 -329 -159 -177 -291 -328 -294 -335 -50 -124 -800
-1855 -806 -1861 -4 -4 -76 45 -160 108 l-152 117 -790 54 -790 55 -482 -317
-483 -317 -82 -152 c-67 -124 -134 -284 -371 -886 l-289 -734 -249 -58 c-136
-32 -250 -60 -252 -63 -2 -2 11 -353 29 -779 18 -427 30 -778 27 -781 -2 -3
-89 -6 -193 -7 l-189 -2 -114 213 c-87 161 -118 211 -130 207 -9 -2 -531 -122
-1161 -266 l-1145 -261 -448 -18 c-246 -9 -450 -20 -453 -22 -2 -3 100 -8 228
-12 422 -12 458 5 -405 -191 l-758 -172 -327 -13 c-180 -7 -328 -13 -330 -15
-2 -1 -32 -110 -67 -241 l-65 -239 -15 -395 c-32 -829 -85 -2299 -105 -2880
-11 -333 -25 -704 -30 -825 l-9 -220 46 -235 c25 -129 51 -240 57 -246 6 -6
150 -23 331 -39 l320 -28 1940 -584 c1067 -321 1978 -595 2023 -609 l84 -25
-6 -47 c-3 -26 -8 -163 -12 -305 l-6 -257 139 -236 138 -236 528 -449 529
-449 141 0 c234 -1 1318 -28 1323 -33 3 -2 15 -98 27 -211 16 -142 27 -210 36
-216 8 -4 47 -11 87 -15 l74 -7 233 -152 c127 -84 314 -207 414 -274 179 -120
188 -124 660 -336 l478 -214 553 -42 552 -42 143 -78 142 -79 225 -26 c124
-15 228 -29 231 -33 11 -13 430 -1054 426 -1058 -2 -3 -372 -24 -821 -47 -641
-34 -819 -46 -826 -57 -15 -25 1 -40 44 -40 22 0 410 -20 861 -45 451 -25 825
-45 831 -45 6 0 85 -181 175 -403 l164 -403 92 -63 c52 -35 245 -151 431 -258
260 -150 350 -197 397 -208 33 -7 156 -21 273 -30 l213 -17 834 -662 833 -663
300 5 300 5 11 -69 c80 -473 88 -509 104 -512 9 -2 17 -15 19 -30 3 -26 5 -27
63 -25 33 2 305 12 605 24 300 12 547 23 550 26 3 3 7 141 9 308 3 300 3 303
25 309 11 3 88 6 169 6 l149 0 103 75 c99 72 104 78 109 118 14 117 24 559 17
787 -4 140 -8 256 -7 257 2 2 827 43 874 43 l42 0 0 74 0 73 -46 7 c-26 3 -86
7 -133 7 -179 3 -4 18 544 49 303 17 560 33 573 36 16 3 22 11 22 29 0 22 -4
25 -37 25 -21 0 -443 25 -938 55 -495 30 -903 55 -907 55 -5 0 -8 53 -8 119
l0 118 158 6 c86 4 677 20 1312 37 635 17 1183 33 1218 36 l63 6 -3 71 -3 72
-415 11 c-228 7 -464 13 -525 15 -60 1 -87 4 -60 6 169 10 195 14 195 33 0 22
62 17 -1005 80 -467 28 -874 53 -902 56 -162 17 32 21 772 16 l825 -5 0 101 0
102 -37 1 c-21 1 189 14 467 28 l505 26 3 27 c2 16 0 28 -5 28 -41 0 -2586
130 -2588 132 -6 5 -46 1580 -41 1585 2 2 885 36 1962 74 1077 38 1961 73
1964 78 3 4 433 23 955 42 l950 34 -870 32 c-478 17 -907 32 -952 32 -75 1
-83 3 -83 21 0 14 -9 20 -32 24 -18 3 -827 32 -1798 66 -971 34 -1766 63
-1768 64 -1 2 210 268 469 592 259 324 474 595 476 601 3 7 19 266 37 575 l32
563 -144 215 -143 215 -1212 444 c-667 244 -1317 485 -1444 534 l-233 91 0 66
0 67 -75 33 c-41 18 -75 37 -75 43 0 31 643 2714 653 2723 56 52 261 204 267
197 4 -4 58 -197 119 -428 62 -231 120 -429 129 -442 9 -12 175 -213 367 -445
l350 -423 550 -273 550 -272 1745 -15 c960 -8 1878 -15 2040 -15 l295 -1 945
-730 c520 -402 954 -737 964 -745 19 -13 17 -23 -67 -348 l-88 -336 16 -277
c9 -153 19 -293 22 -311 l5 -32 -447 0 -447 0 -224 -72 -224 -72 -124 -131
-124 -131 789 -1344 c434 -740 789 -1350 789 -1357 0 -14 915 -1451 939 -1474
9 -9 221 -87 471 -173 l456 -157 532 -852 c293 -469 533 -856 533 -862 0 -8
-459 -281 -618 -368 -21 -12 -19 -20 250 -742 l272 -730 228 -195 228 -195
522 -820 522 -820 6 -166 5 -167 509 -711 c280 -391 516 -713 524 -715 9 -3
215 -41 458 -86 l443 -80 117 29 c65 17 118 29 119 28 2 -1 -38 -31 -87 -66
-50 -35 -88 -68 -86 -75 3 -6 328 -527 724 -1157 l719 -1145 104 22 105 23
1419 0 c1346 1 1418 2 1414 19 -6 21 -720 1955 -724 1961 -2 2 -70 23 -151 45
-126 36 -150 46 -160 67 -6 13 -174 449 -373 969 l-362 945 18 152 17 152
-874 2398 -873 2398 -139 95 -139 95 -420 1180 c-231 649 -420 1189 -420 1200
0 11 23 92 51 181 l52 161 -181 457 -180 458 56 123 57 124 -316 788 -315 788
-644 3 -643 3 -225 374 c-124 206 -226 379 -228 385 -3 7 140 10 420 10 l423
0 155 61 c85 33 159 64 163 68 5 5 -38 106 -94 224 l-103 217 -165 2 -165 3
-67 160 -68 159 45 62 c24 35 44 69 44 76 0 7 -480 1320 -1067 2917 l-1068
2904 -139 106 -138 106 -259 698 -259 698 46 91 45 90 -45 130 c-25 71 -46
133 -46 139 0 5 45 31 100 59 l100 50 -29 77 c-16 43 -165 454 -331 913 -166
459 -310 842 -319 851 -12 11 -3010 1643 -3156 1717 -16 8 -38 2 -104 -25 -45
-19 -85 -32 -88 -29 -3 2 -17 133 -31 289 l-26 285 -646 384 -646 383 -171
223 -172 223 -798 566 c-439 311 -802 568 -806 573 -4 4 353 705 794 1559
l802 1551 61 -5 c33 -3 356 -26 716 -50 611 -42 656 -46 671 -64 9 -11 304
-417 654 -901 l638 -881 166 -139 166 -140 832 0 833 0 5 -22 c11 -50 35 -170
35 -178 0 -9 -51 -8 -522 5 l-168 5 0 -112 0 -111 148 6 c81 3 1023 30 2094
59 1071 29 1945 54 1943 56 -3 3 -2881 72 -3030 72 l-80 0 3 110 3 110 618 0
c340 0 734 3 875 7 l258 6 107 87 c90 74 115 101 164 179 31 50 57 95 57 100
0 10 -552 476 -1705 1442 -358 299 -895 749 -1195 1000 -1220 1022 -2230 1859
-2242 1858 -7 -1 -481 -39 -1053 -86z m-9604 -3518 c4 -127 9 -376 13 -555 l7
-326 -433 -278 -433 -278 -76 -122 c-42 -66 -122 -193 -178 -281 l-101 -161
-51 -249 c-29 -138 -55 -253 -58 -257 -4 -4 -57 74 -119 173 l-113 181 -87
476 -86 475 47 333 47 333 91 304 91 305 65 -29 66 -29 242 95 243 96 212 144
213 144 196 -132 196 -133 6 -229z m33 -1652 c3 -192 9 -410 12 -485 l6 -138
-61 -26 c-42 -18 -63 -34 -66 -48 -3 -11 -41 -212 -85 -446 -44 -234 -86 -435
-92 -446 -7 -12 -37 -47 -66 -79 l-53 -57 -224 168 c-219 164 -225 170 -225
204 1 19 16 217 34 440 l33 405 104 214 105 214 279 213 c154 117 283 213 286
213 4 1 9 -155 13 -346z m-6264 -8818 l0 -25 -40 20 c-22 11 -40 23 -40 25 0
3 18 5 40 5 36 0 40 -2 40 -25z m19890 -6940 l145 -45 205 0 205 -1 205 -375
c113 -206 207 -379 208 -384 2 -7 -212 -10 -610 -10 l-613 0 -37 123 c-34 115
-37 132 -42 303 l-5 181 35 99 c19 54 41 118 50 141 l15 42 47 -15 c26 -7 112
-34 192 -59z"/>
</g>
</svg>
