<?xml version="1.0" standalone="no"?>
<!DOCTYPE svg PUBLIC "-//W3C//DTD SVG 20010904//EN"
 "http://www.w3.org/TR/2001/REC-SVG-20010904/DTD/svg10.dtd">
<svg version="1.0" xmlns="http://www.w3.org/2000/svg"
   viewBox="0 0 4636.000000 1644.000000"
 preserveAspectRatio="xMidYMid meet">
<metadata>
Created by potrace 1.16, written by Peter Selinger 2001-2019
</metadata>
<g transform="translate(0.000000,1644.000000) scale(0.100000,-0.100000)"
fill="#000000" stroke="none">
<path d="M1320 16309 l-100 -131 0 -88 0 -89 -118 -87 -119 -86 -5 -813 c-4
-447 -3 -826 1 -843 5 -24 30 -49 118 -116 l111 -86 4 -102 3 -103 182 -220
181 -220 96 -50 c79 -42 94 -53 90 -70 -2 -11 -61 -279 -130 -595 -68 -316
-127 -583 -130 -593 -4 -14 -13 -16 -42 -11 l-37 6 -84 -304 c-46 -166 -103
-368 -125 -448 l-41 -145 -181 -260 c-100 -143 -254 -370 -342 -506 l-161
-245 -67 -445 -67 -444 57 -305 58 -305 236 -480 235 -480 489 -375 c286 -219
506 -381 529 -388 l39 -14 0 -94 0 -94 -62 0 c-35 -1 -290 -9 -568 -19 l-505
-18 -432 -164 -433 -163 0 -1282 0 -1281 435 -198 435 -197 902 -84 903 -84
1108 0 1107 0 323 144 322 144 451 412 451 412 13 152 13 151 571 159 c314 87
583 166 597 175 14 9 199 150 410 314 l384 297 139 265 138 265 127 562 126
563 90 67 c49 38 92 69 96 70 13 6 51 685 56 1000 l6 327 81 112 81 111 3
-829 3 -828 203 -122 204 -121 329 -25 330 -25 93 -96 93 -96 1779 0 1780 0
91 96 92 96 330 25 330 24 205 124 205 124 5 519 5 519 141 136 140 135 147
-140 147 -140 2 -516 3 -515 201 -123 201 -122 333 -25 334 -26 89 -95 89 -96
1781 0 1782 -1 90 96 90 96 330 25 330 25 205 122 205 123 3 550 2 550 108
106 107 107 94 -87 93 -87 10 -620 9 -620 49 -155 49 -155 461 -28 460 -27
158 -113 c86 -62 162 -116 168 -120 7 -4 763 11 1682 33 l1671 39 127 81 c70
44 137 80 148 80 45 -1 852 42 862 45 6 2 45 50 86 107 l76 103 7 464 8 464
167 -5 168 -6 51 28 51 28 2 -381 3 -380 205 -123 205 -123 330 -25 330 -24
91 -96 91 -96 1780 0 1781 0 91 96 92 96 330 25 330 24 204 122 204 122 1 844
0 843 60 -4 c33 -2 63 -8 67 -12 4 -4 11 -60 14 -124 4 -64 7 -118 8 -119 1
-1 20 -3 43 -5 42 -3 42 -4 59 -58 9 -30 57 -143 106 -250 l89 -195 260 -3
260 -2 158 -438 159 -437 297 -432 298 -432 231 -211 c127 -117 231 -213 231
-215 0 -3 -52 -21 -116 -40 l-115 -37 -363 -334 -362 -334 -62 -192 c-34 -106
-66 -214 -72 -240 -5 -26 -62 -217 -125 -424 l-115 -377 0 -133 0 -134 114
-228 c104 -207 122 -253 205 -508 l91 -280 414 -395 414 -395 832 -563 832
-562 556 -204 c307 -111 730 -269 942 -350 l385 -147 2200 -52 2200 -52 338
239 337 240 219 262 219 262 12 206 13 206 -34 44 c-19 23 -68 86 -109 139
-72 91 -79 98 -185 155 l-110 59 -181 215 -181 214 -281 125 c-211 94 -280
129 -277 140 2 8 48 260 101 560 l96 545 -6 815 -6 815 -211 763 -211 763
-228 482 -228 482 -218 208 c-189 179 -219 211 -217 235 1 15 9 189 19 387
l16 360 -46 355 -46 355 -93 286 c-84 257 -113 329 -282 702 l-189 416 -180
248 -181 247 -460 334 c-253 183 -472 339 -486 347 -14 8 -154 61 -310 119
l-284 105 -150 16 c-82 8 -165 18 -182 21 l-33 5 0 544 0 544 -115 61 -114 61
-63 -11 c-99 -17 -100 -17 -152 -60 l-49 -40 -43 63 -44 64 -93 25 -93 25
-208 -29 -208 -29 -212 -97 c-207 -96 -215 -101 -389 -235 l-178 -137 -592
-10 c-326 -5 -706 -12 -844 -15 l-253 -6 0 79 0 79 -227 6 c-126 4 -468 10
-760 13 l-533 7 -210 -94 -209 -94 -1 -432 0 -433 -185 0 -185 0 0 683 -1 682
-205 123 -206 122 -259 0 -259 0 0 739 0 739 -301 136 -301 136 -5008 0 -5009
0 -185 -132 -186 -131 0 -719 0 -718 -232 0 -233 -1 -119 -146 -120 -146 27
-1646 27 -1646 -75 -74 -74 -75 -108 101 -108 100 -5 1618 -5 1619 -204 123
-205 123 -2625 -1 -2626 0 -200 -123 -200 -123 -5 -1580 -5 -1580 -143 -138
-143 -138 -37 34 c-20 18 -85 81 -144 139 l-108 105 0 1576 0 1577 -207 126
-208 126 -2623 0 -2623 0 -204 -122 -204 -123 -1 -1249 0 -1250 -90 127 -90
127 0 145 0 145 -165 0 -165 0 0 188 c0 103 -5 741 -11 1417 l-10 1230 -55
210 c-30 116 -61 218 -67 227 -7 10 -79 95 -162 191 l-150 173 -297 136 -296
136 -155 7 -155 7 -34 37 c-19 20 -96 108 -171 197 l-135 161 -291 111 -290
112 -695 0 -695 0 -6 58 c-3 31 -8 67 -11 80 l-4 22 -1875 0 -1874 0 -101
-131z"/>
</g>
</svg>
