<?xml version="1.0" standalone="no"?>
<!DOCTYPE svg PUBLIC "-//W3C//DTD SVG 20010904//EN"
 "http://www.w3.org/TR/2001/REC-SVG-20010904/DTD/svg10.dtd">
<svg version="1.0" xmlns="http://www.w3.org/2000/svg"
   viewBox="0 0 2720.000000 4250.000000"
 preserveAspectRatio="xMidYMid meet">
<metadata>
Created by potrace 1.16, written by Peter Selinger 2001-2019
</metadata>
<g transform="translate(0.000000,4250.000000) scale(0.100000,-0.100000)"
fill="#000000" stroke="none">
<path d="M22340 42050 c0 -443 0 -450 -20 -450 -20 0 -20 -7 -20 -1374 0
-1352 0 -1375 -20 -1421 -18 -41 -20 -69 -20 -231 l0 -184 -44 0 -45 0 -85
138 -86 137 0 430 0 431 -38 37 -38 37 -652 0 -652 0 0 280 0 280 -25 0 -25 0
0 -280 0 -280 -1009 0 -1009 0 -6 103 c-3 56 -8 215 -11 352 -3 138 -8 312
-11 388 l-7 137 -97 0 -97 0 -7 -277 c-3 -153 -9 -374 -13 -490 l-6 -213 -264
0 -263 0 0 635 0 635 -25 0 -25 0 0 -635 0 -635 -303 0 -303 0 -37 -38 -37
-38 0 -327 0 -327 -167 0 -168 0 -584 -117 -583 -116 -92 94 c-50 52 -236 241
-413 421 -299 304 -322 325 -337 309 -15 -16 13 -47 386 -426 l402 -409 -322
-65 -322 -64 0 -703 0 -704 -389 0 c-213 0 -416 3 -450 6 l-61 7 0 73 0 74
-35 0 -35 0 0 -74 0 -73 -52 -7 c-29 -3 -97 -6 -150 -6 l-98 0 0 -1432 -1
-1433 -29 -35 -30 -34 0 -911 0 -911 -40 -39 c-21 -21 -37 -42 -33 -47 3 -6
20 5 39 23 l34 33 0 -177 0 -177 -45 0 -45 0 0 -200 0 -200 45 0 45 0 0 -177
0 -177 -30 29 c-44 42 -50 21 -7 -23 l37 -38 0 -173 0 -173 -55 -61 -55 -60 0
-1359 c0 -747 -1 -1358 -2 -1359 -2 0 -202 -6 -446 -13 -395 -11 -486 -18
-444 -33 6 -3 12 -11 12 -19 0 -11 24 -14 128 -14 70 0 386 -7 702 -15 316 -8
614 -15 663 -15 l87 0 0 -307 0 -308 -142 -97 -142 -98 -1583 0 -1583 0 0 130
0 130 -801 -2 -801 -3 -422 -717 c-420 -716 -421 -718 -453 -718 l-33 0 0 -75
0 -75 -410 0 -410 0 -5 23 c-3 12 -86 310 -183 662 -164 590 -179 640 -200
643 -12 2 -24 -3 -27 -10 -4 -10 288 -1090 351 -1300 5 -15 -2 -18 -41 -18
-43 0 -63 11 -268 146 -122 81 -232 153 -244 161 -22 14 -23 14 -23 -9 0 -21
36 -48 246 -186 l246 -162 164 0 164 0 0 -50 0 -50 -2175 0 -2175 0 0 -273 0
-273 48 -47 48 -47 172 0 172 0 0 -752 0 -753 -101 -69 c-56 -39 -103 -76
-106 -83 -4 -10 -119 -13 -594 -13 l-589 0 0 85 0 85 -225 0 -225 0 0 -85 c0
-47 -4 -85 -8 -85 -4 0 -25 -90 -47 -200 l-39 -200 -198 0 -197 0 -108 94
c-78 68 -109 90 -112 78 -3 -16 35 -56 129 -135 l45 -38 -60 1 c-33 1 -97 1
-142 1 l-83 -1 0 -34 0 -33 -454 -209 -454 -208 -13 -143 -12 -144 112 -582
c62 -320 115 -590 118 -600 2 -10 36 -38 74 -63 51 -32 79 -44 108 -44 36 0
38 -2 50 -42 7 -23 19 -51 27 -63 14 -21 17 -22 72 -9 63 15 158 62 187 94 17
19 30 20 242 20 l223 0 0 -170 0 -170 -228 0 -229 0 -24 26 c-31 33 -100 68
-172 87 l-57 15 -19 -36 c-10 -21 -21 -49 -25 -64 -6 -25 -11 -28 -46 -28 -22
0 -40 -3 -40 -6 0 -3 -52 -272 -115 -597 -63 -326 -119 -641 -125 -702 -11
-106 -6 -299 9 -323 3 -6 235 -117 514 -246 279 -130 519 -242 534 -249 25
-14 19 -18 -241 -151 -258 -133 -266 -138 -266 -167 l0 -30 148 77 c81 42 202
105 269 140 l121 64 1268 -2 1267 -3 64 -155 c35 -85 66 -163 69 -172 5 -17
-12 -18 -270 -18 l-276 0 0 -25 0 -25 288 0 287 0 347 -849 348 -850 0 -129 0
-129 59 -37 c32 -20 63 -36 68 -36 6 0 21 -28 34 -63 28 -71 29 -71 191 -83
l88 -6 0 -169 0 -169 140 0 c83 0 140 -4 140 -10 0 -5 -9 -32 -20 -60 -23 -60
-25 -70 -7 -70 10 0 12 -26 9 -120 l-4 -120 37 0 37 0 -4 120 -4 120 93 0 c66
0 95 4 98 12 2 7 14 39 25 71 l21 57 100 0 c59 0 99 -4 99 -10 0 -5 7 -10 15
-10 8 0 15 5 15 10 0 7 140 10 400 10 260 0 400 -3 400 -10 0 -5 7 -10 15 -10
8 0 15 5 15 10 0 7 328 10 965 10 l965 0 0 -585 0 -585 -160 0 -160 0 0 -385
0 -385 318 -2 317 -3 -502 -1875 c-277 -1031 -501 -1881 -498 -1888 7 -19 53
-15 59 6 10 33 1006 3754 1006 3758 0 2 273 4 608 4 l607 0 2005 -2240 2004
-2240 308 0 308 0 0 -1115 0 -1115 330 0 330 0 0 -35 c0 -34 -1 -34 -50 -41
l-50 -7 0 -83 0 -84 -85 0 -85 0 0 -116 c0 -108 2 -118 25 -148 l25 -33 0
-1111 0 -1112 -79 0 c-79 0 -79 0 -100 -34 -20 -32 -21 -46 -21 -392 l0 -359
100 -1328 c55 -731 100 -1337 100 -1347 0 -17 9 -20 75 -22 l76 -3 -380 -149
c-209 -83 -378 -153 -375 -158 3 -4 28 2 57 13 337 135 657 259 665 259 5 0
15 -7 22 -15 7 -8 17 -15 23 -15 5 0 2 9 -8 20 -17 19 -17 20 18 35 29 12 84
15 267 15 l230 0 0 -150 c0 -93 4 -150 10 -150 6 0 10 57 10 150 l0 150 40 0
40 0 0 -230 c0 -147 4 -230 10 -230 6 0 10 83 10 230 0 223 1 230 20 230 20 0
20 7 20 1374 0 1347 0 1375 20 1417 17 38 20 66 20 197 l0 152 329 0 329 0
-25 -66 -26 -66 40 -41 c22 -23 90 -98 153 -167 62 -69 120 -133 129 -142 9
-10 58 -26 116 -38 55 -12 108 -24 118 -26 23 -7 1860 -1989 1869 -2017 4 -12
13 -68 20 -124 l13 -101 133 -145 134 -145 101 106 c56 59 135 141 175 183
l72 75 0 67 c0 57 3 66 20 72 11 4 345 340 742 748 397 408 725 743 729 745 4
2 298 -294 655 -657 l649 -661 25 25 25 25 -104 104 -104 104 784 778 c431
428 886 879 1012 1003 188 186 227 230 227 253 l0 28 165 0 c103 0 165 4 165
10 0 6 67 10 180 10 153 0 180 2 180 15 0 13 -27 15 -180 15 -113 0 -180 4
-180 10 0 6 -62 10 -165 10 l-165 0 0 71 0 72 -220 415 -220 416 0 401 -1 400
-59 69 -60 70 -2 3265 -3 3266 75 80 76 80 -11 432 -10 431 253 328 252 328 0
83 0 83 28 -6 c93 -16 586 -84 589 -80 12 12 -12 26 -45 26 -41 0 -56 7 -65
30 -4 12 -6 11 -6 -2 -1 -10 -3 -18 -5 -18 -20 0 -491 71 -494 75 -16 16 24
14 186 -10 l179 -26 61 27 c58 25 60 27 64 67 3 23 4 43 4 44 -1 1 -33 7 -71
12 -39 6 -84 13 -101 16 -26 4 -33 2 -37 -15 -6 -24 -14 -24 -167 -2 l-115 17
-3 253 -2 252 650 0 650 0 0 -60 c0 -60 0 -60 29 -60 l29 0 7 126 c5 79 3 164
-4 226 -6 54 -11 148 -11 208 0 87 -3 110 -14 110 -23 0 -26 -24 -26 -191 l0
-159 -655 0 c-430 0 -655 3 -655 10 0 6 88 10 245 10 l245 0 0 30 0 30 -245 0
-245 0 0 140 0 140 -1155 0 -1155 0 0 40 0 39 283 6 c155 3 1138 8 2185 10
l1902 5 0 -55 c0 -30 5 -55 10 -55 6 0 10 25 10 55 l0 55 245 0 245 0 0 -55
c0 -30 5 -55 10 -55 6 0 10 25 10 55 l0 55 35 0 c34 0 35 1 35 40 0 39 -1 40
-37 41 -21 0 -32 3 -25 6 14 6 16 33 2 33 -5 0 -10 14 -10 30 0 17 -4 30 -10
30 -5 0 -10 -13 -10 -30 l0 -30 -245 0 -245 0 0 30 c0 17 -4 30 -10 30 -5 0
-10 -13 -10 -30 l0 -30 -1851 0 c-1462 0 -1855 3 -1872 13 -17 9 -156 13 -579
15 l-558 3 0 34 0 35 -460 0 -460 0 0 35 0 35 825 0 825 0 0 435 0 435 1086 0
1087 0 -6 -60 -5 -60 35 0 36 0 -7 282 c-8 332 -13 398 -32 398 -11 0 -14 -17
-14 -68 0 -38 -3 -117 -7 -175 l-6 -107 -1111 0 -1112 0 -57 58 -57 58 0 796
0 796 85 77 85 77 0 514 0 514 -501 2 -500 3 593 163 593 163 551 -1 550 0 40
70 39 70 292 2 293 3 -370 439 -370 438 0 399 0 399 40 20 40 20 0 130 0 130
310 0 310 0 0 30 0 30 -310 0 -310 0 0 283 0 282 30 63 30 64 0 679 0 680 -37
45 c-30 36 -43 44 -70 44 -23 0 -33 5 -33 15 0 10 10 15 34 15 28 0 40 8 70
44 l36 44 0 680 0 680 -30 64 -30 63 0 441 0 440 -40 23 -40 22 0 180 0 179
-502 0 -503 0 0 62 c0 56 -3 64 -22 73 -13 5 -23 13 -23 17 0 5 223 8 495 8
l495 0 0 195 0 195 -491 0 -492 0 7 87 c5 69 12 95 30 123 l24 35 6 705 c3
388 9 726 12 753 5 37 10 47 25 47 10 0 19 5 19 10 0 6 20 10 44 10 54 0 56 5
56 118 0 116 -5 130 -44 135 l-31 4 33 1 c17 1 32 7 32 12 0 6 85 10 235 10
202 0 235 2 235 15 0 13 -32 15 -230 15 -147 0 -230 4 -230 10 0 7 173 10 500
10 l500 0 0 30 0 30 -500 0 -500 0 0 44 c0 70 -5 76 -66 76 -30 0 -54 5 -54
10 0 6 25 10 55 10 30 0 55 5 55 10 0 7 317 10 930 10 613 0 930 3 930 10 0 6
113 10 320 10 278 0 320 2 320 15 0 13 -42 15 -320 15 -207 0 -320 4 -320 10
0 7 -315 10 -925 10 l-925 0 0 58 c0 93 -5 102 -57 102 l-45 0 4 124 c2 69 6
127 9 131 4 3 53 -28 109 -69 l103 -76 264 0 263 0 0 1430 0 1430 195 0 195 0
0 55 0 55 -195 0 -195 0 0 160 0 161 -155 298 c-85 164 -155 301 -155 306 0 4
38 5 85 1 l85 -7 0 579 0 579 -25 11 c-14 7 -53 12 -85 12 l-60 0 0 94 0 95
155 233 155 233 0 960 0 960 -91 98 -91 97 -99 0 -99 0 0 30 0 30 74 0 c73 0
76 1 100 33 l26 34 -1 359 c0 358 0 364 -102 1709 l-102 1350 -68 5 -67 5 370
145 c203 80 370 149 370 153 0 12 -2 11 -379 -138 -333 -132 -336 -133 -357
-114 -25 23 -41 13 -19 -12 29 -31 -29 -39 -281 -39 l-234 0 0 430 c0 280 -3
430 -10 430 -7 0 -10 -150 -10 -430 l0 -430 -40 0 -40 0 0 450 c0 293 -3 450
-10 450 -7 0 -10 -157 -10 -450z m3338 -26767 c-509 -2 -1346 -2 -1860 0 -513
1 -96 2 927 2 1023 0 1443 -1 933 -2z m1315 0 c-67 -2 -179 -2 -250 0 -70 1
-15 3 122 3 138 0 195 -2 128 -3z m-3256 -8046 c-1 -848 -2 -154 -2 1543 0
1697 1 2391 2 1542 2 -848 2 -2236 0 -3085z"/>
<path d="M25052 13900 c0 -19 2 -27 5 -17 2 9 2 25 0 35 -3 9 -5 1 -5 -18z"/>
<path d="M25032 13760 c0 -19 2 -27 5 -17 2 9 2 25 0 35 -3 9 -5 1 -5 -18z"/>
<path d="M25021 13704 c0 -11 3 -14 6 -6 3 7 2 16 -1 19 -3 4 -6 -2 -5 -13z"/>
</g>
</svg>
