<?xml version="1.0" standalone="no"?>
<!DOCTYPE svg PUBLIC "-//W3C//DTD SVG 20010904//EN"
 "http://www.w3.org/TR/2001/REC-SVG-20010904/DTD/svg10.dtd">
<svg version="1.0" xmlns="http://www.w3.org/2000/svg"
   viewBox="0 0 4708.000000 1245.000000"
 preserveAspectRatio="xMidYMid meet">
<metadata>
Created by potrace 1.16, written by Peter Selinger 2001-2019
</metadata>
<g transform="translate(0.000000,1245.000000) scale(0.100000,-0.100000)"
fill="#000000" stroke="none">
<path d="M26925 12331 c-231 -65 -451 -127 -490 -138 l-69 -19 -70 -136 -71
-135 -425 -6 c-234 -4 -650 -7 -925 -7 l-500 -1 -89 -129 c-87 -125 -91 -130
-130 -135 -23 -2 -756 -50 -1631 -105 -874 -55 -1618 -102 -1652 -106 -62 -5
-63 -6 -63 -35 0 -33 -5 -36 -76 -42 -47 -3 -53 -1 -68 22 -41 67 -13 66 -332
6 -159 -31 -297 -57 -306 -59 -13 -3 -25 10 -44 44 -25 46 -28 48 -67 47 -39
-2 -42 0 -71 50 -20 34 -36 51 -46 48 -8 -2 -401 -76 -874 -165 -746 -140
-860 -159 -875 -147 -14 12 -90 0 -581 -93 -311 -58 -571 -108 -579 -111 -7
-3 -37 -70 -65 -149 l-52 -144 -574 -109 -574 -110 -151 158 -151 158 -799
-142 c-440 -79 -812 -145 -827 -148 -23 -5 -28 -11 -28 -37 0 -17 -3 -48 -6
-68 -6 -33 -10 -38 -34 -38 -25 0 -28 -6 -72 -142 l-45 -143 -849 -162 c-467
-89 -850 -162 -851 -163 -2 0 -17 29 -35 65 -25 48 -47 74 -87 105 -30 22 -57
40 -60 40 -3 -1 -1005 -191 -2226 -423 l-2220 -423 -3 -121 c-2 -105 -5 -123
-20 -127 -9 -3 -258 -50 -552 -106 -294 -56 -543 -103 -552 -106 -10 -3 -309
-316 -665 -696 l-648 -691 -3 -123 -3 -124 -63 0 -63 0 -23 50 -24 51 -185 -6
c-208 -7 -1464 -35 -1552 -35 l-56 0 -20 -52 -20 -53 -159 -5 -159 -5 -997
-435 -998 -435 0 -81 0 -81 83 -6 c45 -4 131 -7 190 -7 l108 0 -3 -112 -3
-113 -395 -121 -395 -122 -3 -456 -2 -457 726 -1152 c400 -634 728 -1154 730
-1156 1 -2 119 -39 261 -82 245 -75 262 -79 353 -79 l96 0 78 65 78 65 393 0
393 0 82 -128 82 -128 92 4 91 4 275 -425 275 -426 40 -5 c22 -3 524 -12 1115
-21 591 -8 1130 -18 1197 -21 l123 -6 22 -39 22 -39 70 0 c39 0 400 -5 803
-12 l732 -11 40 26 41 27 324 0 325 0 -9 30 -9 30 329 0 328 0 66 68 c41 42
66 75 66 90 l0 22 323 0 323 0 49 50 49 50 493 0 493 0 0 -143 0 -143 130 -54
130 -54 0 -235 0 -236 269 -222 270 -223 1370 0 c907 0 1371 3 1371 10 0 7
546 10 1618 10 1606 0 1617 0 1630 -20 12 -20 23 -20 1041 -20 l1028 0 31 70
31 70 93 0 93 0 44 -71 c31 -51 48 -69 60 -66 9 3 288 130 621 282 l605 277
72 71 71 70 402 -8 401 -7 -7 38 -7 37 33 -6 c18 -4 59 -7 91 -7 l59 0 0 -35
0 -35 148 0 c81 0 230 -3 332 -6 l185 -7 482 442 482 441 1136 0 c631 0 1135
4 1135 9 0 15 249 25 266 10 11 -9 92 -10 352 -5 185 3 388 9 450 13 107 5
112 7 112 28 0 22 -4 23 -132 30 -73 4 -336 8 -585 9 -248 1 -455 4 -459 9 -4
4 -490 7 -1081 7 l-1073 0 113 105 112 104 135 1 136 0 54 55 54 55 181 0 181
0 54 -55 54 -55 161 0 161 0 54 55 54 55 176 0 176 0 54 -55 54 -55 206 0
c204 0 206 0 310 33 95 30 105 35 108 58 l3 26 872 6 c768 5 873 8 883 22 10
13 73 16 458 22 425 6 447 5 460 -12 13 -17 30 -18 412 -6 219 6 474 14 567
18 l167 6 0 74 0 73 -82 0 c-46 0 -300 7 -566 15 -266 9 -488 13 -493 10 -5
-4 -9 -16 -9 -27 0 -20 -3 -21 -92 -14 -50 3 -254 6 -454 6 l-363 0 -3 23 -3
22 -877 3 -877 2 -3 37 -3 37 -105 33 c-58 18 -127 33 -153 33 -44 0 -55 6
-151 80 l-104 80 -558 2 -558 3 180 164 c234 214 224 201 225 264 l1 52 862
790 862 790 67 5 66 5 268 246 269 246 1329 719 1329 719 990 32 991 31 73 80
72 79 143 -33 c78 -19 159 -38 179 -43 36 -8 48 -3 304 140 l266 149 144 0
144 0 0 -39 c0 -74 10 -94 70 -143 40 -33 67 -48 88 -48 17 0 44 -12 67 -30
l38 -30 1081 0 1081 1 35 29 c21 18 46 30 63 30 20 0 48 16 91 51 l61 51 10
81 c6 48 15 82 23 85 8 2 12 -7 12 -27 l0 -31 96 0 96 0 -7 -387 -7 -388 36
-35 37 -35 178 -3 178 -4 58 66 57 66 108 0 c59 0 202 -3 318 -7 l211 -6 81
-67 81 -67 241 -6 c133 -4 381 -7 552 -7 l311 0 140 143 140 143 448 -4 447
-3 37 -63 37 -63 136 -12 c75 -6 144 -11 153 -11 9 0 17 -7 17 -15 0 -29 44
-43 163 -50 64 -4 117 -9 117 -11 0 -2 -30 -65 -67 -139 -54 -108 -72 -135
-88 -135 -16 0 -26 -15 -48 -70 -41 -105 -39 -110 36 -110 34 0 213 -5 397
-11 184 -5 479 -10 655 -10 335 -1 331 -1 347 41 2 5 138 4 303 -1 377 -11
818 -12 1088 -3 l207 7 0 27 c0 27 -2 28 -62 34 -35 3 -188 8 -340 12 -262 6
-278 6 -278 -11 0 -17 -15 -17 -262 -11 -145 3 -350 9 -457 13 l-193 6 -10 28
c-8 25 -15 29 -46 29 -31 1 -10 13 132 75 l168 75 672 0 c574 1 674 3 690 15
17 13 99 15 551 15 l531 0 71 -83 70 -83 309 -12 309 -11 395 -80 c217 -45
405 -83 418 -86 19 -5 1 37 -132 302 -151 304 -157 313 -348 582 l-195 274
-1242 553 -1243 554 -429 0 -429 0 -6 25 c-3 13 -25 40 -48 59 -36 29 -90 49
-352 131 -170 54 -318 102 -329 108 -11 5 -47 34 -81 64 l-61 53 -1002 0
-1001 0 0 148 c0 118 -5 175 -27 291 -27 142 -27 144 -63 166 -34 22 -2393
1307 -2455 1337 -16 8 -413 111 -882 228 l-852 212 -34 -26 -34 -26 -569 80
c-313 44 -574 80 -579 80 -6 0 -21 -18 -35 -40 -14 -22 -30 -40 -36 -40 -22 0
-977 109 -979 112 -2 2 -23 44 -48 95 l-46 91 -148 35 c-81 19 -291 68 -467
108 l-318 74 -180 208 -179 207 -279 0 -280 0 -145 113 -145 113 -262 63
c-406 97 -402 95 -430 147 -21 41 -22 45 -6 60 15 16 12 25 -45 140 l-62 124
-1615 -1 -1615 0 -420 -118z"/>
</g>
</svg>
