<?xml version="1.0" standalone="no"?>
<!DOCTYPE svg PUBLIC "-//W3C//DTD SVG 20010904//EN"
 "http://www.w3.org/TR/2001/REC-SVG-20010904/DTD/svg10.dtd">
<svg version="1.0" xmlns="http://www.w3.org/2000/svg"
   viewBox="0 0 4121.000000 1450.000000"
 preserveAspectRatio="xMidYMid meet">
<metadata>
Created by potrace 1.16, written by Peter Selinger 2001-2019
</metadata>
<g transform="translate(0.000000,1450.000000) scale(0.100000,-0.100000)"
fill="#000000" stroke="none">
<path d="M26923 14407 l-842 -91 -3 -119 -3 -119 -210 -123 -210 -123 -700
-222 c-385 -123 -702 -224 -704 -226 -6 -5 -61 -708 -57 -721 3 -6 -2 -14 -11
-17 -15 -6 -543 -36 -630 -36 l-43 0 -1 123 0 122 -365 300 -366 300 -256 129
-257 129 -315 81 -316 81 -1114 -52 c-1478 -69 -2749 -96 -4498 -97 l-1183 -1
-40 -90 c-66 -150 14 -131 -634 -144 -810 -16 -2001 -66 -2312 -96 -139 -14
-254 -25 -257 -25 -4 0 -6 -210 -6 -466 l0 -466 -137 3 c-76 2 -273 3 -437 1
l-299 -2 -136 -134 -136 -133 -1875 -147 -1875 -147 -1835 -191 c-1009 -104
-2514 -256 -3345 -337 l-1510 -147 -3 -273 -2 -274 242 7 c134 3 839 13 1568
22 1129 14 1745 15 4160 8 l2835 -9 -1945 -153 c-1070 -84 -1960 -156 -1977
-159 l-33 -5 0 -1294 0 -1294 23 -4 c12 -3 1192 -107 2622 -232 l2600 -227
612 7 612 6 288 40 c158 22 298 41 309 43 16 3 20 0 17 -14 -4 -13 2 -20 18
-24 13 -2 357 -50 764 -105 457 -62 1110 -141 1708 -207 l969 -107 15 -37 c9
-23 23 -39 36 -42 12 -3 356 -47 764 -98 408 -52 740 -95 739 -96 -8 -8 -2483
-237 -3696 -343 -762 -66 -1402 -123 -1424 -128 l-38 -7 138 -101 c77 -56 176
-125 221 -153 l83 -53 1297 -94 1298 -94 3115 -25 c1713 -14 3129 -28 3145
-30 30 -5 51 -25 721 -661 l151 -144 1364 -428 c750 -236 1733 -538 2185 -672
l821 -242 574 94 574 95 157 102 157 102 415 -137 416 -137 118 -127 117 -127
145 -1 c80 -1 264 -6 410 -12 757 -29 2737 -110 2885 -118 l170 -9 140 137
140 138 679 -324 c569 -271 806 -377 1454 -651 l774 -328 808 -1036 c445 -569
814 -1040 822 -1046 7 -5 100 -36 205 -67 l193 -57 227 31 c254 34 739 105
1027 149 104 16 194 27 201 25 8 -3 374 202 413 232 2 1 -109 596 -247 1321
-138 725 -251 1322 -251 1325 0 16 579 519 827 719 193 155 289 240 328 288
31 38 62 71 69 74 8 3 45 9 83 12 l70 7 9 50 9 49 309 202 310 202 73 180 72
180 1 677 0 678 -71 177 c-39 98 -76 183 -82 190 -7 6 -145 98 -307 203 -162
105 -301 199 -307 208 -7 8 -13 32 -13 53 l0 37 -55 7 c-38 4 -56 11 -59 23
-3 9 -23 99 -46 199 l-40 182 -120 246 -119 247 23 36 c13 20 47 117 76 216
l51 178 -41 115 c-58 166 -334 650 -449 789 l-81 99 -188 22 c-131 15 -197 19
-222 13 -32 -9 -49 -1 -340 163 -168 94 -548 305 -844 468 l-540 297 -322 263
c-239 195 -325 270 -328 289 -3 14 -42 249 -87 523 l-82 498 -115 162 c-143
202 -144 204 -218 238 -34 15 -113 59 -175 97 -63 38 -147 86 -187 106 -98 49
-183 103 -207 132 -20 23 -22 23 -233 24 l-212 1 -500 -215 c-275 -119 -502
-216 -504 -216 -3 0 -91 56 -197 125 -106 69 -203 125 -215 125 -60 0 -64 6
-194 299 -69 154 -131 283 -138 286 -7 2 -115 14 -240 25 -280 25 -482 45
-675 65 -115 13 -152 13 -163 4 -37 -31 -380 -432 -386 -452 -4 -17 -6 -13 -7
16 l-1 38 -104 50 -104 50 -136 6 c-128 6 -137 7 -141 27 -2 12 -13 69 -24
127 l-20 106 -53 50 c-29 28 -96 88 -148 135 l-95 86 -730 125 c-523 90 -772
129 -880 137 -253 18 -227 8 -282 105 l-48 85 -245 0 -245 0 -55 -81 c-62 -91
-62 -91 -85 -83 -16 6 -86 135 -99 184 -4 14 -17 49 -28 78 -17 44 -24 52 -47
52 -80 1 -635 21 -638 24 -2 2 -33 218 -33 233 0 5 -29 2 -887 -90z"/>
</g>
</svg>
