<?xml version="1.0" standalone="no"?>
<!DOCTYPE svg PUBLIC "-//W3C//DTD SVG 20010904//EN"
 "http://www.w3.org/TR/2001/REC-SVG-20010904/DTD/svg10.dtd">
<svg version="1.0" xmlns="http://www.w3.org/2000/svg"
   viewBox="0 0 3964.000000 2024.000000"
 preserveAspectRatio="xMidYMid meet">
<metadata>
Created by potrace 1.16, written by Peter Selinger 2001-2019
</metadata>
<g transform="translate(0.000000,2024.000000) scale(0.100000,-0.100000)"
fill="#000000" stroke="none">
<path d="M17913 20233 c-13 -2 -23 -6 -23 -9 0 -2 20 -29 45 -59 74 -92 75
-86 -9 -144 l-74 -51 -91 0 -92 0 -21 35 c-11 20 -38 45 -59 55 -37 19 -62 20
-661 20 -568 -1 -626 -2 -655 -18 -48 -26 -136 -132 -157 -189 l-20 -52 -85
-32 c-103 -38 -201 -109 -270 -195 l-48 -60 -434 -48 c-239 -26 -448 -50 -466
-53 l-31 -5 29 -61 c22 -48 49 -80 114 -139 l85 -77 -80 -58 c-74 -53 -80 -60
-90 -106 -8 -38 -7 -60 5 -100 14 -46 22 -57 78 -94 60 -42 65 -43 142 -43
103 0 119 -10 68 -40 -21 -13 -127 -86 -236 -163 -109 -77 -200 -138 -201
-136 -2 2 -7 47 -12 100 l-9 95 -465 -82 -465 -82 -815 -332 c-448 -182 -820
-336 -826 -341 -6 -4 -73 -114 -149 -243 l-138 -235 -171 -67 c-561 -219 -640
-254 -1195 -522 l-574 -279 -116 29 c-63 15 -125 28 -136 28 -11 0 -147 -42
-302 -93 l-283 -93 -89 -68 -88 -69 -12 -81 c-16 -116 -15 -119 22 -139 17 -9
240 -63 495 -119 l463 -103 54 -119 c30 -66 55 -120 55 -121 0 -1 -84 -5 -187
-8 -104 -3 -316 -19 -472 -36 -156 -17 -291 -31 -301 -31 -14 0 -20 -19 -35
-104 l-18 -104 -41 -6 c-23 -3 -171 -15 -331 -27 -169 -13 -295 -26 -301 -33
-7 -6 -40 -64 -75 -128 l-63 -118 -851 0 -850 0 -754 -186 -754 -187 6 -123
c6 -111 5 -123 -11 -128 -44 -13 -1095 -263 -1686 -401 -362 -85 -661 -156
-664 -160 -3 -3 -14 -69 -24 -147 -9 -77 -19 -142 -21 -144 -2 -2 -158 -39
-348 -81 l-344 -78 -123 -95 -123 -95 -103 -175 c-57 -96 -123 -210 -147 -252
l-44 -77 -512 -1 -513 0 0 -43 0 -44 -111 -10 c-61 -6 -113 -14 -117 -17 -5
-6 30 -249 59 -411 5 -27 15 -108 24 -180 8 -71 27 -207 42 -301 l26 -171 110
-11 c71 -7 113 -15 118 -24 5 -7 9 -29 9 -49 0 -20 3 -51 6 -68 l7 -31 186 -1
c102 0 377 -10 611 -22 l426 -22 50 -32 c46 -30 58 -47 161 -230 60 -109 127
-235 148 -280 36 -77 41 -84 117 -137 l80 -55 120 -258 c66 -142 123 -261 127
-266 4 -4 250 -21 547 -37 524 -29 565 -30 1451 -30 l913 0 2 -387 3 -386 156
-74 157 -73 733 -20 c404 -11 771 -23 816 -26 l82 -6 93 -72 c86 -67 121 -85
460 -236 l367 -163 12 -73 12 -73 1487 -370 1487 -370 719 -132 c395 -73 720
-133 721 -134 2 -1 14 -84 28 -185 13 -100 26 -185 28 -187 7 -6 1528 -165
1534 -160 2 3 22 83 44 178 22 95 40 174 42 175 2 3 872 -104 905 -111 18 -5
22 -12 22 -46 0 -36 8 -51 64 -118 l64 -76 341 -143 341 -142 414 0 c411 0
415 0 421 -21 4 -11 5 -22 3 -23 -1 -2 -176 -18 -388 -37 l-385 -34 -3 -597
c-1 -329 -1 -598 0 -598 2 -1 298 -23 658 -50 l655 -49 108 -35 109 -34 481
362 c265 199 487 365 493 369 7 4 56 -28 112 -72 l100 -80 324 -45 c177 -25
492 -64 698 -85 206 -22 389 -42 405 -45 26 -3 44 8 140 90 l110 94 195 0 195
0 23 -134 c19 -112 31 -153 76 -252 l53 -119 466 -154 467 -153 0 -122 c0 -74
-4 -126 -11 -133 -7 -7 -8 -28 -4 -57 6 -36 12 -47 29 -51 45 -11 537 -105
547 -105 7 0 9 -17 4 -51 -9 -64 39 -266 64 -274 9 -2 166 -36 350 -75 l333
-71 757 -24 c416 -14 782 -25 813 -25 l57 0 78 -110 c43 -60 82 -110 87 -110
7 0 800 209 857 226 11 3 33 -24 78 -96 l62 -100 115 0 114 0 0 -373 0 -373
-56 -18 c-40 -13 -361 -58 -461 -66 -2 0 -3 -123 -3 -274 l0 -274 28 -6 c15
-3 132 -15 260 -27 l232 -23 0 -102 0 -103 43 -6 c50 -6 1477 -135 1504 -135
10 0 28 -15 40 -33 52 -75 70 -87 129 -87 l55 0 -3 -152 -3 -152 -560 -65
c-308 -35 -561 -65 -563 -67 -4 -3 -20 -858 -17 -862 2 -2 331 -34 732 -72
l728 -69 340 -97 340 -96 569 5 570 6 115 28 c111 27 128 35 405 189 l288 160
50 154 49 154 -21 131 c-11 71 -25 158 -31 193 l-11 62 -162 122 -161 123
-125 33 c-83 22 -159 35 -227 39 l-103 6 0 108 0 109 48 0 c46 0 48 1 67 42
l20 43 275 113 275 114 190 -38 c105 -20 213 -45 240 -56 47 -18 72 -18 402
-12 l353 7 -5 156 c-3 86 -7 235 -10 332 l-5 176 122 6 c66 4 152 7 190 7 65
0 115 16 831 271 419 149 772 277 783 284 12 8 111 115 220 239 l199 226 165
0 165 0 49 225 c28 124 52 229 55 234 3 5 173 59 377 120 336 100 424 131 928
329 l557 219 433 294 433 294 301 384 302 385 0 306 0 307 223 7 c122 4 223 9
224 9 1 1 5 103 9 227 l7 224 159 254 c148 235 158 255 144 271 -9 10 -16 20
-16 23 0 7 146 34 433 82 108 18 200 35 203 39 3 3 2 134 -3 292 l-8 287 -223
124 -222 124 -133 0 -133 0 -249 264 -249 263 -206 47 c-113 26 -221 52 -241
57 l-37 9 -78 220 -79 220 -122 0 c-68 0 -123 2 -123 6 0 3 46 61 101 129 68
82 143 159 227 231 l125 107 176 44 c165 42 182 48 283 109 105 64 111 69 221
207 103 130 119 157 194 317 l81 175 23 177 23 178 -49 207 -49 208 -95 120
c-141 177 -408 422 -706 646 -132 100 -248 187 -258 194 -18 12 -17 20 19 182
l37 168 -223 315 -223 315 -471 325 -471 326 -790 252 c-603 192 -802 252
-840 252 -28 0 -412 -24 -855 -54 l-805 -53 -377 -154 -377 -154 -34 -80 -35
-80 -186 -143 -186 -144 -2068 -199 c-1137 -109 -2076 -199 -2087 -199 -39 0
-47 -17 -74 -163 l-27 -145 38 -18 39 -19 -60 -59 -59 -59 -164 16 -163 16
-160 66 c-87 36 -160 67 -162 69 -2 2 -29 117 -59 256 l-56 252 -111 241 -112
241 -215 189 c-324 285 -463 373 -1110 704 -118 61 -367 177 -553 259 l-338
149 -247 165 -246 165 -65 126 -66 126 34 137 33 136 142 97 c77 53 142 97
144 98 1 1 19 57 38 124 l36 122 -48 116 -49 115 -106 99 -107 99 -229 103
-229 104 -142 6 c-91 4 -150 3 -165 -4 -19 -9 -193 57 -1186 451 l-1163 461
-513 27 c-490 26 -515 27 -586 11 -41 -9 -109 -25 -152 -34 -67 -15 -80 -21
-92 -46 -8 -15 -15 -40 -15 -55 0 -18 -4 -25 -14 -21 -7 3 -103 56 -212 117
l-199 112 -193 21 c-138 14 -196 17 -200 9 -5 -6 -60 29 -145 93 -127 95 -142
103 -195 110 -108 13 -98 -3 -105 161 -4 118 -8 149 -22 164 -16 18 -16 19 6
24 13 3 74 7 134 9 93 4 121 9 180 34 39 16 98 49 132 74 52 37 66 54 92 112
30 66 31 69 20 140 -11 68 -15 75 -69 132 -78 83 -90 105 -90 167 0 78 7 92
55 118 37 20 44 29 48 63 7 50 -17 101 -67 140 -52 40 -70 45 -308 83 -207 32
-384 43 -465 27z"/>
</g>
</svg>
