<?xml version="1.0" standalone="no"?>
<!DOCTYPE svg PUBLIC "-//W3C//DTD SVG 20010904//EN"
 "http://www.w3.org/TR/2001/REC-SVG-20010904/DTD/svg10.dtd">
<svg version="1.0" xmlns="http://www.w3.org/2000/svg"
   viewBox="0 0 4605.000000 2683.000000"
 preserveAspectRatio="xMidYMid meet">
<metadata>
Created by potrace 1.16, written by Peter Selinger 2001-2019
</metadata>
<g transform="translate(0.000000,2683.000000) scale(0.100000,-0.100000)"
fill="#000000" stroke="none">
<path d="M5505 26820 l-50 -7 48 -1 47 -2 0 -105 0 -105 -140 0 -140 0 0 -25
0 -25 140 0 140 0 0 -470 0 -470 -315 0 -315 0 0 -135 0 -135 234 0 233 0 79
-137 80 -138 -4 -107 -4 -108 -467 0 -467 0 -39 40 -39 40 -41 -40 -41 -40
-585 0 -585 0 -39 40 -39 40 -41 -40 -41 -40 -1297 0 -1297 0 -222 197 c-123
108 -233 206 -246 217 -23 21 -24 21 -38 1 -8 -10 -13 -22 -12 -26 2 -3 112
-102 246 -220 l242 -214 0 -292 0 -293 515 0 515 0 0 -325 0 -325 -175 0 -175
0 0 -325 0 -325 175 0 175 0 0 -390 0 -390 85 0 85 0 0 -64 0 -63 407 -399
408 -399 3 -67 3 -68 467 0 467 0 447 -600 447 -600 -129 0 -130 0 0 -325 0
-325 469 0 470 0 355 -372 356 -371 0 -174 0 -173 50 0 50 0 0 -105 0 -105
-57 0 -58 -1 -72 -118 -73 -119 414 -663 413 -664 1274 -432 1274 -432 233 0
232 -1 0 -239 0 -238 465 -188 465 -189 0 -161 0 -161 -30 -29 c-28 -27 -30
-34 -30 -102 l0 -73 68 0 68 0 167 -597 167 -598 0 -569 0 -569 -545 8 -545 7
-319 -161 -319 -161 -1316 0 -1316 0 0 -210 0 -210 -1125 0 -1125 0 0 -110 0
-110 1125 0 c993 0 1125 -2 1125 -15 0 -13 210 -15 1829 -15 l1828 0 329 -231
c181 -128 514 -362 741 -520 l412 -289 155 0 156 0 0 62 0 61 -116 -6 -116 -6
-209 147 -209 147 0 232 0 233 38 -15 c27 -12 3869 -1665 3878 -1669 1 -1 25
-146 53 -323 l51 -321 0 -789 0 -788 160 -216 160 -217 29 -183 c20 -125 27
-186 19 -190 -7 -4 -5 -14 5 -30 31 -50 57 -264 57 -478 l0 -201 233 0 232 -1
1352 -1762 1351 -1762 -44 -86 -44 -85 0 -257 0 -256 251 -206 c215 -176 256
-205 278 -201 14 3 88 13 164 22 136 16 140 16 215 -4 l77 -21 120 32 120 33
115 -24 115 -25 255 103 c139 56 508 205 819 332 311 127 575 233 586 235 15
3 3456 -783 3558 -813 11 -4 20 1 25 14 7 17 74 3 1102 -235 602 -139 1095
-253 1096 -253 4 -1 46 211 43 214 -2 1 -494 116 -1092 254 -599 138 -1090
252 -1092 254 -2 2 18 92 43 200 25 109 43 200 40 203 -3 3 -380 92 -839 198
-769 178 -834 194 -831 212 5 35 1231 5067 1236 5072 2 3 101 25 218 50 l214
45 74 147 75 146 343 3 342 2 0 -170 c0 -138 3 -176 17 -205 l17 -35 78 0 78
0 0 -90 0 -90 65 0 65 0 0 90 0 90 109 0 108 0 17 43 c12 33 16 79 16 205 l0
162 4775 0 4776 0 -11 -20 c-9 -16 -7 -22 7 -27 10 -3 52 -19 93 -35 41 -15
79 -28 85 -28 6 0 19 25 30 55 l18 55 59 0 58 0 0 54 c0 29 3 68 6 85 6 29 5
31 -25 31 -17 0 -31 2 -31 4 0 2 21 59 46 126 25 66 44 123 43 124 -12 10
-194 73 -197 68 -1 -4 -28 -77 -61 -162 l-58 -155 -474 3 c-4491 25 -6065 35
-6071 41 -3 3 -182 429 -397 945 l-391 939 94 161 c53 89 401 676 775 1306
l679 1145 1103 3 1104 3 295 513 295 513 5 -375 5 -375 193 211 192 210 0 509
1 508 243 420 244 420 153 2 154 2 240 -163 240 -163 3 -107 3 -106 171 0 170
0 137 67 136 67 494 4 c279 2 497 0 500 -5 3 -5 31 -24 62 -41 l56 -32 212 0
211 0 0 73 0 72 123 123 122 122 1903 0 1903 0 33 -25 c32 -24 38 -25 190 -25
l157 0 82 46 c131 75 132 75 116 85 -8 5 120 9 307 9 314 0 325 1 485 30 698
129 1257 596 1494 1250 43 119 85 274 85 318 0 1 81 2 180 2 l180 0 0 200 0
200 65 0 65 0 0 -530 0 -530 55 0 55 0 0 530 0 530 65 0 65 0 0 660 0 660 -65
0 -65 0 0 525 0 525 -55 0 -55 0 0 -525 0 -525 -2450 0 -2450 0 0 205 0 205
2165 0 2165 0 0 60 c0 47 3 60 15 60 13 0 15 -24 15 -155 0 -148 1 -155 20
-155 19 0 20 7 20 155 0 131 2 155 15 155 13 0 15 28 15 190 0 162 -2 190 -15
190 -13 0 -15 23 -15 150 0 143 -1 150 -20 150 -19 0 -20 -7 -20 -150 l0 -150
-3150 0 -3150 0 0 115 0 115 -36 0 -37 0 6 68 c4 37 19 385 34 775 l27 707
3468 0 3468 0 0 -35 0 -35 165 0 165 0 0 35 0 35 159 0 160 0 205 266 206 267
0 1288 0 1289 -52 0 c-29 0 -289 9 -578 20 -289 11 -531 20 -537 20 -10 0 -13
34 -13 138 l0 137 -2337 89 -2338 89 -107 -113 -107 -114 -8588 312 c-4723
172 -8624 315 -8669 318 l-80 6 -157 314 -157 314 -1890 0 -1890 0 0 -240 0
-240 -72 0 c-40 0 -117 3 -170 7 l-98 6 0 227 0 227 -812 7 c-447 3 -999 9
-1225 13 l-413 6 0 43 0 44 -615 0 -615 0 0 56 c0 30 -5 98 -12 150 l-11 94
-103 0 -103 0 -10 53 c-48 240 -58 361 -35 421 5 14 -9 16 -120 16 l-126 0 0
-60 0 -60 -550 0 -550 0 0 -77 0 -76 -102 -193 -103 -194 -47 0 -48 0 0 -65 0
-65 -2093 0 -2094 0 -122 200 -123 200 -373 0 -373 0 -83 90 -82 90 -798 0
-799 0 0 470 0 470 155 0 155 0 0 25 0 25 -155 0 -155 0 0 105 0 105 48 1 47
2 -55 7 c-66 9 -137 9 -205 0z m32023 -8307 c-26 -2 -71 -2 -100 0 -29 2 -8 3
47 3 55 0 79 -1 53 -3z m350 0 c-10 -2 -26 -2 -35 0 -10 3 -2 5 17 5 19 0 27
-2 18 -5z m12 -428 l0 -45 55 0 c42 0 55 -3 55 -15 0 -13 112 -15 945 -15
l945 0 0 -205 0 -205 -1372 0 c-1370 0 -1371 0 -1353 20 15 17 31 20 92 20
l73 0 0 245 0 245 280 0 280 0 0 -45z m-3070 -280 l0 -25 1119 -2 1120 -3 -97
-87 -97 -87 -1537 -1 -1538 0 0 115 0 115 515 0 515 0 0 -25z m-80 -1531 c0
-4 -114 -229 -252 -500 l-253 -494 -127 0 -128 0 0 98 0 97 -129 145 c-102
114 -125 146 -110 148 13 2 19 12 19 28 0 15 6 24 15 24 13 0 15 32 15 230 l0
230 475 0 c261 0 475 -3 475 -6z m1387 -466 c-3 -7 -131 -249 -285 -538 l-279
-525 -412 -3 c-227 -1 -411 1 -409 5 1 5 28 52 58 105 l55 98 117 0 116 0 30
52 c21 36 28 57 22 68 -13 23 116 248 144 252 28 4 87 105 81 138 -4 18 12 55
54 130 59 103 61 106 153 167 l93 62 234 0 c183 1 232 -2 228 -11z m-2653
-198 l116 -131 0 -64 0 -65 -120 0 -120 0 0 195 c0 107 2 195 4 195 2 0 56
-59 120 -130z m1746 -183 l11 -56 -103 -179 -103 -178 -43 9 c-23 4 -41 11
-39 15 45 84 261 451 263 449 2 -2 9 -29 14 -60z m-1060 -289 c0 -2 -40 -82
-90 -178 l-89 -175 -1 178 0 177 90 0 c50 0 90 -1 90 -2z m-1680 -176 c0 -22
31 -58 163 -190 l162 -162 393 0 392 0 0 -295 0 -295 -406 -792 c-223 -436
-409 -796 -413 -801 -4 -4 -357 -6 -785 -5 l-777 3 326 549 325 548 0 89 0 89
-55 0 -55 0 0 184 0 184 -312 331 -312 331 -108 0 -108 0 0 130 0 130 785 0
785 0 0 -28z m2955 -459 l-73 -138 -51 -3 c-49 -3 -54 0 -198 96 -81 54 -175
118 -207 141 l-59 41 330 0 331 0 -73 -137z m-22332 -1100 c-15 -13 -48 -37
-73 -54 -36 -26 -32 -20 23 30 37 35 68 70 68 79 1 9 4 6 6 -8 4 -18 -2 -30
-24 -47z m27 -1003 l0 -540 110 0 110 0 0 -332 0 -333 232 -232 233 -233 505
0 505 0 124 -780 c68 -429 122 -782 120 -785 -3 -2 -806 341 -1785 763 l-1780
767 20 30 c36 52 59 113 53 137 -4 13 -49 80 -102 148 l-95 125 0 265 1 265
472 346 472 346 3 -59 3 -58 299 0 300 0 0 280 0 280 93 69 c50 39 95 70 100
70 4 1 7 -242 7 -539z m-1301 66 c-10 -8 -427 -313 -437 -320 -9 -5 -12 11
-12 63 l0 71 95 0 95 0 0 95 0 95 132 0 c72 0 129 -2 127 -4z m4961 -656 l0
-50 -65 0 -65 0 0 50 0 50 65 0 65 0 0 -50z m0 -240 l0 -80 90 0 90 0 2 -896
3 -896 863 -326 862 -326 0 -368 0 -368 -80 0 -80 0 0 80 0 80 -200 0 -200 0
0 30 0 30 270 0 270 0 0 190 0 190 -270 0 c-233 0 -270 2 -270 15 0 13 -20 15
-121 15 -66 0 -118 4 -115 8 3 5 -321 170 -719 368 l-725 358 0 656 0 655 100
100 100 100 0 232 0 233 65 0 65 0 0 -80z m213 -2567 c285 -188 534 -347 553
-353 33 -11 34 -13 34 -66 l0 -54 55 0 55 0 0 -110 0 -110 -60 0 -60 0 0 80 0
80 -457 0 -458 1 -100 43 -100 43 -3 402 c-2 322 0 401 10 395 7 -5 246 -162
531 -351z m12501 -849 c214 -514 387 -936 385 -938 -2 -1 -488 1 -1079 5 -591
4 -1249 8 -1462 8 l-388 1 0 715 c0 633 -2 719 -16 755 l-16 40 -129 0 -129 0
0 80 c0 75 3 85 47 175 l48 95 1175 0 1175 0 389 -936z m-3114 -809 l0 -115
-280 0 c-154 0 -280 2 -280 5 0 3 25 55 55 115 l55 110 225 0 225 0 0 -115z
m-1830 -861 c0 -6 -1152 -4744 -1171 -4816 l-9 -36 -56 13 c-30 7 -57 15 -60
18 -6 6 532 4611 544 4647 7 24 22 28 367 102 378 80 385 82 385 72z m-6766
-1514 l252 -250 497 0 497 0 0 -175 0 -175 35 0 35 0 0 -1046 0 -1047 -52 -98
c-29 -55 -55 -99 -58 -98 -4 0 -1528 1984 -2293 2985 l-118 154 477 0 477 0
251 -250z"/>
</g>
</svg>
