<?xml version="1.0" standalone="no"?>
<!DOCTYPE svg PUBLIC "-//W3C//DTD SVG 20010904//EN"
 "http://www.w3.org/TR/2001/REC-SVG-20010904/DTD/svg10.dtd">
<svg version="1.0" xmlns="http://www.w3.org/2000/svg"
   viewBox="0 0 2351.000000 4553.000000"
 preserveAspectRatio="xMidYMid meet">
<metadata>
Created by potrace 1.16, written by Peter Selinger 2001-2019
</metadata>
<g transform="translate(0.000000,4553.000000) scale(0.100000,-0.100000)"
fill="#000000" stroke="none">
<path d="M3861 45508 c46 -86 858 -1842 854 -1848 -3 -4 -65 -16 -140 -25 -74
-10 -140 -22 -147 -26 -13 -8 116 -616 135 -635 7 -6 125 -30 262 -54 138 -24
255 -48 261 -54 16 -16 384 -818 379 -826 -2 -4 -97 -20 -210 -36 -113 -15
-210 -31 -215 -34 -5 -3 -5 -21 0 -45 6 -22 42 -186 81 -365 39 -179 73 -326
74 -328 1 -1 161 -32 356 -68 195 -36 357 -68 360 -72 3 -4 135 -284 293 -622
l288 -615 243 -260 c134 -143 243 -261 241 -262 -2 -2 -169 -17 -371 -33 -203
-17 -371 -32 -373 -35 -2 -2 -67 -138 -144 -302 -76 -164 -142 -301 -146 -305
-4 -3 -245 -27 -537 -53 l-530 -46 -137 -86 -138 -86 0 -587 0 -588 135 -86
135 -86 537 -47 537 -48 141 -305 c141 -301 143 -305 189 -334 26 -16 43 -32
39 -36 -4 -4 -387 -103 -851 -220 l-843 -212 -127 35 c-70 20 -182 46 -249 58
l-121 22 -604 -87 -603 -87 -667 -332 c-368 -182 -668 -335 -668 -338 0 -4 93
-87 207 -185 201 -173 208 -178 282 -199 42 -12 459 -120 928 -241 l852 -219
-262 -6 c-144 -3 -545 -9 -892 -13 l-630 -8 -217 -144 -218 -144 0 -1034 0
-1034 215 -141 214 -140 1025 -101 c563 -55 1033 -100 1043 -100 12 0 148
-142 383 -401 l365 -401 265 -165 c146 -91 271 -171 279 -178 11 -11 17 -75
25 -274 10 -241 12 -261 32 -283 71 -78 537 -633 541 -645 3 -7 -19 -67 -48
-133 l-53 -120 -213 0 -212 0 -116 -150 c-107 -137 -119 -150 -148 -150 -18 0
-134 -5 -259 -10 l-227 -10 -311 -192 -310 -193 3 -1239 2 -1239 310 -194 309
-193 257 0 257 0 87 -121 c47 -67 83 -125 78 -129 -4 -3 -341 -86 -748 -184
l-740 -178 -615 -360 c-338 -199 -623 -366 -632 -373 -15 -10 -3 -32 110 -202
l127 -190 645 -148 c355 -82 659 -152 677 -157 35 -9 35 -10 84 -198 l22 -85
-36 -116 -36 -115 -191 -139 c-104 -77 -190 -144 -191 -150 0 -5 -3 -41 -8
-78 l-7 -69 59 -53 60 -53 369 -73 c222 -45 362 -77 351 -81 -10 -4 -106 -23
-213 -43 -107 -20 -203 -39 -212 -41 -41 -12 -4 -113 84 -230 60 -81 75 -110
133 -264 73 -196 95 -289 95 -399 l0 -77 177 -55 178 -55 3 -165 2 -165 -335
-59 c-184 -33 -340 -62 -345 -65 -17 -11 21 -90 95 -200 54 -78 86 -142 129
-250 67 -168 86 -251 95 -410 l6 -115 177 -45 178 -45 0 -220 0 -221 -345 -48
c-297 -42 -345 -51 -341 -65 3 -9 10 -45 17 -81 11 -56 22 -78 82 -157 122
-163 227 -475 227 -676 l0 -83 85 -42 85 -42 -6 -732 c-4 -403 -9 -735 -11
-737 -2 -3 -187 -80 -410 -171 -357 -146 -408 -169 -415 -192 -7 -20 7 -56 76
-201 80 -168 84 -177 63 -181 -12 -3 -276 -11 -587 -20 l-565 -16 -98 -41
c-146 -62 -137 -29 -137 -511 0 -477 -7 -448 135 -511 l90 -40 745 -24 c409
-13 746 -26 748 -28 2 -2 -42 -79 -98 -170 -69 -114 -100 -175 -98 -191 3 -22
36 -40 283 -151 154 -70 281 -127 283 -129 2 -1 -126 -472 -284 -1046 l-288
-1045 -98 -32 -99 -33 105 -111 c57 -62 191 -206 298 -322 l195 -210 -265 -9
-265 -9 -271 277 -271 276 -897 -138 c-493 -75 -901 -141 -906 -147 -6 -5 -49
-203 -97 -440 -47 -236 -88 -437 -91 -446 -3 -11 -42 -24 -137 -45 l-132 -30
-18 -60 c-17 -58 -19 -60 -90 -99 l-72 -40 -3 -95 -2 -95 135 -74 c75 -41 153
-88 173 -105 l38 -30 -201 -1039 c-146 -756 -204 -1041 -215 -1047 -8 -4 -37
-13 -65 -19 -139 -28 -181 -44 -197 -71 -9 -17 -48 -44 -97 -71 l-81 -43 0
-91 0 -92 133 -72 c72 -40 151 -89 174 -109 l42 -37 -69 -385 -68 -385 255
-347 c140 -191 258 -350 263 -353 10 -6 2180 600 2190 612 4 4 114 447 244
983 131 536 242 979 246 984 7 7 591 78 597 72 1 -1 -63 -41 -142 -90 -98 -60
-145 -95 -149 -110 -3 -12 -107 -465 -231 -1006 l-225 -985 -117 -112 c-81
-77 -129 -116 -154 -123 -20 -5 -495 -123 -1056 -260 -1013 -248 -1021 -250
-1129 -250 -60 0 -115 -4 -122 -8 -9 -6 -4 -16 19 -38 17 -16 53 -55 81 -86
l49 -57 -23 -78 -23 -78 -146 -75 -147 -74 -61 -206 c-34 -114 -61 -209 -61
-213 0 -3 50 -22 110 -42 61 -20 110 -40 110 -43 0 -4 -215 -652 -478 -1440
l-477 -1433 -106 -117 -107 -116 112 -118 112 -118 45 -127 44 -126 163 -148
c137 -125 168 -149 195 -149 18 -1 813 -38 1767 -83 1683 -80 1744 -82 2020
-73 l285 8 185 99 185 99 145 235 145 235 117 70 c65 39 136 77 159 85 33 12
103 15 330 15 l289 0 0 35 0 35 -294 0 c-162 0 -301 3 -310 6 -9 3 -16 15 -16
25 0 10 -16 57 -35 103 l-35 84 456 1253 456 1253 180 242 179 243 75 203 c41
112 76 210 76 218 1 8 -19 61 -45 118 -26 57 -47 109 -47 115 0 7 34 107 75
222 l76 210 202 36 c200 36 204 37 407 124 196 83 208 90 270 151 l66 64 170
0 c145 0 180 3 229 20 51 18 84 20 284 20 198 0 232 2 276 19 l50 19 -48 21
c-45 19 -68 21 -276 21 -216 0 -231 1 -301 25 -66 23 -89 25 -234 25 l-160 0
-61 59 -60 60 -250 89 c-176 63 -249 94 -247 103 3 13 1083 2861 1086 2866 1
1 105 22 232 47 225 43 232 46 436 131 202 85 208 89 233 131 48 82 54 84 255
84 151 0 185 3 235 20 51 18 85 20 289 21 201 0 237 2 276 19 l45 18 -40 19
c-34 15 -76 19 -290 23 -225 5 -256 8 -309 28 -52 19 -79 22 -230 22 -94 0
-176 4 -181 8 -6 4 -27 30 -48 59 l-37 51 -250 93 c-138 51 -250 97 -250 103
1 6 110 306 244 666 l242 655 146 28 146 29 81 182 c45 99 81 186 81 192 0 7
-36 14 -92 18 -51 4 -114 9 -139 12 l-47 6 25 77 c14 42 27 77 28 79 2 2 66
15 144 30 l142 27 84 189 c47 104 84 191 82 192 -1 1 -61 8 -132 15 -72 7
-132 14 -134 15 -2 2 9 32 25 68 l29 64 147 27 146 28 35 81 c20 45 58 131 85
192 l50 112 -134 12 c-74 7 -137 17 -140 21 -2 5 80 204 183 443 l188 434 280
108 c154 59 294 115 311 123 17 9 74 48 127 86 l95 70 21 85 c45 188 89 280
209 438 47 62 83 114 81 115 -2 2 -60 34 -129 71 -69 37 -129 71 -133 75 -4 5
28 18 73 31 70 20 81 26 86 49 48 219 95 322 219 491 46 62 82 116 80 120 -2
4 -112 46 -243 94 l-239 88 112 281 c61 155 187 473 280 707 92 234 171 429
175 433 5 5 156 52 336 105 l329 97 244 488 243 487 438 353 438 352 173 443
173 442 372 279 372 280 152 212 152 213 126 345 125 345 -69 138 -69 139
-335 184 -335 183 -3 90 -3 91 43 5 c24 3 280 26 571 51 505 44 538 48 768 95
l240 50 303 0 c261 0 305 -2 310 -15 5 -13 117 -15 925 -15 761 0 920 2 924
13 6 16 -83 19 -963 37 -575 12 -620 15 -620 36 0 12 -66 14 -442 14 l-443 0
-147 46 -147 45 -612 47 -613 47 -69 210 -70 211 45 99 45 100 119 46 119 46
445 52 c391 45 931 101 983 101 12 0 -11 25 -62 68 -44 37 -80 70 -80 74 -1 7
922 1422 939 1442 5 4 53 0 109 -9 55 -9 105 -15 110 -13 6 1 -68 74 -163 160
l-174 157 -208 112 c-115 61 -211 113 -213 115 -3 3 174 430 187 450 4 6 125
17 292 27 157 10 318 20 358 24 l72 6 0 43 0 42 -72 6 c-94 8 -584 36 -626 36
l-32 0 0 74 0 73 38 25 37 25 495 15 c475 14 497 15 538 37 42 21 51 22 665
31 622 9 622 9 692 33 l70 24 -72 22 c-68 20 -102 22 -690 32 -583 10 -621 12
-663 30 -41 19 -87 22 -540 36 l-495 15 -45 27 c-45 27 -45 28 -50 92 -5 57
-24 104 -174 424 l-169 360 -384 385 -383 385 2 524 3 523 610 241 c336 132
1206 475 1935 763 l1325 523 202 258 c112 142 203 262 203 268 0 14 -99 237
-115 259 -12 16 -145 31 -1307 143 -711 68 -1294 125 -1295 127 -1 1 18 78 43
172 l46 169 2846 390 2845 391 228 454 c221 442 288 585 277 595 -3 3 -1289
237 -2859 520 l-2854 515 -1175 46 c-646 24 -1194 47 -1217 50 l-41 5 -31 85
-31 85 0 414 0 413 139 121 140 121 1151 0 1151 0 347 -109 347 -109 460 -11
c282 -7 508 -17 583 -26 94 -12 212 -15 508 -13 l384 3 -350 505 c-193 278
-359 512 -368 521 -9 9 -175 88 -368 177 l-351 162 -109 0 -109 0 -869 495
-869 495 -725 -2 -725 -3 -57 -160 -57 -160 -539 -5 -539 -5 -189 -138 c-182
-134 -189 -138 -206 -120 -10 10 -181 195 -379 412 l-361 394 -193 95 -192 94
-594 117 -593 118 -132 138 c-72 76 -400 456 -728 844 l-597 706 82 10 c76 10
90 16 185 75 l102 65 0 85 0 85 -112 72 -113 71 -270 22 c-148 12 -280 25
-291 28 -12 4 -279 310 -593 680 l-571 673 0 74 0 74 -114 60 -113 61 -834
984 -834 985 -832 0 -831 1 -160 90 -161 90 -501 0 -501 0 12 -22z m909
-35783 c0 -6 -249 -1073 -255 -1095 -3 -10 28 -38 90 -84 52 -38 95 -69 95
-71 0 -1 -78 9 -172 21 -95 13 -219 29 -275 35 -57 7 -107 15 -112 18 -5 3 55
266 136 594 l145 587 174 0 c96 0 174 -2 174 -5z"/>
</g>
</svg>
