<?xml version="1.0" standalone="no"?>
<!DOCTYPE svg PUBLIC "-//W3C//DTD SVG 20010904//EN"
 "http://www.w3.org/TR/2001/REC-SVG-20010904/DTD/svg10.dtd">
<svg version="1.0" xmlns="http://www.w3.org/2000/svg"
   viewBox="0 0 4836.000000 1124.000000"
 preserveAspectRatio="xMidYMid meet">
<metadata>
Created by potrace 1.16, written by Peter Selinger 2001-2019
</metadata>
<g transform="translate(0.000000,1124.000000) scale(0.100000,-0.100000)"
fill="#000000" stroke="none">
<path d="M15500 10926 c0 -199 -4 -317 -10 -321 -6 -4 -10 -54 -10 -117 l0
-111 -50 -58 c-32 -37 -50 -67 -50 -83 0 -19 -5 -26 -20 -26 -19 0 -20 7 -20
178 0 236 -11 482 -22 482 -4 0 -8 -71 -8 -157 0 -87 -3 -236 -7 -330 l-6
-173 -84 0 -83 0 0 -30 0 -30 -360 0 -360 0 0 30 0 30 -117 0 c-104 0 -165 -9
-518 -75 -220 -41 -409 -77 -420 -80 -13 -3 -37 -37 -68 -95 l-48 -90 118 -1
c118 -1 118 -1 76 -16 -39 -13 -43 -18 -43 -49 l0 -34 360 0 360 0 0 -50 0
-50 -118 0 -117 0 -95 -95 -95 -95 -516 0 -516 0 -47 -60 -47 -60 -1341 2
-1342 3 -134 218 -134 217 -559 0 -559 0 -170 -205 c-94 -113 -175 -205 -179
-205 -5 0 -14 7 -21 15 -10 12 -45 15 -194 15 -220 0 -226 -2 -226 -86 l0 -54
-240 0 -240 0 0 51 c0 84 -10 88 -225 89 -218 0 -225 -2 -225 -86 l0 -54 -245
0 -245 0 0 54 c0 84 -7 86 -225 86 -215 -1 -225 -5 -225 -89 l0 -51 -240 0
-240 0 0 54 c0 83 -7 86 -223 86 -218 0 -227 -4 -227 -86 l0 -54 -240 0 -240
0 0 54 c0 84 -7 86 -225 86 -215 -1 -225 -5 -225 -89 l0 -51 -240 0 -240 0 0
54 c0 84 -7 86 -225 86 -221 -1 -225 -2 -225 -103 0 -59 -2 -65 -23 -70 -12
-4 -391 -81 -842 -172 -451 -92 -822 -169 -825 -172 -3 -2 -21 -100 -42 -218
l-36 -213 -231 -228 -232 -229 -399 -1840 c-219 -1012 -401 -1857 -405 -1877
-6 -34 8 -69 156 -383 l164 -345 1513 0 1512 0 0 -84 0 -85 261 -190 262 -191
1257 0 1258 0 87 -150 87 -150 1099 0 1099 0 0 -54 c0 -49 4 -58 53 -119 42
-52 59 -66 87 -71 19 -3 1059 -91 2310 -196 1251 -105 2285 -193 2297 -196 15
-3 57 -63 153 -221 l132 -218 746 -178 c411 -99 849 -204 975 -234 l227 -55 0
-87 0 -86 -130 -130 -130 -130 0 -187 0 -188 -94 0 -95 0 -10 -53 c-6 -28 -21
-110 -34 -182 l-23 -130 489 -3 c476 -2 489 -2 517 18 23 16 44 20 114 20 l86
0 221 180 c218 178 221 180 269 180 47 0 50 2 158 101 l110 102 21 83 c12 46
21 85 21 88 0 2 -22 18 -50 36 -27 18 -50 35 -50 39 0 3 34 40 75 81 l75 74 0
88 0 88 1723 0 1724 0 99 120 99 119 978 1 977 0 42 30 c37 27 49 30 115 30
66 0 79 -3 118 -30 l44 -30 983 0 983 1 39 29 c36 27 47 30 116 30 69 0 80 -3
116 -30 l39 -29 902 -1 902 0 101 -120 101 -120 1237 1 1237 0 99 120 99 119
927 0 926 0 40 30 c35 27 46 29 117 30 70 0 81 -3 119 -30 l41 -30 532 0 531
0 100 -120 99 -120 1841 0 1841 0 99 119 99 120 695 1 695 1 39 29 c36 27 47
30 116 30 69 0 80 -3 116 -30 l39 -29 770 -1 770 -1 99 -120 99 -119 2743 0
2743 0 273 325 273 325 713 0 712 0 0 780 0 780 -830 0 -830 0 0 233 0 232
-100 60 c-55 33 -96 62 -92 66 4 3 39 16 79 28 68 20 91 21 517 21 l446 0 0
185 0 185 -325 0 -324 0 -3 76 -3 76 -119 44 -120 44 -153 0 -153 0 0 355 0
355 143 0 142 0 132 47 133 48 0 78 0 77 325 0 325 0 0 185 0 185 -452 0
c-388 0 -460 2 -510 16 -32 9 -57 21 -56 26 2 4 39 30 83 56 l80 48 3 257 2
257 830 0 830 0 0 775 0 775 -712 1 -713 0 -270 324 -270 324 -2747 0 -2747 1
-106 -125 -107 -125 -757 0 -758 0 -41 -30 c-39 -28 -48 -30 -124 -30 -76 1
-86 3 -122 30 l-40 30 -682 0 -683 0 -106 125 -107 125 -1842 0 -1842 0 -104
-125 -105 -125 -525 0 -525 -1 -39 -29 c-36 -28 -46 -30 -121 -30 -75 0 -85 2
-121 30 l-39 29 -921 1 -920 0 -104 125 -105 125 -1240 -1 -1240 0 -104 -125
-103 -124 -892 0 -892 0 -40 -30 c-36 -27 -45 -29 -124 -29 -79 0 -88 2 -124
29 l-40 30 -976 0 -977 0 -41 -30 c-39 -28 -48 -30 -124 -30 -76 1 -86 3 -122
30 l-40 30 -970 1 -971 0 -103 125 -103 124 -1377 0 -1378 0 -45 171 c-24 94
-46 174 -49 178 -3 5 -481 117 -1063 250 -903 206 -1070 241 -1138 241 l-79 0
0 50 0 50 85 0 85 0 0 33 c0 28 -6 36 -32 50 l-33 16 78 0 c61 1 77 4 77 16 0
13 58 15 466 15 398 0 465 2 462 14 -2 8 -46 54 -100 103 l-96 88 -344 28
c-484 40 -458 37 -458 58 0 17 -10 19 -113 19 l-113 0 -14 188 c-8 103 -15
334 -17 515 -3 277 -6 327 -19 327 -12 0 -14 -46 -14 -314z"/>
</g>
</svg>
