<?xml version="1.0" standalone="no"?>
<!DOCTYPE svg PUBLIC "-//W3C//DTD SVG 20010904//EN"
 "http://www.w3.org/TR/2001/REC-SVG-20010904/DTD/svg10.dtd">
<svg version="1.0" xmlns="http://www.w3.org/2000/svg"
   viewBox="0 0 1018.000000 4552.000000"
 preserveAspectRatio="xMidYMid meet">
<metadata>
Created by potrace 1.16, written by Peter Selinger 2001-2019
</metadata>
<g transform="translate(0.000000,4552.000000) scale(0.100000,-0.100000)"
fill="#000000" stroke="none">
<path d="M2803 45513 c-51 -2 -93 -8 -93 -13 0 -6 -53 -10 -130 -10 l-130 0 0
-40 0 -40 90 0 90 0 0 -70 c0 -63 2 -70 20 -70 18 0 20 -7 20 -75 l0 -75 70 0
70 0 0 -35 c0 -31 -3 -35 -25 -35 l-25 0 0 -185 0 -185 -65 0 -65 0 0 -240 0
-240 -170 0 -170 0 0 -35 0 -35 197 0 197 0 -62 -46 -62 -46 0 -264 0 -264
-310 0 -310 0 0 -110 0 -110 -375 0 -375 0 0 -75 0 -75 160 0 160 0 0 -45 0
-45 560 0 560 0 0 -256 0 -255 -22 15 c-19 14 -70 16 -355 16 -322 0 -333 -1
-343 -20 -11 -20 -21 -20 -613 -20 l-602 -1 -178 -167 -177 -166 0 -138 0
-138 490 0 490 0 0 -220 c0 -121 -2 -220 -5 -220 -3 0 -10 11 -15 25 l-10 25
-320 0 -320 0 0 -25 0 -25 -325 0 -325 0 0 -85 0 -85 225 0 225 0 0 -180 0
-180 50 0 50 0 0 -200 0 -200 -87 0 c-49 0 -118 -3 -155 -7 l-68 -6 0 -143 0
-144 60 0 60 0 0 -335 0 -335 120 0 120 0 0 -105 0 -105 -95 0 -95 0 0 -225 0
-225 245 0 245 0 0 -115 0 -115 -95 0 c-84 0 -103 -3 -160 -29 l-65 -30 0
-160 0 -161 227 -2 227 -3 26 -45 26 -45 652 -3 652 -2 25 50 25 50 110 0 110
0 0 -105 0 -105 -145 0 -145 0 -6 25 -6 25 -139 0 c-139 0 -139 0 -151 -25
l-11 -25 -152 0 c-144 0 -153 1 -158 20 -5 19 -14 20 -135 20 -122 0 -131 -1
-137 -20 -6 -19 -15 -20 -251 -20 l-244 0 0 -590 0 -590 245 0 245 0 0 -85 0
-85 -170 0 -170 0 0 -285 0 -285 80 0 80 0 0 -117 -1 -118 -314 -240 -315
-240 0 -62 0 -63 95 0 95 0 0 -220 0 -220 -65 0 -65 0 0 -215 0 -215 385 0
385 0 0 -395 0 -395 43 -22 c23 -12 69 -25 102 -28 l60 -5 3 -167 2 -168 215
0 215 0 0 -175 0 -175 80 0 80 0 0 -370 0 -370 100 0 100 0 0 -330 0 -330
-180 0 -180 0 0 -434 0 -434 180 -241 180 -242 0 -304 0 -305 -125 0 -125 0 0
-510 0 -510 125 0 125 0 0 -499 0 -498 -200 -8 -200 -7 0 -679 0 -679 200 0
200 0 0 -240 0 -240 35 0 35 0 0 -65 0 -65 130 0 c80 0 130 -4 130 -10 0 -6
102 -10 285 -10 l285 0 0 75 0 75 88 0 88 0 49 -340 50 -340 87 0 88 0 0 -125
0 -125 -122 0 -123 0 -64 -248 c-35 -136 -68 -262 -73 -279 l-9 -33 -99 0
-100 0 0 -390 0 -390 -175 0 -175 0 0 59 c0 81 -16 91 -145 91 -76 0 -97 -3
-101 -15 -5 -12 -31 -15 -145 -15 l-139 0 0 -350 0 -350 139 0 c83 0 142 -4
146 -10 9 -14 188 -13 220 2 23 10 25 17 25 70 l0 58 175 0 175 0 0 -195 0
-195 720 0 720 0 0 -165 0 -165 58 0 c31 0 67 -3 80 -6 l22 -6 0 -374 0 -373
-77 -3 -78 -3 -3 -619 c-2 -508 -5 -621 -16 -630 -7 -6 -32 -86 -55 -178 -31
-126 -41 -188 -41 -247 0 -77 -1 -80 -30 -101 l-30 -21 0 -178 0 -177 30 -29
c27 -26 30 -35 30 -92 l0 -63 55 0 55 0 0 -90 0 -90 118 0 c66 0 180 -3 255
-7 l137 -6 0 -318 0 -317 -30 -7 -30 -7 0 -329 0 -329 -495 0 -495 0 0 145 0
145 -445 0 -445 0 0 -585 0 -585 445 0 445 0 0 60 0 60 115 0 115 0 0 -710 0
-710 353 0 c334 0 353 1 377 20 23 18 42 20 218 20 l192 0 0 -75 0 -75 -192 0
c-149 1 -199 4 -218 15 -20 12 -91 14 -377 15 l-353 0 0 -770 0 -770 363 5
c199 2 455 7 570 10 l207 6 0 -71 0 -71 -207 6 c-115 3 -371 8 -570 10 l-363
5 0 -770 0 -770 354 0 c323 0 355 2 377 18 22 16 44 17 217 14 l192 -4 0 -774
0 -774 -69 0 c-104 0 -101 9 -101 -301 0 -243 1 -257 20 -274 16 -14 20 -31
20 -82 l0 -63 -150 0 -150 0 0 150 0 150 -275 0 -275 0 0 -1070 0 -1070 275 0
275 0 0 150 0 150 130 0 130 0 0 -105 c0 -94 2 -106 20 -117 18 -11 20 -24 20
-100 0 -77 -2 -89 -20 -98 -19 -10 -20 -21 -20 -271 0 -317 -2 -309 101 -309
62 0 69 -2 69 -20 0 -18 -7 -20 -59 -20 l-58 0 -7 -1777 c-3 -978 -9 -2551
-13 -3495 l-6 -1718 -37 0 c-34 0 -38 -3 -44 -31 -3 -17 -6 -110 -6 -205 l0
-174 113 0 114 0 149 232 c83 128 253 403 379 611 221 364 230 377 260 377 34
0 60 30 50 59 -3 12 68 132 220 369 124 193 225 354 225 357 0 3 -9 5 -20 5
-20 0 -20 7 -20 1174 0 841 -3 1177 -11 1182 -6 3 -9 18 -7 33 4 26 1268 1996
1294 2017 16 13 19 94 4 94 -11 0 -14 778 -4 867 l7 53 288 0 289 0 0 193 0
192 -53 23 c-44 19 -70 22 -169 22 l-118 0 0 260 0 260 119 0 c98 0 127 4 170
21 l51 22 0 188 0 189 -290 0 -290 0 0 265 0 265 290 0 290 0 0 194 0 194 -62
21 c-48 16 -87 21 -170 21 l-108 0 0 260 0 260 118 0 c103 0 123 3 170 25 l52
24 0 186 0 185 -270 0 -270 0 0 53 c0 41 -4 55 -20 65 -19 12 -20 23 -20 272
l0 260 -25 0 c-24 0 -25 3 -25 53 0 47 3 55 25 67 21 11 25 20 25 62 0 34 4
48 14 48 29 0 46 47 46 124 0 74 0 74 -28 81 l-29 6 -6 157 c-4 86 -7 361 -7
610 l0 452 65 0 65 0 0 35 c0 28 4 35 19 35 13 0 20 -9 25 -30 l6 -30 100 0
100 0 0 63 c0 58 2 65 25 77 14 7 25 22 25 33 0 10 9 21 20 24 16 4 20 14 20
43 0 40 -26 68 -78 84 -33 11 -31 62 3 70 23 6 25 11 25 68 0 51 4 67 28 97
l27 36 5 695 5 695 73 13 72 14 0 759 c0 752 0 759 -20 759 -18 0 -20 7 -20
59 0 51 -6 69 -42 132 l-42 72 42 38 42 37 0 81 0 81 65 0 65 0 0 224 0 225
-35 27 -35 26 0 483 0 483 40 32 40 32 0 101 0 102 710 820 710 820 -1 1085 0
1085 -612 671 c-337 369 -668 730 -736 803 l-125 131 -198 0 -198 0 0 125 0
125 -190 0 -190 0 0 230 0 230 90 0 90 0 0 83 c0 79 1 85 30 112 l30 29 0 198
0 197 -30 23 c-24 17 -30 29 -30 60 l0 38 325 0 325 0 0 665 0 664 70 58 70
58 0 91 0 90 145 127 145 128 0 814 c0 521 4 815 10 815 14 0 549 79 583 86
l27 6 0 164 c0 90 -1 164 -2 164 -2 0 -136 18 -298 40 -239 32 -325 40 -452
40 l-158 0 0 115 0 114 -70 42 -70 41 0 569 0 569 54 27 c45 22 57 34 80 80
26 53 26 56 26 273 l0 220 124 0 123 0 7 -37 c3 -21 6 -57 6 -80 l0 -43 -65 0
-65 0 0 -65 0 -65 370 0 c204 0 370 2 370 5 0 3 -14 32 -30 65 l-30 60 -187 0
-186 0 7 46 c3 26 6 62 6 80 l0 34 194 0 c188 0 199 1 343 35 81 20 165 40
186 46 l38 10 -3 62 -3 62 -180 47 c-132 35 -199 47 -252 48 -52 0 -99 8 -166
30 -88 28 -104 30 -254 30 l-159 0 -29 -30 c-26 -28 -34 -30 -97 -30 l-68 0 0
713 0 712 -80 45 c-79 44 -81 46 -105 110 -14 36 -85 227 -158 425 l-134 360
-175 120 -175 120 -406 635 -407 635 0 795 0 796 -240 407 -240 408 0 742 -1
742 -216 230 -217 230 145 5 c120 4 149 8 177 25 l32 19 0 101 0 100 -36 23
c-33 22 -50 24 -220 29 l-184 6 0 129 0 128 140 0 140 0 0 143 -1 142 -136
108 -136 107 -223 0 -224 0 0 85 0 85 -150 0 -150 0 0 125 c0 117 -1 125 -19
125 -43 0 -51 10 -51 66 l0 54 35 0 c33 0 35 2 35 35 l0 35 140 0 140 0 0 65
0 65 63 0 c97 0 97 0 97 218 l0 182 -200 0 -200 0 0 75 0 75 120 0 120 0 0 68
-1 67 -98 155 -98 155 -82 3 -81 3 0 89 0 90 -285 0 -285 0 0 245 0 245 -155
0 -155 0 0 211 0 212 -200 -5 -200 -5 0 195 0 195 -47 76 c-26 42 -51 78 -56
80 -4 1 -5 44 -1 95 l6 92 -98 92 c-88 82 -103 92 -136 92 -34 0 -38 3 -38 25
0 20 5 25 25 25 24 0 25 2 25 65 l0 65 -65 0 c-58 0 -65 2 -65 20 0 17 7 20
40 20 50 0 51 13 8 86 l-33 54 -117 0 c-72 0 -118 4 -118 10 0 6 -47 10 -120
10 -113 0 -120 1 -120 20 0 14 -11 22 -42 30 -24 6 -59 16 -78 21 -42 11 -220
18 -347 12z m2717 -20004 c0 -5 -18 -9 -40 -9 -26 0 -40 5 -40 13 0 9 12 11
40 9 22 -2 40 -8 40 -13z m-190 -294 l0 -165 -70 0 -70 0 0 -120 0 -120 -90 0
-90 0 0 50 0 50 -80 0 -80 0 0 155 0 155 80 0 80 0 0 -135 0 -135 60 0 60 0 0
80 0 80 45 0 45 0 0 135 0 135 55 0 55 0 0 -165z m730 50 l0 -75 30 0 c30 0
30 -1 30 -55 l0 -55 55 0 55 0 0 -115 0 -116 -142 3 -143 3 -3 43 c-2 28 -8
42 -18 42 -11 0 -14 21 -14 110 0 103 1 110 20 110 11 0 20 5 20 10 0 6 20 10
45 10 l45 0 0 80 c0 47 4 80 10 80 6 0 10 -32 10 -75z"/>
</g>
</svg>
