<?xml version="1.0" standalone="no"?>
<!DOCTYPE svg PUBLIC "-//W3C//DTD SVG 20010904//EN"
 "http://www.w3.org/TR/2001/REC-SVG-20010904/DTD/svg10.dtd">
<svg version="1.0" xmlns="http://www.w3.org/2000/svg"
   viewBox="0 0 4489.000000 1897.000000"
 preserveAspectRatio="xMidYMid meet">
<metadata>
Created by potrace 1.16, written by Peter Selinger 2001-2019
</metadata>
<g transform="translate(0.000000,1897.000000) scale(0.100000,-0.100000)"
fill="#000000" stroke="none">
<path d="M30736 18639 c41 -183 72 -335 69 -337 -2 -2 -235 14 -517 37 l-513
41 -580 1 c-521 0 -903 -10 -3770 -101 -3168 -100 -4462 -136 -4474 -124 -3 3
-10 78 -16 167 l-10 162 -110 22 c-90 17 -115 19 -145 9 l-35 -11 0 -183 0
-182 -170 0 c-93 0 -200 -3 -236 -6 l-67 -7 -7 44 c-9 53 -17 65 -68 90 -36
19 -51 20 -174 13 l-134 -7 34 -24 c27 -19 36 -34 41 -65 4 -22 4 -43 1 -47
-3 -3 -423 -15 -933 -26 l-927 -21 -155 -88 c-85 -48 -171 -103 -190 -122
l-36 -34 -4155 0 -4155 0 -75 -25 c-205 -67 -316 -140 -529 -350 l-155 -153
-2647 -69 c-2096 -55 -2650 -72 -2662 -82 -13 -11 -275 -21 -1207 -47 -1131
-32 -1193 -35 -1236 -54 -25 -11 -52 -20 -59 -20 -32 0 -119 -94 -157 -169
-47 -96 -95 -211 -116 -279 l-16 -53 -222 -96 c-200 -86 -222 -98 -218 -117
26 -114 243 -1564 271 -1811 19 -176 59 -475 89 -665 29 -190 63 -424 74 -520
12 -96 26 -210 32 -253 l12 -78 433 -369 434 -370 323 -1 c177 -1 373 -4 436
-8 l115 -6 105 -233 106 -234 140 -89 140 -89 960 0 960 0 72 -133 71 -132
606 -3 606 -2 52 -165 52 -165 1396 0 1397 0 56 -102 c31 -57 92 -161 135
-233 l78 -130 110 -3 110 -3 35 -59 34 -60 166 0 166 0 560 -857 c308 -472
563 -863 567 -870 4 -7 -18 -30 -54 -58 -54 -42 -60 -50 -60 -83 0 -30 8 -45
52 -89 l52 -53 -35 0 -35 0 -12 -102 c-7 -57 -12 -114 -11 -128 0 -32 211
-216 556 -484 l248 -192 380 -157 381 -157 578 -160 578 -160 212 -105 211
-104 380 -291 c209 -160 392 -297 406 -305 15 -8 190 -77 390 -155 l364 -140
200 -35 c225 -39 488 -65 5450 -530 l2940 -276 435 -162 c292 -109 451 -173
485 -196 134 -92 239 -177 266 -213 40 -56 40 -119 0 -174 -28 -39 -35 -42
-412 -178 -211 -76 -408 -148 -437 -158 -49 -18 -53 -22 -48 -46 70 -349 221
-1188 271 -1506 36 -231 68 -423 70 -426 2 -4 18 -101 35 -216 17 -115 33
-216 36 -224 2 -8 173 -133 379 -277 l374 -263 155 0 c181 0 166 13 141 -129
-8 -47 -13 -86 -11 -88 3 -4 354 -20 796 -38 74 -3 1792 -145 3817 -316 l3682
-312 238 87 c131 48 250 95 264 104 14 9 639 518 1389 1131 l1363 1115 183 26
183 27 133 128 c73 70 843 805 1711 1634 l1577 1506 -35 20 c-19 11 -35 27
-35 35 0 13 227 1241 233 1262 1 4 64 -20 139 -52 153 -66 303 -100 439 -100
l77 0 421 679 c232 374 428 684 436 691 7 6 57 26 111 44 90 29 101 36 115 67
9 19 292 678 629 1464 337 787 617 1436 624 1442 6 7 54 39 105 70 l94 58 29
79 c42 115 208 787 289 1169 l69 328 -6 302 -5 302 -66 195 -66 195 -91 94
c-95 97 -209 183 -361 271 -188 109 -1291 624 -2080 970 -713 313 -1322 559
-2785 1122 -878 339 -1178 449 -1710 630 l-645 220 -835 204 -835 205 -845
154 -845 154 -805 81 c-443 45 -962 94 -1154 110 -191 16 -351 32 -355 35 -3
4 -103 160 -222 348 -247 392 -198 349 -405 362 l-111 7 73 -333z m-1491
-4030 l420 -31 400 -129 c220 -71 411 -134 425 -140 14 -6 313 -184 665 -397
l640 -386 555 -420 555 -421 291 -285 291 -285 -104 -3 -104 -3 -43 36 -43 35
-982 0 -981 0 0 33 c-1 29 -16 44 -185 182 l-185 150 0 91 0 90 -158 248 -157
248 -315 229 -315 229 -1420 -2 -1419 -3 -166 -205 -167 -205 -224 -3 -224 -2
-163 205 -162 205 -109 0 -108 0 -139 155 c-76 85 -146 157 -154 159 -8 3 -98
23 -199 46 l-184 42 -731 -10 c-728 -10 -731 -10 -822 -35 -62 -16 -110 -37
-150 -64 -109 -74 -83 -78 -283 46 l-179 111 -196 0 -196 0 0 30 c0 16 19 65
42 108 l42 78 133 68 132 68 2818 83 c1550 45 2890 83 2978 84 95 1 330 -11
580 -30z m-4615 -1211 l0 -108 -375 0 -375 0 0 111 0 111 375 -3 375 -4 0
-107z m9004 -4123 l43 -35 122 0 c74 0 121 -4 121 -10 0 -7 -453 -10 -1339
-10 -1062 0 -1340 -3 -1344 -12 -3 -7 -6 -3 -6 10 l-1 22 983 0 982 0 40 35
40 34 158 1 159 0 42 -35z m-2614 -305 c-83 -88 -119 -120 -136 -120 -13 0
-24 6 -24 13 1 10 257 227 268 227 3 0 -46 -54 -108 -120z"/>
</g>
</svg>
