<?xml version="1.0" standalone="no"?>
<!DOCTYPE svg PUBLIC "-//W3C//DTD SVG 20010904//EN"
 "http://www.w3.org/TR/2001/REC-SVG-20010904/DTD/svg10.dtd">
<svg version="1.0" xmlns="http://www.w3.org/2000/svg"
   viewBox="0 0 3270.000000 1491.000000"
 preserveAspectRatio="xMidYMid meet">
<metadata>
Created by potrace 1.16, written by Peter Selinger 2001-2019
</metadata>
<g transform="translate(0.000000,1491.000000) scale(0.100000,-0.100000)"
fill="#000000" stroke="none">
<path d="M15550 14325 l0 -585 -165 0 -165 0 0 -45 0 -45 -152 0 c-84 1 -1568
-9 -3298 -21 l-3145 -21 -475 -100 c-261 -55 -482 -105 -490 -112 -8 -6 -58
-51 -111 -99 l-97 -89 -36 -101 c-47 -132 -49 -211 -8 -243 57 -43 188 -54
679 -54 250 0 563 -7 708 -15 l260 -14 334 -76 c184 -42 339 -79 345 -82 6 -4
41 -28 77 -55 37 -26 74 -48 83 -48 11 0 16 -9 16 -29 l0 -29 -127 -6 c-71 -4
-1545 -49 -3278 -101 l-3150 -95 -885 -81 -885 -81 -725 -109 -725 -110 -67
-45 -68 -44 0 -188 c0 -104 3 -311 7 -461 l6 -271 48 -29 c47 -29 49 -30 750
-105 590 -63 761 -78 1054 -91 l350 -15 1528 -318 c840 -174 1520 -319 1510
-321 -10 -2 -182 -24 -382 -50 l-365 -46 -18 -70 c-10 -38 -18 -80 -18 -93 0
-13 23 -57 51 -99 58 -86 226 -426 329 -668 103 -242 181 -497 249 -820 64
-303 79 -412 141 -1020 22 -220 70 -618 105 -885 35 -267 78 -633 94 -815 17
-181 33 -359 37 -395 3 -36 15 -108 25 -160 11 -52 44 -243 74 -425 31 -181
58 -341 61 -355 3 -19 18 -31 59 -49 34 -15 55 -30 55 -40 0 -9 7 -90 15 -181
l15 -165 48 -42 c26 -23 56 -47 67 -53 15 -8 292 13 1159 90 l1139 100 1848 0
1849 0 0 -410 0 -410 1470 0 1470 0 0 -60 c0 -43 25 -159 90 -411 50 -192 90
-352 90 -354 0 -3 1430 -5 3179 -5 l3179 0 265 349 c146 191 272 361 280 377
8 16 326 765 707 1664 381 899 700 1640 708 1646 9 6 30 19 48 29 l32 17 158
-76 157 -76 274 0 c180 0 281 4 295 11 11 6 18 7 16 2 -3 -4 -108 -192 -233
-417 l-228 -408 -87 -402 -87 -401 -178 -440 -178 -440 12 -725 c6 -399 11
-775 11 -836 l0 -111 -321 -454 -321 -454 6 -78 7 -77 -55 -53 -54 -52 -26
-264 c-14 -145 -24 -266 -22 -269 3 -2 116 -39 253 -82 198 -61 253 -75 274
-68 16 6 306 329 783 876 l756 867 575 847 c315 466 581 860 589 876 8 16 102
227 207 468 l192 439 -11 465 -11 465 45 774 c24 426 41 777 36 780 -5 3 -1
50 7 104 l16 97 172 0 173 0 0 -44 c0 -43 1 -44 38 -50 l38 -6 38 -342 c20
-189 40 -358 43 -375 l5 -33 193 0 c176 0 194 2 199 18 2 9 16 112 31 227 15
116 30 218 34 229 5 14 29 -15 110 -138 l104 -156 341 0 342 0 27 -55 c15 -31
27 -57 27 -59 0 -2 -19 -7 -42 -11 -73 -11 -78 -14 -78 -46 0 -24 4 -29 18
-25 9 3 40 8 67 12 28 4 82 23 120 42 l70 36 910 12 c501 7 1046 13 1213 13
l302 1 0 34 c0 34 0 35 -55 40 -176 19 -160 20 -173 -10 l-13 -26 -207 6
c-114 4 -578 13 -1032 22 -454 9 -827 17 -829 19 -2 2 11 30 29 61 30 55 31
58 14 71 -29 21 -39 16 -68 -44 l-27 -56 -70 69 -69 68 0 77 0 76 118 -18 c64
-10 120 -15 123 -11 3 4 63 81 134 172 70 91 136 172 145 180 10 9 66 24 134
34 l118 19 31 49 32 49 50 -4 50 -5 183 283 c139 215 182 289 182 314 0 24
123 413 136 430 2 1 225 -22 496 -53 271 -31 509 -56 529 -56 35 0 44 8 195
181 l159 180 253 -3 253 -3 -5 22 c-3 11 -9 29 -13 39 -6 16 7 17 218 11 123
-4 380 -10 572 -14 l347 -6 0 45 0 45 -72 31 -73 30 -630 22 c-346 12 -631 22
-632 24 -1 1 23 32 55 67 99 112 102 124 125 500 11 179 17 333 14 342 -3 9
-401 214 -897 462 l-891 446 -224 26 -225 27 -2 575 -3 575 -1040 342 c-643
211 -1210 405 -1485 506 l-445 165 -360 58 -360 58 -115 86 c-63 46 -342 231
-620 411 l-505 326 -775 303 -775 302 -1480 245 -1480 245 -1810 64 c-1096 39
-1935 65 -2127 65 l-318 0 0 -585z"/>
</g>
</svg>
