<?xml version="1.0" standalone="no"?>
<!DOCTYPE svg PUBLIC "-//W3C//DTD SVG 20010904//EN"
 "http://www.w3.org/TR/2001/REC-SVG-20010904/DTD/svg10.dtd">
<svg version="1.0" xmlns="http://www.w3.org/2000/svg"
   viewBox="0 0 4771.000000 2593.000000"
 preserveAspectRatio="xMidYMid meet">
<metadata>
Created by potrace 1.16, written by Peter Selinger 2001-2019
</metadata>
<g transform="translate(0.000000,2593.000000) scale(0.100000,-0.100000)"
fill="#000000" stroke="none">
<path d="M15553 25865 l-58 -65 -1109 0 -1108 0 -710 -506 c-391 -279 -725
-511 -742 -515 -29 -8 -2203 -279 -2239 -279 -8 0 -89 -70 -179 -155 l-163
-154 -2127 -1 c-2118 0 -2127 0 -2133 -20 -7 -22 -27 -20 -92 7 -25 10 -125
13 -456 13 -407 0 -424 -1 -433 -19 -9 -19 -10 -19 -69 0 -55 17 -96 19 -478
19 -410 0 -419 0 -424 -20 -6 -21 -19 -21 -97 7 -30 10 -126 13 -420 13 l-382
0 -27 -82 c-14 -46 -36 -143 -49 -215 l-22 -133 -342 0 -341 0 -7 -62 c-3 -35
-25 -217 -48 -405 l-41 -343 -266 0 -266 0 -168 -168 -167 -167 -1 -725 0
-725 -193 -515 -193 -515 194 -3 193 -2 0 -1008 0 -1007 168 -168 167 -167
266 0 267 0 48 -110 49 -110 341 0 342 0 6 -35 7 -35 1121 0 1121 0 536 -125
c467 -110 547 -131 624 -167 l87 -42 0 -538 0 -538 1118 0 1118 0 262 -1138
262 -1137 0 -231 0 -231 1853 -6 c1018 -4 2178 -7 2577 -7 l725 0 71 -48 c39
-26 166 -137 283 -247 l213 -200 -6 -175 c-4 -96 -9 -249 -13 -340 l-6 -165
-386 -179 c-435 -202 -1016 -454 -1319 -572 l-203 -79 -133 -205 -133 -205 12
-310 12 -310 82 -260 c46 -143 86 -266 90 -272 4 -7 137 -150 296 -317 l290
-305 514 -292 513 -292 446 -18 c370 -15 447 -16 456 -5 9 11 78 11 406 -1
217 -8 398 -17 401 -21 3 -4 345 -441 759 -972 413 -531 766 -978 784 -995 22
-22 219 -111 694 -315 l664 -285 36 40 c20 22 70 76 111 121 l76 80 3179
-2939 3178 -2939 22 21 22 20 121 -112 122 -111 -20 -22 -20 -22 58 -42 58
-42 57 62 58 62 -42 52 c-23 28 -43 53 -45 55 -2 3 -13 -5 -26 -16 l-22 -21
-120 113 c-118 111 -120 113 -102 133 18 20 -31 66 -3157 2957 -1747 1615
-3176 2940 -3176 2944 0 4 11 18 24 30 l24 23 -271 353 -271 353 -59 -51 c-33
-29 -72 -62 -87 -75 l-29 -22 -846 782 -846 783 2143 5 2142 5 204 275 c152
206 411 557 447 608 1 1 94 13 206 26 l204 24 4615 -1183 c2538 -651 4687
-1200 4775 -1220 365 -84 1615 -383 2090 -498 646 -158 951 -219 1236 -247
206 -20 223 -20 364 -6 81 9 148 16 150 16 1 0 22 44 48 98 61 129 193 562
214 704 l15 107 -98 106 c-55 58 -184 178 -289 267 -449 380 -807 746 -1175
1201 l-105 130 -435 236 c-239 131 -564 309 -722 397 l-287 161 -218 -34 -217
-35 -1442 574 c-793 315 -1437 576 -1431 579 7 4 41 9 77 13 269 28 2956 358
2961 364 11 13 128 773 135 878 l7 102 -149 6 c-82 4 -471 20 -864 36 -393 17
-985 41 -1315 55 -330 14 -1455 73 -2500 130 -1045 58 -2090 115 -2322 128
-233 13 -425 26 -428 28 -2 3 -48 230 -101 505 l-96 499 -27 585 -27 585 119
489 119 489 245 346 c135 190 247 348 249 350 2 2 200 -57 439 -132 239 -76
445 -137 458 -137 25 0 57 44 57 78 0 15 9 21 34 26 20 4 41 16 50 31 10 15
27 97 43 208 l27 183 424 55 c326 41 426 57 432 69 4 8 92 294 194 634 103
341 189 622 191 625 3 2 1021 -5 2263 -18 1241 -12 2786 -25 3432 -28 l1175
-5 434 711 c239 392 439 718 445 726 10 12 151 11 1041 -11 l1030 -24 2760
-145 c2450 -129 2903 -155 4030 -235 699 -49 1287 -92 1308 -94 l37 -4 336
395 c311 365 338 395 363 390 25 -5 28 -2 49 58 20 54 51 96 217 292 l193 228
646 215 646 215 14 40 c82 229 176 514 176 535 l0 26 -507 103 c-280 56 -1342
273 -2361 482 l-1852 380 -4968 866 c-2732 476 -5311 926 -5732 999 -421 74
-1757 292 -2970 484 l-2205 350 -1415 149 -1415 149 -1249 63 c-1151 57 -1251
63 -1265 80 -16 18 -52 22 -461 44 -69 4 -362 47 -726 106 -607 98 -613 99
-786 99 l-174 0 -56 69 -56 69 -154 6 c-84 4 -490 18 -903 31 -1093 36 -2164
73 -2449 85 -136 5 -281 10 -322 10 l-73 0 -58 -65z m-3653 -9050 l0 -75 -757
1 c-485 0 -751 4 -738 10 11 5 85 38 165 74 l145 64 593 0 592 1 0 -75z m2380
0 l0 -75 -980 0 -980 0 0 75 0 75 980 0 980 0 0 -75z m11355 -227 c-3 -18 -14
-89 -24 -158 -16 -109 -17 -129 -5 -152 18 -34 18 -72 2 -66 -7 3 -184 58
-394 123 -338 105 -381 121 -376 138 2 10 10 16 17 13 78 -29 533 -166 555
-166 49 0 77 49 95 168 8 56 15 106 15 111 0 11 29 18 83 20 37 1 38 1 32 -31z
m-8771 -8921 c504 -467 916 -852 914 -856 -2 -5 -56 -54 -121 -111 l-118 -103
-208 89 -208 89 -474 565 c-261 311 -590 703 -732 873 l-258 308 144 -3 144
-3 917 -848z"/>
</g>
</svg>
