<?xml version="1.0" standalone="no"?>
<!DOCTYPE svg PUBLIC "-//W3C//DTD SVG 20010904//EN"
 "http://www.w3.org/TR/2001/REC-SVG-20010904/DTD/svg10.dtd">
<svg version="1.0" xmlns="http://www.w3.org/2000/svg"
   viewBox="0 0 4776.000000 1200.000000"
 preserveAspectRatio="xMidYMid meet">
<metadata>
Created by potrace 1.16, written by Peter Selinger 2001-2019
</metadata>
<g transform="translate(0.000000,1200.000000) scale(0.100000,-0.100000)"
fill="#000000" stroke="none">
<path d="M963 11903 c-73 -96 -73 -96 -73 -159 l0 -64 -90 -67 -90 -68 1 -610
0 -610 90 -68 89 -68 0 -72 0 -73 128 -156 c114 -141 134 -160 197 -195 60
-33 70 -42 67 -63 -1 -14 -43 -216 -94 -448 l-92 -424 -27 6 c-21 4 -29 1 -33
-12 -3 -9 -44 -156 -91 -326 l-86 -309 -128 -186 c-211 -305 -369 -549 -375
-579 -3 -15 -26 -163 -51 -329 l-45 -301 45 -231 45 -230 171 -343 172 -343
359 -275 c198 -151 370 -277 381 -280 19 -5 22 -14 25 -72 l3 -67 -33 -5 c-18
-3 -204 -10 -413 -16 l-380 -12 -235 -88 c-129 -49 -272 -103 -317 -120 l-83
-32 0 -936 1 -937 317 -143 317 -143 695 -64 695 -65 766 0 765 0 244 110
c134 60 255 120 269 133 162 147 626 571 627 571 1 1 6 50 12 109 6 60 13 111
16 114 3 3 193 58 423 123 l418 117 286 221 c158 122 291 228 297 234 5 7 53
95 106 196 l97 183 93 412 93 412 71 55 c61 46 72 60 72 85 0 17 7 122 15 235
8 113 15 313 15 446 l0 241 170 229 170 229 0 551 0 550 -170 240 -170 239 0
108 0 107 -120 0 -120 0 0 123 c-1 67 -5 534 -10 1037 l-8 915 -41 153 -41
153 -119 137 -118 137 -214 97 -214 98 -117 6 -118 7 -116 139 c-64 76 -124
143 -133 148 -10 5 -105 43 -213 84 l-195 76 -510 0 -510 0 -7 31 c-3 17 -6
44 -6 60 l0 29 -1372 0 -1373 0 -72 -97z"/>
<path d="M25635 11674 c-1270 -6 -2459 -12 -2642 -13 l-332 -1 -116 -167 -116
-168 6 -435 c3 -239 12 -901 20 -1470 8 -569 15 -1102 15 -1185 l-1 -150 -105
-99 -105 -98 -107 106 c-60 58 -113 106 -120 106 -9 0 -13 270 -14 1157 l-3
1156 -260 113 -260 113 -4580 1 -4580 0 -169 -112 -168 -113 5 -1155 5 -1155
-139 -108 -139 -109 -130 107 -130 107 0 1179 0 1178 -151 90 -150 91 -1901 0
-1901 0 -148 -91 -149 -91 0 -2346 0 -2347 151 -89 151 -89 235 -18 236 -18
71 -70 71 -71 1287 0 1286 0 66 70 66 71 240 18 241 18 147 90 147 90 3 334 3
334 116 95 c64 52 124 99 133 104 14 6 45 -14 141 -89 68 -54 130 -100 136
-102 10 -4 13 -203 13 -957 l0 -951 154 -121 154 -122 288 -53 288 -54 105
-61 106 -61 265 -52 265 -51 1805 -29 1805 -30 145 76 c80 42 184 103 232 136
l86 60 1889 52 1888 52 265 125 265 124 3 957 c2 756 5 957 15 957 6 0 60 45
119 101 79 74 112 98 122 92 9 -5 62 -54 119 -110 l103 -102 18 -1383 17
-1383 46 -175 c25 -96 47 -177 48 -178 2 -2 202 -19 444 -37 l440 -32 161
-139 160 -138 138 3 c75 2 799 22 1607 45 l1470 42 118 91 c137 106 66 92 607
123 195 12 361 24 367 28 7 4 46 61 86 127 l74 121 7 1479 6 1480 78 72 c42
40 80 72 83 73 3 0 47 -39 97 -87 l91 -88 17 -1395 16 -1395 45 -185 c25 -102
49 -188 52 -192 3 -3 204 -21 445 -38 l439 -32 160 -139 c110 -96 168 -139
184 -139 165 0 3189 92 3198 98 6 4 63 46 126 93 l114 86 370 22 c204 12 396
24 427 28 l56 5 76 124 75 124 7 1455 7 1456 109 100 108 101 37 -32 c21 -18
72 -66 114 -106 l76 -74 6 -297 c6 -298 6 -298 39 -428 l34 -130 342 -26 341
-25 108 -100 c59 -54 115 -105 124 -112 13 -9 246 -5 1140 23 618 19 1153 35
1189 35 l66 0 92 76 92 75 340 22 340 21 60 105 60 104 0 474 0 473 73 -77
c192 -206 175 -192 244 -199 l62 -7 3 -86 3 -86 31 -3 c27 -3 33 -9 44 -45 7
-23 41 -105 76 -182 l63 -140 188 -3 189 -2 114 -317 115 -316 216 -314 217
-315 148 -135 c82 -74 157 -143 168 -153 17 -17 15 -19 -67 -46 l-86 -29 -260
-239 -260 -239 -40 -121 c-22 -67 -47 -149 -56 -182 -8 -34 -51 -180 -95 -325
-77 -252 -80 -266 -80 -361 l0 -98 79 -158 c58 -115 98 -214 148 -366 l68
-209 300 -286 300 -287 601 -406 600 -406 440 -161 c241 -88 545 -201 674
-252 l235 -91 1555 -38 c855 -22 1573 -39 1595 -39 36 -1 64 16 283 171 l243
172 147 175 c81 97 152 183 159 191 7 9 17 81 23 163 l11 147 -78 101 c-71 91
-86 104 -160 145 -78 43 -91 55 -210 199 l-128 152 -199 89 c-109 49 -200 94
-203 100 -2 6 28 191 67 410 l72 399 -6 590 -7 590 -150 545 -151 545 -164
350 c-184 391 -144 332 -382 557 l-102 98 14 271 15 271 -34 267 c-34 263 -35
268 -104 476 -50 152 -106 291 -203 505 -133 292 -136 297 -264 473 l-129 178
-340 247 -340 246 -210 80 c-200 76 -217 80 -350 95 l-140 16 -3 396 -2 395
-80 43 c-82 43 -86 44 -177 25 -13 -2 -38 -18 -57 -34 l-34 -30 -34 47 c-31
44 -41 50 -102 65 -64 17 -71 17 -214 -3 -142 -21 -153 -24 -301 -92 -132 -59
-173 -84 -283 -169 l-129 -100 -472 -9 c-260 -4 -534 -8 -609 -9 l-138 0 0 54
0 54 -142 6 c-79 3 -326 8 -549 11 l-405 5 -155 -69 -154 -70 -3 -310 -2 -311
-145 0 -145 0 0 -382 -1 -383 -119 -125 -119 -125 0 410 c0 226 4 642 9 925 4
283 6 696 3 917 l-6 402 -95 111 -95 112 -76 -6 c-42 -3 -963 -8 -2046 -12
l-1971 -7 -88 -136 -88 -136 7 -360 c3 -198 12 -736 20 -1196 l15 -837 -96
-93 c-52 -52 -98 -95 -102 -97 -4 -1 -54 45 -111 102 l-104 104 13 1278 c7
728 10 1441 5 1656 l-7 376 -146 138 -146 137 -906 -6 c-498 -4 -1683 -9
-2635 -12 -951 -3 -1754 -8 -1783 -11 l-52 -5 -115 -167 -115 -167 6 -330 c3
-181 14 -915 24 -1630 l17 -1300 -83 -85 -84 -85 -76 75 -76 75 8 1045 c5 575
8 1333 6 1685 l-3 640 -147 142 c-146 141 -147 142 -192 141 -25 -1 -1084 -7
-2355 -14z"/>
</g>
</svg>
