<?xml version="1.0" standalone="no"?>
<!DOCTYPE svg PUBLIC "-//W3C//DTD SVG 20010904//EN"
 "http://www.w3.org/TR/2001/REC-SVG-20010904/DTD/svg10.dtd">
<svg version="1.0" xmlns="http://www.w3.org/2000/svg"
   viewBox="0 0 4706.000000 2718.000000"
 preserveAspectRatio="xMidYMid meet">
<metadata>
Created by potrace 1.16, written by Peter Selinger 2001-2019
</metadata>
<g transform="translate(0.000000,2718.000000) scale(0.100000,-0.100000)"
fill="#000000" stroke="none">
<path d="M1158 27173 l-208 -3 0 -100 c0 -100 0 -100 -25 -100 l-25 0 0 -215
0 -215 25 0 25 0 0 -165 c0 -158 1 -165 20 -165 19 0 20 -7 20 -93 0 -81 3
-96 20 -112 19 -17 19 -18 -25 -69 -40 -45 -45 -56 -45 -100 0 -43 5 -56 40
-97 l39 -47 -39 -45 c-36 -40 -40 -51 -40 -97 0 -46 4 -57 40 -97 l39 -45 -39
-47 c-35 -41 -40 -54 -40 -97 0 -43 5 -55 41 -96 39 -46 42 -48 95 -48 l54 0
0 -4571 0 -4572 -92 7 c-50 3 -149 6 -220 6 -107 0 -128 2 -128 15 0 10 -11
15 -35 15 -24 0 -35 -5 -35 -15 0 -11 -12 -15 -45 -15 -33 0 -45 4 -45 15 0
10 -11 15 -35 15 -24 0 -35 -5 -35 -15 0 -12 -13 -15 -55 -15 -42 0 -55 3 -55
15 0 10 -11 15 -35 15 l-35 0 0 -555 c0 -487 2 -555 15 -555 13 0 15 -23 15
-144 l0 -144 -155 -92 -155 -92 2 -871 3 -871 152 -91 152 -90 1 -152 c0 -130
-2 -153 -15 -153 -13 0 -15 -68 -15 -555 l0 -555 35 0 c24 0 35 5 35 15 0 12
13 15 55 15 42 0 55 -3 55 -15 0 -10 11 -15 35 -15 24 0 35 5 35 15 0 11 12
15 45 15 33 0 45 -4 45 -15 0 -10 11 -15 35 -15 24 0 35 5 35 15 0 13 25 15
168 15 92 0 191 3 220 6 l52 7 0 -4172 0 -4171 -45 0 -45 0 0 -288 0 -287
-100 -115 -99 -115 0 -120 0 -120 98 -111 99 -111 -99 -116 -99 -115 0 -116 0
-116 100 -115 c96 -110 100 -116 100 -161 0 -31 -14 -84 -42 -156 -42 -107
-42 -108 -75 -108 -33 0 -33 0 -33 48 l-1 47 -105 63 -106 62 -99 0 -99 0 0
-375 0 -375 96 0 96 0 109 66 109 65 0 45 c0 43 1 44 34 44 33 0 34 -1 69 -93
l35 -92 720 -3 719 -2 51 59 52 59 0 234 0 234 -50 49 -50 49 0 68 0 68 109 0
109 0 61 108 61 109 0 120 0 120 -63 111 -62 111 -90 4 -90 3 92 2 91 2 61
108 61 109 0 120 0 120 -62 111 -63 112 -67 0 -68 0 0 33 c0 17 7 145 15 282
8 138 15 253 15 258 0 4 -54 7 -120 7 -89 0 -120 3 -120 13 0 12 77 949 461
5659 l224 2738 105 1 c58 0 141 5 185 10 44 5 104 12 133 15 l52 6 0 274 0
274 134 0 c126 0 137 2 202 30 53 23 135 41 345 78 276 49 277 49 357 96 45
25 84 46 87 46 3 0 5 -22 5 -50 l0 -50 215 0 c208 0 215 -1 215 -20 0 -13 9
-22 28 -26 15 -3 98 -24 184 -45 160 -40 153 -39 3489 -534 l1175 -175 717 0
717 0 0 -78 0 -77 133 -133 132 -132 4365 0 4365 0 138 138 137 137 0 73 0 72
459 0 c474 0 530 2 2611 100 349 16 930 43 1290 60 2278 105 2370 110 2411
130 37 19 66 20 1059 20 l1020 0 0 365 0 365 103 0 103 0 11 30 11 30 380 0
380 0 12 -30 c12 -29 15 -30 76 -30 62 0 64 -1 64 -25 0 -25 1 -25 85 -25 79
0 85 -2 85 -20 0 -12 67 -100 155 -204 115 -137 162 -186 182 -190 16 -3 501
-84 1078 -181 578 -97 1057 -179 1065 -184 8 -4 26 -27 39 -51 l24 -43 302 6
303 7 255 -98 c222 -86 257 -97 273 -85 15 11 215 13 1100 13 711 0 1085 -3
1089 -10 12 -19 45 -9 277 81 l233 91 316 -2 316 -1 27 45 c23 40 31 46 60 46
22 0 40 9 59 28 l27 28 0 182 0 182 67 0 66 0 88 80 87 80 361 0 361 0 0 -233
c0 -232 0 -234 23 -255 l24 -22 349 40 c192 22 350 40 351 40 2 0 3 29 3 65 0
59 2 65 23 69 31 7 186 26 209 26 17 0 18 -112 18 -3652 l0 -3653 49 -165 48
-165 142 -3 141 -3 0 -34 0 -35 618 0 617 1 164 87 165 87 33 100 33 99 0
2297 c0 2212 -1 2297 -18 2312 -10 10 -26 17 -35 17 -16 0 -17 104 -17 1480
l0 1480 29 0 c16 0 42 3 58 6 l30 6 6 -63 c4 -34 9 -65 12 -67 2 -3 467 30
1032 71 l1028 77 715 155 c445 97 783 176 896 210 l182 54 166 133 165 133 0
441 1 441 128 6 c70 4 247 12 395 19 206 9 267 15 267 25 0 10 -39 13 -184 13
-102 0 -187 4 -190 9 -3 4 -81 11 -173 15 -92 3 -185 9 -205 12 l-38 6 -1 442
0 441 -156 125 c-86 69 -166 130 -177 136 -12 6 -102 35 -201 64 -99 29 -258
79 -353 111 -96 33 -175 59 -177 59 -2 0 -11 -7 -20 -17 -16 -15 -52 -8 -532
96 l-516 111 -1024 76 c-563 42 -1026 74 -1028 72 -3 -3 -8 -33 -12 -67 l-6
-63 -30 6 c-16 3 -42 6 -58 6 l-29 0 0 1480 c0 1403 1 1480 18 1480 9 0 25 7
35 14 16 13 17 134 17 2306 l0 2292 -32 104 -32 105 -170 89 -171 90 -612 0
-613 0 0 -35 0 -35 -139 0 -139 0 -11 -32 c-6 -18 -28 -96 -51 -172 l-40 -139
0 -3649 0 -3648 -32 1 c-18 0 -73 6 -123 12 l-90 12 -3 68 c-2 37 -6 67 -10
67 -4 0 -160 18 -347 40 -332 38 -341 39 -365 21 l-25 -18 -3 -237 -2 -236
-163 0 c-89 0 -253 3 -365 7 l-203 6 -79 69 -79 68 -70 0 -71 0 0 187 0 187
-27 28 c-19 19 -37 28 -59 28 -29 0 -37 6 -60 46 l-27 46 -316 -3 -316 -2
-238 92 c-228 89 -240 92 -270 79 -46 -19 -2122 -19 -2182 0 -39 13 -44 11
-288 -83 l-249 -95 -306 0 -307 0 -23 -42 -22 -43 -1033 -174 c-567 -95 -1058
-178 -1090 -183 l-58 -10 -155 -185 c-85 -102 -154 -193 -154 -204 0 -17 -8
-19 -85 -19 -84 0 -85 0 -85 -25 0 -24 -2 -25 -64 -25 -61 0 -64 -1 -76 -30
l-12 -30 -380 0 -380 0 -11 30 -11 30 -103 0 -103 0 0 360 0 360 -94 0 c-77 0
-105 4 -153 24 -32 14 -100 29 -153 36 -139 17 -160 21 -160 34 -1 6 -18 30
-39 54 -38 41 -40 42 -102 42 -93 1 -109 17 -109 109 0 39 3 71 6 71 20 0 44
-24 44 -45 0 -18 5 -25 20 -25 18 0 20 7 20 85 0 77 -2 85 -19 85 -14 0 -21
-8 -23 -27 -3 -24 -9 -29 -45 -37 -40 -8 -43 -11 -43 -41 0 -26 -7 -37 -39
-59 -22 -16 -42 -39 -46 -54 -12 -49 -33 -62 -99 -62 -57 0 -62 -2 -103 -42
-40 -39 -43 -46 -43 -95 l0 -53 -437 1 c-385 0 -441 2 -463 16 -18 12 -239 41
-875 115 -1501 173 -4212 487 -4830 559 -330 38 -1570 184 -2755 323 l-2155
254 -3461 6 -3462 5 -2303 -828 c-1267 -455 -2352 -845 -2411 -866 l-108 -38
0 -118 0 -119 -118 0 -117 0 -204 -125 -204 -125 -113 0 c-95 0 -114 3 -114
15 0 12 -19 15 -115 15 l-115 0 0 30 c0 19 -65 160 -175 380 l-175 350 -50 0
-50 0 0 185 0 185 -54 0 c-30 0 -57 4 -60 9 -3 5 -82 12 -176 16 -163 7 -170
8 -170 28 0 12 -126 1562 -280 3446 -154 1884 -320 3926 -370 4536 -49 611
-92 1136 -96 1168 l-6 57 99 0 100 0 56 193 c55 189 86 355 202 1096 23 142
17 353 -14 476 l-22 90 -77 56 -77 57 -150 21 c-239 33 -775 53 -1247 44z
m-698 -11504 l0 -151 -22 6 c-13 3 -38 6 -55 6 l-33 0 0 145 0 145 55 0 55 0
0 -151z m160 -28 l0 -180 -45 16 -45 15 0 164 0 164 45 0 45 0 0 -179z m150
-25 l0 -205 -37 13 -38 13 -3 191 -2 192 40 0 40 0 0 -204z m3648 -3284 c39
-15 72 -30 72 -34 0 -3 -20 -18 -45 -32 -37 -20 -90 -32 -283 -60 -267 -41
-285 -42 -362 -21 -34 9 -101 15 -177 15 l-123 0 0 85 0 85 340 0 340 0 0 25
0 24 83 -30 c45 -17 115 -43 155 -57z m-3648 -747 l0 -285 -40 0 -40 0 2 272
3 271 35 13 c19 7 36 13 38 13 1 1 2 -127 2 -284z m-150 -25 l0 -260 -45 0
-45 0 0 244 0 244 43 15 c23 9 43 16 45 16 1 1 2 -116 2 -259z m-160 -30 l0
-230 -55 0 -55 0 0 224 0 225 43 4 c23 2 48 4 55 5 9 2 12 -50 12 -228z"/>
<path d="M27877 16428 c-4 -68 -10 -208 -13 -313 -3 -104 -10 -203 -14 -220
-5 -16 -12 -74 -15 -127 l-7 -98 57 0 57 0 -7 248 c-4 136 -11 251 -16 257 -5
5 -9 91 -9 192 0 147 -3 183 -13 183 -11 0 -16 -30 -20 -122z"/>
</g>
</svg>
