<?xml version="1.0" standalone="no"?>
<!DOCTYPE svg PUBLIC "-//W3C//DTD SVG 20010904//EN"
 "http://www.w3.org/TR/2001/REC-SVG-20010904/DTD/svg10.dtd">
<svg version="1.0" xmlns="http://www.w3.org/2000/svg"
   viewBox="0 0 4594.000000 565.000000"
 preserveAspectRatio="xMidYMid meet">
<metadata>
Created by potrace 1.16, written by Peter Selinger 2001-2019
</metadata>
<g transform="translate(0.000000,565.000000) scale(0.100000,-0.100000)"
fill="#000000" stroke="none">
<path d="M5810 5615 c-29 -30 -40 -34 -88 -37 -55 -3 -55 -3 -71 -46 -11 -30
-37 -62 -88 -108 -64 -57 -73 -70 -73 -100 l0 -34 -129 0 c-126 0 -129 0 -145
25 -23 36 -83 36 -92 0 -5 -22 -11 -24 -71 -27 l-65 -3 -18 -47 c-17 -45 -17
-47 4 -67 l20 -21 -121 0 c-67 0 -128 -3 -137 -6 -12 -5 -16 -21 -16 -67 0
-61 1 -62 52 -114 l52 -53 -110 0 -110 0 -81 -144 -81 -145 47 -10 c25 -5 87
-17 136 -27 50 -9 91 -18 93 -19 1 -1 -23 -49 -53 -107 l-56 -104 -1662 -18
-1662 -19 -195 -148 -196 -149 -447 0 -447 0 0 -30 0 -30 298 0 297 0 280
-166 c553 -329 649 -384 666 -384 10 0 35 -10 56 -22 28 -17 33 -24 20 -26 -9
-2 -17 -7 -17 -12 0 -4 254 -223 565 -487 l566 -478 92 -6 c51 -4 186 -10 300
-14 l208 -8 126 -91 127 -91 616 0 616 0 119 93 119 92 1032 0 1033 0 898
-185 897 -185 941 10 c517 5 1024 10 1128 10 l187 0 0 -105 0 -105 -79 0 -78
0 -27 -40 c-36 -55 -69 -55 -117 1 l-35 41 -325 -57 c-178 -31 -336 -59 -351
-62 l-28 -5 0 -278 0 -277 352 -63 351 -64 36 42 c49 56 81 57 117 2 l27 -40
593 0 592 0 7 -33 c22 -109 15 -100 149 -171 l124 -66 921 0 c914 0 921 0 921
-20 0 -19 7 -20 150 -20 l150 0 0 -25 0 -25 398 0 399 0 11 25 12 25 1707 0
1708 0 1579 -141 c1212 -108 1581 -138 1586 -128 5 6 61 157 126 336 l119 323
313 -2 314 -3 106 -223 c86 -182 109 -222 126 -222 11 0 147 -86 302 -190
l282 -190 591 0 c517 0 592 -2 597 -15 5 -13 177 -15 1459 -15 1282 0 1454 2
1459 15 5 13 234 15 1982 15 l1976 0 372 190 373 190 4112 0 4111 0 0 -209 0
-209 118 -6 c64 -3 547 -9 1072 -12 l955 -6 105 40 c105 40 105 40 108 76 l3
36 79 0 78 0 7 -68 7 -68 53 -32 c29 -18 79 -62 110 -100 l57 -67 147 3 147 3
37 64 c33 57 37 72 37 135 l0 70 745 0 745 0 0 28 0 29 291 13 c230 10 292 16
296 27 3 8 4 16 2 18 -2 2 -94 8 -204 14 -401 22 -385 20 -385 47 l0 24 -745
0 -745 0 0 159 c0 154 -1 160 -30 224 -17 37 -30 69 -30 72 0 3 108 5 240 5
229 0 240 1 240 19 0 18 14 19 240 26 132 4 240 11 240 15 0 12 -67 20 -165
20 -176 0 -315 12 -315 27 0 10 -45 13 -235 13 l-235 0 0 170 0 170 -85 0
c-69 0 -85 3 -85 15 0 11 12 15 45 15 l45 0 0 280 0 280 -45 0 c-45 0 -45 0
-45 35 0 28 4 35 20 35 11 0 20 5 20 10 0 6 7 10 15 10 12 0 15 17 15 90 0 73
-3 90 -15 90 -12 0 -15 17 -15 95 0 88 -1 95 -20 95 -11 0 -20 5 -20 10 0 6
20 10 45 10 l45 0 0 310 c0 278 -2 310 -16 310 -11 0 -14 5 -10 16 3 9 6 36 6
60 0 32 4 44 15 44 12 0 15 16 15 85 l0 85 -50 0 -50 0 0 35 c0 32 2 35 30 35
20 0 30 5 30 15 0 12 13 15 60 15 47 0 60 3 60 15 0 13 38 15 280 15 228 0
280 3 280 13 0 15 176 27 383 27 53 0 97 4 97 9 0 16 -30 21 -119 21 -191 0
-361 12 -361 27 0 11 -63 13 -342 15 -189 0 -328 3 -310 5 30 4 32 7 32 44 0
37 -2 39 -30 39 l-30 0 0 170 0 170 -30 0 c-25 0 -30 4 -30 24 0 17 7 26 25
30 21 5 25 12 25 46 0 30 -4 40 -21 45 -15 5 -19 14 -17 33 3 23 8 27 41 30
l37 3 0 100 c0 99 0 99 -25 99 -20 0 -25 5 -25 25 0 14 5 25 10 25 6 0 10 7
10 15 0 9 9 15 24 15 37 0 56 10 56 30 0 13 -11 19 -40 24 -22 3 -40 11 -40
16 0 6 -13 10 -30 10 -20 0 -30 5 -30 15 0 13 -52 15 -409 15 l-408 0 -194
-102 -194 -103 -1257 -3 -1258 -4 0 -29 c0 -26 -3 -29 -35 -29 l-35 0 0 -85
c0 -69 3 -85 15 -85 12 0 15 -14 15 -65 0 -58 2 -65 20 -65 17 0 20 -7 20 -49
l0 -49 148 -103 c81 -56 158 -111 171 -121 23 -17 -19 -18 -1369 -18 l-1394 0
107 75 107 76 0 154 c0 145 1 155 19 155 15 0 20 10 25 60 4 33 11 60 16 60 6
0 10 40 10 90 l0 90 -35 0 c-28 0 -35 4 -35 20 0 20 -7 20 -1417 20 l-1418 0
-77 -70 c-84 -77 -93 -79 -225 -64 -52 7 -53 7 -53 40 l0 34 -310 0 -310 0 0
-40 0 -40 -92 1 c-51 1 -118 4 -148 7 -53 7 -55 8 -58 40 l-3 32 -577 -2 -577
-3 -3 -37 -3 -38 -111 0 -110 0 -130 90 -129 90 -1464 0 -1463 0 -96 -153 -95
-154 -227 -6 c-125 -4 -419 -7 -653 -7 l-426 0 -109 170 -108 170 -1272 0
-1272 0 -34 -35 -34 -35 -993 0 -993 0 0 -24 0 -24 -577 5 -578 6 -85 69 -85
68 -1277 0 c-1129 0 -1278 -2 -1278 -15 0 -12 -18 -15 -105 -15 l-105 0 0 -50
0 -49 58 -4 c31 -2 -474 -4 -1123 -4 l-1180 -1 275 34 c151 18 289 33 305 33
29 1 34 8 103 146 57 115 72 154 72 190 l0 45 -203 0 -204 0 -23 -25 -23 -25
-942 0 -942 0 -99 -76 -99 -76 -3 66 -3 66 -64 0 -65 0 0 -70 c0 -40 -4 -70
-10 -70 -5 0 -10 18 -10 40 l0 40 -140 0 -140 0 0 30 0 30 -65 0 -64 0 -3 -67
-3 -68 -147 -3 -148 -3 0 71 0 70 -65 0 -65 0 0 -70 0 -70 -150 0 -150 0 0 72
0 71 -542 -8 c-299 -4 -1022 -11 -1608 -14 l-1065 -7 1232 -2 c808 -1 1234 -5
1238 -12 4 -6 118 -10 311 -10 l304 0 0 -45 0 -45 -90 0 -90 0 0 40 0 40 -410
0 -410 0 2 -187 3 -187 340 -63 c187 -34 350 -65 363 -68 18 -4 22 -12 22 -45
0 -37 -2 -40 -28 -40 -42 0 -102 -45 -102 -76 0 -17 -7 -28 -20 -31 -16 -4
-20 -14 -20 -49 l0 -44 -265 0 -265 0 0 30 0 30 -485 0 -485 0 0 -30 0 -30
-155 0 -155 0 0 95 0 95 -1095 0 -1095 0 0 -64 0 -63 46 -7 c26 -3 142 -7 258
-8 116 -1 185 -3 154 -5 -51 -4 -58 -7 -58 -25 0 -21 -1 -21 -182 -15 -99 4
-221 7 -270 7 -62 0 -90 4 -93 13 -2 6 -11 38 -20 70 l-16 57 -178 0 -179 0
-24 33 c-13 17 -36 48 -51 68 l-28 37 91 22 c49 12 90 25 90 28 0 3 -24 51
-54 107 l-53 101 166 24 c91 13 176 26 188 29 20 6 17 13 -57 146 l-78 140
-1229 5 c-675 3 -1229 6 -1230 8 0 1 -29 37 -63 80 l-62 77 176 3 176 2 0 90
c0 73 3 90 15 90 11 0 15 11 15 40 0 29 -4 40 -15 40 -19 0 -19 20 0 90 8 30
15 92 15 138 l0 82 -163 0 -163 0 -34 -35z m9130 -1295 c0 -6 -26 -9 -62 -8
-62 1 -63 1 -18 8 69 11 80 11 80 0z m0 -110 c0 -20 7 -20 1905 -20 l1905 0 0
-55 0 -55 -1790 0 -1790 0 0 -175 0 -175 -25 0 -25 0 0 145 0 145 -135 0 -135
0 0 105 0 105 45 0 c38 0 45 -3 45 -20z m-2830 -2300 l0 -110 -250 0 -250 0 0
110 0 110 250 0 250 0 0 -110z m-690 -5 l0 -105 -35 0 -35 0 0 105 0 105 35 0
35 0 0 -105z m30935 -55 c209 -72 399 -137 423 -146 l42 -16 0 -204 0 -204
-25 0 c-25 0 -25 0 -25 -95 0 -57 -4 -95 -10 -95 -5 0 -10 -22 -10 -50 l0 -50
35 0 c31 0 35 -3 35 -25 l0 -25 303 -2 302 -3 -36 -19 c-36 -18 -36 -19 -42
-96 -5 -77 -5 -78 -51 -120 -46 -42 -46 -43 -46 -109 l0 -66 -75 3 c-74 4 -75
4 -75 31 0 26 -7 31 -102 69 l-103 42 -205 9 c-146 8 -283 22 -473 51 -147 22
-278 40 -292 40 l-25 0 0 195 0 195 360 0 360 0 0 240 0 240 -355 0 -355 0 0
170 0 170 33 0 c17 0 203 -59 412 -130z m-28780 -625 c37 -5 928 -85 946 -85
5 0 9 -34 9 -75 l0 -75 -105 0 -105 0 0 -50 0 -50 -925 0 -926 0 -48 25 c-47
23 -61 40 -61 71 0 12 54 14 347 14 l347 0 208 55 c114 30 210 55 213 55 3 0
5 46 5 103 l0 102 28 -42 c23 -36 34 -43 67 -48z m4580 -67 c275 -34 501 -62
503 -64 2 -1 0 -25 -4 -53 l-7 -51 -530 0 -530 0 6 68 c4 37 7 88 7 115 0 45
1 47 28 47 15 0 252 -28 527 -62z"/>
</g>
</svg>
