<?xml version="1.0" standalone="no"?>
<!DOCTYPE svg PUBLIC "-//W3C//DTD SVG 20010904//EN"
 "http://www.w3.org/TR/2001/REC-SVG-20010904/DTD/svg10.dtd">
<svg version="1.0" xmlns="http://www.w3.org/2000/svg"
   viewBox="0 0 2456.000000 3605.000000"
 preserveAspectRatio="xMidYMid meet">
<metadata>
Created by potrace 1.16, written by Peter Selinger 2001-2019
</metadata>
<g transform="translate(0.000000,3605.000000) scale(0.100000,-0.100000)"
fill="#000000" stroke="none">
<path d="M10941 36040 c-7 -87 -141 -3753 -141 -3862 l0 -146 -37 -6 c-21 -3
-150 -20 -288 -37 l-250 -31 -66 -62 c-36 -33 -131 -113 -212 -176 l-146 -115
-1 -146 0 -146 212 -176 212 -177 218 0 218 0 0 -215 0 -215 -105 0 -105 0
-220 -110 c-188 -94 -227 -110 -268 -110 -26 0 -284 -32 -572 -70 l-525 -70
-495 -141 -495 -141 -500 -321 c-469 -301 -513 -331 -717 -501 l-218 -181 0
-217 0 -218 -120 0 c-102 0 -183 -10 -513 -65 -216 -36 -402 -67 -414 -70
l-23 -5 0 -645 0 -645 -517 0 -518 -1 -160 -32 -160 -33 0 -359 0 -359 160
-33 160 -32 518 -1 517 0 0 -468 0 -467 428 -143 427 -142 358 0 357 0 0 -72
1 -73 177 -106 178 -106 99 34 c55 18 111 33 125 33 14 0 545 -79 1180 -175
l1155 -175 402 0 403 0 0 -645 0 -645 -750 0 -750 0 0 -320 0 -320 -255 0
-254 0 -3 72 -3 71 -100 34 c-88 30 -138 38 -425 70 l-325 36 -910 -67 c-500
-36 -934 -69 -962 -72 l-53 -6 0 -569 0 -568 33 -5 c68 -10 2063 -77 2292 -76
l239 0 108 71 c106 71 108 72 108 110 l0 39 255 0 255 0 0 -73 0 -73 173 -33
c147 -29 198 -44 357 -107 l184 -74 318 0 318 0 0 -645 0 -645 -105 0 -105 0
0 -70 0 -70 -1285 0 -1285 0 0 -70 0 -70 -110 0 -110 0 0 -110 0 -110 -70 0
-70 0 0 -355 0 -355 -645 0 -645 0 0 215 0 215 -147 74 c-129 64 -171 92 -323
214 l-175 140 -250 71 -250 71 -1420 0 -1420 1 -1047 -108 -1048 -107 0 -608
c0 -480 3 -608 13 -608 6 0 446 -16 977 -35 531 -19 977 -35 993 -35 l27 0 0
-1575 c0 -1313 -2 -1575 -13 -1575 -8 0 -281 -31 -607 -70 -326 -38 -595 -70
-597 -70 -1 0 -3 -209 -3 -464 0 -434 1 -465 18 -470 79 -23 1221 -286 1243
-286 26 0 29 -3 29 -35 l0 -35 1425 0 1426 0 252 72 252 72 180 144 c157 126
199 154 323 216 l142 71 0 177 0 178 610 0 610 0 0 -105 0 -105 981 0 980 0
57 -38 c31 -22 147 -87 257 -147 110 -59 462 -267 783 -462 l582 -355 0 -394
0 -394 68 -34 67 -35 -137 -1 -138 0 0 73 0 72 -107 107 -108 106 -321 71
-321 70 -2109 -35 -2109 -36 -700 -209 c-385 -116 -708 -212 -718 -215 -16 -5
-17 -37 -15 -542 l3 -536 710 -214 710 -214 2115 -36 2115 -36 320 107 321
107 107 108 107 107 0 73 0 72 285 0 285 0 0 -465 0 -465 -70 0 -70 0 0 -110
0 -110 -622 0 -622 0 -774 -106 -775 -105 -498 -250 -499 -249 0 -215 0 -215
-320 0 -320 0 0 35 c0 34 -3 37 -73 71 l-73 36 -935 -66 c-514 -36 -964 -69
-1001 -72 l-68 -7 0 -247 0 -248 123 -6 c223 -12 1804 -66 1917 -66 l110 0 0
35 0 35 320 0 320 0 0 -179 0 -180 500 -285 501 -286 767 -105 767 -105 250 0
250 0 88 -175 c48 -96 87 -177 87 -180 0 -3 -127 -5 -283 -5 l-283 0 -37 -75
-37 -75 0 -245 0 -245 37 -75 37 -75 288 0 288 0 0 -180 0 -180 -39 0 c-38 0
-40 -2 -145 -142 l-106 -142 0 -570 0 -571 145 -145 145 -145 0 -666 0 -666
-32 -9 -33 -10 -3 -287 -2 -287 35 0 35 0 0 -182 0 -183 35 -58 c27 -45 35
-69 35 -105 0 -46 3 -51 70 -117 l70 -69 -70 -71 c-62 -62 -70 -75 -70 -108
l0 -37 -108 0 -108 0 -69 70 -69 70 -288 0 -288 0 -35 -70 -35 -70 0 -255 0
-255 35 -70 35 -70 283 0 283 0 74 75 74 75 108 0 108 0 0 -38 c0 -62 51 -102
185 -146 l110 -36 280 0 281 0 69 -70 69 -70 181 0 181 0 69 70 69 70 361 0
360 0 71 -352 70 -353 215 -3 216 -2 67 337 c37 186 69 346 72 356 4 14 17 17
72 17 88 1 345 66 432 110 36 18 115 49 175 70 l110 36 38 72 38 72 319 0 320
0 0 -35 0 -35 360 0 360 0 70 35 70 35 682 0 683 0 969 69 c532 39 970 71 972
73 2 2 -434 19 -969 37 l-972 34 -77 39 -78 38 -388 0 -388 0 -39 -40 -39 -40
-173 0 -173 0 -78 39 -77 38 -330 32 c-181 18 -342 34 -357 37 l-28 6 0 -71
c0 -67 -1 -71 -22 -71 -27 0 -574 59 -603 65 -14 3 -32 28 -55 74 l-34 71
-110 36 c-61 20 -141 52 -178 70 l-68 34 -610 0 -610 0 0 465 0 465 38 0 c29
0 59 -15 142 -70 l105 -70 575 0 575 0 72 72 73 72 0 71 0 71 788 37 c433 21
1237 53 1787 72 973 34 1966 89 1918 106 -55 21 -1011 72 -1968 104 -566 20
-1352 51 -1745 70 -393 20 -730 35 -747 35 l-33 0 0 73 0 73 -75 37 -75 37
-570 0 -571 0 -104 -70 c-86 -58 -111 -70 -145 -70 l-40 0 0 460 0 460 355 0
355 0 80 40 80 40 1067 0 c1046 0 1081 0 1693 30 344 17 649 33 678 36 52 5
52 6 52 40 0 20 -5 34 -12 34 -7 0 -321 16 -698 35 l-685 35 -1053 0 -1052 0
-70 35 -70 35 -394 0 -394 0 36 110 36 110 36 0 36 0 69 173 c55 139 75 180
108 215 l41 42 318 0 318 0 0 35 c0 30 3 35 23 35 12 0 240 16 507 35 267 19
512 35 545 35 l60 1 -68 35 -67 34 -483 35 c-265 19 -490 35 -499 35 -14 0
-18 8 -18 35 l0 35 -215 0 -215 0 0 145 0 145 110 0 c61 0 110 3 110 6 0 8 59
362 66 396 l6 28 106 0 106 0 36 35 36 35 243 22 242 22 114 -22 114 -23 68
35 c57 29 63 35 40 36 -16 0 -201 31 -412 70 -369 67 -390 70 -539 70 -86 0
-156 3 -156 8 0 4 16 225 35 492 19 267 35 491 35 498 0 9 101 12 473 12 l472
0 420 140 420 140 178 178 179 177 74 147 74 148 0 460 0 460 -74 148 c-70
139 -84 160 -251 360 -151 181 -182 213 -213 221 -20 6 -209 53 -419 106
l-383 95 -580 0 -580 0 0 23 c0 38 68 758 72 762 1 2 82 -13 178 -32 l175 -35
510 101 c281 56 518 105 528 109 30 12 -994 146 -1161 152 l-142 5 63 105 c35
58 96 153 135 213 l72 107 140 0 140 0 0 34 0 33 133 18 c736 96 911 122 857
128 -44 6 -954 67 -982 67 -5 0 -8 16 -8 35 l0 34 -70 3 -70 3 177 247 177
248 143 0 143 0 0 38 0 37 489 70 c270 38 489 71 487 72 -1 1 -193 16 -427 32
-233 17 -452 33 -486 37 l-63 6 0 34 0 34 -70 0 -70 0 70 140 c38 77 70 142
70 145 0 3 -16 5 -35 5 l-35 0 0 104 0 105 37 3 37 3 70 213 71 212 857 0 858
0 0 215 0 215 285 0 285 0 0 180 0 180 148 0 148 0 677 356 677 356 0 249 0
249 23 5 c12 2 139 19 282 36 l260 32 147 73 148 74 250 0 250 0 70 35 70 35
320 0 320 0 70 -35 70 -35 469 0 c428 0 582 5 1726 60 691 33 1260 60 1265 60
6 0 10 22 10 49 l0 48 -177 7 c-98 3 -682 18 -1298 32 l-1120 25 -105 35 -105
34 -333 0 -332 0 -70 -35 -70 -35 -320 0 -320 0 -70 35 -70 35 -250 0 -250 0
-148 74 -148 74 -254 31 c-140 18 -267 34 -282 37 l-28 6 0 249 0 249 -500
250 -500 250 0 144 0 144 320 107 320 107 -44 56 c-25 32 -139 177 -253 324
l-208 267 -355 283 -355 284 -395 107 c-392 107 -397 108 -670 142 l-275 35
-1082 0 -1083 0 0 70 0 70 -215 0 -215 0 5 83 c4 45 19 363 35 706 17 343 31
626 33 627 2 2 115 -41 252 -96 l249 -100 288 0 287 0 384 -105 385 -105 1046
0 1046 0 0 -75 0 -75 1035 0 1035 0 0 35 c0 28 4 36 22 39 13 3 302 20 643 38
l620 33 110 72 110 73 283 0 282 0 70 -35 70 -35 690 0 691 0 137 34 c135 34
147 35 772 76 349 23 645 43 658 46 21 4 22 8 22 119 0 63 -1 116 -2 116 -2 1
-300 9 -663 18 l-660 18 -142 71 -143 72 -677 0 -678 0 -72 -72 -72 -71 -273
33 c-233 28 -290 38 -393 71 l-120 38 -635 36 c-349 19 -638 35 -642 35 -5 0
-8 15 -8 34 l0 34 -77 6 c-43 3 -478 20 -966 38 l-888 31 -69 -33 c-68 -33
-70 -35 -70 -72 l0 -38 -250 0 -250 0 0 249 0 249 -324 180 c-309 172 -343
188 -757 360 l-434 181 -566 105 -566 106 -286 0 -287 0 0 430 0 430 -35 0
-35 0 0 140 0 140 250 0 250 0 0 -70 0 -70 750 0 750 0 0 -39 c0 -21 7 -58 16
-82 8 -24 23 -84 33 -132 10 -48 21 -91 25 -94 3 -3 247 42 541 101 l535 107
460 177 459 177 211 175 c116 96 214 176 219 178 5 2 91 -30 192 -71 173 -70
221 -96 779 -425 l595 -351 3 34 c3 33 5 35 39 35 33 0 -5 32 -518 444 -324
259 -591 481 -642 533 l-89 90 71 142 c39 77 75 141 79 141 4 0 236 -76 516
-170 281 -93 511 -168 513 -166 2 2 -212 126 -474 276 -263 150 -480 274 -483
277 -2 2 27 67 65 143 51 103 74 140 88 140 10 0 258 -45 551 -100 293 -55
536 -100 542 -100 5 1 -225 95 -511 209 l-520 209 -3 146 -3 146 289 0 288 0
34 35 34 35 608 0 608 0 0 -35 0 -35 339 0 c321 0 355 2 651 35 172 19 353 35
404 36 l91 1 -99 34 c-94 32 -130 37 -730 104 -622 69 -635 70 -893 70 l-263
0 0 -36 c0 -36 0 -36 -37 -30 -21 3 -182 20 -358 37 l-320 31 -35 34 -36 34
-251 0 -251 0 -6 28 c-3 15 -15 83 -26 152 -11 69 -23 137 -26 153 l-6 27 389
0 389 0 34 35 34 35 113 0 c109 0 116 -1 182 -34 l68 -35 1064 34 c585 19
1386 50 1779 70 393 19 781 35 863 35 l147 0 0 40 0 40 -147 0 c-82 0 -465 16
-853 35 -388 19 -1188 51 -1778 70 l-1074 34 -69 -34 c-66 -34 -72 -35 -182
-35 l-113 0 -34 35 -34 35 -428 0 -428 0 0 178 0 178 -35 34 c-32 31 -34 36
-19 47 9 6 211 117 449 245 239 128 432 234 431 235 -2 2 -685 -191 -927 -261
l-45 -14 -179 285 -178 286 36 72 36 72 -145 217 c-122 183 -144 222 -144 254
0 21 -16 85 -35 142 l-35 104 43 55 c56 72 857 1121 871 1141 6 8 -1 5 -14 -6
-58 -50 -1167 -961 -1178 -967 -6 -4 -43 8 -81 28 -42 21 -85 35 -107 35 -29
0 -89 30 -281 140 l-245 140 -72 0 c-70 0 -75 2 -573 215 l-501 215 -76 0
c-74 0 -76 1 -71 23 12 54 205 1161 202 1163 -1 2 -94 -242 -206 -541 -112
-299 -208 -549 -212 -556 -6 -10 -84 4 -331 59 l-323 71 -465 36 c-445 34
-486 35 -962 35 l-498 0 0 -145 0 -145 -70 0 -70 0 0 -70 0 -70 -180 0 -180 0
0 70 0 70 -244 0 -244 0 -257 110 -257 110 -104 0 -104 0 0 215 0 215 212 0
213 0 177 177 178 178 0 110 0 110 -140 175 -140 175 -322 72 c-178 40 -324
73 -325 73 -2 0 -3 65 -3 145 l0 145 38 0 37 0 -3 102 c-11 302 -140 3631
-141 3618z"/>
</g>
</svg>
