<?xml version="1.0" standalone="no"?>
<!DOCTYPE svg PUBLIC "-//W3C//DTD SVG 20010904//EN"
 "http://www.w3.org/TR/2001/REC-SVG-20010904/DTD/svg10.dtd">
<svg version="1.0" xmlns="http://www.w3.org/2000/svg"
   viewBox="0 0 4139.000000 839.000000"
 preserveAspectRatio="xMidYMid meet">
<metadata>
Created by potrace 1.16, written by Peter Selinger 2001-2019
</metadata>
<g transform="translate(0.000000,839.000000) scale(0.100000,-0.100000)"
fill="#000000" stroke="none">
<path d="M25096 8337 l-46 -54 -155 -28 -155 -29 0 -28 c0 -25 -3 -28 -35 -28
-28 0 -38 5 -47 25 -8 18 -17 23 -32 20 -31 -7 -634 -115 -640 -115 -4 0 -6
-67 -6 -150 l0 -150 170 0 170 0 0 -90 0 -90 -1593 0 -1594 0 -274 -113 c-230
-96 -275 -117 -277 -135 -3 -22 -3 -22 -304 -22 -285 0 -302 -1 -334 -20 -29
-19 -146 -31 -1120 -120 -598 -55 -1089 -100 -1091 -100 -2 0 -3 -83 -3 -185
l0 -185 -243 0 c-231 0 -243 -1 -255 -20 -12 -19 -23 -20 -257 -20 -234 0
-245 1 -257 20 -12 19 -24 20 -213 20 -189 0 -201 -1 -213 -20 -12 -19 -23
-20 -257 -20 -234 0 -245 1 -255 20 -10 19 -21 20 -213 20 -191 0 -203 -1
-215 -20 -12 -19 -23 -20 -257 -20 -235 0 -245 1 -255 20 -10 20 -19 20 -213
18 l-202 -3 -65 -92 -65 -93 -1642 0 -1643 0 -12 -25 -11 -25 -2930 0 c-2738
0 -2931 -1 -2958 -17 -19 -12 -39 -40 -61 -90 l-32 -73 -270 0 -271 0 -144
-110 -144 -110 -344 0 c-211 0 -360 -4 -386 -11 -39 -10 -46 -17 -96 -101
l-54 -91 -120 7 c-66 3 -154 6 -196 6 l-77 0 -75 128 -75 127 -229 6 c-127 4
-577 7 -1001 8 l-770 1 -59 -80 -59 -80 -318 0 -318 0 0 -1400 0 -1400 165 0
165 0 0 -305 0 -304 113 -35 112 -35 838 -12 c933 -14 835 -19 1035 53 l82 30
0 60 0 60 88 -6 c48 -4 121 -9 163 -12 58 -5 79 -3 85 8 5 7 20 67 34 133 l25
119 88 33 c80 29 95 32 157 25 l68 -7 93 -100 c64 -68 103 -102 124 -107 16
-4 696 -102 1510 -218 814 -116 1486 -215 1494 -219 25 -13 23 -30 -3 -37
l-26 -6 0 -302 0 -302 50 -18 c43 -16 68 -17 190 -11 l140 8 0 -225 0 -225 44
-17 c41 -16 83 -17 490 -9 l445 8 61 -52 61 -53 2015 0 2014 0 0 -125 0 -125
2996 0 2997 0 73 56 c69 53 74 59 74 95 l0 39 1285 0 1285 0 137 -100 c124
-91 141 -100 180 -100 49 0 49 0 17 -77 l-14 -33 -550 0 -550 0 0 -200 0 -200
533 0 532 0 44 -123 c24 -67 47 -125 51 -130 3 -4 47 -18 96 -32 118 -33 202
-32 318 3 l89 27 45 128 46 127 245 0 246 0 45 -126 c24 -69 48 -128 52 -130
4 -3 45 -16 90 -29 111 -33 196 -32 315 1 l92 26 47 129 47 129 240 -2 240 -3
46 -126 45 -127 93 -26 c119 -34 196 -34 316 0 l93 26 28 76 c16 42 37 101 48
130 l20 52 375 -2 376 -3 30 -128 31 -127 507 0 507 0 7 -55 6 -55 1070 0
1069 0 0 30 0 30 -816 0 c-740 0 -816 1 -810 16 3 9 6 20 6 25 0 5 25 9 55 9
l55 0 96 100 96 100 302 0 c165 0 622 3 1014 7 l712 6 0 44 0 43 -495 0 c-431
0 -496 2 -501 15 -5 13 -70 15 -499 15 -454 0 -494 1 -497 17 -2 13 -41 25
-168 54 -91 21 -184 38 -207 39 l-42 0 -3 43 -3 42 -158 21 -157 22 -68 55
c-38 30 -79 57 -93 59 -18 2 -28 14 -40 48 l-17 45 -154 3 -155 2 -18 -55
c-11 -30 -23 -55 -27 -55 -5 0 -42 25 -82 55 l-73 55 -314 -2 -314 -3 -18 -51
-19 -52 -283 -7 c-157 -4 -290 -5 -297 -2 -7 2 -22 30 -32 60 l-19 56 -71 3
-71 3 51 33 51 32 254 0 c140 0 420 3 623 7 l369 6 113 94 114 94 0 132 1 132
636 525 635 525 141 3 c120 2 144 5 167 22 24 17 45 20 154 20 l126 0 248 205
247 205 122 0 123 0 411 340 411 340 167 0 166 0 -3 -236 -3 -235 87 -150 c72
-124 91 -149 110 -149 28 0 24 26 69 -445 19 -198 37 -374 40 -392 4 -22 18
-41 47 -62 41 -30 45 -31 155 -31 l113 0 0 -100 0 -100 795 0 795 0 0 24 c0
22 4 23 83 29 45 4 118 7 163 7 48 0 100 7 128 16 45 16 47 17 44 52 -5 57
-39 71 -189 78 -157 7 -160 8 -127 39 14 13 28 29 30 35 5 15 168 29 341 30
l137 0 0 28 0 29 -152 6 c-83 4 -181 7 -218 7 -50 0 -71 4 -81 16 -11 13 -7
75 22 372 l35 357 25 3 c21 2 40 28 112 153 l87 150 0 235 0 234 46 0 c33 0
54 7 78 25 l33 25 542 0 542 0 33 -25 c24 -18 45 -25 77 -25 l44 0 -2 -232 -3
-233 88 -150 c76 -130 91 -150 115 -153 17 -2 27 -9 27 -20 0 -58 82 -827 90
-841 5 -10 25 -30 44 -44 33 -25 41 -27 145 -27 l111 0 0 -100 0 -100 795 0
795 0 0 24 c0 22 4 23 83 29 45 4 121 7 169 7 57 0 102 6 128 16 37 15 40 19
40 53 0 53 -38 69 -182 76 -166 9 -162 7 -122 51 33 35 38 36 132 45 53 4 159
8 235 9 l137 0 0 29 0 29 -220 7 c-183 6 -222 10 -234 24 -13 14 -10 57 20
361 18 190 34 350 34 357 0 6 12 13 27 15 23 3 39 24 115 153 l87 150 -2 233
-2 232 601 0 c331 0 616 3 633 6 30 6 31 9 31 55 l0 49 970 0 970 0 0 80 0 80
335 0 335 0 0 34 c0 41 13 46 120 46 41 0 112 3 158 7 l82 6 0 33 0 32 -97 6
c-54 4 -135 9 -180 12 l-83 6 0 42 0 43 61 7 c34 3 92 6 128 6 36 0 90 3 119
6 51 7 52 8 52 39 l0 32 -97 6 c-54 4 -125 7 -158 7 -33 0 -70 3 -82 6 l-23 6
0 539 0 538 -22 15 c-22 16 -22 16 13 16 32 0 52 15 198 150 l161 150 164 0
164 0 36 -45 37 -45 130 0 129 0 0 65 0 65 39 0 c22 0 46 3 55 6 12 5 16 0 16
-20 0 -22 4 -26 29 -26 29 0 482 45 559 55 l42 6 0 85 c0 75 -2 84 -19 84 -10
0 -148 13 -307 30 -159 16 -292 30 -296 30 -5 0 -8 -11 -8 -25 0 -24 -3 -25
-55 -25 l-55 0 0 50 0 50 -729 0 -729 0 -195 45 -195 45 -1097 0 -1098 0 -381
92 c-366 88 -387 92 -526 97 l-144 6 -26 67 c-22 58 -35 75 -98 130 l-74 64
-356 37 c-486 51 -637 51 -1122 0 l-355 -37 -76 -65 c-68 -60 -78 -73 -100
-136 l-25 -70 -647 -3 -647 -2 -159 115 -160 115 -109 0 -108 0 -182 194
c-176 187 -183 193 -228 200 -26 3 -62 6 -81 6 -19 0 -67 17 -113 40 l-80 40
-230 0 -230 0 0 114 0 114 58 33 c52 30 68 33 185 42 70 6 127 14 127 18 0 5
290 9 645 9 l645 0 0 25 0 25 385 0 c366 0 388 -1 425 -20 37 -19 59 -20 340
-20 l300 0 0 65 0 65 180 0 c151 0 182 -2 186 -15 5 -13 42 -15 246 -15 l240
0 74 46 74 46 0 48 0 47 -79 51 c-79 50 -79 50 -268 82 -103 17 -208 31 -233
31 -25 0 -279 27 -565 60 -498 58 -529 60 -747 59 -217 -1 -229 -2 -290 -26
-57 -23 -71 -24 -156 -18 -61 4 -95 11 -100 20 -6 10 -149 20 -660 44 -359 16
-662 30 -672 30 -11 0 -55 41 -107 100 l-88 99 -250 1 c-187 0 -254 3 -263 13
-10 9 -94 14 -315 19 -166 3 -308 7 -314 7 -7 1 -34 33 -59 71 l-47 70 -66 0
c-37 0 -71 4 -76 9 -6 5 -89 13 -185 16 -110 5 -187 13 -209 21 -27 11 -149
14 -648 14 -606 0 -615 0 -620 -20 -5 -19 -14 -20 -310 -20 -296 0 -305 1
-310 20 -5 20 -14 20 -843 20 l-838 0 -46 -53z"/>
</g>
</svg>
