<?xml version="1.0" standalone="no"?>
<!DOCTYPE svg PUBLIC "-//W3C//DTD SVG 20010904//EN"
 "http://www.w3.org/TR/2001/REC-SVG-20010904/DTD/svg10.dtd">
<svg version="1.0" xmlns="http://www.w3.org/2000/svg"
   viewBox="0 0 3173.000000 4100.000000"
 preserveAspectRatio="xMidYMid meet">
<metadata>
Created by potrace 1.16, written by Peter Selinger 2001-2019
</metadata>
<g transform="translate(0.000000,4100.000000) scale(0.100000,-0.100000)"
fill="#000000" stroke="none">
<path d="M12601 40969 c-44 -15 -150 -64 -234 -108 l-153 -80 -130 -138 c-187
-198 -320 -408 -619 -975 -130 -246 -192 -355 -201 -351 -14 5 -82 -129 -154
-307 -22 -52 -239 -572 -484 -1155 -376 -897 -448 -1061 -467 -1065 -21 -5
-183 -380 -1111 -2573 -105 -246 -179 -409 -188 -411 -8 -2 -100 -23 -205 -47
-237 -54 -250 -63 -271 -184 -8 -44 -10 -82 -6 -86 4 -3 63 -23 131 -45 88
-27 118 -40 105 -46 -11 -4 -100 -23 -199 -43 -169 -34 -182 -39 -211 -69 -25
-26 -33 -46 -43 -110 -7 -43 -11 -79 -9 -81 1 -1 73 -24 158 -51 85 -26 158
-50 162 -54 6 -4 -575 -1252 -609 -1309 -8 -12 -33 -12 -168 -2 -198 15 -546
50 -557 57 -4 3 -8 11 -8 17 0 7 -5 28 -10 47 l-10 35 -142 -11 c-79 -7 -161
-10 -183 -7 -85 10 -463 -45 -787 -114 -175 -38 -318 -73 -318 -78 0 -6 -25
-26 -55 -44 -31 -19 -88 -64 -127 -100 -54 -50 -82 -69 -117 -77 -28 -6 -85
-38 -143 -78 -85 -59 -103 -75 -137 -135 l-40 -68 -332 -7 -332 -7 -576 -219
-576 -218 0 -150 0 -150 -916 -337 -916 -337 -18 -173 -18 -174 -141 -49 c-77
-27 -212 -73 -299 -103 l-158 -54 -63 -110 c-35 -60 -85 -166 -111 -235 -26
-69 -53 -130 -59 -136 -6 -7 -78 -28 -161 -48 -140 -34 -157 -40 -267 -106
l-118 -71 0 -132 0 -132 99 -148 c98 -147 99 -149 163 -179 l65 -30 -5 -116
c-6 -164 -28 -152 295 -162 142 -5 392 -12 556 -16 l297 -6 218 -222 c119
-122 279 -277 354 -346 l137 -123 128 -49 c77 -30 204 -67 318 -93 176 -40
205 -44 385 -51 183 -6 193 -8 155 -20 -22 -8 -45 -16 -52 -19 -16 -5 92 -244
299 -665 88 -179 201 -410 250 -515 92 -195 125 -242 209 -301 20 -13 53 -49
73 -78 28 -41 36 -62 36 -98 l0 -46 65 -16 c35 -9 75 -16 88 -16 14 0 68 -20
121 -45 l96 -44 198 -2 c108 -1 221 1 250 5 44 7 52 5 52 -8 0 -16 9 -19 280
-96 332 -94 408 -131 560 -275 41 -39 181 -161 311 -272 l235 -201 85 -26 85
-26 586 0 c550 0 587 -1 592 -17 2 -10 39 -191 82 -403 62 -314 80 -389 98
-406 11 -12 327 -252 701 -534 374 -282 690 -522 701 -534 19 -18 604 -1105
604 -1120 0 -3 -14 -6 -31 -6 -17 0 -29 -4 -27 -8 2 -4 23 -42 48 -84 35 -61
53 -80 86 -96 39 -19 49 -34 152 -229 77 -143 108 -211 101 -219 -7 -8 24 -68
99 -195 l109 -184 233 -629 232 -630 -47 -240 c-47 -235 -50 -248 -163 -546
-119 -316 -181 -527 -182 -617 0 -49 8 -65 166 -330 92 -153 173 -285 180
-293 7 -8 139 -67 293 -130 l281 -115 0 -356 0 -356 152 -45 c135 -40 153 -48
158 -69 6 -23 19 -26 350 -85 190 -35 347 -61 351 -58 3 2 28 37 55 79 27 41
56 75 64 75 8 0 571 -108 1250 -239 l1235 -239 390 -175 390 -176 3 -36 3 -35
-219 0 -219 0 -37 -60 -37 -60 -745 0 -744 0 0 -33 0 -34 -137 -6 c-75 -4
-438 -7 -808 -7 -921 0 -1515 -10 -1515 -25 0 -9 273 -13 1123 -19 617 -3
1170 -9 1230 -13 l107 -6 0 -38 0 -38 46 -3 46 -3 76 -182 c67 -161 79 -183
99 -183 21 0 22 -5 25 -78 l3 -79 1138 -1114 1139 -1114 601 -232 c330 -128
606 -238 613 -245 7 -7 472 -726 1033 -1598 939 -1459 1019 -1586 998 -1592
-12 -3 -224 -13 -472 -22 -247 -9 -499 -21 -560 -27 -97 -10 -116 -15 -160
-43 -27 -18 -108 -52 -180 -75 -111 -36 -136 -49 -167 -82 -32 -33 -38 -45
-38 -83 l0 -45 -45 -7 -45 -6 -1 -114 c0 -63 -1 -138 -1 -166 l-1 -53 44 -10
c44 -11 44 -11 49 -63 4 -38 13 -59 35 -84 17 -18 30 -34 31 -36 1 -1 55 -19
120 -39 l119 -37 902 -6 c496 -3 904 -7 906 -10 3 -3 -9 -148 -25 -323 l-30
-318 56 -82 c32 -45 80 -115 108 -154 l50 -73 -50 -46 c-66 -58 -76 -99 -38
-148 l26 -35 -603 -407 c-331 -224 -620 -423 -642 -443 -22 -20 -275 -198
-562 -396 -288 -198 -523 -363 -523 -367 0 -5 4 -8 10 -8 5 0 249 158 542 352
293 193 553 362 578 374 25 12 313 202 639 423 327 221 599 400 604 398 5 -1
8 -6 8 -10 0 -5 -207 -155 -461 -335 -599 -426 -1119 -805 -1114 -814 2 -3
153 95 335 218 182 123 334 224 336 224 3 0 217 147 475 326 l470 326 24 -28
c13 -16 23 -32 24 -36 0 -4 15 -11 33 -16 27 -8 43 -4 98 24 l66 33 402 -575
403 -575 94 -321 c52 -177 98 -324 102 -327 5 -3 24 -19 44 -34 36 -28 36 -28
22 -63 -8 -19 -12 -39 -10 -43 3 -4 -5 -22 -18 -39 -12 -17 -359 -371 -770
-786 -411 -415 -743 -757 -738 -760 5 -3 64 51 133 120 68 69 420 418 782 776
562 555 660 648 673 637 13 -11 -58 -87 -498 -528 -422 -423 -1003 -1018
-1167 -1193 -19 -21 -29 -38 -23 -38 19 0 760 716 1589 1534 172 170 173 171
193 151 19 -20 18 -21 -285 -342 -168 -178 -305 -327 -305 -333 0 -5 -121
-143 -270 -306 -237 -261 -292 -326 -262 -312 4 2 131 130 282 284 151 155
283 284 292 288 10 4 155 153 324 331 267 284 308 323 323 313 15 -9 25 -7 50
11 l31 23 38 -30 c20 -16 264 -208 541 -426 l503 -396 202 0 201 -1 155 -199
c116 -149 161 -199 177 -199 13 -1 34 -16 50 -36 l28 -35 175 0 175 1 55 34
54 35 231 0 230 -1 1089 -663 c1062 -646 1090 -664 1104 -702 12 -34 44 -62
267 -232 l255 -192 565 0 565 0 6 -26 c4 -14 37 -50 77 -85 l71 -59 337 0
c264 0 340 -3 346 -13 4 -7 38 -38 75 -69 l66 -56 654 -7 c359 -4 783 -8 941
-9 l289 -1 31 62 32 62 133 0 c119 1 132 3 132 19 0 9 -203 626 -451 1370
l-452 1352 -132 0 -133 0 -56 168 c-48 142 -63 175 -101 220 -24 29 -351 302
-746 622 l-701 570 -219 0 -218 0 -183 161 c-101 89 -184 163 -186 164 -2 2
42 40 98 86 63 52 99 88 96 96 -3 8 -69 208 -147 444 -125 381 -139 432 -127
447 8 9 111 132 228 272 117 140 221 264 231 275 18 21 17 25 -52 238 -38 119
-72 223 -75 231 -3 7 3 16 13 18 10 3 37 43 62 92 l43 87 -43 146 c-29 99 -49
147 -59 150 -24 6 -139 361 -121 372 11 7 7 30 -19 119 -27 90 -37 112 -53
114 -17 2 -30 31 -73 161 -39 118 -49 157 -38 157 8 0 14 1 14 3 0 1 -15 52
-33 112 -26 87 -37 111 -53 113 -16 3 -41 70 -148 395 -71 216 -131 398 -134
405 -3 11 9 12 61 7 l65 -7 -156 476 -157 476 -30 0 -30 0 -61 183 -60 182
-34 5 c-32 5 -34 9 -62 90 -33 98 -33 100 -12 100 9 0 14 6 12 12 -3 7 -20 57
-37 111 -26 78 -36 97 -52 97 -10 0 -19 3 -19 6 0 3 -58 183 -130 400 -71 217
-130 397 -130 399 0 3 33 5 73 5 66 1 75 3 105 30 28 26 32 36 32 80 l0 50 40
0 c31 0 56 10 104 42 l64 43 6 59 c11 107 7 810 -5 845 -6 18 -9 34 -7 36 2 2
60 7 128 10 69 3 158 8 198 11 l72 6 0 166 0 167 110 217 c66 130 117 219 128
222 13 4 477 86 490 86 4 0 0 254 -7 355 l-6 100 -170 92 -170 93 -100 -1
-100 0 -200 206 -200 205 -280 41 c-154 22 -283 44 -286 47 -4 4 -138 452
-298 997 -161 544 -293 990 -294 991 -1 1 -220 124 -487 272 l-485 271 6 103
c4 57 7 157 8 223 1 66 4 144 7 173 l7 52 227 0 c125 0 429 3 677 7 l451 6
186 139 186 138 461 2 c431 3 459 4 447 20 -11 15 -55 19 -333 33 -176 8 -352
18 -391 21 -69 5 -71 6 -66 30 l4 24 979 0 979 0 -12 25 c-6 14 -16 25 -22 25
-6 0 -441 14 -966 30 -525 16 -957 30 -959 30 -2 0 -1 14 1 30 l5 30 -134 0
-133 0 0 -30 0 -30 -370 0 c-203 0 -370 4 -370 8 0 5 -6 17 -14 28 -14 18 -33
19 -377 24 l-362 5 -184 635 c-261 900 -542 1863 -545 1865 -7 5 -572 120
-818 166 -151 29 -276 53 -278 54 -1 1 5 105 13 231 l16 229 37 57 37 58 362
0 363 0 187 315 188 315 157 2 c152 3 156 4 143 22 -12 16 -31 20 -117 23
-164 6 -156 -1 -94 101 l53 87 526 0 c517 0 526 0 507 19 -17 17 -57 21 -488
40 -259 12 -474 24 -478 28 -3 4 24 78 61 165 l68 158 41 270 41 270 -16 100
c-10 64 -26 120 -44 156 l-28 56 43 314 43 314 -31 325 -31 325 -116 305 -117
305 -219 260 -220 260 -377 135 -378 135 -163 155 c-126 121 -185 186 -265
295 -151 205 -309 479 -482 834 -142 291 -164 330 -296 520 -138 199 -148 211
-296 346 -85 77 -218 193 -295 257 -133 109 -150 120 -257 163 -156 62 -231
80 -395 99 -77 9 -186 24 -242 33 l-103 16 0 283 0 284 393 2 392 3 14 95 13
95 -90 250 c-50 138 -93 258 -97 268 -6 13 -19 17 -61 17 l-54 0 -295 591
-296 590 -234 334 -234 334 30 37 c16 20 26 41 22 48 -31 52 -163 190 -227
238 -74 54 -83 58 -135 58 -91 1 -1023 39 -1027 42 -1 2 -7 23 -12 46 l-10 42
39 6 c33 6 38 10 34 28 -3 11 -20 103 -38 204 l-34 182 82 0 c44 0 85 4 91 10
6 6 154 11 382 12 281 2 370 6 364 15 -5 8 -134 16 -437 28 -237 8 -446 19
-465 23 l-34 7 -18 95 c-9 52 -17 101 -17 108 -1 9 227 12 1109 12 978 0 1111
-2 1116 -15 8 -21 186 -22 203 -1 30 36 11 37 -1131 62 -915 19 -1122 26
-1164 39 -28 8 -74 15 -102 15 -60 0 -51 -18 -88 190 l-27 155 -104 210 c-58
116 -139 265 -181 333 l-77 122 -125 40 c-69 21 -137 42 -152 45 -25 6 -28 12
-28 49 0 36 -5 44 -35 65 l-35 24 0 275 0 275 -62 162 -62 161 -120 56 c-137
63 -133 57 -135 186 l-1 72 40 0 41 0 -3 102 -3 102 -667 315 -668 314 0 130
c0 86 -5 146 -15 182 -15 51 -17 53 -58 59 -96 14 -1462 166 -1489 166 -21 0
-84 -33 -199 -102 l-169 -103 0 -172 0 -173 -52 0 -53 -1 -113 -104 -114 -105
-114 0 -114 0 -2 202 -3 202 -192 60 c-106 33 -193 64 -193 69 0 5 10 40 21
79 l21 69 111 -2 111 -3 14 50 14 50 -96 305 c-53 167 -96 307 -96 311 0 3 29
14 65 23 61 17 66 20 74 54 24 91 41 159 41 164 0 3 -33 13 -74 22 l-73 16 25
101 25 101 -22 41 c-19 37 -35 48 -129 95 -95 47 -275 149 -385 218 -33 21
-37 26 -25 40 11 14 -6 34 -135 158 l-147 142 -113 204 c-63 112 -117 215
-120 229 -3 14 -25 183 -48 375 -31 268 -40 373 -36 447 l5 96 -33 4 c-19 2
-67 -8 -114 -23z"/>
</g>
</svg>
