<?xml version="1.0" standalone="no"?>
<!DOCTYPE svg PUBLIC "-//W3C//DTD SVG 20010904//EN"
 "http://www.w3.org/TR/2001/REC-SVG-20010904/DTD/svg10.dtd">
<svg version="1.0" xmlns="http://www.w3.org/2000/svg"
   viewBox="0 0 4840.000000 561.000000"
 preserveAspectRatio="xMidYMid meet">
<metadata>
Created by potrace 1.16, written by Peter Selinger 2001-2019
</metadata>
<g transform="translate(0.000000,561.000000) scale(0.100000,-0.100000)"
fill="#000000" stroke="none">
<path d="M12105 5582 l-110 -26 -274 -179 -275 -179 -841 -84 -841 -83 -402
-229 -402 -228 -146 -179 c-80 -99 -154 -190 -163 -202 -17 -20 -32 -22 -287
-37 -382 -23 -3751 -327 -4284 -387 -371 -41 -1217 -129 -1248 -129 -5 0 -12
41 -16 92 -3 50 -8 93 -10 95 -5 5 -335 -14 -403 -23 l-43 -5 0 -59 c0 -56 -1
-59 -28 -64 -38 -8 -1002 -166 -1013 -166 -5 0 -12 18 -15 40 -4 22 -8 40 -9
40 -2 0 -147 -51 -322 -114 -389 -139 -447 -171 -536 -295 -49 -69 -57 -86
-57 -125 l0 -46 -133 0 c-127 0 -135 -1 -155 -23 -20 -21 -22 -34 -22 -123 l0
-99 -35 -23 -35 -22 0 -260 0 -260 51 -29 c43 -24 67 -30 143 -35 50 -3 568
-13 1151 -21 583 -8 1160 -18 1282 -21 l223 -6 0 -359 c0 -198 3 -359 7 -359
3 0 459 -77 1013 -170 l1006 -170 1837 0 1837 0 0 50 0 50 385 0 c336 0 385
-2 385 -15 0 -8 2 -15 5 -15 2 0 134 -35 292 -78 l288 -77 3184 -5 3185 -5 67
-124 c37 -68 73 -129 81 -136 18 -18 745 -146 1098 -194 162 -23 590 -70 950
-106 632 -63 713 -69 2350 -165 932 -55 1981 -114 2330 -130 l635 -30 3445
-25 3445 -26 3185 42 c1752 24 3186 43 3188 44 1 1 6 46 12 101 5 60 30 181
64 309 59 227 280 895 312 941 l19 29 3 -137 3 -138 504 0 c498 0 505 0 505
20 0 20 7 20 324 20 l325 0 25 33 26 34 0 332 0 332 35 -6 c19 -3 50 -7 68
-10 17 -3 262 -29 544 -60 l512 -54 653 24 c359 13 986 29 1393 35 407 6 1134
24 1615 40 481 16 1098 34 1370 40 272 6 762 17 1088 26 326 9 599 13 607 11
7 -3 16 -20 20 -38 l7 -32 152 6 c83 4 270 10 414 13 200 6 267 10 277 21 11
10 65 13 245 13 l231 0 -3 43 -3 42 -232 3 c-144 1 -233 6 -233 12 0 6 -30 10
-66 10 l-66 0 6 67 c11 108 -2 99 146 95 l130 -4 0 364 0 365 -127 6 c-69 4
-128 9 -131 12 -6 5 -31 417 -26 423 1 2 50 -4 108 -13 58 -9 110 -14 115 -11
6 4 77 -5 159 -19 83 -14 155 -25 161 -25 7 0 11 21 11 55 0 30 -3 55 -7 55
-36 1 -314 50 -329 59 -17 9 -756 131 -798 131 -9 0 -16 -8 -16 -20 0 -11 -4
-20 -9 -20 -36 0 -1253 188 -2206 340 -478 77 -1075 171 -1325 210 -250 38
-1029 166 -1731 283 l-1277 213 -6 -115 -7 -116 -156 -232 -155 -232 -280
-177 -280 -176 -3606 6 -3607 7 -740 54 -740 54 -1147 -6 -1148 -6 0 86 c0 58
-4 88 -12 94 -7 4 -323 11 -703 14 -505 5 -909 15 -1505 38 l-815 32 -530 -20
c-291 -11 -574 -17 -627 -14 l-98 6 0 38 0 39 -1160 0 -1159 0 -3 63 -3 62
-685 5 -685 5 -250 78 -250 77 -533 0 -532 0 -42 33 c-43 32 -47 33 -590 122
l-548 90 0 36 c0 20 -3 57 -6 82 -6 43 -10 48 -64 81 -32 20 -67 36 -79 36
-11 0 -62 15 -113 33 -74 26 -102 31 -137 26 -39 -5 -48 -2 -78 24 -19 17 -33
38 -33 52 0 41 -63 80 -170 104 -253 56 -907 112 -945 81 -9 -7 -207 -14 -587
-20 -628 -10 -599 -7 -824 -79 l-131 -42 -186 10 -185 10 -299 97 c-164 53
-302 97 -308 98 -14 2 -36 89 -25 96 5 3 7 16 3 28 -3 12 -9 19 -14 16 -5 -3
-9 1 -9 8 0 7 -3 23 -6 35 -5 18 0 25 20 34 l27 12 -33 35 c-18 18 -64 52
-103 75 l-70 41 -465 7 c-256 4 -589 10 -740 12 -269 5 -277 4 -385 -21z"/>
</g>
</svg>
