<?xml version="1.0" standalone="no"?>
<!DOCTYPE svg PUBLIC "-//W3C//DTD SVG 20010904//EN"
 "http://www.w3.org/TR/2001/REC-SVG-20010904/DTD/svg10.dtd">
<svg version="1.0" xmlns="http://www.w3.org/2000/svg"
   viewBox="0 0 4423.000000 4202.000000"
 preserveAspectRatio="xMidYMid meet">
<metadata>
Created by potrace 1.16, written by Peter Selinger 2001-2019
</metadata>
<g transform="translate(0.000000,4202.000000) scale(0.100000,-0.100000)"
fill="#000000" stroke="none">
<path d="M35630 41999 l-835 -18 -720 -100 -721 -100 -488 -136 c-471 -131
-492 -138 -600 -196 -61 -34 -114 -64 -118 -68 -4 -3 -14 -40 -23 -81 -15 -71
-15 -81 5 -190 l21 -115 118 -42 119 -43 393 -36 c217 -20 394 -37 395 -38 0
0 -4 -110 -9 -243 l-10 -243 -61 0 c-34 0 -411 -9 -839 -20 l-778 -21 -987
-229 c-722 -167 -1132 -267 -1527 -374 l-539 -147 -231 -117 -230 -118 -57
-245 c-31 -134 -57 -255 -57 -269 -1 -21 129 -356 141 -364 2 -1 129 1 283 4
154 3 281 6 282 5 1 0 -53 -102 -120 -225 l-122 -225 -545 -126 c-349 -81
-620 -150 -755 -192 -115 -36 -261 -81 -323 -99 l-114 -33 -88 -158 c-49 -87
-104 -198 -122 -247 -18 -50 -37 -90 -42 -90 -14 0 -1237 -160 -1272 -166 -30
-6 -35 -1 -202 219 l-171 224 -288 7 c-158 3 -535 9 -838 12 l-550 6 -855
-166 c-470 -91 -1193 -236 -1607 -322 l-752 -155 -458 -182 -458 -182 -33
-365 c-18 -200 -34 -365 -35 -366 -5 -3 -1144 -394 -1149 -394 -3 0 -9 33 -12
73 -4 39 -16 132 -27 205 -10 73 -19 134 -19 136 0 2 -843 -118 -1872 -265
l-1873 -269 -1155 -271 c-635 -148 -1162 -272 -1171 -275 -13 -4 -18 -26 -23
-122 l-7 -117 -1232 -149 c-678 -82 -1233 -150 -1233 -150 -1 -1 13 -233 31
-516 17 -283 30 -517 28 -519 -2 -3 -2147 -75 -2684 -91 -14 0 -18 -26 -29
-175 -8 -99 -18 -179 -24 -184 -6 -4 -306 -43 -666 -85 -723 -85 -5684 -686
-5686 -689 -7 -8 85 -690 94 -696 6 -3 97 -22 204 -40 l192 -34 1146 -734
c630 -404 1146 -736 1148 -738 2 -2 81 -251 176 -553 l172 -550 -60 -6 c-32
-3 -109 -6 -170 -7 -97 0 -170 -12 -566 -87 l-455 -88 -3 -1066 -2 -1067 52
-10 c29 -6 240 -46 468 -90 l415 -79 1659 -57 1659 -57 186 -112 c102 -61 270
-152 373 -201 103 -49 185 -91 183 -93 -2 -3 -824 -37 -1827 -78 l-1823 -73
-390 -85 c-214 -47 -400 -88 -413 -91 l-22 -5 0 -1488 0 -1487 418 -88 417
-89 1907 -77 c1050 -43 1910 -80 1913 -82 2 -3 24 -46 47 -96 40 -83 58 -106
222 -282 99 -105 184 -191 190 -191 6 0 160 -22 341 -50 292 -44 363 -51 612
-62 l283 -12 0 -358 0 -357 456 -151 456 -150 2152 0 2152 0 -131 -646 -131
-646 38 -181 c20 -100 37 -188 38 -194 0 -8 -13 -13 -31 -13 -17 0 -332 -32
-700 -70 -367 -39 -671 -70 -674 -70 -3 0 -5 -479 -5 -1065 l0 -1065 23 -5
c48 -10 1379 -145 1489 -151 l118 -6 0 -1668 0 -1668 -45 -11 -45 -11 2 -1922
3 -1921 44 -15 43 -14 -6 -1722 c-4 -946 -10 -1796 -14 -1888 l-7 -167 30 -5
c17 -3 633 -89 1370 -190 l1340 -186 3835 -245 c2109 -135 3864 -247 3900
-251 l66 -6 57 -466 c32 -256 59 -467 60 -467 29 -18 3060 -1027 4242 -1414
891 -291 2427 -793 3413 -1116 987 -323 1796 -585 1798 -582 3 3 175 402 383
888 208 486 581 1359 830 1940 l451 1056 173 7 c94 4 175 10 179 14 3 4 185
462 404 1017 218 556 400 1013 403 1017 3 3 330 54 726 113 396 59 720 107
721 108 0 1 99 259 219 572 121 314 224 573 229 577 6 4 306 141 667 303 l655
297 712 2186 712 2187 584 2307 585 2308 355 1597 356 1598 260 1580 260 1580
141 1710 141 1710 -65 1560 -65 1560 -207 933 -207 933 -308 622 -308 622
-447 500 -448 500 -536 333 c-294 183 -545 335 -556 337 -11 3 -328 52 -703
109 -376 58 -685 106 -686 108 -1 2 -86 184 -189 406 l-186 403 -81 307 c-202
761 -359 1259 -616 1949 l-106 286 -178 246 -177 246 -314 108 -314 107 -270
25 c-148 14 -281 29 -293 33 -20 6 -42 51 -136 282 l-113 275 31 6 c17 4 101
12 186 18 85 7 165 14 178 17 22 4 22 6 22 188 l0 184 -67 6 c-38 3 -171 11
-298 17 -126 6 -232 13 -234 15 -13 12 -81 191 -81 214 0 33 -34 28 475 70
209 17 390 33 403 36 22 4 22 6 22 188 l0 183 -72 6 c-40 3 -228 13 -418 22
-190 9 -354 20 -365 25 -11 5 330 9 775 10 l795 0 222 34 c122 19 228 38 235
42 13 8 286 211 300 223 4 3 17 81 29 173 l22 168 -38 147 c-21 82 -39 149
-40 151 -1 1 -60 25 -131 53 -110 43 -161 56 -349 89 -215 38 -235 40 -845 71
l-625 32 -147 84 c-131 74 -152 83 -195 82 -26 -1 -424 -10 -883 -20z"/>
</g>
</svg>
