<?xml version="1.0" standalone="no"?>
<!DOCTYPE svg PUBLIC "-//W3C//DTD SVG 20010904//EN"
 "http://www.w3.org/TR/2001/REC-SVG-20010904/DTD/svg10.dtd">
<svg version="1.0" xmlns="http://www.w3.org/2000/svg"
   viewBox="0 0 4436.000000 1560.000000"
 preserveAspectRatio="xMidYMid meet">
<metadata>
Created by potrace 1.16, written by Peter Selinger 2001-2019
</metadata>
<g transform="translate(0.000000,1560.000000) scale(0.100000,-0.100000)"
fill="#000000" stroke="none">
<path d="M11000 15544 c-696 -29 -1303 -53 -1349 -53 l-83 -1 5 -28 c3 -16 9
-112 13 -214 l7 -185 -24 -6 c-13 -3 -798 -159 -1744 -347 -946 -187 -1731
-344 -1745 -349 -14 -5 -215 -131 -448 -281 l-422 -272 0 -188 0 -188 -32 -11
c-18 -5 -181 -55 -363 -111 -181 -55 -337 -104 -345 -109 -11 -6 -18 -40 -27
-120 -6 -62 -13 -114 -15 -116 -2 -2 -390 -107 -863 -235 -473 -127 -890 -239
-928 -250 l-68 -19 -52 103 -52 103 -730 -248 c-644 -218 -741 -254 -818 -300
l-87 -52 7 -226 c5 -124 8 -359 8 -521 l0 -294 -420 -181 -420 -181 -3 -906
c-2 -857 -1 -907 15 -912 10 -2 68 -14 128 -26 88 -17 1101 -257 1167 -276 27
-8 38 -65 49 -274 6 -107 12 -196 13 -197 1 -1 301 -10 666 -20 l665 -18 3
-276 2 -276 -116 -54 -116 -54 6 -280 c3 -154 9 -476 12 -715 4 -239 9 -455
13 -479 l6 -44 106 -29 107 -30 3 -368 c2 -203 6 -370 9 -372 3 -3 604 3 1335
12 732 9 1331 15 1333 14 2 -1 7 -134 13 -295 5 -162 11 -312 14 -335 l6 -40
767 -112 767 -113 310 -10 c171 -6 320 -13 333 -15 20 -4 22 -10 22 -59 0 -46
3 -55 18 -55 9 0 106 7 214 17 109 9 201 13 205 9 4 -4 13 -123 21 -264 8
-141 16 -259 18 -261 2 -2 304 1 671 8 l668 11 145 -98 145 -99 1059 -8 1059
-7 -6 46 -7 46 43 1 c128 2 1861 77 1807 78 -36 1 -71 5 -78 9 -7 5 250 14
570 21 321 7 598 16 617 20 19 4 -541 17 -1245 29 -703 13 -1377 26 -1496 29
l-218 6 0 37 0 38 133 6 c72 3 402 11 732 16 330 6 614 13 632 16 l31 5 4 143
c1 80 5 147 8 150 3 3 68 8 143 12 l137 7 0 91 0 92 505 26 505 26 89 67 90
66 633 13 c401 8 561 14 438 16 -107 1 -379 6 -604 9 l-410 6 57 43 57 43 0
329 0 330 88 0 c49 0 177 3 285 7 l197 6 0 1414 0 1413 2578 0 c2446 -1 2601
-2 3057 -22 l480 -21 41 -39 40 -38 1514 -95 c1431 -90 1515 -94 1534 -78 12
10 42 37 67 61 l46 44 234 -11 234 -11 506 -172 506 -172 32 -190 c18 -105 33
-192 34 -193 2 -1 147 -57 322 -124 176 -67 325 -126 331 -133 7 -6 15 -27 18
-47 l6 -36 -182 -6 c-101 -3 -653 -18 -1228 -32 -575 -15 -1053 -30 -1064 -34
-10 -4 481 -17 1090 -30 610 -13 1168 -26 1239 -30 223 -11 -617 -40 -2005
-70 -810 -18 -1205 -30 -1130 -34 63 -3 741 -16 1505 -27 765 -11 1492 -23
1617 -26 l226 -6 9 -47 8 -46 593 -181 c326 -99 595 -183 598 -187 3 -3 10
-98 15 -212 6 -114 23 -334 38 -488 16 -155 28 -283 26 -285 -1 -1 -181 1
-400 5 l-398 8 6 -250 c4 -137 10 -314 13 -391 l7 -141 276 -7 c769 -19 2264
-46 2547 -46 176 0 531 3 787 7 l467 6 0 139 0 138 205 0 c178 0 205 -2 213
-16 9 -15 54 -16 509 -12 l500 5 18 -75 c11 -41 25 -76 32 -79 8 -3 138 11
290 31 166 22 278 33 282 28 4 -6 246 24 597 73 l591 83 1074 88 1074 87 682
274 c374 150 687 273 695 273 31 0 373 -230 675 -453 425 -315 868 -701 1171
-1020 165 -174 642 -773 639 -804 0 -11 128 -217 286 -459 l286 -439 185 -191
c179 -185 194 -204 427 -535 133 -189 247 -350 254 -358 11 -11 20 -9 58 13
l45 27 97 -243 c53 -134 118 -281 144 -328 58 -103 192 -412 200 -459 6 -32
28 11 238 455 315 665 419 939 623 1644 203 697 302 1252 387 2172 l37 403 -1
715 0 715 -48 498 c-26 275 -57 558 -69 630 l-22 132 -53 5 -54 5 -38 160
c-21 88 -38 168 -39 178 0 15 10 17 70 17 39 0 70 3 70 8 0 4 -21 79 -46 166
-34 120 -109 313 -302 780 l-256 621 -356 582 -355 582 -447 503 -448 503
-547 458 -548 457 -465 283 -465 283 -640 291 -640 291 -720 246 -720 245
-545 130 c-439 105 -651 150 -1090 230 l-545 99 -546 38 -546 37 -109 -82
c-60 -45 -110 -86 -112 -90 -1 -5 28 -28 65 -52 66 -42 217 -152 238 -172 7
-6 3 -8 -12 -5 -25 6 -28 -2 -39 -100 -4 -39 -12 -66 -20 -69 -8 -3 -265 43
-572 102 l-558 108 -287 -61 -288 -61 -67 -49 -67 -49 -630 83 c-552 73 -820
101 -2154 229 -837 81 -1524 145 -1526 143 -1 -2 -16 -140 -33 -307 -17 -167
-34 -306 -36 -309 -6 -5 -6732 176 -6812 184 l-52 5 -6 52 c-4 29 -11 66 -17
83 l-9 31 -467 6 c-256 4 -589 7 -739 7 l-273 0 -5 53 c-3 28 -8 216 -11 417
-4 200 -7 366 -8 367 -2 1 -1426 -18 -2176 -30 l-214 -3 7 106 c3 58 9 187 13
288 l6 182 -2354 -1 -2354 -2 -1265 -53z"/>
</g>
</svg>
