<?xml version="1.0" standalone="no"?>
<!DOCTYPE svg PUBLIC "-//W3C//DTD SVG 20010904//EN"
 "http://www.w3.org/TR/2001/REC-SVG-20010904/DTD/svg10.dtd">
<svg version="1.0" xmlns="http://www.w3.org/2000/svg"
   viewBox="0 0 4476.000000 1169.000000"
 preserveAspectRatio="xMidYMid meet">
<metadata>
Created by potrace 1.16, written by Peter Selinger 2001-2019
</metadata>
<g transform="translate(0.000000,1169.000000) scale(0.100000,-0.100000)"
fill="#000000" stroke="none">
<path d="M34095 11672 l-30 -17 28 -3 27 -3 0 -883 0 -883 -52 -7 c-29 -3
-445 -6 -925 -6 l-871 0 -44 -75 -43 -75 -133 0 c-114 0 -304 16 -419 35 l-33
6 0 -61 c0 -33 -3 -60 -7 -60 -21 0 -1336 149 -1338 152 -1 2 -21 40 -44 85
-29 59 -48 84 -64 88 -12 3 -201 47 -420 98 l-399 93 -160 204 -160 205 408 3
408 2 727 -70 c709 -68 904 -80 978 -60 20 5 55 14 78 20 l42 11 -6 52 c-4 40
-13 60 -37 85 -26 28 -36 32 -63 27 l-33 -6 0 56 0 55 -67 0 c-50 0 -79 6
-109 22 -43 23 -80 20 -107 -7 -13 -12 -70 -15 -379 -14 -199 0 -1087 -16
-1973 -35 -885 -20 -2260 -49 -3055 -66 -1664 -35 -3327 -98 -3810 -145 -202
-20 -3159 -215 -3256 -215 -20 0 -24 -5 -24 -29 0 -33 -14 -41 -75 -41 -39 0
-46 4 -65 35 -12 19 -29 35 -37 35 -12 0 -410 -74 -515 -96 -23 -5 -30 0 -53
39 -24 42 -27 44 -59 37 -31 -7 -34 -5 -60 41 -15 27 -34 49 -42 49 -9 0 -362
-65 -785 -145 -617 -116 -774 -142 -788 -133 -15 9 -123 -8 -537 -86 -285 -53
-521 -101 -524 -106 -3 -5 -25 -65 -48 -132 l-43 -124 -517 -98 -517 -98 -136
142 -136 142 -737 -131 c-405 -72 -741 -131 -746 -131 -5 0 -10 -28 -12 -62
-3 -59 -5 -63 -28 -66 -24 -3 -30 -14 -68 -130 l-42 -127 -512 -98 c-282 -54
-627 -119 -766 -146 l-253 -48 -29 58 c-27 53 -105 129 -132 129 -11 0 -3958
-750 -3979 -756 -14 -4 -18 -25 -24 -114 -4 -61 -8 -110 -9 -110 0 -1 -230
-44 -509 -98 l-508 -97 -584 -624 -585 -624 0 -108 0 -109 -60 0 c-59 0 -60 0
-80 40 l-20 40 -138 0 c-75 0 -409 -7 -742 -15 -333 -8 -633 -15 -668 -15
l-63 0 -18 -44 c-23 -53 -32 -56 -182 -56 -109 0 -121 -2 -188 -32 l-73 -32
-96 22 c-115 26 -126 27 -142 7 -11 -13 -76 -15 -471 -15 l-458 0 -3 48 -3 47
-145 3 -145 3 -160 61 c-88 33 -165 67 -171 74 -15 19 -40 18 -48 -2 -3 -9 -6
-36 -6 -60 0 -37 3 -44 20 -44 11 0 20 -4 20 -8 0 -5 18 -18 40 -31 47 -26 44
-42 -5 -34 -33 5 -35 4 -35 -25 0 -35 30 -59 80 -64 l34 -3 -59 -63 -58 -63
17 -36 c12 -25 20 -32 29 -26 139 106 140 107 200 115 64 9 107 -6 107 -37 0
-8 9 -15 20 -15 11 0 109 -67 219 -149 l200 -149 -319 -138 -320 -139 0 -77 0
-78 133 0 c72 0 149 -3 169 -6 l38 -7 0 -96 0 -96 -360 -110 -360 -110 0 -410
0 -410 656 -1041 657 -1041 236 -72 c210 -64 245 -71 317 -71 l81 0 74 60 73
60 351 0 350 0 76 -118 77 -117 107 -475 c58 -261 109 -485 112 -498 l5 -22
973 0 973 0 369 61 368 62 734 -12 733 -12 34 26 33 25 291 0 292 0 -6 25 -6
25 293 0 293 0 62 63 c39 39 62 71 62 85 l0 22 293 0 293 0 39 40 39 40 448 0
448 0 0 -128 0 -128 115 -48 115 -48 0 -211 0 -212 238 -198 237 -197 2696 6
2697 7 7 -22 6 -21 927 0 927 0 29 70 28 70 82 0 81 0 43 -69 42 -69 158 72
c86 40 337 155 557 256 394 180 401 184 466 247 l65 64 357 -7 357 -7 0 31 c0
31 1 32 43 32 23 0 59 -3 80 -6 32 -6 37 -10 37 -34 l0 -27 300 -7 299 -7 433
396 432 395 1022 0 c562 0 1024 4 1026 8 5 14 238 24 238 11 0 -12 497 -7 723
7 92 6 97 7 97 29 l0 22 -407 9 c-225 6 -409 6 -411 2 -5 -12 -226 -10 -238 2
-6 6 -351 11 -973 12 l-964 3 102 92 101 93 123 0 123 0 49 50 49 50 156 0
156 0 49 -50 49 -50 146 0 146 0 49 50 49 50 163 0 162 0 43 -50 43 -50 188 0
c183 0 192 1 288 31 90 28 99 33 99 55 l0 24 774 0 c426 0 781 3 790 6 9 3 16
12 16 20 0 21 807 21 824 0 9 -12 68 -12 421 -1 226 8 454 14 508 15 l97 0 0
68 0 68 -447 12 c-603 17 -579 17 -586 -10 -6 -20 -9 -21 -113 -15 -59 4 -241
7 -404 7 -280 0 -298 1 -302 18 -5 18 -32 19 -518 25 -282 4 -636 7 -787 7
l-273 0 0 29 c0 28 -3 30 -99 60 -55 17 -118 31 -142 31 -38 0 -54 8 -140 75
l-97 75 -496 2 -495 3 170 155 c94 85 175 165 180 178 5 13 9 38 9 57 0 31 47
76 780 749 l781 716 55 0 55 0 242 222 243 223 1195 647 1196 647 892 28 893
29 66 72 67 72 160 -39 159 -39 240 134 240 135 131 -3 130 -3 3 -56 c3 -54 5
-58 57 -102 35 -31 63 -47 81 -47 15 0 42 -11 60 -25 l33 -25 971 0 972 0 30
25 c16 14 42 25 58 25 19 0 46 15 83 47 45 38 57 54 61 85 3 21 9 56 12 78 7
47 24 54 24 10 l0 -30 87 0 86 0 -6 -349 -6 -348 33 -32 32 -31 160 0 161 0
55 58 56 58 283 -7 c156 -4 285 -7 286 -8 0 -1 33 -27 71 -59 l70 -59 179 -7
c98 -5 322 -7 498 -6 l320 2 26 24 25 24 690 0 689 -1 90 -161 c50 -88 98
-171 108 -183 9 -13 88 -75 175 -138 l157 -114 197 -42 196 -42 198 42 197 41
157 114 c87 62 163 121 170 130 8 8 39 59 69 112 l56 97 494 3 c274 1 499 6
505 11 6 5 229 12 496 16 l485 8 62 -76 61 -75 79 -6 c43 -3 168 -8 278 -12
198 -6 203 -7 563 -80 200 -41 370 -74 378 -74 10 0 -29 87 -119 265 l-133
265 759 0 759 0 50 -40 51 -40 153 0 153 0 -16 -46 c-8 -25 -12 -48 -8 -52 3
-4 59 -16 123 -27 l117 -21 117 21 c65 12 121 24 124 28 3 3 0 25 -8 49 l-15
43 -56 3 c-54 3 -57 4 -57 30 0 22 40 67 207 234 114 114 204 211 199 215 -4
4 -102 -87 -217 -204 -115 -116 -211 -209 -213 -205 -2 4 49 106 114 227 l118
220 7 143 8 142 -1651 0 -1650 0 -886 395 -886 395 -385 0 c-369 0 -385 1
-385 19 0 10 -20 34 -44 53 -36 28 -95 50 -327 122 -283 88 -284 89 -347 142
l-64 54 -335 0 c-264 0 -334 3 -331 13 3 6 157 434 344 950 l338 937 58 0 58
0 0 158 c0 134 3 167 21 221 12 34 18 65 14 69 -4 4 -893 9 -1976 11 l-1969 3
0 884 0 884 28 0 27 0 -30 20 c-36 24 -60 25 -100 2z m-32815 -5704 l0 -93
-88 -38 c-48 -20 -90 -37 -94 -37 -7 0 -330 231 -352 251 -6 5 106 9 262 9
l272 0 0 -92z m35668 -363 c42 -6 52 -11 52 -26 0 -18 -17 -19 -582 -19 l-582
0 29 30 29 31 501 -5 c275 -2 524 -7 553 -11z m230 -24 c1 -1 2 -5 2 -11 0 -6
-33 -10 -80 -10 -70 0 -80 2 -80 18 0 16 7 17 78 10 42 -3 78 -7 80 -7z"/>
</g>
</svg>
