<?xml version="1.0" standalone="no"?>
<!DOCTYPE svg PUBLIC "-//W3C//DTD SVG 20010904//EN"
 "http://www.w3.org/TR/2001/REC-SVG-20010904/DTD/svg10.dtd">
<svg version="1.0" xmlns="http://www.w3.org/2000/svg"
   viewBox="0 0 1849.000000 4923.000000"
 preserveAspectRatio="xMidYMid meet">
<metadata>
Created by potrace 1.16, written by Peter Selinger 2001-2019
</metadata>
<g transform="translate(0.000000,4923.000000) scale(0.100000,-0.100000)"
fill="#000000" stroke="none">
<path d="M1108 48748 c-152 -266 -340 -597 -418 -736 l-142 -253 423 -892
c232 -491 462 -973 509 -1073 l87 -180 149 -106 c82 -59 157 -113 166 -120 17
-12 16 -41 -17 -538 -19 -288 -31 -527 -27 -531 4 -3 266 -190 582 -415 l574
-409 839 -712 839 -711 794 -917 c714 -823 791 -915 762 -910 -25 4 -2290 255
-2304 255 -1 0 -37 -48 -80 -107 -76 -105 -79 -111 -171 -366 -51 -142 -91
-262 -88 -266 2 -5 447 -287 989 -627 l984 -619 67 -152 66 -151 197 -87 c108
-48 201 -91 205 -95 6 -5 -265 -878 -279 -898 -1 -2 -19 0 -39 4 l-38 7 7 86
6 86 -512 83 -513 83 -80 -23 -80 -24 -117 -379 c-65 -209 -118 -384 -118
-388 0 -4 100 -56 223 -116 122 -60 346 -169 498 -244 l277 -135 60 40 c52 34
65 38 96 33 20 -4 36 -12 36 -17 0 -5 -93 -297 -206 -649 l-206 -640 622
-1174 622 -1175 -21 -62 c-12 -35 -24 -89 -28 -120 -3 -32 -9 -58 -14 -58 -4
0 -215 43 -468 95 l-461 95 -902 96 -903 95 -465 8 c-418 7 -466 6 -477 -8
-10 -14 -85 -16 -740 -13 -450 2 -751 7 -788 13 -51 9 -107 5 -365 -25 -168
-20 -398 -52 -512 -73 l-208 -37 0 -161 c0 -89 3 -223 7 -298 l6 -135 166 -58
c91 -31 342 -127 556 -213 l390 -157 230 12 c127 7 249 13 273 13 l42 1 0
-110 0 -110 -283 0 -283 0 -59 -60 -59 -60 -68 0 -68 0 0 -735 0 -735 68 0 68
0 59 -60 59 -60 138 0 138 0 0 -108 0 -108 -503 -249 -504 -250 -32 -135 c-24
-104 -48 -286 -106 -793 -41 -361 -75 -663 -75 -671 0 -11 154 -220 349 -472
16 -21 18 -20 481 158 l465 180 240 38 240 39 60 -60 61 -59 2024 0 2025 -1
-25 -22 c-22 -19 -60 -28 -230 -54 -113 -18 -248 -35 -300 -38 -52 -3 -111 -8
-131 -11 -34 -5 -37 -3 -72 50 -21 31 -41 56 -45 56 -4 0 -431 -47 -947 -105
-846 -94 -1043 -119 -1970 -255 l-1030 -151 -475 -151 c-261 -82 -480 -156
-486 -163 -5 -8 -23 -97 -38 -200 -39 -263 -172 -825 -248 -1048 l-61 -178 12
-67 c9 -48 20 -76 40 -98 l29 -32 613 -7 614 -7 1099 -516 c1088 -510 1102
-517 1290 -639 l190 -123 123 0 c111 0 123 -2 122 -17 0 -10 -65 -76 -145
-147 l-144 -129 0 -697 0 -696 455 -504 455 -505 0 -326 0 -326 69 -62 69 -61
104 -1 103 0 -150 -53 -149 -52 -33 -85 c-51 -128 -51 -147 -6 -264 l39 -100
70 -7 c38 -4 263 -19 499 -32 237 -14 467 -28 512 -32 l82 -6 17 -43 c16 -43
17 -43 75 -50 l60 -7 876 -972 c482 -534 882 -978 890 -987 12 -14 3 -23 -70
-71 l-84 -56 -16 51 c-29 90 -1 92 -342 -26 l-307 -107 -106 50 c-59 27 -206
83 -326 125 l-219 76 -222 15 -221 15 -318 -65 -318 -65 -222 -107 c-208 -102
-234 -117 -451 -275 -201 -147 -251 -189 -398 -337 l-169 -169 11 -38 10 -39
-141 -188 c-132 -177 -140 -190 -122 -202 58 -41 170 -174 157 -186 -4 -4
-120 -31 -258 -60 -137 -28 -253 -54 -256 -58 -4 -4 -28 -73 -53 -154 l-46
-147 17 -96 17 -97 214 -231 c118 -128 224 -242 236 -255 l22 -22 219 20 c121
11 230 20 243 20 21 0 22 -3 22 -90 l0 -90 -84 -109 -84 -109 -3 -265 -4 -266
560 -605 560 -605 415 0 415 -1 218 -218 217 -217 0 -423 0 -422 -141 -248
c-114 -201 -150 -256 -194 -297 -30 -27 -111 -129 -180 -225 l-125 -175 -70
-216 -70 -217 0 -225 0 -225 33 -108 33 -109 -41 -77 c-23 -43 -43 -79 -46
-82 -2 -2 -65 5 -139 15 -74 10 -140 19 -147 19 -13 0 -64 -93 -218 -398
l-108 -214 77 -162 77 -163 -481 -939 -482 -939 153 -483 153 -484 -345 -690
c-312 -626 -347 -693 -381 -715 -31 -21 -55 -59 -143 -229 -95 -183 -105 -207
-99 -241 5 -33 -9 -75 -91 -286 -87 -224 -104 -285 -75 -275 5 2 73 107 151
233 130 212 153 244 170 245 4 0 -11 -34 -33 -75 -34 -65 -38 -81 -33 -118 6
-38 -3 -68 -89 -282 -52 -132 -96 -246 -98 -254 -2 -8 4 -16 13 -18 12 -3 55
58 159 226 108 173 151 234 175 247 26 14 49 51 133 220 89 179 102 211 103
257 0 48 24 100 313 677 l313 624 21 -64 c11 -36 37 -116 57 -178 l36 -113
-502 -997 c-463 -922 -505 -1000 -550 -1042 -46 -43 -71 -93 -580 -1175 -292
-621 -533 -1137 -536 -1146 -3 -9 6 -20 23 -27 14 -7 28 -11 30 -9 2 2 272
504 599 1116 583 1090 595 1113 595 1168 0 54 17 90 482 1013 l482 957 28 -85
27 -85 -628 -1256 c-528 -1053 -627 -1259 -619 -1277 8 -17 -17 -77 -145 -345
-135 -285 -152 -326 -139 -336 9 -7 21 -13 26 -13 6 0 86 143 177 318 132 251
171 318 188 320 15 3 35 29 71 96 59 110 79 131 115 122 21 -5 25 -11 20 -27
-4 -12 -70 -159 -147 -327 -103 -227 -136 -307 -126 -313 7 -4 13 -7 14 -6 27
35 454 845 454 862 0 2 -14 12 -31 20 -28 15 -32 15 -48 1 -10 -9 -32 -16 -50
-16 -29 0 -32 2 -25 23 4 12 221 452 484 977 l477 954 17 -52 c14 -41 22 -52
39 -53 12 0 83 -6 157 -13 74 -7 136 -12 137 -12 2 2 199 385 528 1027 l238
467 106 16 c58 9 141 21 183 27 l77 11 356 702 c196 385 360 705 364 709 4 4
65 12 135 16 70 5 128 10 130 12 2 2 74 142 159 310 l157 306 -75 87 c-41 48
-77 91 -80 96 -3 5 8 36 25 70 l30 60 334 0 333 0 136 353 135 352 625 3 625
2 -5 -39 c-5 -37 1 -49 107 -204 61 -91 119 -173 129 -183 10 -11 171 -93 359
-184 297 -144 342 -168 346 -190 3 -14 8 -162 11 -330 l6 -305 -85 -515 -86
-515 -195 -638 c-167 -546 -194 -644 -189 -679 7 -38 18 -50 213 -211 113 -94
258 -216 321 -272 301 -265 328 -285 374 -285 23 0 49 6 58 12 8 7 396 530
862 1162 l847 1148 136 254 c75 140 137 253 139 251 2 -2 -111 -302 -250 -668
-224 -584 -252 -665 -238 -673 10 -5 110 -62 224 -126 l206 -117 58 78 c32 44
63 79 68 79 6 0 185 307 397 683 376 665 398 707 882 1682 l495 1000 440 1060
c443 1066 588 1443 696 1805 30 102 136 437 236 745 l180 560 21 170 c19 154
44 258 255 1080 l235 910 214 1040 214 1040 80 665 c97 812 125 1069 118 1076
-9 9 -127 23 -317 38 -96 8 -176 13 -177 13 -1 -1 -52 -110 -113 -242 l-112
-240 -71 -519 c-40 -286 -73 -512 -75 -504 -2 8 62 604 142 1324 l145 1309 35
1010 36 1010 -40 1115 c-23 658 -48 1213 -59 1355 -11 131 -19 240 -18 241 1
1 80 -222 176 -496 96 -275 177 -503 180 -508 3 -5 78 -50 166 -100 l160 -90
190 10 c138 7 194 13 204 24 13 12 10 118 -24 816 l-39 803 83 475 c96 554 89
520 107 520 10 0 13 7 9 23 -3 12 -55 374 -115 805 -108 758 -116 808 -266
1574 l-155 792 -415 1495 -415 1496 -550 1500 -550 1500 -706 1440 -706 1440
-835 1365 c-830 1356 -1016 1644 -1059 1645 -16 0 -109 116 -374 462 -195 255
-580 750 -855 1101 -276 351 -520 666 -542 701 -23 34 -469 531 -993 1104
-842 921 -1014 1104 -1483 1575 -292 293 -552 546 -577 562 l-46 28 -58 -38
c-32 -22 -190 -161 -350 -311 l-291 -272 288 -791 c158 -435 288 -793 288
-795 0 -3 -105 99 -233 225 -128 126 -438 409 -689 629 l-456 400 -18 75 -19
75 -285 233 c-572 468 -511 424 -593 437 l-72 11 -407 307 c-282 213 -409 315
-412 330 -2 12 -8 43 -13 69 l-8 48 -1055 695 -1055 695 -79 0 -79 0 -422 255
c-232 140 -427 255 -432 255 -5 0 -133 -217 -285 -482z m15919 -31545 c-3 -10
-5 -2 -5 17 0 19 2 27 5 18 2 -10 2 -26 0 -35z m-11 -85 c-4 -29 -12 -60 -17
-68 -8 -11 -9 -6 -5 20 4 19 9 52 13 73 9 57 16 36 9 -25z m-12216 -12152 l12
-44 -337 -672 c-186 -369 -347 -682 -357 -696 -37 -46 -38 -24 -3 46 26 52 35
82 35 120 0 46 27 104 312 674 172 344 315 623 319 621 3 -3 12 -24 19 -49z"/>
</g>
</svg>
