<?xml version="1.0" standalone="no"?>
<!DOCTYPE svg PUBLIC "-//W3C//DTD SVG 20010904//EN"
 "http://www.w3.org/TR/2001/REC-SVG-20010904/DTD/svg10.dtd">
<svg version="1.0" xmlns="http://www.w3.org/2000/svg"
   viewBox="0 0 4870.000000 892.000000"
 preserveAspectRatio="xMidYMid meet">
<metadata>
Created by potrace 1.16, written by Peter Selinger 2001-2019
</metadata>
<g transform="translate(0.000000,892.000000) scale(0.100000,-0.100000)"
fill="#000000" stroke="none">
<path d="M3922 8535 c-1 -214 -5 -441 -9 -502 l-6 -113 -247 0 -248 0 -143
-232 -144 -233 -357 -130 c-197 -71 -362 -134 -367 -140 -5 -5 -57 -100 -116
-210 -59 -110 -108 -201 -109 -202 -1 -1 -386 -81 -856 -177 -470 -96 -865
-179 -877 -183 -27 -10 -443 -442 -443 -460 0 -10 46 -13 205 -13 l205 0 0
-243 0 -243 58 -57 58 -57 82 0 82 0 0 -149 c0 -104 4 -161 15 -190 l14 -41
-37 0 c-34 0 -46 -9 -130 -93 l-92 -92 0 -990 0 -990 91 -102 91 -103 194 0
194 0 0 -105 0 -105 110 0 110 0 0 105 0 105 540 0 540 0 0 -364 0 -364 225
-56 225 -56 760 0 760 0 0 -70 0 -70 -440 0 -440 0 -230 -56 -230 -56 0 -403
0 -404 38 -10 c20 -6 119 -30 219 -55 l182 -46 519 0 519 0 17 -57 c17 -57 19
-59 137 -145 l119 -88 510 0 510 0 0 -145 0 -145 759 0 758 0 7 46 c3 26 6 91
6 145 l0 99 563 0 562 0 93 93 92 92 0 443 0 442 281 -2 281 -3 64 -140 63
-140 702 0 703 0 144 262 144 263 451 0 452 0 125 -181 c143 -207 241 -309
352 -365 l68 -34 309 0 309 0 62 29 c112 53 208 151 354 362 l131 188 366 1
367 0 130 -188 c145 -209 238 -304 349 -361 l62 -31 311 0 310 0 63 29 c110
50 205 147 352 359 l131 187 385 3 385 2 129 -186 c146 -210 235 -302 347
-360 l68 -34 308 0 309 0 61 28 c33 15 96 59 141 97 66 57 104 105 213 262
l133 192 150 0 150 0 155 -224 c85 -123 161 -224 168 -225 27 0 1878 440 1902
453 14 7 310 233 659 500 l633 487 4004 0 4004 0 0 -105 0 -105 110 0 110 0 0
105 0 105 194 0 194 0 91 103 91 102 0 108 0 107 525 0 525 0 0 -102 0 -103
96 -107 95 -108 195 0 194 0 0 -105 0 -105 110 0 110 0 0 105 0 105 6600 0
6600 0 0 -105 0 -105 110 0 110 0 0 105 0 105 194 0 195 0 95 107 96 106 0
159 0 158 283 0 c690 1 786 4 765 25 -3 3 -192 6 -419 5 -228 0 -462 3 -521 6
l-108 7 0 378 0 379 878 1 c482 1 866 5 852 9 -14 4 -409 8 -877 9 l-853 1 0
414 0 415 -97 95 -98 95 -192 1 -193 0 0 30 0 30 -110 0 -110 0 0 -30 0 -30
-6600 0 -6600 0 0 30 0 30 -110 0 -110 0 0 -30 0 -30 -193 0 -192 0 -98 -98
-97 -97 0 -178 0 -177 -525 0 -525 0 0 183 0 182 -93 93 -92 92 -193 0 -192 0
0 30 0 30 -110 0 -110 0 0 -30 0 -30 -2033 0 -2034 0 -22 78 c-12 42 -29 101
-37 130 l-15 52 -55 0 -54 0 0 111 0 111 35 41 c32 37 35 46 35 104 l0 63 125
0 c116 0 125 1 125 19 0 15 -10 21 -40 26 l-40 7 0 88 0 89 40 11 c88 24 73
33 -390 265 l-430 215 -369 0 -368 0 -63 95 -63 95 -356 0 -356 0 -83 75 -83
75 -173 0 -173 0 -234 66 c-212 59 -237 68 -269 100 -35 34 -37 34 -125 34
-79 1 -116 8 -295 58 l-205 58 -3 45 c-3 40 -7 47 -46 72 l-43 27 -503 0 -503
0 -43 -27 c-43 -28 -44 -29 -44 -84 l0 -56 -167 -46 c-166 -47 -169 -47 -320
-47 l-153 0 0 104 0 104 -44 26 -45 26 -500 0 -500 0 -46 -27 -45 -28 0 -102
0 -103 48 -30 c46 -29 49 -30 185 -30 l137 0 93 -47 92 -48 172 -5 173 -5
-218 -60 -217 -61 -3 -122 -3 -122 -364 0 -364 0 -3 122 -3 121 -920 258 -920
258 -150 0 -150 0 -920 -258 -920 -258 -3 -171 -2 -172 -365 0 -365 0 -2 172
-3 171 -920 258 -920 258 -150 0 -150 1 -920 -258 -920 -259 -3 -121 -3 -122
-364 0 -364 0 -3 122 -3 121 -270 76 c-148 42 -275 80 -281 83 -6 4 -26 46
-44 93 -51 133 -25 125 -419 125 l-330 0 -249 70 -248 70 -147 0 -147 0 -445
-125 -446 -125 -661 2 -661 3 -49 110 c-26 60 -48 113 -48 117 0 4 312 8 693
8 l693 0 47 48 c45 45 47 50 47 103 l0 56 154 6 c169 6 186 11 222 71 16 28
16 30 -1 43 -11 7 -25 13 -32 13 -25 0 40 89 75 100 56 20 58 42 12 110 l-41
60 -705 0 -705 0 -37 -60 -37 -60 -70 0 -71 0 -49 115 -49 115 -587 0 -588 0
-3 33 -3 32 -82 3 -83 3 -1 367 c-1 202 -5 428 -8 502 -6 101 -8 37 -9 -255z
m21308 -3475 l0 -100 -165 0 -165 0 0 100 0 100 165 0 165 0 0 -100z"/>
</g>
</svg>
