<?xml version="1.0" standalone="no"?>
<!DOCTYPE svg PUBLIC "-//W3C//DTD SVG 20010904//EN"
 "http://www.w3.org/TR/2001/REC-SVG-20010904/DTD/svg10.dtd">
<svg version="1.0" xmlns="http://www.w3.org/2000/svg"
   viewBox="0 0 3691.000000 527.000000"
 preserveAspectRatio="xMidYMid meet">
<metadata>
Created by potrace 1.16, written by Peter Selinger 2001-2019
</metadata>
<g transform="translate(0.000000,527.000000) scale(0.100000,-0.100000)"
fill="#000000" stroke="none">
<path d="M796 5262 c-4 -6 168 -397 388 -884 l396 -873 -33 -3 c-17 -1 -300
16 -627 38 l-595 40 -55 55 -56 55 -107 0 -107 0 0 -93 0 -93 48 -47 48 -47
120 0 c104 0 123 2 137 18 10 10 17 26 17 35 0 13 6 16 22 12 39 -9 620 -116
683 -125 33 -5 186 -32 340 -59 206 -38 283 -56 292 -68 10 -13 17 -14 36 -6
18 9 71 2 238 -28 l214 -39 978 0 979 0 -204 -157 c-111 -86 -204 -157 -206
-159 -2 -1 50 -82 116 -181 114 -171 297 -472 290 -477 -2 -2 -86 -24 -188
-50 -102 -26 -192 -50 -200 -53 -9 -3 21 -18 70 -34 l84 -29 264 0 263 0 987
170 987 170 1315 0 1315 -1 374 76 c206 42 382 80 390 84 57 29 149 34 475 27
l331 -6 1575 -230 c866 -127 1585 -232 1598 -235 18 -5 22 -12 22 -45 l0 -40
-71 0 c-68 0 -75 -2 -121 -38 l-49 -37 503 -5 503 -6 1300 -370 c1225 -349
1301 -370 1326 -356 23 13 37 48 114 296 50 159 99 298 114 319 22 34 28 38
55 33 17 -4 32 -10 34 -14 18 -49 28 -57 97 -68 39 -7 139 -31 224 -54 121
-33 155 -39 162 -29 6 10 103 -9 449 -91 390 -93 438 -107 421 -118 -20 -14
-20 -15 9 -72 25 -49 34 -59 63 -64 63 -12 270 76 394 167 l61 46 264 -54
c345 -70 353 -66 68 35 l-180 65 2 79 3 79 109 46 110 46 95 181 96 182 80 11
c146 20 684 9 915 -19 41 -5 2386 -493 5210 -1085 2824 -593 5151 -1079 5171
-1082 35 -5 37 -4 44 27 4 18 3 35 -1 40 -5 4 -241 56 -524 114 -283 59 -523
110 -533 113 -28 7 -16 37 18 44 32 6 22 14 -25 22 -24 4 -24 4 3 6 34 1 26
21 -9 21 -21 0 -3584 748 -3651 766 -14 4 -23 2 -23 -5 0 -6 5 -11 10 -11 6 0
10 -7 10 -15 0 -8 5 -15 11 -15 6 0 9 -10 7 -23 -2 -17 -9 -21 -28 -19 -14 2
-351 72 -750 156 -661 138 -725 154 -725 171 0 14 8 21 27 23 24 3 26 5 15 23
-6 10 -20 19 -29 19 -10 0 -18 7 -18 15 0 9 10 15 26 15 14 0 23 4 19 10 -3 5
-21 10 -38 10 -64 0 -2164 406 -2871 556 -663 140 -748 160 -940 223 -116 39
-229 75 -251 80 -22 6 -49 17 -60 25 -18 13 53 14 595 9 l614 -6 123 -72 122
-72 -64 -34 c-38 -20 -59 -37 -52 -41 7 -3 1110 -9 2452 -12 1342 -4 3045 -11
3785 -16 740 -5 1814 -10 2386 -10 l1042 0 768 -155 c422 -86 770 -158 773
-160 4 -5 50 -598 51 -666 l0 -27 658 -6 c361 -3 782 -8 935 -11 l277 -6 0
258 1 258 34 39 34 39 52 -22 c35 -15 55 -19 62 -12 6 6 -21 25 -87 58 l-96
48 1 100 c1 55 4 145 8 200 l6 100 685 -216 c631 -199 685 -214 688 -196 2 11
-1 23 -7 26 -6 4 -315 106 -686 227 l-675 219 1 40 c0 22 6 126 12 230 l12
190 543 14 c298 8 542 17 542 21 0 8 -100 20 -165 20 -23 0 -68 9 -101 20 -51
18 -110 23 -434 36 l-375 16 -387 99 c-213 54 -390 99 -392 99 -3 0 -6 14 -8
32 l-3 31 -295 63 c-162 34 -296 61 -298 59 -2 -1 -6 -44 -9 -94 -6 -84 -8
-91 -27 -91 -12 0 -124 12 -251 27 l-230 27 -160 119 c-107 80 -209 168 -307
266 -139 137 -166 171 -135 171 6 0 856 14 1887 30 1031 16 1892 30 1913 30
l37 0 0 45 0 45 -1925 0 c-1918 0 -1925 0 -1925 20 0 19 -7 20 -264 20 l-264
0 -37 45 c-69 84 -72 85 -414 85 -224 0 -355 -5 -518 -20 -200 -19 -230 -25
-360 -65 l-141 -45 -197 0 -198 0 -489 95 -488 95 -293 0 c-633 0 -4329 50
-4767 65 -647 22 -1523 73 -1532 89 -4 7 -16 23 -26 36 l-18 22 -155 -21 c-85
-11 -190 -21 -234 -21 -146 1 -450 38 -1753 215 -950 128 -1319 175 -1392 175
l-100 0 -22 33 c-37 58 -84 82 -158 82 -74 0 -121 -24 -158 -82 l-22 -33
-2413 0 c-2265 0 -2447 1 -2972 21 -308 12 -591 21 -629 20 l-69 0 -187 108
-188 109 -454 35 -453 34 -250 -147 c-228 -134 -256 -148 -308 -152 -43 -3
-57 -1 -57 9 0 7 -7 13 -15 13 -8 0 -15 -7 -15 -15 0 -10 -10 -15 -30 -15 -16
0 -109 -5 -207 -11 -223 -14 -352 -42 -432 -96 l-56 -37 -2380 -493 -2380
-493 -1077 0 -1078 0 0 45 0 45 -290 0 -290 0 0 -45 0 -45 -382 0 c-378 0
-463 4 -452 21 3 5 -1 9 -8 9 -7 1 -85 2 -172 3 l-160 2 -417 875 c-230 481
-421 881 -426 889 -7 11 -11 12 -17 3z m11429 -2767 c512 -14 973 -30 1025
-35 52 -6 165 -20 250 -31 l155 -19 41 -45 c22 -25 47 -45 56 -45 35 0 48 -12
48 -46 0 -31 -3 -34 -30 -34 -36 0 -140 -38 -140 -51 0 -5 8 -9 18 -9 12 0 13
-3 5 -8 -9 -6 -2031 281 -2403 341 -53 9 69 6 975 -18z"/>
</g>
</svg>
