<?xml version="1.0" standalone="no"?>
<!DOCTYPE svg PUBLIC "-//W3C//DTD SVG 20010904//EN"
 "http://www.w3.org/TR/2001/REC-SVG-20010904/DTD/svg10.dtd">
<svg version="1.0" xmlns="http://www.w3.org/2000/svg"
   viewBox="0 0 4303.000000 1803.000000"
 preserveAspectRatio="xMidYMid meet">
<metadata>
Created by potrace 1.16, written by Peter Selinger 2001-2019
</metadata>
<g transform="translate(0.000000,1803.000000) scale(0.100000,-0.100000)"
fill="#000000" stroke="none">
<path d="M11413 18018 c-29 -10 -33 -17 -52 -87 -12 -42 -29 -106 -40 -142
-10 -37 -16 -71 -12 -77 3 -5 670 -195 1481 -422 811 -226 1481 -418 1489
-425 9 -9 11 -20 6 -32 -5 -10 -9 -31 -9 -48 l-1 -30 -590 -112 c-324 -62
-592 -112 -595 -112 -3 -1 -27 33 -54 74 -27 41 -53 75 -58 75 -5 0 -19 -7
-32 -15 l-24 -16 26 -65 c19 -47 23 -67 14 -73 -6 -4 -580 -114 -1274 -246
l-1263 -239 -290 -348 c-159 -191 -293 -348 -297 -348 -4 0 -709 -133 -1565
-296 l-1558 -296 -1415 -28 c-2027 -41 -2923 -58 -3942 -76 l-896 -15 -72 30
c-40 17 -81 31 -93 31 -11 0 -59 24 -106 53 -78 48 -146 77 -182 77 -22 0 6
-21 121 -90 58 -36 126 -86 151 -112 l46 -49 -133 -302 -133 -302 0 -325 0
-325 366 -225 c202 -124 493 -303 647 -397 l279 -173 69 0 c37 0 68 -2 68 -5
0 -17 -121 -111 -234 -182 -96 -59 -133 -88 -129 -98 13 -35 93 -9 218 69 59
37 143 85 188 106 l82 40 348 0 347 0 0 -30 0 -30 -205 0 -205 0 0 -662 0
-661 150 -229 150 -229 0 -499 0 -500 1183 0 1182 0 90 -113 90 -112 240 -3
240 -2 155 -165 155 -165 1020 0 1020 -1 3295 -208 3295 -208 1511 -687 c1321
-600 1517 -686 1559 -686 45 0 47 -1 41 -25 -3 -13 -9 -51 -12 -84 -7 -59 -6
-60 40 -120 26 -33 50 -62 54 -64 4 -3 198 -33 432 -67 234 -35 426 -64 428
-65 1 -2 -4 -42 -12 -91 -10 -67 -11 -92 -2 -100 14 -14 298 -56 308 -46 4 4
14 48 21 97 11 80 15 90 32 88 54 -7 1104 -164 1126 -169 15 -3 29 -13 32 -23
2 -10 304 -466 670 -1013 l665 -994 195 -418 195 -418 2333 -984 c1283 -542
2334 -986 2336 -987 1 -2 -196 -79 -438 -171 l-439 -169 0 -471 c0 -259 4
-476 8 -482 5 -8 752 -13 2699 -17 l2692 -6 3 31 3 31 140 -116 140 -116 438
-1 437 0 0 -140 0 -140 740 0 740 0 0 345 0 345 1295 0 c712 0 1295 3 1295 7
0 6 -221 749 -240 806 l-9 27 605 0 604 0 0 -120 0 -120 1931 0 1931 0 306
-165 c169 -90 314 -167 323 -170 13 -5 118 184 518 928 l501 934 0 60 0 61
141 -36 c81 -20 144 -31 149 -26 7 7 295 801 375 1035 l23 67 -206 72 c-114
40 -230 81 -258 92 l-52 19 29 76 c32 82 33 78 -24 109 -18 10 -26 21 -23 30
3 8 8 20 11 27 6 17 -2141 1253 -2564 1475 l-144 75 -56 -19 c-31 -10 -95 -41
-142 -69 -47 -27 -118 -65 -157 -84 -40 -19 -72 -40 -72 -46 0 -10 -220 -155
-235 -155 -2 0 -354 197 -782 438 -428 242 -788 444 -799 450 -21 11 -23 7
-59 -138 l-37 -150 -183 0 -183 0 -110 -116 -110 -117 -275 142 -276 141 -78
-15 c-43 -8 -82 -15 -86 -15 -4 0 3 19 17 43 l24 42 -56 144 -57 143 -1115
570 c-998 510 -1145 582 -1404 689 l-289 119 -129 0 -130 0 25 43 c13 23 35
72 47 108 l24 66 595 6 c328 4 1255 11 2061 17 806 6 1498 13 1538 16 l72 6 0
81 0 82 -207 -2 c-890 -11 -3985 -34 -3989 -30 -2 2 10 45 28 95 l33 92 202 0
202 0 14 28 c8 15 22 51 31 80 13 37 23 52 36 52 13 0 25 18 44 68 14 37 79
213 146 391 115 310 120 328 120 401 l0 76 -184 176 c-157 152 -185 175 -197
163 -8 -8 -149 -314 -314 -679 -165 -366 -301 -663 -302 -662 -2 1 71 249 161
551 l165 548 -36 43 c-41 51 -49 20 68 279 l77 170 39 0 c21 -1 61 -4 88 -8
l50 -8 28 187 c15 103 29 189 32 192 2 3 84 -7 181 -22 97 -14 179 -24 182
-21 12 11 112 719 104 727 -5 5 -88 21 -183 35 -96 14 -175 26 -175 27 -1 1
35 249 81 551 l83 550 -39 52 c-22 29 -39 55 -39 58 0 3 106 5 235 5 l235 0 0
105 0 105 -540 0 -540 0 0 25 c0 14 -5 25 -11 25 -6 0 -71 9 -146 21 -74 11
-142 19 -151 17 -11 -2 -19 -16 -22 -43 l-5 -40 -175 -3 -175 -2 -1240 185
-1240 185 -351 103 -352 102 344 3 344 2 0 25 0 25 -438 0 -437 0 -205 60
c-113 33 -206 60 -207 60 -2 0 -3 122 -3 270 0 232 -2 270 -15 270 -13 0 -15
47 -17 343 l-3 342 -42 3 -43 3 0 -80 0 -81 -817 0 c-626 1 -832 4 -878 14
l-60 13 53 22 c28 13 52 26 52 28 0 15 -96 223 -102 221 -4 -2 -91 -39 -193
-83 -156 -67 -185 -83 -181 -98 4 -15 0 -18 -17 -14 -156 37 -2915 578 -5517
1082 -1807 349 -3297 638 -3312 641 -19 4 -75 58 -185 180 -87 96 -162 174
-168 174 -5 -1 -39 -27 -74 -58 l-64 -58 157 -190 c130 -157 154 -190 139
-196 -20 -7 -345 -48 -386 -48 -23 0 -25 4 -31 68 -12 118 -16 130 -51 152
l-33 21 -174 -22 c-151 -19 -177 -25 -207 -48 -30 -23 -33 -28 -28 -66 3 -22
9 -70 13 -107 7 -68 7 -68 -19 -68 -24 0 -25 3 -37 104 l-13 104 -39 18 c-37
17 -45 17 -210 -4 -164 -20 -173 -23 -202 -51 l-29 -30 12 -97 c6 -53 10 -98
9 -99 -2 -1 -13 -5 -24 -9 -24 -7 -28 4 -40 127 -7 65 -9 70 -43 92 l-36 24
-178 -23 c-170 -21 -179 -24 -207 -52 -31 -31 -30 -24 -5 -197 5 -37 5 -38
-22 -35 -27 3 -28 5 -39 94 -13 105 -15 109 -55 130 -28 14 -45 14 -202 -6
-152 -20 -174 -25 -204 -48 -30 -24 -34 -31 -29 -62 3 -19 8 -67 12 -106 l7
-70 -109 -13 c-60 -6 -125 -14 -145 -17 l-35 -6 -18 178 c-10 99 -18 179 -19
180 -1 1 -84 -14 -185 -33 -100 -20 -185 -33 -189 -30 -3 4 -12 39 -19 79
l-13 73 52 50 c29 28 82 77 119 111 l67 60 11 90 c10 76 9 105 -7 197 l-17
109 -29 -6 c-21 -4 -28 -2 -25 7 23 62 51 198 43 205 -8 7 -2994 838 -3075
856 -8 2 -29 -1 -47 -6z"/>
</g>
</svg>
