<?xml version="1.0" standalone="no"?>
<!DOCTYPE svg PUBLIC "-//W3C//DTD SVG 20010904//EN"
 "http://www.w3.org/TR/2001/REC-SVG-20010904/DTD/svg10.dtd">
<svg version="1.0" xmlns="http://www.w3.org/2000/svg"
   viewBox="0 0 3613.000000 3957.000000"
 preserveAspectRatio="xMidYMid meet">
<metadata>
Created by potrace 1.16, written by Peter Selinger 2001-2019
</metadata>
<g transform="translate(0.000000,3957.000000) scale(0.100000,-0.100000)"
fill="#000000" stroke="none">
<path d="M11028 39376 l-667 -191 -1573 -3042 -1573 -3043 -787 0 -788 0 0
-60 c0 -56 -8 -77 -95 -263 -52 -111 -99 -201 -105 -200 -5 2 -100 61 -211
133 l-201 130 -902 0 -903 0 -21 -23 c-13 -14 -22 -36 -22 -55 l0 -32 -585 0
-585 0 0 -108 0 -107 177 -133 c169 -127 179 -132 225 -132 l48 0 -1 -622 0
-623 -255 -270 -254 -269 0 -243 0 -243 255 0 255 0 0 -305 0 -305 -340 0
-340 0 0 -50 0 -50 -890 0 -890 0 0 -275 0 -275 890 0 890 0 0 -718 0 -718
-130 -123 -130 -123 0 -314 0 -314 -760 0 -760 0 0 -270 0 -270 890 0 890 0 0
-65 0 -65 152 0 153 0 1560 -1559 1560 -1559 160 -66 161 -66 1502 0 1502 0
667 -642 c368 -353 1406 -1351 2308 -2219 l1640 -1578 111 -298 111 -298 -488
-3 -489 -2 0 -1340 c0 -737 3 -1340 6 -1340 3 0 1386 -182 3072 -404 1687
-223 3413 -446 3836 -496 l769 -91 1861 -914 1861 -914 661 -1381 c363 -759
663 -1383 666 -1386 4 -3 318 -146 699 -318 l694 -314 160 -363 c88 -200 868
-1990 1735 -3978 l1576 -3615 294 -47 c162 -26 1001 -160 1863 -299 863 -138
1572 -250 1577 -248 4 2 -1022 3798 -2279 8436 l-2287 8433 -385 294 -384 295
-850 0 -850 1 -620 899 -620 899 -112 1 -113 0 0 525 0 525 141 0 141 0 146
61 c81 33 152 65 157 70 6 6 71 204 145 442 l136 432 567 3 567 2 0 391 0 391
-180 188 -180 188 0 696 0 696 -83 0 -83 0 -67 68 -67 68 0 640 0 640 68 67
68 67 82 0 82 0 0 390 0 390 -410 0 -410 0 0 55 0 55 -589 2 -589 3 254 360
c225 319 257 361 286 368 18 4 499 68 1068 143 l1035 134 3554 120 3554 119
106 59 106 58 222 335 c123 184 224 338 226 343 2 5 39 5 90 0 l87 -10 56 146
c119 306 171 421 394 860 127 248 230 455 230 459 0 3 -203 95 -452 204 -403
178 -523 225 -1137 447 l-686 249 -835 210 c-764 192 -922 228 -1865 425
-1505 315 -3911 755 -6783 1241 l-2097 354 -969 121 c-887 110 -1058 128
-2025 214 -955 85 -1086 95 -1371 101 -173 3 -318 9 -322 13 -4 4 -476 1337
-1049 2962 -573 1625 -1043 2957 -1045 2959 -2 2 -272 61 -601 132 l-598 129
-1300 -1 -1300 -1 -667 -192z m-9298 -10296 c0 -7 -250 -10 -730 -10 -480 0
-730 3 -730 10 0 7 250 10 730 10 480 0 730 -3 730 -10z m0 -180 l0 -50 -730
0 -730 0 0 50 0 50 730 0 730 0 0 -50z m-210 -2660 l0 -50 -625 0 -625 0 0 50
0 50 625 0 625 0 0 -50z m210 -180 c0 -7 -250 -10 -730 -10 -480 0 -730 3
-730 10 0 7 250 10 730 10 480 0 730 -3 730 -10z m3440 -704 l1105 -383 3
-161 2 -161 875 -841 c481 -463 875 -843 875 -845 0 -3 -564 -5 -1252 -5
l-1253 1 -1395 1389 -1395 1389 665 0 665 0 1105 -383z m20497 -4048 c-2 -7
-43 -133 -91 -280 l-87 -268 -134 0 -135 0 0 280 0 280 226 0 c177 0 225 -3
221 -12z"/>
</g>
</svg>
