<?xml version="1.0" standalone="no"?>
<!DOCTYPE svg PUBLIC "-//W3C//DTD SVG 20010904//EN"
 "http://www.w3.org/TR/2001/REC-SVG-20010904/DTD/svg10.dtd">
<svg version="1.0" xmlns="http://www.w3.org/2000/svg"
   viewBox="0 0 4920.000000 1281.000000"
 preserveAspectRatio="xMidYMid meet">
<metadata>
Created by potrace 1.16, written by Peter Selinger 2001-2019
</metadata>
<g transform="translate(0.000000,1281.000000) scale(0.100000,-0.100000)"
fill="#000000" stroke="none">
<path d="M18432 12788 c-11 -13 -28 -51 -38 -85 l-17 -63 -514 0 c-506 0 -513
0 -513 20 0 20 -7 20 -3295 20 l-3295 0 0 60 0 60 -585 0 -585 0 0 -190 0
-190 -206 0 -207 0 -174 110 -174 110 -1078 0 -1078 0 -49 -126 -49 -126 -252
4 c-226 5 -253 4 -257 -11 -3 -9 -8 -42 -12 -73 l-6 -58 -137 0 -136 0 -153
-65 c-111 -48 -165 -65 -197 -65 l-45 0 0 90 0 90 -2690 0 -2690 0 0 -1090 c0
-960 2 -1091 15 -1096 13 -5 15 -62 15 -427 l0 -420 81 -138 c57 -97 87 -139
103 -143 159 -40 359 -76 422 -76 l74 0 0 -30 0 -30 -75 0 -74 0 -3 -87 -3
-88 -181 -39 -180 -39 -82 -138 -82 -138 0 -476 0 -477 82 -137 82 -137 171
-37 170 -37 473 0 472 0 0 -125 0 -125 -190 0 -190 0 0 -100 0 -100 -95 0 -95
0 0 -165 0 -165 285 0 285 0 0 -80 0 -80 475 0 475 0 0 -45 0 -45 -125 0
c-118 0 -125 -1 -125 -20 0 -19 -7 -20 -155 -20 l-155 0 0 -43 c0 -39 7 -49
94 -147 51 -58 121 -125 155 -150 l61 -45 0 -102 0 -103 -155 0 -155 0 0 -43
c0 -39 7 -49 94 -147 51 -58 121 -125 156 -150 l62 -45 -6 -270 c-4 -148 -3
-291 0 -317 7 -47 8 -48 41 -48 28 0 51 -14 129 -80 l95 -80 -575 0 -576 0 -1
-67 c-1 -38 -4 -79 -8 -92 -7 -26 4 -23 -283 -85 l-78 -17 -80 -134 -80 -133
0 -483 0 -482 76 -131 c42 -72 78 -133 80 -135 2 -3 82 -22 177 -42 142 -32
192 -38 285 -39 l112 0 0 -295 0 -295 310 0 310 0 0 -167 c0 -166 0 -168 37
-279 l37 -112 45 -14 46 -14 3 -101 3 -101 73 -7 c40 -4 500 -5 1022 -2 l949
4 155 61 155 60 3 40 3 39 122 6 c67 4 293 12 502 18 l380 11 308 96 307 95 0
179 0 178 -745 0 -745 0 0 100 0 100 328 0 c316 0 330 1 347 20 18 19 31 20
442 20 l423 0 0 25 0 25 500 0 c438 0 500 2 500 15 0 13 -24 15 -153 15 -85 0
-255 3 -379 7 l-225 6 -19 29 -19 28 -337 0 c-219 0 -338 -4 -338 -10 0 -6
-27 -10 -62 -10 l-63 0 -28 49 -27 50 27 45 28 46 62 0 c34 0 65 -4 68 -10 4
-6 128 -10 338 -10 l333 0 17 29 c22 38 50 41 450 41 284 0 327 2 327 15 0 13
-55 15 -439 15 -497 0 -561 4 -561 31 0 18 -17 19 -423 19 -410 0 -424 1 -442
20 -17 19 -33 20 -339 22 l-321 3 770 42 c667 36 772 40 786 27 33 -30 242
-18 860 51 321 36 589 66 596 67 7 2 96 92 198 202 l185 198 0 148 0 147 -154
95 -155 95 263 262 c158 158 266 259 270 252 5 -8 105 -11 334 -11 280 0 331
2 350 16 12 8 22 22 22 30 0 12 56 14 380 14 362 0 380 1 380 18 0 18 -17 19
-262 25 -145 4 -456 7 -692 7 l-430 0 32 33 32 33 0 172 0 172 199 0 200 0
110 200 111 201 0 119 0 118 93 21 c50 12 119 27 152 34 54 12 60 16 63 40 l3
27 -465 0 c-304 0 -466 3 -466 10 0 6 50 10 130 10 l130 0 0 184 0 184 268
226 267 225 1420 0 1420 1 185 -140 c161 -122 190 -140 223 -140 l37 0 0 -165
0 -165 483 0 483 0 34 35 c32 33 37 35 104 35 69 0 71 -1 163 -61 l93 -62 0
-181 0 -181 -95 -53 -95 -53 0 -182 0 -182 339 -339 339 -339 196 6 196 6 0
-49 0 -49 112 -3 112 -3 22 -75 21 -75 221 -3 c220 -2 222 -2 222 19 0 18 9
13 59 -32 58 -53 60 -55 60 -106 l1 -53 44 0 c49 0 56 -10 56 -87 l0 -43 -170
0 -170 0 0 -260 0 -260 2730 0 2730 0 0 35 0 35 2263 2 2262 3 3 68 c2 54 -1
75 -17 101 l-21 33 30 28 c29 27 30 33 30 112 l0 83 185 0 186 0 179 135 179
135 548 0 548 0 43 63 43 64 517 6 c284 4 604 7 710 7 l192 0 0 -65 0 -65 69
0 c69 0 69 0 130 53 34 28 61 58 61 65 0 9 68 12 305 12 l305 0 0 28 0 29
-802 6 c-442 4 -977 7 -1190 7 -252 0 -388 4 -388 10 0 6 12 10 28 10 17 0 63
25 130 71 96 66 102 72 102 105 l0 34 -440 0 -440 0 0 165 0 165 215 0 215 0
0 30 0 30 108 0 c126 1 142 8 142 67 l0 39 298 -4 299 -4 20 26 c21 26 23 26
144 26 68 0 235 3 372 7 222 6 247 8 247 23 0 15 -41 17 -487 24 -269 4 -510
10 -537 14 l-50 7 176 148 175 147 589 0 589 0 184 -140 c163 -124 188 -140
222 -140 l39 0 0 -171 0 -171 478 7 477 7 42 34 c38 31 47 34 108 34 l67 0
374 -245 374 -245 623 0 623 0 225 -165 224 -164 703 -1 702 0 0 -430 0 -430
-303 0 -303 0 -27 -28 c-26 -27 -27 -33 -27 -129 l0 -102 143 -121 144 -122 6
-149 7 -149 107 -125 108 -125 88 0 87 0 0 -65 0 -65 -230 0 -230 0 0 -93 0
-94 98 -6 c53 -4 137 -7 186 -7 l89 0 79 -50 79 -50 448 0 448 0 7 -92 c3 -50
6 -161 6 -246 0 -156 0 -156 -27 -184 l-27 -28 -173 0 -173 0 2 -197 3 -197
165 -121 c135 -99 166 -126 168 -148 2 -16 15 -36 33 -49 22 -16 29 -30 29
-55 l0 -33 718 0 717 0 617 607 618 606 0 339 0 339 90 212 c49 116 93 233 96
260 6 46 10 51 110 135 l104 87 0 117 0 118 -85 0 -85 0 6 73 c3 39 7 78 10
85 2 8 25 12 69 12 l65 0 0 43 c0 23 7 187 16 365 l16 322 -58 145 -59 144
-62 7 c-43 4 -63 11 -63 20 0 7 5 58 11 114 l12 100 73 0 74 0 0 85 0 85 290
0 290 0 0 165 0 165 -100 0 -100 0 0 100 0 100 996 0 997 0 183 137 184 138 0
96 0 96 659 8 c363 4 664 5 669 1 5 -3 22 -40 37 -83 15 -43 33 -83 39 -90 6
-6 265 -167 575 -357 l565 -346 129 0 c126 0 131 -1 177 -29 l48 -30 749 -6
c411 -3 1176 -13 1698 -21 l950 -14 555 -162 555 -161 63 -61 c62 -60 63 -61
192 -97 l130 -36 0 212 0 211 -88 250 -88 249 -254 435 c-220 379 -269 455
-377 593 -69 87 -123 160 -121 162 2 1 36 -2 75 -7 l73 -10 42 33 c24 18 47
36 51 40 5 4 -113 168 -262 364 l-271 357 -390 404 c-355 369 -433 444 -892
856 -404 362 -564 498 -813 691 -170 132 -327 254 -348 270 l-38 30 -39 -22
c-34 -19 -53 -21 -189 -21 l-152 0 -192 136 c-106 74 -193 139 -194 142 -1 4
20 25 46 47 53 44 135 155 123 166 -4 4 -268 154 -586 334 -484 273 -695 385
-1280 677 -386 193 -748 376 -806 408 -58 32 -298 146 -535 253 l-430 195
-730 247 -730 246 -670 174 -670 174 -755 140 -755 140 -627 71 c-344 39 -848
90 -1120 114 l-493 42 -66 -58 -66 -58 -196 -35 c-189 -34 -206 -35 -442 -35
l-245 0 0 -35 c0 -32 -2 -35 -30 -35 -27 0 -30 3 -30 34 l0 34 -142 6 c-79 3
-336 11 -573 16 l-430 11 -20 23 -20 23 -2125 26 -2125 25 -65 35 -65 35
-2238 5 -2239 6 -79 -39 -79 -40 -395 0 -395 0 0 -30 0 -30 -135 0 -135 0 0
30 0 30 -590 0 -590 0 0 -30 0 -30 -213 0 -214 0 -25 81 c-30 98 -57 123 -100
95 -19 -13 -32 -37 -49 -97 l-23 -79 -270 2 -270 3 -25 80 c-20 62 -32 83 -53
95 -26 14 -29 14 -52 -10 -13 -14 -33 -58 -45 -97 l-22 -73 -269 0 -269 0 -25
83 c-20 64 -31 86 -50 97 -42 22 -68 -4 -97 -99 l-24 -81 -270 2 -269 3 -23
75 c-22 71 -50 110 -77 110 -7 0 -22 -10 -34 -22z m-2437 -9228 c-32 -21 -41
-20 -32 5 4 8 18 15 34 15 l28 0 -30 -20z m-10575 -1355 l0 -45 -125 0 -125 0
0 45 0 45 125 0 125 0 0 -45z"/>
</g>
</svg>
