<?xml version="1.0" standalone="no"?>
<!DOCTYPE svg PUBLIC "-//W3C//DTD SVG 20010904//EN"
 "http://www.w3.org/TR/2001/REC-SVG-20010904/DTD/svg10.dtd">
<svg version="1.0" xmlns="http://www.w3.org/2000/svg"
   viewBox="0 0 4521.000000 999.000000"
 preserveAspectRatio="xMidYMid meet">
<metadata>
Created by potrace 1.16, written by Peter Selinger 2001-2019
</metadata>
<g transform="translate(0.000000,999.000000) scale(0.100000,-0.100000)"
fill="#000000" stroke="none">
<path d="M21045 9961 c-5 -25 -12 -31 -45 -36 -30 -5 -43 -14 -54 -36 -13 -27
-12 -31 14 -68 16 -21 33 -42 39 -46 14 -8 14 -90 1 -116 -7 -12 -21 -19 -40
-19 -17 0 -30 -4 -30 -10 0 -6 -138 -10 -395 -10 l-395 0 -4 -22 c-3 -13 -7
-32 -8 -43 -3 -20 -12 -20 -863 -23 -573 -1 -861 -6 -865 -12 -4 -6 -186 -91
-405 -190 l-399 -180 -1059 0 -1059 0 -139 132 c-77 72 -136 134 -132 138 4 4
109 33 233 65 l225 57 48 46 47 46 0 76 c0 75 -1 77 -38 113 l-38 37 -3264 0
-3264 0 -126 -70 -126 -70 -487 0 -487 0 0 -85 0 -85 -32 0 c-18 0 -44 9 -58
20 -25 19 -66 20 -3382 20 l-3358 0 0 -565 0 -565 -99 0 c-56 0 -103 -4 -106
-10 -3 -6 -26 -10 -51 -10 l-44 0 0 -880 0 -880 34 0 c18 0 45 -9 59 -20 21
-17 40 -20 124 -20 82 0 102 4 123 20 23 18 42 20 219 20 l195 0 88 -50 88
-50 325 0 325 0 0 -520 0 -520 -658 0 -659 0 -244 -170 -244 -170 -202 0
c-166 0 -203 -3 -203 -14 0 -7 -38 -32 -85 -54 l-85 -41 0 -953 0 -954 85 -42
c47 -23 85 -46 85 -52 0 -6 72 -10 198 -10 l198 0 251 -175 252 -175 1766 0
1765 0 62 -25 61 -25 812 0 812 0 341 110 340 110 491 0 491 0 0 130 0 130
295 0 295 0 0 -280 0 -280 340 0 340 0 0 -70 0 -70 1150 0 1150 0 0 35 0 35
245 0 245 0 0 -95 0 -95 210 0 210 0 0 -350 0 -350 1080 0 1080 0 0 -293 0
-292 933 -223 932 -222 613 0 612 0 0 685 0 685 515 0 515 0 0 -474 0 -475 29
-3 30 -3 -250 -420 c-137 -231 -249 -422 -249 -425 0 -3 20 -41 44 -85 l43
-80 89 -6 c49 -4 170 -7 269 -8 l180 0 185 309 c170 285 187 310 212 310 24 0
38 19 150 205 l123 205 468 0 469 0 -20 -32 c-102 -170 -472 -798 -477 -809
-2 -8 15 -50 39 -94 l43 -80 89 -6 c49 -4 170 -7 269 -8 l180 0 185 309 c170
285 187 310 212 310 24 0 38 19 150 205 l123 205 468 0 c258 0 466 -3 464 -7
-2 -5 -113 -190 -245 -414 -133 -223 -244 -412 -246 -420 -3 -7 14 -50 38 -94
l43 -80 89 -6 c49 -4 170 -7 269 -8 l180 0 185 309 c170 285 187 310 212 310
24 0 38 19 150 205 l123 205 55 0 c54 0 57 2 108 53 l52 53 0 72 0 72 694 0
694 0 25 30 26 30 993 2 993 3 -62 48 -61 47 -361 0 c-349 0 -361 -1 -361 -19
0 -19 -14 -19 -572 -14 -315 3 -574 10 -576 14 -2 5 -102 9 -221 9 -120 0
-387 3 -593 7 l-376 6 66 49 67 48 524 0 525 0 477 285 477 285 108 0 c106 0
110 1 166 34 l57 35 983 7 c541 4 1445 3 2010 -1 l1027 -7 3 -34 c3 -28 38
-71 228 -273 l225 -239 98 -1 97 -1 0 -60 0 -60 169 0 170 0 52 60 52 60 123
0 124 0 0 80 0 80 -334 0 -334 0 -72 80 c-55 61 -71 85 -68 104 3 22 11 16 73
-59 l70 -84 786 0 785 -1 117 85 117 85 394 0 394 0 106 114 c58 63 106 117
106 120 0 3 -666 6 -1480 6 l-1480 0 0 -44 c0 -42 -1 -44 -37 -50 -73 -12
-129 -7 -146 12 -26 28 -21 32 34 32 47 0 58 5 135 62 l84 62 0 138 0 138 960
0 960 0 0 -115 0 -115 1370 0 1370 0 0 30 0 30 249 0 c223 0 254 2 294 19 42
18 46 23 65 88 11 37 26 104 32 148 6 44 13 88 16 98 5 16 31 17 355 17 l349
0 0 65 0 65 455 0 455 0 0 -60 0 -60 230 0 230 0 0 60 0 60 220 0 220 0 0 -60
0 -60 230 0 230 0 0 60 0 60 215 0 215 0 0 -60 0 -60 230 0 230 0 0 60 0 60
503 0 c405 0 517 -3 580 -15 65 -12 193 -15 732 -15 l652 0 74 -30 74 -31 925
21 c509 12 935 24 948 26 12 2 22 10 22 17 0 6 42 36 94 64 l94 53 134 0 134
0 17 30 18 30 205 0 204 0 0 45 0 45 -197 0 c-153 1 -204 4 -223 15 -18 10
-62 14 -157 15 -73 0 -133 3 -133 8 0 4 -43 30 -95 57 -65 34 -95 56 -95 68 0
15 -13 17 -122 18 -220 1 -1068 29 -1266 42 -107 6 -199 9 -205 5 -7 -4 -311
-8 -677 -8 l-665 0 -50 30 c-46 27 -58 30 -142 30 -92 0 -93 0 -93 25 0 17 -9
30 -32 42 -33 18 -32 18 135 21 159 2 167 3 167 22 0 19 -7 20 -203 20 l-203
0 -47 30 c-46 29 -52 30 -161 30 -129 0 -126 -3 -126 93 0 30 -4 47 -12 48 -7
1 -854 2 -1883 3 l-1870 3 -233 41 -232 42 -355 0 -355 0 0 170 0 170 -195 0
-195 0 0 125 0 125 -29 0 -28 0 -5 368 c-3 202 -3 373 0 380 2 6 17 12 33 12
l29 0 0 120 0 120 45 84 c25 45 87 143 138 216 l92 133 110 -1 c61 -1 614 -7
1231 -13 l1120 -12 57 42 57 42 0 133 0 133 -122 6 c-66 4 -156 7 -200 7 l-78
0 0 200 0 200 28 0 c15 0 250 11 522 26 l495 26 37 42 37 41 1 218 0 218 131
-7 c87 -5 133 -4 137 3 9 13 255 32 448 35 l149 2 -190 6 c-263 10 -377 20
-394 37 -10 11 -36 14 -97 11 l-84 -3 0 38 0 37 -48 0 -49 0 -6 218 c-4 119
-7 274 -7 344 l0 126 323 128 c177 70 371 143 432 161 60 18 113 39 117 46 4
6 8 96 8 199 l0 186 38 6 c20 3 154 10 297 17 192 9 263 15 271 25 8 10 67 16
213 23 192 10 204 9 229 -9 27 -18 31 -18 297 5 149 13 280 24 293 25 16 0 22
6 22 22 l0 21 -830 -6 -830 -6 0 274 0 275 -97 0 c-54 0 -846 9 -1760 20
l-1663 20 -278 85 -278 84 -929 10 c-512 6 -1049 12 -1194 14 -281 3 -264 0
-296 51 -9 15 -170 19 -1607 46 l-1597 30 -404 -65 c-367 -59 -417 -65 -553
-65 l-150 0 -63 70 -62 70 -1336 0 -1335 0 -39 -31 c-37 -29 -39 -33 -39 -90
l0 -59 -2365 0 c-1570 0 -2365 3 -2365 10 0 6 -11 10 -25 10 -14 0 -34 9 -45
20 -12 12 -33 20 -55 20 -21 0 -35 5 -35 12 0 7 -35 48 -77 90 -53 54 -72 78
-59 78 10 0 20 -9 23 -20 4 -14 14 -20 34 -20 l29 0 0 85 0 85 -29 0 c-24 0
-31 -5 -36 -29z m-8581 -783 c-4 -7 -38 -50 -76 -95 -37 -45 -72 -92 -78 -105
-5 -13 -21 -86 -35 -163 -37 -199 -32 -185 -71 -185 -32 0 -34 -2 -34 -35 l0
-35 -165 0 -165 0 0 35 0 35 -90 0 -90 0 0 -35 0 -35 -415 0 -415 0 0 35 0 35
-85 0 -85 0 0 -35 c0 -30 -3 -35 -24 -35 -14 0 -89 -40 -168 -90 l-143 -89 -3
124 -3 125 -84 0 -85 0 0 -135 0 -135 -170 0 -170 0 0 135 0 135 -85 0 -85 0
0 -135 0 -135 -99 0 -100 0 25 61 c14 34 21 65 17 68 -5 3 -60 42 -122 86
l-112 80 713 3 713 3 520 264 520 265 378 0 c300 0 377 -3 371 -12z m705 -870
c1 -15 -8 -18 -49 -18 l-50 0 0 136 c0 113 3 139 18 158 17 23 17 22 49 -118
18 -77 32 -149 32 -158z m14311 -3523 l0 -425 -30 0 -30 0 0 425 0 425 30 0
30 0 0 -425z m598 -2 c-1 -236 -4 -386 -5 -335 l-4 92 -179 0 -179 0 -4 -92
c-1 -51 -4 99 -5 335 l-2 427 190 0 190 0 -2 -427z m842 2 l0 -425 -310 0
-310 0 0 425 0 425 310 0 310 0 0 -425z m1060 0 l0 -425 -445 0 -445 0 0 425
0 425 445 0 445 0 0 -425z m1050 -80 l0 -505 -205 0 -205 0 0 80 0 80 -235 0
-235 0 0 425 0 425 440 0 440 0 0 -505z m3090 247 c0 -143 -3 -314 -7 -380
l-6 -122 -29 0 -28 0 0 -125 0 -125 -574 0 -575 0 -12 35 -13 35 -278 0 -278
0 0 135 0 135 -185 0 -185 0 0 -135 0 -135 -215 0 -215 0 0 135 0 135 -155 0
-155 0 0 335 0 335 1455 0 1455 0 0 -258z m-21630 -202 l0 -130 -442 1 c-244
0 -438 3 -433 5 6 2 145 60 310 129 l300 124 133 1 132 0 0 -130z m13028
-2585 c-2 -8 -181 -121 -398 -250 l-394 -235 -445 0 c-247 0 -441 4 -436 9 33
29 476 284 501 288 18 3 117 49 220 104 l189 98 383 0 c337 1 383 -1 380 -14z
m-1608 -299 c0 -2 -7 -7 -16 -10 -8 -3 -12 -2 -9 4 6 10 25 14 25 6z"/>
</g>
</svg>
