<?xml version="1.0" standalone="no"?>
<!DOCTYPE svg PUBLIC "-//W3C//DTD SVG 20010904//EN"
 "http://www.w3.org/TR/2001/REC-SVG-20010904/DTD/svg10.dtd">
<svg version="1.0" xmlns="http://www.w3.org/2000/svg"
   viewBox="0 0 4620.000000 3066.000000"
 preserveAspectRatio="xMidYMid meet">
<metadata>
Created by potrace 1.16, written by Peter Selinger 2001-2019
</metadata>
<g transform="translate(0.000000,3066.000000) scale(0.100000,-0.100000)"
fill="#000000" stroke="none">
<path d="M21775 30648 c-2 -7 -38 -677 -79 -1488 l-75 -1475 -40 -104 -41
-105 -6 -611 -7 -610 42 -78 43 -78 -4 -257 -4 -257 -34 -80 -33 -80 -97
-1165 -97 -1165 29 -30 c24 -27 28 -39 28 -92 0 -117 -9 -149 -46 -169 l-34
-19 0 -180 0 -180 45 -30 c24 -16 43 -30 42 -32 -2 -1 -135 -14 -297 -29 -162
-14 -298 -29 -301 -33 -3 -3 -93 -174 -199 -379 -147 -282 -199 -374 -214
-377 -58 -13 -1220 -225 -1221 -223 -1 2 -25 54 -55 116 -29 61 -58 112 -64
112 -6 0 -54 -11 -106 -25 -52 -13 -95 -23 -96 -22 -1 1 -14 47 -30 102 -15
55 -28 101 -30 103 -1 2 -32 10 -68 19 -57 13 -69 19 -82 45 l-16 31 56 56 55
56 -138 369 -139 370 -55 50 -56 51 -261 820 c-212 665 -266 824 -285 840 -17
14 -58 109 -138 315 -100 257 -138 338 -137 288 1 -7 24 -150 53 -318 37 -215
50 -312 44 -330 -7 -19 39 -229 193 -874 l201 -848 -23 -61 -24 -61 73 -389
c39 -214 75 -392 78 -396 4 -3 32 -13 63 -22 56 -15 57 -16 60 -54 3 -34 -2
-43 -42 -84 l-45 -46 25 -99 c18 -71 22 -101 14 -106 -6 -4 -47 -15 -92 -25
l-80 -19 6 -40 c3 -23 8 -84 12 -136 l6 -95 -278 -99 c-154 -54 -320 -114
-371 -132 l-91 -33 -102 134 c-115 151 -94 143 -217 82 l-68 -35 -125 210
c-135 226 -121 212 -190 193 -10 -3 -98 114 -280 370 -164 232 -271 375 -281
375 -9 0 -21 -6 -26 -12 -7 -9 32 -154 122 -453 l131 -440 -31 -25 -32 -25 77
-231 77 -231 -108 -54 c-60 -29 -109 -56 -109 -58 0 -3 19 -70 42 -148 23 -79
39 -145 37 -146 -2 -2 -218 -126 -479 -276 l-476 -272 -427 -309 c-236 -170
-454 -332 -485 -361 -31 -29 -141 -130 -244 -226 l-188 -175 -240 176 c-132
97 -243 176 -246 176 -3 0 -560 -355 -1238 -789 -859 -550 -1325 -855 -1536
-1005 l-304 -216 -500 0 -501 0 -77 146 -76 145 69 217 69 217 0 133 0 132
-50 0 -49 0 -22 50 -21 50 -152 0 -151 0 -38 568 c-21 312 -38 573 -37 580 0
7 -12 12 -30 12 -17 0 -30 -5 -30 -12 1 -31 -71 -1086 -76 -1115 l-5 -33 -74
0 -73 0 -36 -50 -36 -50 -65 0 c-64 0 -71 -3 -363 -149 -269 -134 -326 -168
-607 -354 l-310 -205 -166 -169 c-140 -141 -196 -208 -353 -420 l-187 -253
-17 -80 c-9 -44 -21 -80 -25 -80 -5 0 -327 97 -716 217 l-706 216 -399 -37
c-220 -20 -402 -33 -406 -29 -4 4 -96 225 -205 490 l-199 481 -86 50 c-130 76
-193 85 -480 72 -306 -15 -359 -29 -458 -119 l-71 -66 -44 -528 c-24 -290 -46
-529 -49 -532 -3 -3 -426 -45 -942 -93 l-936 -87 0 -1525 0 -1526 -270 -41
-270 -41 -69 -59 -70 -58 0 -591 -1 -592 64 -56 c35 -30 74 -59 87 -64 13 -5
136 -29 273 -53 206 -36 250 -47 254 -61 2 -10 5 -18 6 -18 0 -1 630 -43 1399
-95 770 -51 1400 -95 1402 -97 2 -2 33 -415 69 -918 36 -503 68 -934 72 -957
4 -37 9 -43 29 -43 18 0 26 7 29 23 3 12 34 438 71 947 36 508 67 925 68 927
6 5 517 -33 523 -40 6 -5 179 -2115 184 -2224 0 -8 14 -13 38 -13 l37 0 83
1058 c46 581 86 1079 89 1106 l6 49 132 -7 131 -7 372 185 373 185 237 202
237 201 5 -464 c5 -461 5 -463 29 -515 l24 -53 357 0 358 0 4 -35 4 -35 -271
0 -270 0 -23 -55 c-22 -55 -22 -60 -22 -544 0 -476 1 -490 21 -540 l22 -51
376 0 377 0 12 -70 c7 -39 12 -77 12 -85 0 -13 -29 -15 -192 -15 l-193 0 -117
-101 -118 -100 0 -179 0 -179 118 -100 117 -101 1059 3 1059 2 30 107 29 107
52 5 c28 3 607 28 1286 56 679 28 1286 53 1348 57 l112 6 0 37 0 37 -112 6
c-62 4 -669 29 -1348 57 -679 28 -1258 53 -1286 56 l-52 5 -29 107 -29 107
-82 3 c-79 3 -82 4 -77 25 3 12 102 537 220 1167 118 630 217 1155 220 1168 5
21 10 22 106 22 l100 0 20 -35 21 -35 149 0 149 0 0 -65 c0 -58 2 -65 19 -65
11 0 149 -14 306 -30 l286 -30 181 -136 c366 -276 598 -476 1229 -1059 l627
-580 711 -489 c391 -268 720 -490 730 -493 18 -5 38 9 153 110 38 33 72 56 78
52 6 -4 129 -90 272 -192 336 -238 749 -474 1168 -669 157 -73 288 -129 291
-126 7 7 259 589 259 598 0 2 -20 13 -45 24 -25 11 -45 22 -45 25 0 3 30 63
68 133 l67 128 33 -9 32 -10 0 -68 0 -67 93 -6 c90 -5 2383 -37 2645 -36 l132
0 0 70 0 70 130 0 130 0 0 305 0 305 173 0 174 0 16 -142 c10 -79 22 -191 29
-250 l11 -108 243 0 242 0 6 -282 c3 -156 13 -926 21 -1713 8 -786 18 -1616
21 -1843 l7 -412 213 0 214 0 0 98 c0 121 39 3480 41 3507 0 11 9 -5 18 -35
12 -39 22 -56 36 -58 63 -9 65 -11 65 -51 0 -43 -2 -42 122 -57 l57 -6 3 -137
3 -136 151 -9 151 -9 6 -1145 6 -1146 71 -102 70 -103 0 -1110 0 -1111 25 0
c23 0 25 -4 26 -47 0 -27 19 -480 43 -1008 32 -736 44 -937 49 -860 3 55 22
489 42 965 33 808 41 957 50 948 2 -1 36 -739 77 -1638 53 -1188 75 -1608 79
-1535 4 55 38 792 75 1638 l69 1537 32 0 33 0 0 1111 0 1111 70 101 70 101 0
453 c0 249 3 453 6 453 15 0 774 71 810 75 l40 6 47 -129 48 -129 90 15 c113
19 132 9 74 -41 l-38 -33 102 -424 101 -425 57 -57 57 -58 28 -196 27 -196
-30 -73 -31 -73 71 -447 c39 -246 74 -452 78 -459 4 -6 31 -41 60 -78 l54 -68
223 -1060 c122 -583 225 -1063 229 -1066 3 -4 17 -4 31 0 21 5 24 10 20 43 -3
21 -39 508 -80 1083 l-76 1045 32 98 c31 92 32 100 22 165 -6 37 -39 240 -73
451 l-62 384 -52 56 -51 56 -34 193 -34 194 29 51 c16 29 36 64 44 79 14 24
13 61 -18 415 -44 523 -35 472 -88 495 -28 12 -43 25 -43 37 0 15 15 20 90 31
68 10 93 18 100 31 6 10 10 56 10 103 0 81 1 86 23 91 182 43 1184 265 1196
265 10 0 41 -43 79 -110 35 -61 67 -110 70 -110 4 0 56 18 117 40 60 21 110
38 111 37 0 -1 17 -44 38 -95 l36 -93 -16 -55 -16 -55 137 -307 c75 -169 143
-316 150 -328 7 -11 32 -26 55 -34 50 -17 19 44 376 -720 147 -316 273 -578
278 -582 6 -4 14 -4 18 0 6 6 -316 1314 -336 1368 -3 6 11 35 30 63 l35 51
-94 342 -94 343 -48 35 c-46 34 -50 41 -75 131 l-27 94 93 34 94 34 -1 41 c0
22 -6 73 -13 112 l-12 71 326 126 c180 70 331 127 337 127 5 0 38 -61 73 -136
79 -172 624 -1126 647 -1135 10 -4 219 -347 467 -768 413 -702 450 -761 475
-761 23 0 35 -17 126 -183 97 -177 100 -184 100 -246 l0 -64 58 -36 59 -36
423 -760 c305 -547 429 -761 443 -763 58 -9 54 1 -344 819 l-386 793 6 67 7
67 -53 25 -53 24 -97 185 c-54 101 -98 188 -98 192 0 4 9 20 20 36 l20 28
-395 785 c-348 690 -394 788 -385 809 9 20 -21 84 -251 528 -144 278 -292 552
-329 610 l-67 104 119 47 c94 37 211 102 549 305 255 152 433 253 437 247 4
-5 63 -85 132 -176 l125 -167 62 0 c58 0 63 -2 69 -25 3 -13 1 -47 -6 -74
l-11 -49 253 -314 253 -314 60 -18 60 -18 364 -394 c200 -217 367 -394 372
-394 15 0 40 33 35 45 -2 7 -129 215 -281 462 l-277 448 6 62 7 63 -231 327
c-245 348 -237 339 -321 342 -53 2 -61 16 -43 84 8 32 11 63 7 70 -4 7 -57 77
-117 156 -105 138 -108 144 -90 161 11 9 138 117 284 240 146 123 273 229 282
237 15 13 34 4 180 -89 90 -58 169 -108 176 -112 9 -5 32 10 68 44 48 46 57
50 72 38 9 -7 309 -276 666 -598 358 -322 660 -593 673 -603 22 -17 23 -17 62
9 35 23 42 24 59 12 10 -7 657 -539 1436 -1183 1394 -1149 1440 -1186 1467
-1157 30 31 16 46 -1276 1286 -710 681 -1314 1262 -1344 1292 l-55 53 28 51
c20 36 25 54 18 63 -6 7 -308 275 -671 597 l-660 585 68 70 c40 42 134 167
231 310 89 132 168 246 175 254 11 11 35 1 152 -66 l138 -79 3 -115 3 -115
549 -231 549 -230 73 74 c40 40 76 73 80 73 19 0 1128 -573 1128 -583 0 -6
-15 -56 -32 -111 -19 -57 -29 -101 -23 -103 6 -2 1339 -653 2963 -1447 l2954
-1444 44 26 c43 26 44 28 44 77 l0 50 -2582 1700 c-1419 935 -2660 1751 -2755
1814 l-175 114 -66 -71 -67 -71 -525 340 c-289 187 -529 344 -534 349 -5 5 3
50 17 104 l25 96 -466 351 c-257 194 -472 356 -479 361 -8 7 -44 -9 -108 -48
-93 -55 -97 -57 -123 -42 -150 85 -223 131 -220 138 11 31 305 520 313 520 5
0 274 -102 598 -226 324 -124 590 -224 591 -222 2 1 18 26 37 54 l34 50 373
-114 373 -115 -5 -26 c-16 -84 -17 -109 -4 -113 7 -3 698 -189 1536 -413 1473
-394 1523 -407 1542 -390 23 20 26 57 8 73 -16 12 -2873 1312 -2885 1312 -4 0
-21 -20 -37 -45 -20 -32 -33 -44 -45 -40 -9 2 -169 69 -356 148 l-340 144 0
63 -1 64 -593 203 c-326 111 -595 204 -598 207 -2 2 46 190 109 417 l113 414
293 105 292 104 0 237 0 237 28 6 c15 3 197 17 406 33 l378 27 81 98 81 98 66
0 c36 0 585 16 1220 35 635 19 1157 32 1161 27 3 -4 16 -56 27 -117 l21 -110
69 -65 c38 -36 111 -104 163 -151 l94 -86 190 -51 190 -51 490 -12 490 -13
135 47 c74 25 184 56 245 68 l109 22 217 143 217 143 214 7 214 7 19 -62 18
-61 1026 0 c965 0 1086 2 2031 34 553 19 1599 53 2325 76 726 23 1336 44 1355
47 30 4 -18 23 -313 124 l-349 119 -1026 211 -1027 211 -1025 119 -1025 119
-1038 50 -1038 50 -902 -10 c-496 -5 -957 -10 -1024 -10 l-123 0 0 -110 0
-110 -139 0 -140 0 -38 78 -38 77 -1529 46 -1530 45 -50 59 c-28 33 -67 76
-86 97 l-35 37 -340 26 c-187 14 -368 28 -402 31 l-63 6 0 234 c0 149 -4 234
-10 234 -6 0 -10 28 -10 64 0 62 1 65 28 70 15 3 252 33 527 67 286 35 503 67
507 73 4 6 8 25 8 41 l0 30 228 39 c125 21 236 39 246 39 14 2 23 -9 33 -41
11 -32 19 -42 31 -38 10 2 474 106 1032 231 558 124 1021 229 1029 233 24 14
30 46 12 69 l-16 21 -1030 -69 c-566 -37 -1047 -69 -1067 -69 -38 0 -38 -1
-38 -40 0 -22 -1 -40 -2 -41 -2 0 -114 -12 -250 -27 l-247 -28 -14 36 -14 37
-504 -78 c-277 -43 -511 -78 -520 -79 -15 0 -20 11 -46 105 -5 18 -4 18 20 -3
l25 -24 176 92 177 92 522 134 c287 73 531 138 543 143 11 5 26 26 33 48 l13
39 670 234 c376 131 672 240 675 248 3 7 2 17 -3 21 -5 5 -322 -49 -704 -119
-577 -106 -698 -125 -715 -115 -11 6 -29 18 -40 25 -18 10 -97 -8 -561 -129
-406 -106 -555 -141 -601 -141 -33 0 -122 -3 -197 -7 l-137 -6 -29 -64 c-35
-77 -55 -81 -132 -26 l-51 37 -189 -48 c-104 -27 -191 -47 -193 -44 -13 13
-55 142 -48 148 4 4 109 30 233 59 124 28 234 54 246 57 15 4 37 -8 80 -44
l59 -50 1435 659 c788 362 1440 661 1446 663 8 3 17 -10 25 -32 6 -20 15 -40
18 -45 7 -7 593 208 2121 778 350 130 1140 444 2138 847 870 353 1581 642
1580 644 -2 1 -442 -63 -978 -142 l-975 -144 -700 -181 c-668 -172 -731 -191
-1390 -404 -592 -191 -786 -259 -1355 -475 -366 -139 -668 -256 -673 -259 -4
-4 4 -38 18 -75 19 -50 22 -68 13 -71 -7 -3 -694 -205 -1527 -450 -833 -245
-1515 -446 -1517 -447 -1 -2 -8 -36 -16 -77 l-13 -74 -110 -59 c-60 -32 -165
-88 -231 -123 l-122 -64 -32 90 c-18 49 -35 91 -39 93 -3 2 -63 -13 -132 -34
l-125 -37 -88 208 c-84 198 -93 215 -203 365 -63 86 -111 160 -106 165 4 4 80
48 168 97 l160 88 -3 70 c-3 65 -2 70 26 97 l30 29 67 -43 c60 -38 70 -41 89
-29 11 7 154 111 316 231 l295 217 20 58 20 58 895 577 c654 422 896 583 898
598 2 14 87 81 255 203 139 100 254 183 256 185 3 2 0 8 -6 14 -8 8 -86 -29
-282 -135 -189 -102 -278 -145 -294 -141 -16 3 -283 -140 -956 -513 l-934
-518 -61 8 -61 8 -345 -174 -345 -174 -5 -78 -5 -78 -34 -9 c-29 -7 -43 -3
-92 23 l-58 31 -181 -121 -180 -120 -64 87 c-35 49 -122 168 -193 266 -111
152 -146 192 -249 283 -65 58 -130 116 -142 129 l-24 22 329 344 330 345 -33
43 -34 43 38 52 c20 29 46 64 57 79 15 21 47 36 135 65 l115 39 251 289 c229
263 254 289 281 288 29 -2 34 6 139 188 l109 190 1008 1146 c1002 1139 1018
1158 993 1189 -21 26 -85 -33 -1142 -1057 l-1100 -1065 -177 -110 c-170 -106
-177 -111 -174 -141 2 -28 -20 -50 -283 -291 l-285 -261 -41 -109 -41 -108
-77 -59 -77 -58 -39 26 c-22 14 -44 26 -49 26 -5 0 -162 -155 -349 -345 l-340
-345 -248 221 c-137 122 -248 226 -246 231 1 5 66 103 144 218 l142 210 -21
22 -21 23 84 119 85 120 -29 29 -29 28 123 302 c111 272 121 303 107 315 -9 6
-22 12 -29 12 -6 0 -111 -103 -233 -229 l-222 -230 -41 15 c-33 11 -43 12 -50
2 -4 -7 -38 -61 -74 -121 -66 -106 -67 -107 -99 -101 -32 6 -32 6 -185 -213
-84 -120 -156 -222 -160 -226 -4 -4 -183 96 -398 224 l-392 231 32 58 32 58
-25 58 -25 59 47 102 c52 111 48 109 154 115 l40 3 105 242 105 242 53 23 54
23 144 332 144 332 -22 45 -22 45 160 337 c87 186 234 495 325 688 175 371
180 386 119 386 -22 0 -73 -74 -440 -635 -402 -614 -416 -635 -450 -640 -19
-4 -42 -10 -50 -14 -8 -4 -106 -138 -217 -297 l-203 -289 6 -62 6 -61 -150
-216 -150 -216 25 -59 25 -58 -63 -96 c-62 -94 -65 -96 -109 -102 -74 -11 -77
-13 -115 -81 -20 -36 -42 -67 -49 -70 -9 -4 -1142 389 -1152 399 -2 1 67 242
151 534 l154 532 -25 72 c-13 40 -24 80 -24 90 0 9 25 96 55 194 30 97 55 178
55 180 0 2 38 24 84 49 l84 46 144 429 143 429 -6 128 -6 127 262 951 c276
995 275 990 219 972 -14 -5 -128 -256 -409 -903 l-390 -896 -85 -106 -85 -106
-163 -418 -163 -417 26 -83 27 -82 -76 -186 -77 -185 -68 -43 c-38 -23 -73
-53 -79 -66 -6 -12 -97 -220 -202 -461 -106 -242 -196 -443 -200 -447 -6 -7
-1274 304 -1285 315 -2 1 6 54 17 117 l20 114 -52 46 c-42 37 -52 52 -53 80
-2 35 -2 35 68 56 56 17 71 26 77 46 4 13 51 435 104 937 l96 914 -22 41 -22
42 34 475 c21 297 30 477 24 482 -5 3 -14 4 -20 2 -6 -2 -73 -208 -150 -457
-124 -405 -142 -456 -171 -487 -32 -34 -42 -71 -269 -945 l-237 -910 52 -46
52 -47 -19 -32 c-14 -25 -34 -39 -78 -55 l-59 -22 -46 -229 -46 -229 -434 70
c-492 80 -432 57 -466 176 l-16 56 -242 9 -242 9 38 23 37 24 0 96 c0 53 -3
134 -7 180 -6 80 -7 84 -37 99 -17 9 -34 21 -38 27 -4 6 -8 54 -8 106 l0 95
45 27 45 28 -6 52 c-3 29 -47 555 -99 1168 l-94 1115 -40 86 -41 87 0 252 0
253 41 71 41 71 -1 609 -2 610 -44 115 -44 116 -71 1440 c-39 792 -73 1459
-76 1483 -5 40 -20 56 -29 30z m10714 -14650 c13 -47 37 -355 29 -363 -8 -8
-181 56 -194 71 -10 12 -69 273 -62 278 3 3 194 53 209 55 4 1 12 -18 18 -41z
m4791 -1963 c0 -52 1 -95 3 -96 1 0 460 -6 1020 -13 636 -8 1022 -17 1028 -23
11 -11 -142 -23 -283 -23 l-78 0 -243 -152 -242 -152 -90 -12 -90 -13 -140 41
-140 41 -480 -6 -480 -6 -110 27 c-105 26 -115 31 -206 100 -90 68 -97 75
-102 115 -4 23 -9 57 -13 75 l-6 32 68 0 c38 0 107 3 152 7 l84 6 33 74 34 73
140 0 141 0 0 -95z m-27554 -1605 l-118 -5 -28 -70 -28 -70 -101 -3 c-55 -1
-101 -1 -101 2 0 5 15 84 26 134 l4 22 233 -2 c185 -2 208 -3 113 -8z m-2925
-43 l6 -37 -116 0 -116 0 33 33 c28 28 41 33 100 38 88 7 86 8 93 -34z m2713
-202 c-4 -8 -16 -15 -28 -15 -11 0 -51 -3 -88 -7 -65 -6 -68 -5 -68 16 0 20 5
21 95 21 80 0 93 -2 89 -15z"/>
</g>
</svg>
