<?xml version="1.0" standalone="no"?>
<!DOCTYPE svg PUBLIC "-//W3C//DTD SVG 20010904//EN"
 "http://www.w3.org/TR/2001/REC-SVG-20010904/DTD/svg10.dtd">
<svg version="1.0" xmlns="http://www.w3.org/2000/svg"
   viewBox="0 0 3129.000000 1021.000000"
 preserveAspectRatio="xMidYMid meet">
<metadata>
Created by potrace 1.16, written by Peter Selinger 2001-2019
</metadata>
<g transform="translate(0.000000,1021.000000) scale(0.100000,-0.100000)"
fill="#000000" stroke="none">
<path d="M7790 10184 c-148 -21 -162 -26 -328 -96 l-172 -73 -335 -248 -335
-248 -1618 -163 -1617 -164 -189 -66 c-188 -66 -192 -68 -665 -337 l-475 -271
-239 -232 c-165 -160 -273 -255 -350 -310 l-111 -78 -128 -21 -128 -20 0 -43
0 -43 -42 -5 c-24 -3 -203 -20 -398 -36 -195 -17 -370 -33 -387 -36 l-33 -5 0
-189 0 -190 45 0 45 0 0 -189 c0 -152 -3 -190 -14 -194 -8 -3 -46 -9 -86 -13
-92 -9 -104 -20 -95 -91 15 -122 69 -221 361 -661 225 -340 284 -423 315 -440
28 -16 235 -59 838 -172 772 -145 805 -150 930 -150 l130 0 22 -29 c11 -15 37
-33 57 -39 21 -6 252 -59 515 -117 324 -71 499 -105 541 -105 l62 0 54 -147
c51 -140 59 -154 197 -354 l144 -209 14 -117 13 -117 -63 -136 -63 -135 -39
-2 c-21 -2 -526 -12 -1123 -24 -597 -11 -1368 -28 -1715 -37 l-630 -17 -3 -35
-3 -36 -267 -23 c-243 -21 -272 -26 -328 -51 -54 -24 -62 -32 -68 -62 -9 -51
-26 -762 -19 -816 7 -57 13 -65 67 -95 41 -23 54 -24 312 -31 148 -4 270 -9
273 -11 2 -3 -2 -261 -9 -575 -7 -314 -11 -572 -9 -573 2 -2 382 -22 844 -45
608 -30 1128 -49 1880 -68 l1040 -26 350 36 c193 20 362 38 377 41 21 3 56
-17 185 -109 145 -105 199 -135 660 -370 l502 -256 603 -239 603 -239 493 -93
c479 -91 492 -94 492 -116 l0 -23 330 0 330 0 0 55 c0 30 3 55 8 55 4 0 59 7
122 16 112 16 121 19 354 128 l239 111 143 133 c136 126 148 140 242 290 92
144 104 170 150 312 49 148 53 168 86 445 l34 290 -24 268 -24 269 -120 476
c-66 263 -123 484 -126 494 -4 13 12 22 74 42 l79 27 103 323 104 323 330 57
c182 31 707 129 1166 217 1019 196 2507 440 2796 459 l171 11 339 -206 339
-206 375 -148 c470 -186 493 -192 1125 -256 423 -43 459 -45 950 -55 l510 -11
344 96 343 95 515 -151 c513 -150 516 -151 1161 -285 l647 -134 1480 -220
c2153 -321 2881 -426 3224 -465 168 -19 311 -35 318 -35 6 0 13 -15 15 -32 l3
-33 94 -7 c103 -7 113 -13 109 -67 -3 -33 -8 -37 -138 -106 l-135 -72 -3 -142
-3 -141 133 1 c73 0 243 4 378 9 l245 8 314 91 c173 50 315 92 316 94 95 116
421 516 430 525 7 8 132 30 316 57 167 25 436 70 597 102 l293 58 104 -37 104
-37 252 35 253 35 200 98 201 98 100 108 c139 151 133 142 170 278 l32 122
-16 140 -17 140 -66 86 c-37 47 -110 127 -163 177 -95 92 -99 94 -343 216
l-247 123 -182 5 c-132 4 -188 9 -203 19 -11 8 -56 63 -99 124 l-78 109 22 66
22 66 -96 113 c-94 112 -98 115 -231 189 -250 140 -343 167 -1225 363 -423 93
-993 221 -1265 284 -272 63 -602 137 -733 166 l-237 52 -55 -52 c-29 -28 -57
-51 -62 -51 -4 0 -86 18 -181 41 l-172 41 51 97 c29 53 56 101 61 107 11 15
96 -5 -792 185 l-755 161 -2602 237 -2602 238 -123 70 -123 70 -720 77 -720
76 -590 15 c-324 8 -638 15 -697 15 l-107 0 -121 114 c-168 158 -179 162 -610
216 -179 22 -334 42 -346 45 -11 2 -40 32 -63 64 l-42 60 -102 31 c-56 18
-131 41 -167 52 -49 15 -104 22 -219 25 -149 6 -160 5 -304 -28 l-149 -34 -50
-57 -50 -58 -318 0 -318 0 -402 483 c-435 523 -470 558 -615 622 -44 20 -295
100 -558 179 -263 79 -480 146 -482 148 -2 2 -21 102 -41 223 l-37 219 -80 87
-81 87 -130 25 c-72 15 -189 31 -261 36 -71 6 -593 15 -1160 21 -566 5 -1088
11 -1160 13 -96 3 -171 -3 -285 -19z"/>
</g>
</svg>
