<?xml version="1.0" standalone="no"?>
<!DOCTYPE svg PUBLIC "-//W3C//DTD SVG 20010904//EN"
 "http://www.w3.org/TR/2001/REC-SVG-20010904/DTD/svg10.dtd">
<svg version="1.0" xmlns="http://www.w3.org/2000/svg"
   viewBox="0 0 4055.000000 870.000000"
 preserveAspectRatio="xMidYMid meet">
<metadata>
Created by potrace 1.16, written by Peter Selinger 2001-2019
</metadata>
<g transform="translate(0.000000,870.000000) scale(0.100000,-0.100000)"
fill="#000000" stroke="none">
<path d="M28297 8672 c-22 -23 -27 -37 -27 -80 0 -47 2 -52 25 -58 16 -4 25
-13 25 -25 0 -18 -21 -19 -750 -19 l-750 0 0 -78 0 -79 133 -51 c94 -36 148
-52 181 -52 33 0 57 -7 82 -24 l35 -23 -172 -107 -171 -106 -68 0 c-45 0 -71
-5 -79 -14 -9 -10 -65 -15 -239 -20 -125 -4 -266 -9 -314 -13 l-88 -6 0 62 c0
46 -4 61 -14 61 -8 0 -288 -45 -623 -99 -486 -80 -677 -116 -953 -180 l-345
-79 -61 -66 -60 -66 -600 0 -599 0 -63 90 -64 90 -173 0 -173 0 -31 103 c-17
56 -36 111 -43 122 -6 10 -18 46 -28 80 l-17 60 -76 3 -75 3 -12 -58 c-6 -32
-13 -64 -15 -70 -3 -9 -33 -13 -102 -13 l-99 0 -30 -112 -31 -113 -219 0 -219
0 -19 53 -19 52 -413 0 -413 0 -43 -55 -43 -55 -67 0 -68 0 0 40 0 40 -60 0
c-33 0 -60 3 -60 8 0 10 -38 338 -45 390 -5 30 -11 42 -23 42 -15 0 -17 10
-14 71 5 93 -8 109 -87 109 -33 0 -73 -8 -97 -19 -44 -20 -54 -43 -54 -122 0
-31 -4 -38 -21 -41 -18 -2 -36 -39 -108 -220 l-85 -218 -63 0 c-62 0 -63 0
-63 -27 0 -16 -4 -34 -8 -41 -6 -9 -451 -28 -1913 -82 -1769 -64 -1926 -71
-2209 -100 -329 -34 -310 -29 -356 -94 -11 -17 -31 -19 -179 -24 -141 -4 -168
-7 -178 -22 -11 -16 -100 -18 -1279 -24 l-1267 -8 -22 21 c-22 20 -33 21 -310
21 -246 0 -288 -2 -293 -15 -4 -11 -22 -15 -69 -15 -35 0 -68 -5 -74 -11 -8
-8 -13 -8 -17 0 -10 16 -183 15 -189 -1 -4 -10 -7 -10 -18 0 -16 15 -185 17
-194 2 -4 -6 -57 -10 -125 -10 l-119 0 -145 174 -145 174 -98 6 c-54 3 -442 9
-862 12 l-763 6 -140 69 -139 69 -571 0 -571 0 -231 -70 c-183 -55 -246 -70
-296 -70 -59 0 -73 -5 -150 -48 l-85 -48 -3 -627 -2 -627 -1475 0 -1475 0 0
134 c0 75 -4 137 -10 141 -9 6 -1715 -31 -1917 -41 l-112 -6 -3 -106 -3 -107
-95 -12 c-52 -7 -110 -15 -128 -18 l-32 -6 0 -244 0 -245 -360 0 -360 0 0 -55
0 -55 -97 0 c-54 0 -176 -3 -270 -7 l-173 -6 0 -314 0 -313 270 0 270 0 0 -65
0 -65 360 0 360 0 0 -149 0 -148 88 -16 c48 -9 106 -19 129 -23 l43 -7 0 -78
0 -79 68 0 c37 -1 492 -16 1012 -34 520 -19 948 -32 953 -29 4 2 7 62 7 134
l0 129 1475 0 1475 0 0 -125 0 -125 -95 0 -95 0 0 -109 0 -110 58 -6 c31 -3
74 -8 95 -11 l37 -6 0 -135 0 -135 87 -94 86 -94 714 0 713 0 0 -50 0 -50
-350 0 -350 0 0 30 0 30 -630 0 -630 0 56 -112 c31 -62 65 -125 76 -141 l19
-27 555 0 554 0 0 30 0 30 350 0 350 0 0 -45 0 -45 555 0 555 0 0 -32 c0 -18
40 -143 88 -278 l87 -245 188 -3 187 -2 0 280 0 280 683 0 683 0 67 56 67 56
0 119 0 119 674 0 675 0 232 100 c129 55 243 100 255 100 12 0 1038 -218 2280
-485 l2259 -485 390 0 389 0 61 -60 60 -59 350 -81 c276 -63 473 -100 935
-175 322 -52 597 -98 613 -101 l27 -6 0 63 0 62 218 -6 c119 -4 274 -7 345 -7
120 0 127 -1 127 -20 0 -18 7 -20 60 -20 58 0 69 -5 246 -101 102 -56 182
-105 177 -109 -4 -4 -43 -30 -85 -59 -67 -44 -84 -51 -127 -51 -36 0 -86 -14
-180 -51 l-131 -51 0 -79 0 -79 750 0 c665 0 750 -2 750 -15 0 -9 -11 -20 -25
-25 -22 -9 -25 -15 -25 -63 0 -45 4 -57 28 -80 l28 -27 1160 0 1159 0 37 33
c32 27 43 48 70 134 17 57 30 105 27 107 -2 2 -39 28 -82 59 l-78 56 40 25
c40 26 44 26 229 26 l188 0 313 195 313 195 112 0 112 0 169 180 169 180 1208
0 1208 0 0 -75 0 -75 325 0 325 0 0 75 0 75 1630 0 1630 0 0 194 0 194 83 7
c45 3 345 5 666 3 l585 -3 43 -80 42 -80 -323 -5 -323 -5 365 -677 365 -678
323 0 323 0 18 -30 17 -30 723 0 c570 0 724 -3 728 -12 2 -7 9 -100 16 -205
l12 -193 113 0 114 0 1 83 c2 158 5 157 94 -34 44 -94 82 -175 83 -180 2 -5
-61 -9 -152 -9 l-156 0 0 -45 0 -45 -182 0 c-101 0 -723 -9 -1383 -20 -660
-11 -1210 -20 -1222 -20 -20 0 -20 -3 15 -63 l37 -64 989 -6 c544 -4 1160 -7
1368 -7 l378 0 0 -40 0 -40 625 0 625 0 0 -45 0 -45 -311 0 -310 0 6 -22 c4
-13 13 -27 20 -33 7 -5 92 -37 188 -70 l176 -60 21 -70 c12 -38 23 -76 25 -82
3 -10 60 -13 240 -13 l235 0 0 -50 0 -50 -45 0 -45 0 0 -140 0 -140 -42 -1
c-24 -1 -137 -5 -253 -8 -189 -5 -210 -8 -213 -23 -3 -17 14 -18 252 -18 164
0 256 -4 256 -10 0 -6 55 -10 145 -10 90 0 145 4 145 10 0 6 117 10 330 10
213 0 330 -4 330 -10 0 -13 427 -14 432 0 2 5 212 13 532 19 291 6 531 13 534
16 3 3 -12 5 -34 5 -319 2 -1030 22 -1032 30 -5 14 -432 14 -432 0 0 -6 -112
-10 -315 -10 -173 0 -315 4 -315 8 0 4 20 57 44 117 67 170 68 155 -3 155
l-61 0 0 50 0 50 80 0 80 0 0 76 c0 65 5 87 35 155 53 120 53 119 -60 119
l-95 0 0 45 0 45 95 0 95 0 0 40 0 40 345 0 c338 0 345 0 345 -20 0 -20 7 -20
520 -20 l520 0 0 35 c0 30 -5 38 -32 50 -18 8 -178 51 -355 95 l-323 80 -165
0 c-140 0 -165 -2 -165 -15 0 -13 -45 -15 -345 -15 l-345 0 0 40 0 40 -149 0
-148 0 -102 219 c-55 121 -101 222 -101 225 0 3 207 6 460 6 l460 0 0 126 0
125 -267 569 -268 570 -66 0 -66 0 -70 152 -70 153 38 455 c21 250 38 470 39
488 l0 32 95 0 95 0 0 -410 0 -410 430 0 430 0 0 1470 0 1470 -27 6 c-16 4
-209 53 -430 109 l-403 102 0 -139 c0 -88 -4 -138 -10 -138 -9 0 -869 227
-932 246 -14 4 -18 17 -18 58 l0 53 -157 43 c-87 24 -165 45 -174 47 -9 3 -22
-8 -34 -30 -11 -21 -24 -33 -32 -30 -7 3 -11 9 -8 13 14 22 -36 50 -135 75
-58 14 -112 28 -121 31 -8 2 -24 -5 -36 -15 -20 -19 -22 -19 -159 18 -115 31
-139 41 -142 57 -2 17 -50 32 -349 113 -321 86 -348 92 -359 76 -12 -16 -25
-14 -185 28 -94 26 -173 48 -176 51 -2 2 -7 28 -10 57 l-5 54 -368 231 -367
231 -1384 8 -1384 7 -50 49 -51 49 -113 0 -114 0 -300 186 c-204 128 -312 189
-340 194 -23 5 -93 11 -156 15 -62 4 -125 10 -138 14 -25 7 -24 8 25 41 29 19
52 41 52 47 0 7 -14 55 -30 107 -26 79 -37 100 -68 126 l-37 30 -1160 0 -1161
0 -27 -28z m-4259 -6519 c-76 -2 -200 -2 -275 0 -76 1 -14 3 137 3 151 0 213
-2 138 -3z"/>
</g>
</svg>
