<?xml version="1.0" standalone="no"?>
<!DOCTYPE svg PUBLIC "-//W3C//DTD SVG 20010904//EN"
 "http://www.w3.org/TR/2001/REC-SVG-20010904/DTD/svg10.dtd">
<svg version="1.0" xmlns="http://www.w3.org/2000/svg"
   viewBox="0 0 3823.000000 782.000000"
 preserveAspectRatio="xMidYMid meet">
<metadata>
Created by potrace 1.16, written by Peter Selinger 2001-2019
</metadata>
<g transform="translate(0.000000,782.000000) scale(0.100000,-0.100000)"
fill="#000000" stroke="none">
<path d="M5450 7692 l0 -129 -152 -6 c-83 -4 -239 -7 -347 -7 l-196 -1 -270
-277 c-148 -153 -304 -314 -346 -358 l-77 -81 -431 -26 c-238 -13 -435 -28
-439 -32 -4 -3 -9 -58 -10 -121 l-4 -114 -87 0 c-55 0 -364 -38 -846 -104
l-760 -105 -327 -85 -327 -85 -287 -185 -287 -185 -128 -138 -129 -138 1 -245
c0 -135 4 -453 8 -708 l8 -462 132 -174 c72 -95 137 -178 144 -184 6 -6 140
-77 297 -160 l285 -149 350 -51 c193 -28 676 -88 1074 -134 l724 -82 2346 37
c1290 20 2387 39 2438 42 140 8 135 16 178 -277 27 -184 36 -284 41 -452 l7
-216 196 -1 c108 -1 410 -5 671 -8 l475 -6 3 -282 2 -281 -27 -6 c-16 -3 -129
-19 -253 -36 -124 -17 -235 -32 -247 -35 -57 -13 -71 -120 -77 -600 l-5 -360
26 -38 c14 -20 35 -39 47 -42 12 -2 444 -72 961 -154 l940 -150 418 33 418 33
39 38 c36 35 42 37 80 31 35 -5 68 -31 227 -171 162 -143 191 -165 227 -170
106 -14 1010 -95 1014 -90 3 2 49 101 103 219 l97 215 174 215 173 215 200 0
c110 0 838 -4 1618 -9 l1419 -10 726 66 c627 56 739 64 817 56 56 -5 378 -3
850 5 708 13 830 13 1774 -6 l1013 -20 1192 34 c720 20 1487 36 1941 40 413 3
1074 10 1470 16 l720 10 76 76 77 75 1638 60 1639 59 2970 204 2970 204 368
95 367 95 203 102 c194 99 206 107 295 194 121 117 158 177 167 271 7 67 6 73
-28 140 -21 40 -73 111 -126 170 -84 95 -103 110 -300 237 l-210 136 -378 147
-378 146 -2920 554 -2920 554 -1563 235 c-860 129 -1992 293 -2515 364 -1440
197 -3485 458 -3509 448 -8 -2 -24 -40 -36 -84 l-23 -79 -737 92 c-405 50
-1468 179 -2361 285 l-1623 194 -44 88 c-24 48 -47 87 -51 87 -21 0 -1003 91
-1030 96 l-33 5 0 87 0 87 -190 160 c-105 88 -199 163 -208 167 -9 4 -42 7
-72 7 l-55 1 -90 90 c-66 66 -134 120 -256 201 -165 109 -168 111 -286 140
l-118 29 -1230 50 c-676 27 -1339 50 -1473 50 l-243 0 -136 -99 -137 -100
-115 5 c-126 5 -3359 94 -3428 94 l-43 0 0 -65 c0 -61 -2 -65 -22 -66 -13 0
-189 -10 -393 -22 l-370 -22 -29 -157 c-16 -87 -34 -158 -39 -158 -5 0 -147
45 -316 99 -168 55 -453 145 -633 201 -342 105 -632 215 -658 249 -8 10 -41
64 -72 118 l-57 100 -212 6 c-117 4 -281 7 -366 7 l-153 0 -158 123 -158 124
-137 7 -137 7 0 -129z"/>
</g>
</svg>
