<?xml version="1.0" standalone="no"?>
<!DOCTYPE svg PUBLIC "-//W3C//DTD SVG 20010904//EN"
 "http://www.w3.org/TR/2001/REC-SVG-20010904/DTD/svg10.dtd">
<svg version="1.0" xmlns="http://www.w3.org/2000/svg"
   viewBox="0 0 4111.000000 787.000000"
 preserveAspectRatio="xMidYMid meet">
<metadata>
Created by potrace 1.16, written by Peter Selinger 2001-2019
</metadata>
<g transform="translate(0.000000,787.000000) scale(0.100000,-0.100000)"
fill="#000000" stroke="none">
<path d="M10860 7835 c-63 -33 -69 -34 -182 -35 l-118 0 0 26 c0 20 -4 25 -16
20 -9 -3 -83 -6 -165 -6 l-149 0 0 -80 0 -80 -34 0 c-41 0 -46 -10 -46 -96 l0
-64 -55 0 -55 0 0 64 c0 35 -3 71 -6 80 -6 14 -104 16 -1015 16 -987 0 -1009
0 -1019 -19 -5 -11 -10 -47 -10 -80 l0 -61 -55 0 -55 0 0 64 c0 35 -3 71 -6
80 -6 14 -104 16 -1015 16 -987 0 -1009 0 -1019 -19 -5 -11 -10 -47 -10 -80
l0 -61 -55 0 -54 0 -3 78 -3 77 -1033 3 c-1188 2 -1098 9 -1246 -90 -50 -34
-98 -71 -107 -81 -14 -18 -89 -28 -750 -103 -404 -46 -744 -83 -756 -84 -18 0
-24 -9 -34 -57 -7 -32 -17 -63 -23 -70 -6 -6 -387 -111 -846 -233 -459 -122
-852 -226 -872 -232 l-36 -11 -7 -93 c-7 -93 -7 -95 35 -212 l43 -118 463 -39
464 -40 0 -217 c0 -201 -1 -218 -17 -219 -10 0 -92 -6 -182 -12 l-164 -12
-128 -240 -129 -240 0 -713 0 -712 76 -152 c70 -140 75 -153 59 -165 -10 -7
-22 -14 -27 -15 -4 -2 -28 -52 -53 -112 l-45 -108 0 -912 1 -911 47 -109 47
-108 110 -45 c90 -37 150 -53 340 -88 206 -39 260 -45 515 -59 355 -20 330
-20 330 4 0 20 7 20 898 20 l897 0 438 -263 439 -263 1496 188 c823 103 1505
187 1515 188 10 0 22 11 27 25 l10 25 3520 0 3520 0 0 -135 0 -135 335 0 c217
0 335 -4 335 -10 0 -6 50 -10 130 -10 l130 0 0 -245 0 -245 -100 0 c-55 0
-100 -3 -100 -7 0 -5 10 -52 22 -105 l21 -98 421 1 421 0 61 77 61 77 437 44
437 44 177 94 c97 53 179 97 181 99 3 2 14 58 26 124 l22 120 -44 -25 -43 -26
0 46 0 45 1055 0 1055 0 62 25 c106 41 552 80 1197 106 293 11 555 18 582 14
l49 -7 0 -174 0 -173 -72 -41 -73 -40 -117 0 -118 0 0 26 0 27 -92 -7 c-50 -3
-122 -6 -160 -6 l-68 0 0 -138 0 -139 98 -6 c53 -4 125 -7 160 -7 60 0 62 1
62 25 l0 25 114 0 115 0 73 -40 73 -40 588 0 587 0 0 180 0 180 -150 0 -150 0
0 190 0 190 24 0 c13 0 26 5 28 11 3 8 145 17 443 30 341 14 633 18 1298 19
l857 0 0 -95 0 -95 440 0 440 0 0 95 0 95 525 0 525 0 0 -95 0 -95 440 0 440
0 0 95 0 95 520 0 520 0 0 -95 0 -95 440 0 440 0 0 165 0 165 51 0 c43 0 50
-3 47 -17 -2 -13 -15 -19 -46 -21 l-42 -3 0 -45 0 -44 850 0 850 0 0 30 0 30
-74 0 -74 0 11 35 10 35 443 0 c284 0 445 -4 449 -10 7 -11 176 -14 249 -4 29
4 46 12 46 20 0 11 -21 14 -95 14 l-95 0 0 40 0 40 54 0 c95 0 176 12 176 26
0 19 -305 25 -337 6 -18 -9 -286 -12 -1248 -12 -1082 0 -1225 2 -1225 15 0 12
16 15 88 15 67 0 93 4 112 17 22 16 67 18 430 24 l405 5 -385 3 -385 2 35 19
c21 12 55 19 88 20 28 0 52 5 52 10 0 7 200 10 580 10 380 0 580 3 580 10 0 7
-198 10 -575 10 -371 0 -575 3 -575 10 0 5 29 24 64 42 44 23 77 50 108 88
l44 55 440 23 439 24 121 81 c67 45 121 83 120 84 0 0 -111 9 -246 20 -135 10
-230 20 -211 23 32 5 42 18 180 237 l146 231 161 126 161 126 12 68 c6 37 26
140 43 228 l31 161 226 27 c291 34 281 32 281 62 l0 24 -240 0 -240 0 0 23 c1
12 7 51 15 87 23 103 30 94 -115 142 l-130 42 0 178 0 178 88 0 87 0 350 153
350 154 26 114 26 114 316 3 316 2 506 -285 506 -285 167 0 167 0 65 -58 65
-59 2701 -9 c2406 -9 2750 -8 3141 6 l439 16 85 52 c60 36 91 62 104 86 l19
35 -46 68 c-42 64 -87 100 -774 634 l-730 566 -500 211 c-275 115 -626 258
-779 317 -154 59 -599 235 -990 392 l-710 285 -1030 323 -1030 323 -655 115
-655 116 -2095 35 c-2036 33 -2146 34 -3885 30 l-1790 -5 -163 -60 -163 -60
-136 3 -137 3 -85 143 -86 142 -2071 0 -2070 0 -486 -259 -487 -260 -56 6
c-45 5 -60 11 -72 29 -13 21 -23 24 -79 24 -45 0 -64 4 -64 13 0 19 -27 31
-140 62 -86 24 -119 38 -182 83 l-78 53 0 149 c0 82 3 151 8 153 4 3 21 8 38
11 l31 7 13 -76 c12 -69 15 -75 36 -75 22 0 24 4 24 55 l0 55 50 31 c43 26 49
34 44 57 -2 15 -10 59 -17 97 -14 75 -12 73 -79 62 -36 -5 -37 -5 -57 44 -16
35 -27 49 -41 49 -23 0 -24 -7 -9 -101 7 -38 10 -71 8 -74 -3 -2 -15 -2 -27 2
-18 4 -22 12 -22 49 0 24 -4 44 -10 44 -5 0 -10 -20 -10 -45 l0 -45 -29 30
c-22 24 -30 44 -35 88 -9 71 -15 92 -27 92 -5 0 -9 -133 -9 -331 0 -260 3
-330 13 -327 6 3 17 33 22 69 8 49 14 65 28 67 17 4 18 -2 12 -85 l-7 -88 87
-59 c49 -33 82 -62 74 -64 -32 -8 -59 -26 -59 -39 0 -16 -25 -16 -201 -2 -106
8 -249 35 -694 131 -308 66 -618 130 -690 142 -128 22 -133 22 -343 7 l-213
-16 -37 -67 -37 -68 -60 0 c-33 0 -70 3 -82 6 l-23 6 0 288 c0 159 -3 295 -6
304 -4 10 -18 16 -40 16 l-34 0 0 95 0 95 -588 0 -588 0 -64 -35 c-64 -34 -68
-35 -182 -35 l-118 0 0 26 c0 20 -4 25 -16 20 -9 -3 -83 -6 -165 -6 l-149 0 0
-80 0 -79 -67 -3 -68 -3 -3 -77 -3 -78 -54 0 -55 0 0 61 c0 33 -5 69 -10 80
-10 19 -32 19 -1019 19 -911 0 -1009 -2 -1015 -16 -3 -9 -6 -45 -6 -80 l0 -64
-55 0 -55 0 0 58 c0 93 -5 102 -56 102 l-44 0 0 95 0 95 -587 0 -588 -1 -65
-34z m7997 -547 c-3 -8 -6 -5 -6 6 -1 11 2 17 5 13 3 -3 4 -12 1 -19z m12003
-6207 c0 -5 -4 -21 -10 -35 l-10 -26 -289 0 -289 0 11 35 10 35 289 0 c172 0
288 -4 288 -9z"/>
</g>
</svg>
