<?xml version="1.0" standalone="no"?>
<!DOCTYPE svg PUBLIC "-//W3C//DTD SVG 20010904//EN"
 "http://www.w3.org/TR/2001/REC-SVG-20010904/DTD/svg10.dtd">
<svg version="1.0" xmlns="http://www.w3.org/2000/svg"
   viewBox="0 0 4232.000000 1001.000000"
 preserveAspectRatio="xMidYMid meet">
<metadata>
Created by potrace 1.16, written by Peter Selinger 2001-2019
</metadata>
<g transform="translate(0.000000,1001.000000) scale(0.100000,-0.100000)"
fill="#000000" stroke="none">
<path d="M19548 9530 c-4 -267 -12 -596 -19 -732 -13 -245 -13 -248 -35 -248
-22 0 -34 -17 -34 -51 0 -14 -7 -19 -30 -19 -19 0 -34 -7 -42 -20 -12 -19 -24
-20 -256 -20 l-244 0 -159 -112 c-151 -106 -160 -115 -181 -165 -18 -45 -24
-51 -32 -36 -5 10 -12 158 -15 333 l-6 315 -6 -310 c-4 -170 -10 -336 -14
-367 l-7 -58 -49 0 -48 0 -4 83 -3 82 -2 -83 -2 -82 -322 2 -322 3 -41 95 -41
95 -110 3 -111 3 -18 -41 c-18 -39 -19 -40 -70 -40 -51 0 -52 1 -70 40 l-18
40 -109 0 -110 0 -15 -40 c-16 -40 -16 -40 -70 -40 -54 0 -55 0 -70 40 l-16
40 -111 0 -111 0 -44 -100 -43 -100 -82 0 -81 0 -106 -69 c-97 -63 -111 -76
-170 -160 l-64 -91 -535 0 -535 -1 -422 -93 c-400 -88 -426 -95 -475 -130
l-53 -36 -1252 0 -1251 0 -118 100 -118 100 -169 0 c-155 0 -171 -2 -198 -21
-24 -17 -29 -18 -29 -5 0 14 -17 16 -110 16 l-110 0 0 25 0 25 -1723 0 -1723
0 -300 211 c-240 170 -325 224 -431 275 l-132 64 -443 0 -443 0 -285 285 -285
285 -1153 0 -1154 0 -210 155 -210 155 -411 0 -412 -1 -68 -99 -68 -100 -379
0 -380 0 0 -150 0 -150 -47 0 c-27 0 -128 -19 -225 -42 l-178 -43 0 -727 0
-727 38 -10 c20 -5 108 -27 195 -47 l157 -38 0 -258 0 -257 38 -10 c150 -39
164 -41 326 -41 141 0 166 -2 166 -15 0 -13 -37 -15 -276 -15 l-276 0 -146
-35 c-81 -20 -164 -40 -185 -46 l-37 -10 2 -726 3 -727 170 -43 170 -42 288
-1 287 0 0 -100 0 -100 433 0 432 -1 110 114 110 114 224 -6 224 -6 38 -85 38
-85 186 -5 186 -5 151 -336 151 -335 67 -42 68 -42 336 0 336 0 0 -150 0 -150
110 0 110 0 0 -283 0 -283 33 -32 33 -32 444 0 444 0 58 57 58 57 0 223 0 223
296 0 297 0 55 45 54 45 324 0 324 0 0 -110 0 -110 165 0 165 0 0 110 0 110
340 0 340 0 0 -110 0 -110 165 0 165 0 0 110 0 110 345 0 345 0 0 -110 0 -110
165 0 165 0 0 110 0 110 340 0 340 0 0 -110 0 -110 165 0 165 0 0 110 0 110
345 0 345 0 0 -110 0 -110 165 0 165 0 0 110 0 110 264 0 263 0 95 45 95 45
114 0 114 1 135 62 135 63 3 67 3 67 114 0 c108 0 115 -1 115 -20 0 -19 7 -20
99 -20 l98 0 6 -90 c5 -77 10 -95 34 -131 l29 -42 568 -208 569 -209 147 0
147 0 94 74 94 74 3 -181 2 -182 37 -37 37 -38 -67 0 -67 0 0 -35 0 -35 -87 0
-88 -1 -173 -157 c-103 -94 -183 -176 -198 -201 -24 -42 -24 -46 -24 -293 0
-240 1 -252 22 -290 14 -25 39 -48 70 -65 46 -25 48 -28 49 -72 l0 -46 257
-222 257 -223 187 0 188 0 0 -113 0 -112 158 -158 157 -157 293 0 292 0 0
-205 0 -205 148 0 149 0 239 -143 c179 -106 256 -146 306 -159 62 -17 176 -18
1695 -18 l1628 0 78 78 77 77 0 185 -1 185 -245 173 -245 172 -94 0 -95 0 0
135 0 135 233 0 233 0 52 53 52 53 0 157 0 157 268 0 267 0 173 173 172 172 0
227 0 226 -32 21 -33 21 845 0 845 0 377 172 377 173 1 78 0 77 460 0 460 0 0
-38 c0 -33 8 -45 73 -110 l72 -72 376 0 375 0 67 68 67 68 0 112 0 112 128 0
128 0 32 33 c32 32 32 34 32 130 l0 97 70 0 70 0 0 -235 c0 -228 1 -235 20
-235 19 0 20 7 20 234 l0 234 28 4 c26 4 30 -1 71 -94 l44 -98 84 0 83 0 0
-28 c0 -20 9 -35 33 -53 32 -24 33 -24 277 -24 240 0 246 0 278 23 24 17 32
31 32 53 l0 29 89 0 89 0 41 49 41 49 0 266 0 266 135 0 135 0 0 -120 0 -120
67 -45 68 -45 296 0 296 0 39 55 39 55 231 0 232 0 41 -55 42 -55 302 0 302 0
68 45 67 45 0 140 0 140 410 0 410 0 0 -53 0 -52 143 -143 143 -143 132 -22
132 -21 0 -103 0 -103 91 0 90 0 -3 -27 c-3 -24 -11 -29 -88 -52 l-85 -27 -3
-42 -3 -42 445 0 c430 0 446 1 500 21 l56 22 0 43 0 44 168 0 169 0 6 -127 c4
-71 7 -246 7 -390 l0 -262 93 -60 92 -61 643 0 642 0 0 -107 c0 -60 4 -113 8
-120 5 -8 41 -13 97 -15 l90 -3 22 -255 c12 -140 22 -288 22 -327 l1 -73 134
0 c113 0 135 2 140 16 3 9 6 53 6 98 0 46 3 104 6 130 l7 46 117 0 117 0 6
-68 c4 -37 7 -92 7 -122 0 -105 -7 -100 145 -100 l132 0 6 98 c4 53 7 118 7
145 l0 47 294 0 c162 0 305 3 318 7 13 5 86 6 163 3 l140 -5 0 -148 0 -149 30
-24 c17 -14 36 -29 43 -35 8 -6 12 -39 12 -98 0 -79 2 -90 24 -110 20 -19 24
-35 30 -119 3 -53 9 -121 12 -149 l6 -53 124 0 124 0 0 24 c0 14 5 82 11 152
9 107 14 130 31 143 16 14 21 33 25 119 4 64 10 102 17 102 6 0 24 11 41 24
l30 24 0 151 0 151 50 0 50 0 0 -151 1 -152 29 -23 c17 -13 35 -24 41 -24 7 0
13 -38 17 -102 5 -87 10 -106 27 -120 17 -14 21 -36 32 -167 l11 -151 122 0
123 0 5 33 c3 17 9 85 13 149 6 105 9 119 30 139 21 19 24 32 24 89 0 101 7
124 45 144 40 22 45 44 45 214 l0 122 48 0 47 0 0 -123 c1 -164 7 -190 49
-212 30 -16 34 -24 40 -69 3 -28 6 -72 6 -97 0 -35 5 -51 24 -68 22 -20 24
-33 30 -154 4 -73 9 -140 12 -149 5 -16 20 -18 128 -18 l123 0 10 152 c9 134
12 153 31 168 17 14 21 33 27 118 4 56 12 102 17 102 6 0 23 9 38 20 27 19 29
24 35 130 l8 110 42 0 42 0 6 -107 c5 -101 7 -109 32 -130 14 -13 33 -23 41
-23 11 0 14 -19 14 -94 0 -85 2 -97 24 -123 18 -22 25 -45 30 -108 3 -44 9
-110 12 -147 l6 -68 124 0 c95 0 124 3 124 13 0 7 5 74 11 148 9 115 13 137
32 157 19 20 22 37 25 123 2 57 8 99 14 99 5 0 22 9 38 20 22 16 29 30 36 77
4 32 9 50 11 40 4 -16 35 -17 481 -16 262 1 569 5 682 8 l204 6 20 97 19 98
142 0 c175 0 191 7 223 90 12 30 22 63 22 71 0 24 -22 39 -57 39 -31 0 -33 2
-33 35 0 32 3 35 29 35 21 0 38 11 64 39 35 39 36 41 23 78 -8 21 -19 56 -26
78 -17 56 -37 85 -59 85 -10 0 -21 7 -25 15 -3 9 0 15 9 15 22 0 18 15 -14 51
-65 71 -54 69 -383 69 l-298 0 0 40 0 40 124 0 c104 0 127 3 144 17 11 10 72
114 136 230 123 225 132 253 101 313 -14 28 -20 30 -70 30 l-55 0 0 48 c0 38
5 53 23 70 21 20 34 22 144 22 l122 0 20 29 c19 26 21 44 21 158 l0 128 -189
67 c-155 56 -201 68 -250 68 -55 0 -61 2 -61 21 0 12 29 52 70 96 39 41 70 79
70 85 0 5 -59 137 -131 292 l-132 282 -67 42 -68 42 -116 0 -116 0 0 370 0
370 310 0 310 0 0 170 0 170 240 0 240 0 0 50 0 50 -240 0 -240 0 0 45 0 45
243 0 c173 0 246 3 255 12 17 17 2093 33 2104 15 6 -9 12 -9 28 1 14 8 83 13
232 14 l213 2 -210 5 c-148 5 -217 10 -234 20 -16 9 -26 10 -30 2 -10 -16
-2087 1 -2103 17 -9 9 -81 12 -255 12 l-243 0 0 35 0 35 -426 0 -426 0 -52 48
c-29 26 -155 142 -281 257 l-227 210 -1301 5 -1300 5 -17 50 c-12 36 -27 57
-55 77 l-38 28 -254 0 -253 0 -40 -26 c-32 -21 -43 -38 -57 -80 l-17 -54 -66
0 -66 0 -155 -130 -154 -129 -740 -1 -740 0 -17 40 -17 40 -101 0 c-80 0 -102
3 -106 15 -5 13 -112 15 -875 15 l-869 0 0 -115 0 -115 -40 0 -40 0 0 -94 0
-93 -131 -10 -130 -9 -145 -145 -144 -144 0 -52 0 -53 -410 0 -410 0 0 140 0
140 -67 45 -68 45 -302 0 -302 0 -42 -55 -41 -55 -232 0 -231 0 -39 55 -39 55
-295 0 -295 0 -68 -42 -69 -43 0 -122 0 -123 -135 0 -135 0 0 273 0 273 -43
42 -43 42 -89 0 -90 0 3 52 c3 50 1 54 -31 76 -32 21 -41 22 -277 22 l-243 0
-34 -26 c-32 -25 -35 -30 -31 -75 l3 -49 -86 0 -86 0 -44 -98 c-41 -93 -45
-98 -71 -94 l-28 4 0 234 c0 227 -1 234 -20 234 -19 0 -20 -7 -20 -235 l0
-235 -70 0 -70 0 0 153 0 153 -33 32 c-29 28 -39 32 -89 32 l-57 0 -20 55
c-19 49 -21 78 -21 248 l0 192 -1019 506 -1019 507 -7 46 -7 47 -251 125 -250
126 -47 -22 -47 -22 -303 152 -303 152 -251 59 -251 59 -857 0 c-847 0 -857 0
-868 20 -7 13 -21 20 -39 20 -29 0 -41 15 -41 51 0 13 -7 19 -24 19 l-24 0 -7
178 c-3 97 -10 186 -16 197 -5 12 -10 243 -12 555 l-2 535 -7 -485z m-13788
-3359 l0 -519 138 -32 c75 -17 160 -37 187 -44 l50 -12 3 -96 3 -95 138 -117
139 -116 116 0 116 0 0 -55 0 -55 -445 0 c-434 0 -445 0 -457 20 -7 11 -23 20
-35 20 l-23 0 0 187 0 187 -47 48 -47 48 -148 0 -148 0 0 300 0 299 -57 82
-58 81 -227 -7 -228 -7 0 196 0 196 223 3 c122 1 354 3 515 5 l292 2 0 -519z
m5872 401 l57 -42 306 0 305 0 0 -63 0 -64 40 -16 40 -15 0 -86 0 -86 -33 0
c-37 0 -57 -15 -57 -42 0 -17 -20 -18 -370 -18 l-370 0 0 246 c0 196 3 244 13
237 6 -6 38 -29 69 -51z m658 -950 c0 -40 13 -42 312 -42 l287 0 3 -82 3 -81
40 -11 40 -12 2 -399 3 -400 -145 -69 -145 -69 0 -109 0 -108 -100 0 c-93 0
-100 -1 -100 -20 0 -19 -7 -20 -115 -20 l-115 0 0 79 0 78 -136 62 -135 61
-114 0 -114 0 -92 45 -93 45 -268 0 -268 0 0 285 0 285 113 0 113 0 142 121
142 120 0 130 0 129 370 0 c350 0 370 -1 370 -18z m-4630 -537 l0 -55 -340 0
-340 0 0 55 0 55 340 0 340 0 0 -55z m1020 0 l0 -55 -345 0 -345 0 0 55 0 55
345 0 345 0 0 -55z m1010 30 c0 -25 -1 -25 -90 -25 l-90 0 0 -30 0 -30 -250 0
-250 0 0 55 0 55 340 0 340 0 0 -25z m1020 -260 l0 -285 -345 0 -345 0 0 285
0 285 345 0 345 0 0 -285z m-4060 -110 l0 -175 -321 0 -322 0 -55 45 -54 45
-104 0 -104 0 0 115 c0 114 0 115 24 115 13 0 29 7 36 15 11 13 74 15 456 15
l444 0 0 -175z m1010 0 l0 -175 -340 0 -340 0 0 175 0 175 340 0 340 0 0 -175z
m1020 0 l0 -175 -345 0 -345 0 0 175 0 175 345 0 345 0 0 -175z m830 0 l0
-175 -250 0 -250 0 0 175 0 175 250 0 250 0 0 -175z m6560 -1605 l0 -130 -35
0 -35 0 0 -50 0 -50 -287 0 -287 0 37 38 37 38 0 142 0 142 285 0 285 0 0
-130z"/>
</g>
</svg>
