<?xml version="1.0" standalone="no"?>
<!DOCTYPE svg PUBLIC "-//W3C//DTD SVG 20010904//EN"
 "http://www.w3.org/TR/2001/REC-SVG-20010904/DTD/svg10.dtd">
<svg version="1.0" xmlns="http://www.w3.org/2000/svg"
   viewBox="0 0 3352.000000 4276.000000"
 preserveAspectRatio="xMidYMid meet">
<metadata>
Created by potrace 1.16, written by Peter Selinger 2001-2019
</metadata>
<g transform="translate(0.000000,4276.000000) scale(0.100000,-0.100000)"
fill="#000000" stroke="none">
<path d="M24610 40636 c0 -2108 0 -2123 -20 -2149 -19 -23 -20 -40 -20 -229 0
-111 -3 -220 -6 -240 -6 -36 -8 -38 -45 -38 l-39 0 0 -1364 0 -1364 -52 -6
c-29 -4 -70 -9 -90 -12 l-38 -6 0 -69 0 -69 45 0 45 0 0 -1685 c0 -1486 -2
-1685 -15 -1685 -8 0 -25 -15 -37 -34 -19 -29 -30 -35 -73 -40 -27 -4 -65 -9
-82 -12 l-33 -6 0 -253 0 -253 48 -6 c26 -4 59 -9 75 -12 l27 -6 0 -1112 0
-1112 -30 -22 -30 -23 0 -814 0 -814 30 -21 30 -21 0 -1080 c0 -1072 0 -1079
-20 -1079 -20 0 -20 -7 -20 -324 0 -301 -1 -325 -17 -330 -143 -39 -781 -124
-1203 -160 -228 -19 -991 -114 -1004 -125 -9 -8 -28 -39 -44 -70 l-27 -57
-560 92 c-471 77 -611 104 -880 170 l-320 78 -455 21 -455 21 -1892 -154
-1892 -154 -411 133 -410 133 -4078 -312 c-3860 -296 -4251 -324 -7342 -529
-1796 -119 -3267 -218 -3269 -219 -7 -6 68 -210 179 -489 89 -223 120 -316
179 -535 46 -172 67 -267 60 -271 -7 -4 4 -56 33 -148 l43 -141 197 0 197 0
747 -442 747 -442 36 -58 c20 -32 144 -245 276 -473 l240 -415 60 0 c33 0 544
-13 1135 -30 591 -16 1372 -36 1735 -45 l660 -17 1650 -139 1650 -140 960 -19
c607 -13 1309 -20 1910 -20 1142 0 1833 -13 2453 -46 255 -13 804 -36 1220
-49 724 -24 844 -25 2769 -25 l2013 0 76 -90 c83 -97 60 -81 565 -398 l145
-92 368 -125 c202 -69 380 -125 394 -125 63 0 72 -8 72 -64 l0 -51 114 -43
114 -42 545 0 546 0 81 30 c45 16 83 30 86 30 2 0 4 -121 4 -270 0 -263 0
-270 20 -270 20 0 20 -7 20 -1079 l0 -1080 -30 -21 -30 -21 0 -814 0 -814 30
-23 30 -22 0 -1112 0 -1112 -27 -6 c-16 -3 -49 -8 -75 -12 l-48 -6 0 -253 0
-253 33 -6 c17 -3 55 -8 82 -12 43 -5 54 -11 73 -40 12 -19 29 -34 37 -34 13
0 15 -199 15 -1685 l0 -1685 -45 0 -45 0 0 -69 0 -69 38 -6 c20 -3 61 -8 90
-12 l52 -6 0 -1364 0 -1364 39 0 c37 0 39 -2 45 -38 3 -20 6 -129 6 -240 0
-189 1 -206 20 -229 20 -26 20 -41 20 -2149 l0 -2124 50 0 50 0 0 2124 c0
2108 0 2123 20 2149 19 23 20 40 20 229 0 111 3 220 6 241 6 35 8 37 45 37
l39 0 0 1364 0 1364 53 6 c28 4 69 9 90 12 l37 6 0 69 0 69 -45 0 -45 0 0
1685 c0 1486 2 1685 15 1685 8 0 25 15 37 34 19 29 30 35 73 40 27 4 65 9 83
12 l32 6 0 253 0 253 -47 6 c-27 4 -60 9 -75 12 l-28 6 0 1112 0 1112 30 22
30 23 0 814 0 814 -30 21 -30 21 0 1080 c0 1072 0 1079 20 1079 19 0 20 7 20
240 l0 240 553 0 552 0 112 42 113 43 0 58 c0 54 1 57 25 57 14 0 189 56 389
124 l364 123 386 277 386 276 462 16 c459 17 461 17 477 -3 9 -11 46 -59 84
-106 l67 -87 190 0 190 0 407 -360 408 -359 530 -1 531 0 59 180 c58 177 59
179 89 182 30 3 31 5 54 105 16 71 28 103 38 103 10 0 14 14 14 56 0 41 3 55
13 51 6 -2 212 -62 457 -132 l445 -127 88 6 c142 11 139 9 212 102 l65 84 301
1068 301 1067 48 615 c26 338 47 615 46 616 0 1 -473 199 -1051 441 l-1050
441 -265 47 c-146 26 -274 53 -285 60 -11 7 -74 62 -140 122 l-120 109 -378
103 c-208 56 -401 113 -430 126 -43 19 -112 84 -402 376 -193 195 -415 423
-494 507 l-144 152 -857 0 -857 0 -874 -120 c-481 -66 -927 -131 -991 -144
l-118 -23 0 243 c0 237 -1 244 -20 244 -20 0 -20 7 -20 1079 l0 1080 30 21 30
21 0 814 0 814 -30 23 -30 22 0 1112 0 1112 28 6 c15 3 48 8 75 12 l47 6 0
253 0 253 -32 6 c-18 3 -56 8 -83 12 -43 5 -54 11 -73 40 -12 19 -29 34 -37
34 -13 0 -15 199 -15 1685 l0 1685 45 0 45 0 0 69 0 69 -37 6 c-21 3 -62 8
-90 12 l-53 6 0 1364 0 1364 -39 0 c-37 0 -39 2 -45 38 -3 20 -6 129 -6 240 0
189 -1 206 -20 229 -20 26 -20 41 -20 2149 l0 2124 -50 0 -50 0 0 -2124z"/>
</g>
</svg>
