<?xml version="1.0" standalone="no"?>
<!DOCTYPE svg PUBLIC "-//W3C//DTD SVG 20010904//EN"
 "http://www.w3.org/TR/2001/REC-SVG-20010904/DTD/svg10.dtd">
<svg version="1.0" xmlns="http://www.w3.org/2000/svg"
   viewBox="0 0 4624.000000 2943.000000"
 preserveAspectRatio="xMidYMid meet">
<metadata>
Created by potrace 1.16, written by Peter Selinger 2001-2019
</metadata>
<g transform="translate(0.000000,2943.000000) scale(0.100000,-0.100000)"
fill="#000000" stroke="none">
<path d="M18020 23014 c-2801 -3529 -5093 -6422 -5094 -6428 0 -6 282 -780
629 -1719 l630 -1707 3592 0 3593 0 0 -465 0 -465 -157 0 -158 0 -22 -33 -21
-34 -354 -6 c-194 -4 -650 -7 -1013 -8 -363 0 -716 -5 -785 -11 -130 -10
-2613 -24 -4667 -27 -1158 -1 -1193 -2 -1193 -20 0 -18 76 -19 2863 -26 1970
-5 2868 -10 2882 -18 13 -7 374 -13 1093 -17 590 -4 1075 -10 1079 -13 3 -4
-2 -18 -11 -32 -15 -22 -23 -25 -78 -25 -58 0 -64 -2 -114 -45 l-52 -45 -684
0 -683 0 -43 -65 -42 -65 -53 0 c-107 1 -2086 -51 -2174 -56 l-93 -6 0 -53 0
-53 133 -6 c129 -6 2047 -56 2139 -56 46 0 47 -1 90 -63 l44 -62 405 -5 406
-5 -503 -447 -502 -448 -389 0 -388 -1 -116 -197 -115 -197 -1615 -3 -1614 -2
-107 -93 -106 -93 -627 -229 -627 -230 -401 -357 -402 -358 -498 0 -499 0
-399 -208 -398 -207 -1 -202 c0 -112 -3 -203 -7 -203 -3 0 -125 37 -270 82
l-263 81 0 114 0 113 -89 0 -88 0 -78 190 -78 190 -58 0 -59 0 0 95 0 95 -715
0 -715 0 0 -95 0 -95 -914 0 -913 0 -161 -267 -160 -268 -42 -330 c-23 -181
-42 -330 -43 -331 -1 0 -236 -8 -522 -18 -286 -9 -582 -20 -657 -23 l-138 -6
0 871 0 872 -479 0 -478 0 -63 -140 -63 -140 -847 0 -846 0 -66 140 -66 140
-484 0 -483 -1 -475 -127 -475 -127 -3 -1832 -2 -1832 37 -10 c21 -5 232 -60
470 -120 l431 -111 249 0 248 0 23 40 23 40 1668 0 1668 0 6 173 c4 94 7 282
7 416 l0 244 152 -6 c84 -4 365 -12 623 -17 259 -6 485 -14 504 -16 l34 -5 -7
-219 c-7 -206 -6 -218 11 -223 10 -3 68 -11 128 -17 125 -14 128 -15 332 -152
l132 -88 230 0 229 0 47 -55 47 -55 349 0 348 0 18 -30 17 -30 1076 1 1075 0
176 213 176 212 5 222 c2 122 7 224 10 227 3 3 60 -9 126 -27 l121 -32 3 -144
3 -144 185 -100 c102 -55 200 -107 217 -116 l32 -17 -162 -70 -162 -71 -3
-475 -2 -475 328 -147 329 -147 321 0 322 0 0 -60 0 -60 170 0 170 0 0 -80 0
-79 93 -3 c85 -3 92 -5 95 -24 3 -18 70 -44 500 -192 l497 -172 620 0 621 0
177 195 178 195 139 0 140 0 0 80 0 80 135 0 135 0 0 60 0 60 337 -2 337 -3
51 -275 c28 -151 55 -292 59 -312 l7 -38 -436 0 -435 0 0 -50 0 -50 444 0 445
0 10 -53 c18 -90 111 -592 111 -599 0 -5 91 -8 203 -8 l202 -1 233 -259 234
-259 421 -140 c232 -77 691 -228 1019 -335 342 -113 671 -227 772 -269 l175
-73 152 -162 c130 -138 158 -163 198 -176 25 -8 507 -153 1070 -321 l1024
-306 46 43 c25 24 60 56 77 71 l30 27 376 -120 376 -120 334 6 c183 3 620 -1
971 -8 709 -15 657 -8 657 -85 l0 -43 575 0 575 0 0 60 0 60 242 0 241 0 217
214 216 213 101 13 101 12 694 393 693 393 3 81 3 81 147 0 c318 0 3838 60
3869 66 31 6 33 8 33 50 l0 43 -42 5 c-24 3 -797 17 -1718 31 -921 14 -1813
28 -1982 32 l-308 6 0 56 c0 35 -6 65 -15 78 -15 21 -12 32 45 170 l61 147
-80 81 -80 80 17 80 17 80 123 3 122 3 0 177 0 178 1085 49 1085 49 0 31 0 31
-1085 49 -1085 49 2 189 3 189 218 141 217 140 0 118 0 119 1345 0 1345 0 0
-60 0 -60 175 0 175 0 0 60 0 60 110 0 110 0 0 -60 0 -60 180 0 180 0 0 60 0
60 1110 0 1110 0 0 -63 0 -63 238 -28 c130 -15 245 -30 254 -32 14 -4 18 -19
20 -71 l3 -67 288 -112 287 -112 418 58 c229 32 450 62 490 66 l72 7 0 -102 0
-101 575 0 575 0 0 180 c0 178 0 180 23 185 12 3 287 50 610 104 l589 100 86
-67 87 -68 880 11 880 10 73 38 72 37 0 131 c0 71 3 128 8 126 4 -3 141 -6
305 -8 l298 -4 15 30 c8 17 24 42 37 57 l22 26 1705 41 c938 23 1729 41 1758
41 51 0 52 1 52 29 0 28 -2 30 -52 35 -29 3 -822 17 -1761 33 l-1709 27 -27
41 c-16 22 -30 47 -33 55 -4 13 -45 15 -311 11 l-307 -3 0 94 0 95 -86 34
c-48 19 -88 39 -90 44 -3 6 -29 122 -58 258 -30 137 -55 250 -57 251 -11 9
-1465 484 -2069 675 -1015 322 -1124 357 -1128 369 -2 7 4 37 13 68 9 31 15
57 13 59 -2 1 -133 15 -293 29 -159 15 -302 29 -317 32 -24 5 -27 1 -43 -48
-10 -29 -21 -56 -25 -61 -4 -5 -1627 -106 -1722 -107 -3 0 -39 -133 -79 -295
l-72 -295 -117 0 c-64 0 -178 -3 -253 -7 l-137 -6 0 -59 0 -58 -1250 0 -1250
0 0 55 0 55 -180 0 -180 0 0 -55 0 -55 -435 0 -435 0 0 174 0 175 -50 3 -51 3
121 180 c67 99 138 201 157 227 l35 48 194 0 194 0 0 65 0 65 58 0 c185 -1
1641 22 1710 26 78 6 82 7 82 30 0 23 -3 24 -62 24 -51 0 -1777 29 -1785 30
-2 0 -3 18 -3 40 l0 39 -152 3 -152 3 -101 331 -101 331 191 6 c104 4 430 12
723 19 l533 12 21 30 c12 17 23 33 24 35 3 4 2869 40 3237 41 l187 0 0 25 0
25 -127 0 c-71 0 -841 9 -1713 20 -1467 17 -1586 20 -1595 35 -33 56 19 51
-740 69 -385 9 -732 16 -771 16 l-71 0 -45 148 -46 147 -168 5 -169 5 -191
132 -191 133 -169 2 -168 3 -33 165 c-18 91 -40 198 -48 238 l-16 72 -384 0
-383 0 -97 120 -97 120 -258 0 -259 0 -97 200 -97 200 -143 0 -142 0 -41 69
c-22 38 -41 72 -41 75 0 3 104 6 230 6 l230 0 0 -24 c0 -23 4 -25 51 -28 51
-3 52 -3 68 -48 l17 -45 218 -3 219 -2 26 30 c26 30 30 31 276 70 l250 40 21
-26 21 -25 181 28 182 28 0 52 0 53 129 0 129 0 53 47 52 48 1066 2 c586 1
1119 2 1184 2 l117 1 0 39 0 39 -102 6 c-259 14 -438 17 -456 7 -14 -7 -301
-9 -918 -4 l-898 6 -47 44 -46 43 -132 0 -131 0 0 60 0 59 -37 10 c-21 5 -100
26 -176 45 -75 20 -139 36 -142 36 -3 0 -5 14 -5 30 0 24 -38 119 -55 138 -2
2 -85 25 -186 52 l-184 50 -330 0 -330 0 -42 -49 -43 -50 0 -90 0 -91 -405 0
-405 0 -27 46 c-16 25 -266 441 -558 924 l-530 880 -1087 0 -1088 0 0 535 0
535 340 0 340 0 0 8135 0 8135 -1214 0 -1213 0 -5093 -6416z m6520 -10389 l0
-535 -892 0 -892 0 -25 24 c-19 18 -75 37 -217 75 -170 45 -202 51 -292 51
l-102 0 0 460 0 460 1210 0 1210 0 0 -535z m-19040 -5980 c316 -20 590 -38
608 -41 l32 -5 0 -89 0 -90 -655 0 -655 0 0 136 0 136 48 -6 c26 -3 306 -22
622 -41z"/>
</g>
</svg>
