<?xml version="1.0" standalone="no"?>
<!DOCTYPE svg PUBLIC "-//W3C//DTD SVG 20010904//EN"
 "http://www.w3.org/TR/2001/REC-SVG-20010904/DTD/svg10.dtd">
<svg version="1.0" xmlns="http://www.w3.org/2000/svg"
   viewBox="0 0 4164.000000 1141.000000"
 preserveAspectRatio="xMidYMid meet">
<metadata>
Created by potrace 1.16, written by Peter Selinger 2001-2019
</metadata>
<g transform="translate(0.000000,1141.000000) scale(0.100000,-0.100000)"
fill="#000000" stroke="none">
<path d="M11860 11295 l-255 -115 -420 0 -420 0 -37 -25 c-35 -24 -43 -25
-186 -25 l-150 0 -148 -85 -149 -85 -326 0 -327 0 -243 -114 -244 -113 -3
-137 -3 -136 141 0 140 0 145 -82 144 -83 -807 -3 -807 -2 -57 -57 -58 -57 57
-58 57 -58 1183 0 1183 0 0 -70 0 -70 -1657 2 c-1541 3 -1697 5 -2218 27 -547
23 -565 23 -790 6 -165 -12 -552 -22 -1375 -35 l-1145 -19 -295 -44 c-269 -41
-314 -51 -512 -111 l-216 -66 -158 0 -157 0 -326 -159 c-179 -88 -332 -161
-340 -163 -10 -2 -22 27 -41 105 -16 60 -30 110 -32 113 -3 2 -110 -45 -239
-105 l-234 -109 -3 -484 -2 -484 -98 -19 c-53 -10 -103 -20 -110 -22 -8 -4
-12 -34 -12 -102 l0 -97 191 -209 c105 -116 199 -219 209 -229 18 -19 20 -18
95 12 l76 31 164 -197 c91 -108 165 -200 165 -204 0 -5 -119 -8 -265 -8 l-264
0 -179 -39 c-172 -38 -187 -43 -341 -120 l-161 -81 0 -753 0 -752 168 -83
c159 -78 175 -84 334 -117 l168 -35 270 0 270 0 0 -90 0 -90 760 0 760 0 0
-146 0 -145 82 -95 82 -94 88 0 88 0 0 -30 c0 -33 -51 -14 473 -176 l217 -67
0 -66 0 -67 75 -74 75 -74 0 -66 0 -65 109 -44 109 -44 158 -158 159 -159 282
0 c244 0 282 -2 285 -15 2 -9 135 -92 297 -185 l294 -170 253 0 253 0 3 -67 3
-66 1000 -449 1000 -448 1803 0 1803 0 120 66 c88 48 119 70 119 85 0 19 21
19 1209 19 l1209 0 546 260 545 260 2537 0 2536 0 342 -95 342 -95 617 0 617
0 0 -255 0 -255 1965 0 1966 0 134 71 c135 71 135 71 135 106 l0 36 58 -7 c43
-5 62 -12 79 -31 l22 -25 1088 0 1088 0 548 323 547 322 -2 144 -3 143 -105
49 -105 48 -332 1 c-326 0 -333 0 -333 20 0 20 7 20 1988 20 l1987 1 225 178
c214 169 225 179 228 214 l3 37 122 0 122 0 275 200 275 199 867 1 866 0 487
115 c267 63 488 115 491 115 2 0 4 85 4 189 0 142 3 190 13 193 6 3 753 178
1659 389 907 211 1648 389 1648 394 0 6 262 71 583 146 l582 135 3 616 2 615
-27 6 c-16 2 -1026 105 -2245 228 l-2218 224 0 62 0 62 -37 10 c-21 6 -231 56
-468 113 l-430 103 -751 5 -752 5 279 290 279 290 -2 260 -3 260 -565 312
-565 312 -150 0 c-100 1 -145 -3 -135 -9 10 -6 -326 -10 -958 -10 l-973 0 -23
-27 c-18 -21 -34 -27 -79 -31 l-57 -4 0 33 c0 34 -2 36 -129 102 l-128 67
-1804 0 -1804 0 -1000 -449 -1000 -448 -3 -131 -3 -132 -80 0 c-78 0 -84 -2
-167 -48 l-87 -47 -510 -5 -510 -5 -130 -56 -131 -56 -369 118 c-378 121 -459
140 -659 154 l-88 6 -177 161 c-173 158 -178 161 -310 224 l-134 64 -388 0
-389 0 0 30 0 30 -360 0 -360 0 0 -25 0 -25 -162 0 -163 0 -1097 428 -1098
427 0 93 0 92 329 0 328 0 107 50 106 50 0 143 0 143 -547 322 -546 322 -1092
0 -1092 0 -12 -24 c-11 -19 -24 -25 -67 -31 -64 -8 -74 -3 -74 35 0 26 -10 34
-134 99 l-134 71 -1789 0 -1788 0 -255 -115z m7711 -1944 l1156 -451 157 0
156 0 0 -30 0 -30 105 0 c87 0 105 -3 105 -15 0 -13 -29 -15 -200 -15 -166 0
-205 -3 -235 -17 -25 -12 -35 -23 -35 -40 l0 -23 -315 0 -315 0 0 49 c0 44 -3
50 -27 59 -16 5 -283 105 -595 221 l-568 211 -900 0 -900 0 0 60 c0 57 -1 60
-37 85 l-38 25 457 0 456 0 198 185 c109 102 203 184 209 181 5 -2 530 -207
1166 -455z m2995 -479 c22 -15 70 -53 105 -84 l64 -58 -372 0 -373 0 0 25 c0
45 -47 55 -261 55 -161 0 -189 2 -189 15 0 12 19 15 110 15 l110 0 0 30 0 30
383 0 382 0 41 -28z m12552 -214 l-3 -63 -308 -301 -308 -301 -121 -6 c-67 -4
-198 -7 -292 -7 l-170 0 34 35 34 35 197 0 197 0 281 271 c229 220 281 275
281 297 1 24 10 31 83 64 45 21 86 38 90 38 4 0 7 -28 5 -62z m-17098 -4902
l0 -144 48 -14 c26 -8 363 -101 749 -208 l702 -195 -859 -3 c-472 -1 -1249 -1
-1725 0 l-867 3 738 352 739 353 238 0 237 0 0 -144z m15340 100 c0 -2 -52
-42 -115 -90 l-115 -87 -142 3 -142 3 200 87 c173 76 206 88 257 88 31 0 57
-2 57 -4z"/>
<path d="M20118 513 l-688 -3 0 -255 0 -255 1865 0 1865 0 0 260 0 260 -1177
-2 c-648 -2 -1487 -4 -1865 -5z"/>
</g>
</svg>
