<?xml version="1.0" standalone="no"?>
<!DOCTYPE svg PUBLIC "-//W3C//DTD SVG 20010904//EN"
 "http://www.w3.org/TR/2001/REC-SVG-20010904/DTD/svg10.dtd">
<svg version="1.0" xmlns="http://www.w3.org/2000/svg"
   viewBox="0 0 3293.000000 1308.000000"
 preserveAspectRatio="xMidYMid meet">
<metadata>
Created by potrace 1.16, written by Peter Selinger 2001-2019
</metadata>
<g transform="translate(0.000000,1308.000000) scale(0.100000,-0.100000)"
fill="#000000" stroke="none">
<path d="M11995 13068 l-910 -8 -675 -46 -675 -45 -683 -105 -684 -105 -661
-184 -662 -184 -560 -246 c-308 -136 -566 -249 -572 -252 -7 -3 -88 -89 -180
-191 -274 -304 -562 -616 -581 -628 -9 -7 -258 -81 -552 -164 l-535 -153 -589
-228 c-356 -139 -763 -305 -1031 -423 l-442 -194 -989 -312 c-544 -172 -995
-316 -1002 -319 -9 -5 29 -59 120 -172 73 -91 153 -190 178 -221 25 -31 51
-57 58 -57 7 -1 52 -35 100 -76 48 -42 103 -86 122 -100 l35 -23 743 73 742
74 298 -23 c203 -16 269 -24 210 -25 l-87 -1 -67 -99 -66 -100 -184 -127 -184
-127 0 -274 0 -273 -39 0 c-21 0 -53 -3 -70 -6 l-31 -6 0 -678 0 -677 38 -7
c20 -3 52 -6 70 -6 l32 0 0 -518 0 -517 184 -92 183 -92 54 -95 54 -96 55 -11
c30 -6 68 -14 84 -18 l30 -7 -37 -41 c-35 -39 -37 -44 -38 -114 l0 -74 -147
-106 -147 -105 0 -969 0 -968 155 -112 155 -112 3 -259 2 -259 2678 -393
c1472 -216 2898 -424 3167 -462 519 -74 1510 -210 1526 -210 5 0 9 -18 9 -40
l0 -40 308 0 308 0 226 80 226 80 1112 0 1113 0 276 -65 276 -64 567 -56 566
-56 764 210 c420 115 981 269 1248 341 l485 132 1387 784 c1218 687 1414 801
1609 935 l221 152 472 8 c259 4 703 19 986 33 283 14 535 26 560 26 44 0 50
-4 195 -131 83 -72 209 -182 281 -244 l130 -114 520 -11 519 -11 430 116 430
117 800 48 800 49 730 -61 730 -60 455 -292 455 -292 510 20 510 20 250 -147
c137 -80 251 -145 252 -143 2 2 23 72 48 156 25 84 46 154 48 156 1 1 82 4
180 6 l178 3 700 -1180 c384 -649 702 -1180 706 -1180 4 0 65 210 135 466
l126 466 53 379 52 379 -67 465 -68 465 -96 280 -96 280 -149 249 c-81 137
-144 252 -140 256 4 4 44 19 88 35 44 15 84 31 88 35 5 4 -225 395 -511 869
l-518 861 -612 699 -611 699 -550 485 -549 485 -623 435 -624 434 -620 350
-620 349 -675 317 -675 316 -760 230 -760 229 -1096 226 -1096 226 -489 241
c-569 281 -1547 754 -1748 845 -137 62 -143 64 -295 84 -86 11 -457 43 -826
70 -692 52 -1710 106 -4052 217 l-1233 58 0 191 c0 105 -3 239 -7 297 -5 90
-9 107 -22 105 -9 -1 -425 -5 -926 -10z"/>
</g>
</svg>
