<?xml version="1.0" standalone="no"?>
<!DOCTYPE svg PUBLIC "-//W3C//DTD SVG 20010904//EN"
 "http://www.w3.org/TR/2001/REC-SVG-20010904/DTD/svg10.dtd">
<svg version="1.0" xmlns="http://www.w3.org/2000/svg"
   viewBox="0 0 3844.000000 1131.000000"
 preserveAspectRatio="xMidYMid meet">
<metadata>
Created by potrace 1.16, written by Peter Selinger 2001-2019
</metadata>
<g transform="translate(0.000000,1131.000000) scale(0.100000,-0.100000)"
fill="#000000" stroke="none">
<path d="M26412 11299 l-962 -8 -568 -110 c-533 -104 -595 -114 -1037 -166
-258 -30 -484 -57 -500 -60 -26 -4 -36 -15 -63 -70 l-32 -65 0 -213 0 -212
-85 -93 c-46 -51 -86 -101 -89 -110 -3 -9 -30 -113 -61 -230 l-55 -213 -69
-103 -69 -103 -75 -13 c-41 -7 -79 -15 -85 -19 -11 -7 -102 -228 -102 -248 0
-8 18 -38 40 -68 l40 -55 -34 -68 -34 -68 -177 -39 c-98 -22 -183 -44 -191
-50 -18 -14 -174 -409 -174 -443 0 -17 -50 -106 -138 -247 l-137 -220 -129 -8
c-71 -4 -133 -4 -137 0 -4 4 46 87 112 183 65 96 119 177 119 180 0 8 -117
113 -254 228 l-110 93 -141 44 -140 44 -950 58 -950 59 -610 -33 -610 -34
-455 -100 -455 -100 -227 -89 c-125 -49 -234 -90 -244 -92 -13 -2 -27 27 -68
140 l-51 143 -125 158 -125 159 -220 59 -220 60 -3 40 c-3 45 -3 45 69 57 20
4 46 18 59 31 l24 25 -23 98 c-13 54 -32 106 -43 118 -13 14 -59 32 -143 54
l-125 33 0 90 0 89 33 -6 c17 -3 51 -8 75 -12 l42 -7 0 127 0 126 -93 169 -93
169 -170 154 -171 153 -243 84 -242 83 -314 -7 -314 -7 0 111 0 112 -47 -5
c-27 -3 -104 -8 -172 -11 l-125 -6 -160 -67 -159 -67 -135 -152 -136 -153 -60
34 -61 34 -39 -26 -40 -25 -205 102 -206 102 -245 50 -245 50 -225 -33 -225
-32 -72 -69 -72 -69 -78 63 c-43 36 -85 70 -94 76 -10 8 -94 16 -230 23 l-215
10 -81 -28 c-70 -23 -93 -37 -165 -102 l-84 -75 -133 8 c-73 4 -135 7 -136 5
-2 -2 -33 -176 -70 -387 -43 -247 -65 -395 -61 -417 5 -25 0 -47 -22 -91 -16
-32 -59 -141 -96 -243 l-68 -185 -112 -106 c-61 -59 -111 -114 -111 -123 0
-14 -804 -616 -823 -616 -4 0 -22 23 -41 50 -18 28 -37 50 -41 50 -5 0 -39
-14 -76 -31 -71 -31 -1312 -359 -1434 -378 -94 -15 -497 -147 -930 -304 -281
-102 -472 -164 -765 -247 -214 -61 -396 -113 -403 -115 -8 -3 9 -47 55 -140
l67 -135 61 -25 c59 -25 62 -29 134 -144 l75 -117 100 -53 c56 -30 102 -55
104 -56 6 -5 31 -168 36 -245 4 -47 9 -115 12 -152 l5 -68 -304 0 -305 0 -227
-345 c-125 -190 -231 -347 -234 -350 -4 -2 -445 -60 -981 -130 -536 -69 -976
-127 -977 -129 -2 -2 15 -187 38 -412 l41 -409 34 -40 c18 -22 66 -74 106
-116 l73 -77 377 -183 378 -184 0 -425 0 -425 -648 0 c-959 -1 -2061 -35
-2624 -80 -234 -19 -448 -35 -475 -35 l-49 0 -33 -69 -33 -68 25 -209 25 -209
66 -60 67 -61 1122 -329 c617 -181 1194 -348 1282 -371 88 -24 745 -230 1460
-459 l1300 -416 185 7 185 6 320 318 320 317 537 259 538 259 0 111 0 111 143
61 142 61 295 26 c473 41 1634 103 2260 119 311 9 687 20 835 27 l270 11 140
-41 c124 -36 143 -45 170 -76 25 -30 44 -39 124 -61 l94 -25 118 25 c119 26
213 61 629 236 221 94 377 180 413 231 l26 36 -52 50 c-29 28 -61 53 -71 57
-11 4 -218 18 -460 32 -243 13 -446 26 -453 29 -6 2 -14 23 -18 47 -6 39 2 60
90 248 53 113 98 206 100 208 4 4 465 -44 698 -74 l199 -25 59 -41 59 -42 158
17 c174 20 472 47 513 47 21 0 93 -58 315 -255 l288 -256 33 -74 c18 -43 62
-111 100 -159 l67 -84 144 -42 c126 -37 151 -41 205 -35 62 7 1610 245 1614
248 9 9 109 461 133 602 17 99 33 187 36 196 3 10 47 28 123 52 65 20 125 39
133 42 12 5 180 -127 408 -321 10 -9 250 -40 685 -90 l668 -76 211 -78 c116
-43 219 -82 229 -86 10 -3 152 -110 315 -235 295 -227 297 -229 422 -279 89
-35 164 -57 260 -75 l135 -26 180 21 c99 11 192 22 206 24 24 4 30 -3 82 -102
42 -81 110 -177 274 -388 180 -231 255 -338 433 -619 217 -343 300 -498 300
-561 0 -30 24 -64 166 -242 91 -114 169 -208 174 -210 4 -2 197 58 427 131
l420 135 274 157 c212 122 283 168 315 203 l41 46 214 17 c118 9 217 14 221
10 3 -3 77 -177 163 -386 l156 -380 107 -102 c59 -56 115 -102 126 -103 10 0
443 68 962 150 l943 151 1003 259 c552 142 1024 264 1050 270 l47 12 34 87
c24 60 37 111 42 169 l7 82 63 0 c35 0 420 38 856 85 748 81 805 88 1028 136
130 28 237 52 237 52 1 1 17 29 36 62 33 56 37 75 67 290 18 127 35 233 39
236 6 5 485 41 487 36 1 -1 41 -96 89 -212 49 -115 92 -214 96 -218 4 -5 115
-1 246 8 l239 16 55 60 55 60 217 -25 c120 -15 219 -26 221 -26 2 0 14 22 27
49 l22 49 152 6 c83 3 244 8 357 11 l205 5 23 -40 c12 -22 30 -40 39 -40 9 0
90 10 179 22 l163 22 41 42 40 41 -68 6 c-37 3 -276 18 -530 34 -254 15 -461
28 -460 30 3 2 415 33 444 33 13 0 19 50 6 50 -5 0 -112 5 -240 10 -230 10
-233 10 -305 42 -40 17 -74 32 -76 33 -1 1 17 51 40 112 l42 111 202 7 c112 4
215 4 231 1 16 -3 72 5 128 18 61 15 88 25 68 25 -18 1 -157 8 -310 16 -236
13 -291 19 -362 40 -46 14 -86 27 -88 29 -6 5 -17 196 -12 196 2 0 132 24 288
54 l283 53 64 64 c53 53 142 191 539 829 l475 765 197 163 197 162 278 2 c153
1 301 2 330 3 l51 0 126 -181 126 -181 795 -280 795 -279 45 14 c25 8 50 20
57 26 17 16 460 859 633 1206 l148 295 111 50 111 50 0 441 0 440 -212 89
c-117 48 -295 126 -395 173 l-182 84 -63 90 c-59 84 -68 92 -153 138 l-91 49
-849 12 -850 11 -506 109 -507 109 -458 35 c-253 19 -776 55 -1164 80 -388 25
-710 48 -717 53 -6 4 -94 101 -194 217 l-182 210 -149 83 c-109 60 -174 89
-244 109 -89 24 -95 25 -113 9 -17 -16 -32 -16 -167 -6 -130 10 -175 18 -356
68 l-206 56 -17 77 -16 77 -280 186 -279 186 -194 228 -195 227 42 36 41 36
-42 239 c-42 237 -72 430 -72 459 0 13 37 15 280 15 l280 0 0 30 c0 26 -20 46
-164 167 l-164 138 -258 58 c-190 43 -272 66 -309 86 -28 16 -259 93 -530 177
-264 81 -483 150 -488 154 -4 3 -21 82 -37 176 -17 93 -34 177 -38 186 -9 22
-190 157 -217 163 -84 17 -333 35 -478 33 -94 -1 -605 -5 -1135 -9z m-21922
-8208 c0 -11 -3 -22 -8 -25 -4 -2 -84 -7 -177 -11 -169 -6 -170 -6 -209 18
l-40 25 144 1 c79 1 146 4 149 6 2 3 35 5 73 5 61 0 68 -2 68 -19z"/>
</g>
</svg>
