<?xml version="1.0" standalone="no"?>
<!DOCTYPE svg PUBLIC "-//W3C//DTD SVG 20010904//EN"
 "http://www.w3.org/TR/2001/REC-SVG-20010904/DTD/svg10.dtd">
<svg version="1.0" xmlns="http://www.w3.org/2000/svg"
   viewBox="0 0 4695.000000 666.000000"
 preserveAspectRatio="xMidYMid meet">
<metadata>
Created by potrace 1.16, written by Peter Selinger 2001-2019
</metadata>
<g transform="translate(0.000000,666.000000) scale(0.100000,-0.100000)"
fill="#000000" stroke="none">
<path d="M21883 6653 l-53 -4 0 -55 0 -54 -255 0 -255 0 0 33 c0 17 -3 43 -7
56 l-6 24 -376 -7 c-207 -3 -1370 -42 -2586 -86 l-2210 -80 -2290 -155 c-1259
-85 -2507 -174 -2772 -197 l-483 -43 0 -61 0 -61 -67 -6 c-125 -12 -120 -14
-128 48 -4 34 -11 55 -19 55 -92 0 -1519 -170 -2646 -315 -1345 -174 -1510
-197 -2640 -376 -1177 -186 -1233 -196 -2380 -420 -728 -142 -1466 -293 -1940
-397 l-765 -168 -3 -159 c-2 -127 1 -166 14 -201 l16 -42 112 -7 c102 -7 131
-4 315 28 189 33 211 39 310 86 92 44 123 53 237 71 71 11 137 20 145 20 8 0
19 -13 25 -29 10 -24 18 -29 62 -35 75 -10 243 19 323 54 36 17 74 30 85 30
10 0 172 23 359 51 l340 51 100 53 c92 48 111 54 220 69 66 9 135 19 153 23
l32 5 0 -125 c0 -111 -2 -126 -17 -130 -10 -3 -243 -38 -518 -78 l-500 -73
-105 -89 -105 -89 -300 -108 -300 -107 -3 -686 -2 -685 42 -16 c24 -9 160 -58
304 -109 l261 -93 102 -88 101 -88 888 -134 c488 -73 898 -134 912 -134 17 0
44 20 90 64 l65 65 167 7 166 7 54 -31 c105 -60 354 -112 536 -112 59 0 82 -8
315 -110 l252 -111 1383 -129 1382 -129 269 -185 269 -186 220 0 220 0 248
-86 c190 -65 512 -157 1353 -384 607 -165 1107 -297 1111 -295 4 3 52 82 106
176 l99 171 460 -6 c253 -3 535 -9 628 -12 l167 -7 0 147 0 146 345 0 345 0 0
-25 0 -25 120 0 120 0 0 -48 c0 -45 3 -51 63 -110 34 -34 70 -62 80 -62 12 0
17 -8 17 -30 l0 -30 960 0 960 0 0 30 c0 18 5 30 13 30 8 0 42 29 75 64 58 60
62 68 62 110 l0 46 120 0 120 0 0 25 0 25 190 0 190 0 0 -25 0 -25 125 0 125
0 0 -48 c0 -45 3 -51 63 -110 34 -34 68 -62 75 -62 7 0 12 -13 12 -30 l0 -30
965 0 965 0 0 30 c0 18 5 30 13 30 8 0 42 29 75 64 58 60 62 68 62 110 l0 46
125 0 125 0 0 25 0 25 345 0 345 0 0 -140 0 -140 338 0 c186 0 468 -3 625 -7
270 -6 287 -7 287 -25 0 -17 14 -18 245 -18 l245 0 0 35 0 35 1623 0 1622 0
103 39 c93 36 102 37 102 20 0 -19 20 -19 780 -19 l780 0 0 -95 0 -95 1177 0
1178 0 242 81 243 81 0 381 0 382 1523 448 1522 447 860 0 c733 0 867 -2 909
-15 73 -22 1197 -22 1270 0 41 13 153 15 708 15 432 0 658 -3 658 -10 0 -6 38
-10 93 -10 l92 0 58 -163 59 -162 182 -170 182 -169 314 -37 c173 -21 332 -38
353 -38 l37 -1 0 -45 0 -45 -57 0 c-42 0 -87 -11 -163 -39 l-105 -39 -3 -83
-3 -84 81 -58 81 -57 809 0 810 0 85 57 86 56 -3 85 -3 84 -109 39 c-99 35
-119 39 -208 39 l-98 0 0 45 0 45 130 0 129 0 59 38 60 37 80 175 c45 96 117
250 162 342 l80 168 780 0 c508 0 781 -3 785 -10 4 -6 87 -10 216 -10 l209 0
0 -35 0 -35 -48 0 c-68 0 -94 -21 -90 -73 3 -40 4 -41 95 -90 54 -29 90 -54
87 -61 -13 -35 261 -49 384 -20 37 8 118 41 179 72 l113 57 0 46 c0 45 -1 46
-39 57 -21 7 -59 12 -85 12 l-46 0 0 38 c0 34 5 42 45 70 41 28 53 32 114 32
45 0 134 15 259 43 l190 44 76 69 c74 67 76 70 76 117 l0 47 100 0 100 0 46
70 c34 51 53 70 69 70 11 0 365 139 785 310 l765 309 60 -39 c47 -30 84 -44
174 -64 62 -14 128 -26 146 -26 51 0 86 -14 357 -147 l256 -127 57 43 56 42
-38 31 c-195 156 -877 609 -1113 740 -36 20 -140 70 -231 111 -91 41 -198 91
-237 111 -162 82 -686 284 -1207 466 -154 53 -320 114 -369 133 -112 46 -968
304 -1311 396 -337 90 -987 253 -1140 286 -66 14 -154 35 -195 45 -128 32
-729 156 -1340 276 -436 85 -633 119 -775 134 -193 20 -486 68 -695 114 -345
75 -1757 266 -2475 335 -537 51 -1625 163 -1760 181 -329 43 -1999 174 -2940
230 -1608 96 -4359 200 -4760 180 -118 -6 -520 4 -795 19 -308 17 -2044 32
-2288 20 -114 -6 -315 -8 -447 -5 -362 9 -893 14 -952 9z"/>
</g>
</svg>
