<?xml version="1.0" standalone="no"?>
<!DOCTYPE svg PUBLIC "-//W3C//DTD SVG 20010904//EN"
 "http://www.w3.org/TR/2001/REC-SVG-20010904/DTD/svg10.dtd">
<svg version="1.0" xmlns="http://www.w3.org/2000/svg"
   viewBox="0 0 3720.000000 1556.000000"
 preserveAspectRatio="xMidYMid meet">
<metadata>
Created by potrace 1.16, written by Peter Selinger 2001-2019
</metadata>
<g transform="translate(0.000000,1556.000000) scale(0.100000,-0.100000)"
fill="#000000" stroke="none">
<path d="M8670 15539 l-1805 -17 -1949 -151 c-1072 -82 -1952 -153 -1956 -158
-22 -24 -30 -90 -30 -244 l0 -168 -57 -11 c-32 -6 -66 -14 -75 -16 -17 -5 -18
6 -18 141 l0 146 -32 -5 c-18 -3 -638 -62 -1378 -132 -740 -70 -1346 -127
-1346 -128 -11 -10 -24 -362 -24 -639 l0 -357 33 0 c17 0 115 7 217 15 102 8
198 15 213 15 l28 0 -3 -132 -3 -133 -228 -16 c-125 -9 -229 -18 -231 -20 -20
-21 -26 -305 -26 -1175 l0 -965 33 5 c17 3 128 8 245 11 l212 7 0 -121 c0 -89
-3 -123 -12 -126 -7 -2 -61 -14 -120 -26 l-108 -22 0 -1248 0 -1249 23 -5 c12
-3 380 -82 817 -175 763 -162 796 -170 819 -197 13 -15 46 -52 72 -82 l47 -53
424 -98 423 -98 245 -7 c135 -4 275 -10 312 -14 l67 -6 201 -275 c183 -249
227 -316 217 -326 -2 -2 -183 -7 -403 -10 l-399 -7 3 -86 c3 -113 31 -499 38
-529 l5 -24 502 6 c525 6 543 4 332 -34 -60 -11 -261 -56 -445 -100 -291 -69
-391 -87 -762 -142 l-428 -63 0 -856 0 -857 68 -11 c37 -6 234 -36 437 -66
306 -45 430 -69 715 -136 l345 -81 840 -32 840 -31 870 33 c479 18 888 34 909
35 l39 2 484 -615 c266 -338 649 -831 850 -1095 202 -264 408 -534 459 -600
l92 -121 -104 -67 -104 -66 0 -78 c-1 -57 19 -177 71 -443 l72 -366 1421 -422
1421 -422 1113 0 1112 0 0 503 c0 276 -3 694 -7 928 l-6 426 -88 49 -87 49 -6
220 c-4 121 -25 1127 -46 2235 -22 1108 -44 2182 -49 2386 -10 425 -4 398
-105 430 l-56 18 0 112 0 111 62 7 61 7 -7 952 c-3 524 -9 1022 -13 1108 l-6
156 -31 21 c-21 14 -106 39 -237 69 l-204 48 150 3 150 3 65 89 65 89 4455 0
4455 0 1418 -1252 c780 -689 1412 -1253 1405 -1254 -7 -2 -510 17 -1117 41
l-1104 44 -144 -62 -143 -61 2 -149 3 -149 140 -59 140 -59 1317 52 1317 52
163 -144 c90 -79 158 -146 150 -147 -7 -2 -325 9 -705 24 l-692 27 -513 -18
c-500 -18 -513 -19 -524 -39 -16 -31 -28 -36 -80 -36 l-48 0 0 -130 0 -130 48
0 c52 0 64 -5 80 -36 11 -20 24 -21 524 -39 l513 -18 815 31 c448 18 850 33
892 34 l76 3 186 -164 186 -163 0 -59 0 -58 43 -5 c23 -3 348 -26 722 -50 647
-43 709 -45 1270 -50 l590 -5 545 55 c473 47 610 65 1040 135 488 79 501 82
955 200 315 82 598 164 895 259 l435 139 380 178 c465 219 929 474 1267 696
314 207 499 370 711 627 79 96 174 224 211 283 66 107 67 110 64 170 l-3 62
-42 3 -42 3 -16 78 c-17 79 -17 79 -54 85 -20 3 -49 6 -65 6 -18 0 -26 4 -23
13 3 6 57 107 120 222 l115 210 454 10 c323 7 459 14 474 22 l22 13 -39 153
c-59 234 -104 321 -281 542 l-145 180 -446 233 c-379 198 -518 265 -929 444
l-483 210 -1480 525 c-814 288 -1885 661 -2380 828 -820 277 -983 328 -1830
575 l-930 272 -2030 374 -2030 375 -2174 349 -2174 350 -1671 210 -1671 209
-990 76 -990 75 -1644 60 c-1879 69 -1549 65 -4211 39z m7394 -3588 c157 -140
285 -256 283 -258 -4 -4 -1059 75 -1063 80 -1 1 35 48 82 104 65 79 117 128
231 217 82 64 155 114 165 113 9 -1 145 -116 302 -256z m-864 -515 l105 -13
-159 -2 c-158 -1 -159 -1 -141 19 14 15 26 19 54 14 20 -3 83 -11 141 -18z
m1805 -806 c325 -12 574 -25 579 -30 7 -7 -566 -10 -1618 -10 l-1627 0 21 30
21 30 1027 0 c837 0 1132 -4 1597 -20z"/>
</g>
</svg>
