<?xml version="1.0" standalone="no"?>
<!DOCTYPE svg PUBLIC "-//W3C//DTD SVG 20010904//EN"
 "http://www.w3.org/TR/2001/REC-SVG-20010904/DTD/svg10.dtd">
<svg version="1.0" xmlns="http://www.w3.org/2000/svg"
   viewBox="0 0 4840.000000 1454.000000"
 preserveAspectRatio="xMidYMid meet">
<metadata>
Created by potrace 1.16, written by Peter Selinger 2001-2019
</metadata>
<g transform="translate(0.000000,1454.000000) scale(0.100000,-0.100000)"
fill="#000000" stroke="none">
<path d="M22795 14530 l-360 -5 -130 -90 -130 -90 -2710 -21 -2710 -21 -140
92 -140 93 -1700 -9 c-1684 -9 -1703 -9 -2065 -35 l-365 -26 -390 -138 c-302
-107 -437 -161 -600 -238 l-210 -100 -330 -26 c-181 -14 -881 -84 -1555 -156
-1050 -112 -1410 -155 -2520 -301 -1317 -173 -4112 -548 -4116 -552 -1 -1 3
-36 10 -77 10 -61 21 -88 59 -146 25 -40 54 -75 64 -79 10 -3 209 -72 443
-152 l425 -146 127 -101 127 -101 0 -347 1 -348 -440 0 -440 0 0 85 0 85 -320
0 -320 0 0 -85 0 -85 -305 0 -305 0 0 -90 0 -90 -39 0 c-66 0 -72 19 -69 227
l3 177 292 90 c160 50 295 94 298 98 4 4 2 23 -5 43 -9 26 -16 34 -28 31 -98
-30 -767 -236 -1237 -381 l-590 -183 -121 -83 -121 -83 -7 -96 c-10 -159 -7
-293 8 -312 12 -16 32 -18 164 -18 146 0 153 -1 253 -36 l102 -35 471 -23
c455 -21 473 -21 541 -4 39 10 73 18 78 18 4 0 7 -94 7 -210 l0 -209 -113 -35
c-61 -20 -338 -105 -615 -190 l-503 -155 -252 -138 -252 -139 -8 -89 c-4 -50
-6 -384 -5 -744 l3 -655 215 -132 c118 -73 231 -135 250 -139 l35 -7 -34 -14
c-24 -10 -77 -14 -182 -14 -136 0 -149 -2 -159 -19 -11 -22 -13 -158 -3 -304
l6 -98 121 -83 121 -83 655 -203 c360 -111 775 -239 922 -285 l268 -83 12 39
c6 22 9 41 6 44 -4 4 -583 185 -593 185 -3 0 -5 82 -5 183 0 179 1 184 23 205
14 13 36 22 55 22 l32 0 0 -90 0 -90 305 0 305 0 0 -85 0 -85 320 0 320 0 0
85 0 85 295 0 294 0 3 -117 3 -117 270 -172 c225 -143 276 -181 309 -223 35
-47 42 -51 80 -51 30 0 56 -9 89 -30 l48 -30 243 0 243 0 170 -135 171 -135
215 0 216 0 16 -55 c8 -30 23 -84 33 -120 l17 -65 4927 0 4927 0 396 -255 395
-255 2239 0 2240 0 387 255 387 255 83 0 c45 0 86 -4 89 -10 4 -6 175 -10 481
-10 l474 0 0 -352 0 -353 408 -262 407 -263 2155 1 c1185 1 2196 4 2245 7 l91
7 392 259 392 258 0 359 0 359 738 0 737 0 288 29 289 30 109 72 c77 51 113
69 120 62 6 -6 48 -69 93 -139 l82 -129 194 -5 194 -5 95 -150 95 -150 451
-129 c325 -93 456 -135 471 -150 12 -12 76 -110 144 -218 l122 -198 157 0 157
0 292 -212 292 -213 -655 -5 -654 -5 -142 -185 c-77 -102 -148 -188 -157 -191
-9 -3 -145 -39 -302 -79 l-285 -72 -209 -294 c-192 -269 -212 -295 -250 -308
-23 -8 -117 -39 -211 -69 l-170 -55 -155 -185 c-85 -102 -164 -188 -175 -191
-11 -3 -161 -6 -332 -6 -172 0 -527 -5 -790 -10 l-478 -11 -20 -24 c-12 -14
-36 -50 -54 -80 -32 -53 -33 -59 -42 -212 -5 -86 -11 -159 -13 -161 -2 -2 -18
4 -35 13 -31 15 -31 15 -41 -10 -5 -14 -28 -71 -51 -126 l-41 -100 246 -392
c135 -216 308 -491 384 -612 l138 -220 209 -141 210 -142 140 -6 c77 -3 665
-8 1306 -11 l1165 -6 22 122 c12 68 20 124 19 126 -2 1 -60 42 -128 91 -122
85 -129 88 -263 126 -95 27 -136 43 -132 51 2 7 23 87 47 176 23 90 45 168 49
173 13 13 1167 35 1881 36 l645 0 327 -237 327 -238 282 -74 282 -74 183 -5
183 -5 0 -212 0 -212 33 -36 c17 -20 99 -93 181 -162 l149 -125 1383 0 c1300
0 1385 1 1412 18 16 9 106 82 200 162 l172 145 0 208 0 207 168 0 168 0 126
43 127 42 180 153 181 153 0 348 0 348 188 6 c103 4 295 7 427 7 l240 1 430
320 c237 176 446 331 466 345 32 22 67 29 285 60 137 18 250 34 251 34 1 0
126 99 279 220 l277 220 333 0 332 0 158 165 157 165 437 0 437 0 73 165 72
165 168 0 167 0 407 574 406 574 0 186 0 186 -283 2 -284 3 128 230 c70 127
128 241 128 254 l1 24 433 -7 c386 -6 442 -9 528 -28 l95 -21 269 201 268 202
111 0 111 0 106 108 106 107 -386 379 -386 378 -935 645 -935 645 -715 426
c-645 383 -815 479 -1740 976 l-1025 551 -1060 497 -1060 496 -1075 436 -1076
435 -1089 376 -1090 375 -1276 375 c-702 206 -1281 375 -1286 375 -12 0 -94
-195 -139 -333 -32 -97 -37 -122 -28 -145 l11 -28 -1096 204 -1096 203 -760
98 -760 99 -610 267 -610 266 -405 34 c-250 22 -943 64 -1810 110 -1177 63
-1494 77 -1955 85 -302 5 -617 11 -700 12 -82 2 -312 1 -510 -2z m-21108
-7106 c-3 -3 -12 -4 -19 -1 -8 3 -5 6 6 6 11 1 17 -2 13 -5z"/>
</g>
</svg>
