<?xml version="1.0" standalone="no"?>
<!DOCTYPE svg PUBLIC "-//W3C//DTD SVG 20010904//EN"
 "http://www.w3.org/TR/2001/REC-SVG-20010904/DTD/svg10.dtd">
<svg version="1.0" xmlns="http://www.w3.org/2000/svg"
   viewBox="0 0 4491.000000 758.000000"
 preserveAspectRatio="xMidYMid meet">
<metadata>
Created by potrace 1.16, written by Peter Selinger 2001-2019
</metadata>
<g transform="translate(0.000000,758.000000) scale(0.100000,-0.100000)"
fill="#000000" stroke="none">
<path d="M40900 7510 l-135 -69 -188 0 -189 -1 -109 -102 -110 -103 -222 -5
-223 -5 24 -77 23 -78 120 0 119 0 0 -25 0 -25 -115 0 -115 0 42 -65 43 -65
73 0 72 0 0 -30 c0 -29 -2 -30 -42 -30 -97 -1 -1059 -48 -1063 -52 -3 -2 -1
-65 5 -139 5 -74 12 -191 15 -261 l7 -128 -45 0 -44 0 -6 103 c-4 56 -10 175
-13 264 l-7 163 -66 -5 c-36 -3 -284 -15 -551 -26 -267 -12 -486 -22 -487 -23
-1 0 2 -51 7 -111 5 -61 11 -178 15 -260 l7 -151 -408 -17 c-225 -10 -453 -21
-506 -24 l-98 -6 0 29 c0 58 2 58 -221 45 -112 -6 -212 -11 -221 -11 -14 0
-18 -8 -18 -39 l0 -38 -92 -7 c-50 -3 -111 -6 -135 -6 -37 0 -139 -48 -697
-327 l-653 -326 -55 22 -54 22 -109 -58 -109 -58 -16 -54 c-9 -31 -24 -60 -37
-68 -19 -13 -27 -12 -73 8 l-52 22 -113 -56 -113 -56 -12 -54 c-10 -53 -12
-54 -70 -82 -81 -39 -107 -69 -133 -156 l-23 -74 -199 -6 c-601 -20 -615 -20
-615 3 0 20 -4 21 -82 15 -46 -4 -100 -7 -120 -7 -31 0 -38 -4 -38 -20 0 -17
-7 -20 -52 -20 -29 0 -70 -3 -90 -6 -33 -6 -38 -4 -38 13 0 19 -6 20 -77 16
-137 -7 -183 -14 -183 -28 0 -17 -41 -22 -305 -35 -121 -7 -234 -15 -252 -20
-17 -4 -75 -36 -127 -70 -94 -61 -96 -63 -96 -101 l0 -39 -315 0 -315 0 0 155
c0 129 -3 157 -15 161 -12 5 -15 27 -15 110 l0 104 -185 0 -185 0 0 60 0 60
-366 0 -367 0 -33 38 c-18 20 -71 85 -116 144 l-83 107 -146 1 -147 0 -51 80
c-41 65 -55 80 -76 80 -24 0 -25 2 -25 65 l0 65 95 0 c88 0 95 1 95 20 0 15
-25 33 -110 75 l-110 55 -157 0 c-193 -1 -203 -5 -203 -94 l0 -56 65 0 65 0 0
-65 0 -65 -417 0 -418 -1 -219 -199 -219 -200 -64 0 c-60 0 -70 -4 -240 -95
l-177 -95 -328 0 -328 0 0 -50 0 -50 -157 0 c-156 -1 -169 -3 -1003 -143
l-845 -142 -3 -35 -3 -35 -165 -27 c-130 -21 -171 -31 -188 -47 -31 -29 -111
-30 -126 -1 -11 20 -21 20 -865 20 l-855 0 0 35 0 35 -130 0 -130 0 0 -34 0
-34 -82 -3 -83 -4 -130 -106 c-71 -59 -137 -115 -146 -125 -9 -11 -42 -63 -74
-116 -44 -76 -62 -98 -79 -98 -12 0 -49 -23 -83 -50 l-62 -50 -770 0 -771 0 0
50 0 50 -565 0 -565 0 0 -50 0 -50 -497 0 -498 1 -90 155 -90 155 -140 117
-140 117 -310 5 c-170 4 -311 7 -312 8 -2 1 -3 65 -3 142 l0 140 -418 0 -419
0 -16 59 c-13 47 -25 67 -59 95 l-42 36 -250 0 c-138 0 -261 3 -273 6 -21 6
-23 12 -23 85 l0 79 -130 0 -130 0 0 -86 0 -86 -437 4 -438 3 -532 268 -533
267 -111 0 -111 0 6 143 c3 78 8 168 12 200 l6 57 -73 0 c-57 0 -81 -5 -104
-20 -16 -11 -42 -20 -57 -20 -24 0 -29 -6 -38 -42 -6 -24 -13 -51 -16 -60 -5
-15 -18 -18 -94 -18 l-88 0 -17 -50 -17 -50 -79 0 -80 0 -21 50 -21 51 -91 -3
-90 -3 -17 -45 c-16 -45 -17 -45 -68 -48 l-51 -3 0 -70 0 -69 -165 0 -165 0
-1 68 c0 37 -8 90 -18 117 l-18 50 -90 3 -91 3 -21 -63 c-12 -35 -21 -87 -21
-120 l0 -58 -355 0 c-195 0 -355 -1 -355 -2 0 -2 -7 -41 -15 -88 -8 -47 -15
-86 -15 -87 0 -2 -14 -3 -31 -3 -22 0 -59 -20 -135 -75 l-104 -75 -588 0 -588
0 -123 -365 -124 -365 -138 0 -139 0 0 124 0 124 -42 31 -42 31 -333 0 -333 0
-225 -112 c-212 -106 -225 -114 -225 -140 l0 -28 -115 0 c-96 0 -115 -3 -115
-15 0 -22 -338 -22 -346 0 -9 22 -254 22 -254 0 0 -13 -27 -15 -185 -15 l-185
0 0 -40 0 -40 -150 0 -150 0 0 40 0 40 -85 0 c-67 0 -85 3 -85 14 0 12 -24 15
-125 18 -114 3 -125 1 -125 -14 0 -17 -38 -18 -652 -18 l-651 0 -226 132
c-124 72 -273 160 -331 195 l-105 63 -307 0 -308 0 0 -40 0 -40 -90 0 -90 0 0
39 0 38 -382 -93 c-211 -52 -393 -96 -405 -99 -14 -3 -39 -30 -64 -70 l-41
-65 -634 -2 -634 -3 -59 -124 -58 -124 206 -361 c168 -294 211 -361 231 -366
20 -5 16 -8 -24 -14 -82 -13 -76 5 -76 -226 l0 -207 107 -21 c58 -12 108 -24
111 -26 12 -12 -10 -36 -32 -36 l-25 0 -3 -142 -3 -142 -75 -15 -75 -16 -3
-182 -2 -181 47 -10 c27 -6 107 -23 180 -38 126 -26 132 -28 135 -53 2 -20 10
-27 38 -32 19 -4 61 -12 93 -19 l57 -11 0 -69 c0 -59 3 -69 23 -82 19 -12
1641 -529 1659 -528 4 0 9 54 10 120 l3 119 89 -49 89 -50 118 0 119 0 1165
-570 1166 -570 484 0 485 0 0 -260 0 -260 605 0 605 0 0 60 0 60 78 0 c66 0
82 -3 97 -20 13 -14 31 -20 61 -20 23 0 44 4 46 8 2 5 86 18 188 30 154 18
273 22 715 28 292 4 510 11 485 15 -25 3 -270 9 -545 13 -421 6 -527 10 -670
28 -93 12 -172 25 -173 30 -7 16 -74 8 -99 -12 -21 -16 -41 -20 -104 -20 l-79
0 0 160 0 160 1071 0 1071 0 324 311 324 311 0 204 0 204 209 0 c120 0 221 -4
237 -10 19 -8 93 -6 252 5 157 10 414 16 841 17 l616 2 -695 6 c-391 4 -758
12 -838 19 -100 8 -154 9 -180 1 -20 -5 -128 -10 -239 -10 l-203 0 0 65 0 66
198 -6 c108 -3 235 -6 282 -7 47 -1 151 3 232 10 81 7 339 13 575 14 235 1
401 3 368 5 -231 11 -1104 27 -1352 24 l-303 -4 0 57 0 56 185 0 185 0 292
180 292 180 2383 0 2384 0 280 -180 c154 -99 284 -180 289 -180 6 0 10 -136
10 -353 l0 -353 762 -102 c703 -95 780 -103 979 -109 l217 -6 168 -386 c92
-212 168 -387 170 -389 1 -2 530 6 1175 17 l1174 21 250 35 249 35 668 0 c588
0 668 2 668 15 0 13 -54 14 -455 8 -389 -5 -455 -4 -455 8 0 12 78 14 512 17
281 1 514 5 517 8 3 3 7 38 9 78 l4 73 92 12 c50 7 103 14 119 17 21 5 27 2
27 -13 0 -26 75 -63 128 -63 l42 0 0 -39 0 -38 -105 -13 c-58 -7 -108 -17
-111 -21 -3 -5 8 -7 23 -4 15 3 219 28 453 56 234 28 432 54 440 57 41 15 -43
11 -226 -13 -111 -14 -206 -25 -212 -25 -7 0 -12 15 -12 33 l0 34 128 38 c96
28 151 39 225 43 96 5 98 5 93 27 -5 20 0 24 56 40 34 9 68 19 75 22 10 4 13
-8 13 -43 0 -48 1 -49 43 -66 29 -11 59 -15 98 -11 55 5 56 5 63 -22 5 -19 3
-31 -6 -36 -13 -8 -75 -23 -157 -37 -25 -4 -46 -13 -49 -20 -3 -9 3 -11 20 -7
65 15 530 109 643 130 146 27 330 72 300 74 -11 0 -110 -17 -220 -39 -110 -22
-205 -40 -212 -40 -13 0 -18 14 -28 71 l-7 36 172 20 c94 12 173 23 176 26 2
2 0 16 -5 31 -9 21 -17 26 -45 26 l-34 0 -4 65 -3 65 67 20 c43 13 94 20 147
20 78 0 81 1 81 23 0 22 16 29 278 106 153 45 354 97 447 116 94 19 180 37
193 40 13 3 22 13 22 25 0 12 8 21 23 24 12 3 419 10 903 15 l881 10 1454 366
c800 202 1489 375 1532 387 l77 20 0 68 0 69 43 5 c23 3 165 7 315 10 l273 6
602 445 602 444 235 1 235 0 53 100 53 100 162 0 c455 1 1086 21 1208 38 l127
18 41 -53 41 -53 439 0 c396 0 441 2 449 16 9 17 15 -12 43 -221 7 -53 20
-104 32 -123 19 -32 22 -33 66 -28 25 3 303 19 616 36 314 17 580 33 593 36
12 2 22 10 22 17 0 9 1134 590 1201 615 5 2 9 -41 9 -95 l0 -99 -142 -18 c-84
-10 -154 -25 -170 -34 l-28 -16 0 -276 0 -276 28 -21 c27 -20 28 -20 162 -2
74 10 150 20 168 23 29 4 35 1 59 -35 l26 -39 147 0 147 0 19 35 19 35 242 2
c134 2 287 3 340 3 l97 0 23 -40 c12 -22 24 -44 26 -50 2 -6 40 2 90 19 l87
29 0 138 c0 77 1 140 3 140 1 1 261 7 577 13 l575 11 -475 8 c-261 4 -521 10
-577 13 l-103 6 0 89 0 89 103 1 c56 1 176 5 267 9 162 6 161 6 -102 8 l-268
2 0 49 0 49 -78 26 c-42 14 -82 26 -87 26 -6 0 -23 -25 -38 -56 l-28 -56 -52
8 c-29 4 -180 7 -336 8 l-285 1 -18 30 c-21 35 -39 43 -95 44 -76 2 -73 -5
-73 171 l0 158 108 57 c131 69 142 79 142 122 l0 33 60 0 c35 0 74 7 95 17
l35 17 0 191 c0 106 3 212 6 237 l6 44 -44 17 c-24 9 -69 17 -100 17 -49 0
-56 3 -61 22 -4 12 -5 23 -4 24 1 1 92 13 202 28 197 26 210 26 781 26 568 0
581 0 599 -20 19 -22 100 -29 107 -10 2 6 68 19 148 30 136 17 702 35 1348 41
81 1 -156 8 -527 15 -559 11 -698 17 -819 33 -81 11 -148 25 -150 30 -7 22
-79 12 -110 -14 l-30 -25 -258 1 -259 1 170 24 c94 13 243 33 333 45 l162 22
0 47 0 47 332 6 c182 4 404 8 492 9 l161 2 -185 7 c-102 3 -297 8 -435 10
-181 2 -211 4 -109 6 l142 4 38 54 c31 46 42 55 68 56 26 0 39 11 84 70 l53
69 -31 0 -31 0 23 30 c14 19 31 30 47 30 20 1 37 16 74 65 l47 65 -26 0 c-26
0 -27 0 -9 20 10 11 28 20 41 20 14 0 36 17 63 49 43 52 50 71 26 71 -21 0
-19 7 15 50 l31 39 -35 3 c-29 2 -34 6 -26 18 7 11 34 16 107 18 89 3 100 6
126 30 15 14 27 29 27 33 0 5 -27 9 -61 11 l-60 3 56 73 56 72 178 0 178 0 38
55 c32 47 42 55 69 55 27 1 37 9 78 70 l47 70 -32 0 -32 1 35 29 c19 16 43 30
52 30 14 0 108 108 108 124 0 3 -7 6 -15 6 -13 0 -14 4 -5 20 7 13 21 20 40
20 25 0 36 10 70 60 l41 60 -26 0 c-15 0 -24 4 -20 10 4 6 139 10 371 10 l365
0 296 250 295 250 118 0 c103 0 124 3 172 24 31 14 58 32 62 41 11 29 -5 63
-35 75 -16 7 -32 16 -34 20 -3 4 94 83 215 176 l219 169 -550 3 -550 2 40 48
41 47 -78 3 -77 3 -43 -51 -44 -50 -84 0 c-46 0 -84 4 -84 8 0 4 16 23 35 42
19 19 35 38 35 42 0 4 -33 8 -74 8 l-75 0 -92 -100 -93 -100 -133 0 -133 0
-31 50 -31 50 -174 0 -174 0 -140 70 -140 70 -282 0 c-269 0 -283 -1 -303 -20
l-22 -20 -25 20 c-25 19 -40 20 -310 19 l-283 0 -135 -69z m-9450 -3150 l0
-60 -315 0 -315 0 0 60 0 60 315 0 315 0 0 -60z m-7361 -2825 l134 -120 -211
-3 c-209 -2 -211 -3 -215 -25 -2 -12 -5 76 -6 197 l-1 218 83 -74 c45 -40 142
-128 216 -193z"/>
</g>
</svg>
