<?xml version="1.0" standalone="no"?>
<!DOCTYPE svg PUBLIC "-//W3C//DTD SVG 20010904//EN"
 "http://www.w3.org/TR/2001/REC-SVG-20010904/DTD/svg10.dtd">
<svg version="1.0" xmlns="http://www.w3.org/2000/svg"
   viewBox="0 0 4518.000000 2399.000000"
 preserveAspectRatio="xMidYMid meet">
<metadata>
Created by potrace 1.16, written by Peter Selinger 2001-2019
</metadata>
<g transform="translate(0.000000,2399.000000) scale(0.100000,-0.100000)"
fill="#000000" stroke="none">
<path d="M31000 23823 l-705 -166 -121 -286 -120 -286 -81 -3 -80 -3 -7 62
c-3 34 -6 81 -6 104 0 40 -3 44 -71 98 -40 32 -81 57 -93 57 -24 0 -1854 -197
-1908 -206 l-38 -6 0 -236 c0 -131 5 -349 11 -487 10 -216 9 -354 -11 -1015
-13 -442 -20 -802 -16 -852 7 -84 9 -87 34 -92 15 -3 452 -69 972 -146 520
-77 954 -142 965 -144 16 -4 31 15 83 105 34 60 62 117 62 125 0 14 8 16 53
10 28 -3 66 -6 83 -6 30 0 33 -4 148 -243 l118 -243 735 -121 c404 -67 736
-123 738 -125 2 -1 7 -112 11 -244 l7 -242 -51 -33 -52 -34 0 -285 0 -285 105
-122 105 -122 0 -226 0 -226 -56 -75 -55 -76 -9 -314 -9 -314 -273 -393 -273
-392 -445 -3 c-245 -2 -810 0 -1255 4 l-811 6 -64 73 c-56 63 -71 74 -107 80
l-43 7 0 118 0 119 -52 10 c-29 6 -305 58 -613 116 -308 58 -568 108 -577 111
-9 3 -18 17 -20 31 l-3 27 -290 52 c-159 29 -297 53 -305 53 -11 1 -24 -34
-48 -127 -19 -71 -37 -133 -40 -139 -5 -6 -69 2 -182 22 -96 18 -219 40 -272
50 l-98 17 0 34 0 34 -119 0 -120 0 -43 73 -44 72 -205 3 -205 2 -34 35 c-30
30 -40 35 -82 35 -43 0 -66 10 -200 89 l-151 90 -431 105 c-237 59 -658 162
-936 230 l-505 123 -33 -28 -33 -29 -213 0 -213 0 -11 39 c-7 21 -12 48 -12
60 0 21 -2 21 -292 23 l-291 3 -110 308 -110 307 -137 0 -138 0 -23 85 -22 85
-1626 -2 -1625 -3 -145 -372 -145 -373 -1583 0 -1582 0 -706 405 -707 406
-2261 39 c-1244 22 -2324 40 -2399 40 l-138 0 0 -81 c0 -72 -4 -89 -35 -153
l-34 -71 -7 -390 -7 -390 27 -62 c14 -34 26 -76 26 -93 l0 -30 -154 0 -153 0
-159 -89 -159 -88 -3 -509 -2 -509 -408 -177 c-224 -97 -621 -268 -882 -379
l-475 -202 -151 -144 -152 -143 -1173 0 -1174 0 -636 425 -637 425 -335 0
-335 0 -6 -22 c-3 -13 -6 -204 -6 -425 l0 -403 -655 0 -655 0 0 -170 c0 -107
4 -170 10 -170 7 0 10 -653 10 -1940 l0 -1940 645 0 645 0 0 -342 c0 -189 3
-354 7 -367 l6 -24 341 7 341 7 540 359 540 360 815 0 815 0 735 -169 735
-169 108 109 109 109 161 -36 c89 -20 166 -38 172 -40 6 -3 53 38 104 91 l93
96 336 -55 c307 -50 369 -57 692 -77 195 -12 356 -22 357 -23 0 0 35 -156 76
-346 41 -190 103 -455 138 -588 l62 -244 146 7 146 7 50 -51 49 -51 589 0 588
0 17 32 c9 17 26 41 37 53 19 20 34 21 415 33 217 7 441 12 498 12 l102 0 110
55 110 55 0 420 0 420 88 -6 c48 -3 258 -14 467 -24 l380 -18 259 59 259 58
120 -29 120 -29 1499 244 c825 133 1501 244 1503 246 2 2 16 73 32 158 l28
155 119 69 118 69 4117 39 c2264 21 4237 39 4385 39 l268 0 -7 -767 -7 -768
104 -52 105 -51 25 25 25 24 718 -251 c395 -138 719 -249 722 -247 2 3 25 74
51 158 l48 154 104 3 105 3 48 -96 47 -95 55 0 54 0 3 -83 3 -82 332 -3 333
-2 51 69 52 69 99 7 c55 4 102 4 106 0 3 -3 30 -278 59 -612 l53 -605 114
-132 c62 -72 176 -203 253 -291 l139 -160 335 3 335 3 281 -419 282 -418 -6
-486 -6 -485 -96 -7 c-53 -3 -129 -6 -168 -6 l-73 0 0 -70 0 -70 -3412 0
-3413 -1 -390 -628 c-214 -346 -390 -634 -390 -642 0 -7 1424 -1094 3164
-2416 l3163 -2403 774 0 774 0 0 2325 0 2325 30 0 30 0 0 -85 0 -85 795 0 795
0 0 90 0 90 30 0 30 0 0 -2330 0 -2330 775 0 776 0 3164 2402 c2185 1659 3164
2408 3162 2420 -1 9 -177 298 -392 642 l-390 626 -3412 0 -3413 0 0 70 0 70
-183 0 -183 0 -19 868 c-22 1021 -21 841 -10 2714 l8 1488 48 0 49 0 0 1010 0
1010 -50 0 -50 0 0 120 0 119 -95 3 -94 3 233 590 233 590 44 3 c24 2 891 1
1926 -3 l1881 -7 -30 -50 c-24 -39 -28 -52 -18 -58 11 -7 11 -11 1 -24 -8 -9
-20 -16 -27 -16 -7 0 -21 -12 -30 -26 -14 -20 -15 -27 -5 -34 18 -11 -4 -50
-28 -50 -10 0 -24 -6 -30 -14 -13 -15 -66 -25 -203 -35 -54 -4 -100 -10 -102
-12 -3 -3 -8 -105 -12 -228 l-7 -222 36 5 c21 3 53 8 72 11 19 3 35 10 35 15
0 6 25 10 55 10 30 0 55 -4 55 -10 0 -5 25 -10 55 -10 48 0 55 -2 55 -20 0
-19 7 -20 149 -20 136 0 149 2 153 18 5 18 26 19 329 25 l323 7 32 -31 c30
-29 32 -30 80 -18 99 23 94 11 94 242 0 111 -4 208 -9 215 -4 7 -37 22 -72 33
l-64 19 -26 -30 -25 -30 -333 0 -333 0 5 23 c2 12 8 30 12 40 5 12 3 17 -9 17
-13 0 -14 4 -4 25 7 15 20 25 32 25 13 0 28 12 38 30 15 26 15 30 2 30 -12 0
-12 4 -4 20 6 11 18 20 28 20 10 0 31 22 50 55 l33 55 715 0 714 0 12 -25 11
-25 287 0 287 0 11 25 12 25 381 0 380 0 -31 -55 c-25 -44 -28 -55 -15 -55 13
0 14 -4 5 -20 -6 -11 -19 -20 -28 -20 -10 0 -26 -14 -35 -30 -16 -26 -16 -30
-3 -30 13 0 14 -4 4 -25 -6 -14 -18 -25 -26 -25 -9 0 -23 -6 -31 -14 -19 -16
-138 -36 -218 -36 -112 0 -103 20 -103 -236 l0 -223 38 5 c85 11 102 15 102
24 0 6 25 10 55 10 30 0 55 -4 55 -10 0 -5 23 -10 51 -10 42 0 52 -3 56 -20 5
-19 14 -20 150 -20 132 0 145 2 150 18 4 18 25 19 331 25 l326 7 26 -32 26
-31 55 13 c104 24 99 11 99 244 0 232 4 222 -92 248 l-56 16 -28 -29 -28 -29
-327 0 c-353 0 -349 -1 -322 53 12 24 12 27 -2 27 -18 0 -19 5 -5 31 6 10 19
19 29 19 24 0 58 49 42 60 -17 10 -2 38 22 42 13 2 32 22 52 55 l30 53 347 0
346 0 11 -30 10 -30 256 0 257 0 11 30 11 30 213 0 213 0 87 40 c86 40 88 40
103 21 14 -19 22 -14 220 125 l205 144 45 -45 46 -45 576 0 c568 0 577 0 583
-20 6 -19 15 -20 124 -20 105 0 120 2 136 20 14 16 31 20 82 20 58 0 69 4 131
44 l67 45 500 4 500 3 255 48 c182 34 259 52 268 64 6 9 47 79 91 156 l78 141
6 277 5 276 -117 110 c-64 60 -125 112 -136 116 -11 3 -27 18 -36 33 -12 23
-34 34 -116 61 -96 31 -101 32 -142 17 -50 -17 -46 -18 -128 52 l-61 54 -454
6 -453 5 -42 29 -41 29 -382 0 -382 0 -41 -35 c-36 -31 -47 -35 -96 -35 -31 0
-93 -3 -138 -7 l-83 -6 0 -33 0 -34 -85 0 -86 0 -96 -92 c-52 -51 -99 -102
-103 -113 -9 -25 -450 -228 -464 -214 -6 5 -29 9 -53 9 -37 0 -43 -3 -49 -24
l-6 -24 -321 5 -322 5 -79 44 c-66 37 -87 44 -132 44 -47 0 -63 -6 -122 -44
l-67 -44 -300 -5 -300 -6 -57 50 c-54 47 -59 49 -118 49 -57 0 -66 -3 -124
-45 l-62 -44 -302 -1 -301 -2 -71 46 c-62 41 -77 46 -126 46 -49 0 -64 -6
-132 -49 l-77 -48 -340 17 c-187 10 -341 18 -342 19 -2 1 -3 20 -3 44 0 91 18
84 -241 89 l-229 4 -45 44 c-24 24 -47 56 -50 72 l-7 28 -249 0 c-213 0 -250
-2 -255 -15 -5 -13 -45 -15 -269 -15 l-263 0 -18 50 -18 50 -453 0 c-446 0
-453 0 -453 20 0 19 -7 20 -215 20 l-215 0 0 50 0 50 -765 0 -765 0 0 -80 0
-80 -159 0 -159 0 -6 -45 -7 -45 -119 0 -120 0 11 28 c5 15 66 169 135 343
l125 316 -7 421 -7 421 -64 70 -63 69 0 234 0 235 105 115 105 116 0 289 0
288 -45 30 -45 30 0 238 0 238 48 -6 c26 -3 82 -9 125 -13 l77 -8 0 1721 c0
947 3 1918 7 2158 l6 437 -709 -1 -709 -1 -705 -165z m7450 -8553 c70 -44 86
-50 133 -50 45 0 63 6 123 43 l71 44 300 6 300 6 68 -49 c63 -47 72 -50 127
-50 55 0 64 3 116 44 l57 44 300 5 300 5 69 -49 c62 -43 76 -49 120 -49 43 0
63 8 127 48 l76 47 319 -7 c180 -5 327 -12 336 -18 10 -5 37 -10 60 -10 37 0
47 -5 71 -34 15 -19 27 -37 27 -39 0 -2 -74 -55 -165 -117 -164 -114 -165
-115 -165 -152 0 -37 -1 -38 -80 -78 l-80 -40 -208 0 -208 0 -11 30 -11 30
-257 0 -256 0 -10 -30 -11 -30 -904 0 -904 0 -12 25 -11 25 -287 0 -287 0 -11
-25 -12 -25 -1817 5 c-2688 7 -3773 14 -3773 24 0 4 10 31 21 60 l22 51 1043
0 1044 0 0 -20 c0 -21 4 -21 285 -18 l284 3 43 43 44 42 1437 0 1437 0 0 140
0 140 58 1 c59 1 561 25 575 28 4 0 43 -21 87 -49z m-9494 -913 l490 -362
-166 -5 -166 -5 -72 -55 -72 -55 0 -165 0 -165 -222 -66 -221 -66 -62 -174
-62 -174 -111 -3 -111 -3 -58 110 -58 111 -221 0 c-121 0 -269 -3 -327 -7
l-107 -6 0 -102 0 -102 -31 -7 c-17 -3 -46 -6 -63 -6 -31 0 -33 -3 -76 -105
l-44 -106 -70 3 -70 3 -73 180 c-39 99 -73 184 -75 188 -2 4 -265 -80 -584
-187 l-581 -194 -4654 -34 -4654 -34 -1950 34 c-1072 19 -1951 35 -1951 36 -5
4 27 1070 32 1075 3 3 900 7 1992 9 l1987 3 480 161 c264 88 485 166 490 173
6 7 21 51 34 99 l24 86 181 1 c100 1 530 5 955 8 l775 6 62 104 c34 57 67 108
72 113 7 7 979 8 2961 3 l2951 -8 0 -166 0 -166 1142 22 c629 12 1198 22 1266
22 l122 1 0 170 0 170 203 0 202 -1 491 -362z m1038 256 c-41 -60 -80 -107
-87 -105 -11 3 -283 186 -301 203 -6 5 94 9 227 9 l236 0 -75 -107z"/>
</g>
</svg>
