<?xml version="1.0" standalone="no"?>
<!DOCTYPE svg PUBLIC "-//W3C//DTD SVG 20010904//EN"
 "http://www.w3.org/TR/2001/REC-SVG-20010904/DTD/svg10.dtd">
<svg version="1.0" xmlns="http://www.w3.org/2000/svg"
   viewBox="0 0 4898.000000 1785.000000"
 preserveAspectRatio="xMidYMid meet">
<metadata>
Created by potrace 1.16, written by Peter Selinger 2001-2019
</metadata>
<g transform="translate(0.000000,1785.000000) scale(0.100000,-0.100000)"
fill="#000000" stroke="none">
<path d="M18800 17220 l0 -630 359 0 360 0 22 40 c19 34 28 40 56 40 29 0 35
-5 49 -40 l16 -40 119 0 119 0 0 -186 0 -186 81 -111 c44 -62 89 -115 100
-119 24 -9 36 12 -100 -173 l-81 -110 0 -1232 0 -1233 -244 0 -245 0 -197 115
c-108 63 -201 115 -206 115 -5 0 -63 -19 -129 -42 l-119 -42 0 -1252 0 -1252
-60 -7 -60 -7 -61 -76 c-34 -42 -67 -84 -73 -94 -10 -17 -40 -18 -461 -18
-282 0 -488 4 -552 12 l-102 12 -3 64 -3 65 -367 221 -367 221 -1 88 0 87 594
0 594 0 25 33 26 34 248 7 c136 3 324 9 416 13 l168 6 -3 45 -3 45 -115 34
c-103 31 -190 44 -840 123 -399 49 -733 90 -742 90 -10 0 -22 14 -29 35 -13
34 -18 37 -109 64 -141 43 -241 61 -344 61 -89 0 -93 1 -104 25 l-12 25 -525
0 -525 0 -25 -49 c-20 -41 -22 -51 -11 -60 10 -8 12 -21 7 -39 -7 -26 -10 -27
-102 -33 -62 -4 -127 -17 -189 -36 l-95 -30 -3 -150 -3 -151 184 -7 183 -7 37
-119 c35 -112 37 -126 37 -253 0 -130 -1 -136 -22 -148 -17 -9 -102 -14 -307
-18 l-283 -5 -40 -105 c-22 -58 -43 -108 -46 -112 -4 -4 -54 33 -112 82 l-105
90 -540 0 -540 0 -697 -124 -697 -125 -473 -274 c-260 -151 -487 -282 -505
-291 -26 -13 -66 -16 -224 -16 l-193 0 -430 -274 -431 -273 -910 -117 c-500
-64 -921 -119 -935 -122 -19 -3 -45 -36 -113 -143 l-88 -139 -47 -6 c-26 -3
-261 -24 -522 -46 -261 -22 -489 -43 -507 -46 -26 -4 -77 -53 -292 -282 l-260
-277 -1 -182 0 -183 -210 0 -210 0 0 143 0 142 -283 237 -282 238 -1073 0
-1073 0 -84 -70 -84 -70 -473 0 -473 0 -85 70 -85 70 -80 0 c-81 0 -241 -47
-1557 -456 -17 -5 -18 -36 -18 -463 l0 -457 556 -884 c306 -487 652 -1039 770
-1226 l214 -342 0 -540 0 -540 -110 -460 c-60 -252 -110 -462 -110 -466 0 -3
-34 -6 -75 -6 -68 0 -79 -3 -134 -37 l-59 -38 -31 -115 c-17 -63 -45 -171 -62
-240 l-32 -125 105 -268 105 -267 74 -53 c61 -43 83 -53 128 -57 l54 -5 47
-140 47 -140 124 -3 124 -3 205 -424 205 -425 74 0 c72 0 78 2 241 80 l167 80
605 0 606 0 63 327 64 328 467 3 466 2 26 78 c14 42 80 294 147 558 l122 482
45 6 c24 3 314 6 643 6 l599 0 0 -256 0 -255 203 5 c111 4 607 11 1102 16 495
6 1008 13 1140 16 l240 6 231 213 231 212 723 8 724 7 411 378 411 377 1112 8
1112 7 0 -504 0 -505 116 -206 116 -207 1953 0 1953 0 58 -95 58 -95 1788 0
c1580 0 1787 -2 1782 -15 -5 -13 -76 -15 -528 -17 l-521 -3 -29 -128 -30 -127
-162 0 -162 0 -32 90 -32 90 -214 0 -214 0 0 -485 0 -485 85 0 85 0 29 -59 30
-58 93 -18 c75 -14 130 -35 284 -106 l192 -89 809 0 810 0 279 -136 279 -137
909 6 909 6 380 158 380 158 46 97 45 98 726 0 725 0 100 110 100 110 1203 0
1202 0 32 64 31 64 151 6 c83 3 453 8 821 11 369 3 717 8 775 11 l105 5 -40
-23 -40 -24 0 -68 0 -68 120 -52 120 -51 650 -7 c358 -4 895 -10 1195 -13
l545 -6 235 69 c204 60 235 72 238 90 4 26 -1 25 231 59 l193 28 43 40 c23 22
44 46 46 53 3 10 567 19 2744 47 1507 19 2806 35 2888 35 l147 0 0 70 c0 39
-1 71 -2 71 -2 1 -1273 18 -2825 38 -1552 20 -2824 39 -2827 42 -4 3 7 39 24
79 19 46 30 90 30 120 0 47 0 48 -63 89 l-63 41 -123 0 c-67 0 -131 -5 -142
-10 -14 -8 -19 -21 -19 -54 0 -40 2 -44 40 -61 22 -10 40 -22 40 -26 0 -5 -19
-48 -42 -95 l-43 -87 -330 7 c-181 3 -629 9 -995 13 -366 3 -675 9 -686 12
l-21 6 23 80 c13 44 24 106 24 138 l0 57 -62 40 -61 40 -553 0 -553 0 -88 -95
-88 -95 -125 0 c-115 0 -128 2 -165 25 -37 22 -50 24 -165 25 -115 0 -128 -2
-169 -25 -39 -23 -53 -25 -165 -25 -113 0 -124 2 -158 25 -35 23 -45 25 -165
25 -118 0 -131 -2 -168 -25 -37 -22 -50 -24 -165 -25 -117 0 -128 2 -162 25
-36 24 -42 25 -204 25 -146 0 -177 -3 -238 -22 -39 -13 -72 -26 -74 -30 -2 -5
-327 -8 -722 -8 l-718 0 -6 98 c-4 53 -9 118 -12 144 -9 77 -32 86 -365 161
l-286 63 -99 67 -99 67 -519 0 -519 0 21 23 c22 23 22 23 22 535 l0 512 878
-1 c482 0 1536 -10 2342 -22 l1465 -22 50 134 50 135 136 40 c93 28 146 50
168 68 41 35 46 35 61 -2 7 -16 18 -30 24 -30 6 0 116 18 245 40 129 23 241
40 249 38 9 -2 22 -27 31 -63 l16 -60 225 2 c481 5 690 14 690 30 0 8 7 45 16
84 l16 69 1772 0 1772 0 23 -117 c40 -208 41 -213 60 -213 9 0 59 -43 111 -95
l95 -95 472 0 473 0 0 40 0 40 650 0 c614 0 654 -1 735 -20 62 -15 121 -20
214 -20 l128 0 134 -225 134 -224 392 -1 392 0 219 115 219 115 408 0 408 0
51 -56 51 -55 253 30 c252 31 253 31 355 15 93 -16 114 -23 237 -89 112 -61
146 -74 200 -80 36 -4 78 -14 94 -22 15 -8 27 -11 25 -6 -2 5 -61 110 -131
234 -112 196 -151 253 -307 454 l-180 229 -953 378 -953 377 -342 1 -343 0 0
26 c0 30 -55 84 -86 84 -14 0 -119 93 -321 288 l-300 287 -339 64 c-333 63
-343 65 -556 144 l-217 80 -74 86 -75 87 -129 23 c-70 13 -184 31 -253 40
l-125 17 -5 97 -5 98 -1024 427 -1024 427 -49 160 c-28 88 -54 165 -59 171 -5
6 -222 100 -484 209 -261 110 -475 202 -475 205 0 3 54 71 121 153 l120 147
665 0 664 0 0 25 c0 22 14 32 130 87 l130 61 0 78 0 79 340 0 340 0 0 565 c0
311 3 565 8 565 4 0 81 9 172 20 91 11 269 29 395 40 127 11 361 36 520 55
160 19 957 104 1773 190 815 85 1745 187 2065 226 540 66 595 71 764 70 143
-2 188 1 211 13 24 12 324 19 1973 45 1069 17 2495 40 3169 51 674 11 1258 20
1298 20 69 0 72 1 72 24 l0 24 -212 6 c-117 3 -960 18 -1873 32 -913 14 -1863
28 -2112 32 -248 4 -454 9 -457 13 -3 3 0 22 6 42 l11 37 2319 0 2318 0 0 205
0 205 -2318 0 -2318 0 -28 95 -29 95 -348 0 -349 0 -17 60 -16 60 -3027 0
c-1665 0 -3588 3 -4274 7 l-1247 6 -29 56 -28 56 -459 208 c-252 114 -464 207
-471 207 -6 0 -22 -18 -34 -40 -22 -38 -25 -40 -74 -40 l-51 0 -17 45 -18 45
-294 0 -294 0 0 121 c0 95 5 141 25 218 19 77 22 105 15 132 -6 19 -10 37 -10
41 0 5 87 8 194 8 125 0 196 4 198 10 2 7 185 13 546 17 299 3 545 9 547 13 2
4 -240 10 -538 14 -454 6 -544 9 -557 21 -13 12 -55 15 -218 15 -193 0 -202 1
-202 19 0 22 1 22 185 44 97 12 100 13 103 38 4 32 2 33 -165 50 l-123 13 0
177 0 178 -43 26 c-24 14 -55 25 -69 25 -25 0 -26 2 -33 85 -4 46 -4 89 0 95
4 6 3 154 -1 328 -12 477 -23 325 -33 -465 -1 -42 -2 -43 -36 -43 l-35 0 -1
98 c-1 53 -4 124 -8 157 -6 51 -8 37 -15 -97 l-8 -158 -87 0 -86 0 -32 -48
c-17 -26 -56 -116 -85 -199 -51 -146 -54 -153 -80 -153 -15 0 -39 -5 -53 -12
-21 -9 -25 -18 -25 -53 0 -34 5 -46 25 -59 22 -14 25 -24 25 -75 0 -43 -5 -65
-20 -84 -12 -15 -20 -40 -20 -62 0 -31 -11 -49 -70 -118 l-70 -82 0 -347 c0
-317 -1 -348 -17 -348 -9 0 -31 -18 -50 -40 l-35 -40 -736 0 -737 1 -738 342
-739 343 -257 624 -257 625 222 3 222 2 30 78 29 77 50 3 50 3 29 -81 c16 -44
33 -78 39 -76 5 2 103 45 218 96 l207 92 0 438 0 437 -217 96 -218 95 -29 -80
-28 -79 -51 3 -51 3 -29 78 -30 77 -481 0 -481 0 -117 288 c-64 158 -115 288
-113 290 3 4 4330 342 4373 342 22 0 22 1 22 155 0 85 -3 155 -7 155 -31 -2
-2290 175 -2295 179 -4 4 477 44 1070 90 592 46 1103 86 1135 89 l57 5 0 153
c0 140 -2 154 -17 154 -26 -1 -5208 402 -5211 405 -1 1 3 90 10 198 l12 197
77 0 77 0 28 80 29 81 50 -3 49 -3 29 -75 c15 -41 29 -76 31 -77 1 -1 96 39
212 90 l209 93 0 443 0 442 -210 93 -210 93 -30 -79 -30 -78 -51 0 -52 0 -28
80 -27 80 -3852 0 -3852 0 -17 -45 c-15 -39 -21 -45 -47 -45 -24 0 -34 8 -57
45 l-27 45 -357 0 -358 0 0 -630z"/>
</g>
</svg>
