<?xml version="1.0" standalone="no"?>
<!DOCTYPE svg PUBLIC "-//W3C//DTD SVG 20010904//EN"
 "http://www.w3.org/TR/2001/REC-SVG-20010904/DTD/svg10.dtd">
<svg version="1.0" xmlns="http://www.w3.org/2000/svg"
   viewBox="0 0 4147.000000 2325.000000"
 preserveAspectRatio="xMidYMid meet">
<metadata>
Created by potrace 1.16, written by Peter Selinger 2001-2019
</metadata>
<g transform="translate(0.000000,2325.000000) scale(0.100000,-0.100000)"
fill="#000000" stroke="none">
<path d="M19931 23228 c-5 -13 -18 -44 -29 -69 l-20 -47 26 -5 c15 -3 187 -27
382 -53 195 -27 348 -50 339 -52 -9 -1 -152 16 -319 38 -247 33 -306 38 -315
28 -7 -7 -55 -65 -107 -129 l-96 -115 184 -3059 c100 -1682 181 -3063 178
-3067 -3 -5 -146 -211 -319 -458 -173 -247 -316 -454 -319 -458 -5 -9 358
-2603 369 -2629 2 -8 162 -230 355 -494 193 -264 351 -484 353 -489 1 -4 -248
-203 -553 -440 -305 -238 -558 -437 -561 -443 -3 -7 -48 -146 -99 -309 -52
-164 -98 -298 -104 -298 -5 0 -113 39 -238 86 l-229 86 -4352 -4 -4352 -3
-737 -427 -737 -428 -211 0 -211 0 -737 -335 -737 -335 -1183 0 -1182 0 -420
210 c-351 176 -427 210 -462 210 -24 0 -662 -49 -1418 -109 l-1375 -109 -347
-193 -347 -194 0 -1615 0 -1615 347 -194 347 -193 1414 -109 1414 -109 427
140 427 140 1117 0 1118 0 800 -555 800 -555 3144 0 3144 0 0 -27 c0 -33 27
-528 35 -631 l5 -72 -83 0 c-73 0 -94 -5 -202 -46 l-120 -46 -1555 -59 c-855
-32 -1576 -59 -1602 -59 l-48 0 -6 -40 -7 -40 -386 -1 c-212 0 -712 -4 -1111
-8 l-725 -7 -57 -34 c-89 -53 -86 -59 98 -223 l155 -139 257 -34 c237 -31 355
-39 1525 -99 l1269 -65 381 -86 382 -85 685 -19 c377 -11 724 -21 771 -22 l86
-3 -42 -135 -41 -135 -144 -5 c-142 -6 -147 -7 -255 -49 l-110 -44 -1535 -58
c-844 -32 -1565 -58 -1601 -59 l-66 0 -7 -40 -6 -40 -303 0 c-166 -1 -668 -5
-1115 -9 l-813 -9 -54 -36 c-40 -26 -55 -43 -55 -59 0 -16 42 -60 156 -161
l156 -139 246 -33 c226 -30 355 -38 1522 -99 l1275 -65 385 -87 385 -86 792
-21 c435 -12 793 -23 796 -26 2 -3 -3 -26 -10 -52 l-14 -48 -213 0 -214 0
-121 -46 -122 -46 -1597 -63 c-878 -34 -1598 -63 -1599 -64 -2 0 -3 -12 -3
-25 0 -13 -6 -28 -12 -34 -9 -6 -399 -12 -1117 -17 l-1104 -7 -59 -37 c-87
-54 -84 -60 100 -224 110 -97 163 -138 185 -142 18 -3 138 -19 267 -35 205
-27 396 -39 1496 -95 l1261 -64 389 -89 389 -90 1126 -27 1125 -27 100 42 99
42 561 77 562 77 65 50 65 49 6 70 c3 39 8 144 12 235 l6 165 -51 28 c-28 15
-67 27 -86 27 l-35 0 0 59 0 59 -92 6 c-51 3 -251 8 -443 10 l-350 5 -120 56
c-71 32 -119 60 -117 68 2 6 10 31 19 55 l16 42 162 0 162 0 96 40 c96 40 104
42 656 120 l560 79 64 50 64 51 6 67 c4 38 9 142 13 233 l6 165 -50 28 c-28
15 -65 27 -86 27 l-36 0 0 60 0 60 -52 1 c-29 0 -228 4 -443 8 l-390 7 -147
68 c-82 38 -148 71 -148 74 0 3 21 61 46 129 l47 123 137 0 136 0 93 40 c90
38 107 41 515 99 487 69 551 71 596 19 23 -26 46 -34 280 -89 l255 -60 1265
-144 1265 -143 380 -146 380 -145 1120 -74 1120 -73 105 64 104 64 551 104
c302 57 559 106 570 109 11 3 50 40 86 83 l67 77 26 340 c21 284 23 342 12
355 -7 8 -16 46 -20 85 -4 38 -9 71 -10 73 -2 2 -244 16 -537 31 l-534 29
-104 36 c-71 24 -123 36 -160 36 -35 0 -51 4 -45 9 5 6 115 49 244 96 l235 86
2595 279 2595 280 990 6 990 5 495 155 495 154 1211 130 c901 96 1219 127
1240 120 16 -5 535 -51 1153 -101 l1124 -91 213 213 212 212 58 129 c32 71 61
131 65 134 4 2 389 31 854 64 l846 60 131 124 130 124 109 7 109 7 0 34 c0 18
6 36 13 41 6 4 48 10 91 13 l80 5 34 133 c20 72 38 132 41 132 3 0 45 -64 92
-142 l85 -141 80 -3 c94 -2 1325 121 1351 135 10 6 245 33 523 61 278 28 522
53 543 56 31 5 41 12 57 45 19 37 20 60 20 583 0 542 0 546 -22 591 -17 36
-27 45 -47 45 -70 1 -1060 108 -1072 116 -20 13 -1313 145 -1317 134 -2 -4
-29 -6 -60 -3 l-57 4 -84 -140 c-45 -78 -86 -143 -90 -145 -4 -3 -22 54 -40
125 -19 71 -39 133 -45 137 -6 3 -141 12 -300 18 l-288 12 -66 65 -66 66
-2297 1056 -2296 1055 -1243 0 -1243 0 -201 130 c-167 106 -235 158 -387 292
l-185 163 -1374 78 -1375 79 -280 180 c-154 99 -343 221 -420 270 l-140 90
-79 194 -79 193 -41 5 c-34 4 -4056 147 -4108 146 -9 0 -53 -48 -99 -107 -45
-60 -85 -112 -89 -116 -5 -5 -173 -1 -374 9 l-366 18 -1 25 c0 14 -8 105 -18
201 -10 96 -17 175 -17 175 1 1 849 -7 1886 -16 1037 -10 2074 -17 2305 -18
l420 0 506 467 506 467 7 107 7 108 -1017 2398 -1017 2398 -331 239 -332 240
-1084 2447 c-1073 2422 -1084 2448 -1114 2453 -53 9 -1977 265 -1992 265 -8 0
-18 -10 -23 -22z m819 -237 c33 -6 37 -9 15 -9 -16 0 -50 3 -75 7 -33 6 -37 9
-15 9 17 0 50 -3 75 -7z m98 -18 c-10 -2 -26 -2 -35 0 -10 3 -2 5 17 5 19 0
27 -2 18 -5z m70 -10 c-10 -2 -26 -2 -35 0 -10 3 -2 5 17 5 19 0 27 -2 18 -5z
m80 -10 c-10 -2 -26 -2 -35 0 -10 3 -2 5 17 5 19 0 27 -2 18 -5z m70 -10 c-10
-2 -26 -2 -35 0 -10 3 -2 5 17 5 19 0 27 -2 18 -5z m75 -10 c-7 -2 -21 -2 -30
0 -10 3 -4 5 12 5 17 0 24 -2 18 -5z m70 -10 c-7 -2 -21 -2 -30 0 -10 3 -4 5
12 5 17 0 24 -2 18 -5z m80 -10 c-7 -2 -21 -2 -30 0 -10 3 -4 5 12 5 17 0 24
-2 18 -5z m70 -10 c-7 -2 -21 -2 -30 0 -10 3 -4 5 12 5 17 0 24 -2 18 -5z m70
-10 c-7 -2 -19 -2 -25 0 -7 3 -2 5 12 5 14 0 19 -2 13 -5z m70 -10 c-7 -2 -19
-2 -25 0 -7 3 -2 5 12 5 14 0 19 -2 13 -5z m80 -10 c-7 -2 -19 -2 -25 0 -7 3
-2 5 12 5 14 0 19 -2 13 -5z m70 -10 c-7 -2 -19 -2 -25 0 -7 3 -2 5 12 5 14 0
19 -2 13 -5z m74 -9 c-3 -3 -12 -4 -19 -1 -8 3 -5 6 6 6 11 1 17 -2 13 -5z
m70 -10 c-3 -3 -12 -4 -19 -1 -8 3 -5 6 6 6 11 1 17 -2 13 -5z m4457 -9407
c154 -364 280 -669 280 -678 1 -10 -174 -150 -445 -357 l-446 -341 -1429 34
c-786 19 -1477 36 -1537 37 l-107 3 242 178 242 177 310 0 c171 1 703 5 1182
9 l871 9 309 235 310 236 16 68 17 69 -114 398 -114 398 30 61 c28 55 84 127
98 127 4 0 132 -298 285 -663z m7026 -4379 c110 -50 199 -92 197 -94 -1 -1
-123 27 -272 64 l-270 65 -400 5 -400 5 410 22 c226 12 438 23 473 24 60 1 74
-4 262 -91z m2393 -1099 l1207 -554 -109 -3 c-98 -2 -128 2 -307 42 l-199 44
-535 224 -535 224 -450 323 c-247 177 -454 327 -460 332 -5 6 33 -9 85 -33 52
-24 638 -294 1303 -599z m1784 -2301 c-37 -93 -54 -128 -62 -128 -6 0 -235
-29 -508 -65 -274 -36 -503 -65 -510 -64 -36 2 74 23 389 74 l352 57 25 58 25
58 73 6 c222 18 222 18 216 4z m-20958 -1310 c19 -68 36 -128 38 -135 3 -8
-254 -240 -488 -440 -8 -7 -114 -49 -234 -93 l-218 -80 -106 6 c-100 7 -113
10 -226 61 -66 30 -121 56 -123 57 -1 2 58 165 133 362 74 197 137 365 140
372 3 9 118 12 527 12 l523 0 34 -122z m769 -14 c75 -9 138 -17 139 -18 1 -1
4 -87 5 -191 l3 -189 -215 -123 -215 -122 -310 -80 c-170 -44 -310 -79 -312
-78 -1 2 168 81 376 177 355 164 379 177 385 204 10 46 6 297 -4 346 -6 25
-12 55 -15 68 -6 27 -13 27 163 6z m-2875 -940 c75 -5 87 -8 83 -23 -2 -9 -7
-26 -11 -38 l-6 -23 -267 0 -267 0 -75 51 -75 50 265 -5 c146 -3 305 -9 353
-12z m647 -14 c-19 -13 -30 -13 -30 0 0 6 10 10 23 10 18 0 19 -2 7 -10z
m6623 -305 c56 -18 100 -25 159 -25 l81 0 -7 -31 c-3 -17 -6 -37 -6 -43 0 -13
-619 -10 -633 3 -5 5 45 28 110 51 65 24 132 49 148 56 43 18 61 17 148 -11z
m986 -49 l-61 -75 -166 6 c-92 3 -168 7 -170 8 -2 2 2 21 8 44 l11 41 102 0
c70 1 135 8 207 24 58 13 111 24 118 25 7 1 -15 -32 -49 -73z m-8721 -1022
l123 -6 -6 -32 c-4 -17 -10 -34 -14 -37 -3 -4 -134 -9 -291 -11 l-285 -5 -80
54 -80 54 255 -5 c140 -3 310 -8 378 -12z m892 -44 l-45 -39 -163 -1 -162 0
15 36 c8 20 15 38 15 40 0 2 87 4 193 4 l192 -1 -45 -39z m-1347 -1176 c179
-5 208 -8 203 -21 -4 -8 -9 -25 -12 -37 -5 -22 -9 -23 -207 -29 -111 -4 -277
-7 -368 -7 l-165 0 -72 51 c-40 28 -72 53 -72 56 0 5 228 1 693 -13z m818 -44
l-44 -40 -128 0 c-71 0 -129 3 -129 7 0 4 5 22 12 40 l12 33 161 0 160 -1 -44
-39z"/>
</g>
</svg>
