<?xml version="1.0" standalone="no"?>
<!DOCTYPE svg PUBLIC "-//W3C//DTD SVG 20010904//EN"
 "http://www.w3.org/TR/2001/REC-SVG-20010904/DTD/svg10.dtd">
<svg version="1.0" xmlns="http://www.w3.org/2000/svg"
   viewBox="0 0 4817.000000 1300.000000"
 preserveAspectRatio="xMidYMid meet">
<metadata>
Created by potrace 1.16, written by Peter Selinger 2001-2019
</metadata>
<g transform="translate(0.000000,1300.000000) scale(0.100000,-0.100000)"
fill="#000000" stroke="none">
<path d="M37327 12967 c-22 -19 -37 -41 -37 -54 l0 -23 -372 0 -373 -1 30 -25
c17 -14 64 -48 105 -76 41 -28 92 -67 113 -86 l37 -36 0 -88 0 -88 -1637 -1
-1638 -1 205 -68 c113 -38 419 -139 680 -224 l476 -156 271 -167 271 -168 167
-200 167 -200 -7 -232 -6 -233 999 0 999 0 7 -62 c4 -35 9 -76 12 -93 l5 -30
539 3 539 3 -5 -38 c-10 -75 -12 -79 -62 -102 -45 -21 -49 -26 -63 -79 -15
-62 -13 -60 -134 -91 l-40 -11 -76 -182 c-87 -210 -68 -195 -226 -183 l-93 7
0 38 0 38 -77 6 c-43 4 -93 10 -110 13 l-33 5 0 137 0 136 -812 -16 c-447 -9
-1609 -22 -2583 -28 -973 -7 -2143 -16 -2600 -21 -456 -5 -1293 -10 -1860 -10
l-1030 0 -2770 -90 c-1523 -49 -2821 -92 -2882 -96 l-113 -6 0 -53 c0 -52 -1
-53 -32 -58 -18 -4 -77 -9 -130 -13 l-98 -7 0 -72 0 -73 -32 -6 c-18 -3 -359
-46 -758 -96 l-725 -91 -610 -192 -610 -192 -1452 -3 -1453 -3 0 -329 0 -330
-1267 0 -1267 0 -1375 290 c-757 160 -1384 293 -1393 296 -16 5 -18 20 -18
135 0 71 2 129 4 129 6 0 456 69 494 75 l32 6 0 229 0 229 -37 10 c-21 5 -137
35 -258 67 -201 52 -271 64 -798 139 -317 45 -580 85 -583 88 -7 6 125 598
136 610 4 5 97 33 206 63 110 29 205 56 211 59 9 3 1 38 -30 127 l-44 123
-1059 3 -1059 2 -250 -56 -250 -57 -53 -51 -53 -52 393 -73 c216 -40 404 -75
418 -78 22 -4 0 -29 -220 -246 -135 -133 -279 -275 -322 -316 l-76 -74 -1104
-137 -1103 -138 -1945 -467 c-1069 -256 -2226 -536 -2570 -621 -344 -85 -803
-198 -1020 -250 -217 -52 -412 -99 -432 -105 l-38 -10 0 -110 c0 -108 0 -109
23 -104 46 11 2040 385 2053 385 12 0 14 -52 14 -310 0 -170 -3 -310 -6 -310
-4 0 -624 -117 -1378 -260 -754 -143 -1375 -260 -1379 -260 -4 0 -7 -553 -7
-1230 0 -676 2 -1230 5 -1230 3 0 609 -114 1348 -254 738 -140 1359 -258 1379
-261 l38 -7 2 -261 3 -261 2470 -607 2470 -607 247 -127 248 -126 0 -170 0
-169 69 0 c107 0 131 -7 131 -40 0 -19 11 -36 39 -58 l40 -32 302 0 302 0 43
36 c24 19 44 41 44 48 0 13 107 13 317 0 87 -6 93 -7 93 -28 0 -14 15 -33 42
-54 l42 -32 300 0 300 0 49 42 50 42 506 -17 c278 -10 559 -20 624 -24 l117
-6 0 169 0 169 265 133 265 132 2 641 3 641 1343 444 1344 444 1152 0 1152 0
133 150 133 150 1909 0 1909 0 0 190 0 190 1220 0 1220 0 0 -115 0 -115 735 0
735 0 0 258 0 259 773 6 c424 4 951 7 1170 7 l397 0 0 -265 0 -265 120 0 120
0 0 -330 0 -330 23 0 c12 0 1039 -56 2282 -125 l2260 -124 719 -135 c396 -75
723 -136 727 -136 4 0 40 -54 79 -120 39 -66 79 -128 88 -139 17 -18 51 -19
1562 -10 850 4 1605 11 1678 15 l132 6 0 119 0 119 173 1 c94 0 568 8 1052 17
l880 17 -1 25 c-1 14 -5 98 -9 187 l-7 163 28 0 c16 0 394 9 839 20 446 11
828 20 851 20 l40 0 12 -707 c7 -390 15 -801 19 -915 l6 -208 77 0 77 0 6
-152 c4 -83 7 -188 7 -234 l0 -82 -77 -13 -76 -14 2 -1080 c1 -594 4 -1082 7
-1084 3 -3 17 2 32 11 30 17 345 95 405 100 35 3 40 0 97 -72 39 -49 61 -87
65 -112 4 -21 10 -38 15 -38 4 0 355 121 779 269 l770 269 441 241 440 241
364 259 364 259 384 352 c364 334 400 370 736 742 l354 392 374 557 374 557
271 587 271 587 135 436 c129 422 137 453 229 896 52 253 93 465 92 472 -2 7
-64 53 -140 102 -75 50 -138 99 -141 109 -3 10 -11 51 -18 91 -11 64 -10 74 4
85 75 56 216 174 217 180 1 28 -276 550 -393 742 -137 223 -446 693 -659 1003
-145 210 -496 604 -832 933 -253 248 -272 264 -641 544 -366 278 -394 297
-765 520 l-385 231 -424 188 c-392 174 -456 199 -825 323 -467 156 -1004 302
-1623 443 -361 82 -441 97 -855 155 -383 54 -513 68 -802 87 l-346 22 0 30
c-1 25 -10 38 -44 64 l-43 32 -302 0 -302 0 -40 -32 c-25 -20 -39 -40 -39 -55
l0 -23 -355 0 -355 0 0 24 c0 15 -13 36 -35 55 l-36 31 -312 0 -312 -1 -38
-32z m-19917 -5921 l0 -94 183 -6 c236 -8 2695 -51 4027 -71 569 -9 2518 -45
4330 -80 1812 -36 4110 -81 5107 -99 996 -19 1816 -37 1821 -40 11 -7 36 -145
31 -171 -4 -17 -71 -29 -709 -121 l-705 -102 -1724 64 -1723 63 -124 66 -123
65 -93 0 -94 0 -64 -65 -64 -65 -263 0 -263 0 0 -100 0 -100 -910 0 -910 0 0
85 0 85 -735 0 -735 0 0 -75 0 -75 -1220 0 -1220 0 0 130 0 130 -1910 0 -1910
0 -134 100 -133 100 -1156 0 c-637 0 -1157 3 -1157 8 0 4 7 104 15 222 8 118
15 221 15 228 0 9 262 12 1275 12 l1275 0 0 -94z"/>
</g>
</svg>
