<?xml version="1.0" standalone="no"?>
<!DOCTYPE svg PUBLIC "-//W3C//DTD SVG 20010904//EN"
 "http://www.w3.org/TR/2001/REC-SVG-20010904/DTD/svg10.dtd">
<svg version="1.0" xmlns="http://www.w3.org/2000/svg"
   viewBox="0 0 3832.000000 1621.000000"
 preserveAspectRatio="xMidYMid meet">
<metadata>
Created by potrace 1.16, written by Peter Selinger 2001-2019
</metadata>
<g transform="translate(0.000000,1621.000000) scale(0.100000,-0.100000)"
fill="#000000" stroke="none">
<path d="M12015 16120 l-1210 -87 -1850 -16 -1850 -16 -2010 -156 c-1105 -85
-2019 -155 -2030 -155 -15 0 -25 -12 -38 -49 -14 -39 -17 -83 -17 -218 l0
-170 -64 -11 c-35 -7 -68 -12 -75 -12 -8 0 -11 44 -11 145 0 132 -2 145 -17
144 -62 -1 -2813 -266 -2818 -271 -15 -15 -24 -251 -25 -620 l0 -407 28 4 c15
2 104 9 197 15 94 6 194 13 222 16 l53 5 0 -138 0 -139 -236 -17 c-131 -9
-239 -18 -241 -20 -17 -18 -23 -299 -23 -1186 l0 -1013 233 7 c127 3 240 9
250 11 16 5 17 -6 17 -124 l0 -129 -120 -23 -120 -24 2 -1290 3 -1291 835
-177 835 -178 35 -38 c19 -21 54 -58 77 -84 l41 -46 434 -101 433 -101 321
-12 321 -12 194 -264 c239 -327 236 -322 244 -349 l6 -23 -420 0 -420 0 5
-102 c8 -150 33 -477 41 -522 l6 -39 516 6 c303 4 507 3 495 -3 -12 -5 -62
-16 -110 -25 -49 -9 -264 -57 -479 -106 -336 -78 -448 -99 -815 -153 l-425
-62 0 -884 0 -884 430 -63 c379 -55 476 -73 815 -152 l385 -90 856 -31 856
-31 844 30 c800 29 928 35 990 47 25 5 63 -41 571 -688 299 -381 618 -790 709
-908 434 -565 682 -894 683 -906 0 -7 -44 -42 -99 -77 l-100 -64 -3 -79 c-2
-65 11 -147 72 -458 41 -208 76 -379 78 -380 2 -2 658 -196 1458 -433 l1455
-431 1153 -5 1152 -4 0 606 c0 333 -3 765 -7 959 l-6 352 -91 53 -91 53 -3 85
c-1 46 -24 1209 -52 2584 -27 1375 -51 2544 -54 2597 -6 113 -16 129 -99 157
l-52 18 -3 116 -3 116 62 7 61 7 -6 1046 c-4 575 -9 1090 -12 1144 l-6 97 -42
24 c-25 14 -124 43 -255 72 l-214 49 169 3 169 3 65 89 65 90 2859 0 c2717 0
2858 -1 2854 -17 -3 -10 -65 -251 -138 -535 -129 -498 -135 -518 -157 -518
-13 0 -86 26 -162 59 l-138 58 -579 -53 c-319 -29 -580 -53 -581 -54 -2 0 -3
-110 -3 -245 0 -135 1 -245 3 -246 1 0 263 -24 581 -54 l579 -53 126 54 125
54 1720 0 1721 0 148 40 148 40 867 0 868 0 631 -557 c347 -307 631 -558 630
-559 -1 0 -520 20 -1153 45 l-1151 45 -144 -60 -144 -61 -3 -155 -2 -156 112
-47 c62 -26 131 -54 153 -62 36 -13 186 -9 1390 40 l1350 53 173 -153 173
-154 -98 6 c-54 3 -391 17 -750 31 -637 24 -661 24 -1045 10 -637 -25 -628
-24 -640 -52 -9 -19 -21 -24 -69 -30 l-59 -7 0 -127 0 -127 59 -7 c48 -6 60
-11 69 -30 13 -29 12 -29 622 -52 l415 -16 933 37 c923 37 934 37 955 18 12
-11 100 -88 195 -172 l172 -152 0 -60 c0 -32 3 -59 6 -59 4 0 327 -22 718 -49
l711 -50 635 -4 635 -5 583 59 c520 52 637 67 1075 140 477 78 506 84 957 200
334 86 589 160 905 261 l440 140 393 184 c498 232 981 496 1332 729 334 220
507 373 726 637 89 109 181 232 219 295 63 104 65 110 65 176 l0 67 -44 0 -43
0 -13 74 c-7 41 -16 79 -20 86 -4 6 -35 14 -69 17 -33 3 -61 7 -61 9 0 2 54
105 121 227 l121 224 261 6 c144 4 348 7 452 8 292 2 279 -10 224 200 -59 230
-104 315 -280 540 -77 97 -145 182 -152 187 -6 6 -214 117 -462 247 -400 210
-507 261 -960 457 l-509 221 -1481 524 c-814 289 -1914 673 -2445 853 -937
318 -993 336 -1935 608 l-970 281 -2120 390 -2120 390 -2235 360 c-2075 334
-2283 366 -2902 443 -368 45 -668 86 -668 89 0 4 414 10 920 14 507 4 920 9
918 10 -2 2 -518 8 -1148 15 l-1145 12 -795 98 c-783 98 -809 100 -1790 175
-945 73 -1039 78 -1855 108 l-860 32 -3 118 -3 117 -27 -1 c-15 -1 -571 -41
-1237 -89z m4530 -3799 c163 -145 295 -264 293 -266 -7 -7 -1088 80 -1088 88
0 4 38 54 85 110 66 78 120 128 238 219 83 65 157 117 164 116 6 -2 145 -122
308 -267z m-890 -530 l140 -19 -178 -1 c-175 -1 -177 -1 -165 19 15 24 23 24
203 1z m1845 -832 c487 -17 608 -23 620 -35 12 -12 -216 -14 -1668 -14 -925 0
-1682 3 -1682 6 0 3 9 19 21 35 l20 29 1042 0 c860 0 1148 -3 1647 -21z m6783
-1309 l514 -455 -678 -3 -678 -2 -148 38 -148 38 295 431 c259 379 297 430
312 420 9 -7 248 -217 531 -467z"/>
</g>
</svg>
