<?xml version="1.0" standalone="no"?>
<!DOCTYPE svg PUBLIC "-//W3C//DTD SVG 20010904//EN"
 "http://www.w3.org/TR/2001/REC-SVG-20010904/DTD/svg10.dtd">
<svg version="1.0" xmlns="http://www.w3.org/2000/svg"
   viewBox="0 0 4266.000000 933.000000"
 preserveAspectRatio="xMidYMid meet">
<metadata>
Created by potrace 1.16, written by Peter Selinger 2001-2019
</metadata>
<g transform="translate(0.000000,933.000000) scale(0.100000,-0.100000)"
fill="#000000" stroke="none">
<path d="M9695 9235 l-209 -95 -341 0 c-322 0 -342 -1 -373 -20 -28 -17 -50
-20 -154 -20 l-121 0 -113 -65 -113 -65 -266 0 -266 0 -210 -97 -209 -97 0
-108 0 -108 111 0 111 0 119 -67 118 -68 -652 -3 -653 -2 -49 -50 -49 -50 44
-45 44 -45 968 0 968 0 0 -60 0 -61 -1377 4 c-1121 4 -1460 8 -1816 23 -367
16 -463 17 -595 7 -86 -6 -582 -19 -1102 -27 l-945 -16 -255 -36 c-217 -31
-281 -44 -433 -90 -177 -54 -180 -54 -311 -54 l-132 0 -273 -135 c-150 -74
-276 -135 -281 -135 -4 0 -18 42 -31 94 l-24 93 -197 -91 -197 -91 -1 -396 0
-396 -40 -7 c-22 -3 -63 -11 -90 -17 l-50 -11 0 -78 0 -78 173 -189 173 -189
54 23 c30 12 60 22 65 23 10 0 275 -312 275 -324 0 -3 -97 -6 -215 -6 -199 0
-224 -2 -357 -30 -126 -26 -160 -38 -280 -97 l-138 -67 0 -616 0 -615 135 -68
c119 -59 154 -71 276 -97 131 -28 153 -30 359 -30 l220 0 0 -75 0 -75 620 0
620 0 0 -117 0 -118 71 -77 71 -78 69 0 c66 0 69 -1 69 -24 0 -26 -15 -20 382
-142 l188 -58 0 -55 0 -56 278 -278 277 -277 233 0 c179 0 232 -3 232 -12 0
-7 108 -75 239 -150 l238 -138 211 0 211 0 3 -57 3 -57 820 -368 820 -368
1469 0 1468 0 104 56 c57 30 104 62 104 70 0 12 140 14 984 14 l985 0 450 214
451 215 6377 -3 6378 -2 255 -72 255 -71 523 -7 522 -7 0 -203 0 -204 1610 0
1611 0 104 56 c95 50 105 58 105 84 0 27 1 27 48 23 29 -3 53 -12 64 -24 16
-18 44 -19 910 -19 l893 0 447 263 447 262 1 116 0 116 -90 42 -91 41 -269 0
c-233 0 -270 2 -270 15 0 13 187 15 1623 15 l1622 1 185 145 c155 123 186 151
188 175 l3 29 97 0 97 0 228 165 227 165 703 0 702 -1 412 97 413 97 2 156 3
155 1350 315 c743 174 1355 320 1361 326 6 6 223 60 483 120 l471 110 -2 505
-3 504 -1832 185 -1833 186 0 52 c0 29 -4 53 -8 53 -4 0 -179 42 -387 92
l-380 93 -611 5 -612 5 229 235 228 235 1 210 0 210 -468 258 -468 257 -120 0
c-80 0 -114 -3 -104 -10 10 -6 -267 -10 -790 -10 -801 0 -805 0 -818 -21 -11
-16 -21 -20 -60 -17 -39 3 -47 7 -52 27 -4 17 -31 37 -105 77 l-100 54 -1476
0 -1475 0 -822 -367 -822 -368 0 -107 0 -108 -67 0 c-64 0 -71 -3 -196 -72
-73 -41 -132 -81 -135 -90 -4 -17 -34 -18 -460 -18 l-456 0 -310 99 c-299 96
-370 112 -536 126 l-75 6 -145 131 c-131 119 -155 136 -257 185 l-111 53 -311
0 -311 0 0 25 0 25 -300 0 -300 0 0 -25 0 -25 -1850 0 -1850 0 0 25 0 25 -295
0 -295 0 0 -25 0 -25 -1850 0 -1850 0 0 25 0 25 -295 0 -295 0 0 -25 0 -25
-128 0 -128 0 -905 353 -904 352 -3 73 -3 72 263 0 263 0 95 44 95 44 0 117 0
117 -448 264 -448 264 -890 0 c-879 0 -891 0 -907 -20 -11 -12 -35 -22 -64
-26 -48 -7 -48 -7 -48 22 0 27 -9 34 -109 87 l-108 57 -1469 0 -1469 -1 -210
-94z m6020 -1471 l638 -249 -325 -3 -326 -2 -92 35 -92 35 -739 0 -739 0 0 49
c0 42 -4 52 -27 70 l-28 20 370 1 370 0 160 150 c96 90 166 148 176 146 8 -2
303 -115 654 -252z m1505 -509 c0 -25 1 -25 85 -25 50 0 85 -4 85 -10 0 -6
-60 -10 -160 -10 -129 0 -166 -3 -195 -17 -21 -10 -35 -24 -35 -35 0 -17 -15
-18 -255 -18 l-255 0 0 39 0 39 -75 27 c-41 15 -75 29 -75 31 0 2 198 4 440 4
l440 0 0 -25z m4290 0 c0 -25 1 -25 85 -25 50 0 85 -4 85 -10 0 -6 -58 -10
-155 -10 -170 0 -235 -14 -235 -51 0 -19 -38 -19 -1645 -19 -1607 0 -1645 0
-1645 19 0 37 -65 51 -230 51 -93 0 -150 4 -150 10 0 6 38 10 95 10 95 0 95 0
95 25 l0 25 1850 0 1850 0 0 -25z m4290 0 c0 -25 1 -25 90 -25 53 0 90 -4 90
-10 0 -6 -60 -10 -159 -10 -174 0 -231 -12 -231 -50 0 -20 -10 -20 -1650 -20
-1587 0 -1650 1 -1650 18 0 38 -59 52 -220 52 -93 0 -150 4 -150 10 0 6 37 10
90 10 89 0 90 0 90 25 l0 25 1850 0 1850 0 0 -25z m1277 -19 c32 -24 69 -56
82 -70 l24 -26 -301 0 c-295 0 -302 0 -302 20 0 37 -57 50 -221 50 -93 0 -149
4 -149 10 0 6 38 10 95 10 95 0 95 0 95 25 l0 25 309 0 309 0 59 -44z m10243
-155 l0 -49 -256 -251 -256 -251 -231 0 -230 0 23 25 c23 25 26 25 184 25
l161 1 228 222 c190 185 228 227 227 250 0 16 5 27 14 27 7 0 38 11 67 24 30
14 57 25 62 25 4 1 7 -21 7 -48z m-18130 -421 c0 -6 -35 -10 -85 -10 -50 0
-85 4 -85 10 0 6 35 10 85 10 50 0 85 -4 85 -10z m-50 -3093 c0 -109 2 -118
45 -237 25 -68 45 -125 45 -127 0 -2 182 -3 405 -3 l405 0 0 -160 0 -160 570
0 570 0 0 -135 0 -135 -827 0 c-804 0 -827 1 -798 18 17 10 83 46 148 81 l117
62 0 195 0 194 -390 0 -390 0 0 260 0 260 50 0 50 0 0 -113z m4197 -234 c-1
-65 -3 -12 -3 117 0 129 2 182 3 118 2 -65 2 -171 0 -235z m-7587 -298 l0
-155 570 0 570 0 0 -135 0 -135 -1872 0 -1873 0 605 289 605 290 698 0 697 1
0 -155z m17280 80 l0 -35 125 0 125 0 0 35 0 35 1302 0 1301 0 -91 -68 -91
-69 -503 -6 c-277 -4 -999 -10 -1605 -14 -927 -5 -1103 -4 -1103 7 0 8 -14 29
-32 47 l-32 33 87 0 87 0 0 35 0 35 215 0 215 0 0 -35z m-8640 -457 l155 -43
-182 -3 c-101 -1 -264 -1 -362 0 l-180 3 122 66 122 66 85 -24 c47 -12 155
-42 240 -65z"/>
<path d="M16238 413 l-338 -3 0 -205 0 -205 1525 0 1525 0 0 210 0 210 -1187
-2 c-654 -2 -1340 -4 -1525 -5z"/>
<path d="M20548 413 l-358 -3 0 -205 0 -205 1525 0 1525 0 0 210 0 210 -1167
-2 c-643 -2 -1329 -4 -1525 -5z"/>
<path d="M24503 413 c-10 -3 -13 -55 -13 -209 l0 -204 1525 0 1525 0 0 53 c0
28 -3 123 -7 210 l-6 157 -1506 -1 c-828 0 -1512 -3 -1518 -6z"/>
</g>
</svg>
