<?xml version="1.0" standalone="no"?>
<!DOCTYPE svg PUBLIC "-//W3C//DTD SVG 20010904//EN"
 "http://www.w3.org/TR/2001/REC-SVG-20010904/DTD/svg10.dtd">
<svg version="1.0" xmlns="http://www.w3.org/2000/svg"
   viewBox="0 0 4768.000000 1205.000000"
 preserveAspectRatio="xMidYMid meet">
<metadata>
Created by potrace 1.16, written by Peter Selinger 2001-2019
</metadata>
<g transform="translate(0.000000,1205.000000) scale(0.100000,-0.100000)"
fill="#000000" stroke="none">
<path d="M25295 11883 c-5 -93 -9 -274 -11 -403 -1 -129 -2 -241 -3 -247 -1
-9 -19 -13 -55 -13 l-54 0 -7 83 c-4 46 -6 106 -4 133 1 27 1 63 0 79 -2 26
-3 28 -11 10 -5 -11 -9 -84 -9 -162 l-1 -143 -110 0 -111 0 -20 -35 c-20 -34
-23 -35 -79 -35 -56 0 -59 -1 -80 -35 l-22 -35 -532 0 -532 0 -39 -65 -40 -65
-95 0 c-73 0 -142 -10 -298 -42 l-204 -42 -14 -37 c-15 -36 -17 -37 -82 -44
-36 -4 -76 -11 -88 -15 -11 -5 -84 -60 -160 -124 l-139 -116 -198 0 -198 0
-202 -190 -202 -190 -105 -1 c-58 0 -120 -6 -139 -13 -34 -12 -37 -11 -131 56
-92 64 -100 68 -153 68 -51 0 -59 -3 -108 -45 l-53 -45 -99 0 -98 0 -17 39
c-13 30 -33 50 -84 82 -38 23 -68 46 -68 51 0 5 15 33 33 61 19 29 44 70 57
92 l22 40 -26 -30 c-14 -16 -45 -56 -68 -87 -24 -32 -46 -58 -51 -58 -6 0 -56
30 -96 57 -2 1 25 46 61 100 161 242 161 260 1 37 l-88 -121 -37 25 c-21 13
-38 27 -38 29 0 2 40 63 89 136 96 143 193 297 187 297 -6 0 -186 -239 -186
-248 0 -5 -9 -17 -20 -27 -10 -9 -38 -46 -60 -80 l-41 -63 -64 40 -64 41 48
71 c74 110 161 246 157 246 -5 0 -199 -260 -216 -289 -6 -12 -14 -10 -42 7
-33 20 -49 22 -200 22 l-165 0 -39 34 c-32 28 -37 36 -26 48 10 13 -15 40
-158 172 -153 142 -170 160 -170 190 0 27 6 36 35 52 33 17 36 22 33 59 -3 36
-6 40 -37 46 -18 4 -37 13 -42 20 -4 7 -8 81 -9 164 0 82 -4 182 -8 220 l-8
70 -9 -110 c-5 -60 -9 -162 -9 -225 l-1 -115 -39 2 c-22 2 -42 5 -45 9 -3 3
-6 99 -6 212 -1 347 -5 451 -16 422 -6 -15 -11 -149 -12 -322 -1 -163 -4 -298
-7 -300 -3 -2 -91 -2 -197 0 l-192 3 -3 87 -3 87 -265 192 -265 192 -282 1
-281 0 -22 -35 c-21 -33 -24 -35 -79 -35 l-56 0 -90 -162 c-49 -90 -107 -186
-130 -213 -22 -28 -48 -61 -56 -73 -13 -17 -78 -42 -297 -111 -242 -76 -282
-86 -287 -72 -3 9 -40 51 -82 92 -68 67 -88 80 -158 106 -74 27 -87 29 -170
23 -70 -5 -113 -15 -193 -45 -99 -37 -106 -42 -160 -105 l-57 -67 -130 -22
c-190 -31 -268 -56 -360 -116 -92 -59 -206 -180 -224 -238 l-13 -38 -141 7
-142 7 -111 -56 c-60 -30 -115 -61 -121 -69 -6 -7 -16 -37 -22 -67 -6 -29 -18
-84 -27 -121 l-15 -67 -307 -7 c-169 -3 -379 -9 -467 -12 l-161 -7 -17 55 -17
55 -258 171 c-346 231 -286 217 -749 168 -197 -21 -377 -40 -400 -43 -40 -5
-47 -11 -114 -101 l-71 -95 -62 6 c-420 38 -618 51 -636 39 -17 -10 -38 0
-174 88 -123 80 -178 109 -268 141 -107 38 -114 39 -140 25 -25 -15 -31 -14
-149 39 -69 31 -180 70 -257 91 l-134 35 -22 -20 c-21 -20 -24 -20 -79 -5
l-56 17 -63 -47 c-60 -44 -65 -47 -113 -41 -27 3 -268 19 -535 35 -267 16
-508 32 -536 35 l-51 6 -17 60 c-30 109 -86 208 -153 272 -34 33 -77 70 -95
83 -18 13 -135 54 -263 93 l-231 69 -327 11 -326 11 -183 -67 -183 -67 -167
-133 -168 -133 -102 -6 c-57 -4 -107 -10 -113 -14 -5 -4 -40 -23 -76 -43 l-66
-36 -84 52 c-75 47 -94 55 -169 65 -154 22 -216 15 -244 -27 l-19 -27 -116 27
c-102 24 -168 31 -541 53 l-425 26 -334 61 -334 62 -179 78 c-98 44 -182 79
-186 79 -4 0 -29 -36 -55 -79 l-48 -78 -137 4 c-75 2 -178 6 -229 9 l-92 6
-50 78 -50 79 -310 -104 -310 -103 -56 43 c-52 41 -59 43 -138 49 -45 3 -234
8 -420 10 l-339 6 -471 -130 c-260 -72 -480 -134 -491 -138 -26 -11 -86 -174
-86 -235 0 -45 -4 -53 -63 -118 -34 -38 -67 -67 -74 -64 -11 4 -73 -64 -73
-80 0 -4 -40 -50 -89 -102 -120 -128 -122 -140 -70 -281 22 -58 45 -115 51
-126 11 -20 143 -189 181 -230 11 -13 17 -36 17 -67 0 -49 28 -99 56 -99 11 0
14 -17 14 -78 0 -103 12 -121 78 -114 l49 4 6 -53 c4 -30 7 -77 7 -105 l0 -52
143 -106 c142 -107 142 -107 187 -101 l45 6 40 -80 39 -81 104 0 c102 0 108
-1 251 -54 245 -91 456 -188 686 -317 215 -121 221 -125 277 -196 31 -39 75
-107 97 -151 29 -58 55 -93 97 -131 32 -28 64 -51 71 -51 7 0 72 23 145 52
l133 51 75 -19 c63 -17 78 -25 95 -51 l20 -32 629 -1 628 0 299 176 299 176
638 -4 637 -3 126 -91 126 -90 -29 -58 c-16 -32 -27 -64 -25 -71 6 -14 557
-408 572 -408 6 0 39 17 74 38 l63 37 107 -73 c58 -40 123 -85 143 -99 21 -14
37 -29 38 -35 0 -5 -10 -33 -21 -61 l-22 -52 20 -85 20 -86 -90 -155 c-77
-133 -88 -158 -77 -171 12 -14 30 0 144 114 l131 131 97 0 97 0 62 43 62 44
93 -55 c52 -30 94 -61 94 -69 0 -8 -7 -39 -16 -69 -14 -50 -14 -58 2 -107 9
-28 27 -76 40 -105 l23 -52 -80 -211 c-61 -163 -76 -215 -68 -225 6 -8 15 -14
19 -14 5 0 66 81 136 180 l128 179 45 6 c178 20 180 21 236 83 l52 57 94 -49
c52 -27 97 -52 101 -55 4 -3 1 -33 -7 -66 -21 -88 -19 -98 31 -204 l45 -98
-69 -254 c-68 -249 -69 -254 -49 -264 13 -6 22 -6 24 0 2 6 56 111 121 234
l117 224 45 14 c142 44 173 62 224 129 27 35 51 64 55 64 3 0 57 -19 119 -42
l112 -41 -6 -88 c-6 -84 -6 -90 21 -136 16 -26 47 -74 70 -106 l42 -57 -39
-223 c-52 -300 -62 -366 -57 -371 2 -2 13 -6 23 -8 17 -2 37 37 136 267 l117
269 104 36 c57 20 114 41 125 48 12 6 41 46 64 87 31 57 45 75 58 71 9 -2 53
-12 97 -21 122 -25 115 -21 115 -69 0 -120 6 -133 108 -238 l94 -97 -11 -248
c-6 -136 -13 -280 -16 -320 -6 -71 -5 -73 20 -79 14 -3 28 -4 30 -2 3 2 44
143 92 312 l88 309 75 34 c41 19 96 48 121 64 l47 30 649 -33 649 -32 196 112
c107 62 200 112 205 112 5 0 22 -13 38 -30 l29 -30 553 0 553 0 -5 -27 c-5
-24 5 -40 63 -104 38 -42 110 -133 161 -203 110 -152 162 -274 180 -421 l10
-90 48 -43 c26 -23 54 -40 61 -37 7 2 187 5 400 5 l387 1 12 -30 c7 -17 16
-56 19 -88 8 -74 23 -97 84 -128 l49 -25 706 0 706 0 122 -110 121 -110 93 0
93 0 25 -39 c15 -22 43 -46 65 -56 l39 -17 3 -74 3 -74 -27 0 c-27 0 -28 -2
-28 -50 l0 -50 133 0 c130 0 134 1 155 25 16 18 22 38 22 72 l0 46 23 -20 c55
-51 95 -55 169 -17 51 26 51 26 67 6 24 -30 89 -16 189 42 67 39 95 63 152
133 41 50 74 101 80 124 l11 39 87 0 87 0 43 65 42 65 143 0 144 0 740 -612
740 -612 -92 -91 c-50 -49 -129 -130 -176 -179 l-84 -90 125 110 c68 60 151
135 184 167 32 32 65 56 72 53 7 -3 58 -42 113 -87 l100 -82 -45 -58 c-24 -32
-44 -61 -44 -66 0 -5 -16 -27 -36 -49 -35 -38 -267 -364 -260 -364 6 0 233
273 276 331 19 26 59 77 88 113 l53 65 92 -76 c51 -41 94 -77 96 -79 2 -2 -26
-53 -63 -112 -36 -60 -66 -114 -66 -121 0 -14 -207 -353 -224 -366 -8 -6 -48
-80 -91 -165 -42 -85 -72 -150 -66 -145 23 22 201 271 201 281 0 15 209 358
221 362 5 2 38 53 75 113 l66 110 51 -44 c68 -57 74 -60 192 -86 106 -24 125
-37 125 -82 0 -23 7 -30 35 -40 19 -7 35 -17 35 -21 0 -5 -39 -88 -86 -185
-85 -175 -107 -223 -100 -223 2 0 37 60 77 132 41 73 82 147 91 163 10 17 25
45 35 63 9 17 22 32 28 32 6 0 139 -55 296 -123 l284 -123 -1 -35 c-1 -39 3
-28 -121 -338 -51 -129 -91 -236 -90 -238 2 -1 45 90 97 205 51 114 106 230
121 258 16 28 29 59 29 68 0 9 4 16 9 16 5 0 16 6 24 14 12 12 30 7 130 -36
l116 -50 -14 -46 c-13 -41 -12 -49 1 -70 13 -20 14 -26 1 -45 -16 -25 -39 -92
-43 -122 -1 -17 -102 -311 -325 -955 -11 -30 -15 -50 -11 -45 5 6 91 217 191
471 100 253 197 492 216 530 19 38 35 81 35 97 0 22 5 29 30 33 22 5 32 14 40
40 6 19 16 37 21 40 6 3 44 -9 85 -26 l75 -33 45 33 c44 31 47 32 90 20 31 -9
54 -24 75 -51 l31 -39 79 0 79 0 -6 -25 c-3 -14 -1 -32 6 -39 9 -11 8 -25 -4
-61 -9 -25 -16 -56 -16 -68 0 -12 -36 -170 -80 -351 -44 -181 -80 -334 -79
-340 0 -6 45 142 99 329 54 187 105 357 114 377 9 21 16 49 16 64 0 17 6 28
19 31 11 3 23 20 29 41 l11 37 113 -5 113 -5 108 -62 c60 -35 136 -71 170 -82
l62 -19 -3 -59 c-2 -45 1 -63 12 -72 18 -15 21 -44 6 -71 -5 -10 -10 -44 -11
-76 -1 -33 -30 -279 -66 -549 -35 -269 -62 -496 -61 -504 2 -8 43 212 92 489
49 278 92 510 96 515 11 13 25 104 22 136 -2 19 4 28 22 37 16 7 26 22 31 44
11 55 16 69 24 64 4 -3 47 46 95 107 l88 113 340 -51 340 -50 79 -97 79 -96
70 -17 c50 -12 89 -15 130 -11 l58 7 7 -41 c4 -22 10 -40 14 -40 7 0 19 -93
46 -365 l13 -130 -4 225 c-3 124 -7 235 -10 247 -2 12 0 25 6 28 5 3 10 22 10
41 0 29 4 34 23 34 12 0 46 3 75 6 48 6 52 5 52 -14 0 -14 14 -31 39 -47 47
-32 52 -55 56 -290 3 -160 11 -235 26 -245 4 -3 35 -250 69 -550 33 -300 63
-557 66 -573 18 -90 16 35 -8 546 -16 314 -25 579 -21 587 10 24 2 204 -10
212 -6 3 -15 71 -21 152 l-11 145 32 26 c18 14 33 34 33 44 0 16 9 20 50 23
l50 3 6 -48 c4 -27 15 -56 24 -65 10 -10 20 -37 23 -62 12 -101 115 -754 116
-735 0 11 -15 168 -34 349 -19 181 -32 333 -29 337 2 4 0 29 -6 54 -8 36 -8
51 2 62 6 8 11 36 9 64 l-2 49 43 0 c41 0 45 2 57 35 10 30 19 37 63 50 67 19
80 19 109 -4 24 -19 26 -19 163 12 156 35 147 38 166 -55 12 -52 18 -62 60
-93 51 -37 68 -80 45 -112 -16 -22 54 -308 80 -327 13 -9 70 -227 215 -827
108 -448 201 -812 206 -810 11 5 27 -102 -127 845 -105 640 -130 812 -121 827
9 14 6 44 -12 136 -13 65 -27 135 -30 155 -4 24 -13 39 -26 43 -33 10 -36 65
-7 121 24 47 24 52 12 122 -9 54 -9 75 -1 77 28 9 199 45 201 43 1 -2 16 -50
34 -108 18 -58 41 -124 52 -146 11 -23 22 -57 24 -75 4 -36 167 -491 173 -485
5 6 -118 460 -132 486 -8 14 -17 43 -21 65 -4 22 -23 91 -42 153 -19 63 -32
117 -28 120 4 4 59 19 123 33 105 23 118 24 126 10 5 -9 15 -20 22 -26 14 -12
54 -118 54 -144 0 -18 420 -1005 434 -1018 4 -4 -22 76 -57 177 -220 629 -302
856 -312 865 -17 14 -56 118 -59 154 -2 29 0 30 61 41 l63 12 47 78 c42 68 58
84 132 133 l85 56 17 -28 c10 -16 21 -30 26 -32 10 -5 103 -141 103 -152 0 -8
177 -276 193 -292 5 -5 -4 15 -20 45 -17 30 -56 102 -88 160 -32 58 -61 107
-65 110 -10 7 -80 141 -85 162 -2 10 -11 28 -19 40 -15 21 -13 23 66 76 l82
55 30 -36 c78 -91 118 -137 205 -236 52 -58 105 -117 119 -131 27 -27 -157
218 -195 260 -13 14 -47 56 -77 95 l-55 69 64 43 64 43 221 0 221 0 306 270
307 270 166 0 167 0 37 -120 37 -120 384 0 384 0 43 54 43 53 502 182 c276
101 510 181 520 179 13 -2 21 -23 34 -89 16 -79 25 -97 117 -240 l99 -154 164
-94 164 -94 205 -33 205 -33 200 32 201 32 157 94 c140 83 186 104 433 197
l277 104 216 0 216 0 202 -114 201 -113 135 -22 c166 -26 175 -26 339 0 131
21 135 23 259 93 l126 71 76 118 c63 97 79 129 89 182 l11 65 76 0 75 0 216
221 215 221 263 -116 263 -116 182 -10 c100 -5 223 -12 273 -15 l91 -6 13 31
c12 29 15 30 76 30 60 0 64 -1 79 -30 12 -24 22 -30 49 -30 24 0 40 -8 59 -30
23 -25 35 -30 72 -30 l45 0 0 -40 0 -40 80 0 80 0 0 40 0 40 46 0 c38 0 50 5
72 30 18 20 36 30 54 30 22 0 32 7 45 34 15 33 19 35 74 38 54 3 59 1 74 -25
11 -19 24 -27 44 -27 16 0 36 -9 47 -21 16 -18 27 -20 71 -16 l52 5 6 -40 7
-40 62 7 c97 10 98 11 91 55 l-7 39 51 7 c44 6 53 11 70 40 12 19 28 34 39 34
11 0 25 13 34 33 14 29 23 34 72 44 56 10 57 9 76 -18 14 -19 26 -26 40 -22
11 3 31 -4 47 -16 23 -19 35 -21 79 -16 l51 7 7 -42 c4 -28 11 -40 19 -37 7 2
39 10 72 17 33 7 63 14 66 16 4 2 3 21 -1 41 -10 43 -5 48 51 57 32 5 41 12
53 40 9 21 23 36 39 40 17 4 29 17 36 39 10 29 18 34 69 47 l58 16 23 -28 c20
-25 29 -28 79 -27 l57 0 83 100 83 99 533 0 c452 0 535 -2 552 -15 10 -8 39
-15 64 -15 40 0 59 -9 165 -83 66 -45 161 -111 211 -145 l91 -62 237 -14 c186
-11 241 -17 254 -29 9 -9 46 -54 82 -101 l65 -85 72 -1 c70 0 73 -1 98 -35 24
-31 32 -34 82 -37 l55 -3 92 -167 91 -166 275 5 275 5 52 39 c47 35 62 40 210
67 87 17 161 28 166 25 4 -2 7 -12 7 -21 0 -18 101 -274 106 -269 5 5 -63 252
-76 276 -6 13 -10 24 -8 25 2 2 50 11 108 21 58 10 115 24 127 31 12 8 25 14
28 14 8 0 65 -118 65 -136 0 -16 222 -419 242 -439 5 -5 2 8 -7 30 -9 22 -50
126 -92 230 -42 105 -84 199 -94 210 -10 11 -29 45 -43 76 l-24 56 166 95 167
95 40 -41 c22 -22 72 -87 112 -145 60 -87 70 -107 62 -123 -6 -11 -8 -25 -6
-33 7 -17 654 -895 679 -920 20 -20 20 -20 5 10 -9 17 -144 246 -300 510 -265
447 -287 480 -310 477 -23 -3 -34 10 -101 113 -42 64 -76 124 -76 134 0 10 -7
24 -15 31 -8 7 -15 16 -15 20 0 4 42 40 93 79 l92 71 54 -58 c29 -31 67 -77
84 -102 30 -44 415 -510 445 -540 41 -40 -372 503 -447 587 -31 34 -65 80 -78
102 l-22 39 21 14 c17 11 42 11 161 0 113 -12 154 -12 211 -2 l71 12 54 103
53 103 47 -2 c34 -2 112 -32 305 -120 142 -64 260 -116 261 -114 2 2 -114 64
-257 138 -148 77 -264 144 -270 155 -6 11 -17 24 -24 28 -12 7 -12 12 -1 35 8
15 22 68 32 117 10 50 21 94 26 99 10 11 167 -12 194 -29 29 -18 103 -29 118
-17 8 7 190 -18 557 -74 300 -46 551 -83 559 -81 8 1 -235 51 -539 110 -402
79 -557 113 -566 124 -8 12 -31 17 -80 19 -38 2 -106 8 -151 15 -93 12 -87 3
-62 99 5 19 9 62 9 95 0 33 3 71 7 84 6 23 8 24 89 18 46 -3 91 -10 101 -14
15 -7 667 -2 653 5 -19 10 -638 78 -650 72 -8 -4 -54 -5 -102 -2 l-88 5 0 58
0 59 -52 41 -53 41 -47 155 c-27 86 -48 161 -48 167 0 6 14 32 30 59 30 47 30
47 85 47 47 0 55 3 55 19 0 17 13 19 163 25 139 7 165 10 182 27 23 20 37 21
405 22 487 2 1715 19 1805 26 l100 8 -115 2 c-63 1 -446 8 -851 15 -475 9
-758 10 -795 4 -55 -9 -177 -7 -429 8 -68 4 -105 11 -117 21 -15 13 -183 31
-315 33 -21 0 -33 5 -33 13 0 24 -138 57 -235 57 -87 0 -87 0 -137 -40 -46
-36 -56 -40 -107 -40 l-56 0 -158 211 -158 211 -220 144 -220 145 -250 69
c-137 39 -251 70 -253 70 -2 0 -70 125 -151 278 -81 152 -151 281 -155 285 -4
4 -114 46 -246 93 -219 78 -257 88 -459 124 -193 34 -228 38 -285 30 -36 -5
-68 -10 -71 -10 -4 0 -26 47 -49 105 l-42 104 -144 122 c-140 119 -151 126
-332 213 -168 80 -197 91 -287 105 l-100 16 -145 167 -145 168 -216 134 c-204
128 -216 137 -229 176 -8 23 -21 45 -30 50 -9 5 -171 63 -359 130 -330 117
-350 123 -490 141 -80 11 -279 37 -441 59 -162 21 -313 41 -335 43 -34 4 -713
-56 -770 -68 -12 -3 -32 -26 -50 -59 -32 -59 -30 -58 -148 -72 -32 -3 -139
-35 -238 -70 -179 -63 -181 -64 -354 -184 -172 -119 -175 -122 -212 -192 l-38
-70 -105 -49 -105 -49 -391 0 -390 0 -34 35 c-32 33 -37 35 -101 35 -67 0 -67
0 -78 32 -27 76 -135 245 -199 310 -36 37 -71 81 -76 99 -10 28 -28 39 -196
116 l-185 85 -255 39 c-229 34 -275 38 -450 39 l-196 0 -17 -29 c-15 -26 -23
-30 -89 -35 -78 -7 -188 -43 -188 -62 0 -20 -136 -74 -188 -74 -36 0 -77 -13
-163 -51 -63 -28 -123 -59 -135 -70 -13 -12 -35 -19 -61 -19 -31 0 -61 -12
-126 -50 -67 -40 -94 -50 -129 -50 -42 0 -44 1 -89 71 l-47 71 -208 93 -209
93 -217 21 c-268 26 -289 26 -556 0 l-217 -21 -210 -94 -210 -95 -123 -189
c-67 -103 -135 -216 -149 -249 l-26 -61 -126 0 -126 0 -140 220 -140 220 -234
0 -234 0 -67 50 -67 50 -349 0 -349 0 -146 36 c-139 33 -149 38 -230 95 -46
33 -130 100 -186 150 -98 86 -102 91 -96 122 4 17 7 40 7 49 1 10 -69 96 -154
192 l-154 175 -101 12 -100 12 -45 52 c-25 28 -126 142 -225 253 l-180 202
-156 0 -156 0 -57 -45 -58 -45 -149 0 -149 0 -204 153 -205 152 -3 109 -3 110
-260 189 c-143 103 -267 191 -275 193 -31 10 -40 56 -41 208 0 83 -4 160 -9
171 -5 12 -9 -41 -9 -139 -1 -89 -6 -176 -13 -197 -9 -33 -15 -39 -39 -39 -36
0 -38 9 -38 160 0 122 -20 662 -26 668 -1 1 -6 -73 -10 -165z"/>
<path d="M25023 1475 c0 -27 2 -38 4 -22 2 15 2 37 0 50 -2 12 -4 0 -4 -28z"/>
</g>
</svg>
