<?xml version="1.0" standalone="no"?>
<!DOCTYPE svg PUBLIC "-//W3C//DTD SVG 20010904//EN"
 "http://www.w3.org/TR/2001/REC-SVG-20010904/DTD/svg10.dtd">
<svg version="1.0" xmlns="http://www.w3.org/2000/svg"
   viewBox="0 0 4758.000000 1836.000000"
 preserveAspectRatio="xMidYMid meet">
<metadata>
Created by potrace 1.16, written by Peter Selinger 2001-2019
</metadata>
<g transform="translate(0.000000,1836.000000) scale(0.100000,-0.100000)"
fill="#000000" stroke="none">
<path d="M35590 18349 c-1400 -17 -3001 -93 -4300 -205 -443 -38 -1135 -106
-1674 -165 l-919 -100 -821 -134 -821 -133 -1200 -261 -1200 -261 -1201 -315
c-1074 -281 -1369 -363 -2805 -779 -1875 -543 -3728 -1112 -5671 -1739 -369
-119 -378 -123 -378 -148 l0 -26 73 13 c39 6 72 11 73 11 1 -1 5 -29 10 -63
l9 -60 215 68 215 69 56 -17 c55 -16 59 -16 129 5 40 12 73 21 75 19 9 -10 53
-194 47 -199 -4 -3 -295 -143 -647 -312 l-640 -305 -2006 -4 -2007 -4 -6 48
-7 48 -52 0 c-29 0 -1411 -45 -3072 -100 -2478 -82 -6878 -220 -7027 -220
l-38 0 0 -59 0 -58 55 -7 c45 -5 203 -43 298 -72 14 -4 17 -18 17 -80 l0 -74
-100 0 -100 0 0 -37 c0 -21 23 -99 50 -173 47 -124 55 -161 101 -440 27 -167
51 -305 52 -306 1 -1 213 -30 472 -64 l470 -63 104 -64 103 -63 879 -115 c484
-63 882 -115 884 -115 3 0 6 -217 7 -482 l3 -482 415 -136 c228 -75 765 -248
1192 -385 l777 -250 3 -304 3 -304 220 -63 c121 -35 225 -66 230 -69 10 -5
-63 1 -143 12 l-42 5 0 -136 0 -136 -24 0 c-18 0 -35 -17 -75 -74 l-51 -74 0
-96 0 -96 45 0 45 0 0 -40 0 -40 110 0 c91 0 110 -3 110 -15 0 -10 110 -70
310 -170 l310 -155 179 0 179 0 42 -50 42 -50 131 -1 132 0 -120 -43 -120 -43
-3 -385 -2 -385 258 -80 c204 -64 265 -80 292 -74 20 4 265 -22 649 -69 l616
-75 3 -37 c3 -32 14 -47 75 -101 l72 -65 676 -210 676 -211 749 -92 c746 -91
763 -94 776 -130 2 -4 137 -24 301 -44 284 -36 298 -37 317 -20 18 16 22 16
57 2 21 -9 396 -185 833 -391 l794 -376 177 -11 176 -11 105 75 105 76 199 -5
c254 -6 260 -7 272 -43 l10 -29 224 -7 c122 -4 263 -10 311 -14 l88 -6 207
-522 207 -523 203 0 202 0 0 -188 0 -188 2250 -944 c1237 -519 2249 -945 2247
-946 -1 -1 -52 7 -112 17 l-110 20 -105 -53 -105 -53 -3 -71 -3 -70 158 -34
158 -34 -48 -12 c-27 -7 -51 -15 -54 -17 -3 -3 -10 -40 -15 -81 l-11 -76 -88
0 -88 0 -6 -53 c-13 -106 -78 -78 626 -278 l626 -177 639 -121 c351 -66 887
-161 1189 -211 953 -157 1961 -254 2868 -276 l277 -7 0 157 0 156 34 0 c22 0
36 -6 40 -16 3 -9 6 -67 6 -130 l0 -114 195 0 c167 0 195 -2 195 -15 0 -13
213 -15 1859 -15 l1859 0 6 27 c3 16 11 110 17 209 l12 182 99 -5 98 -6 0
1368 0 1368 248 308 247 309 98 0 97 0 0 -99 0 -99 -110 -92 -110 -92 0 -99 0
-99 288 0 287 0 90 85 90 84 270 1 270 0 85 -85 85 -85 360 0 360 0 92 85 91
85 450 0 450 0 82 -90 82 -90 362 0 362 0 87 94 87 94 0 187 0 187 -82 88 -83
88 -85 1 -85 2 83 79 82 79 0 193 0 193 -90 90 c-82 81 -90 93 -90 127 l0 38
273 0 274 0 80 223 c45 122 145 431 223 687 l142 465 104 560 105 560 78 1165
79 1165 11 1145 c6 630 11 1196 11 1258 l0 112 190 0 190 0 0 495 0 494 -92 3
-93 3 578 180 577 180 0 257 c0 142 1 258 3 258 1 0 520 114 1152 253 l1150
253 5 119 5 119 310 139 c171 76 315 143 322 150 6 7 26 59 43 117 18 58 35
108 39 112 3 4 202 32 441 63 l434 55 286 81 c157 44 301 90 320 101 19 11
110 68 202 126 l167 106 201 281 201 281 309 177 310 177 920 0 920 0 0 325 0
325 23 -4 c12 -3 78 -10 147 -16 145 -12 480 -48 528 -56 31 -5 32 -4 32 31 0
35 1 36 33 30 168 -28 176 -27 177 18 0 20 6 21 90 2 36 -8 74 -14 84 -15 58
-1 -37 28 -399 119 -390 98 -419 104 -1200 236 -657 110 -949 154 -1635 244
-2827 373 -5301 503 -8740 460z"/>
</g>
</svg>
