<?xml version="1.0" standalone="no"?>
<!DOCTYPE svg PUBLIC "-//W3C//DTD SVG 20010904//EN"
 "http://www.w3.org/TR/2001/REC-SVG-20010904/DTD/svg10.dtd">
<svg version="1.0" xmlns="http://www.w3.org/2000/svg"
   viewBox="0 0 3910.000000 825.000000"
 preserveAspectRatio="xMidYMid meet">
<metadata>
Created by potrace 1.16, written by Peter Selinger 2001-2019
</metadata>
<g transform="translate(0.000000,825.000000) scale(0.100000,-0.100000)"
fill="#000000" stroke="none">
<path d="M6420 8057 l0 -189 58 6 c31 3 136 8 232 11 96 3 196 8 221 11 l47 6
25 -55 c14 -31 28 -64 31 -75 6 -19 -6 -19 -744 -24 -413 -3 -752 -7 -754 -9
-2 -2 -8 -165 -12 -361 -5 -196 -12 -360 -16 -363 -9 -10 -509 -135 -538 -135
-15 0 -30 -4 -35 -9 -6 -5 -48 -20 -95 -32 -75 -19 -120 -23 -375 -28 -204 -4
-297 -10 -312 -19 -17 -9 -306 -12 -1351 -12 -731 0 -1660 -3 -2065 -7 -679
-6 -737 -8 -737 -23 0 -16 146 -17 2071 -24 1796 -5 2075 -8 2106 -21 27 -11
79 -15 214 -15 99 0 179 -4 179 -8 0 -11 -155 -22 -292 -22 -80 0 -98 -3 -98
-15 0 -13 28 -15 194 -15 l193 0 5 -452 c3 -249 4 -455 2 -457 -3 -3 -3210
-98 -3391 -101 -31 0 -33 -2 -33 -35 l0 -35 -575 0 c-554 0 -575 -1 -575 -19
0 -18 36 -18 1123 -24 1090 -5 1164 -7 2592 -56 809 -28 1481 -51 1494 -51 21
0 19 -4 -22 -35 -44 -33 -52 -36 -211 -57 l-166 -22 0 -408 0 -408 23 -5 c12
-3 87 -16 166 -30 128 -23 151 -30 221 -70 76 -45 78 -45 173 -45 52 0 102 -3
111 -6 14 -5 16 -34 16 -220 l0 -214 54 0 53 0 13 63 c7 34 14 63 15 65 1 1
27 -7 57 -19 l55 -20 10 -115 c6 -63 13 -118 16 -121 3 -3 886 6 1962 20
l1956 25 62 -38 c62 -38 65 -39 469 -109 l408 -70 412 119 413 119 694 10
c462 7 697 14 701 21 3 6 12 40 19 75 l13 65 57 0 c31 -1 950 16 2043 37 1093
20 1989 35 1992 32 2 -2 20 -146 40 -319 20 -173 39 -332 42 -354 l6 -39 -278
7 -279 8 -29 -47 c-38 -62 -57 -72 -151 -79 -44 -4 -98 -9 -120 -12 -39 -5
-40 -5 -68 45 l-28 51 -113 0 -113 0 -7 -131 c-3 -72 -3 -180 0 -240 l7 -109
98 0 c53 0 104 -3 113 -6 11 -4 23 9 43 51 27 55 28 56 63 51 19 -3 79 -8 132
-12 l97 -6 42 -55 41 -55 872 6 c479 3 1048 9 1263 12 l393 6 12 34 c9 27 18
34 38 34 14 0 1087 36 2384 80 1830 62 2361 82 2368 92 4 7 8 25 8 40 0 26 -2
26 -72 32 -40 3 -1061 33 -2268 66 -1207 33 -2224 61 -2260 63 l-65 2 32 17
c29 16 96 18 792 25 1081 9 1002 27 -174 39 -581 6 -591 6 -625 27 -27 17 -57
23 -130 27 l-94 5 28 19 c28 18 72 19 968 25 517 3 946 2 955 -3 8 -4 143 -5
299 -1 l284 8 0 37 0 38 -82 6 c-186 13 -486 18 -504 8 -12 -6 -353 -7 -961
-3 l-942 6 -48 48 -49 47 -112 0 c-100 0 -112 2 -112 18 0 9 11 107 25 217 14
110 25 203 25 208 0 4 47 7 105 7 l105 0 0 45 0 45 -100 0 -99 0 4 28 c3 15
28 213 55 441 28 228 51 415 53 416 1 1 1656 -29 1875 -34 18 -1 32 -6 32 -13
0 -8 295 -97 818 -245 l817 -233 2020 -100 2020 -100 1643 -258 c903 -143
1645 -262 1648 -265 3 -3 -11 -31 -32 -61 -31 -44 -96 -98 -336 -278 -163
-123 -297 -227 -297 -233 -2 -20 201 -650 212 -661 7 -6 162 -66 346 -133
l335 -122 870 -199 c479 -110 879 -203 888 -207 9 -5 170 -150 357 -323 323
-299 339 -315 308 -317 -18 -1 -185 -7 -372 -13 -338 -10 -346 -11 -358 -45
-2 -6 -251 -12 -703 -16 -551 -5 -705 -9 -725 -19 -19 -11 -360 -14 -1829 -17
-1978 -4 -2330 -8 -2330 -28 0 -21 253 -25 2250 -28 1492 -3 1890 -6 1909 -16
17 -10 140 -15 470 -19 245 -4 429 -8 409 -10 -21 -2 -38 -7 -38 -13 0 -5 119
-9 299 -9 195 0 301 -4 303 -10 2 -7 193 -16 528 -26 474 -15 527 -18 543 -34
18 -17 17 -18 -25 -52 l-43 -35 -1434 -6 c-1191 -5 -1437 -4 -1460 7 -22 11
-92 11 -431 0 -223 -7 -415 -13 -427 -13 -21 -1 -23 -5 -23 -65 l0 -64 248 -8
c136 -4 333 -6 437 -5 105 1 810 2 1569 1 l1378 -1 49 -24 c33 -17 65 -25 100
-25 47 0 56 -4 109 -50 l58 -50 161 0 162 0 212 -197 c117 -108 224 -207 239
-221 l27 -24 2703 -68 c1487 -37 2705 -66 2707 -64 2 2 -53 159 -123 349 -92
252 -126 358 -126 391 0 42 -28 90 -372 657 -271 447 -508 818 -876 1375
l-504 763 -193 412 -193 412 -250 950 c-138 523 -272 1049 -298 1170 -26 121
-61 258 -80 305 -32 83 -33 85 -71 92 -21 3 -184 16 -363 28 -179 12 -335 23
-347 26 -14 3 -28 18 -37 39 -13 30 -12 56 4 217 11 101 20 186 20 191 0 4
-2096 5 -4657 2 -3966 -5 -5031 -3 -7168 13 -1380 10 -2512 16 -2515 14 -3 -2
-8 -55 -11 -118 -3 -62 -7 -116 -10 -118 -2 -3 -652 28 -1444 69 l-1440 74
-350 -65 -350 -64 -1230 20 c-811 14 -1756 37 -2775 69 l-1545 49 -115 39
-115 40 -3 182 -2 182 -1374 -7 -1373 -7 -127 106 -127 107 48 1 c26 0 514 21
1083 47 l1035 47 3 27 c3 26 1 26 -60 32 -35 3 -976 30 -2093 61 -1117 30
-2058 56 -2092 58 l-63 3 0 -189z m10135 -1177 l232 0 132 -387 c72 -212 130
-388 128 -390 -3 -2 -679 9 -1130 20 l-98 2 -169 374 c-94 206 -170 376 -170
377 0 7 268 11 544 8 165 -2 404 -4 531 -4z m-1104 -380 c65 -200 116 -366
114 -368 -2 -2 -214 1 -471 6 l-467 9 -53 59 c-46 50 -53 65 -54 100 0 37 -3
42 -37 58 -75 35 -306 181 -319 201 -18 29 -126 266 -122 270 6 6 970 32 1132
31 l158 -1 119 -365z m2806 353 c2 -10 66 -189 142 -398 76 -209 137 -382 135
-383 -4 -6 -1092 19 -1169 26 l-69 7 -173 375 c-95 206 -173 378 -173 382 0 5
293 8 651 8 611 0 651 -1 656 -17z m1459 3 c7 -11 291 -822 289 -824 -3 -3
-1219 28 -1220 31 -1 1 -85 181 -188 399 -103 218 -187 400 -187 404 0 5 1303
-4 1306 -10z m1193 -12 c6 -5 -43 -814 -50 -825 -5 -8 -95 -9 -305 -4 l-299 8
-180 390 c-99 215 -185 403 -192 419 l-12 28 517 -6 c284 -4 519 -8 521 -10z
m-7008 -69 c10 -27 18 -56 18 -63 1 -10 -164 83 -194 110 -6 5 24 8 74 6 l84
-3 18 -50z m1404 -1650 c754 -8 1415 -18 1470 -21 l101 -6 50 -442 c28 -242
50 -443 48 -444 -1 -2 -767 12 -1701 32 -934 20 -1727 37 -1763 37 l-65 1 77
21 77 21 7 51 c4 27 5 160 3 295 -2 135 -2 297 -1 360 l2 115 162 -2 c90 -2
780 -9 1533 -18z m-2265 -770 l0 -65 -68 0 -69 0 -11 51 c-19 82 -22 79 68 79
l80 0 0 -65z m-7357 -52 c-7 -2 -19 -2 -25 0 -7 3 -2 5 12 5 14 0 19 -2 13 -5z"/>
</g>
</svg>
