<?xml version="1.0" standalone="no"?>
<!DOCTYPE svg PUBLIC "-//W3C//DTD SVG 20010904//EN"
 "http://www.w3.org/TR/2001/REC-SVG-20010904/DTD/svg10.dtd">
<svg version="1.0" xmlns="http://www.w3.org/2000/svg"
   viewBox="0 0 3586.000000 986.000000"
 preserveAspectRatio="xMidYMid meet">
<metadata>
Created by potrace 1.16, written by Peter Selinger 2001-2019
</metadata>
<g transform="translate(0.000000,986.000000) scale(0.100000,-0.100000)"
fill="#000000" stroke="none">
<path d="M3425 9828 c-38 -17 -145 -85 -236 -150 l-166 -118 -1437 0 -1438 0
-74 -61 -74 -60 0 -190 0 -190 144 -187 143 -187 67 -324 67 -323 137 -184
137 -183 43 0 c37 -1 42 -4 43 -23 0 -17 39 -53 157 -144 l157 -121 78 -140
77 -139 0 -272 c0 -223 3 -283 17 -332 l16 -60 129 0 c70 0 128 -3 128 -7 0
-9 228 -989 235 -1013 4 -13 88 -22 515 -54 l510 -38 730 122 731 123 174 -48
c168 -47 175 -49 176 -74 0 -20 12 -33 47 -56 l46 -30 134 -325 134 -325 130
-105 c72 -58 137 -109 145 -113 8 -5 26 -1 46 12 l33 20 1115 -1814 c837
-1364 1118 -1813 1130 -1809 16 4 43 -36 44 -66 0 -14 6 -16 35 -11 6 0 10 10
10 22 0 11 -4 18 -9 14 -6 -3 -25 21 -44 52 -18 32 -528 861 -1132 1843 -604
982 -1098 1794 -1097 1805 2 26 -68 205 -80 205 -5 0 -18 -4 -28 -10 -16 -9
-39 23 -200 285 -100 162 -185 295 -188 295 -4 0 -14 -6 -23 -13 -14 -10 6
-48 162 -302 98 -159 179 -293 179 -296 0 -3 -16 -13 -35 -22 l-34 -16 -43 35
c-39 33 -56 64 -184 346 -140 310 -141 311 -121 331 21 21 -2 28 3338 -903
l886 -246 489 -259 c269 -142 491 -262 495 -267 12 -18 134 -44 760 -158 460
-85 685 -122 755 -125 110 -4 317 -40 322 -55 2 -6 10 -10 17 -10 8 0 34 -7
57 -14 24 -8 291 -60 593 -116 303 -55 562 -103 577 -106 l26 -5 -5 -118 -6
-118 272 -209 272 -209 297 -107 297 -107 385 -61 c212 -33 391 -61 398 -63 7
-1 -145 -67 -337 -147 l-351 -144 0 -57 c0 -54 -1 -57 -27 -62 -16 -2 -167
-20 -336 -38 -269 -29 -310 -32 -330 -19 -12 7 -41 17 -64 20 l-42 7 -6 -56
-7 -56 -158 -155 c-156 -152 -159 -156 -166 -205 l-6 -51 43 -9 c41 -10 46
-14 94 -100 l50 -90 275 -12 275 -11 94 -41 95 -41 330 -15 c182 -8 344 -15
359 -15 l28 0 -46 -53 c-43 -50 -51 -55 -138 -80 -84 -24 -109 -27 -263 -27
-97 -1 -316 11 -515 27 -407 32 -424 30 -431 -37 -2 -22 -1 -40 2 -40 40 0
1650 -234 1679 -243 82 -29 294 -229 349 -330 l36 -67 1068 0 1069 0 18 43
c35 81 -5 77 809 77 954 0 4248 75 5090 116 l132 6 0 33 c0 18 -6 37 -12 42
-7 5 -105 24 -218 41 -181 28 -222 38 -350 86 -228 85 -308 136 -545 351 l-90
82 -240 17 c-132 9 -332 26 -445 37 l-205 20 -21 -26 -21 -26 -84 99 c-81 94
-86 103 -119 208 l-35 110 -185 18 c-102 9 -206 20 -232 23 l-46 5 29 42 c17
22 38 44 47 48 9 4 58 7 107 7 50 1 333 12 630 25 896 41 1285 51 1374 37 66
-11 85 -10 136 3 47 13 179 21 595 35 316 11 555 15 585 10 77 -12 153 -10
214 6 41 10 190 19 541 30 267 8 2575 83 5130 166 2555 82 4679 148 4720 145
41 -3 100 -8 130 -11 52 -6 74 1 420 125 201 73 367 133 369 135 2 2 0 69 -4
149 -6 115 -10 146 -21 146 -8 0 -56 24 -107 52 l-92 53 -137 0 -136 0 -6 37
c-3 20 -10 39 -14 42 -5 3 -350 -8 -768 -24 -551 -22 -825 -37 -999 -55 -209
-21 -739 -42 -4105 -165 -2126 -77 -3979 -144 -4119 -150 -140 -5 -278 -10
-308 -10 -51 0 -53 1 -53 28 0 15 -4 32 -8 38 -5 8 -230 3 -817 -18 l-810 -28
-165 -47 -165 -46 -327 -13 c-179 -6 -341 -16 -360 -22 -18 -6 -107 -13 -198
-16 -135 -4 -179 -10 -245 -30 -44 -13 -83 -21 -86 -17 -3 3 -14 53 -23 111
-9 57 -19 106 -21 108 -2 2 -212 -57 -466 -132 l-462 -137 -46 45 c-25 24 -74
58 -108 75 -60 30 -71 32 -250 42 -104 6 -199 15 -213 21 -14 5 -69 14 -122
19 -82 7 -106 5 -163 -11 -37 -11 -78 -26 -91 -35 -13 -8 -26 -15 -29 -15 -3
0 -5 43 -5 95 l0 95 88 0 c86 0 89 1 120 33 l32 33 0 137 0 137 433 0 433 0
86 -80 c105 -97 130 -103 172 -39 15 22 26 44 24 48 -2 4 -57 85 -123 179
l-120 171 -452 1 -453 0 0 93 c0 112 -14 166 -70 277 -38 75 -60 102 -189 231
-223 222 -186 207 -878 359 -310 68 -563 127 -563 131 0 4 46 44 102 88 l101
82 27 -26 c15 -14 36 -27 47 -28 11 0 101 55 201 124 203 138 205 142 152 209
l-30 38 72 60 c103 85 124 109 143 173 l18 57 266 5 266 5 110 42 c80 30 137
45 207 53 l97 11 6 51 c4 28 5 64 3 80 l-3 29 -757 220 c-602 175 -753 222
-741 232 13 9 16 29 14 98 0 48 -5 95 -10 105 -6 11 -145 58 -443 150 -574
176 -3401 1117 -3884 1292 -241 87 -593 203 -955 314 -520 160 -606 184 -919
251 -190 41 -455 90 -590 110 l-245 36 -870 294 -870 293 -3089 675 c-2926
641 -3093 676 -3185 675 -85 0 -104 -4 -166 -31z m11996 -5499 c222 -38 404
-71 406 -72 1 -1 -12 -63 -28 -137 -25 -114 -33 -139 -59 -165 l-30 -31 0
-183 c0 -170 -1 -183 -17 -178 -10 3 -225 81 -478 175 -253 93 -577 213 -720
265 l-260 95 -12 43 c-7 23 -11 45 -8 47 3 3 36 0 74 -6 l70 -12 318 115 c175
63 323 114 329 115 7 0 193 -32 415 -71z m3120 -2341 l-20 -33 -414 -5 c-372
-5 -418 -3 -458 12 l-44 17 70 1 c39 1 223 10 410 19 187 10 371 19 408 20
l69 1 -21 -32z m3559 -18 c0 -17 -7 -20 -39 -20 -21 0 -60 -2 -87 -5 l-49 -5
70 24 c89 30 105 31 105 6z m14 -136 c17 -45 21 -44 -263 -44 -150 0 -272 4
-275 9 -12 19 65 34 214 41 280 12 317 12 324 -6z m-1269 -154 c3 -6 -4 -10
-17 -10 -13 0 -41 -2 -63 -5 l-40 -5 40 14 c49 18 72 19 80 6z m-1441 -200
c27 -33 66 -71 87 -86 32 -22 38 -32 41 -70 l3 -45 -65 6 c-108 11 -94 -2
-179 158 l-53 97 59 0 58 0 49 -60z m381 -220 c5 -7 -16 -9 -62 -4 -89 9 -93
14 -10 14 36 0 69 -5 72 -10z m1646 -497 c-6 -10 -21 -31 -35 -48 l-24 -30
-169 -2 -168 -2 190 49 c224 56 219 56 206 33z"/>
</g>
</svg>
