<?xml version="1.0" standalone="no"?>
<!DOCTYPE svg PUBLIC "-//W3C//DTD SVG 20010904//EN"
 "http://www.w3.org/TR/2001/REC-SVG-20010904/DTD/svg10.dtd">
<svg version="1.0" xmlns="http://www.w3.org/2000/svg"
   viewBox="0 0 4827.000000 876.000000"
 preserveAspectRatio="xMidYMid meet">
<metadata>
Created by potrace 1.16, written by Peter Selinger 2001-2019
</metadata>
<g transform="translate(0.000000,876.000000) scale(0.100000,-0.100000)"
fill="#000000" stroke="none">
<path d="M19197 8724 l-29 -34 -440 0 -441 0 -149 -110 -149 -110 -588 0
c-664 0 -621 5 -621 -78 0 -37 -3 -43 -40 -63 l-40 -23 0 -355 0 -356 40 -23
40 -23 0 -74 0 -75 -114 0 -114 0 -199 -205 -198 -205 -41 -122 -41 -123 -144
3 c-79 2 -576 14 -1104 28 -528 13 -1082 24 -1230 24 l-270 0 -140 140 -140
140 -317 0 -317 0 -21 28 c-42 52 -29 51 -575 52 l-510 1 -87 101 c-49 56 -86
103 -84 106 3 2 28 9 58 16 53 11 53 12 56 52 3 39 0 44 -56 93 l-60 51 -354
0 -354 0 -49 -50 -49 -50 -221 0 -220 1 -35 44 -35 45 -215 -1 -215 0 -42 -52
c-37 -44 -43 -57 -43 -99 l0 -48 -129 0 -129 0 -275 -105 c-260 -99 -280 -105
-350 -105 -89 0 -70 11 -339 -203 l-198 -157 -983 0 -983 0 -37 50 c-70 94
-45 90 -612 90 -574 0 -544 5 -614 -99 -35 -51 -57 -69 -164 -135 l-124 -76
-772 -115 -771 -115 -688 0 -687 0 -295 -67 -295 -67 -110 -73 -110 -73 -141
0 c-117 0 -143 -3 -148 -15 -7 -20 -60 -20 -76 0 -9 11 -33 15 -84 15 -71 0
-72 -1 -129 -47 l-57 -48 0 -503 0 -503 58 -53 c52 -49 63 -55 115 -61 32 -3
65 -9 73 -12 12 -4 14 -78 14 -491 l0 -485 32 -115 32 -114 -62 -55 -62 -55 0
-758 0 -758 61 -51 61 -51 219 0 219 0 0 30 0 30 110 0 110 0 0 -30 0 -30
1253 0 1252 0 940 -100 c790 -84 966 -100 1103 -100 l163 0 117 78 c64 43 137
90 162 104 25 14 261 96 526 182 l480 156 347 0 347 0 583 -160 584 -160 1082
0 1081 0 277 -175 277 -175 1043 0 1044 0 104 -70 104 -70 391 0 390 0 0 70 0
70 -42 0 -43 0 -43 80 -43 80 -59 0 -60 0 0 95 0 95 1630 0 1630 0 0 -105 0
-105 860 0 860 0 0 105 0 105 435 0 435 0 0 -105 0 -105 875 0 875 0 0 105 0
105 425 0 425 0 0 -105 0 -105 790 0 790 0 0 105 0 105 579 0 578 0 121 -110
120 -110 734 0 733 0 233 -226 c176 -171 232 -232 232 -250 l0 -24 -540 0
-540 0 0 65 0 65 -153 0 -152 0 -41 -67 c-35 -59 -44 -68 -72 -71 l-32 -3 0
-170 0 -169 30 0 30 0 0 -155 0 -155 -30 0 -30 0 0 -160 0 -160 33 0 c29 0 36
-7 72 -65 l39 -65 153 0 153 0 0 65 0 65 115 0 c115 0 115 0 115 -24 0 -35 57
-66 121 -66 l49 0 0 -45 c0 -42 2 -46 40 -65 50 -25 145 -27 195 -3 l35 17 0
93 0 93 205 0 205 0 0 -25 0 -25 663 0 663 0 89 -104 90 -105 786 0 786 -1 89
105 89 104 695 1 696 0 89 -104 90 -105 787 0 787 -1 93 104 93 105 715 0 715
0 93 -104 93 -105 769 0 769 0 92 105 93 105 705 0 706 -1 89 -104 89 -105
786 1 786 0 90 105 89 104 673 0 673 0 0 155 0 155 1204 0 1204 0 144 120 143
120 590 0 590 0 147 125 147 125 733 0 733 0 92 80 92 80 70 0 71 0 0 55 0 55
-1326 0 -1325 0 65 56 66 55 0 840 0 839 30 0 30 0 0 70 0 70 -30 0 c-27 0
-30 3 -30 30 0 27 3 30 30 30 l30 0 0 70 0 70 -30 0 c-28 0 -30 3 -30 35 0 32
2 35 30 35 l30 0 0 65 0 65 -30 0 c-25 0 -30 4 -30 25 0 21 5 25 30 25 l30 0
0 70 0 70 -30 0 -30 0 0 170 0 170 208 0 c185 0 212 3 251 20 41 19 67 20 642
20 l599 0 0 55 0 55 -852 2 -851 3 -59 164 c-44 123 -56 166 -47 172 7 4 95
28 196 53 l183 46 300 0 300 0 0 45 0 45 -530 0 -530 0 0 130 0 130 33 0 c60
0 67 18 67 182 0 162 -6 178 -68 178 -30 0 -32 2 -32 35 0 33 2 35 33 35 61 0
67 17 67 187 0 168 -6 183 -68 183 -30 0 -32 2 -32 35 0 33 2 35 33 35 60 0
67 18 67 182 0 162 -6 178 -68 178 -31 0 -32 2 -32 40 0 39 1 40 33 40 59 0
67 20 67 162 0 140 -8 158 -68 158 l-32 0 0 368 0 369 153 21 c140 20 192 22
665 22 l512 0 0 40 0 40 -665 0 -666 0 3 121 3 122 305 98 305 98 188 1 187 0
90 45 90 45 314 0 c277 0 315 2 320 16 18 46 67 44 -931 44 l-938 0 -234 95
-234 95 -223 0 -224 0 0 60 0 60 -630 0 -630 0 0 -60 0 -60 -2140 0 -2140 0 0
40 0 40 -715 0 -715 0 0 -40 0 -40 -703 0 -703 0 -40 -30 c-46 -35 -74 -39
-74 -10 0 25 -29 40 -77 40 -42 -1 -69 -16 -74 -44 -7 -31 -92 -56 -191 -56
l-88 0 0 39 c0 38 -1 39 -59 60 -54 19 -78 21 -312 21 -238 0 -258 -1 -316
-22 l-63 -23 0 -62 0 -63 -335 0 -335 0 0 80 0 80 -660 0 -660 0 0 55 0 55
-916 0 -917 0 -147 110 -147 110 -345 0 -346 0 -26 35 c-26 33 -30 35 -86 35
-56 0 -60 -2 -86 -35 l-26 -35 -462 0 -462 0 -145 -110 -144 -110 -580 0 -580
0 -154 110 -154 110 -339 0 -339 0 -30 35 c-28 32 -36 35 -85 35 -50 0 -57 -3
-85 -35 l-31 -35 -454 0 -453 0 -154 -110 -154 -110 -585 0 -586 0 -148 110
-149 109 -342 1 -342 0 -27 35 c-25 34 -29 35 -90 35 -60 0 -64 -1 -90 -35
l-26 -35 -455 0 -455 0 -149 -110 -149 -110 -562 0 -561 0 -149 110 -149 110
-332 0 -332 0 -28 35 c-26 33 -31 35 -85 34 -52 0 -59 -3 -85 -35z"/>
</g>
</svg>
