<?xml version="1.0" standalone="no"?>
<!DOCTYPE svg PUBLIC "-//W3C//DTD SVG 20010904//EN"
 "http://www.w3.org/TR/2001/REC-SVG-20010904/DTD/svg10.dtd">
<svg version="1.0" xmlns="http://www.w3.org/2000/svg"
   viewBox="0 0 4415.000000 2628.000000"
 preserveAspectRatio="xMidYMid meet">
<metadata>
Created by potrace 1.16, written by Peter Selinger 2001-2019
</metadata>
<g transform="translate(0.000000,2628.000000) scale(0.100000,-0.100000)"
fill="#000000" stroke="none">
<path d="M18350 25480 c0 -780 0 -800 -19 -800 -16 0 -23 -18 -46 -117 -14
-65 -29 -126 -31 -135 -5 -17 -73 -18 -1255 -18 l-1249 0 0 -1466 0 -1465 -26
-35 -26 -34 -894 0 -894 0 0 25 0 25 -785 0 -785 0 0 -25 c0 -25 1 -25 85 -25
58 0 85 -4 85 -12 0 -9 -114 -423 -146 -530 -5 -17 -28 -18 -305 -18 -287 0
-299 -1 -299 -19 0 -49 51 -366 60 -371 6 -3 127 -39 270 -80 l260 -74 0 -48
0 -48 -165 0 -165 0 0 -290 0 -290 -165 0 -165 0 0 -114 0 -114 -112 -7 c-62
-3 -1058 -5 -2213 -3 l-2100 3 -57 -425 c-31 -234 -57 -431 -57 -437 -1 -10
-369 -13 -1803 -13 l-1803 0 -200 -244 c-191 -232 -210 -251 -408 -422 -193
-167 -214 -182 -312 -226 l-105 -48 -1125 0 -1125 0 0 -810 0 -810 -107 -1
c-187 -2 -187 1 -29 -109 l136 -94 0 -908 0 -908 785 0 784 0 10 -37 c6 -20 9
-38 7 -40 -2 -2 -185 -6 -407 -9 -222 -2 -450 -7 -506 -10 l-103 -6 0 -289 0
-289 1238 0 1237 -1 835 -193 835 -193 191 -214 191 -214 -43 -9 c-24 -4 -44
-14 -44 -21 0 -9 10 -10 46 -2 34 8 51 8 65 -1 28 -18 49 -15 49 7 0 14 12 22
45 30 55 14 62 35 8 25 -61 -12 -78 -10 -76 6 1 8 -65 91 -147 184 -82 94
-148 171 -146 173 1 2 876 -198 1944 -444 l1941 -448 -6 -25 c-3 -14 -6 -26
-7 -27 -1 -1 -24 4 -51 11 l-50 12 -10 -45 c-11 -48 -16 -50 -69 -37 -21 5
-25 1 -35 -39 -6 -24 -11 -50 -11 -58 0 -7 125 -89 278 -182 l279 -167 -19
-95 c-11 -52 -18 -96 -16 -99 4 -4 885 -204 898 -204 4 0 20 65 36 145 l28
145 92 0 92 0 6 35 c4 19 12 35 19 35 7 0 129 -29 272 -64 143 -36 263 -61
266 -58 6 7 39 133 39 150 0 5 -103 35 -229 67 l-229 57 9 30 c4 17 10 32 11
34 2 1 107 -23 233 -53 127 -30 408 -90 625 -132 l395 -78 6 466 c3 256 7 576
8 711 l1 245 682 -47 c375 -26 683 -46 685 -45 1 2 9 35 16 75 l14 71 -66 14
c-36 8 -207 44 -378 78 -172 35 -313 66 -313 69 0 3 204 20 453 38 248 18 462
35 475 38 17 3 22 11 22 34 0 25 4 30 25 30 l25 0 0 -995 0 -995 86 2 87 3
187 -446 c103 -246 200 -462 215 -481 16 -21 307 -701 711 -1664 l683 -1629
-132 -25 c-129 -25 -132 -26 -135 -53 -4 -33 2 -34 129 -8 178 35 157 38 181
-19 22 -52 25 -54 78 -44 32 7 32 7 28 63 l-3 55 128 24 c102 19 127 27 127
41 -1 40 -11 41 -144 15 -71 -14 -134 -23 -141 -20 -7 2 -15 22 -17 43 -3 21
-320 790 -706 1710 -646 1539 -702 1676 -702 1728 0 49 -16 95 -136 381 -75
179 -134 327 -131 330 2 3 164 9 358 13 l354 8 237 -59 c131 -32 248 -58 261
-58 24 0 24 -2 30 -126 3 -69 7 -127 9 -128 2 -1 349 2 772 7 l769 10 150 -29
c83 -15 156 -34 162 -41 9 -9 14 -188 19 -740 4 -400 9 -745 12 -765 l6 -37
-484 -322 c-266 -177 -491 -328 -500 -337 -17 -14 -16 -21 11 -61 7 -11 120
61 509 323 l501 336 325 0 326 0 0 -55 0 -55 640 0 c562 0 640 -2 640 -15 0
-12 -17 -15 -95 -15 l-95 0 0 -70 0 -70 1838 0 1837 0 505 -67 505 -66 60 23
c33 12 69 23 80 23 11 1 370 -247 797 -551 l778 -552 157 50 158 50 99 -67
100 -68 22 -75 c12 -41 48 -129 79 -195 92 -193 95 -206 95 -382 l0 -153 48 0
48 0 353 -1109 c195 -610 357 -1114 360 -1119 4 -6 85 -1 205 12 l198 22 8
-21 c4 -11 52 -155 106 -320 54 -165 108 -313 120 -330 13 -18 239 -691 558
-1660 294 -897 538 -1638 542 -1648 5 -14 0 -17 -37 -17 -24 0 -81 -3 -126 -7
-81 -6 -83 -7 -83 -32 l0 -26 88 7 c48 3 107 7 132 7 l45 1 66 -199 66 -198
-81 -7 c-44 -3 -100 -6 -123 -6 -41 0 -43 -1 -43 -31 0 -30 1 -31 38 -25 20 3
80 8 133 11 l96 7 13 -47 c13 -45 15 -47 43 -41 16 3 33 6 38 6 5 0 9 20 9 44
l0 44 120 7 120 8 0 29 c0 27 -2 29 -32 24 -18 -3 -77 -8 -130 -12 -105 -6
-103 -7 -99 46 0 8 -23 90 -52 181 l-54 167 45 6 c25 3 66 6 93 6 63 0 79 7
79 37 0 24 -1 24 -72 18 -40 -3 -93 -8 -118 -10 l-46 -5 -567 1727 c-515 1570
-567 1734 -567 1793 0 54 -12 101 -70 275 -38 115 -69 209 -67 210 1 2 157 19
347 39 190 20 364 39 386 42 l42 6 22 -67 c21 -63 23 -66 49 -60 l26 5 314
-917 c173 -505 346 -1010 384 -1122 l70 -203 35 6 c19 3 36 7 38 9 3 3 -768
2263 -800 2347 -5 13 59 22 444 64 248 26 453 46 456 43 15 -14 734 -2231 734
-2261 0 -40 8 -66 21 -66 5 0 9 24 9 54 0 30 4 56 9 58 5 1 9 48 9 103 0 296
-4 434 -10 441 -10 10 -10 15 -17 -113 l-6 -113 -313 956 c-172 526 -312 957
-310 959 3 3 955 105 976 105 9 0 12 60 12 267 l0 267 -324 1170 c-317 1142
-326 1178 -371 1441 -38 222 -126 604 -191 828 -5 16 79 17 1665 17 l1671 0 0
280 0 279 -128 3 -129 3 122 430 122 430 552 3 551 2 0 127 0 126 143 -6 c78
-4 283 -10 455 -13 266 -6 312 -5 308 7 -23 66 -416 1442 -413 1445 2 3 156
-14 342 -36 185 -23 339 -39 341 -37 2 2 48 89 102 193 l99 189 311 3 312 2 0
-190 0 -190 533 0 533 0 204 -125 205 -125 686 0 c377 0 734 -3 792 -7 l107
-6 0 -79 0 -78 625 0 625 0 0 220 c0 121 -2 220 -4 220 -2 0 -156 36 -342 79
-530 124 -918 206 -1179 251 -132 22 -248 43 -257 46 -17 5 -18 77 -18 1330
l0 1324 2630 0 2630 0 0 55 0 55 -2630 0 -2630 0 0 38 0 39 1787 6 c982 4
2278 7 2880 7 l1093 0 0 250 0 250 40 0 40 0 0 45 0 45 -550 0 -550 0 0 30 0
30 -2640 0 -2640 0 0 433 0 433 -412 52 c-953 120 -5616 712 -5650 718 l-38 6
0 99 0 99 -510 0 -510 0 0 -36 0 -37 -37 6 c-21 4 -166 22 -323 42 -157 19
-505 67 -775 106 -444 64 -566 86 -1295 235 -443 91 -812 168 -822 172 -14 6
-3 29 68 150 l85 142 159 0 160 0 0 1234 c0 815 3 1237 10 1241 7 4 7 12 0 25
-6 11 -10 121 -9 272 l0 253 211 173 211 172 213 0 214 0 0 715 0 715 -1172
-6 -1173 -6 -145 102 -145 102 -85 -6 c-47 -3 -165 -9 -263 -12 l-179 -7 -108
-88 -109 -89 -1450 0 -1451 0 0 -480 0 -480 -345 0 -345 0 0 -105 0 -106 -312
-344 -313 -345 -1157 0 -1158 0 0 1378 0 1377 165 34 c115 24 165 38 165 47 0
11 -33 14 -165 14 -140 0 -165 2 -165 15 0 12 -16 15 -80 15 l-80 0 0 60 0 60
-90 0 -90 0 0 135 c0 128 -1 135 -20 135 -20 0 -20 7 -20 800 l0 800 -40 0
-40 0 0 -800z"/>
<path d="M28067 23443 c-12 -11 -8 -108 5 -121 9 -9 116 -12 419 -12 339 0
409 2 418 14 7 8 11 37 9 68 l-3 53 -421 3 c-231 1 -424 -1 -427 -5z"/>
</g>
</svg>
