<?xml version="1.0" standalone="no"?>
<!DOCTYPE svg PUBLIC "-//W3C//DTD SVG 20010904//EN"
 "http://www.w3.org/TR/2001/REC-SVG-20010904/DTD/svg10.dtd">
<svg version="1.0" xmlns="http://www.w3.org/2000/svg"
   viewBox="0 0 3778.000000 1312.000000"
 preserveAspectRatio="xMidYMid meet">
<metadata>
Created by potrace 1.16, written by Peter Selinger 2001-2019
</metadata>
<g transform="translate(0.000000,1312.000000) scale(0.100000,-0.100000)"
fill="#000000" stroke="none">
<path d="M3048 13103 c-28 -31 -88 -642 -88 -885 l0 -198 -88 0 -88 0 -59
-275 -58 -275 -33 0 c-45 0 -134 -80 -134 -120 0 -23 -5 -28 -30 -32 -18 -3
-34 0 -38 7 -4 6 -54 17 -112 24 -176 20 -170 18 -170 58 0 22 20 73 56 143
30 60 54 118 52 129 -2 13 14 37 45 68 l47 49 -6 61 c-4 34 -10 66 -14 73 -7
11 -111 -53 -167 -103 -27 -24 1 -44 -217 156 -136 125 -167 148 -168 123 0
-4 72 -83 160 -175 l160 -167 -72 -75 c-76 -79 -170 -214 -161 -230 4 -5 25
-9 48 -9 84 0 87 -3 87 -86 0 -72 -1 -74 -25 -74 -24 0 -25 -2 -25 -75 l0 -75
94 0 94 0 33 -70 32 -70 348 0 349 0 0 -24 c0 -15 7 -26 20 -29 19 -5 20 -14
20 -151 l0 -146 -367 0 -367 0 -28 -27 c-22 -21 -28 -36 -28 -70 0 -37 -3 -43
-20 -43 -13 0 -24 -10 -30 -25 -8 -22 -15 -25 -61 -25 -44 0 -67 -8 -148 -53
-110 -62 -150 -77 -199 -77 -19 0 -50 -9 -68 -21 -34 -21 -34 -21 -34 -99 l0
-79 84 -50 84 -51 196 0 c189 0 196 -1 196 -20 0 -20 -7 -20 -310 -20 l-310 0
0 278 c0 258 -1 280 -18 295 -16 15 -46 17 -209 17 -256 0 -233 32 -233 -318
l0 -272 -45 0 -45 0 0 -40 0 -40 45 0 45 0 0 -125 c0 -102 3 -127 15 -131 13
-5 15 -41 15 -233 0 -292 -16 -271 206 -271 220 0 204 -21 204 273 0 145 4
227 10 227 6 0 10 50 10 130 l0 130 310 0 310 0 0 -25 c0 -25 -1 -25 -84 -25
l-85 0 -195 -107 -196 -107 0 -80 1 -81 79 -47 79 -48 200 0 201 0 0 -300 0
-300 -463 0 -463 0 -61 -137 -61 -138 -271 -3 c-204 -2 -271 -5 -271 -14 0 -7
17 -54 37 -105 l36 -93 66 0 65 0 -32 -33 -32 -33 0 -152 0 -152 -122 0 c-116
-1 -125 -2 -150 -25 -27 -23 -28 -27 -28 -125 l0 -100 -183 0 c-165 0 -186 -2
-200 -18 -15 -17 -17 -59 -17 -395 l0 -376 55 -59 54 -59 1 -212 c1 -198 0
-214 -19 -247 -17 -29 -21 -52 -21 -125 l0 -89 690 0 689 0 55 -77 c52 -74 61
-97 191 -490 l136 -413 39 -27 40 -28 0 -442 c0 -283 4 -444 10 -448 6 -4 10
-97 10 -245 l0 -239 53 -15 c28 -8 141 -38 250 -65 187 -48 204 -51 327 -51
l130 0 0 -43 c0 -39 5 -48 63 -105 l63 -62 155 0 155 0 74 75 74 75 363 0 363
0 0 -1750 0 -1750 310 0 310 0 0 390 0 390 90 0 90 0 0 1293 0 1294 -69 66
-69 67 189 0 189 0 -70 -66 -70 -66 0 -1294 0 -1294 90 0 90 0 0 -390 0 -390
310 0 310 0 0 1675 0 1675 170 0 170 0 0 -240 0 -240 1240 0 1240 0 0 -195 0
-195 365 0 365 0 0 -230 0 -230 560 0 560 0 0 410 0 410 330 0 330 0 0 -130 0
-130 30 0 30 0 0 130 0 130 165 0 165 0 0 -130 0 -130 30 0 30 0 0 130 0 130
1145 0 1145 0 0 -130 0 -130 35 0 35 0 0 130 0 130 145 0 145 0 0 -130 0 -130
30 0 30 0 0 130 0 130 580 0 581 0 142 100 142 100 213 0 212 0 0 -510 0 -510
610 0 610 0 0 410 0 410 225 0 225 0 0 -130 0 -130 30 0 30 0 0 130 0 130 160
0 160 0 0 -130 0 -130 30 0 30 0 0 130 0 130 499 0 499 0 274 -280 273 -280
1497 0 1498 0 0 -425 0 -425 178 0 179 0 16 40 15 40 700 0 700 0 16 -40 16
-40 265 0 265 0 0 430 0 430 698 0 699 0 292 -305 293 -305 48 0 c44 0 51 -3
79 -39 22 -27 31 -50 31 -75 0 -31 13 -54 88 -146 48 -61 95 -109 105 -109 15
-1 17 -14 17 -119 l0 -117 49 -61 c46 -57 53 -61 124 -81 l75 -21 73 22 c66
19 77 26 121 79 l48 58 0 115 c0 103 2 115 19 122 10 4 58 55 105 113 74 91
86 111 86 143 0 27 9 48 32 77 l31 39 78 0 77 0 24 60 23 60 212 0 212 0 22
-60 22 -60 97 0 97 0 31 -39 c23 -29 32 -50 32 -77 0 -31 13 -52 86 -143 48
-58 95 -109 105 -113 17 -7 19 -19 19 -122 l0 -114 49 -59 c45 -53 55 -60 121
-80 l72 -21 75 21 c71 20 78 24 124 81 l49 61 0 117 c0 106 2 118 18 119 9 0
55 48 105 109 74 92 87 114 87 145 0 26 9 49 31 76 l31 39 79 0 79 0 0 -278
c0 -278 0 -279 23 -300 23 -22 25 -22 488 -22 l464 0 58 35 57 34 0 -184 0
-185 265 0 265 0 0 -60 0 -60 778 0 777 0 94 -115 94 -115 68 0 67 0 12 -35
12 -35 92 0 93 0 9 33 10 32 127 3 128 3 15 -36 14 -35 89 0 90 0 12 35 13 35
127 0 127 0 12 -35 12 -35 92 0 93 0 9 33 10 32 125 3 125 3 13 -36 12 -35 90
0 90 0 15 35 14 35 150 0 150 0 0 235 0 235 -540 0 -540 0 -25 50 -25 50 -730
0 -730 0 0 50 0 50 1113 0 1112 0 61 178 61 177 147 3 146 3 0 54 0 55 -160 0
-160 0 0 95 0 95 -85 0 -85 0 0 95 0 95 38 0 c20 0 107 20 192 44 l155 43 3
69 3 70 184 68 185 69 0 59 0 58 65 0 65 0 0 -50 0 -50 493 0 492 0 145 40
c80 22 153 40 163 40 10 0 51 -18 92 -40 70 -39 76 -41 152 -38 l78 3 0 290 0
290 -80 3 c-78 2 -82 1 -158 -41 l-79 -44 -156 44 -157 43 -492 0 -493 0 0
-45 0 -45 -65 0 -65 0 0 53 0 54 -185 69 -184 68 -3 70 -3 69 -155 43 c-85 24
-172 44 -192 44 -31 0 -38 4 -38 20 0 17 -7 20 -40 20 -33 0 -40 -3 -40 -20 0
-19 -7 -20 -150 -20 l-150 0 0 60 0 60 180 0 180 0 0 50 0 50 -134 0 -135 0
-21 30 c-17 23 -29 30 -56 30 l-34 0 0 1785 0 1785 90 0 90 0 0 40 c0 39 1 40
35 40 l35 0 0 -88 0 -88 44 -43 43 -43 683 2 683 1 101 89 101 90 211 0 211 0
11 25 c16 36 17 35 -28 35 l-40 0 0 70 0 70 40 0 c29 0 40 4 40 15 0 11 -11
15 -40 15 l-40 0 0 70 0 70 40 0 c39 0 39 1 28 25 l-11 25 -210 0 -210 0 -95
88 -95 87 -686 5 c-580 4 -689 3 -703 -9 -17 -13 -18 -9 -18 62 l0 77 120 0
c113 0 120 1 120 20 0 19 -7 20 -125 20 l-125 0 -27 55 -27 55 -1663 0 -1662
0 -27 -45 -26 -45 -264 0 -264 0 0 -35 0 -35 -200 0 -200 0 0 85 0 85 150 0
149 0 10 38 c38 147 83 320 87 334 5 16 19 18 115 18 l109 0 0 34 c0 30 -4 34
-31 40 -17 3 -44 6 -60 6 -26 0 -30 5 -44 55 l-16 55 -335 0 -334 0 0 60 0 60
100 0 100 0 0 93 c0 146 24 137 -368 137 -309 0 -323 -1 -366 -22 l-44 -21
-18 -94 -18 -93 -54 0 c-78 0 -118 -31 -127 -99 -7 -49 -19 -60 -62 -61 -10 0
-13 178 -14 853 -1 468 -5 1003 -8 1187 -5 222 -8 -67 -9 -857 l-2 -1193 -22
0 c-47 0 -68 -12 -68 -36 0 -21 -5 -24 -37 -24 -53 0 -113 -11 -113 -20 0 -4
55 -14 121 -21 l121 -13 -6 -75 c-3 -42 -9 -118 -12 -168 -6 -88 -8 -93 -30
-93 -16 0 -53 -34 -134 -125 l-112 -125 -193 0 -194 0 -7 -45 -6 -45 -897 0
-896 0 -344 -65 c-189 -36 -345 -65 -347 -65 -2 0 -4 -54 -4 -120 l0 -120
-315 0 -315 0 0 -270 0 -270 -425 0 -425 0 -2 582 -3 583 -224 97 -224 98
-2700 0 -2700 0 -123 80 -122 80 -3547 0 -3548 0 -153 -95 -154 -95 -130 0
c-109 0 -130 2 -130 15 0 13 -58 15 -466 15 l-466 0 -63 55 -62 55 -137 0
-136 0 0 45 0 45 -170 0 c-150 0 -172 2 -188 18 -10 10 -31 67 -47 126 l-30
108 -107 54 -108 54 -215 0 -215 0 0 190 0 190 893 2 892 3 3 129 c2 86 -1
133 -9 142 -10 12 -153 14 -895 14 l-884 0 0 75 0 75 883 0 c673 0 886 3 895
12 17 17 17 259 0 276 -9 9 -222 12 -895 12 l-883 0 0 75 0 75 -470 0 -470 0
0 -90 0 -90 -76 0 c-65 0 -80 -3 -108 -25 -30 -23 -42 -25 -134 -25 l-102 0 0
685 0 685 279 0 c176 0 282 -4 286 -10 4 -7 253 -10 716 -10 l709 0 0 30 0 30
80 0 c79 0 80 0 80 25 l0 25 118 0 118 0 29 30 29 30 388 0 388 0 0 175 0 175
-389 0 -390 0 -21 30 -21 30 -125 0 -124 0 0 25 0 25 -2705 0 -2705 0 0 -25
c0 -24 -3 -25 -55 -25 -52 0 -55 1 -55 25 l0 25 -320 0 -320 0 0 273 c0 242
-3 312 -36 632 -24 232 -42 368 -51 383 -13 21 -18 22 -192 22 -157 0 -180 -2
-193 -17z m3100 -1950 c-19 -27 -50 -69 -68 -95 l-33 -48 -1184 0 -1183 0 -35
70 c-19 38 -35 76 -35 85 0 13 76 15 664 15 433 0 667 3 671 10 4 6 222 10
621 10 l616 0 -34 -47z m942 -638 l0 -685 -872 0 -873 0 -175 35 c-170 34
-182 35 -412 35 l-236 0 -7 40 -7 40 -464 0 -464 0 0 25 0 25 443 0 442 0 83
51 82 51 0 64 0 64 95 0 95 0 0 33 c0 31 -5 35 -258 181 l-259 148 -58 85 -58
85 -121 -7 c-73 -4 -124 -11 -128 -18 -4 -7 -27 -41 -52 -76 -35 -50 -46 -74
-46 -103 l0 -38 123 0 c105 0 126 -3 152 -20 l30 -20 -332 0 -333 0 0 150 0
150 68 0 c39 1 77 7 92 15 21 12 233 14 1445 15 l1420 0 124 180 123 180 169
0 169 0 0 -685z m-4010 388 l60 -16 0 -119 0 -118 -65 0 -65 0 0 135 c0 74 2
135 5 135 3 0 32 -7 65 -17z m4010 -1363 l0 -151 -927 3 c-724 2 -934 6 -957
16 -15 7 -90 56 -166 110 l-138 97 66 7 c37 4 130 21 207 37 l140 29 888 1
887 1 0 -150z m680 125 c29 -21 45 -25 107 -25 l73 0 0 -105 0 -105 -76 0
c-61 0 -81 -4 -101 -20 -22 -17 -41 -20 -134 -20 l-109 0 0 150 0 150 103 0
c94 0 106 -2 137 -25z m-680 -462 l-1 -38 -294 -140 -294 -140 -1 -47 0 -48
-210 0 -210 0 -90 180 -90 180 -170 0 -170 0 -62 45 -62 45 827 0 827 0 0 -37z
m682 12 c26 -22 39 -25 104 -25 l74 0 0 -200 0 -200 -170 0 -170 0 0 152 0
151 -40 34 c-34 29 -40 40 -40 74 l0 39 106 0 c99 0 108 -2 136 -25z m-6692
-741 c0 -3 -21 -35 -47 -70 l-47 -64 -93 0 -93 0 0 70 0 70 140 0 c77 0 140
-3 140 -6z m28695 -46 c-3 -13 -11 -52 -19 -88 l-14 -65 -1 88 c-1 81 0 87 19
87 16 0 19 -5 15 -22z m155 -203 c0 -2 -5 -27 -11 -55 l-11 -50 -74 0 -74 0 0
55 0 55 85 0 c47 0 85 -2 85 -5z m-11815 -144 c-32 -28 -438 -261 -457 -261
-13 0 76 57 212 135 209 120 275 154 245 126z m16995 -121 l20 -40 -1475 0
c-977 0 -1475 3 -1475 10 0 6 -28 10 -65 10 -36 0 -65 2 -65 5 0 3 7 17 16 30
l16 25 1504 0 1504 0 20 -40z m10 -275 l0 -195 -35 0 c-34 0 -35 1 -35 40 l0
40 -1020 0 -1020 0 -61 95 -61 95 -157 0 -157 0 -34 35 -34 35 70 0 c38 1 119
12 179 24 l110 24 1128 1 1127 1 0 -195z m-17947 28 c-183 -2 -483 -2 -665 0
-183 1 -34 2 332 2 366 0 515 -1 333 -2z m19477 -113 c86 -73 97 -80 137 -80
l43 0 0 -70 0 -70 -160 0 -160 0 0 97 0 97 -37 38 -37 38 -475 0 -475 0 -38
-37 c-32 -32 -38 -43 -38 -80 0 -41 -1 -43 -29 -43 l-30 0 -3 95 -3 95 606 0
605 0 94 -80z m460 -150 l0 -70 -125 0 -125 0 0 70 0 70 125 0 125 0 0 -70z
m-1990 -90 c0 -16 -7 -20 -35 -20 -28 0 -35 4 -35 20 0 16 7 20 35 20 28 0 35
-4 35 -20z m278 -17 c-10 -2 -26 -2 -35 0 -10 3 -2 5 17 5 19 0 27 -2 18 -5z
m1432 -63 l0 -70 -41 0 c-38 0 -50 -8 -139 -85 l-98 -85 -603 0 -604 0 3 95 3
95 30 0 c27 0 29 -3 29 -37 0 -29 8 -45 37 -75 l37 -38 475 0 475 0 38 37 38
37 0 98 0 98 160 0 160 0 0 -70z m280 0 l0 -70 -125 0 -125 0 0 70 0 70 125 0
125 0 0 -70z m-3130 -1915 l0 -1785 -49 0 c-44 0 -52 -4 -71 -30 -17 -24 -28
-30 -60 -30 -36 0 -42 5 -102 80 l-63 80 -367 0 -368 0 0 268 0 269 -55 39
-55 39 0 825 0 825 -97 97 -98 98 -82 0 -83 0 0 118 0 117 -125 125 -125 125
0 112 0 113 140 0 139 0 64 60 65 60 151 0 151 0 58 90 57 90 488 0 487 0 0
-1785z m740 0 l0 -1785 -295 0 -295 0 0 1785 0 1785 295 0 295 0 0 -1785z
m-6690 1615 l0 -70 -95 0 c-95 0 -95 0 -95 25 0 24 -2 25 -75 25 l-75 0 0 45
0 45 170 0 170 0 0 -70z m1830 -10 l0 -80 -205 0 -205 0 0 35 0 35 -130 0
-130 0 0 -36 0 -35 -152 5 c-84 2 -172 8 -195 11 l-43 7 0 69 0 69 530 0 530
0 0 -80z m-670 -149 c0 -4 -11 -6 -25 -3 -14 2 -25 6 -25 8 0 2 11 4 25 4 14
0 25 -4 25 -9z m670 -103 l0 -113 77 -77 78 -78 -240 0 -240 0 -43 71 -42 70
0 120 0 119 205 0 205 0 0 -112z m-642 -805 c-24 -4 -28 -9 -28 -39 l0 -34
-275 0 -275 0 0 35 0 35 -125 0 -125 0 0 -35 0 -35 -275 0 -275 0 0 35 0 35
-130 0 -130 0 0 -35 0 -35 -75 0 -75 0 0 40 0 40 908 -1 c499 -1 895 -4 880
-6z m3399 -115 l53 -52 0 -1033 0 -1033 -22 0 c-15 0 -55 32 -120 97 l-98 98
0 987 0 988 67 0 67 0 53 -52z m-5037 -138 l0 -130 130 0 130 0 0 130 0 130
275 0 275 0 0 -130 0 -130 125 0 125 0 0 130 0 130 275 0 275 0 0 -130 0 -130
25 0 c23 0 25 -3 25 -50 l0 -50 -633 0 c-349 0 -776 -3 -950 -7 l-317 -6 0
109 0 110 45 64 c25 35 45 70 45 77 0 10 20 13 75 13 l75 0 0 -130z m-19060
-840 c0 -140 -4 -220 -10 -220 -6 0 -10 80 -10 220 0 140 4 220 10 220 6 0 10
-80 10 -220z m22070 -1290 l0 -140 -670 0 -670 0 0 110 0 110 238 0 c237 0
238 0 322 29 l85 29 348 1 347 1 0 -140z m3370 -170 l0 -60 -412 0 -412 0 -38
-37 -38 -37 0 -93 0 -93 -300 0 -300 0 0 190 0 190 750 0 750 0 0 -60z m750 0
l0 -60 -210 0 c-203 0 -210 1 -210 20 0 16 -7 20 -35 20 -28 0 -35 -4 -35 -20
0 -16 -7 -20 -35 -20 l-35 0 0 60 0 60 280 0 280 0 0 -60z m-1650 -1242 l0
-92 37 -38 37 -38 543 0 543 0 0 -95 0 -95 -420 0 -420 0 0 -95 0 -95 -930 0
-930 0 0 125 0 125 470 0 470 0 0 195 0 195 300 0 300 0 0 -92z m2130 -263 l0
-95 -450 0 -450 0 0 95 0 95 450 0 450 0 0 -95z"/>
</g>
</svg>
