<?xml version="1.0" standalone="no"?>
<!DOCTYPE svg PUBLIC "-//W3C//DTD SVG 20010904//EN"
 "http://www.w3.org/TR/2001/REC-SVG-20010904/DTD/svg10.dtd">
<svg version="1.0" xmlns="http://www.w3.org/2000/svg"
   viewBox="0 0 4036.000000 3187.000000"
 preserveAspectRatio="xMidYMid meet">
<metadata>
Created by potrace 1.16, written by Peter Selinger 2001-2019
</metadata>
<g transform="translate(0.000000,3187.000000) scale(0.100000,-0.100000)"
fill="#000000" stroke="none">
<path d="M4550 31857 c-223 -5 -406 -10 -408 -12 -2 -1 -56 -126 -122 -276
l-119 -274 -148 4 -148 3 -55 54 -56 54 -520 0 -520 0 -140 -205 c-124 -182
-142 -204 -166 -205 l-28 0 0 129 0 129 -280 162 -280 162 -410 -7 -410 -8 0
-288 0 -289 -370 0 -369 0 4 -77 c3 -43 7 -218 10 -389 4 -278 8 -342 40 -599
l36 -288 117 -150 c112 -145 120 -152 177 -175 33 -13 221 -89 418 -169 l357
-146 0 -179 0 -178 -227 -113 c-126 -62 -292 -143 -370 -180 l-143 -67 0 -233
c0 -129 3 -261 6 -295 l7 -61 378 -217 379 -216 0 -112 0 -111 -374 -215
c-205 -118 -372 -219 -370 -225 3 -10 330 -1743 374 -1985 12 -63 23 -122 26
-131 3 -9 217 -212 477 -450 259 -239 602 -554 760 -701 l288 -268 111 0 111
0 -5 -165 -4 -164 100 -39 c56 -21 484 -184 951 -361 l850 -322 150 -127 c83
-70 155 -127 162 -127 7 0 352 -279 767 -620 l756 -619 -20 -21 -19 -21 172
-148 172 -147 526 5 527 5 11 -42 c18 -66 100 -431 98 -433 -1 -2 -61 -8 -132
-14 -72 -7 -130 -13 -131 -13 0 -1 99 -292 221 -647 l223 -645 53 -13 c30 -6
74 -10 99 -7 l45 5 45 -91 c25 -50 47 -95 48 -100 2 -5 -97 -9 -220 -9 l-225
0 21 -89 c16 -74 17 -92 7 -105 -12 -14 -75 -16 -560 -16 -300 0 -590 -3 -643
-7 l-98 -6 0 -42 0 -42 -527 -7 c-504 -7 -527 -7 -537 11 -6 10 -39 70 -73
134 l-62 116 187 12 c180 11 196 14 415 73 217 58 260 77 210 92 -10 3 -110
31 -223 62 l-205 56 -285 5 c-278 5 -290 4 -495 -25 -174 -25 -407 -43 -1347
-104 -625 -40 -1135 -74 -1134 -75 1 -1 497 -11 1101 -22 961 -18 1127 -23
1315 -42 118 -12 226 -25 239 -29 22 -5 27 -19 53 -125 15 -66 28 -126 28
-132 0 -10 -36 -13 -148 -13 -82 0 -197 -3 -255 -7 -104 -6 -107 -7 -107 -30
0 -13 -6 -23 -14 -23 -18 0 -738 -80 -750 -83 -4 -2 155 -17 355 -35 200 -18
376 -35 392 -38 21 -4 27 -11 27 -30 l0 -25 925 7 925 7 -2 -319 -3 -319 -72
-3 -73 -3 0 -197 0 -197 -147 145 c-82 80 -196 192 -255 249 l-107 104 -285
-73 -286 -74 0 -65 c0 -36 5 -171 10 -300 6 -128 9 -235 7 -238 -2 -2 -155
-13 -338 -23 -184 -11 -347 -22 -364 -25 l-30 -5 3 -144 3 -143 -58 -6 c-32
-3 -532 -32 -1110 -64 l-1053 -57 0 -22 c0 -28 -83 -22 1195 -84 567 -28 1080
-55 1140 -60 61 -5 123 -10 138 -10 l28 0 -3 139 -3 138 40 -4 c22 -2 123 -10
225 -18 155 -12 272 -31 723 -117 l537 -102 0 -177 c0 -97 3 -191 6 -208 l7
-31 152 0 c83 0 227 3 318 7 l167 6 0 89 0 88 70 0 70 0 0 40 0 40 100 0 100
0 0 -40 0 -40 85 0 85 0 0 40 0 40 100 0 100 0 0 -40 0 -40 85 0 85 0 0 40 0
40 105 0 105 0 0 -40 0 -40 85 0 85 0 0 40 0 40 210 0 209 0 11 -40 11 -40 64
0 c69 0 67 2 80 -70 4 -19 11 -52 16 -72 l10 -38 288 0 289 0 19 -72 c11 -40
123 -466 249 -945 l229 -873 287 0 287 0 13 -41 12 -41 65 6 c36 3 128 8 204
12 75 4 137 9 137 11 0 11 -341 1308 -345 1312 -3 2 -37 -5 -77 -17 -40 -11
-73 -20 -73 -19 -4 8 -163 682 -162 684 1 1 124 5 273 10 l270 8 -203 965
c-178 847 -210 1014 -262 1365 -33 220 -62 454 -65 520 -4 66 -9 155 -12 198
l-6 77 80 0 79 0 -4 133 c-3 72 -13 371 -22 662 l-16 530 -97 0 -96 0 -6 165
c-4 91 -8 184 -11 208 -5 50 -15 48 129 19 l109 -23 104 -309 c146 -435 296
-909 993 -3120 l610 -1940 835 -2448 835 -2447 203 -449 202 -449 494 -421
495 -421 562 0 561 0 6 -63 7 -62 -55 -50 c-30 -27 -266 -234 -525 -460 l-470
-410 6 -190 c3 -104 9 -217 13 -250 l6 -60 78 -14 77 -13 0 -344 c0 -337 0
-344 -20 -344 -19 0 -20 -7 -20 -150 l0 -150 24 0 23 0 7 -527 c3 -291 9 -702
13 -915 l6 -387 -74 2 -74 2 -3 -92 -3 -93 81 0 80 0 0 -111 0 -112 -205 7
-205 7 0 -84 c0 -46 -3 -118 -6 -160 l-7 -77 210 0 211 0 6 -172 c7 -218 17
-1079 17 -1513 l0 -331 385 -434 c212 -239 415 -469 451 -511 l66 -77 846 -7
c794 -7 2347 0 2906 14 l250 6 45 420 c43 394 44 420 28 423 -12 2 -18 12 -18
28 0 26 145 1427 155 1501 l6 43 3708 0 3707 0 65 -26 c64 -26 65 -26 440 -31
l376 -6 -4 54 c-3 30 -10 59 -17 65 -6 6 -103 64 -216 130 l-205 119 -3913 3
-3913 3 5 32 c3 18 10 84 16 147 6 63 13 125 16 138 l4 22 544 0 c487 0 544 2
550 16 3 9 6 48 6 88 l0 73 -217 6 c-120 4 -363 7 -540 7 -301 0 -323 1 -323
18 0 36 183 1730 196 1815 l6 37 153 0 c138 0 154 2 158 18 3 9 16 86 28 169
l23 153 1067 0 1068 0 80 -35 79 -35 365 0 365 0 -6 68 c-3 45 -10 71 -21 78
-9 7 -103 75 -208 151 l-193 140 -292 6 c-161 4 -733 7 -1271 7 l-979 0 6 27
c6 29 76 486 76 497 0 3 -77 6 -171 6 l-171 0 5 33 c4 17 22 176 42 352 20
176 38 330 41 343 4 22 6 22 174 22 l170 0 0 155 0 155 -153 0 -153 0 15 134
c11 105 17 133 27 129 11 -4 14 19 14 118 0 112 7 162 74 519 l74 395 16 400
c9 220 16 420 16 444 l0 44 655 -6 654 -7 891 165 c490 90 895 167 899 170 5
2 90 149 191 325 l182 320 1084 0 1084 0 0 -30 c0 -16 19 -70 41 -120 l42 -90
202 0 203 0 42 -55 42 -55 218 0 217 0 6 -117 c4 -65 10 -245 13 -400 l7 -283
149 0 148 0 0 43 c0 39 18 68 248 394 233 332 252 356 322 408 l75 56 479 -3
479 -3 38 90 c37 87 38 94 39 212 l0 123 -51 25 c-47 24 -52 25 -69 10 -16
-15 -26 -14 -131 10 -62 15 -116 28 -120 30 -3 3 -12 17 -18 32 -10 24 -99 71
-633 333 l-622 305 -103 -3 -103 -4 -54 46 c-52 45 -54 46 -125 46 -53 0 -71
3 -71 14 0 8 -106 61 -261 130 l-260 118 -100 -8 -99 -7 0 -123 0 -124 -377
-2 -377 -3 -11 -45 -11 -45 -527 -3 c-353 -1 -527 1 -527 8 0 6 171 310 381
676 209 367 383 673 386 680 4 11 -530 1065 -713 1406 l-51 97 226 54 c124 30
560 135 968 232 l741 178 229 321 c126 177 817 1145 1535 2151 l1306 1830 16
1195 c27 1946 36 2682 36 2911 0 208 -1 216 -21 225 -18 8 25 45 333 292 l353
282 947 0 946 0 93 170 94 170 320 2 320 3 19 118 19 117 436 0 437 0 123
-180 122 -181 437 3 437 3 178 69 177 69 0 198 c0 198 0 199 23 203 12 3 805
77 1762 165 957 89 1758 164 1780 169 l40 7 3 56 3 56 136 6 c75 4 165 7 200
7 l63 0 0 110 0 110 -200 0 -200 0 0 75 c0 69 -2 75 -22 79 -13 3 -799 61
-1748 131 -949 69 -1749 128 -1777 131 l-53 6 0 77 0 77 -166 68 c-92 38 -175
71 -185 73 -18 5 -19 22 -19 340 l0 334 108 -7 c59 -3 484 -27 945 -53 l837
-47 0 68 c0 76 10 84 59 49 25 -18 123 -26 1219 -92 655 -40 1195 -70 1199
-66 3 4 4 9 2 11 -2 2 -539 57 -1194 123 -1046 105 -1194 118 -1222 106 -61
-25 -63 -22 -63 72 0 61 -3 85 -12 85 -33 0 -1779 111 -1825 116 l-53 5 0 75
0 74 -467 -2 -468 -3 -3 -42 c-2 -31 -8 -43 -19 -43 -26 0 -9291 579 -9375
586 l-76 6 -7 113 c-5 81 -3 146 9 236 29 220 18 195 89 208 177 33 161 26
201 90 l36 59 -55 281 c-30 155 -57 286 -60 291 -4 6 -56 36 -117 66 l-111 56
-1110 7 -1110 8 -306 -72 -306 -71 -3 -222 c-1 -122 1 -222 6 -222 7 0 509
-108 580 -125 21 -5 22 -11 22 -85 l0 -80 -33 0 c-25 0 -88 -36 -275 -156
-209 -135 -244 -161 -249 -186 -4 -20 -10 -27 -22 -24 -9 3 -988 278 -2176
610 -1855 520 -3122 879 -3131 888 -2 3 -24 843 -24 947 l0 64 -225 -6 -225
-6 0 93 c0 51 -3 148 -7 214 l-6 122 -1127 0 -1127 0 -5 70 c-3 39 -7 72 -9
74 -2 2 -141 22 -309 44 l-305 42 -2840 15 c-1562 8 -2971 16 -3131 18 l-292
2 -6 -50 c-3 -27 -6 -89 -6 -137 l0 -88 -58 0 -57 0 -74 94 -75 94 -90 6 c-50
3 -190 8 -311 12 -121 3 -221 9 -223 12 -1 4 -69 147 -151 317 l-148 310 -519
11 c-608 14 -997 14 -1554 1z m25718 -4642 c2550 -145 4672 -267 4715 -271
l77 -6 0 -379 0 -379 -79 -142 -79 -143 -466 -3 -466 -2 0 77 c0 43 -3 149 -7
236 l-6 157 -316 0 -317 0 -73 183 c-41 100 -77 185 -80 189 -3 4 -1030 -4
-2281 -18 l-2275 -26 -1450 317 c-797 174 -1480 323 -1517 331 l-68 16 0 64
c0 62 1 64 26 64 14 0 2112 -119 4662 -265z m-15729 -10022 c293 -561 472
-924 945 -1912 l584 -1219 114 -2084 c63 -1145 113 -2085 111 -2087 -4 -5 -93
-4 -98 1 -11 11 -1367 5088 -1485 5560 -104 414 -528 2229 -586 2508 -9 41 35
-40 415 -767z m-6558 219 c10 -50 17 -100 17 -110 -2 -22 41 -152 50 -152 4 0
97 7 207 15 110 8 214 15 231 15 l31 0 36 -168 c21 -92 37 -173 37 -180 0 -8
-17 -12 -45 -12 l-45 0 0 -50 0 -50 -95 0 -95 0 0 50 0 50 -85 0 -85 0 0 -50
0 -50 -105 0 -105 0 0 50 0 50 -80 0 -80 0 0 -50 0 -50 -100 0 -100 0 0 50 0
50 -85 0 -85 0 0 -50 0 -50 -100 0 -100 0 0 50 0 50 -80 0 -79 0 -3 83 -3 82
-77 -2 -78 -3 0 265 0 265 542 -2 541 -3 18 -93z"/>
</g>
</svg>
