<?xml version="1.0" standalone="no"?>
<!DOCTYPE svg PUBLIC "-//W3C//DTD SVG 20010904//EN"
 "http://www.w3.org/TR/2001/REC-SVG-20010904/DTD/svg10.dtd">
<svg version="1.0" xmlns="http://www.w3.org/2000/svg"
   viewBox="0 0 4623.000000 1140.000000"
 preserveAspectRatio="xMidYMid meet">
<metadata>
Created by potrace 1.16, written by Peter Selinger 2001-2019
</metadata>
<g transform="translate(0.000000,1140.000000) scale(0.100000,-0.100000)"
fill="#000000" stroke="none">
<path d="M13490 11341 c0 -95 6 -91 -141 -91 l-129 0 0 -50 0 -50 -164 0 -163
0 -62 -163 c-54 -145 -61 -172 -61 -235 l0 -72 -1345 0 c-1069 0 -1345 3
-1345 13 0 6 -5 29 -11 50 l-10 37 -1499 0 -1500 0 0 -225 0 -225 -74 0 c-108
0 -106 2 -106 -96 l0 -84 -1185 0 c-783 0 -1185 -3 -1185 -10 0 -6 -87 -10
-240 -10 l-240 0 0 -70 0 -70 -155 0 c-148 0 -155 -1 -155 -20 0 -19 -7 -20
-255 -20 l-255 0 0 -43 0 -44 -137 -6 c-76 -3 -799 -25 -1608 -49 -808 -23
-1447 -46 -1420 -50 28 -4 751 -35 1607 -70 l1557 -62 3 -41 3 -40 252 -30
253 -29 0 -98 0 -98 45 0 45 0 0 -55 0 -55 110 0 110 0 0 -59 0 -58 -77 -6
c-43 -4 -662 -28 -1376 -54 -713 -26 -1294 -49 -1290 -50 7 -2 2683 -103 2729
-103 12 0 14 -109 14 -695 0 -382 1 -695 3 -695 9 -2 1290 -29 1365 -30 l92 0
0 -178 0 -178 113 -18 c61 -10 133 -22 160 -28 l47 -10 0 -44 0 -45 108 5 c59
3 185 8 280 11 l172 6 0 -25 0 -26 -185 0 -185 0 0 -1005 0 -1005 312 0 312 0
1194 746 c658 410 1205 752 1216 759 20 13 26 2 181 -321 120 -252 164 -334
177 -334 17 0 18 -36 18 -664 l0 -663 63 -7 c102 -11 539 -66 574 -72 35 -7
33 -3 54 -126 l11 -68 467 0 466 0 20 -37 c20 -37 23 -38 179 -85 l160 -47
158 47 c156 46 160 47 180 84 l22 38 696 0 696 0 28 -49 29 -49 159 -47 158
-47 158 47 159 47 29 49 28 49 253 0 253 0 0 125 0 125 695 0 695 0 0 270 0
270 268 2 267 3 10 70 10 70 426 3 427 2 6 -67 c4 -38 10 -83 13 -100 l5 -33
904 0 904 0 6 25 6 25 174 0 c204 0 180 25 190 -192 l6 -148 149 0 149 0 0
-60 0 -60 345 0 345 0 0 -369 0 -370 53 -15 c28 -8 205 -55 393 -105 l341 -91
612 0 c336 0 611 -1 611 -2 0 -2 27 -195 60 -431 33 -235 60 -434 60 -442 0
-13 158 -15 1318 -15 l1318 0 499 -1020 c496 -1011 500 -1020 533 -1026 18 -4
35 -4 38 -2 2 3 93 465 202 1027 l197 1021 90 0 90 -1 525 -1114 524 -1114 38
-9 c21 -6 38 -7 38 -3 0 3 93 509 207 1124 192 1034 209 1118 226 1115 15 -2
50 -72 148 -293 71 -159 132 -298 135 -307 5 -16 -3 -18 -83 -18 l-89 0 -22
-92 -23 -92 36 -36 35 -36 0 -222 0 -222 54 0 c58 0 48 8 164 -139 10 -13 40
-17 162 -21 82 -3 154 -10 159 -15 5 -6 118 -257 252 -559 235 -530 244 -549
277 -563 19 -8 36 -12 39 -9 2 2 33 167 68 366 35 199 65 363 67 365 1 2 302
-16 668 -41 l665 -43 623 -1 622 0 0 105 0 105 4388 0 4387 0 131 128 c72 70
151 150 175 179 l44 52 2275 36 c1251 19 2323 35 2383 35 l107 0 0 44 0 44
-152 6 c-151 6 -4300 77 -4470 76 l-88 0 0 115 0 114 -72 3 -72 3 -73 94 -73
93 -504 245 -504 245 -6 36 c-3 21 -6 112 -6 205 l0 167 25 12 c14 6 25 17 25
25 0 9 14 13 48 13 26 0 1336 27 2912 60 1576 33 2898 60 2938 60 64 0 72 2
72 19 0 17 -11 19 -142 25 -79 3 -1376 36 -2883 71 -1507 36 -2786 68 -2842
71 l-103 6 0 26 c-1 24 -30 47 -235 187 l-235 160 223 5 222 5 515 197 c283
108 523 200 533 203 16 7 17 30 17 291 l0 283 -125 448 c-69 246 -125 453
-125 458 0 7 443 20 1358 38 746 16 1366 29 1377 30 11 1 -608 15 -1375 31
-767 16 -1396 29 -1397 30 -1 1 -56 195 -122 431 -150 538 -396 1361 -415
1389 -7 12 -227 143 -487 292 -570 326 -517 298 -534 284 -10 -8 -109 42 -440
225 l-428 237 -66 -66 -66 -65 -1002 542 -1001 542 45 83 c38 70 43 86 32 96
-8 7 -407 229 -886 494 l-873 482 -75 0 c-65 0 -75 2 -75 18 0 14 -72 34 -472
130 l-473 112 -442 0 -443 0 0 190 0 190 -1365 0 -1365 0 0 30 0 30 -1715 0
-1715 0 -11 -45 -11 -45 -1641 -2 -1640 -3 -73 -175 -73 -175 -1 -172 0 -173
-715 0 -715 0 0 130 0 130 -82 41 c-46 23 -84 43 -86 44 -2 1 -20 90 -40 196
l-38 194 -1507 3 -1507 2 0 84 c0 46 -3 98 -6 115 l-6 31 -399 0 -398 0 -3
-112 -3 -113 -272 -3 -273 -2 0 80 0 80 -315 0 -315 0 0 40 0 40 -450 0 -450
0 0 -40 0 -40 -390 0 -390 0 0 -30 0 -30 -190 0 -190 0 0 75 0 75 -475 0 -475
0 0 -59z m7690 -3286 l0 -545 -99 0 -99 0 -53 -65 -52 -65 -2654 0 -2653 0 0
275 0 275 805 0 805 0 0 45 0 45 1079 0 c1020 0 1080 1 1085 18 5 17 116 550
116 558 0 2 387 4 860 4 l860 0 0 -545z m-626 -1067 c-5 -7 -39 -50 -76 -96
l-68 -83 0 -80 0 -79 -2905 0 -2905 0 0 48 0 49 483 59 482 59 3 68 3 67 2495
0 c1994 0 2494 -3 2488 -12z m-278 -710 c-3 -13 -8 -94 -12 -180 l-6 -158
-725 0 c-716 0 -725 0 -730 20 -5 20 -14 20 -788 20 l-783 0 -5 -32 c-4 -18
-9 -61 -13 -96 l-7 -62 -426 2 -426 3 -9 68 -9 67 -802 0 -802 0 -7 63 c-4 34
-10 79 -13 100 l-6 37 -53 0 -54 0 0 85 0 85 2840 0 2840 0 -4 -22z"/>
</g>
</svg>
