<?xml version="1.0" standalone="no"?>
<!DOCTYPE svg PUBLIC "-//W3C//DTD SVG 20010904//EN"
 "http://www.w3.org/TR/2001/REC-SVG-20010904/DTD/svg10.dtd">
<svg version="1.0" xmlns="http://www.w3.org/2000/svg"
   viewBox="0 0 4552.000000 3116.000000"
 preserveAspectRatio="xMidYMid meet">
<metadata>
Created by potrace 1.16, written by Peter Selinger 2001-2019
</metadata>
<g transform="translate(0.000000,3116.000000) scale(0.100000,-0.100000)"
fill="#000000" stroke="none">
<path d="M7933 31079 c-124 -43 -228 -81 -232 -86 -3 -6 -22 -34 -41 -64 l-35
-53 -15 -286 -15 -285 -81 -60 -80 -60 -12 -160 c-7 -88 -17 -241 -23 -340 -6
-99 -12 -181 -13 -181 0 -1 -680 -83 -1511 -183 -830 -100 -1521 -184 -1535
-187 -14 -2 -45 -21 -68 -42 -42 -37 -44 -42 -203 -495 l-160 -458 21 -62 20
-62 430 -235 c312 -171 430 -240 430 -252 0 -10 -3 -18 -6 -18 -15 0 -1162
-262 -1179 -269 -13 -6 -44 -60 -86 -152 l-66 -144 -98 -470 c-54 -258 -103
-473 -109 -477 -6 -4 -216 -8 -467 -8 l-456 0 -131 -141 -130 -141 -7 -73 c-7
-69 -9 -74 -34 -79 -14 -3 -165 -29 -336 -57 -341 -56 -346 -58 -366 -131 -9
-36 -28 -334 -29 -460 l0 -58 -312 0 -313 0 -342 -628 c-189 -346 -343 -634
-343 -640 0 -6 41 -80 90 -164 86 -146 92 -153 128 -160 20 -4 452 -7 960 -7
l923 -1 54 -51 c30 -28 56 -62 59 -77 3 -15 8 -46 11 -69 6 -40 10 -44 98 -96
51 -30 119 -68 152 -85 47 -23 98 -69 233 -205 l172 -174 0 -217 c0 -207 1
-218 22 -246 l22 -30 -43 -81 -43 -81 8 -156 9 -157 145 -22 c242 -37 228 -26
119 -86 l-94 -52 -21 -206 c-20 -188 -26 -219 -73 -363 l-50 -158 11 -177 c12
-191 11 -188 80 -243 35 -27 70 -36 445 -112 l408 -82 110 12 c61 7 118 13
128 13 16 1 17 -22 17 -344 l0 -345 585 0 585 0 0 -257 0 -258 247 -183 248
-182 417 0 418 0 0 -194 c0 -177 2 -195 18 -199 9 -3 61 -16 115 -28 l97 -23
0 -88 0 -88 190 0 190 0 0 85 0 85 1065 0 1065 0 0 225 c0 143 4 225 10 225 6
0 10 -110 10 -310 l0 -310 175 0 175 0 0 84 0 85 43 5 c23 3 429 17 902 31
473 14 912 28 975 31 l115 6 48 64 47 64 343 0 c275 1 8376 67 8385 69 1 1 2
25 2 55 l0 54 -152 6 c-84 3 -2027 19 -4318 36 -2291 17 -4188 33 -4216 36
-48 5 -53 8 -95 63 l-44 59 -80 6 c-44 3 -192 8 -330 11 -137 3 -269 8 -293
11 l-42 5 139 102 140 102 0 178 1 177 116 0 115 0 220 96 219 97 0 392 0 392
3098 6 c3401 8 6622 9 6622 3 0 -2 32 -157 70 -345 39 -188 70 -344 70 -347 0
-2 936 -4 2080 -4 l2080 0 -2 -271 -3 -271 -160 -62 -160 -62 -3 -256 -2 -257
-43 -5 c-44 -6 -654 -56 -681 -56 -14 0 -16 -50 -16 -485 0 -325 -3 -485 -10
-485 -6 0 -212 -29 -458 -65 l-447 -66 -427 -121 -427 -122 -16 -43 c-17 -43
-17 -43 -68 -43 -29 0 -162 -7 -297 -15 l-245 -14 -381 -94 -381 -93 -38 -43
-39 -42 0 -820 -1 -820 45 -43 45 -43 380 -92 379 -93 246 -14 c135 -7 266
-14 292 -14 45 0 46 -1 64 -44 l18 -43 426 -121 425 -121 450 -65 c248 -37
453 -66 458 -66 4 0 7 -76 7 -169 l0 -169 43 -5 c23 -4 690 -56 1482 -118
l1440 -112 170 -168 170 -169 1638 0 1637 0 0 -149 0 -149 58 -10 c31 -5 495
-79 1029 -163 l973 -154 0 -376 0 -376 63 -23 c34 -12 86 -31 115 -42 l52 -19
0 -164 0 -163 -37 -6 c-21 -3 -238 -26 -483 -52 l-445 -46 -361 -111 -360
-112 -35 -84 -34 -84 -253 -87 c-138 -48 -255 -89 -258 -92 -3 -4 -16 -52 -29
-108 -13 -57 -27 -106 -32 -111 -4 -4 -179 -73 -388 -152 -209 -80 -397 -152
-417 -160 -21 -9 -253 -167 -516 -351 l-479 -336 -494 0 -494 0 -307 -261
-308 -261 1 -386 0 -387 472 -332 472 -332 530 -1 530 0 35 -67 c19 -37 36
-70 38 -74 2 -4 -14 -11 -35 -14 -60 -10 -71 -15 -101 -40 l-28 -23 -835 -27
c-772 -25 -835 -28 -850 -45 -15 -17 -85 -18 -1500 -24 -816 -4 -1517 -9
-1556 -12 -54 -4 -73 -9 -73 -20 0 -12 90 -14 603 -15 331 -1 1030 -4 1553 -8
879 -6 953 -7 971 -23 17 -15 103 -20 853 -44 l835 -26 27 -26 c25 -23 70 -32
545 -115 l518 -91 1029 -5 1030 -6 155 -922 156 -922 177 -67 178 -66 2 -356
3 -355 348 -205 347 -205 0 -339 0 -338 -105 0 -105 0 0 -128 0 -129 -397 -7
c-1017 -16 -1053 -18 -1053 -36 0 -16 38 -17 493 -24 270 -3 597 -9 725 -13
230 -6 232 -6 232 -28 0 -20 10 -24 105 -45 l105 -23 0 -289 0 -288 -105 0
-105 0 0 -168 0 -169 -282 -6 c-156 -4 -482 -10 -725 -14 -412 -6 -443 -7
-443 -24 0 -22 72 -25 894 -39 l610 -10 70 -39 c53 -29 103 -71 195 -165 l125
-126 708 0 708 0 0 -572 1 -573 84 -90 84 -90 121 120 c111 110 171 188 743
967 l622 847 557 997 556 997 119 47 118 46 482 960 481 959 411 1067 411
1066 -154 261 -154 261 89 402 c48 222 91 413 94 426 l5 22 279 0 278 0 255
124 255 124 43 202 44 202 86 39 85 40 163 772 c90 425 167 773 170 775 4 1
52 28 106 60 l99 57 43 190 c31 143 58 320 109 715 64 504 66 525 48 538 -10
7 -78 43 -150 80 -117 59 -133 70 -133 92 0 36 38 329 45 339 2 5 86 55 184
111 99 56 184 107 189 113 16 22 153 1152 159 1315 l6 153 86 -6 c47 -3 405
-24 795 -45 l708 -40 69 58 c38 31 69 64 69 72 0 8 61 487 134 1065 74 577
132 1053 130 1057 -3 4 -41 26 -85 50 -77 41 -80 44 -75 73 3 17 13 95 22 174
l18 144 90 -7 c88 -6 93 -5 142 23 l51 30 6 73 c4 40 9 180 13 312 l7 238 45
27 c24 14 54 33 65 42 19 15 21 48 58 995 21 538 38 1013 39 1055 l0 75 -45
22 -45 22 0 235 0 235 -62 31 -62 32 -654 27 c-359 15 -654 29 -656 31 -3 2
-45 60 -95 129 -73 99 -88 126 -74 128 10 2 86 13 169 25 l152 22 -150 170
c-82 93 -165 187 -184 208 -34 37 -35 38 -148 50 l-113 12 -93 125 c-51 69
-97 130 -101 136 -6 8 20 23 81 49 l89 38 -252 180 -252 181 -2489 1047
c-1369 577 -2489 1049 -2490 1051 -2 2 -31 49 -65 106 -35 56 -70 106 -80 111
-9 5 -1222 468 -2696 1029 l-2680 1021 -1965 566 -1965 566 -80 85 -80 84
-1895 556 -1895 555 -2215 490 c-1218 270 -2228 493 -2245 496 -28 4 -35 -2
-103 -86 -41 -50 -78 -91 -83 -91 -17 0 -254 51 -274 59 -13 6 -29 32 -44 74
-13 39 -30 68 -39 71 -10 2 -50 12 -90 21 l-74 18 -56 -56 -57 -56 -171 36
-171 36 -29 71 -29 71 -92 21 -93 21 -46 -53 c-25 -30 -53 -54 -62 -54 -29 0
-317 63 -329 72 -6 5 -14 30 -18 56 -3 27 -10 54 -14 61 -7 11 -181 57 -185
49 -1 -2 -19 -25 -41 -53 -21 -27 -40 -51 -41 -53 -2 -3 -232 43 -264 53 -10
3 -92 -58 -214 -160 -109 -91 -204 -165 -211 -165 -8 0 -107 20 -222 45 -180
40 -209 44 -218 31 -6 -8 -69 -109 -140 -224 l-129 -209 -261 -7 -260 -6
-3983 383 -3983 383 -226 -77z"/>
</g>
</svg>
