<?xml version="1.0" standalone="no"?>
<!DOCTYPE svg PUBLIC "-//W3C//DTD SVG 20010904//EN"
 "http://www.w3.org/TR/2001/REC-SVG-20010904/DTD/svg10.dtd">
<svg version="1.0" xmlns="http://www.w3.org/2000/svg"
   viewBox="0 0 3932.000000 678.000000"
 preserveAspectRatio="xMidYMid meet">
<metadata>
Created by potrace 1.16, written by Peter Selinger 2001-2019
</metadata>
<g transform="translate(0.000000,678.000000) scale(0.100000,-0.100000)"
fill="#000000" stroke="none">
<path d="M5350 6495 l0 -285 -80 0 -80 0 0 58 c0 31 -3 108 -7 170 l-6 112
-1317 0 -1317 0 -6 -67 c-4 -38 -7 -152 -7 -254 l0 -186 -154 -11 -154 -11
-548 -229 -549 -230 -3 74 c-3 71 -4 74 -25 69 -12 -3 -236 -46 -497 -95 -311
-60 -479 -96 -486 -105 -16 -21 -24 -286 -24 -778 0 -372 2 -437 17 -483 18
-60 28 -64 144 -64 l69 0 0 -188 c0 -104 -3 -244 -7 -310 l-6 -122 -73 0 -73
0 -9 -37 c-5 -21 -37 -164 -71 -318 l-61 -280 -5 -270 c-3 -148 -7 -343 -10
-431 l-5 -162 233 -6 c127 -3 382 -8 565 -11 l332 -6 0 85 0 86 224 0 c195 0
225 -2 230 -16 3 -9 7 -73 7 -142 1 -70 4 -180 8 -245 l6 -118 295 -134 c162
-73 301 -138 309 -143 11 -6 -16 -31 -110 -101 -68 -52 -132 -102 -141 -113
-16 -18 -18 -49 -18 -327 l0 -308 23 -21 c21 -20 34 -22 145 -22 l122 0 0
-260 0 -260 1655 0 1655 0 0 319 c0 176 3 327 6 335 6 15 62 16 640 10 l634
-7 1 104 c0 57 1 703 2 1436 1 732 4 1334 7 1336 3 3 224 8 493 12 l487 8 0
113 0 114 2249 0 2249 0 25 -107 c14 -60 37 -163 53 -230 l28 -123 307 0 307
0 40 -92 c23 -51 50 -114 61 -140 l20 -48 53 0 c29 0 171 7 316 15 145 9 267
13 272 10 4 -3 18 -29 30 -57 21 -49 42 -69 276 -260 215 -177 259 -208 286
-208 18 0 329 31 692 69 l658 69 117 115 116 116 1090 -209 c600 -115 1093
-210 1098 -210 4 0 7 -83 7 -185 l0 -184 -47 -14 c-27 -8 -81 -22 -120 -32
l-73 -19 0 -332 0 -333 128 -89 127 -89 168 -38 c134 -31 167 -42 167 -55 0
-15 -21 -18 -172 -24 -95 -4 -380 -18 -633 -31 -253 -14 -472 -25 -487 -25
-17 0 -28 -5 -28 -14 0 -10 21 -16 78 -20 68 -6 647 -36 962 -51 63 -3 152 -8
198 -11 l82 -6 0 -69 0 -69 1410 0 1410 0 0 50 0 50 145 0 c122 0 145 -2 145
-15 0 -12 18 -15 105 -15 l105 0 0 88 c0 48 3 117 7 155 l6 67 -112 0 c-104 0
-111 -1 -111 -20 0 -19 -7 -20 -145 -20 l-145 0 0 135 0 135 -90 0 -90 0 0
558 0 558 75 19 75 18 2 315 3 316 65 26 65 26 3 247 2 247 67 0 c66 0 68 1
184 75 64 41 119 75 123 75 4 0 161 -86 349 -192 188 -106 850 -474 1472 -820
l1129 -627 36 61 c19 33 39 61 44 61 4 0 77 -43 161 -97 l152 -97 6 -151 c11
-249 9 -320 -9 -347 -15 -21 -16 -54 -10 -315 7 -269 9 -294 29 -329 l21 -37
102 0 102 0 22 37 c22 38 22 40 15 323 -5 215 -11 292 -21 312 -11 22 -14 65
-12 188 l3 159 126 -81 c123 -78 127 -81 119 -108 l-8 -28 111 -7 c62 -4 848
-5 1748 -3 l1636 3 7 -110 c3 -60 6 -183 6 -272 l0 -163 25 0 c24 0 25 -3 25
-60 l0 -59 118 5 c252 10 909 24 1135 24 l237 0 0 -215 0 -214 33 -6 c30 -5
854 -95 870 -95 4 0 24 -36 44 -80 l36 -80 2018 0 2019 0 0 300 0 300 53 0
c84 0 553 19 660 26 l99 6 -7 108 -7 107 47 6 c26 4 90 7 141 7 71 0 95 3 101
14 7 13 108 16 663 21 653 6 810 11 760 25 -14 4 -338 10 -720 14 -592 6 -696
9 -703 21 -6 11 -29 15 -95 15 -48 0 -111 3 -139 6 l-53 7 0 74 c0 50 4 75 13
78 6 2 288 10 626 18 515 12 615 17 622 29 5 8 16 25 26 36 l18 22 745 10
c410 5 748 10 753 10 4 0 7 50 7 110 l0 110 -900 0 -900 0 0 54 0 53 208 7
c114 3 519 9 900 12 648 6 692 8 692 24 0 16 -40 18 -617 24 -340 3 -745 9
-900 12 l-283 7 0 33 0 34 -505 0 -505 0 0 63 c0 60 -2 65 -40 102 l-40 39 0
288 0 288 -77 1 c-43 1 -172 4 -286 8 l-208 6 -67 74 -67 73 -350 -3 c-193 -1
-695 1 -1116 6 l-766 8 -20 56 -20 56 -345 3 -345 2 -22 -60 -22 -60 -776 -2
-777 -3 -59 -112 -59 -113 -234 0 -234 0 0 -25 c0 -20 -5 -25 -24 -25 -13 0
-27 -7 -30 -16 -3 -9 -6 -88 -6 -176 l0 -161 -212 6 c-116 4 -478 7 -805 7
l-593 0 0 85 0 85 -1394 0 -1393 0 -1203 703 -1202 702 704 3 703 3 43 64 42
65 470 0 470 0 0 44 0 44 103 6 c56 3 199 9 317 12 118 4 218 11 221 16 3 5
378 13 890 18 486 5 885 10 887 10 1 0 2 13 2 28 l0 29 -112 6 c-62 4 -287 7
-499 7 -677 0 -1169 11 -1169 27 0 7 -1 13 -2 14 -2 0 -239 9 -528 19 l-525
19 -34 -20 c-34 -20 -45 -20 -279 -13 l-244 7 -24 37 -25 37 -1032 6 c-568 4
-1052 10 -1077 15 -31 6 -76 31 -146 80 l-101 72 -89 0 c-84 0 -92 2 -147 35
-45 27 -69 35 -106 35 l-47 0 -296 323 c-163 177 -304 330 -315 339 -23 21
-1029 188 -1133 188 l-65 0 -435 295 -435 294 -252 1 -253 0 0 40 0 40 -410 0
-410 0 -1 -32 c-1 -25 -3 -21 -9 17 -4 28 -13 69 -19 93 l-12 42 -383 0 -384
0 -30 -72 c-27 -64 -29 -76 -18 -103 l13 -30 -246 -128 -245 -128 -96 96 -95
95 -58 0 c-50 0 -57 2 -57 20 0 20 -7 20 -995 20 -657 0 -995 3 -995 10 0 7
-323 10 -950 10 l-950 0 0 -42 0 -41 -107 6 c-58 4 -130 7 -160 7 l-53 0 0
155 0 155 -45 0 c-25 0 -45 -4 -45 -10 0 -7 -163 -10 -470 -10 -307 0 -470 3
-470 10 0 6 -28 10 -65 10 l-65 0 0 -155 0 -155 -2475 0 -2475 0 0 290 0 290
-535 0 -535 0 0 -285z m4483 -622 c1482 -6 1537 -7 1537 -25 0 -15 8 -18 49
-18 27 0 56 -3 64 -6 11 -4 16 2 19 17 2 18 18 0 73 -85 l70 -108 200 6 c110
3 257 6 326 6 l127 0 68 107 c65 102 68 105 77 80 7 -23 14 -27 48 -27 37 0
39 2 39 31 0 28 3 31 23 25 12 -3 66 -6 120 -6 l97 0 0 -220 0 -220 -220 -270
c-121 -149 -220 -277 -220 -285 0 -13 -111 -15 -910 -15 l-910 0 0 -162 c0
-90 -3 -220 -7 -290 l-6 -128 -1344 0 -1343 0 0 110 0 110 -488 0 -489 0 -6
143 c-4 78 -7 324 -7 547 0 223 -3 449 -7 503 l-6 97 -199 0 -198 0 0 23 c0
12 3 32 6 45 l6 22 937 0 c515 0 1628 -3 2474 -7z m7147 -98 l0 -75 -90 0 -90
0 0 75 0 75 90 0 90 0 0 -75z m6015 -2211 c596 -382 645 -414 555 -365 -291
156 -1288 720 -1283 725 3 3 40 6 82 6 l76 0 570 -366z"/>
</g>
</svg>
