<?xml version="1.0" standalone="no"?>
<!DOCTYPE svg PUBLIC "-//W3C//DTD SVG 20010904//EN"
 "http://www.w3.org/TR/2001/REC-SVG-20010904/DTD/svg10.dtd">
<svg version="1.0" xmlns="http://www.w3.org/2000/svg"
   viewBox="0 0 4479.000000 2143.000000"
 preserveAspectRatio="xMidYMid meet">
<metadata>
Created by potrace 1.16, written by Peter Selinger 2001-2019
</metadata>
<g transform="translate(0.000000,2143.000000) scale(0.100000,-0.100000)"
fill="#000000" stroke="none">
<path d="M6183 21388 c-5 -24 -25 -116 -44 -205 l-34 -163 -223 0 -224 0 -101
95 -102 95 -454 0 -454 0 -102 -95 -103 -95 -279 0 -278 0 -237 -373 -237
-372 -1198 -104 c-659 -57 -1213 -106 -1231 -110 -31 -6 -40 -20 -227 -366
-161 -299 -191 -361 -177 -366 9 -3 127 -16 262 -29 l246 -24 141 -212 142
-212 93 -7 c51 -4 592 -42 1203 -84 l1110 -76 39 -67 38 -68 279 0 c154 0 279
-3 279 -6 0 -8 97 -517 105 -551 5 -23 8 -23 155 -23 l150 0 0 -179 0 -179
-152 -6 c-84 -3 -461 -13 -838 -22 l-685 -15 -150 -29 -150 -29 -1223 -16
c-673 -8 -1290 -15 -1372 -15 l-150 0 0 -49 0 -48 243 -7 c133 -3 746 -11
1362 -17 l1120 -11 150 -30 150 -30 735 -18 c404 -11 785 -19 847 -20 l112 0
3 -110 3 -110 1850 -1490 1850 -1490 153 0 152 0 0 -249 c0 -149 4 -252 10
-256 5 -3 314 -48 687 -99 373 -52 694 -100 714 -108 23 -8 292 -232 699 -582
l663 -569 -6 -167 -6 -167 378 -414 379 -414 -46 -64 -46 -65 168 -162 168
-163 -12 -36 c-11 -33 -10 -39 9 -59 12 -12 21 -26 21 -32 0 -5 -20 -62 -45
-127 l-44 -117 284 -508 285 -508 0 -123 0 -123 218 -274 217 -273 1475 -2
c811 -1 1574 -4 1695 -8 l220 -6 72 -147 73 -147 47 -6 c27 -4 53 -8 60 -10 7
-2 42 -66 78 -143 l66 -138 289 -34 288 -33 112 104 c79 73 118 103 133 102
12 -1 360 -51 772 -110 l750 -108 489 -5 489 -5 221 -362 221 -363 115 0 115
0 -3 -1373 -2 -1373 23 -22 c22 -21 91 -30 1041 -137 1003 -113 1020 -115
1249 -115 158 -1 241 -5 260 -13 23 -10 76 -96 291 -475 194 -343 270 -469
292 -482 21 -13 194 -47 607 -117 l577 -98 0 -285 0 -286 38 -37 38 -37 1397
0 1397 0 0 -30 0 -30 -137 0 c-76 0 -860 -9 -1743 -20 -883 -11 -1707 -20
-1832 -20 l-228 0 0 -24 0 -24 173 -6 c94 -3 813 -12 1597 -21 784 -8 1593
-18 1798 -22 l372 -6 0 -187 0 -188 53 -6 c28 -3 117 -8 197 -11 80 -3 155 -8
168 -11 l22 -4 0 -528 0 -527 93 -102 92 -102 83 0 82 -1 0 -29 c0 -16 7 -34
15 -41 8 -7 15 -19 15 -26 0 -8 5 -14 11 -14 6 0 46 -31 89 -70 l78 -70 453 0
454 0 77 70 c65 59 82 70 112 70 l36 0 0 55 0 55 215 0 215 0 0 -55 0 -55 225
0 225 0 0 55 0 55 193 1 192 0 92 102 93 102 0 117 0 117 72 -25 72 -24 623 0
623 0 0 -54 0 -54 163 -200 c143 -176 166 -200 197 -206 46 -8 559 -8 599 0
23 5 44 22 74 60 l42 53 615 1 615 1 52 -58 52 -58 294 -3 c162 -2 310 1 328
6 28 7 63 44 197 206 l162 198 0 54 0 54 983 0 983 0 127 92 127 92 0 524 c0
415 3 523 13 520 6 -3 90 -25 184 -49 l173 -44 0 -232 c0 -215 1 -233 18 -232
52 1 333 47 341 55 8 9 203 439 256 567 27 64 31 68 55 63 15 -2 83 -10 151
-17 103 -10 168 -10 384 3 l260 16 775 402 c683 354 781 407 828 453 l52 51 0
167 0 166 747 7 c411 3 749 9 752 11 2 3 2 7 0 9 -2 2 -340 7 -751 11 -819 8
-780 5 -719 65 l29 29 721 7 c396 4 721 11 721 16 0 9 35 8 -787 17 -342 3
-625 9 -629 14 -4 4 1 26 13 50 19 39 19 44 5 74 -9 18 -13 36 -10 39 4 3 503
16 1110 29 607 13 1104 24 1106 24 1 1 2 12 2 26 l0 25 -107 1 c-60 0 -592 10
-1183 23 l-1075 23 -72 36 -73 37 -229 0 c-126 0 -236 3 -245 6 -12 4 -16 20
-16 55 l0 49 -170 0 -170 0 0 -50 0 -50 -68 0 c-38 0 -123 -3 -190 -6 l-121
-7 -32 -43 -33 -44 -80 0 c-73 0 -82 2 -108 27 l-27 26 -363 -43 c-224 -26
-369 -47 -378 -55 -13 -11 -111 30 -615 255 l-600 269 -453 3 -454 3 -35 40
c-20 22 -58 64 -85 92 l-49 53 -202 25 c-111 14 -204 30 -207 35 -3 5 -88 346
-189 757 l-184 748 -110 142 c-98 128 -113 142 -146 147 -20 3 -187 24 -371
46 -184 22 -350 43 -367 46 l-33 5 0 163 0 163 458 6 c251 4 787 10 1190 13
402 4 732 11 732 15 0 4 -15 10 -32 13 -18 3 -404 8 -858 11 -454 3 -978 8
-1165 12 l-341 6 -43 56 -43 56 69 6 c37 4 121 7 186 8 108 1 117 3 117 20 0
18 -13 19 -214 26 l-213 7 -37 49 -36 48 -246 81 -247 80 -352 0 -352 0 -367
180 -367 180 -162 0 -162 0 -70 82 c-39 45 -91 102 -116 127 -25 25 -205 224
-399 441 -195 217 -426 475 -514 573 l-160 177 -1036 0 -1035 0 -84 84 c-79
79 -88 85 -160 106 -74 22 -78 24 -196 140 -70 69 -143 131 -175 148 -30 17
-214 81 -407 143 l-353 113 0 83 0 82 52 7 c39 5 61 15 90 42 21 19 38 38 38
42 0 4 -40 52 -89 106 l-89 99 -452 140 -453 140 -97 145 -97 146 -135 72
-135 72 -191 0 -191 0 -40 58 c-22 31 -41 62 -42 67 0 6 18 14 41 18 26 5 39
12 33 18 -5 5 -115 34 -244 64 -129 30 -244 57 -256 60 -16 4 -28 21 -44 65
l-22 60 -236 0 -237 0 -18 50 c-13 36 -23 50 -37 50 -16 0 -19 8 -19 54 l0 54
-62 50 c-114 90 -122 62 80 269 165 168 180 181 228 193 35 9 56 21 66 37 18
30 92 62 265 116 73 22 131 42 129 44 -2 3 -66 -14 -141 -36 -76 -23 -149 -41
-163 -41 -32 0 -287 -77 -316 -95 -29 -19 -165 -57 -181 -52 -7 3 -15 21 -19
40 -4 19 -13 40 -21 47 -7 6 -12 17 -9 25 7 18 -24 121 -41 135 -10 8 -43 2
-142 -26 -70 -21 -132 -41 -137 -46 -6 -4 -6 -20 1 -41 l10 -33 -169 -49
c-107 -32 -168 -54 -168 -62 0 -21 26 -26 62 -14 59 21 51 -8 -22 -71 l-67
-60 26 -88 26 -88 163 -37 c90 -20 177 -35 194 -33 28 5 30 3 24 -25 -3 -16
-6 -35 -6 -41 0 -8 -75 -27 -207 -52 -146 -27 -213 -44 -225 -56 -11 -11 -33
-18 -54 -18 -33 0 -36 -3 -56 -50 l-20 -49 -140 -3 -140 -3 -47 -125 -47 -125
-172 -3 -172 -2 0 -75 0 -75 -657 2 -657 3 -72 165 -73 165 0 309 -1 310 -27
28 c-27 28 -28 28 -153 28 l-126 0 -34 59 c-32 54 -41 62 -105 90 -38 17 -217
80 -397 141 l-328 110 -366 0 -365 0 -93 -50 c-51 -28 -96 -50 -99 -50 -4 0
-7 28 -7 63 0 59 -2 65 -34 96 l-34 33 -554 -26 c-304 -14 -575 -27 -603 -29
l-49 -2 -36 124 -35 123 -1185 621 c-723 378 -1195 619 -1210 619 -14 -1 -147
-15 -295 -33 l-271 -31 -1955 916 c-1076 504 -1964 916 -1975 916 -10 0 -127
-20 -259 -45 l-239 -45 -1336 709 -1335 710 -3 305 -2 306 844 0 845 0 1138
140 c626 77 1148 143 1160 145 17 4 60 80 204 365 100 198 187 367 193 375 10
13 47 10 281 -16 149 -18 272 -33 273 -35 2 -1 16 -51 31 -111 l27 -108 37 -3
c42 -4 37 9 70 -172 20 -110 21 -129 9 -161 -13 -34 -11 -39 57 -185 64 -137
80 -162 200 -310 72 -88 140 -169 150 -178 11 -10 104 -67 208 -128 l188 -110
178 -39 c202 -44 209 -45 246 -23 25 14 58 13 441 -20 369 -32 451 -36 737
-36 300 0 323 -1 335 -18 11 -16 45 -21 278 -36 323 -21 320 -20 320 -52 l0
-24 215 0 216 0 26 -60 26 -60 102 0 103 0 -14 53 c-7 28 -14 55 -14 60 0 4
25 7 55 7 l55 0 17 -60 16 -60 90 0 89 0 -7 60 -7 60 199 0 198 0 53 30 c44
26 52 35 52 59 l0 29 93 6 c50 3 421 12 822 20 699 15 735 17 855 40 l125 24
1335 11 c1735 14 2020 20 2020 37 0 11 -34 14 -172 14 -95 0 -855 7 -1688 15
l-1515 15 -125 25 c-120 23 -155 25 -875 40 -412 8 -778 15 -812 15 l-63 0 0
33 c0 29 -6 36 -56 65 l-56 32 -218 0 -218 0 -6 31 c-3 17 -6 42 -6 55 l0 24
368 0 367 1 159 279 160 280 30 -5 c17 -2 78 -6 135 -7 167 -5 172 -39 -61
477 l-195 430 -1749 563 -1749 563 -740 195 c-407 107 -748 197 -758 200 -16
5 -151 204 -367 541 l-85 133 -450 0 -451 0 -103 95 -104 95 -453 0 -452 0
-104 -95 -103 -95 -145 0 -144 0 -891 205 -891 205 -1821 0 -1821 0 -9 -42z
m9265 -3064 l700 -79 353 -437 354 -437 497 0 497 -1 21 -46 c11 -26 20 -50
20 -55 0 -5 -43 -9 -95 -9 l-95 0 0 -30 c0 -27 -3 -30 -32 -30 -18 0 -150 -9
-293 -19 -240 -18 -261 -21 -274 -40 -13 -21 -21 -21 -366 -21 -308 0 -397 4
-711 31 -197 16 -361 34 -364 38 -33 48 -35 48 -206 83 l-170 35 -146 84 -146
84 -114 143 c-95 119 -122 161 -167 261 -45 100 -59 121 -86 134 -30 14 -33
20 -44 94 -7 43 -15 90 -18 105 -5 25 -3 27 33 30 l37 3 20 84 19 83 39 -5
c21 -3 353 -40 737 -83z m2846 -1001 c9 -26 16 -50 16 -55 0 -4 -25 -8 -55 -8
-60 0 -63 3 -80 78 l-7 32 55 0 55 0 16 -47z m7165 -5344 c14 -40 14 -69 1
-69 -11 0 -24 29 -36 75 -9 38 22 32 35 -6z m536 -7 c-6 -5 -47 -39 -91 -75
l-82 -67 -7 27 c-3 15 -11 31 -17 34 -6 4 -7 15 -4 26 5 15 26 26 79 41 75 21
138 28 122 14z m-490 -148 c13 -47 14 -58 3 -65 -10 -6 -17 6 -30 48 -13 44
-14 59 -5 65 7 4 13 8 14 8 1 0 9 -25 18 -56z m35 -117 c0 -10 -10 -12 -32 -8
-32 4 -32 5 -8 12 37 11 40 10 40 -4z"/>
<path d="M26885 12270 c-33 -10 -108 -33 -168 -51 -59 -18 -105 -34 -103 -36
5 -5 314 85 336 97 22 13 3 10 -65 -10z"/>
</g>
</svg>
