<?xml version="1.0" standalone="no"?>
<!DOCTYPE svg PUBLIC "-//W3C//DTD SVG 20010904//EN"
 "http://www.w3.org/TR/2001/REC-SVG-20010904/DTD/svg10.dtd">
<svg version="1.0" xmlns="http://www.w3.org/2000/svg"
   viewBox="0 0 3922.000000 1566.000000"
 preserveAspectRatio="xMidYMid meet">
<metadata>
Created by potrace 1.16, written by Peter Selinger 2001-2019
</metadata>
<g transform="translate(0.000000,1566.000000) scale(0.100000,-0.100000)"
fill="#000000" stroke="none">
<path d="M24710 13405 l0 -2255 -37 0 c-30 0 -48 -9 -85 -41 l-48 -41 0 -334
0 -334 -233 0 -232 0 -150 -59 -150 -58 -3 -77 -3 -76 276 0 275 0 0 -115 0
-115 115 0 115 0 0 -90 0 -90 -489 0 c-268 0 -516 -3 -550 -6 -56 -6 -61 -9
-61 -30 0 -24 -1 -24 -105 -24 l-105 0 0 35 c0 31 -3 35 -25 35 -30 0 -379
-22 -381 -24 -6 -5 36 -233 92 -503 l67 -321 101 -53 c192 -100 277 -89 -681
-89 -722 0 -843 2 -843 14 0 10 -19 16 -67 21 -110 11 -125 18 -189 100 -36
47 -66 75 -80 77 -31 4 -447 603 -440 632 7 28 -76 157 -134 210 -27 23 -84
61 -127 82 -73 37 -85 39 -191 44 -102 5 -112 3 -112 -12 0 -17 -74 -18 -1415
-18 -1408 0 -1415 0 -1415 20 0 18 -7 20 -60 20 l-60 0 0 208 -1 207 -432 241
-432 241 -155 185 -155 185 -706 332 -706 331 -879 11 c-483 7 -881 13 -883
15 -2 2 10 38 27 79 l31 76 -206 245 -206 244 -1075 0 -1076 0 -252 -105 -252
-105 -813 0 -813 0 -127 -70 -127 -70 -1751 0 -1751 0 0 240 0 240 -2270 0
-2270 0 0 -570 0 -570 370 0 370 0 0 -110 0 -110 -87 0 c-82 0 -107 -6 -356
-82 l-267 -82 0 -966 0 -966 273 -77 272 -78 137 1 c118 0 999 31 1235 43 l83
5 0 -627 0 -626 303 -133 302 -132 907 0 906 0 114 -175 113 -175 1782 0 1781
0 104 114 103 115 80 -2 79 -2 71 -490 71 -490 70 -175 70 -175 271 -3 c271
-2 271 -2 277 -25 3 -12 6 -35 6 -52 1 -55 -1 -54 240 -57 215 -3 225 -4 229
-23 2 -11 45 -66 96 -123 68 -75 91 -109 88 -123 -5 -19 -22 -19 -771 -19
l-767 0 -132 -52 -133 -53 0 -375 0 -375 148 -58 147 -58 223 1 222 0 0 -422
0 -423 278 -130 277 -130 898 3 897 3 0 41 0 41 580 -7 580 -7 0 36 0 35 644
0 644 0 6 -35 7 -36 92 3 91 3 71 100 c51 71 94 150 148 270 l76 170 31 196
31 196 -31 199 -32 199 -77 170 c-52 114 -100 202 -147 268 l-69 97 -92 0 -92
0 -7 -35 -6 -35 -211 0 c-116 0 -208 2 -206 4 2 3 246 113 542 245 l538 241
329 0 330 0 0 65 0 65 108 0 108 0 12 73 c7 39 22 122 33 183 l21 110 547 13
c343 7 721 9 1018 5 l472 -7 14 -41 14 -41 599 0 c591 0 599 0 602 20 1 11 5
30 8 43 l4 22 599 0 c659 0 611 5 611 -61 l0 -29 489 0 488 0 13 45 13 45 413
0 414 0 22 -45 22 -45 430 2 429 3 14 41 14 41 342 6 c379 8 319 -1 554 86
l83 30 25 -49 25 -50 41 17 c34 13 42 14 53 2 17 -18 256 -419 259 -433 4 -23
34 -35 88 -36 31 0 90 -3 132 -6 l77 -7 0 -78 0 -79 1155 0 c1093 0 1155 1
1155 18 0 16 12 16 167 9 165 -8 168 -8 299 23 105 25 141 38 171 62 l38 30
155 -6 c85 -3 383 -9 663 -12 279 -4 507 -11 507 -15 0 -5 22 -9 49 -9 50 0
61 -9 61 -51 0 -18 14 -19 308 -21 295 -3 309 -2 352 18 43 20 65 21 480 27
l435 5 33 -44 33 -44 116 0 c110 0 118 1 151 27 34 25 37 26 81 12 25 -7 73
-12 105 -11 41 2 64 -2 76 -13 14 -12 77 -15 415 -17 l399 -3 651 -762 650
-762 2237 0 2237 -1 5 -52 c3 -29 7 -187 9 -350 l4 -298 -1934 0 c-1692 0
-1934 -2 -1931 -15 2 -8 76 -100 165 -205 l163 -190 427 -2 427 -3 841 -1620
841 -1620 832 -3 832 -2 0 3015 0 3015 -110 0 -110 0 0 70 c0 56 -5 77 -22
105 -23 35 -23 35 -99 35 -56 0 -80 -4 -89 -15 -16 -19 -80 -19 -106 0 -12 9
-43 14 -89 15 l-70 0 105 70 105 70 458 0 457 0 0 -45 0 -45 88 0 c48 0 131
-3 185 -7 l97 -6 0 51 0 52 60 0 c53 0 60 2 60 20 0 17 7 20 40 20 l41 0 -3
83 -3 82 -31 3 -31 3 -6 166 c-4 91 -7 203 -7 247 0 130 11 120 -163 144 -143
21 -191 22 -779 22 l-626 0 -128 -40 -128 -40 -448 0 -447 0 -27 -45 -26 -45
-1089 0 -1089 0 0 118 0 119 -462 7 c-254 4 -464 9 -466 11 -5 4 52 269 93
435 34 138 51 230 42 230 -2 0 -201 47 -441 105 -424 102 -441 105 -626 119
l-191 15 -86 78 c-264 240 -243 223 -292 223 -52 0 -864 37 -962 44 l-65 5
-60 -69 -59 -69 -60 -1 c-33 0 -84 3 -113 6 l-52 7 -374 496 c-307 409 -529
718 -584 817 -16 28 -1118 56 -1862 47 l-565 -6 -126 114 c-70 63 -125 115
-124 117 2 2 3403 101 3503 102 19 0 32 5 32 13 0 6 20 23 45 36 37 19 45 29
45 52 0 19 9 34 30 49 28 20 30 25 30 91 l0 69 -407 1 c-997 2 -2002 14 -2011
24 -7 8 -592 3426 -592 3458 0 4 -547 7 -1215 7 l-1215 0 0 240 0 240 1175 0
c933 0 1175 3 1175 13 0 48 -26 169 -39 180 -9 8 -397 262 -864 565 l-847 552
-445 0 -445 0 0 -2255z m-4480 -3785 c0 -18 7 -20 68 -20 85 0 115 -17 179
-104 33 -44 55 -65 69 -66 30 0 458 -612 450 -643 -7 -28 73 -139 150 -207 92
-80 182 -116 317 -125 105 -7 107 -7 107 14 l0 21 1025 0 c929 0 1025 -1 1025
-16 0 -9 -27 -46 -60 -83 -33 -37 -60 -73 -60 -79 0 -9 -743 -12 -3074 -12
l-3073 0 -6 83 c-4 45 -7 110 -7 143 0 60 -1 62 -30 68 l-30 6 0 500 0 500 60
0 c53 0 60 2 60 20 0 20 7 20 1415 20 1408 0 1415 0 1415 -20z m3115 -845 l60
-35 -67 0 -68 0 0 35 c0 19 3 35 8 35 4 0 34 -16 67 -35z m-5866 -1995 c-11
-29 -13 -30 -70 -30 -59 0 -59 0 -59 30 l0 30 69 0 70 0 -10 -30z m2441 16 c0
-48 30 -46 -610 -46 -536 0 -598 2 -604 16 -18 46 -44 44 604 44 520 0 610 -2
610 -14z m1845 -16 l-16 -30 -414 0 c-228 0 -415 3 -415 8 0 4 -3 17 -6 30
l-6 22 436 0 437 0 -16 -30z m1660 -7 l-70 -36 -335 7 c-184 4 -336 8 -337 9
-1 1 -4 14 -8 30 l-7 27 413 0 414 -1 -70 -36z m14102 -397 c1 -1 -46 -32
-106 -69 l-108 -67 -1121 0 c-617 0 -1122 4 -1122 8 0 31 25 32 814 32 l791 0
95 54 95 55 330 -6 c182 -3 331 -6 332 -7z m-2689 -101 c3 -2 -1 -11 -8 -20
-11 -13 -57 -15 -326 -15 l-314 0 0 27 0 26 321 -6 c177 -4 324 -9 327 -12z"/>
</g>
</svg>
