<?xml version="1.0" standalone="no"?>
<!DOCTYPE svg PUBLIC "-//W3C//DTD SVG 20010904//EN"
 "http://www.w3.org/TR/2001/REC-SVG-20010904/DTD/svg10.dtd">
<svg version="1.0" xmlns="http://www.w3.org/2000/svg"
   viewBox="0 0 3428.000000 1900.000000"
 preserveAspectRatio="xMidYMid meet">
<metadata>
Created by potrace 1.16, written by Peter Selinger 2001-2019
</metadata>
<g transform="translate(0.000000,1900.000000) scale(0.100000,-0.100000)"
fill="#000000" stroke="none">
<path d="M2070 18993 c0 -5 -76 -7 -169 -5 l-170 3 -6 -48 c-3 -26 -8 -62 -11
-80 -5 -37 -13 -34 170 -59 65 -8 130 -13 144 -9 24 6 25 5 19 -32 -20 -138
-320 -2773 -316 -2777 3 -3 134 -40 292 -82 l287 -77 0 -153 0 -153 -32 -6
c-18 -3 -132 -19 -253 -35 -121 -16 -235 -32 -252 -35 l-33 -6 0 -164 0 -165
-490 0 -490 0 0 -39 0 -39 -140 -38 -140 -39 0 -1887 0 -1886 47 -10 c27 -6
90 -19 141 -28 90 -17 92 -18 92 -46 l0 -28 700 0 700 0 0 -284 0 -284 -233
-134 -234 -135 -544 28 -545 28 -300 -108 -299 -107 -3 -1630 -2 -1630 302
-108 301 -109 545 30 545 30 228 -133 228 -134 905 0 905 0 62 -91 c33 -50 59
-93 57 -95 -3 -2 -132 -24 -289 -49 -156 -25 -294 -48 -307 -50 l-22 -5 2
-1342 3 -1342 1370 -221 c787 -126 1370 -224 1370 -230 0 -6 -42 -105 -93
-221 l-94 -211 149 -201 148 -201 115 -1 c93 0 112 -3 99 -13 -9 -7 -20 -31
-24 -55 l-7 -42 -147 0 -147 0 -31 83 -31 82 -126 3 -126 3 0 -34 c0 -26 -6
-36 -30 -50 l-30 -18 0 -237 0 -238 30 -17 c24 -15 30 -25 30 -53 l0 -34 124
0 124 0 34 88 34 87 146 3 146 3 6 -46 c10 -62 52 -95 124 -95 50 0 52 -1 72
-40 l20 -40 1755 0 1755 0 57 100 58 99 1081 1 1082 0 76 35 77 35 994 0 993
0 39 -45 38 -44 42 27 c38 24 43 31 43 65 0 34 2 37 30 37 19 0 30 5 30 14 0
20 149 23 1720 41 734 9 1342 17 1350 18 8 2 -502 8 -1135 15 -1738 19 -1935
23 -1935 39 0 8 -12 13 -30 13 -28 0 -30 2 -30 40 0 35 -5 42 -43 69 l-43 29
-35 -43 -34 -44 -1001 -1 -1001 0 -66 30 -67 30 -1084 0 -1084 0 -31 50 -31
50 363 0 362 0 2140 515 c1177 284 2147 519 2155 524 8 4 81 149 162 321 l146
314 -74 80 -74 81 0 963 0 962 463 0 462 0 1740 -611 1740 -612 472 -593 473
-593 0 -301 0 -300 1340 0 1339 0 685 774 684 774 223 988 c122 544 225 992
229 997 3 4 283 -90 621 -210 l614 -217 268 -1514 c148 -833 265 -1518 260
-1522 -4 -4 -843 -402 -1863 -885 -1020 -483 -1861 -881 -1868 -885 -10 -5 84
-118 318 -381 183 -206 340 -382 350 -393 16 -16 87 -26 542 -76 287 -31 541
-55 563 -53 61 6 1548 -164 1590 -182 21 -8 194 -32 417 -56 l381 -42 96 27
c52 15 120 42 151 61 80 48 1431 445 1517 445 84 0 1233 337 1272 373 36 34
970 307 1049 307 40 0 363 91 1364 385 722 212 1313 387 1315 389 4 3 -91 663
-102 714 -5 21 -11 22 -84 22 l-79 0 -6 38 c-31 197 -776 6066 -776 6110 0 33
-24 183 -54 334 l-53 273 -158 280 c-86 154 -161 285 -166 291 -4 5 -1745 599
-3869 1319 l-3860 1309 -787 923 -787 923 -4592 0 -4591 0 -965 387 -965 387
-189 332 -189 332 -45 5 c-25 4 -313 29 -640 57 -517 44 -600 54 -635 71 -34
18 -113 27 -515 65 -542 50 -530 49 -530 29 0 -10 -10 -15 -28 -15 -26 0 -35
-11 -97 -121 l-68 -121 -76 6 c-130 11 -118 3 -196 146 -62 116 -73 131 -100
135 -16 2 -799 70 -1740 150 -940 80 -1722 147 -1737 150 l-28 5 0 -254 c0
-139 -3 -456 -7 -704 l-6 -452 -377 0 -378 0 -6 23 c-3 12 -6 105 -6 206 0
221 45 -5 -410 2061 -192 874 -350 1592 -350 1595 0 3 -441 5 -980 5 -539 0
-980 -3 -980 -7z"/>
</g>
</svg>
