<?xml version="1.0" standalone="no"?>
<!DOCTYPE svg PUBLIC "-//W3C//DTD SVG 20010904//EN"
 "http://www.w3.org/TR/2001/REC-SVG-20010904/DTD/svg10.dtd">
<svg version="1.0" xmlns="http://www.w3.org/2000/svg"
   viewBox="0 0 4202.000000 1319.000000"
 preserveAspectRatio="xMidYMid meet">
<metadata>
Created by potrace 1.16, written by Peter Selinger 2001-2019
</metadata>
<g transform="translate(0.000000,1319.000000) scale(0.100000,-0.100000)"
fill="#000000" stroke="none">
<path d="M18260 13120 l-1705 -67 -841 -148 -841 -148 -109 -119 c-60 -65
-118 -121 -129 -123 -11 -3 -864 -112 -1895 -244 l-1875 -240 -2755 -201
c-1515 -110 -3441 -256 -4280 -325 -839 -68 -1818 -145 -2176 -170 l-651 -46
-163 -44 c-90 -24 -167 -48 -170 -52 -4 -4 -88 -118 -187 -253 l-179 -245
-117 -345 -116 -345 -37 -327 -38 -327 78 -372 77 -372 127 -231 127 -231 5
-257 c3 -141 8 -259 10 -262 3 -2 115 6 250 18 l245 23 358 -37 c197 -21 360
-39 363 -42 2 -3 20 -65 39 -139 18 -74 83 -302 143 -508 l109 -374 79 -59
c43 -32 82 -64 85 -71 4 -7 86 -257 184 -557 97 -300 231 -687 297 -860 l120
-315 248 -330 247 -330 256 -183 255 -183 529 -267 c437 -222 653 -340 1258
-686 l730 -419 1495 -1022 1496 -1023 684 -8 c377 -5 718 -9 758 -9 l74 0 30
72 30 71 -987 1742 -987 1743 -107 316 -108 316 24 285 24 284 172 247 172
247 250 137 250 136 695 60 695 59 835 10 c1354 16 1799 14 2030 -10 l194 -20
67 41 c63 38 72 48 149 170 45 71 87 129 93 129 7 0 239 -27 517 -61 318 -39
511 -67 520 -75 8 -7 84 -111 169 -231 l155 -218 641 -262 642 -261 1604 -428
1604 -428 284 -801 c156 -440 288 -804 293 -810 15 -17 1151 -164 1165 -151 6
6 177 252 378 546 202 294 373 541 380 548 10 12 223 -40 1276 -307 774 -197
1780 -443 2594 -635 814 -193 2193 -530 3553 -870 l2223 -556 1562 -336 c859
-184 1717 -368 1907 -409 303 -65 523 -102 1800 -299 l1455 -224 720 -7 720
-7 226 259 c124 142 229 269 232 283 4 14 75 102 158 195 125 141 183 219 338
450 186 278 189 283 345 615 l157 335 80 354 80 354 -28 249 c-24 217 -30 248
-45 248 -21 0 -24 17 -37 205 -10 137 -10 140 11 158 l21 18 -26 182 c-15 100
-27 185 -27 189 0 4 -12 8 -27 10 -27 3 -27 4 -50 158 l-23 155 23 18 24 19
-18 96 c-9 54 -69 326 -133 605 l-115 508 -163 262 -163 262 -213 233 c-189
208 -232 250 -395 380 -100 80 -183 146 -184 146 -1 1 -40 168 -87 371 -47
204 -93 384 -102 400 -58 113 -321 281 -823 527 l-325 160 -850 300 -851 301
-177 -22 -176 -21 -366 170 c-457 212 -711 337 -2361 1159 l-1330 663 -220
259 -219 260 -41 -6 c-22 -3 -147 -19 -279 -35 l-238 -29 -1516 210 c-834 115
-1517 211 -1518 212 -1 1 -7 79 -14 172 -6 94 -14 173 -18 176 -4 4 -531 115
-1172 249 l-1165 242 -1415 159 -1415 160 -1840 104 c-1012 58 -1869 104
-1905 104 -36 -1 -832 -32 -1770 -69z"/>
</g>
</svg>
