<?xml version="1.0" standalone="no"?>
<!DOCTYPE svg PUBLIC "-//W3C//DTD SVG 20010904//EN"
 "http://www.w3.org/TR/2001/REC-SVG-20010904/DTD/svg10.dtd">
<svg version="1.0" xmlns="http://www.w3.org/2000/svg"
   viewBox="0 0 4227.000000 3459.000000"
 preserveAspectRatio="xMidYMid meet">
<metadata>
Created by potrace 1.16, written by Peter Selinger 2001-2019
</metadata>
<g transform="translate(0.000000,3459.000000) scale(0.100000,-0.100000)"
fill="#000000" stroke="none">
<path d="M17731 31844 c-1173 -1719 -1877 -2741 -1881 -2733 -3 8 -51 200
-106 426 l-99 413 -367 0 -368 0 0 -77 c0 -52 10 -115 29 -190 l29 -113 -3172
0 -3171 0 -590 -575 c-324 -316 -599 -577 -610 -580 -11 -3 -820 -156 -1798
-339 -978 -184 -1780 -336 -1781 -338 -2 -1 -287 -568 -635 -1259 -465 -925
-631 -1265 -631 -1290 0 -27 42 -102 194 -349 l194 -315 4880 -5 4881 -5 -237
-347 -237 -348 -5132 0 -5133 0 -995 -1990 c-754 -1509 -995 -1998 -995 -2025
0 -30 51 -109 342 -530 l342 -495 1686 -1 1685 0 -177 -71 -178 -72 0 -497 0
-497 -135 -54 -135 -53 0 -867 0 -868 -1374 0 -1375 0 -338 -487 c-279 -403
-338 -495 -341 -528 -4 -36 81 -211 989 -2027 l994 -1988 1286 0 1286 0 283
-60 283 -60 1054 0 1053 0 0 -295 0 -295 -2132 0 -2133 -1 -193 -315 c-136
-223 -192 -323 -192 -344 0 -20 219 -468 631 -1293 l632 -1263 1799 -334 1798
-334 590 -578 590 -578 3185 0 c2128 0 3185 -3 3185 -10 0 -6 -18 -85 -40
-176 -25 -105 -40 -190 -40 -230 l0 -64 368 0 368 0 109 448 c59 246 111 453
115 460 4 8 711 -1019 1869 -2717 l1862 -2731 2385 0 2384 0 0 2310 0 2310
348 0 347 1 329 758 c180 417 331 763 335 770 5 7 1508 154 4306 421 2365 226
4300 410 4301 410 2 0 656 782 658 787 1 1 79 5 174 8 l172 8 0 232 0 233
-152 6 c-84 4 -2353 60 -5043 126 -2689 66 -4959 122 -5042 126 l-153 6 0
1369 0 1369 168 0 c92 -1 3090 25 6662 56 l6495 56 110 45 110 45 1875 13
c1239 8 1879 9 1888 2 9 -7 12 43 12 248 0 238 -1 257 -17 251 -9 -4 -856 -2
-1883 5 l-1865 11 -109 45 -108 45 -6557 59 c-3606 32 -6607 59 -6668 59
l-113 0 0 465 0 465 73 0 c39 0 2493 29 5452 65 2959 36 5469 65 5578 65 l197
0 0 149 0 149 -227 6 c-126 3 -2635 36 -5578 72 -2942 36 -5383 67 -5422 70
l-73 6 0 204 c0 112 4 204 8 204 5 0 2898 34 6429 75 l6419 75 1024 260 c563
143 1025 260 1027 260 2 0 2 345 1 767 l-3 767 -1175 313 c-1660 443 -3754
1003 -3756 1006 -1 1 -50 61 -108 132 l-107 130 -132 36 -132 36 -217 334
c-120 184 -219 337 -220 342 -2 4 -694 260 -1538 568 -844 309 -1540 565
-1547 570 -6 6 -36 52 -67 104 -52 87 -60 95 -99 106 -694 186 -1754 482
-1762 491 -72 80 -376 451 -372 454 4 4 7118 93 7480 94 l147 0 0 150 0 150
-27 0 c-16 0 -2447 32 -5403 70 l-5375 70 -215 30 c-118 16 -230 32 -247 35
l-33 6 0 2269 0 2270 78 0 c43 0 2366 58 5162 130 2797 71 5100 130 5118 130
l32 0 0 235 0 235 -169 0 -169 0 -327 393 c-180 215 -334 395 -343 399 -10 4
-1948 190 -4308 415 l-4292 408 -333 767 -334 768 -347 0 -348 0 0 2315 0
2315 -2382 0 -2383 0 -1874 -2746z"/>
</g>
</svg>
