<?xml version="1.0" standalone="no"?>
<!DOCTYPE svg PUBLIC "-//W3C//DTD SVG 20010904//EN"
 "http://www.w3.org/TR/2001/REC-SVG-20010904/DTD/svg10.dtd">
<svg version="1.0" xmlns="http://www.w3.org/2000/svg"
   viewBox="0 0 4395.000000 1243.000000"
 preserveAspectRatio="xMidYMid meet">
<metadata>
Created by potrace 1.16, written by Peter Selinger 2001-2019
</metadata>
<g transform="translate(0.000000,1243.000000) scale(0.100000,-0.100000)"
fill="#000000" stroke="none">
<path d="M18390 12408 l-585 -19 -1415 -175 -1415 -175 -1209 -336 -1210 -336
-872 -462 -872 -462 -285 -267 -286 -267 -173 -277 -173 -277 -53 -265 c-29
-146 -55 -272 -58 -281 -4 -15 187 -17 2348 -24 l2353 -7 38 -37 39 -38 -220
-7 -220 -8 -78 35 -79 34 -1300 6 -1300 5 -182 -60 -183 -60 -139 -116 -140
-117 0 -202 -1 -203 -1810 0 -1809 0 -19 -62 -18 -63 -130 -7 c-71 -4 -1660
-40 -3531 -80 -1871 -40 -3399 -75 -3395 -79 6 -5 6833 -151 6994 -150 l57 1
22 -70 21 -70 1809 0 1809 0 0 -197 1 -198 141 -119 140 -118 182 -63 181 -63
400 -31 c220 -17 408 -31 418 -31 13 0 17 -8 17 -39 l0 -39 -182 -6 c-101 -3
-491 -11 -868 -16 -376 -6 -686 -12 -687 -14 -2 -2 261 -6 584 -9 324 -4 715
-10 871 -14 l282 -6 0 -59 0 -58 115 -155 c63 -85 120 -155 127 -155 7 0 405
-40 883 -89 l870 -89 380 89 c208 49 382 89 386 89 3 0 12 34 18 75 l12 75 95
0 94 0 0 -65 c0 -51 -3 -65 -15 -65 -13 0 -15 -32 -15 -229 l0 -228 -74 -5
-73 -5 -163 -131 -162 -132 -1022 0 -1021 0 -36 -30 -36 -29 -2629 -36 c-1446
-19 -2730 -38 -2854 -42 -168 -5 497 -19 2630 -55 l2854 -48 36 -35 36 -35
1020 0 1020 0 120 -87 c193 -139 215 -153 245 -153 l29 0 0 -124 c0 -121 2
-130 90 -497 50 -206 93 -381 95 -389 3 -9 62 -34 148 -64 l143 -48 111 -427
c104 -400 117 -463 219 -1034 l108 -607 151 0 152 0 12 -68 c6 -37 21 -118 33
-181 l21 -113 59 -64 c38 -40 86 -77 134 -104 41 -22 74 -44 74 -48 0 -13 140
-954 146 -985 l6 -27 1961 0 c1721 0 1985 2 2152 16 105 9 191 18 193 19 2 2
35 124 73 272 63 246 69 276 69 371 0 75 -3 102 -12 102 -7 0 -89 7 -183 15
-93 8 -173 15 -177 15 -5 0 -8 54 -8 120 l0 120 -30 0 c-17 0 -30 5 -30 12 0
10 342 2133 371 2306 10 54 14 62 33 62 20 0 438 88 441 93 1 1 9 46 18 101 9
54 17 99 19 100 2 2 70 29 152 62 l149 60 163 617 c89 340 164 620 166 622 2
2 1149 76 2548 165 2304 145 2583 165 2950 205 l405 45 1135 20 1135 19 1130
85 c1027 77 1230 95 2225 201 1011 107 1168 126 2050 251 l955 135 770 155
770 155 570 169 570 169 330 170 c225 116 338 179 355 200 l25 30 375 -19
c505 -26 446 -31 461 34 6 30 15 59 18 64 4 7 159 13 421 16 228 4 567 9 753
12 l337 5 0 -45 0 -45 63 6 c34 3 332 26 661 52 l600 46 25 83 24 83 -23 75
c-13 41 -28 78 -33 81 -9 6 -1210 102 -1279 103 l-38 0 0 -46 0 -46 -47 6
c-27 3 -345 8 -708 11 -363 3 -681 8 -707 11 l-47 6 -17 59 -17 59 -56 0 c-31
0 -182 -7 -336 -15 -154 -8 -312 -15 -350 -15 l-70 0 -23 38 c-21 33 -61 56
-365 214 l-342 176 -562 166 -561 166 -749 150 c-411 83 -755 153 -764 155 -8
3 -112 73 -230 155 l-214 150 -1285 426 c-707 235 -1290 429 -1296 431 -8 3
-14 -24 -18 -79 -4 -46 -10 -97 -14 -113 l-7 -31 -1005 198 -1005 198 -1141
175 -1141 174 -1058 116 c-583 64 -1061 118 -1064 120 -2 3 -6 83 -9 179 l-5
175 -61 5 c-48 5 -4949 276 -4978 276 -5 0 -8 -30 -8 -66 l0 -66 -182 6 c-101
4 -714 15 -1363 26 -649 11 -1253 23 -1342 26 l-163 6 0 519 0 519 -147 -1
c-82 -1 -411 -10 -733 -21z"/>
</g>
</svg>
