<?xml version="1.0" standalone="no"?>
<!DOCTYPE svg PUBLIC "-//W3C//DTD SVG 20010904//EN"
 "http://www.w3.org/TR/2001/REC-SVG-20010904/DTD/svg10.dtd">
<svg version="1.0" xmlns="http://www.w3.org/2000/svg"
   viewBox="0 0 4635.000000 1603.000000"
 preserveAspectRatio="xMidYMid meet">
<metadata>
Created by potrace 1.16, written by Peter Selinger 2001-2019
</metadata>
<g transform="translate(0.000000,1603.000000) scale(0.100000,-0.100000)"
fill="#000000" stroke="none">
<path d="M30625 15998 l-610 -27 -1055 -111 c-918 -97 -1226 -134 -2370 -286
l-1315 -174 -1165 -211 c-641 -116 -1166 -212 -1168 -214 -2 -1 4 -54 12 -116
8 -63 13 -116 10 -118 -2 -3 -615 -138 -1362 -301 l-1357 -297 -1185 -307
c-2601 -675 -4775 -1307 -8185 -2380 -1872 -590 -2448 -776 -4075 -1318
l-1895 -631 -1470 -552 -1470 -552 -490 -233 -490 -233 -340 -227 -340 -227
-154 -209 -153 -209 126 -3 126 -3 0 -984 0 -985 118 -59 118 -59 439 114
c242 63 443 114 448 114 4 0 7 -51 7 -114 l0 -114 117 44 c65 24 124 44 131
44 6 0 12 -9 12 -19 0 -11 3 -26 6 -35 6 -15 172 -16 1785 -16 l1779 0 0 385
0 385 38 19 c20 10 669 307 1442 658 l1405 640 1552 6 1553 7 2 -1412 3 -1412
215 -97 215 -97 100 -6 c55 -3 287 -8 515 -10 l415 -5 38 67 38 67 292 28
c161 15 301 27 313 27 14 0 33 -19 59 -56 l38 -55 46 6 c25 3 370 39 766 80
l720 75 325 124 325 124 3 56 3 55 50 -19 c48 -19 80 -20 1149 -20 l1100 0 0
-302 0 -303 134 -245 134 -245 131 -3 130 -3 53 -84 53 -85 790 0 790 0 54 85
53 84 131 3 131 3 138 240 139 240 -3 313 -3 312 1030 0 1030 0 -3 -306 -3
-306 138 -249 138 -249 130 0 130 0 53 -85 53 -85 790 0 789 0 55 85 55 85
128 0 128 0 137 238 137 237 -2 318 -3 317 955 0 955 0 -3 -309 -3 -309 133
-243 133 -244 131 -3 130 -3 53 -84 53 -85 792 0 791 1 51 82 51 82 131 3 130
3 136 235 136 236 0 310 0 310 28 -5 c69 -14 2419 -528 2435 -533 16 -5 17 21
17 455 l0 461 445 0 445 0 0 -59 c0 -53 4 -63 41 -110 37 -47 44 -51 82 -51
l42 0 124 -183 124 -182 205 -140 206 -140 201 -72 200 -73 200 -21 c110 -11
210 -22 223 -25 21 -4 22 -8 22 -129 l0 -125 1065 0 1065 0 0 135 0 135 165 0
c165 0 166 0 368 50 111 28 217 57 236 66 18 8 35 14 36 12 1 -2 14 -39 29
-83 l26 -80 74 -29 c41 -15 80 -25 86 -21 9 5 10 -24 6 -116 -3 -68 -8 -208
-12 -312 l-6 -187 277 2 276 3 161 346 161 347 210 -302 c115 -165 211 -302
212 -304 2 -2 99 -28 216 -58 l214 -55 585 1 585 0 155 -330 c85 -182 156
-334 158 -339 1 -4 -170 -12 -380 -16 -211 -4 -448 -10 -527 -14 l-144 -6 238
-214 238 -214 331 -114 331 -114 573 -22 c413 -17 575 -26 581 -35 4 -6 178
-414 386 -907 l379 -895 256 0 c141 0 310 3 376 6 l119 7 74 140 c40 76 283
491 540 921 454 760 471 790 625 1116 98 206 213 469 298 684 76 192 138 353
138 357 0 5 -49 9 -110 9 l-110 0 0 485 0 485 115 77 c64 42 114 82 113 88 -2
6 -104 140 -227 298 l-225 287 -183 0 -183 0 4 23 c3 12 8 58 12 102 5 63 19
115 66 240 33 88 63 163 67 168 4 4 18 -4 31 -18 23 -25 25 -25 184 -25 152 1
512 22 520 31 2 2 -7 173 -19 379 l-23 375 -162 740 -162 740 -295 710 -295
710 -412 663 -411 663 -502 602 -503 602 -572 528 -573 529 -625 452 -625 452
-540 302 -540 301 -790 341 -790 341 -705 214 -705 214 -711 155 -712 156
-713 105 -714 106 -755 64 -755 63 -700 16 c-385 9 -722 18 -750 19 -27 1
-325 -10 -660 -25z m7708 -11093 c26 -41 47 -79 47 -84 0 -5 -13 -12 -29 -16
-22 -5 -39 -22 -70 -71 -23 -36 -41 -71 -41 -78 0 -7 10 -41 21 -76 20 -58 21
-64 5 -75 -9 -7 -82 -31 -163 -53 -141 -39 -155 -41 -315 -45 l-168 -3 0 128
0 128 -1065 0 -1065 0 0 -135 c0 -101 -3 -135 -12 -135 -7 0 -95 9 -194 19
-180 19 -183 20 -325 78 -123 50 -166 75 -292 164 -146 102 -148 104 -113 107
29 3 43 12 76 54 36 46 40 56 40 109 l0 59 1808 0 1807 0 48 -75z"/>
</g>
</svg>
