<?xml version="1.0" standalone="no"?>
<!DOCTYPE svg PUBLIC "-//W3C//DTD SVG 20010904//EN"
 "http://www.w3.org/TR/2001/REC-SVG-20010904/DTD/svg10.dtd">
<svg version="1.0" xmlns="http://www.w3.org/2000/svg"
   viewBox="0 0 4581.000000 2307.000000"
 preserveAspectRatio="xMidYMid meet">
<metadata>
Created by potrace 1.16, written by Peter Selinger 2001-2019
</metadata>
<g transform="translate(0.000000,2307.000000) scale(0.100000,-0.100000)"
fill="#000000" stroke="none">
<path d="M32205 23054 c-49 -18 -78 -45 -120 -110 -39 -61 21 -50 -540 -99
-225 -20 -430 -41 -455 -47 -67 -18 -108 -63 -214 -236 l-97 -159 -207 -38
c-114 -21 -215 -41 -225 -44 -10 -4 -44 -40 -77 -81 -66 -83 -62 -62 -76 -373
l-6 -138 -137 7 -138 7 -96 -46 -97 -46 0 59 0 58 -84 66 -85 66 -393 17 -393
16 -185 -123 c-223 -148 -240 -163 -240 -207 l0 -34 -62 6 c-35 4 -90 17 -123
30 l-60 25 -557 -28 -556 -27 -21 -24 c-16 -18 -21 -38 -21 -76 l0 -53 -66 -7
c-63 -7 -67 -6 -96 22 -25 24 -37 28 -83 27 -30 -1 -65 -4 -78 -8 -23 -5 -25
-3 -37 72 -13 75 -15 79 -77 144 -76 78 -123 101 -246 118 -110 15 -161 8
-251 -37 -80 -39 -126 -92 -189 -219 -33 -66 -35 -73 -25 -118 5 -26 8 -49 6
-50 -1 -2 -97 -8 -213 -13 l-210 -10 -34 29 c-32 28 -35 29 -110 22 l-78 -6
-13 78 c-13 76 -16 81 -74 143 -76 79 -109 96 -227 116 -114 20 -167 14 -263
-30 -82 -37 -127 -88 -191 -214 -33 -67 -36 -78 -29 -125 3 -28 7 -53 8 -56 0
-3 -95 -9 -212 -15 l-213 -10 -27 28 c-26 27 -30 28 -111 25 l-85 -3 -12 58
c-10 50 -19 67 -65 114 -30 30 -72 64 -94 75 -51 27 -161 48 -246 48 -55 0
-77 -6 -145 -39 -88 -43 -120 -78 -189 -209 -30 -57 -36 -79 -32 -107 5 -32 4
-35 -26 -39 -38 -6 -519 -28 -522 -24 -1 2 2 41 6 87 5 47 7 86 5 89 -2 2
-259 -12 -570 -30 -474 -29 -568 -37 -579 -50 -10 -13 -80 -20 -409 -39 l-398
-24 0 30 c0 26 -21 51 -132 161 l-133 132 -630 -143 c-540 -123 -713 -167
-1210 -308 -319 -91 -1493 -423 -2610 -737 l-2030 -572 -565 -255 c-311 -140
-570 -260 -576 -267 -6 -6 -16 -26 -23 -45 -11 -33 -9 -36 68 -134 59 -75 91
-129 126 -208 l47 -107 -163 -339 c-89 -186 -165 -341 -169 -345 -3 -5 -685
-82 -1515 -173 -831 -90 -1528 -167 -1550 -170 l-40 -6 -90 116 c-50 64 -97
125 -105 136 -16 20 -41 16 -2085 -286 -1139 -168 -2076 -309 -2083 -313 -8
-4 -64 -97 -125 -206 l-112 -199 -2364 -638 c-1300 -351 -2364 -639 -2366
-641 -1 -2 10 -32 24 -68 17 -42 108 -180 252 -385 124 -176 452 -644 729
-1040 l503 -719 132 -396 c217 -647 302 -859 418 -1045 l55 -87 203 -94 c146
-67 215 -93 244 -94 38 0 41 -3 73 -60 l33 -60 126 -60 126 -60 112 0 112 0
113 -292 c182 -472 230 -572 373 -770 l122 -168 55 0 c30 0 231 -5 445 -11
349 -10 394 -14 427 -31 l38 -18 0 -476 0 -475 33 -13 c17 -7 65 -26 105 -40
71 -27 72 -28 73 -64 1 -30 8 -43 38 -69 33 -28 101 -50 636 -202 380 -108
875 -259 1350 -412 413 -132 752 -243 754 -245 3 -2 8 -32 12 -65 4 -33 9 -62
10 -63 2 -2 326 -29 719 -60 393 -31 729 -59 746 -62 28 -4 47 8 171 105 l139
109 950 61 949 61 903 0 902 0 0 -60 0 -60 240 0 240 0 0 -110 0 -110 1939 0
1939 0 12 -30 12 -30 138 0 137 0 199 -84 c174 -74 213 -94 313 -168 231 -169
368 -359 397 -554 7 -50 16 -99 20 -108 6 -15 86 -16 935 -16 613 0 929 -3
929 -10 0 -6 58 -10 153 -10 85 0 195 -3 245 -6 81 -6 92 -9 92 -25 0 -18 13
-19 233 -20 155 0 316 -8 487 -24 l255 -22 -545 -2 -545 -1 -100 -46 c-97 -45
-103 -50 -190 -151 -69 -79 -93 -116 -104 -153 -10 -37 -18 -50 -32 -50 -22 0
-23 -8 -9 -46 8 -20 5 -63 -11 -168 l-22 -142 38 -65 c33 -56 48 -70 104 -101
l65 -35 31 -94 32 -94 101 -15 c55 -8 103 -18 107 -21 3 -4 -31 -12 -75 -20
-66 -10 -80 -16 -75 -28 4 -9 50 -144 102 -301 53 -157 97 -287 99 -288 1 -2
49 -11 106 -19 57 -9 106 -21 110 -27 5 -7 -25 -17 -89 -28 -53 -10 -98 -20
-101 -22 -4 -5 185 -574 198 -596 3 -5 64 -16 135 -25 136 -18 165 -30 165
-69 0 -20 49 -34 738 -204 l737 -182 917 30 918 30 57 28 c47 23 208 131 524
353 l25 18 108 -266 c59 -146 105 -268 102 -271 -3 -3 -56 -14 -118 -24 -62
-11 -114 -21 -117 -23 -3 -3 355 -1010 364 -1022 1 -2 114 -19 251 -38 l249
-36 32 -33 c17 -19 67 -61 112 -95 l80 -61 -20 -57 c-26 -78 -25 -90 12 -98
17 -4 29 -12 26 -18 -2 -7 -15 -47 -27 -90 l-23 -78 -37 6 c-35 6 -37 5 -46
-27 -8 -27 -17 -36 -54 -48 -60 -20 -70 -27 -70 -51 0 -37 49 -118 95 -156 42
-35 70 -45 373 -131 195 -55 442 -117 612 -153 l285 -60 35 -37 35 -37 355
-59 c195 -32 359 -62 363 -66 4 -4 3 -19 -2 -33 -6 -15 -7 -27 -3 -27 4 0 39
-52 77 -116 l70 -115 208 6 c183 5 207 4 207 -9 0 -12 11 -16 50 -16 38 0 50
4 50 15 0 12 16 15 80 15 l80 0 0 -50 0 -50 138 0 c118 0 148 -3 207 -23 l69
-24 76 24 75 23 773 0 772 0 0 -25 0 -25 105 0 105 0 0 25 0 25 313 0 312 -1
40 -35 c38 -33 39 -35 21 -49 -11 -8 -15 -19 -10 -27 21 -36 117 -158 124
-158 4 0 13 7 20 15 20 24 34 18 69 -26 18 -22 72 -84 119 -137 l85 -97 161
-48 161 -47 57 16 c70 21 43 41 254 -192 149 -164 161 -175 189 -170 17 2 596
113 1287 246 l1257 241 274 129 c151 72 279 130 285 130 7 0 197 -91 424 -203
l413 -203 154 91 153 90 534 1405 c293 773 545 1435 559 1472 l27 68 34 -15
c91 -38 495 -187 498 -184 2 2 289 393 638 869 l634 865 386 860 386 860 151
787 151 787 41 563 40 563 110 720 110 720 156 410 c155 406 158 412 264 585
l107 175 52 3 c36 2 57 -2 69 -12 13 -12 52 -17 149 -22 124 -7 136 -6 181 16
l48 22 734 -31 c404 -17 769 -33 812 -37 l77 -5 0 34 0 35 -72 6 c-40 3 -404
20 -808 37 l-735 31 -60 28 c-55 27 -70 29 -182 31 -85 2 -126 -1 -137 -10 -8
-7 -24 -11 -35 -9 -18 3 42 106 431 743 383 627 496 823 747 1285 299 554 480
924 852 1744 l144 318 45 -7 c25 -4 54 -8 64 -9 15 -1 76 87 273 394 140 217
263 413 273 435 11 22 72 282 136 578 l116 538 -76 430 -75 430 -135 182 c-74
100 -156 210 -183 245 l-48 64 -1195 575 -1195 575 -1115 473 -1115 473 -980
192 -980 192 -1315 49 c-723 26 -1357 49 -1409 51 l-93 3 -23 -44 c-26 -51
-21 -55 -75 68 -45 105 -117 190 -209 250 -67 43 -89 51 -186 69 -60 12 -144
24 -186 28 l-77 7 -182 226 c-115 142 -194 232 -215 243 -37 20 -345 35 -1650
83 -374 13 -718 26 -765 29 -59 3 -97 0 -125 -10z"/>
</g>
</svg>
