<?xml version="1.0" standalone="no"?>
<!DOCTYPE svg PUBLIC "-//W3C//DTD SVG 20010904//EN"
 "http://www.w3.org/TR/2001/REC-SVG-20010904/DTD/svg10.dtd">
<svg version="1.0" xmlns="http://www.w3.org/2000/svg"
   viewBox="0 0 3238.000000 4083.000000"
 preserveAspectRatio="xMidYMid meet">
<metadata>
Created by potrace 1.16, written by Peter Selinger 2001-2019
</metadata>
<g transform="translate(0.000000,4083.000000) scale(0.100000,-0.100000)"
fill="#000000" stroke="none">
<path d="M20961 40242 l-2165 -587 -222 -240 -223 -239 -187 -1 -186 0 -2278
-5405 -2278 -5405 33 -172 c37 -188 34 -180 111 -298 l54 -82 240 -108 241
-107 2015 8 2014 7 0 -37 c0 -36 0 -36 -41 -36 -23 0 -356 -89 -764 -205
l-724 -205 -603 0 -604 0 -151 115 -152 115 -771 0 -772 0 -43 31 -44 32
-2178 -127 c-1198 -69 -2202 -129 -2230 -132 l-53 -5 0 110 0 111 -102 0 c-57
-1 -688 -18 -1403 -39 l-1300 -38 -475 79 c-417 68 -491 78 -603 78 -70 0
-135 4 -145 10 -18 10 -1863 30 -1872 20 -3 -3 -25 -11 -50 -17 -83 -21 -98
-30 -105 -61 -6 -28 -9 -30 -43 -25 -20 2 -363 33 -761 68 l-724 64 -189 -102
-190 -102 -519 -957 -518 -957 128 -441 c71 -243 131 -443 133 -444 2 -2 379
-272 838 -601 459 -329 1048 -751 1308 -937 l472 -339 1049 -132 1049 -132
303 -255 c167 -140 309 -260 317 -265 10 -8 -56 -29 -255 -79 -147 -37 -291
-74 -319 -82 l-52 -15 -21 -84 c-11 -46 -21 -91 -21 -100 0 -13 63 -15 559
-15 484 0 560 -2 571 -15 11 -13 54 -15 284 -15 l271 1 324 -73 323 -73 -7
-211 -7 -211 28 -6 c23 -5 51 -37 139 -159 61 -84 162 -216 226 -293 l115
-141 18 -144 c10 -80 21 -148 24 -151 4 -3 868 -426 1919 -939 l1912 -934 262
-575 c143 -317 264 -579 268 -584 5 -5 648 -157 667 -157 2 0 4 -164 4 -365
l0 -365 91 0 c89 0 99 -3 415 -106 l324 -107 0 -117 0 -117 83 -6 c45 -4 156
-7 247 -8 106 0 157 -3 143 -9 -14 -6 -26 -23 -32 -48 -25 -92 -25 -99 8 -158
18 -31 30 -59 26 -62 -3 -3 -143 -10 -310 -16 l-305 -9 0 -237 0 -237 203 -6
c111 -4 319 -7 462 -7 l260 -1 518 -894 c516 -893 517 -894 517 -951 l0 -56
1280 -2173 c1190 -2019 1283 -2173 1312 -2181 30 -9 160 -233 2115 -3659
l2082 -3649 333 -168 333 -167 115 6 115 5 67 -113 68 -113 1757 -353 c967
-194 1764 -353 1771 -353 21 0 13 47 -19 118 -16 37 -98 260 -181 496 l-150
428 68 69 67 68 -131 1058 c-448 3596 -653 5290 -1187 9787 -328 2760 -594
5021 -591 5024 3 3 75 -16 158 -42 l153 -46 431 0 432 0 628 487 c346 267 641
495 655 505 l25 19 1330 -316 c731 -173 1332 -317 1335 -318 3 -1 -45 -409
-107 -907 -62 -498 -113 -914 -113 -925 -1 -40 47 -55 191 -61 l133 -6 941
2054 c863 1884 939 2054 921 2061 -19 7 -19 8 4 33 23 24 36 26 99 8 9 -2 33
19 61 54 41 51 64 67 223 152 l176 95 0 90 c1 74 -7 120 -42 258 -36 141 -46
168 -63 172 -11 2 -408 77 -883 167 l-863 162 -252 305 c-139 167 -254 308
-257 312 -3 4 -191 39 -419 78 -227 38 -415 72 -417 74 -2 2 16 41 41 87 25
46 45 86 45 89 0 4 -61 42 -135 86 -74 44 -135 84 -135 88 0 4 14 34 30 67 17
33 30 66 30 73 0 8 -11 34 -25 58 -21 39 -43 55 -174 132 -82 48 -157 87 -166
87 -8 0 -234 132 -500 293 -369 222 -479 293 -460 295 17 2 25 10 25 23 0 19
18 19 1023 12 l1024 -6 7 153 c3 84 5 154 4 156 -2 1 -466 6 -1031 10 -565 4
-1027 11 -1027 16 0 4 -152 8 -337 9 l-338 0 -465 283 -465 282 -100 146 -100
146 -830 409 -830 408 -140 143 -140 143 -193 53 c-106 30 -195 55 -197 57 -2
2 -67 508 -145 1124 -78 616 -146 1122 -150 1125 -5 3 -375 61 -823 129 l-813
124 -247 -136 -246 -137 -226 0 -225 0 0 80 c0 74 1 80 23 85 12 3 64 14 115
24 51 10 95 21 97 23 3 2 112 680 243 1506 132 827 242 1505 245 1508 2 3 783
17 1733 30 951 14 1788 29 1859 34 72 4 149 8 173 9 l42 1 0 55 c0 54 0 55
-30 55 -28 0 -30 3 -30 36 l0 37 -60 -6 c-43 -4 -60 -2 -60 7 0 8 -21 10 -71
8 -41 -3 -74 0 -78 6 -4 6 -596 -3 -1724 -25 -945 -19 -1720 -33 -1721 -32 -2
2 282 1795 630 3984 348 2189 634 4006 634 4038 l0 57 -149 0 c-88 0 -152 4
-156 10 -3 5 145 396 329 867 184 472 338 866 342 876 3 9 2 17 -2 16 -5 0
-983 -265 -2173 -587z m6014 -16995 c6 -6 -44 -7 -140 -3 l-150 7 -90 53 c-49
29 -105 58 -123 66 -26 10 -55 46 -137 167 -58 85 -105 156 -105 159 0 4 731
-436 745 -449z m1105 -665 c261 -157 479 -289 484 -293 6 -5 -85 34 -202 86
-116 52 -215 95 -220 95 -4 0 -17 -15 -28 -34 l-19 -34 -388 233 c-213 128
-390 235 -393 237 -2 3 62 3 143 0 l148 -4 475 -286z m-8505 -15757 l221 -48
278 -515 c153 -283 274 -518 269 -522 -10 -9 -381 -140 -397 -140 -8 0 -730
1260 -744 1299 -2 5 32 1 75 -8 43 -10 177 -39 298 -66z m812 -1545 l241 -53
271 -505 c150 -277 269 -507 267 -510 -7 -7 -368 -133 -372 -130 -5 5 -706
1243 -711 1255 -4 9 4 10 29 3 18 -4 142 -32 275 -60z m788 -1476 c121 -26
226 -50 234 -54 24 -13 601 -1104 588 -1111 -25 -13 -318 -112 -321 -108 -2 2
-162 283 -356 624 -194 341 -364 640 -378 664 -23 39 -24 43 -6 38 10 -3 118
-27 239 -53z"/>
</g>
</svg>
