<?xml version="1.0" standalone="no"?>
<!DOCTYPE svg PUBLIC "-//W3C//DTD SVG 20010904//EN"
 "http://www.w3.org/TR/2001/REC-SVG-20010904/DTD/svg10.dtd">
<svg version="1.0" xmlns="http://www.w3.org/2000/svg"
   viewBox="0 0 4800.000000 2110.000000"
 preserveAspectRatio="xMidYMid meet">
<metadata>
Created by potrace 1.16, written by Peter Selinger 2001-2019
</metadata>
<g transform="translate(0.000000,2110.000000) scale(0.100000,-0.100000)"
fill="#000000" stroke="none">
<path d="M1765 20686 l-1760 -411 3 -1405 c2 -773 7 -2408 11 -3635 5 -1226 4
-2331 0 -2455 -4 -124 -11 -368 -15 -542 l-7 -318 105 0 c58 0 133 -3 166 -6
l62 -7 2 -1291 3 -1290 959 -388 960 -388 772 130 c424 71 776 130 783 130 7
0 11 -33 11 -104 l0 -104 68 -40 69 -41 1978 -2 1978 -1 39 39 c35 35 45 56
82 179 l42 139 49 3 c28 2 1075 54 2329 117 1253 62 2282 117 2287 122 4 4 22
44 38 88 30 78 31 83 31 257 0 163 1 178 18 178 9 0 312 9 672 20 360 11 679
20 708 20 50 0 54 2 73 35 l21 35 159 0 159 0 0 -25 c0 -14 2 -25 4 -25 2 0
202 -45 444 -100 242 -55 462 -100 489 -100 l48 0 329 -961 c312 -913 327
-961 310 -974 -11 -7 -26 -19 -36 -27 -18 -15 -506 -672 -514 -693 -4 -8 190
-274 466 -642 260 -345 480 -636 489 -646 16 -17 36 -11 420 133 222 83 417
162 436 176 l33 25 827 -577 827 -577 -6 -31 c-8 -44 -48 -877 -43 -891 3 -6
194 -64 426 -130 231 -66 417 -123 413 -126 -4 -4 -75 -35 -158 -69 l-152 -63
97 -131 c54 -72 190 -256 304 -409 113 -153 210 -285 215 -294 8 -13 46 -4
304 76 l295 91 209 0 209 -1 333 -445 333 -445 -56 -67 c-30 -36 -55 -71 -55
-77 0 -5 144 -269 319 -585 270 -488 322 -575 342 -578 13 -2 274 -34 579 -70
l555 -67 3 -68 3 -67 1302 0 1302 0 791 -145 792 -145 1268 0 1269 0 315 345
315 345 87 180 87 180 246 0 247 0 69 50 c135 98 81 92 835 97 l660 5 217 198
c214 195 217 198 269 204 29 3 220 19 423 36 204 17 384 33 400 35 28 5 33 13
65 94 l34 89 225 6 c125 4 242 9 261 12 l35 5 20 -68 20 -68 41 -3 c64 -5
1684 94 2212 135 l482 38 0 22 0 23 1520 0 1520 0 0 -56 0 -55 335 7 335 7 0
-21 c0 -22 2 -22 184 -22 180 0 185 1 213 24 l28 24 455 7 455 7 30 29 31 29
2224 15 c1224 8 2336 15 2473 15 l247 0 0 45 0 45 -237 0 c-534 0 -2727 22
-2851 28 -73 4 -139 4 -145 1 -7 -4 -395 -4 -864 0 l-852 6 -28 27 -28 26
-457 7 c-429 7 -458 9 -474 26 -16 17 -34 19 -211 19 -157 0 -193 -3 -193 -14
0 -11 -51 -13 -307 -9 -170 2 -320 5 -335 7 -28 3 -28 2 -28 -61 l0 -63 -1520
0 -1520 0 0 85 c0 47 -1 85 -3 85 -1 0 -185 14 -407 30 -508 38 -2310 106
-2321 88 -4 -7 -15 -42 -25 -80 -14 -52 -22 -67 -33 -64 -9 3 -127 8 -262 11
l-246 7 -35 79 c-33 72 -39 79 -65 79 -15 0 -197 9 -403 20 -206 11 -395 20
-420 20 -43 1 -56 9 -264 170 l-218 170 -108 0 c-59 0 -168 3 -243 7 l-137 6
0 170 0 171 -37 72 -37 72 -71 4 c-40 3 -77 8 -85 13 -7 4 -55 7 -106 6 l-94
-2 0 35 c0 34 -5 39 -70 81 -66 43 -85 49 -354 112 l-285 68 -702 830 c-386
457 -714 844 -730 862 l-28 32 -423 11 c-233 6 -469 13 -526 16 l-103 6 -491
654 -492 654 -332 0 -331 0 -6 113 c-4 61 -7 169 -7 238 l0 125 -100 69 c-59
40 -103 77 -105 89 -3 12 -50 285 -105 607 l-99 585 -206 448 -206 448 -227
368 -227 369 -428 473 c-236 260 -450 488 -475 505 l-47 33 622 0 c523 0 623
2 630 14 4 8 32 40 62 71 l54 57 586 19 c322 10 601 19 619 19 l32 0 0 -240 0
-240 70 0 70 0 0 85 0 85 443 0 c1068 0 4143 23 4153 31 6 5 558 16 1255 25
684 9 1246 18 1248 20 2 2 2 7 -1 10 -3 3 -565 11 -1248 19 -979 10 -1244 16
-1251 26 -7 11 -1633 25 -4471 38 l-128 1 0 34 0 33 78 6 c42 4 199 9 347 13
188 4 279 10 300 19 24 11 413 15 2025 19 1533 5 4242 20 4338 25 6 1 12 5 12
11 0 11 -1037 17 -4280 25 -1353 3 -2078 9 -2084 15 -7 7 66 10 214 10 124 0
1166 7 2315 16 l2090 17 20 23 20 23 1800 7 c1500 5 1804 9 1827 20 22 12 163
14 800 14 1631 0 3218 13 3218 25 0 16 -551 23 -2530 31 -841 4 -1475 10
-1489 15 -13 6 -781 12 -1825 16 l-1801 6 -20 23 -20 23 -1390 12 c-764 6
-1391 12 -1393 13 -3 4 2411 16 3056 16 361 0 552 3 552 10 0 6 -38 10 -92 11
-51 0 -550 4 -1108 9 -558 5 -1348 13 -1755 16 -407 4 -742 10 -745 15 -3 4
-388 11 -855 16 l-850 8 965 7 c531 5 1240 11 1575 15 l610 8 -730 7 c-401 5
-1192 8 -1757 8 -679 0 -1028 3 -1028 10 0 6 -53 10 -137 10 -76 0 -168 3
-205 7 l-68 6 0 188 0 189 -70 0 -70 0 0 -276 0 -276 -62 6 c-35 3 -306 17
-603 31 -297 15 -549 28 -560 31 -11 2 -48 40 -83 84 l-63 80 -1027 0 -1027 1
-148 203 -149 203 -211 6 c-117 4 -435 12 -707 18 l-495 11 -278 54 c-265 51
-296 55 -652 79 l-374 27 -188 -40 -188 -39 -1585 21 -1586 22 -31 22 -32 22
-4 -22 c-2 -13 -5 25 -6 83 l-1 107 -34 26 c-34 26 -36 26 -208 26 l-174 0
-76 143 -75 142 -252 99 c-138 55 -249 101 -247 103 2 2 550 8 1217 13 1007 8
1226 13 1284 25 61 13 560 16 3710 25 2002 6 3826 10 4053 10 l412 0 0 25 0
25 -277 0 c-153 0 -1979 4 -4058 10 -3210 9 -3789 13 -3840 25 -49 12 -295 16
-1340 25 -703 6 -1280 12 -1281 13 -1 1 -6 227 -10 502 l-7 501 2114 17 c1163
9 2232 20 2377 23 l262 7 0 43 0 44 -202 0 c-112 0 -1148 9 -2303 20 -1155 11
-2133 20 -2172 20 l-73 0 0 50 0 50 -451 222 c-324 160 -445 224 -432 229 10
4 25 18 32 33 10 18 22 26 40 26 92 -2 2810 53 2829 56 12 2 22 11 22 19 0 13
-175 15 -1437 15 l-1438 0 -20 30 -20 30 -232 0 -232 0 -4173 2056 c-2295
1131 -4178 2061 -4184 2068 -9 8 -44 209 -44 249 0 4 74 7 165 7 207 0 215 3
215 81 l0 57 203 6 c111 3 747 15 1412 27 l1210 20 20 23 20 24 1630 26 c897
15 1663 27 1703 26 65 0 72 2 72 20 0 19 -7 20 -162 20 -90 0 -858 9 -1708 20
-1389 19 -1546 23 -1557 37 -11 14 -149 18 -1340 34 -730 10 -1367 18 -1415
19 l-88 0 0 160 0 160 -825 0 -825 0 0 -185 c0 -102 -2 -185 -4 -185 -2 0
-392 192 -867 426 -475 235 -932 459 -1014 499 l-150 72 -1760 -411z m19448
-8670 c124 -19 242 -27 502 -36 l340 -12 491 -104 492 -103 448 -182 c415
-167 534 -220 534 -236 0 -3 -861 -4 -1912 0 -1700 5 -1917 8 -1950 21 -33 14
-169 16 -1170 17 -623 1 -1146 4 -1161 8 -27 6 -20 12 120 115 81 60 151 112
155 115 4 4 25 66 46 140 39 132 39 133 24 192 -8 33 -12 62 -9 66 7 6 1340
18 2300 21 576 2 592 1 750 -22z m-3436 -468 c-1 -90 -3 -19 -3 157 0 176 2
249 3 163 2 -86 2 -230 0 -320z m6725 -514 c309 -201 458 -310 458 -334 0 -3
-105 -20 -232 -38 -263 -38 -282 -42 -319 -78 -26 -25 -54 -30 -836 -141
l-808 -115 -750 -18 -750 -17 -765 58 c-421 32 -1060 87 -1420 123 -360 35
-875 81 -1145 102 l-490 37 -60 32 -60 32 -3 140 -3 141 288 6 c159 3 1312 18
2563 31 1251 14 2348 28 2438 31 l162 6 0 34 c0 19 -1 35 -2 35 -2 1 -768 12
-1703 24 -1106 14 -1545 23 -1255 24 556 1 760 9 760 28 0 11 -183 13 -1083
13 -1085 0 -1717 7 -1717 20 0 4 531 10 1179 13 912 5 1186 10 1208 19 30 14
832 21 2940 26 l1042 2 363 -236z m-9882 -869 l0 -225 -157 0 -158 0 -25 29
-25 29 -665 21 c-366 12 -691 21 -722 21 l-58 0 0 175 0 175 905 0 905 0 0
-225z m10954 -102 c205 -227 206 -229 421 -562 l217 -335 185 -419 186 -419
168 -561 168 -561 -35 -42 -34 -42 0 -241 0 -241 -340 0 -340 0 0 53 c0 29 -5
58 -12 65 -9 9 -395 12 -1675 12 l-1662 0 -16 -30 c-8 -16 -15 -45 -15 -65 l0
-35 -107 0 -108 -1 -405 -446 -405 -446 -125 7 c-69 3 -147 6 -173 6 l-48 0 7
48 6 47 -750 248 c-413 136 -754 247 -759 247 -4 0 -16 -18 -25 -41 -13 -30
-21 -38 -31 -32 -8 4 -278 188 -600 408 l-585 400 36 37 c26 27 32 41 25 50
-6 7 -216 283 -468 613 -251 330 -463 606 -470 613 -10 11 -20 10 -55 -8 -23
-12 -43 -20 -45 -18 -2 2 -107 313 -234 692 -176 523 -228 692 -219 698 7 4
30 8 51 8 24 0 37 5 37 13 0 17 971 27 2556 27 572 0 1251 3 1507 7 l467 6 0
22 0 22 -1387 6 c-764 4 -1782 7 -2264 7 -790 0 -877 2 -883 16 -3 9 -6 89 -6
178 l0 162 44 16 c41 15 67 14 577 -33 294 -26 806 -76 1139 -109 333 -34 954
-87 1380 -119 l775 -59 761 14 761 13 859 135 859 135 65 -16 c64 -15 71 -15
400 30 184 24 354 45 377 46 l42 1 205 -227z"/>
</g>
</svg>
