<?xml version="1.0" standalone="no"?>
<!DOCTYPE svg PUBLIC "-//W3C//DTD SVG 20010904//EN"
 "http://www.w3.org/TR/2001/REC-SVG-20010904/DTD/svg10.dtd">
<svg version="1.0" xmlns="http://www.w3.org/2000/svg"
   viewBox="0 0 4166.000000 595.000000"
 preserveAspectRatio="xMidYMid meet">
<metadata>
Created by potrace 1.16, written by Peter Selinger 2001-2019
</metadata>
<g transform="translate(0.000000,595.000000) scale(0.100000,-0.100000)"
fill="#000000" stroke="none">
<path d="M5557 5932 c-11 -12 -17 -36 -17 -69 l0 -50 -57 -6 c-32 -4 -125 -9
-208 -13 -96 -4 -160 -12 -177 -21 -27 -13 -28 -17 -28 -86 l0 -72 -269 -54
-269 -53 -178 -149 -178 -149 -136 0 c-130 0 -138 -1 -158 -23 -12 -13 -22
-35 -22 -50 l0 -27 -240 0 -240 0 0 53 c0 95 69 87 -792 87 l-755 0 -21 -23
c-20 -21 -22 -34 -22 -152 l0 -128 -122 6 c-66 4 -156 7 -199 7 l-78 0 -38 55
c-29 41 -44 54 -63 55 -14 0 -281 -18 -595 -40 -314 -22 -582 -40 -597 -40
-24 0 -28 -4 -28 -30 0 -28 -3 -30 -35 -30 l-35 0 0 -505 0 -505 35 0 c32 0
35 -2 35 -30 0 -16 5 -30 11 -30 12 0 1147 -88 1197 -93 30 -3 37 2 75 55 l42
57 113 1 112 0 0 -269 0 -269 -183 -4 c-214 -4 -221 -6 -238 -85 -11 -47 -8
-76 25 -275 20 -123 39 -252 43 -287 11 -111 -71 -101 803 -101 l760 0 0 -160
0 -160 -58 0 c-33 0 -114 -3 -180 -7 l-122 -6 0 -29 c0 -28 0 -28 -65 -28
l-65 0 0 -815 0 -815 65 0 65 0 0 -40 0 -40 1278 0 1278 0 32 33 c30 31 32 37
32 105 l0 73 118 -6 c64 -3 414 -10 777 -15 363 -6 729 -13 813 -16 l152 -6 0
-68 c0 -114 -87 -102 868 -122 455 -9 830 -17 835 -17 4 -1 7 -32 7 -69 0 -54
4 -72 18 -85 17 -16 85 -17 770 -17 l752 0 0 -38 c0 -78 -82 -72 1021 -72 753
0 988 3 997 12 7 7 12 31 12 55 l0 43 158 0 c196 0 197 1 204 128 3 45 8 85
12 90 6 5 1981 62 1993 57 1 0 -29 -84 -66 -185 -38 -101 -67 -190 -64 -197 3
-8 23 -13 54 -13 27 0 49 -2 49 -4 0 -2 -7 -20 -15 -39 -8 -20 -15 -55 -15
-78 l0 -41 103 7 c56 3 2620 125 5697 271 10459 494 9410 442 9450 467 34 21
66 23 1045 68 969 45 1011 46 1030 29 19 -17 57 -16 943 26 814 39 926 46 949
62 24 15 102 20 613 44 529 24 587 25 602 11 15 -13 35 -15 125 -9 105 6 5368
256 5398 256 20 0 55 72 55 115 l0 35 -72 0 c-40 0 -478 -16 -973 -35 -495
-19 -912 -35 -926 -35 l-27 0 41 113 c22 61 44 116 48 121 8 9 1662 34 2361
35 l296 1 16 47 c9 26 16 64 16 86 l0 39 -1480 -7 -1480 -8 0 30 c0 17 6 36
13 42 10 8 415 12 1473 13 l1459 3 3 35 c2 19 1 80 -3 136 l-7 100 -1126 13
-1127 12 -111 74 -111 73 -14 184 c-14 182 -14 183 7 186 11 2 294 -9 630 -23
335 -14 637 -25 672 -25 l62 0 0 51 0 52 61 -7 c34 -3 79 -6 100 -6 l39 0 0
-49 c0 -48 0 -48 38 -55 20 -3 71 -6 113 -6 83 0 89 4 89 61 l0 29 100 0 100
0 0 -50 c0 -27 3 -50 8 -50 4 0 162 -7 352 -15 190 -8 373 -15 408 -15 l62 0
0 38 c0 22 -3 73 -6 115 l-7 77 -53 0 -54 0 0 49 0 49 -62 6 c-35 3 -1989 115
-4342 248 -3915 221 -4281 240 -4306 226 -24 -14 -79 -12 -586 16 l-560 30 4
66 c3 36 5 66 6 66 1 1 3499 -260 3609 -269 l57 -5 0 43 0 43 -52 6 c-29 3
-2382 179 -5228 391 -2846 212 -5184 388 -5195 390 -18 4 -20 11 -17 58 3 36
-1 57 -10 65 -19 16 -3517 278 -3538 265 -8 -6 -19 -35 -24 -65 l-9 -56 -36 4
c-20 2 -405 31 -856 64 -451 33 -838 63 -860 65 -37 5 -43 10 -69 60 l-28 55
-723 0 -722 0 -1268 95 c-698 52 -1281 95 -1297 95 -22 0 -28 -5 -28 -21 0
-20 -4 -21 -67 -15 -234 20 -243 20 -243 -2 0 -16 8 -22 33 -26 17 -3 559 -44
1202 -91 644 -47 1180 -86 1192 -88 22 -2 21 -3 -13 -82 -20 -44 -37 -81 -38
-82 -1 -1 -659 38 -1461 87 -803 49 -1470 90 -1482 90 -34 0 -37 -31 -23 -226
7 -96 11 -176 9 -179 -3 -2 -151 3 -329 10 l-325 14 -50 53 c-28 29 -83 89
-123 132 l-72 80 -203 12 c-111 7 -203 13 -204 13 -2 1 -3 60 -3 131 l0 130
70 0 c56 0 70 3 70 15 0 12 19 15 103 16 56 1 228 4 382 8 l280 6 -310 8
c-415 10 -455 13 -455 38 0 17 -8 19 -70 19 l-70 0 0 65 0 65 -59 0 -59 0 -11
50 c-6 28 -11 53 -11 55 0 3 113 5 250 5 l250 0 0 48 c0 44 -6 57 -76 152 -42
58 -97 129 -121 158 l-45 52 -918 0 -918 0 -12 35 -12 35 -321 0 -322 0 -90
90 -90 90 -127 0 -127 0 -25 55 -25 55 -1135 0 -1136 0 0 35 0 35 -1243 0
c-1192 0 -1245 -1 -1260 -18z m14662 -1557 c326 -24 594 -45 595 -47 2 -2 -1
-55 -6 -118 l-8 -115 -53 -51 -52 -52 -493 28 c-271 15 -495 30 -497 32 -5 5
-153 336 -160 358 -5 15 0 17 37 13 24 -2 310 -24 637 -48z"/>
</g>
</svg>
