<?xml version="1.0" standalone="no"?>
<!DOCTYPE svg PUBLIC "-//W3C//DTD SVG 20010904//EN"
 "http://www.w3.org/TR/2001/REC-SVG-20010904/DTD/svg10.dtd">
<svg version="1.0" xmlns="http://www.w3.org/2000/svg"
   viewBox="0 0 3156.000000 884.000000"
 preserveAspectRatio="xMidYMid meet">
<metadata>
Created by potrace 1.16, written by Peter Selinger 2001-2019
</metadata>
<g transform="translate(0.000000,884.000000) scale(0.100000,-0.100000)"
fill="#000000" stroke="none">
<path d="M6918 8757 l-206 -82 -732 -690 -732 -690 -42 3 c-485 32 -3251 282
-3617 327 l-47 5 -7 -132 c-4 -73 -10 -475 -14 -893 l-6 -760 -43 -105 -42
-106 -125 -107 -125 -107 -352 2 -353 3 -53 78 -53 77 -68 0 c-38 0 -81 2 -97
5 -27 5 -34 -2 -114 -117 l-85 -123 0 -1860 0 -1860 85 -123 85 -123 44 6 c24
3 68 5 97 5 l52 0 56 80 56 80 351 0 350 0 124 -100 c70 -57 143 -125 165
-156 l41 -55 10 -422 c5 -232 12 -442 15 -466 l6 -44 152 6 c83 4 237 10 342
13 l191 7 43 -62 c43 -62 44 -62 249 -166 l206 -105 2420 0 2420 0 93 87 c52
47 191 169 310 269 154 130 224 184 242 184 14 0 435 29 935 65 873 62 984 73
2740 254 l1830 190 1800 315 c1993 348 3361 591 3590 636 83 16 227 43 320 60
94 17 179 32 191 35 11 3 37 29 58 60 20 30 40 55 45 55 5 0 674 123 1487 274
814 151 1675 309 1914 351 631 110 833 148 1230 230 491 102 1563 355 2311
545 344 88 628 160 631 160 4 0 9 -13 13 -30 4 -16 10 -30 15 -30 4 0 38 9 74
20 37 12 432 121 880 244 l813 224 864 332 864 332 372 267 c204 146 365 267
357 269 -19 5 -18 19 3 31 16 8 15 10 -7 15 -14 3 -236 32 -495 66 l-470 60
-1295 0 -1296 0 -32 -54 -33 -54 -567 -7 c-312 -4 -1032 -5 -1600 -2 l-1033 5
-56 -112 -56 -113 -165 -6 c-91 -4 -229 -7 -307 -7 l-142 0 -30 78 -29 77
-149 3 -149 3 -81 -81 -81 -80 -344 15 c-190 9 -359 18 -376 21 -26 4 -37 16
-84 97 l-53 92 -1621 138 c-892 76 -1630 140 -1642 142 -15 3 -28 24 -49 74
-26 65 -30 70 -64 75 -20 4 -166 22 -326 41 -159 19 -307 38 -327 41 l-36 5
-59 -105 c-44 -80 -63 -106 -78 -106 -11 1 -336 36 -723 78 l-703 78 -132 131
-132 130 -1535 172 c-1292 144 -1798 196 -3200 326 -916 85 -1970 185 -2342
222 l-678 67 0 896 0 896 -48 47 -48 47 -874 -1 -875 0 -207 -82z"/>
</g>
</svg>
