<?xml version="1.0" standalone="no"?>
<!DOCTYPE svg PUBLIC "-//W3C//DTD SVG 20010904//EN"
 "http://www.w3.org/TR/2001/REC-SVG-20010904/DTD/svg10.dtd">
<svg version="1.0" xmlns="http://www.w3.org/2000/svg"
   viewBox="0 0 3527.000000 970.000000"
 preserveAspectRatio="xMidYMid meet">
<metadata>
Created by potrace 1.16, written by Peter Selinger 2001-2019
</metadata>
<g transform="translate(0.000000,970.000000) scale(0.100000,-0.100000)"
fill="#000000" stroke="none">
<path d="M1860 9682 c0 -17 -14 -19 -172 -25 -95 -4 -514 -7 -930 -7 -417 0
-758 -2 -758 -4 0 -2 70 -241 155 -532 85 -291 169 -577 187 -636 l31 -107
136 -3 c130 -3 136 -4 139 -24 2 -14 41 -48 115 -99 l113 -79 112 -327 c88
-258 119 -363 147 -500 19 -96 52 -232 73 -304 l38 -130 733 -5 732 -5 83
-200 c69 -166 86 -201 104 -203 22 -3 22 -5 22 -243 l0 -239 45 0 45 0 0 -45
0 -45 125 0 125 0 0 45 0 45 90 0 90 0 0 -1315 0 -1315 410 0 c358 0 410 -2
410 -15 0 -13 108 -15 910 -15 l910 0 0 -160 0 -160 1928 0 1927 0 587 247
588 248 0 238 0 237 1216 0 1216 0 154 92 153 93 1 48 0 47 990 0 c885 0 990
-2 990 -15 0 -14 20 -16 143 -14 l142 1 508 -246 509 -246 211 0 211 0 36 34
35 35 83 -45 82 -46 0 -139 0 -139 325 0 325 0 0 -140 0 -140 999 0 999 0 4
-40 4 -40 -916 0 -915 -1 -43 -38 c-26 -24 -40 -45 -37 -53 4 -10 -43 -60
-136 -146 l-143 -132 -287 0 -288 0 -5 -32 c-3 -18 -51 -611 -106 -1318 -55
-707 -103 -1306 -106 -1333 l-6 -47 364 0 363 1 584 609 c321 335 597 621 612
636 28 26 29 27 48 10 15 -14 32 -17 69 -15 28 2 48 0 45 -4 -2 -4 42 -6 99
-5 l103 3 613 627 612 627 0 485 0 486 160 0 160 0 0 330 0 330 235 0 235 0 0
25 0 25 915 0 c603 0 915 -3 915 -10 0 -6 65 -10 175 -10 110 0 175 4 175 10
0 7 440 10 1300 10 860 0 1300 -3 1300 -10 0 -6 65 -10 175 -10 110 0 175 4
175 10 0 6 93 10 258 10 l257 0 520 234 520 235 5 53 5 54 325 -158 325 -159
1365 6 1365 6 555 54 c394 39 597 63 698 83 78 16 144 31 146 33 2 2 -1 36 -6
74 -7 53 -6 79 5 110 l14 40 834 5 834 5 178 45 177 44 0 38 c0 38 0 38 -40
38 -31 0 -40 4 -40 18 0 9 11 112 25 227 25 208 31 334 19 393 -6 28 -14 33
-113 69 l-106 39 3 51 c2 35 -1 52 -10 55 -7 3 -330 120 -718 261 l-705 256
-525 124 -525 125 -350 27 -350 28 -87 48 -88 49 -432 0 -433 0 -738 66 c-406
36 -740 64 -743 61 -3 -2 -15 -48 -28 -101 -13 -53 -25 -98 -27 -100 -2 -2
-309 -36 -683 -75 l-678 -71 -53 -45 -52 -45 -257 0 -256 0 -783 -130 c-430
-72 -792 -132 -804 -135 -18 -4 -23 -12 -23 -35 l0 -30 -1190 0 c-1127 0
-1190 1 -1190 18 0 20 -75 53 -877 383 l-531 219 -125 0 -125 0 -198 75 -199
75 -1327 0 c-773 0 -1328 4 -1330 9 -1 5 -217 97 -480 205 l-476 196 -620 0
-620 0 -618 195 -617 195 -1211 0 -1211 0 -262 112 -263 113 0 152 c0 136 -2
152 -17 157 -10 3 -202 57 -428 121 l-410 115 -1177 0 -1178 0 0 -145 0 -145
-150 0 -150 0 0 250 0 250 -475 0 -475 0 0 155 0 155 -531 0 -531 0 -73 60
-73 60 -204 0 -203 0 -273 74 c-153 42 -282 82 -292 91 -17 15 -20 34 -22 149
l-3 131 -57 3 c-34 2 -61 9 -68 17 -10 12 -41 15 -144 15 -72 0 -250 11 -396
25 -229 21 -318 25 -657 25 -386 0 -393 0 -393 20 0 19 -7 20 -140 20 -133 0
-140 -1 -140 -20 0 -13 -7 -20 -20 -20 -13 0 -20 7 -20 19 0 28 -57 32 -355
27 -137 -2 -310 -4 -382 -5 -126 -1 -133 -2 -133 -21 0 -20 -7 -20 -269 -20
-148 0 -276 3 -285 6 -9 3 -16 15 -16 25 0 17 -9 19 -100 19 -90 0 -100 -2
-100 -18z m26220 -4895 l0 -53 -383 -177 -384 -177 -211 0 c-135 0 -212 4
-212 10 0 6 -20 10 -45 10 l-45 0 0 90 0 90 103 0 102 0 415 129 415 129 123
1 122 1 0 -53z m-12220 -121 c0 -161 0 -164 -22 -170 -13 -3 -450 -6 -973 -6
l-950 0 170 170 170 170 802 0 803 0 0 -164z m390 -15 c85 -38 280 -124 433
-191 l277 -122 0 -82 0 -82 191 -99 190 -100 -75 -3 -75 -3 -542 256 c-297
140 -547 262 -555 270 -10 10 -14 42 -14 119 0 58 4 106 8 106 4 0 77 -31 162
-69z m7400 -161 l0 -90 -29 0 c-16 0 -31 -5 -33 -10 -2 -7 -291 -9 -857 -8
l-854 3 114 97 114 97 773 1 772 0 0 -90z m2970 0 l0 -90 -40 0 c-22 0 -40 -4
-40 -10 0 -7 -440 -10 -1300 -10 -860 0 -1300 3 -1300 10 0 6 -13 10 -30 10
l-30 0 0 90 0 90 1370 0 1370 0 0 -90z m-5974 -2086 c-3 -7 -13 -10 -23 -8
-14 4 -43 -22 -111 -95 l-92 -99 -65 -4 -65 -3 73 75 c39 41 119 123 177 183
l105 107 3 -71 c2 -40 1 -78 -2 -85z"/>
</g>
</svg>
