<?xml version="1.0" standalone="no"?>
<!DOCTYPE svg PUBLIC "-//W3C//DTD SVG 20010904//EN"
 "http://www.w3.org/TR/2001/REC-SVG-20010904/DTD/svg10.dtd">
<svg version="1.0" xmlns="http://www.w3.org/2000/svg"
   viewBox="0 0 4342.000000 2093.000000"
 preserveAspectRatio="xMidYMid meet">
<metadata>
Created by potrace 1.16, written by Peter Selinger 2001-2019
</metadata>
<g transform="translate(0.000000,2093.000000) scale(0.100000,-0.100000)"
fill="#000000" stroke="none">
<path d="M25580 20800 l0 -130 -70 0 -70 0 0 -36 0 -35 -52 5 c-29 3 -535 8
-1124 12 l-1071 6 -161 -111 -160 -111 -639 -1 -638 0 -677 -127 -678 -127
-1564 -1233 c-1562 -1231 -1565 -1233 -1568 -1271 -3 -39 -4 -40 -1928 -1556
-1059 -835 -1929 -1519 -1935 -1521 -5 -2 -625 -95 -1377 -207 l-1366 -204
-49 -40 c-26 -22 -535 -441 -1131 -931 l-1084 -892 -989 0 -989 0 0 -149 c0
-146 0 -149 -22 -153 -531 -107 -1894 -394 -1896 -400 -2 -4 -25 -8 -51 -8
l-47 0 -13 -95 -14 -95 -88 0 -89 0 0 -40 0 -40 -180 0 -180 0 0 243 0 244
-322 6 c-178 4 -569 7 -870 7 l-548 0 0 -55 c0 -64 15 -56 -167 -83 l-122 -19
-3 76 -3 77 -812 -126 c-446 -69 -814 -127 -817 -130 -2 -3 -6 -869 -7 -1925
l-2 -1920 799 -127 c440 -70 807 -127 817 -128 16 0 17 22 17 320 l0 320 145
0 145 0 0 -325 0 -325 655 0 655 0 0 320 0 320 255 0 255 0 0 -35 0 -35 145 0
145 0 0 -135 0 -135 2420 0 2420 0 0 -25 c0 -23 -4 -25 -45 -25 l-45 0 0 -265
0 -265 45 0 45 0 0 -358 0 -359 144 -344 145 -344 419 -3 420 -2 57 75 58 76
147 -223 c80 -123 244 -370 363 -550 l216 -328 986 0 985 0 0 -597 1 -598 504
-1210 504 -1210 1863 -6 c1025 -3 2153 -7 2508 -8 l645 -1 49 -133 c34 -89 85
-195 160 -329 l111 -197 460 -3 460 -3 16 -250 c9 -137 17 -251 18 -252 0 -2
45 -3 100 -3 l99 0 6 228 c4 125 9 239 12 254 6 28 6 28 90 28 l84 0 0 328 c0
180 3 344 6 364 l7 38 450 2 451 3 109 273 109 272 308 0 308 0 49 118 c27 64
189 453 359 864 l309 747 6 -82 5 -82 2 83 2 82 190 0 189 0 4 -83 3 -82 2 83
2 82 195 0 195 0 0 -80 c0 -47 4 -80 10 -80 6 0 10 33 10 80 l0 80 64 0 c35 0
66 5 68 10 2 7 158 13 450 17 l448 6 228 -151 227 -152 338 0 337 0 0 155 0
155 208 3 207 2 -207 3 -208 2 0 95 0 95 250 0 c216 0 250 2 250 15 0 13 41
15 310 15 l310 0 0 -125 c0 -104 2 -125 15 -125 13 0 15 -26 15 -174 0 -145
-2 -175 -15 -180 -11 -4 -15 -23 -15 -80 l0 -74 50 -31 50 -31 241 0 240 0 51
106 c30 63 58 108 69 113 28 10 185 341 167 352 -10 6 2 38 47 129 l59 120
188 0 188 0 1 -57 c1 -32 3 -47 6 -33 2 14 6 40 9 58 l5 32 134 0 135 0 0
-124 c0 -101 3 -125 15 -130 13 -4 15 -33 15 -175 0 -141 -2 -170 -15 -175
-11 -4 -15 -23 -15 -80 l0 -74 48 -31 49 -31 241 0 240 0 51 106 c32 67 57
108 69 111 13 3 44 58 96 166 76 161 84 182 68 189 -5 2 18 58 50 125 l59 123
1154 0 1155 0 0 -378 0 -378 -55 -18 -55 -17 0 -355 0 -354 235 0 c150 0 235
-4 235 -10 0 -7 229 -10 668 -10 l667 0 75 30 75 31 445 737 446 737 109 3
110 3 393 -127 c216 -70 394 -125 396 -123 2 2 97 292 212 643 l209 640 125
107 125 107 43 258 c24 143 46 267 48 277 5 16 60 17 972 17 l967 0 75 74 75
73 220 38 220 39 1180 6 c649 4 1638 8 2198 9 897 1 1017 3 1017 16 0 13 -134
15 -1150 15 -760 0 -1150 3 -1150 10 0 7 -349 10 -1027 10 l-1028 0 -245 41
c-135 23 -248 47 -252 53 -5 8 82 12 315 16 l322 5 -330 3 -331 2 -54 55 -54
55 -316 0 -316 0 -54 55 c-30 30 -59 55 -65 55 -6 0 -26 16 -45 35 l-34 35
-160 -1 c-191 -1 -210 -5 -214 -42 -2 -15 1 -27 7 -27 7 0 11 -23 11 -55 l0
-55 -193 0 -193 0 -54 55 c-30 30 -59 55 -65 55 -6 0 -26 16 -45 35 -20 21
-44 35 -58 35 -20 0 -23 4 -18 23 11 43 91 616 86 620 -3 2 -121 101 -262 220
l-256 216 -364 91 c-200 50 -380 95 -400 101 l-38 10 0 83 c0 58 -4 85 -12 88
-7 3 -373 67 -813 143 l-800 138 -795 -157 c-437 -87 -803 -160 -813 -162 -23
-7 -124 -208 -243 -487 -83 -194 -94 -225 -94 -278 l0 -59 -70 0 c-56 0 -70 3
-70 15 0 12 -16 15 -77 16 -386 5 -782 15 -788 20 -3 4 -17 49 -31 100 -14 52
-41 121 -61 155 -31 53 -43 65 -99 92 l-64 32 -985 0 -985 0 0 310 c0 171 3
310 8 310 19 0 2154 170 2200 175 l52 6 0 255 0 254 -322 820 -322 820 -1418
0 -1418 0 0 580 0 580 -397 0 -398 1 79 32 c50 20 82 40 87 52 4 11 8 48 8 83
1 34 5 62 11 62 6 0 10 269 10 778 0 734 20 2236 30 2245 3 2 197 7 433 11
l427 7 0 -66 0 -65 45 0 44 0 4 -62 3 -63 2 63 2 62 115 0 114 0 4 -62 3 -63
2 63 2 62 114 0 115 0 4 -52 3 -53 2 53 2 52 255 0 255 0 0 40 0 40 560 0
c367 0 560 3 560 10 0 7 673 10 2000 10 1993 0 2000 0 2000 20 0 20 -7 20
-2000 20 l-2000 0 0 55 0 55 -560 0 -560 0 0 50 0 50 -255 0 -254 0 -4 83 -3
82 -2 -82 -2 -83 -115 0 -114 0 -4 83 -3 82 -2 -82 -2 -83 -115 0 -114 0 -4
83 -3 82 -2 -82 -2 -83 -45 0 c-33 0 -45 -4 -45 -15 0 -13 -54 -15 -430 -15
l-430 0 0 315 0 315 -235 0 -234 0 4 28 c22 122 45 412 32 412 -5 0 -472 70
-504 75 l-33 6 0 988 0 989 28 5 c15 2 136 22 270 43 l242 39 0 177 0 178 65
0 65 0 0 810 0 810 355 0 355 0 0 65 0 65 920 0 c811 0 920 2 920 15 0 13 369
15 3265 15 l3265 0 0 35 0 35 -3265 0 -3265 0 0 85 0 85 -920 0 -920 0 0 90 0
90 -410 0 -409 0 -4 133 -3 132 -2 -132 -2 -133 -195 0 -195 0 0 130 c0 80 -4
130 -10 130 -6 0 -10 -50 -10 -130 l0 -130 -185 0 -185 0 0 130 c0 80 -4 130
-10 130 -6 0 -10 -50 -10 -130z m2840 -16517 c0 -169 5 -159 -101 -168 -49 -3
-89 -11 -89 -16 0 -5 -224 -9 -560 -9 l-560 0 0 -25 c0 -18 -5 -25 -20 -25
-19 0 -20 -7 -20 -90 l0 -90 -310 0 -310 0 0 85 0 85 -250 0 -250 0 0 185 0
185 1235 0 1235 0 0 -117z m1140 -8 l0 -125 581 0 c516 0 580 -2 569 -15 -11
-13 -149 -15 -1135 -15 l-1122 0 -7 83 c-4 45 -9 108 -13 140 l-6 57 567 0
566 0 0 -125z m2304 119 c14 -5 16 -27 16 -144 l0 -137 53 -15 52 -15 3 -111
3 -112 -461 0 -460 0 0 175 0 175 -50 0 c-38 0 -50 4 -50 15 0 13 -71 15 -575
15 l-575 0 0 80 0 80 1014 0 c558 0 1021 -3 1030 -6z m-3554 -414 c0 -5 22
-10 49 -10 55 0 61 -7 61 -71 l0 -39 -170 0 c-93 0 -170 2 -170 5 0 3 14 32
30 65 l30 60 85 0 c50 0 85 -4 85 -10z m400 -65 l0 -55 -136 0 -136 0 6 23 c3
12 6 37 6 55 l0 32 130 0 130 0 0 -55z m2050 0 l54 -55 -547 0 c-301 0 -547 2
-547 5 0 3 11 28 25 55 l25 50 468 0 468 0 54 -55z m-6059 -285 l91 -60 -403
0 c-222 0 -448 3 -501 7 -94 6 -98 7 -98 30 l0 23 405 0 405 0 0 30 c0 17 2
30 5 30 2 0 46 -27 96 -60z m-1331 -25 l0 -25 -186 0 c-102 0 -183 3 -181 8 2
4 7 15 10 25 6 15 24 17 182 17 l175 0 0 -25z m400 0 l0 -25 -195 0 -195 0 0
25 0 25 195 0 195 0 0 -25z"/>
</g>
</svg>
