<?xml version="1.0" standalone="no"?>
<!DOCTYPE svg PUBLIC "-//W3C//DTD SVG 20010904//EN"
 "http://www.w3.org/TR/2001/REC-SVG-20010904/DTD/svg10.dtd">
<svg version="1.0" xmlns="http://www.w3.org/2000/svg"
   viewBox="0 0 3340.000000 4086.000000"
 preserveAspectRatio="xMidYMid meet">
<metadata>
Created by potrace 1.16, written by Peter Selinger 2001-2019
</metadata>
<g transform="translate(0.000000,4086.000000) scale(0.100000,-0.100000)"
fill="#000000" stroke="none">
<path d="M14203 40628 c-164 -127 -299 -232 -300 -233 -4 -2 -629 -1846 -1024
-3020 -206 -610 -765 -2302 -1244 -3759 l-870 -2650 -169 -36 c-108 -22 -172
-41 -178 -50 -25 -45 -878 -2553 -878 -2584 0 -24 -5 -36 -14 -36 -7 0 -352
76 -767 169 -415 93 -769 172 -787 176 -26 5 -53 31 -137 134 l-104 127 -237
54 -237 54 -95 78 c-52 43 -101 78 -110 78 -8 0 -166 12 -351 26 l-336 26
-299 69 c-164 38 -304 73 -310 76 -6 4 -42 31 -79 61 l-68 54 -591 117 c-326
64 -593 121 -595 127 -2 5 65 269 147 588 83 318 150 584 150 591 0 7 -9 15
-20 18 -17 4 -23 -5 -43 -72 -12 -42 -92 -309 -177 -594 l-155 -518 -35 5
c-19 3 -48 8 -65 11 -30 6 -31 4 -109 -132 -43 -76 -105 -174 -136 -218 -32
-44 -68 -101 -81 -127 l-22 -46 -91 -16 c-50 -9 -176 -31 -280 -49 l-189 -32
-15 -43 -14 -42 -331 0 -332 0 -655 -499 -655 -498 -120 -12 c-86 -8 -1069
-75 -1180 -80 -7 -1 -10 -26 -7 -68 3 -61 7 -71 35 -97 18 -16 67 -62 110
-101 l77 -73 0 -368 0 -369 858 -374 859 -374 61 -76 62 -77 509 -104 c491
-100 509 -105 501 -124 -5 -12 -67 -162 -139 -335 l-131 -313 0 -104 0 -104
610 0 611 0 137 -79 c75 -43 358 -192 627 -331 270 -139 500 -258 512 -266 24
-15 1185 -434 1203 -434 7 0 278 -95 604 -211 l591 -211 208 -191 207 -192 0
-67 0 -68 73 0 c79 0 102 -12 109 -57 2 -14 28 -39 72 -70 54 -37 72 -56 78
-80 6 -23 14 -33 28 -33 14 0 22 -10 29 -37 69 -263 124 -480 145 -578 25
-113 56 -219 77 -257 5 -10 6 -24 3 -33 -9 -22 52 -84 75 -78 10 2 23 -3 30
-11 12 -14 51 -16 295 -16 l282 0 17 -29 c15 -26 17 -74 17 -510 l0 -481 381
-903 c210 -496 384 -908 389 -916 4 -7 38 -33 76 -56 l69 -41 9 -112 9 -112
58 0 58 0 -10 -30 c-10 -28 -15 -30 -60 -30 l-49 0 0 -120 0 -120 -80 -200
c-44 -110 -80 -205 -80 -211 0 -6 10 -9 23 -7 18 2 37 33 97 155 l76 153 534
-1511 c294 -831 537 -1514 540 -1518 3 -4 323 -164 712 -356 396 -195 710
-355 713 -364 4 -9 505 -1447 1115 -3196 l1109 -3180 685 -2730 c377 -1501
686 -2731 686 -2733 0 -2 64 -2 143 -1 l142 3 1045 -739 c575 -406 1051 -743
1058 -750 10 -9 -33 -104 -208 -457 -121 -246 -220 -449 -220 -453 0 -3 16 -5
36 -3 l35 3 219 415 c121 228 221 419 223 424 2 5 94 -55 205 -133 l202 -143
373 11 c404 12 557 20 557 30 -1 3 -38 272 -83 598 l-83 592 40 5 c23 3 76 8
118 12 51 4 84 11 97 22 10 10 134 181 276 380 l257 364 -172 1771 c-94 975
-328 3345 -520 5267 -192 1922 -458 4618 -590 5990 l-240 2495 -52 123 -51
122 -686 0 c-668 1 -687 1 -721 21 l-35 20 697 -5 696 -4 -4 51 c-10 101 -31
402 -29 405 1 1 1685 5 3743 9 l3742 6 0 44 0 43 -1867 0 c-1028 0 -2714 3
-3749 7 l-1881 6 -17 239 c-10 132 -16 241 -14 243 4 4 3132 25 3696 25 l382
0 0 30 0 30 -292 0 c-438 0 -3793 22 -3796 25 -2 2 -82 1017 -82 1048 0 4 54
7 120 7 l120 0 0 1100 c0 1041 1 1100 18 1100 9 0 179 14 377 30 l360 31 1280
-154 1280 -155 126 -60 126 -60 29 -123 30 -124 -39 -1159 -38 -1159 21 -22
c19 -20 36 -24 116 -30 52 -4 97 -5 100 -2 3 2 195 671 427 1485 l422 1481
424 288 425 288 19 57 c18 57 18 58 -2 86 l-20 29 52 158 53 159 40 10 c38 11
40 14 54 74 l15 62 142 0 143 0 0 94 0 95 -138 99 -139 99 -349 67 c-192 37
-404 78 -472 91 -100 19 -126 27 -141 47 l-19 23 524 3 524 2 0 55 0 55 4145
0 4145 0 0 75 0 75 -4145 0 -4145 0 0 45 0 45 -831 0 c-788 0 -831 1 -824 18
18 44 17 49 -14 55 -27 6 -31 10 -31 41 0 45 -33 72 -99 81 -42 6 -56 14 -107
66 l-58 59 257 0 257 0 0 25 0 25 -283 0 -282 0 -729 729 c-402 402 -734 727
-739 724 -5 -3 316 -332 714 -730 l724 -725 -535 5 -535 4 -1600 338 c-880
186 -1601 339 -1601 339 -6 4 -299 1731 -925 5456 -401 2390 -822 4876 -934
5525 -373 2155 -524 3029 -536 3113 l-13 84 -54 35 c-42 26 -272 108 -943 333
l-889 299 -297 -231z m-484 -1633 c156 -29 161 -29 161 -11 0 9 7 12 18 9 17
-4 10 -37 -88 -379 -59 -206 -109 -377 -111 -378 -3 -3 -342 -76 -353 -76 -1
0 26 84 61 188 l64 187 -36 30 -36 30 73 213 c62 181 76 212 93 212 11 0 80
-11 154 -25z m-364 -1150 c163 -29 165 -29 165 -12 0 9 10 12 30 9 17 -2 30
-10 30 -19 0 -15 -189 -675 -195 -682 -10 -10 -415 -85 -412 -76 2 5 28 83 58
172 l53 163 -34 29 -35 29 64 189 c35 103 68 198 73 211 7 19 13 22 36 18 15
-4 90 -17 167 -31z m-373 -1116 c142 -26 173 -29 193 -19 27 14 70 7 78 -13 4
-12 -186 -693 -197 -704 -2 -2 -102 -24 -222 -49 -121 -24 -227 -47 -236 -50
-14 -4 -5 30 43 173 32 97 59 185 59 194 0 10 -13 28 -30 41 l-30 23 72 218
c48 142 77 217 86 217 8 0 91 -14 184 -31z m-3195 -8525 c-3 -3 -12 -4 -19 -1
-8 3 -5 6 6 6 11 1 17 -2 13 -5z m13380 -2976 l52 -51 -25 -14 c-20 -10 -46
-11 -117 -3 -124 13 -155 12 -159 -3 -2 -10 -73 2 -298 49 -162 35 -302 65
-310 67 -8 3 169 5 395 6 l409 1 53 -52z m-11703 -6858 l-39 -29 -423 -1 -423
0 16 30 16 30 446 0 447 0 -40 -30z"/>
</g>
</svg>
