<?xml version="1.0" standalone="no"?>
<!DOCTYPE svg PUBLIC "-//W3C//DTD SVG 20010904//EN"
 "http://www.w3.org/TR/2001/REC-SVG-20010904/DTD/svg10.dtd">
<svg version="1.0" xmlns="http://www.w3.org/2000/svg"
   viewBox="0 0 4747.000000 986.000000"
 preserveAspectRatio="xMidYMid meet">
<metadata>
Created by potrace 1.16, written by Peter Selinger 2001-2019
</metadata>
<g transform="translate(0.000000,986.000000) scale(0.100000,-0.100000)"
fill="#000000" stroke="none">
<path d="M45300 9761 l-235 -97 -3 -51 -3 -51 -72 -6 c-134 -10 -1889 -37
-4276 -66 -1306 -16 -2377 -32 -2381 -37 -4 -4 -255 -290 -559 -635 l-551
-627 0 -74 c0 -41 -3 -102 -6 -136 l-7 -61 -154 0 -154 0 -106 110 c-87 91
-110 110 -134 110 -17 0 -47 9 -69 20 -22 11 -57 20 -80 20 l-40 0 0 58 c0 57
1 59 35 75 20 10 60 17 90 17 l55 0 0 146 0 146 -52 59 -53 59 -272 0 -272 0
-31 45 -31 45 -112 0 c-78 1 -120 5 -137 15 -20 11 -83 14 -322 15 l-298 0 -6
-25 -6 -25 -139 0 -139 0 -6 25 -6 25 -400 0 -400 0 -33 -29 c-22 -19 -49 -31
-81 -35 -77 -12 -94 -17 -94 -32 0 -18 -26 -18 -33 -1 -4 12 -29 10 -134 -9
-70 -13 -143 -26 -160 -29 l-33 -6 0 -69 0 -70 80 0 80 0 0 -45 0 -45 -989 0
-988 0 -134 -55 c-74 -31 -135 -60 -137 -65 -2 -6 -64 -10 -143 -10 -84 0
-149 -4 -161 -11 -11 -6 -237 -31 -502 -55 -264 -24 -500 -46 -523 -49 l-42
-6 -3 -87 -3 -87 -115 -3 c-63 -1 -119 -7 -124 -12 -13 -13 -246 -13 -246 0 0
6 -42 10 -105 10 -63 0 -105 -4 -105 -10 0 -6 -46 -10 -119 -10 -69 0 -122 4
-126 10 -8 13 -202 13 -210 0 -8 -13 -232 -13 -240 0 -3 6 -50 10 -105 10
l-99 0 -38 -55 -38 -54 -72 -1 c-71 0 -71 0 -78 29 -5 25 -12 29 -52 35 -25 3
-79 6 -119 6 l-74 0 0 -35 0 -35 -535 0 -535 0 0 35 0 35 -60 0 c-59 0 -60 0
-68 -32 l-8 -33 -142 -3 -142 -3 0 71 0 70 -170 0 c-126 0 -178 -4 -198 -14
-35 -18 -222 -1 -222 21 0 10 -26 13 -118 13 -130 0 -1155 110 -1205 129 -16
6 -71 11 -123 11 l-94 0 0 35 0 35 -275 0 -275 0 0 721 c0 477 -3 727 -10 740
-10 18 -27 19 -584 19 -560 0 -573 0 -591 20 -17 19 -31 20 -301 20 -273 0
-284 -1 -296 -20 -11 -17 -24 -20 -83 -20 l-71 0 -373 -265 -374 -265 -644 0
-645 0 -102 70 -102 70 -102 0 -102 0 0 -70 0 -70 -76 0 -76 0 -102 70 -102
70 -102 0 -102 0 0 -70 0 -70 -76 0 -75 0 -103 70 -102 71 -99 -3 -100 -3 -3
-67 -3 -68 -97 0 -96 0 -737 -395 c-406 -217 -741 -395 -746 -395 -5 0 -15 40
-22 89 l-12 88 -76 7 c-42 3 -96 6 -120 6 l-43 0 0 -45 0 -45 -535 0 -535 0 0
45 0 45 -59 0 -58 0 -17 -137 c-10 -76 -19 -144 -21 -150 -4 -10 -94 -13 -410
-13 l-405 0 -32 35 -33 36 -190 12 -190 12 -3 168 -2 167 365 0 365 0 0 43 c0
38 -5 48 -52 93 -29 28 -99 90 -154 137 l-101 87 -204 10 c-264 13 -1414 13
-1677 0 l-203 -10 -102 -87 c-56 -48 -126 -109 -154 -137 -48 -45 -53 -55 -53
-93 l0 -43 355 0 355 0 0 -168 0 -168 -181 -12 c-165 -10 -184 -13 -205 -33
-13 -12 -24 -28 -24 -36 0 -11 -78 -13 -417 -13 -230 0 -776 -9 -1213 -20
-437 -11 -824 -20 -859 -20 l-63 0 4 35 c2 21 0 35 -7 35 -5 0 -298 34 -650
75 l-639 75 -262 0 c-146 0 -265 4 -268 9 -4 5 -108 7 -249 4 -216 -5 -244 -7
-257 -23 -13 -16 -63 -21 -392 -45 l-376 -27 -226 191 -226 191 -990 0 -990 0
0 -280 c0 -154 -1 -280 -3 -280 -2 0 -805 -58 -1785 -130 -981 -71 -1789 -130
-1797 -130 -10 0 -15 -10 -15 -29 0 -33 4 -32 -182 -47 -49 -3 -78 -10 -78
-17 0 -7 -34 -203 -75 -437 l-74 -425 23 -20 c13 -11 693 -603 1510 -1315
l1487 -1295 562 -148 c309 -81 1258 -320 2108 -532 l1546 -384 74 -48 74 -48
357 -5 358 -5 305 -305 305 -305 -380 -5 -380 -5 78 -83 77 -83 415 -51 415
-52 918 -3 c716 -3 917 -7 917 -16 0 -7 37 -49 83 -95 l82 -82 58 0 c44 0 57
-3 57 -15 0 -13 34 -15 245 -15 211 0 245 2 245 15 0 12 17 15 93 15 l93 0 48
55 47 55 65 0 64 0 0 -120 0 -120 -65 0 -65 0 0 -380 0 -380 185 0 185 0 0
380 0 380 -65 0 -65 0 0 120 0 120 170 0 170 0 0 -120 0 -120 -65 0 -65 0 0
-380 0 -380 190 0 190 0 0 380 0 380 -65 0 -65 0 0 120 0 120 170 0 170 0 0
-120 0 -120 -65 0 -65 0 0 -380 0 -380 185 0 185 0 0 380 0 380 -60 0 -60 0 0
120 0 120 165 0 165 0 0 -120 0 -120 -65 0 -65 0 0 -380 0 -380 190 0 190 0 0
380 0 380 -65 0 -65 0 0 120 0 120 173 0 172 0 87 87 c53 54 88 98 90 113 2
19 9 9 29 -45 l27 -70 1062 -5 1062 -5 228 -355 c127 -196 226 -359 222 -366
-4 -6 -43 -61 -87 -122 -62 -86 -86 -112 -109 -116 -16 -3 -104 -6 -197 -6
l-168 0 -37 57 -36 57 -52 -56 -51 -57 -328 -7 -327 -6 0 -69 c0 -38 4 -69 9
-69 6 0 11 -15 13 -32 3 -29 17 -44 112 -115 l108 -83 312 0 311 0 57 -83 56
-83 -38 -50 -38 -50 65 -156 65 -157 -62 -79 -61 -80 83 -121 83 -121 587 0
586 0 134 155 133 155 152 0 152 0 19 53 c11 28 23 62 26 75 l7 22 -235 0
c-130 0 -236 3 -236 6 0 3 84 122 187 265 l187 259 494 0 495 0 358 -194 c197
-107 366 -196 376 -198 10 -2 19 -12 21 -23 13 -76 23 -94 66 -119 46 -27 106
-33 175 -20 24 5 31 12 31 30 l0 24 265 0 265 0 0 -270 0 -270 856 0 856 0
361 185 362 185 2131 0 2131 0 286 137 287 137 0 158 0 158 3475 0 3475 0 703
-136 702 -137 570 2 c518 1 774 9 2795 87 1224 46 3257 118 4518 158 1261 41
2295 75 2296 77 2 2 6 282 8 622 l4 618 -964 932 c-531 513 -984 950 -1008
972 l-44 40 1440 875 1439 875 3 900 3 900 137 240 138 240 0 683 0 682 -215
0 -215 0 0 135 0 135 -752 -1 -753 0 -235 -98z m-31860 -1121 l0 -160 -310 0
-310 0 0 160 0 160 310 0 310 0 0 -160z"/>
</g>
</svg>
