<?xml version="1.0" standalone="no"?>
<!DOCTYPE svg PUBLIC "-//W3C//DTD SVG 20010904//EN"
 "http://www.w3.org/TR/2001/REC-SVG-20010904/DTD/svg10.dtd">
<svg version="1.0" xmlns="http://www.w3.org/2000/svg"
   viewBox="0 0 3665.000000 1645.000000"
 preserveAspectRatio="xMidYMid meet">
<metadata>
Created by potrace 1.16, written by Peter Selinger 2001-2019
</metadata>
<g transform="translate(0.000000,1645.000000) scale(0.100000,-0.100000)"
fill="#000000" stroke="none">
<path d="M5790 16400 l0 -50 -35 0 c-23 0 -35 -5 -35 -14 0 -20 -32 -26 -139
-26 -87 0 -98 -2 -175 -39 -46 -21 -114 -44 -152 -51 -58 -11 -81 -22 -140
-67 l-71 -53 -71 -153 -72 -152 -88 -8 -88 -9 -157 -381 c-95 -232 -200 -510
-267 -709 -61 -180 -168 -482 -238 -670 l-127 -343 -278 -389 -278 -388 -45
-221 -44 -221 0 -657 0 -657 -382 -6 c-211 -4 -578 -10 -816 -14 l-434 -7
-103 -235 c-66 -151 -109 -236 -119 -238 -9 -2 -16 -13 -16 -28 l0 -24 -140 0
-140 0 0 25 c0 24 -3 25 -55 25 -52 0 -55 -1 -55 -25 l0 -25 -260 0 -260 0 0
-234 0 -234 -85 -36 -85 -37 -138 41 c-75 22 -152 40 -170 40 l-32 0 0 -1035
0 -1035 43 0 c23 0 125 25 227 55 101 30 197 55 212 55 l28 0 0 -295 0 -295
1030 0 1030 0 0 425 0 425 249 0 249 0 6 -53 7 -53 497 -212 497 -211 778 -7
777 -7 0 -83 0 -84 -341 0 -341 0 -181 -70 c-169 -66 -195 -80 -382 -202 -110
-72 -201 -132 -202 -133 -2 -1 -5 -24 -9 -51 -11 -96 -10 -94 -59 -94 -43 0
-57 -9 -281 -177 l-236 -177 -74 -148 -74 -148 0 -330 0 -330 -33 0 c-26 0
-43 -10 -80 -48 l-47 -48 0 -875 0 -875 44 -220 45 -221 277 -389 278 -389
119 -320 c66 -176 174 -482 242 -680 75 -221 182 -503 275 -730 84 -203 153
-371 155 -373 1 -1 41 -6 89 -10 l86 -7 72 -152 c71 -152 71 -153 142 -207 62
-47 81 -56 141 -67 41 -7 102 -28 147 -50 74 -37 82 -39 175 -39 111 0 143 -6
143 -26 0 -9 12 -14 35 -14 l35 0 0 -60 0 -60 855 0 855 0 0 60 0 60 44 0 c34
0 45 4 48 18 5 17 21 20 143 25 76 4 208 7 294 7 151 0 158 1 205 28 l50 27
33 125 33 125 -3 3446 -2 3447 44 6 c76 10 95 6 136 -29 l40 -35 -32 0 -33 0
0 -370 0 -370 183 0 182 -1 32 -28 c17 -16 33 -40 35 -52 2 -17 38 -46 138
-110 l135 -88 208 0 207 -1 0 -155 0 -155 750 0 750 0 0 155 0 155 195 0 195
0 0 -155 0 -155 745 0 745 0 0 155 0 155 600 0 c593 0 600 0 600 20 0 11 1 21
3 21 1 1 209 14 462 29 l460 27 66 36 66 37 316 0 317 0 0 -113 0 -114 433
-166 434 -167 311 0 311 0 10 38 c6 20 23 93 39 162 l29 125 946 3 947 2 0 30
0 30 155 0 155 0 0 85 0 85 254 0 c208 0 255 3 258 14 2 10 23 6 88 -20 l85
-33 1458 -1 1457 0 0 -30 c0 -28 2 -30 40 -30 l40 0 0 -50 0 -50 372 -2 371
-3 158 -254 c87 -140 164 -260 171 -267 7 -7 73 -47 147 -88 l134 -76 756 0
757 0 128 -80 127 -80 760 0 760 0 134 82 133 83 113 188 112 188 135 -3 136
-3 145 -354 146 -354 135 -43 135 -43 1450 0 1450 -1 323 316 322 316 407 104
c223 57 414 106 424 109 11 4 26 35 44 95 l28 89 61 5 c33 3 681 22 1439 43
758 21 1383 41 1390 45 6 4 9 9 7 11 -3 2 -635 22 -1405 43 -770 21 -1385 40
-1366 42 28 3 57 24 145 106 152 139 173 156 205 156 23 0 31 9 59 65 l32 65
80 0 80 0 0 226 0 227 -257 437 -256 437 -64 6 c-54 5 -73 13 -126 50 l-62 44
-1525 173 -1525 173 -172 97 -172 97 -119 13 -119 13 -21 42 c-25 51 5 44
-372 86 -218 24 -288 35 -297 47 -7 9 -13 41 -13 72 0 55 0 56 -68 123 -55 54
-73 67 -99 67 -18 0 -35 5 -38 10 -3 6 -48 10 -99 10 -91 0 -93 0 -114 30 -13
17 -31 30 -42 30 -19 0 -20 7 -20 143 l0 143 35 -4 c26 -3 35 -9 35 -23 0 -10
5 -19 10 -19 6 0 10 -18 10 -40 l0 -40 40 0 40 0 0 160 0 160 -40 0 -40 0 0
-41 c0 -53 -15 -66 -93 -81 l-66 -12 -10 -43 c-6 -23 -11 -54 -11 -70 0 -24
-12 -36 -75 -78 -69 -47 -74 -53 -81 -94 -5 -30 -18 -56 -42 -82 l-34 -39 -89
0 c-48 0 -91 -4 -94 -10 -3 -5 -20 -10 -38 -10 -26 0 -45 -13 -104 -72 l-73
-72 0 -114 0 -114 -52 6 c-29 3 -332 40 -674 81 -531 64 -644 75 -780 75
l-159 0 -58 85 -58 85 -830 0 -830 0 -40 -85 -40 -85 -899 0 -899 0 -117 -185
-117 -185 -37 0 -37 0 -33 168 c-43 223 -49 299 -57 690 l-6 332 -27 0 -27 0
-7 -297 c-8 -382 -18 -518 -50 -678 -38 -190 -31 -175 -70 -175 -31 0 -36 4
-52 45 l-17 45 -67 0 -67 0 -17 -45 -18 -45 -66 0 c-37 0 -127 12 -201 27
-109 21 -135 30 -139 45 -4 17 -14 19 -86 17 -69 -1 -219 26 -1036 190 -525
106 -963 196 -973 202 -46 25 -159 59 -198 59 l-44 0 -155 295 c-85 163 -159
302 -165 309 -7 10 -864 162 -2748 488 l-2738 473 -91 100 -92 100 -1000 154
-1001 153 -264 109 -264 109 -1214 0 -1213 0 -1 2258 0 2257 -33 125 -32 125
-50 27 -49 28 -292 0 -293 0 -6 25 c-5 22 -12 25 -50 25 l-44 0 0 50 0 50
-855 0 -855 0 0 -50z m1860 -8655 l23 -25 -26 0 c-22 0 -27 5 -27 25 0 14 1
25 3 25 2 0 14 -11 27 -25z"/>
</g>
</svg>
