<?xml version="1.0" standalone="no"?>
<!DOCTYPE svg PUBLIC "-//W3C//DTD SVG 20010904//EN"
 "http://www.w3.org/TR/2001/REC-SVG-20010904/DTD/svg10.dtd">
<svg version="1.0" xmlns="http://www.w3.org/2000/svg"
   viewBox="0 0 1708.000000 603.000000"
 preserveAspectRatio="xMidYMid meet">
<metadata>
Created by potrace 1.16, written by Peter Selinger 2001-2019
</metadata>
<g transform="translate(0.000000,603.000000) scale(0.100000,-0.100000)"
fill="#000000" stroke="none">
<path d="M4250 5965 c0 -4 39 -167 86 -362 47 -195 84 -356 82 -357 -3 -3
-270 -86 -408 -126 -196 -58 -636 -316 -955 -560 -105 -80 -263 -198 -351
-262 l-162 -118 -98 0 -99 0 -171 -135 -172 -135 -17 -77 c-35 -165 9 -129
-355 -283 l-320 -134 0 -87 0 -87 -127 -75 c-104 -62 -171 -92 -359 -161 -127
-47 -272 -103 -323 -125 l-92 -41 -57 29 -57 28 -135 -99 c-136 -99 -157 -124
-159 -184 -1 -12 37 -75 84 -141 l85 -121 211 -136 211 -137 241 -24 c368 -37
762 -55 1202 -55 385 0 394 0 400 -20 5 -17 15 -20 69 -20 l62 0 299 -212 298
-211 262 -113 262 -112 315 -61 c294 -57 324 -61 439 -58 68 1 188 -5 266 -14
122 -14 149 -20 183 -43 39 -26 43 -26 210 -26 l170 0 12 25 c10 23 16 25 78
25 58 0 70 -3 90 -25 l23 -25 317 0 316 0 52 38 c44 31 51 42 52 70 0 28 3 32
23 27 12 -3 42 -9 67 -15 25 -5 204 -35 399 -65 259 -40 382 -55 457 -55 l103
0 7 -48 6 -47 146 -52 c81 -28 170 -54 197 -57 153 -19 680 -88 680 -89 0 -1
16 -33 35 -71 19 -39 63 -99 97 -136 91 -97 136 -112 423 -140 124 -12 228
-24 231 -28 3 -4 16 -88 28 -186 12 -99 23 -181 24 -181 10 -7 883 -73 888
-67 4 4 16 37 29 75 l22 67 241 -6 c133 -3 404 -9 602 -13 393 -9 364 -12 405
46 15 22 16 22 1419 57 772 20 1406 37 1407 39 2 1 -629 19 -1401 38 l-1405
35 -28 27 -28 27 -567 0 c-312 0 -567 3 -567 8 0 4 9 50 21 102 l21 96 154
-17 c85 -10 216 -23 292 -28 75 -6 163 -14 195 -17 49 -5 57 -4 57 11 0 14 6
16 33 12 17 -4 90 -9 160 -13 121 -6 131 -5 178 16 41 20 51 30 61 62 l11 38
1213 0 1214 0 22 34 c22 34 25 35 103 40 44 3 719 24 1500 46 781 22 1483 43
1560 47 118 6 -108 18 -1470 79 -885 40 -1622 73 -1637 73 -20 1 -34 10 -50
36 l-23 35 -1217 0 -1218 0 0 29 c0 23 -10 36 -49 65 -45 33 -54 36 -120 36
-39 0 -71 4 -71 8 0 4 20 68 45 142 35 105 45 149 45 200 l0 66 65 38 c62 36
65 40 65 76 l0 38 208 39 c114 22 1110 213 2215 424 1104 211 2004 385 1999
387 -4 1 -1005 -117 -2224 -263 -1219 -146 -2219 -265 -2222 -265 -3 0 -6 23
-8 51 l-3 51 -55 22 c-51 20 -55 25 -61 62 -4 21 -17 61 -28 87 l-21 48 36 47
c30 40 35 52 30 82 -4 19 -7 43 -9 53 -2 14 96 62 513 251 483 218 515 235
520 261 5 25 62 56 770 412 421 211 758 382 750 380 -8 -3 -370 -132 -803
-287 l-789 -282 -26 24 -27 25 -515 -233 c-283 -129 -517 -234 -521 -234 -4 0
-10 14 -14 30 -8 36 -24 46 -87 55 l-48 7 -21 72 c-11 39 -23 79 -25 89 -4 12
-12 15 -27 12 -142 -33 -222 -44 -233 -33 -6 7 -91 135 -188 284 -108 166
-176 281 -176 296 0 13 -11 53 -26 87 -14 35 -24 64 -22 65 10 8 661 616 698
653 25 25 -136 -88 -358 -251 -221 -163 -404 -296 -406 -296 -3 0 -22 31 -44
69 -36 62 -40 78 -51 182 -6 63 -23 164 -38 224 l-26 110 -291 152 c-160 83
-377 194 -483 247 l-191 95 105 228 c113 245 134 293 129 293 -2 0 -65 -110
-141 -245 -76 -135 -143 -245 -148 -245 -24 0 -179 75 -267 130 -79 49 -135
73 -277 121 -232 78 -650 178 -932 223 l-223 36 -422 0 c-231 0 -450 -5 -486
-10 -90 -13 -540 -40 -666 -40 -99 0 -125 -5 -482 -95 -207 -52 -443 -112
-523 -134 l-147 -39 -122 347 c-118 333 -130 364 -130 346z m850 -3999 l0 -34
-152 -51 -153 -50 -221 -12 c-272 -15 -343 -7 -579 58 -146 41 -164 48 -128
51 38 3 43 6 53 38 l12 34 584 0 584 0 0 -34z m2521 -99 c27 -60 62 -154 79
-210 17 -56 33 -107 35 -114 2 -7 -49 -29 -138 -59 -78 -25 -155 -55 -172 -64
-29 -18 -42 -18 -410 11 -246 18 -455 29 -592 29 l-213 0 0 63 0 63 -50 37
-49 37 -128 0 -127 0 85 87 c46 47 93 87 104 88 11 1 61 7 110 14 50 7 236 23
415 35 l325 22 3 -26 c2 -14 24 -46 50 -72 37 -38 61 -53 124 -74 l77 -25 72
23 c65 21 77 29 115 77 29 37 44 67 49 99 11 75 8 73 103 70 l85 -3 48 -108z
m-676 -568 c154 -7 280 -12 281 -13 1 0 4 -18 7 -38 l6 -38 -92 1 c-59 0 -203
18 -397 49 l-305 48 110 1 c61 1 236 -4 390 -10z m1822 -533 c156 -18 284 -34
287 -37 2 -2 6 -32 10 -66 l7 -63 -33 0 c-79 1 -426 48 -459 62 -34 15 -62 44
-104 111 -13 21 -14 27 -4 27 8 -1 141 -16 296 -34z"/>
</g>
</svg>
