<?xml version="1.0" standalone="no"?>
<!DOCTYPE svg PUBLIC "-//W3C//DTD SVG 20010904//EN"
 "http://www.w3.org/TR/2001/REC-SVG-20010904/DTD/svg10.dtd">
<svg version="1.0" xmlns="http://www.w3.org/2000/svg"
   viewBox="0 0 4560.000000 873.000000"
 preserveAspectRatio="xMidYMid meet">
<metadata>
Created by potrace 1.16, written by Peter Selinger 2001-2019
</metadata>
<g transform="translate(0.000000,873.000000) scale(0.100000,-0.100000)"
fill="#000000" stroke="none">
<path d="M25315 8669 l-1140 -58 -1802 -278 c-1392 -214 -1803 -281 -1805
-292 -2 -10 -199 -64 -663 -182 -363 -93 -665 -169 -671 -169 -6 0 -19 38 -29
85 -10 47 -20 85 -23 85 -3 0 -669 -67 -1480 -150 -811 -82 -1481 -150 -1489
-150 -7 0 -13 10 -13 21 0 19 -4 21 -39 16 -37 -5 -42 -1 -200 134 -89 77
-186 151 -218 168 -57 28 -59 28 -163 20 -58 -5 -2561 -207 -5563 -449 l-5459
-440 -36 -28 -37 -28 -2180 -168 c-2091 -161 -2182 -169 -2240 -192 l-60 -25
8 -292 c4 -161 10 -315 13 -344 l5 -51 57 -21 c51 -18 298 -38 2241 -181
l2185 -160 26 -25 26 -25 2000 -110 1999 -110 134 -36 c133 -35 139 -38 540
-258 l406 -222 535 -53 c332 -33 538 -58 542 -65 4 -6 8 -141 8 -301 0 -296
11 -460 30 -479 7 -7 119 -14 313 -20 l302 -8 96 -59 96 -59 877 0 876 0 0 50
c0 45 2 50 23 51 12 0 83 5 157 12 96 8 489 12 1345 12 1368 0 1233 -8 1326
82 26 25 49 41 52 36 5 -9 91 -231 632 -1651 104 -271 186 -494 183 -497 -2
-2 -758 18 -1679 45 -921 28 -1709 50 -1751 50 l-78 0 0 -189 0 -188 28 -6
c15 -2 865 -110 1889 -238 l1863 -233 30 29 30 29 2258 -278 2257 -278 22 -26
22 -26 2677 -194 2677 -195 101 33 102 33 1119 -57 1120 -57 30 -28 30 -28
708 27 c389 15 711 30 715 34 4 4 27 44 52 89 l46 82 139 -3 c77 -1 670 -14
1318 -28 648 -15 1180 -25 1182 -22 2 2 -5 89 -15 193 -34 338 -100 1010 -100
1015 0 3 -172 -9 -382 -27 -211 -18 -388 -32 -395 -33 -7 0 6 44 31 108 l43
107 11 600 11 600 -43 343 c-23 188 -40 342 -37 342 2 0 614 -67 1360 -150
l1356 -150 255 61 255 60 95 94 95 95 1343 0 1342 0 0 -168 0 -169 133 -14
c108 -11 695 -14 3215 -16 l3082 -3 0 730 0 730 -2977 0 c-2884 0 -2985 -1
-3213 -20 -129 -11 -236 -20 -237 -20 -2 0 -3 -88 -3 -195 l0 -195 -1352 0
-1353 0 -85 84 -85 84 -255 59 -255 60 -1425 -157 c-784 -87 -1425 -157 -1426
-156 -1 0 -40 142 -88 314 -47 172 -132 446 -187 607 -94 278 -109 313 -267
632 -152 307 -183 360 -332 583 l-163 245 -260 273 -260 273 -536 396 -536
397 -914 338 -913 338 -964 130 c-529 72 -984 129 -1011 129 -26 -1 -561 -28
-1188 -60z m-2883 -6379 c893 -181 1632 -335 1644 -342 12 -7 213 -164 449
-348 407 -319 426 -335 394 -339 -38 -3 -2593 26 -2816 33 l-143 5 -26 -45
c-14 -24 -27 -44 -27 -44 -71 1 -4523 442 -4530 449 -6 6 -8 14 -4 18 4 3 162
-8 352 -26 189 -18 364 -32 387 -32 24 0 226 36 450 79 l406 79 664 393 663
394 200 27 c110 15 226 27 257 28 39 1 572 -104 1680 -329z"/>
</g>
</svg>
