<?xml version="1.0" standalone="no"?>
<!DOCTYPE svg PUBLIC "-//W3C//DTD SVG 20010904//EN"
 "http://www.w3.org/TR/2001/REC-SVG-20010904/DTD/svg10.dtd">
<svg version="1.0" xmlns="http://www.w3.org/2000/svg"
   viewBox="0 0 3457.000000 637.000000"
 preserveAspectRatio="xMidYMid meet">
<metadata>
Created by potrace 1.16, written by Peter Selinger 2001-2019
</metadata>
<g transform="translate(0.000000,637.000000) scale(0.100000,-0.100000)"
fill="#000000" stroke="none">
<path d="M7313 6345 c-112 -17 -160 -28 -182 -44 -40 -29 -116 -39 -139 -18
-14 12 -97 21 -417 42 l-400 28 -155 -65 -154 -64 -20 -62 c-14 -44 -25 -62
-37 -62 -34 0 -49 -12 -49 -41 0 -21 4 -27 15 -23 11 5 15 -1 15 -25 0 -21 -5
-31 -15 -31 -10 0 -15 -10 -15 -30 0 -20 5 -30 15 -30 9 0 15 -9 15 -25 0 -16
-6 -25 -15 -25 -12 0 -15 -15 -15 -75 l0 -75 -217 0 c-166 -1 -222 -4 -235
-14 -15 -11 -18 -30 -18 -120 0 -88 3 -106 15 -106 12 0 15 -15 15 -75 l0 -75
-125 0 -125 0 0 -65 0 -65 -225 0 c-172 0 -227 3 -230 13 -2 6 -9 38 -15 70
l-11 57 -894 0 c-805 0 -893 -2 -899 -16 -3 -9 -6 -55 -6 -103 0 -48 -5 -92
-10 -97 -6 -6 -447 -154 -981 -330 l-971 -319 -59 -100 -58 -100 -353 -116
-353 -115 -2 -380 -2 -379 69 -60 68 -60 1 -302 c1 -292 2 -303 20 -303 11 0
581 -45 1266 -100 1199 -96 1259 -100 1541 -100 l294 0 0 -23 c0 -23 3 -24
133 -35 106 -9 211 -30 537 -107 223 -52 410 -97 415 -99 6 -3 -153 -5 -352
-5 l-363 -1 0 48 0 48 -137 32 c-76 18 -147 30 -158 27 -11 -2 -37 -7 -57 -10
l-38 -6 0 -69 0 -70 -145 0 -145 0 0 -82 c0 -77 4 -91 57 -223 l58 -141 360
-53 c198 -28 375 -52 393 -51 l32 0 0 65 0 65 78 0 77 0 -3 -43 -4 -44 101
-80 100 -80 110 -12 c61 -7 115 -10 121 -6 5 3 10 15 10 26 0 12 7 19 20 19
17 0 19 -8 22 -72 l3 -73 260 -36 c143 -19 281 -39 308 -42 l47 -7 0 90 0 90
63 0 c34 0 86 -3 115 -6 l52 -7 0 -103 c0 -86 3 -104 15 -104 11 0 15 -11 15
-40 0 -36 2 -39 33 -44 17 -3 73 -13 122 -21 68 -11 172 -15 430 -14 367 0
422 5 463 37 27 22 136 88 288 176 66 39 95 49 170 60 49 8 108 21 132 30 24
9 42 11 42 5 0 -5 85 -66 190 -134 l190 -125 1885 0 1885 0 0 75 0 75 39 0
c61 0 71 7 71 52 0 43 22 50 28 10 4 -26 0 -26 222 -11 l165 11 374 -126 c206
-69 379 -126 385 -126 6 0 51 119 101 265 l89 265 114 0 c105 0 124 -3 243
-41 l129 -41 108 36 107 36 575 0 c316 0 612 -3 658 -7 l82 -6 0 -43 0 -44
115 0 115 0 0 -220 c0 -140 4 -220 10 -220 6 0 10 -56 10 -148 l0 -148 53 -52
53 -52 232 0 232 0 0 -60 0 -60 85 0 85 0 0 -45 c0 -33 4 -45 15 -45 13 0 15
-29 15 -198 0 -195 0 -199 23 -220 l23 -22 795 0 795 0 27 28 27 28 0 192 c0
121 4 192 10 192 6 0 10 20 10 45 l0 45 175 0 175 0 0 -29 c0 -24 10 -35 63
-70 l63 -41 1582 0 1582 0 0 -35 0 -35 391 0 390 0 15 35 c7 19 14 48 14 65
l0 30 1490 0 c1318 0 1490 -2 1490 -15 0 -9 9 -15 25 -15 l25 0 0 -129 c0 -91
4 -132 13 -139 7 -6 139 -13 325 -17 292 -7 314 -6 332 10 18 16 20 31 20 147
l0 128 25 0 c24 0 25 2 25 74 0 40 3 87 6 104 6 27 10 30 33 26 18 -4 94 21
244 80 l219 85 -4 -185 -3 -184 23 0 c22 0 22 -2 22 -129 0 -91 4 -132 13
-139 7 -6 139 -13 325 -17 292 -7 314 -6 332 10 18 16 20 31 20 147 l0 128 25
0 25 0 0 334 0 334 108 43 107 44 188 3 187 3 0 130 0 129 225 0 225 0 0 25 0
25 335 0 335 0 0 -25 0 -25 240 0 240 0 0 25 0 25 215 0 215 0 0 -36 c0 -24
19 -71 62 -150 l61 -114 66 0 66 0 38 -84 c20 -47 37 -87 37 -90 0 -3 -13 -6
-30 -6 -25 0 -30 -4 -30 -25 l0 -25 -140 0 c-87 0 -140 -4 -140 -10 0 -6 -110
-10 -310 -10 -200 0 -310 -4 -310 -10 0 -6 117 -10 330 -10 259 0 329 -3 327
-12 -1 -10 31 -14 128 -16 l130 -3 75 -139 c41 -77 80 -140 85 -140 6 0 31
-20 55 -45 l44 -45 177 0 c98 0 184 3 193 6 14 5 16 29 16 162 l0 155 35 -39
c34 -39 34 -40 35 -135 l0 -96 413 -6 c226 -4 580 -7 785 -7 l373 0 46 -35 46
-35 321 0 322 0 54 35 55 34 271 1 271 0 26 78 27 77 0 388 0 387 195 0 c151
0 195 -3 195 -13 0 -7 52 -38 115 -70 l115 -57 145 0 c142 0 147 1 205 30 l60
30 0 125 0 125 -60 0 c-33 0 -60 4 -60 10 0 6 -52 10 -135 10 -83 0 -135 -4
-135 -10 0 -7 -272 -10 -795 -10 l-795 0 0 55 0 55 -190 0 -190 0 0 -55 0 -55
-585 0 -585 0 0 55 0 55 -185 0 -185 0 0 -55 0 -55 -313 0 -314 0 -22 75 -22
75 -167 0 -168 0 -13 -35 -12 -35 -95 0 -94 0 0 -40 0 -40 -144 0 c-122 0
-145 2 -150 16 -3 9 -6 89 -6 179 0 160 -1 164 -25 193 l-25 30 0 318 0 317
1414 -7 1414 -7 94 130 93 130 113 1 112 0 0 43 c0 24 3 92 7 150 l6 107 -70
0 -70 0 -6 48 c-4 26 -21 218 -39 426 -24 287 -29 381 -20 384 7 2 12 19 12
38 l0 34 55 0 55 0 0 50 0 50 -615 0 -615 0 -1 -52 c0 -52 -1 -54 -59 -102
-49 -41 -64 -63 -95 -133 -28 -61 -42 -83 -56 -83 -18 0 -19 -10 -19 -124 l0
-124 -73 -42 c-94 -54 -108 -84 -116 -255 l-6 -120 -33 385 c-18 212 -36 406
-39 433 -5 39 -3 47 11 47 12 0 16 9 16 35 l0 35 50 0 50 0 0 50 0 50 -615 0
-615 0 0 -53 c0 -52 -1 -54 -56 -102 -45 -38 -64 -65 -95 -132 -30 -64 -43
-83 -59 -83 -19 0 -20 -6 -20 -124 l0 -124 -71 -44 c-95 -57 -108 -86 -108
-250 -1 -70 -5 -118 -11 -118 -15 0 -16 15 -50 420 -17 206 -33 390 -36 408
-4 24 -1 32 11 32 11 0 15 10 15 35 l0 35 50 0 50 0 0 50 0 50 -615 0 -615 0
0 -54 c0 -52 -1 -54 -57 -104 -47 -41 -65 -66 -93 -131 -29 -66 -39 -81 -57
-81 -22 0 -22 -3 -25 -127 l-3 -127 -67 -39 c-61 -35 -69 -43 -87 -93 -19 -49
-21 -77 -21 -279 l0 -225 -48 0 c-40 0 -142 38 -571 210 l-522 210 -1213 0
-1212 0 -30 31 c-35 38 -103 69 -150 69 l-34 0 0 195 0 195 -65 0 -65 0 0 125
0 125 -997 0 c-549 0 -1656 3 -2460 7 l-1463 6 0 -126 0 -127 -105 0 -105 0 0
-250 0 -250 -860 0 -859 0 -238 -231 -238 -230 -104 5 c-57 3 -286 6 -508 6
l-403 0 19 39 c11 21 17 42 14 45 -4 4 1 22 11 41 15 27 24 33 40 30 81 -19
241 -44 246 -38 4 5 33 117 65 251 33 133 61 246 64 250 4 5 74 64 156 132 83
67 153 128 156 134 3 6 9 25 12 41 l5 30 -1226 280 -1227 281 -3 259 c-1 170
-6 263 -13 272 -9 10 -67 13 -269 13 -141 0 -291 3 -333 6 l-77 7 0 58 0 59
50 0 50 0 0 75 0 75 -50 0 -50 0 0 45 c0 33 4 45 15 45 12 0 15 19 15 110 l0
110 -500 0 -500 0 0 -40 0 -40 -40 0 -40 0 0 40 0 40 -500 0 -500 0 0 -40 0
-40 -40 0 -40 0 0 40 0 40 -500 0 -500 0 0 -40 0 -40 -40 0 -40 0 0 40 0 40
-500 0 -500 0 0 -40 0 -40 -40 0 -40 0 0 40 0 40 -495 0 -495 0 0 171 0 171
60 65 c54 57 60 68 60 106 0 40 -5 47 -83 125 -45 45 -87 81 -92 81 -6 -1 -78
-11 -162 -24z m5985 -2082 c-3 -26 1 -28 387 -169 l389 -142 84 -304 c47 -166
86 -304 87 -306 1 -1 167 -33 368 -70 201 -37 369 -70 373 -74 12 -12 -16 -37
-80 -72 l-61 -34 -354 -31 c-286 -24 -357 -33 -363 -46 -7 -11 -27 -15 -88
-15 l-79 0 -109 120 -109 120 0 52 c0 90 -10 103 -108 134 l-86 29 -151 167
-151 168 -352 0 -351 0 -84 29 -85 29 218 1 217 1 0 220 0 220 245 0 246 0 -3
-27z m14182 -1866 l0 -323 -30 -29 c-30 -28 -30 -30 -30 -132 l0 -103 -50 0
-50 0 0 213 c0 118 3 322 7 455 l6 242 74 0 73 0 0 -323z m1140 -6 l0 -319
-25 -30 c-24 -28 -25 -35 -27 -203 l-3 -174 -277 -3 -278 -2 0 178 0 178 -30
29 -30 29 0 318 0 318 335 0 335 0 0 -319z m-23444 -834 c2 -2 7 -25 10 -50
l7 -47 -47 0 -46 0 0 56 0 57 36 -6 c20 -3 38 -8 40 -10z m-836 -31 c0 -19 -4
-22 -24 -19 -17 4 -22 10 -19 24 8 28 43 25 43 -5z m1668 18 c13 -4 22 -14 22
-25 0 -11 5 -19 10 -19 6 0 10 -9 10 -20 0 -17 -7 -20 -45 -20 l-45 0 0 45 c0
47 4 50 48 39z m672 -73 c0 -8 -64 -51 -76 -51 -2 0 -4 11 -4 24 0 25 13 33
58 35 12 0 22 -3 22 -8z m-630 -176 l0 -105 -45 0 -45 0 0 105 0 105 45 0 45
0 0 -105z"/>
</g>
</svg>
