<?xml version="1.0" standalone="no"?>
<!DOCTYPE svg PUBLIC "-//W3C//DTD SVG 20010904//EN"
 "http://www.w3.org/TR/2001/REC-SVG-20010904/DTD/svg10.dtd">
<svg version="1.0" xmlns="http://www.w3.org/2000/svg"
   viewBox="0 0 3778.000000 897.000000"
 preserveAspectRatio="xMidYMid meet">
<metadata>
Created by potrace 1.16, written by Peter Selinger 2001-2019
</metadata>
<g transform="translate(0.000000,897.000000) scale(0.100000,-0.100000)"
fill="#000000" stroke="none">
<path d="M7560 8953 l-1335 -14 -555 -130 c-305 -71 -656 -154 -780 -184
l-225 -55 -1200 0 -1201 0 -584 -181 c-322 -99 -719 -215 -883 -259 l-297 -78
-80 -59 -79 -58 -1 -95 0 -96 80 -149 80 -150 0 -102 0 -103 859 0 858 0 374
-35 c745 -70 1330 -167 1758 -291 128 -38 246 -78 275 -95 28 -16 43 -29 33
-29 -13 0 -1583 -172 -3162 -346 -144 -15 -239 -39 -1180 -289 l-310 -82 0
-93 0 -92 483 -158 483 -159 176 -168 c96 -92 209 -199 249 -236 41 -38 74
-76 74 -86 0 -9 17 -25 37 -36 31 -16 296 -254 508 -457 l41 -38 117 17 116
17 573 -176 573 -177 76 7 76 8 179 -291 c98 -159 180 -302 182 -317 2 -16 12
-30 23 -33 15 -5 19 -16 19 -51 0 -86 17 -126 66 -157 25 -15 56 -27 70 -27
15 0 24 -6 24 -15 0 -37 381 -190 710 -285 91 -26 172 -49 180 -51 8 -2 144
-82 302 -176 284 -172 287 -173 345 -173 l58 0 125 -125 125 -125 877 0 878 0
0 -49 c0 -28 4 -52 9 -55 5 -3 172 17 372 45 200 28 382 51 404 51 30 1 102
-26 290 -107 224 -96 273 -122 474 -248 220 -138 230 -146 424 -329 l200 -188
277 0 277 0 303 -327 c255 -276 311 -332 353 -351 l50 -22 1498 0 1498 0 15
22 c9 12 16 28 16 34 0 7 -223 473 -496 1036 -273 562 -503 1038 -511 1057
l-14 34 303 -6 c167 -3 2002 -11 4078 -17 l3775 -11 525 26 c624 30 802 32
919 8 78 -15 84 -15 93 1 9 15 40 16 411 10 366 -5 415 -8 551 -31 144 -24
152 -27 196 -64 l46 -39 417 -87 c395 -83 417 -89 417 -110 l0 -21 258 1 257
2 670 -161 c571 -138 1313 -336 5027 -1344 l4357 -1181 1082 165 c595 91 1083
167 1084 168 1 2 29 50 62 108 l59 106 -933 1144 c-514 630 -1070 1318 -1237
1530 -166 212 -714 931 -1217 1598 -1059 1406 -953 1237 -1024 1622 l-45 239
0 534 0 533 -103 65 c-93 59 -106 64 -135 57 -25 -7 -60 -2 -145 21 -320 85
-557 124 -569 92 -4 -12 -99 5 -108 19 -20 33 -154 65 -585 141 -405 71 -554
92 -1490 204 -1365 165 -1375 166 -1480 171 -49 2 -666 38 -1370 80 -1207 71
-1287 75 -1400 63 l-120 -12 -134 -111 c-73 -61 -174 -141 -224 -178 -50 -37
-111 -88 -136 -112 -41 -40 -67 -53 -226 -111 l-180 -67 -485 -29 c-448 -26
-538 -28 -1182 -29 l-698 0 0 65 0 65 -87 0 c-453 0 -1951 70 -2913 136 l-815
56 -170 -15 -170 -14 -160 -68 c-88 -38 -167 -74 -176 -82 -13 -11 -158 -13
-792 -13 l-776 0 -98 35 c-73 27 -143 42 -273 60 -203 29 -416 32 -810 11
l-235 -12 -535 77 -535 77 -630 152 -630 152 -490 34 c-269 18 -502 34 -517
34 l-28 0 0 75 0 75 -527 0 c-473 0 -578 3 -1008 30 -559 35 -542 35 -2615 13z"/>
</g>
</svg>
