<?xml version="1.0" standalone="no"?>
<!DOCTYPE svg PUBLIC "-//W3C//DTD SVG 20010904//EN"
 "http://www.w3.org/TR/2001/REC-SVG-20010904/DTD/svg10.dtd">
<svg version="1.0" xmlns="http://www.w3.org/2000/svg"
   viewBox="0 0 4230.000000 752.000000"
 preserveAspectRatio="xMidYMid meet">
<metadata>
Created by potrace 1.16, written by Peter Selinger 2001-2019
</metadata>
<g transform="translate(0.000000,752.000000) scale(0.100000,-0.100000)"
fill="#000000" stroke="none">
<path d="M16635 7466 l-280 -52 -3 -62 -3 -62 -1144 0 -1145 0 0 -650 0 -650
-38 0 c-21 0 -66 -11 -100 -25 -53 -22 -77 -25 -177 -25 l-115 0 0 -180 0
-180 -114 0 -114 0 -4 454 c-2 250 -5 457 -8 460 -3 3 -492 -10 -1087 -29
l-1081 -34 -78 28 -79 29 -3840 -141 c-2112 -77 -3841 -141 -3843 -142 -2 -2
2 -78 7 -171 5 -93 13 -233 17 -311 l6 -143 -585 0 -585 0 -7 38 c-12 71 30
70 -542 13 -285 -28 -541 -51 -569 -51 -28 0 -64 -4 -80 -9 -16 -5 -64 -13
-106 -16 l-78 -7 -430 -639 -430 -638 0 -411 0 -410 55 -110 c35 -71 55 -122
55 -145 0 -27 4 -35 18 -35 13 0 52 -69 150 -266 l132 -265 425 -562 424 -562
96 -53 95 -54 0 -179 c0 -177 0 -179 22 -184 13 -2 130 -25 261 -50 l238 -45
309 0 c290 0 310 -1 319 -18 6 -11 94 -62 196 -115 l186 -97 1127 0 1127 0
219 -125 218 -125 1798 0 1798 0 173 81 c96 44 178 85 183 89 5 5 26 49 47 97
l37 88 104 6 c56 4 334 7 616 8 l512 1 62 25 c55 22 76 25 195 25 l133 0 -7
271 c-4 192 -3 271 4 268 6 -2 45 -22 87 -44 74 -39 76 -41 76 -77 l0 -38 975
0 975 0 0 38 c0 36 2 38 79 79 43 24 82 43 86 43 4 0 3 -121 -1 -270 l-7 -270
131 0 c116 0 139 -3 198 -25 l66 -25 912 0 913 0 61 25 c55 22 76 25 193 25
l132 0 -6 270 c-3 149 -4 270 -1 270 2 0 40 -18 84 -40 80 -40 80 -40 80 -80
l0 -40 440 0 440 0 0 -166 0 -166 41 -49 41 -49 157 0 157 0 84 -210 85 -210
150 0 c144 -1 151 -2 177 -25 15 -13 35 -43 44 -67 9 -24 32 -59 50 -78 19
-20 34 -43 34 -52 0 -10 5 -39 10 -66 l11 -49 64 -12 c58 -12 65 -16 65 -37 0
-20 5 -24 30 -24 l30 0 0 95 0 95 -30 0 c-27 0 -30 -3 -30 -30 0 -28 -3 -30
-35 -30 l-35 0 0 119 0 119 38 7 c20 4 44 13 52 21 12 10 56 14 170 16 l155 3
80 205 81 205 900 5 899 5 48 23 c43 19 65 22 184 22 l135 0 -6 152 c-3 84 -7
276 -8 427 l-3 275 145 78 145 78 248 0 247 0 0 -425 0 -425 1530 0 1530 0 0
425 0 425 225 0 225 0 367 280 367 280 308 0 308 0 0 -95 0 -95 265 0 265 0 0
94 c0 109 -3 106 113 106 l67 0 0 -100 0 -100 265 0 265 0 0 100 0 100 75 0
75 0 0 -100 0 -100 126 0 c97 0 125 -3 121 -13 -2 -6 -50 -200 -107 -430
l-102 -417 22 -55 c12 -30 23 -55 24 -55 1 0 327 38 726 85 399 47 727 85 731
85 3 0 45 29 92 65 83 62 86 66 76 92 -7 20 -6 29 3 38 8 7 319 46 753 94 407
45 749 84 760 86 16 3 24 -3 32 -26 l12 -30 63 7 c134 14 143 17 141 47 -1 22
3 27 30 32 77 13 300 35 305 30 3 -3 -28 -144 -70 -312 l-76 -307 24 -54 24
-54 47 6 c27 4 356 42 732 86 l683 80 84 62 c84 62 92 74 74 108 -8 14 -5 20
18 28 25 9 1458 173 1509 172 16 0 25 -8 29 -25 7 -29 9 -29 124 -14 86 10
104 20 94 52 -3 9 -2 17 3 17 4 1 74 9 154 18 l145 18 -63 -261 c-35 -143 -68
-275 -73 -293 -7 -26 -4 -44 16 -89 25 -55 25 -55 62 -50 20 3 350 43 732 89
l695 82 83 60 c82 60 90 72 72 105 -7 14 -4 20 13 29 12 5 351 47 752 91 402
45 740 84 753 87 19 4 26 -1 35 -26 9 -24 17 -30 32 -26 11 2 57 8 103 12 82
7 82 7 82 35 0 22 6 30 23 34 12 2 524 61 1137 130 613 69 1126 127 1139 129
19 3 26 -3 40 -35 19 -45 16 -44 166 -25 l100 12 440 358 c242 196 444 363
449 370 12 17 -32 116 -53 116 -9 0 -342 14 -741 30 -399 16 -752 30 -785 30
l-61 0 -12 45 c-7 25 -12 81 -12 125 0 75 -1 80 -22 84 -13 3 -824 46 -1803
96 -979 50 -1793 94 -1808 98 l-28 7 40 83 c22 45 47 82 54 82 8 0 151 -16
318 -35 340 -39 309 -42 349 36 l18 35 -374 410 c-207 225 -383 417 -392 426
-9 10 -71 32 -137 49 -111 29 -120 30 -130 14 -5 -10 -17 -26 -25 -36 -14 -18
-58 -7 -1122 280 -609 165 -1116 302 -1126 305 -14 5 -17 13 -14 35 5 33 17
27 -133 65 -55 14 -61 14 -72 -1 -7 -9 -14 -20 -16 -26 -3 -11 -1467 381
-1493 400 -16 11 -16 14 1 40 l18 27 -79 75 -79 74 -705 193 c-388 107 -708
194 -712 194 -3 0 -19 -24 -35 -52 l-30 -53 36 -357 c19 -197 33 -360 30 -362
-3 -3 -82 15 -176 40 l-171 46 2 31 c1 30 1 30 -93 54 l-94 24 -21 -24 -21
-25 -734 198 c-403 109 -740 205 -748 213 -13 13 -13 18 1 39 15 23 14 25 -62
99 l-77 76 -630 173 c-346 95 -666 183 -711 196 l-81 22 -30 -52 -30 -53 51
-524 52 -524 -39 -3 c-35 -3 -39 -7 -62 -59 l-25 -55 -57 6 c-32 3 -92 8 -134
12 l-76 6 -21 44 -22 44 -259 0 c-252 0 -259 -1 -273 -21 -13 -20 -19 -21
-121 -14 l-107 7 0 163 0 163 -27 6 c-16 3 -841 146 -1834 316 -1514 260
-1816 309 -1865 304 -48 -5 -241 24 -1052 157 l-993 163 -135 -135 -134 -134
0 395 0 395 -158 197 -157 197 -900 3 c-495 2 -1185 1 -1532 -1 l-633 -4 0
117 0 116 -27 -1 c-16 -1 -154 -25 -308 -53z m5215 -2071 c432 -73 781 -134
775 -134 -5 -1 -289 17 -630 39 l-620 40 -167 46 -168 47 0 48 c0 33 4 49 13
48 6 0 365 -60 797 -134z m9585 -1445 c833 -93 1516 -170 1519 -170 3 0 -16
-44 -41 -97 -41 -86 -48 -111 -57 -202 l-11 -105 -285 -83 -285 -82 -745 -61
-745 -61 -387 16 c-386 16 -387 16 -427 -5 -39 -19 -55 -20 -635 -20 l-596 0
-4 23 c-3 12 -10 81 -16 152 -11 126 -36 317 -47 363 l-5 22 216 0 216 0 0 34
0 34 418 5 c229 3 447 6 485 6 100 0 102 3 51 94 -129 232 -165 307 -149 307
9 0 697 -76 1530 -170z m2220 -249 c370 -43 421 -47 430 -34 6 9 17 24 25 35
15 19 40 16 1349 -131 733 -82 1335 -152 1337 -154 3 -3 -72 -175 -80 -184 -2
-2 -811 40 -1799 92 -988 52 -1804 95 -1812 95 -11 0 -15 11 -15 45 0 56 104
285 129 285 9 -1 205 -23 436 -49z m-7032 -335 c85 -151 87 -156 87 -220 l0
-66 -160 0 -160 0 0 220 0 220 73 0 72 -1 88 -153z m787 149 c0 -7 -161 -379
-166 -384 -2 -2 -4 84 -4 192 l0 197 85 0 c47 0 85 -2 85 -5z m690 -215 l0
-220 -75 0 -75 0 0 220 0 220 75 0 75 0 0 -220z m6850 -260 c971 -44 1772 -80
1780 -80 9 0 22 -18 32 -43 l16 -43 -82 3 c-883 40 -3063 120 -3077 112 -21
-11 -118 -11 -315 -2 l-142 6 -25 64 -25 63 36 0 c21 0 831 -36 1802 -80z
m-2046 -25 c4 -11 -2 -15 -26 -15 -26 0 -29 2 -18 15 7 8 18 15 25 15 7 0 15
-7 19 -15z m5836 -147 c899 -40 1619 -74 1600 -76 -19 -2 -725 24 -1569 59
l-1534 62 -54 -27 c-37 -18 -69 -26 -107 -26 -50 0 -54 2 -60 28 -4 15 -9 35
-12 45 -5 17 -1 18 48 13 29 -3 789 -38 1688 -78z"/>
</g>
</svg>
