<?xml version="1.0" standalone="no"?>
<!DOCTYPE svg PUBLIC "-//W3C//DTD SVG 20010904//EN"
 "http://www.w3.org/TR/2001/REC-SVG-20010904/DTD/svg10.dtd">
<svg version="1.0" xmlns="http://www.w3.org/2000/svg"
   viewBox="0 0 4689.000000 2969.000000"
 preserveAspectRatio="xMidYMid meet">
<metadata>
Created by potrace 1.16, written by Peter Selinger 2001-2019
</metadata>
<g transform="translate(0.000000,2969.000000) scale(0.100000,-0.100000)"
fill="#000000" stroke="none">
<path d="M12835 29491 c-608 -173 -748 -217 -1180 -370 -269 -95 -499 -178
-510 -184 -11 -5 -233 -159 -494 -341 l-474 -331 -423 -470 -423 -470 -1038
-1010 -1039 -1010 -222 -305 -222 -305 -391 -190 c-215 -104 -393 -194 -395
-200 -2 -5 16 -143 40 -305 25 -162 42 -298 38 -301 -4 -4 -432 -118 -952
-254 -520 -135 -962 -251 -984 -258 -34 -9 -86 -67 -451 -497 -227 -267 -419
-490 -426 -497 -8 -6 -741 -280 -1629 -608 -888 -329 -1625 -602 -1638 -606
-22 -8 -20 -12 70 -186 50 -98 114 -212 141 -253 27 -41 85 -149 129 -240 127
-262 145 -297 328 -640 95 -179 204 -392 242 -475 38 -82 117 -253 175 -379
63 -138 269 -536 521 -1005 229 -427 457 -864 507 -971 50 -107 128 -267 174
-355 112 -214 434 -803 474 -868 18 -29 90 -169 160 -312 70 -143 179 -359
243 -480 63 -121 222 -429 353 -685 l237 -465 530 -7 c291 -4 902 -12 1358
-17 456 -6 830 -12 833 -14 2 -3 15 -102 29 -222 18 -159 52 -358 129 -748 58
-293 107 -537 109 -543 2 -6 114 -53 248 -104 133 -51 459 -185 723 -297 l480
-204 445 -443 445 -444 302 -113 c166 -61 306 -115 310 -118 5 -3 53 -258 107
-566 186 -1066 768 -4101 1293 -6747 l527 -2657 370 -182 369 -183 358 -30
358 -30 398 29 398 29 375 181 375 182 142 224 c78 123 152 242 163 264 14 28
160 784 501 2605 l480 2565 199 1275 200 1275 260 985 c143 542 263 994 268
1004 7 16 47 28 222 67 l213 47 46 45 c39 37 1720 1596 1744 1617 5 4 24 326
42 716 34 698 36 823 20 1258 l-4 128 728 -7 728 -8 7 114 c3 63 9 178 12 257
l7 142 349 0 349 0 59 40 59 40 451 0 452 0 76 55 76 55 597 0 c575 0 599 -1
644 -20 45 -19 69 -20 638 -20 l592 0 55 85 55 85 129 0 129 0 671 -353 671
-353 795 -68 c437 -37 798 -71 802 -74 4 -4 174 -317 379 -697 204 -379 377
-695 383 -702 6 -6 378 -130 826 -274 448 -144 818 -265 823 -269 4 -3 32 -93
62 -200 32 -116 61 -200 72 -210 10 -9 91 -81 181 -159 148 -130 168 -144 220
-157 31 -7 228 -41 437 -74 209 -33 515 -83 680 -111 165 -28 336 -54 380 -59
l80 -8 222 96 223 95 110 169 c60 92 115 168 122 168 20 0 1713 -132 1714
-133 1 -1 44 -67 96 -147 66 -101 105 -172 127 -235 18 -49 409 -994 869
-2098 l836 -2008 1286 -1081 1287 -1081 679 -371 c374 -204 713 -390 755 -413
l76 -42 383 360 c211 197 388 359 395 359 6 0 328 -110 714 -245 386 -135 706
-245 710 -245 4 0 148 263 320 584 l313 583 249 152 c137 83 253 151 257 151
4 0 20 -25 37 -55 16 -31 35 -54 42 -53 7 2 172 89 367 193 l355 190 12 50
c62 264 569 1772 1160 3445 259 732 351 987 370 1022 8 15 -28 85 -197 381
-114 199 -213 370 -219 379 -10 15 -18 13 -89 -18 -43 -19 -80 -33 -82 -31 -2
2 -44 100 -95 218 -50 118 -216 500 -369 849 l-278 635 -11 250 c-7 138 -20
304 -29 370 l-18 120 -115 -1 -115 0 -214 680 c-117 375 -297 949 -400 1276
l-188 595 24 330 c20 272 24 388 22 660 l-3 330 -248 885 -249 884 -614 1011
-613 1010 -568 680 -567 680 -592 543 -592 543 -603 388 c-545 350 -658 418
-1158 696 l-554 309 -1693 307 -1694 307 -1867 248 -1868 248 -1330 -118
-1330 -117 -504 80 c-277 45 -509 84 -515 88 -6 4 -363 274 -794 600 -431 327
-791 597 -800 601 -9 3 -644 135 -1411 292 l-1394 286 -1424 -179 -1425 -179
-899 -576 c-730 -468 -900 -582 -908 -604 -10 -28 -11 -28 -93 -28 -46 -1
-382 -11 -748 -24 -533 -19 -667 -21 -675 -11 -5 7 -80 137 -165 290 l-155
278 -843 805 -843 805 -391 294 c-216 161 -401 296 -413 298 -43 10 -440 95
-440 94 0 0 -310 -89 -690 -198z m11138 -13388 l906 -548 -562 -5 c-419 -4
-569 -8 -590 -17 -22 -10 -171 -13 -634 -13 l-605 0 -76 55 -76 55 -454 0
-453 0 -52 35 -52 35 -338 0 -338 0 7 153 c4 91 11 156 18 163 6 6 135 125
286 264 151 139 298 275 326 302 l51 49 504 8 c277 4 667 8 865 9 l362 2 905
-547z m1140 -678 l82 -45 -57 0 c-56 0 -57 1 -88 45 -17 25 -28 45 -25 45 3 0
42 -20 88 -45z"/>
</g>
</svg>
