<?xml version="1.0" standalone="no"?>
<!DOCTYPE svg PUBLIC "-//W3C//DTD SVG 20010904//EN"
 "http://www.w3.org/TR/2001/REC-SVG-20010904/DTD/svg10.dtd">
<svg version="1.0" xmlns="http://www.w3.org/2000/svg"
   viewBox="0 0 3529.000000 1040.000000"
 preserveAspectRatio="xMidYMid meet">
<metadata>
Created by potrace 1.16, written by Peter Selinger 2001-2019
</metadata>
<g transform="translate(0.000000,1040.000000) scale(0.100000,-0.100000)"
fill="#000000" stroke="none">
<path d="M9610 10365 c0 -5 5 -17 10 -25 5 -8 10 -10 10 -5 0 6 -5 17 -10 25
-5 8 -10 11 -10 5z"/>
<path d="M4463 10320 c3 -8 125 -222 271 -475 146 -253 266 -468 266 -477 0
-17 -23 -18 -367 -18 -249 0 -377 4 -398 11 -29 11 -73 -2 -516 -149 l-484
-161 -173 -21 c-155 -18 -235 -20 -728 -20 -363 0 -554 -3 -554 -10 0 -6 -28
-10 -63 -10 -66 0 -97 -17 -97 -52 0 -8 -11 -25 -25 -38 -22 -20 -25 -32 -25
-90 0 -58 3 -70 25 -90 15 -14 25 -35 25 -52 l0 -28 -515 0 -515 0 0 -25 0
-25 -265 0 -265 0 0 -125 c0 -98 -3 -125 -13 -125 -32 0 -47 -35 -47 -111 0
-71 2 -77 30 -104 l30 -29 0 -386 0 -386 -30 -29 c-28 -27 -30 -33 -30 -105 0
-62 4 -80 18 -93 10 -10 24 -17 30 -17 9 0 12 -47 12 -170 l0 -170 675 0 675
0 0 -41 c0 -33 7 -49 35 -80 60 -67 54 -71 -97 -63 -73 3 -158 12 -189 20 -45
11 -160 14 -541 14 -467 0 -486 -1 -502 -19 -17 -19 -15 -31 49 -292 53 -217
71 -276 88 -290 20 -17 50 -18 427 -19 371 0 412 2 488 20 64 15 118 20 235
20 84 0 168 -3 189 -6 47 -8 58 -39 22 -66 -21 -17 -24 -28 -24 -79 0 -50 7
-73 45 -149 l45 -90 0 -195 0 -195 1108 0 1108 0 42 -31 c51 -37 58 -80 17
-101 -23 -13 -7 -24 372 -268 448 -289 494 -316 543 -329 19 -5 53 -14 76 -20
37 -10 44 -18 95 -105 33 -59 62 -97 74 -100 11 -3 175 -35 365 -71 259 -49
349 -70 360 -83 8 -10 50 -59 93 -109 l77 -90 203 -70 202 -70 3 -148 3 -147
-258 -406 c-294 -463 -275 -432 -270 -432 3 0 127 187 277 415 l273 415 282 0
c269 0 283 1 300 20 15 16 31 20 84 20 56 0 98 -11 286 -76 121 -42 222 -78
224 -80 2 -2 -2 -11 -9 -19 -15 -18 -12 -22 119 -157 l85 -88 -38 -39 c-28
-28 -37 -45 -34 -65 2 -18 148 -185 481 -550 l477 -525 0 -140 0 -141 2224 0
2224 0 835 -280 836 -280 4779 0 c4766 0 4779 0 4797 20 16 17 31 20 112 20
l93 0 0 40 c0 29 5 42 19 50 24 12 68 13 73 1 2 -4 29 -25 60 -45 l57 -36 156
0 c131 0 155 2 155 15 0 13 33 15 243 14 l242 0 465 -550 c256 -303 472 -556
480 -562 8 -7 -5 12 -30 42 -25 30 -240 289 -478 575 -298 359 -431 527 -430
541 2 16 12 21 46 23 33 2 42 0 42 -12 0 -9 6 -16 13 -16 16 0 27 342 27 807
l0 263 -60 0 -60 0 0 131 0 130 80 -7 c50 -4 80 -3 80 3 0 5 12 15 27 22 24
11 29 9 67 -28 l42 -41 3594 0 3595 0 58 88 c85 130 86 127 -90 203 l-148 64
-3 63 -3 62 254 0 254 0 179 114 179 115 329 10 c180 6 352 11 382 11 l54 0 6
40 7 40 72 0 c39 0 154 3 253 7 l182 6 0 94 0 93 -1715 0 -1715 0 0 35 0 35
1825 0 1825 0 0 2459 c0 1955 -3 2461 -12 2469 -7 5 -85 35 -173 65 -158 54
-160 55 -163 86 l-3 31 -101 0 -100 0 -918 470 c-848 434 -922 470 -968 470
-30 0 -54 5 -61 14 -8 9 -25 12 -49 10 l-37 -5 -165 231 c-91 127 -169 234
-174 237 -8 5 267 -405 306 -456 10 -14 15 -28 11 -32 -4 -4 -115 -50 -245
-103 l-237 -96 -10468 0 c-9088 0 -10550 -2 -11092 -15 -343 -9 -625 -14 -626
-13 -1 2 -86 213 -190 471 -103 257 -189 466 -191 464 -2 -2 80 -218 181 -480
163 -422 185 -484 185 -535 0 -32 6 -65 13 -74 10 -14 75 -20 442 -39 l430
-22 35 -33 35 -34 -408 0 -407 0 0 -280 0 -280 -180 0 c-99 0 -180 4 -180 8 0
18 26 32 57 32 33 0 33 0 33 47 0 34 -7 57 -26 85 l-27 38 -84 0 -84 0 -21
-47 c-17 -39 -19 -52 -9 -83 6 -21 11 -100 11 -177 0 -133 1 -141 23 -161 13
-12 31 -22 40 -22 9 0 17 -5 17 -10 0 -10 -15 -8 -90 11 -19 5 -252 9 -517 9
l-483 0 0 38 c0 33 -8 45 -70 107 -38 38 -70 77 -70 86 0 12 -24 27 -77 49
-43 18 -126 52 -185 77 l-108 45 0 84 c0 77 2 84 20 84 11 0 20 7 20 15 0 11
12 15 50 15 l50 0 0 90 0 90 200 0 200 0 0 129 0 130 -85 26 -85 26 0 119 0
120 110 0 c90 0 110 3 110 15 0 16 -4 17 -130 39 -118 21 -1085 31 -1720 17
-559 -11 -403 10 -1308 -177 -282 -58 -515 -105 -517 -103 -2 2 -130 216 -285
474 -155 259 -280 463 -277 455z m11547 -2600 l0 -430 -60 0 -60 0 0 430 0
430 60 0 60 0 0 -430z m3830 0 l0 -430 -55 0 -55 0 0 430 0 430 55 0 55 0 0
-430z m3840 0 l0 -430 -55 0 -55 0 0 430 0 430 55 0 55 0 0 -430z m3840 0 l0
-430 -60 0 -60 0 0 430 0 430 60 0 60 0 0 -430z m3830 0 l0 -430 -55 0 -55 0
0 430 0 430 55 0 55 0 0 -430z m-18058 -2840 l1580 -1390 51 0 51 0 -49 -50
-50 -51 -9 32 c-8 25 -179 183 -794 730 -691 614 -787 697 -804 688 -16 -9
-25 -6 -47 14 -49 45 -1565 1392 -1581 1404 -12 10 -8 12 28 13 43 0 44 -1
1624 -1390z m2718 -925 l0 -465 -60 0 -60 0 0 465 0 465 60 0 60 0 0 -465z
m3830 0 l0 -465 -55 0 -55 0 0 465 0 465 55 0 55 0 0 -465z m3840 0 l0 -465
-55 0 -55 0 0 465 0 465 55 0 55 0 0 -465z m3840 0 l0 -465 -60 0 -60 0 0 465
0 465 60 0 60 0 0 -465z m3830 0 l0 -465 -55 0 -55 0 0 465 0 465 55 0 55 0 0
-465z m-11910 -430 l0 -35 -1575 0 -1575 0 0 35 0 35 1575 0 1575 0 0 -35z
m3840 0 l0 -35 -1575 0 -1575 0 0 35 0 35 1575 0 1575 0 0 -35z m3830 0 l0
-35 -1570 0 -1570 0 0 35 0 35 1570 0 1570 0 0 -35z m3840 0 l0 -35 -1570 0
-1570 0 0 35 0 35 1570 0 1570 0 0 -35z m-21750 -235 l0 -100 -115 0 -115 0 0
100 0 100 115 0 115 0 0 -100z m5670 -230 c0 -6 -53 -10 -140 -10 l-140 0 0
-35 0 -35 -730 0 -730 0 0 45 0 45 870 0 c573 0 870 -3 870 -10z m9494 -157
c63 -88 73 -126 29 -114 -18 5 -36 23 -53 52 -14 24 -38 65 -53 92 l-28 47 24
0 c19 0 37 -17 81 -77z m3011 67 c3 -5 42 -10 85 -10 43 0 82 5 85 10 4 6 200
10 557 10 l550 0 -6 -50 c-3 -27 -9 -72 -12 -100 l-6 -50 -1284 0 c-1216 0
-1284 1 -1284 18 0 9 -32 54 -70 100 l-71 82 725 0 c472 0 727 -3 731 -10z
m3840 0 c3 -5 42 -10 85 -10 43 0 82 5 85 10 7 11 317 14 490 4 l110 -7 58
-83 c31 -45 57 -88 57 -93 0 -8 -315 -11 -1044 -11 l-1043 0 -9 100 -9 100
607 0 c394 0 609 -4 613 -10z"/>
<path d="M26560 26 c0 -2 8 -10 18 -17 15 -13 16 -12 3 4 -13 16 -21 21 -21
13z"/>
</g>
</svg>
