<?xml version="1.0" standalone="no"?>
<!DOCTYPE svg PUBLIC "-//W3C//DTD SVG 20010904//EN"
 "http://www.w3.org/TR/2001/REC-SVG-20010904/DTD/svg10.dtd">
<svg version="1.0" xmlns="http://www.w3.org/2000/svg"
   viewBox="0 0 4178.000000 3944.000000"
 preserveAspectRatio="xMidYMid meet">
<metadata>
Created by potrace 1.16, written by Peter Selinger 2001-2019
</metadata>
<g transform="translate(0.000000,3944.000000) scale(0.100000,-0.100000)"
fill="#000000" stroke="none">
<path d="M22809 38867 l-446 -572 95 -5 95 -5 -201 -245 c-111 -135 -201 -248
-202 -252 0 -5 15 -8 33 -9 92 -3 105 19 -243 -399 l-321 -385 886 -3 c844 -2
885 -3 885 -20 0 -11 17 -26 45 -40 45 -22 53 -22 490 -22 383 0 445 -2 452
-15 8 -13 75 -15 478 -17 l470 -3 -215 -112 -215 -113 -572 0 -572 0 -249
-185 -249 -185 -1119 0 -1119 0 -612 -738 -611 -737 1799 -3 c1583 -2 1799 -4
1799 -17 0 -8 18 -26 40 -40 l40 -25 449 0 c388 0 451 -2 458 -15 7 -13 71
-15 445 -17 l436 -3 -196 -112 -196 -113 -1225 0 -1226 0 -200 -165 -200 -164
-1391 -1 -1391 0 -629 -747 c-346 -411 -630 -751 -632 -755 -2 -4 609 -8 1357
-8 l1360 0 46 -32 45 -32 0 -107 0 -108 -53 -38 c-29 -21 -118 -111 -198 -200
l-144 -162 -1487 -1 c-819 0 -1488 3 -1488 6 0 3 34 46 76 95 42 50 75 92 73
94 -12 10 -130 95 -134 95 -2 0 -70 -78 -150 -174 -83 -99 -155 -176 -167
-180 -13 -3 -54 -6 -93 -6 l-70 0 -450 -498 -450 -497 -5 -1255 -5 -1254 -40
-8 c-22 -5 -57 -13 -77 -19 l-38 -10 0 -312 1 -312 129 -147 130 -147 0 -71 0
-70 -299 0 -300 0 -21 30 -21 30 -317 1 -317 0 -64 75 -63 74 -443 0 c-384 0
-444 2 -449 15 -3 9 -18 15 -40 15 -25 0 -43 8 -64 30 -27 27 -37 30 -91 30
-55 0 -61 2 -61 21 0 31 -229 271 -280 294 -37 17 -42 17 -56 3 -14 -14 -14
-19 4 -54 11 -22 41 -59 66 -84 46 -44 46 -45 46 -111 0 -60 -3 -70 -29 -98
-22 -23 -38 -31 -64 -31 -22 0 -37 -6 -41 -15 -5 -13 -41 -15 -241 -15 l-235
0 0 -115 0 -115 198 0 197 0 70 -117 70 -117 140 -36 c77 -20 152 -40 166 -43
21 -5 33 -21 54 -72 l28 -65 144 0 143 0 0 -390 c0 -340 -2 -390 -15 -390 -10
0 -15 11 -15 35 l0 35 -1195 0 -1195 0 -115 -77 c-77 -51 -115 -82 -115 -95 0
-17 -10 -18 -132 -18 l-133 0 -1428 -577 -1428 -578 3 -218 3 -217 -422 0
-423 0 0 200 0 200 -880 0 -880 0 0 -200 0 -200 -610 0 -610 0 0 205 0 205
-2095 0 c-1152 0 -2095 -3 -2095 -7 0 -5 7 -30 15 -57 8 -27 15 -53 15 -58 0
-4 -50 -8 -111 -8 -100 0 -110 -2 -105 -17 3 -10 48 -166 101 -348 52 -181 99
-339 104 -351 5 -11 70 -65 146 -119 86 -62 140 -108 147 -124 5 -14 43 -135
83 -269 40 -134 79 -249 87 -255 28 -23 98 -250 133 -432 19 -99 61 -273 93
-387 l57 -207 59 -3 59 -3 108 -255 c105 -250 108 -255 138 -258 l31 -3 0
-295 0 -294 50 0 50 0 0 -55 0 -55 155 0 155 0 0 55 0 55 275 0 275 0 0 -55 0
-55 155 0 155 0 0 55 0 55 253 0 253 0 87 -169 c73 -140 87 -176 87 -215 l0
-46 -455 0 -455 0 0 -446 0 -446 80 -104 80 -103 0 -311 0 -310 388 0 388 0
29 -60 29 -60 843 0 843 0 0 -131 0 -132 435 8 435 7 0 -61 0 -61 53 0 c28 0
103 3 164 7 l113 6 0 47 0 47 601 8 601 7 359 252 359 251 0 83 0 82 100 0
100 0 0 -80 0 -80 265 -2 264 -3 -384 -284 -385 -285 0 -958 0 -958 575 0 575
0 0 -28 c0 -28 4 -30 245 -115 l245 -87 425 0 425 0 0 -65 0 -65 155 0 155 0
0 65 0 65 145 0 145 0 0 -65 0 -65 155 0 155 0 0 65 0 65 403 0 403 0 72 89
c48 59 72 98 72 115 l0 25 132 3 131 3 319 455 319 455 89 3 90 3 0 -561 0
-560 -24 0 c-52 0 -56 -22 -56 -291 l0 -247 25 -16 c13 -9 31 -16 40 -16 9 0
15 -9 15 -25 0 -24 2 -25 70 -25 l70 0 0 -75 0 -75 315 0 315 0 0 75 0 75 90
0 90 0 0 -75 0 -75 315 0 315 0 0 75 c0 54 4 75 13 75 7 0 38 -51 69 -113 l56
-113 -30 -37 -30 -37 -154 0 -154 0 0 -152 0 -153 655 -619 655 -618 0 -549 0
-549 -90 0 -90 0 0 -160 0 -160 -405 0 -405 0 0 -25 0 -25 -105 0 -105 0 0
-1305 0 -1305 598 0 599 0 6 -167 c4 -91 7 -674 7 -1295 l0 -1128 1685 0 1685
0 0 -2650 0 -2650 -135 0 -135 0 0 -95 0 -95 60 0 60 0 0 -90 0 -90 -80 0 -80
0 0 -320 0 -320 418 0 417 -1 275 -237 275 -238 3 -177 2 -177 200 0 200 0 0
48 0 49 113 51 112 51 3 46 3 45 925 0 924 0 0 30 0 30 -925 0 -925 0 0 165 0
165 768 0 c422 0 1324 3 2005 7 l1237 6 0 69 0 68 -189 0 -188 0 -24 -35 -24
-35 -1160 6 -1160 6 -65 44 -65 44 -312 0 -313 0 -11 -45 -11 -45 -244 0 -244
0 0 85 0 85 -115 0 -115 0 0 25 0 25 -110 0 -110 0 0 86 c0 91 1 92 48 50 l23
-20 162 161 162 161 775 6 c426 3 1136 9 1578 12 l802 6 0 23 0 22 -392 6
c-215 4 -629 7 -919 7 -290 0 -529 4 -531 8 -1 5 -29 27 -60 50 l-57 42 -503
0 -503 0 168 168 167 167 0 198 0 197 1533 0 1533 0 2445 2915 2444 2915 206
0 207 0 889 1063 888 1062 198 3 197 2 0 501 0 500 -80 119 c-44 66 -87 120
-95 120 -13 0 -15 102 -15 815 l0 815 75 0 75 0 0 64 c0 56 20 126 155 536
l155 473 0 308 0 309 -628 0 -628 0 -64 -65 -64 -65 -3513 0 -3512 0 -53 60
-52 60 -1873 0 -1873 0 0 85 0 85 -85 0 -85 0 0 525 0 525 694 0 693 0 611
418 611 417 1 43 0 42 255 0 255 0 0 45 0 45 1945 0 1945 0 0 175 0 175 2039
0 2039 0 32 -80 32 -80 214 0 214 0 0 -31 0 -31 1808 6 c994 4 2083 9 2420 12
l612 6 0 28 0 28 -1597 6 c-879 3 -1617 8 -1640 12 -39 5 -43 9 -43 33 l0 28
353 6 c193 4 610 7 925 7 549 0 572 1 572 18 0 17 -14 19 -187 25 -104 4 -520
7 -925 7 -649 0 -738 2 -738 15 0 13 -51 15 -400 15 l-400 0 0 80 0 80 345 0
345 0 0 240 0 240 110 0 c85 0 110 3 110 13 0 15 404 27 938 27 l292 0 0 30 0
30 -502 1 c-458 1 -715 8 -885 25 l-63 6 0 249 0 249 45 0 45 0 0 105 0 105
-40 0 -40 0 0 45 0 45 -46 0 c-40 0 -58 8 -147 70 l-101 70 -214 0 -214 0 -62
-35 -63 -35 -431 0 c-377 0 -432 -2 -432 -15 0 -13 -142 -15 -1220 -15 -1213
0 -1220 0 -1220 20 0 19 -7 20 -150 20 l-150 0 0 35 0 35 69 0 68 0 7 38 c3
20 6 54 6 75 l0 37 -359 0 -359 0 -7 -65 c-6 -63 -7 -65 -35 -65 -28 0 -29 -2
-35 -65 l-7 -65 -609 0 c-602 0 -609 0 -609 20 0 19 -7 20 -156 20 l-156 0 6
23 c3 12 6 28 6 35 0 8 21 12 70 12 l70 0 0 38 c0 20 3 54 6 75 l7 37 -367 0
c-319 0 -366 -2 -366 -15 0 -22 -69 -19 -105 5 -28 18 -47 20 -260 20 -219 0
-231 -1 -243 -20 -12 -20 -23 -20 -1062 -20 l-1050 0 0 75 0 75 -155 0 -155 0
0 155 0 155 -855 0 -855 0 0 140 0 140 -550 0 -550 0 0 155 0 155 685 0 685 0
0 160 0 160 -685 0 -685 0 0 40 c0 39 1 40 35 40 l35 0 0 54 c0 55 0 55 120
206 l120 151 0 140 0 139 348 0 348 0 131 -90 131 -90 144 0 144 0 24 33 c13
17 251 256 527 531 l503 499 0 318 0 319 825 0 825 0 0 -135 0 -135 125 0 125
0 0 135 0 135 295 0 295 0 0 -135 0 -135 125 0 125 0 0 135 0 135 418 0 419 0
86 -65 86 -65 879 0 878 0 74 -120 73 -120 604 0 603 0 0 93 c0 92 0 93 -33
125 l-33 32 -347 0 -347 0 0 135 0 135 814 0 815 0 53 70 53 69 1990 1 1990 0
95 -125 95 -124 1629 -3 1630 -3 33 -57 34 -58 504 0 c494 0 505 0 517 20 12
19 24 20 228 20 l216 0 32 33 c22 22 30 39 26 50 -6 16 -45 17 -449 17 l-443
0 -66 118 -66 117 940 3 939 2 3 74 3 75 583 590 582 589 0 116 0 116 55 0 55
0 0 170 0 170 -96 0 c-83 0 -104 4 -166 30 l-70 30 -1627 0 -1626 0 -160 -160
-160 -160 -606 0 -607 0 -45 -50 -45 -50 -306 0 c-265 0 -306 2 -306 15 0 13
-27 15 -180 15 -153 0 -180 -2 -180 -15 0 -13 -46 -15 -350 -15 -304 0 -350 2
-350 15 0 13 -26 15 -175 15 -149 0 -175 -2 -175 -15 0 -13 -29 -15 -200 -15
l-200 0 0 270 0 270 -85 0 -85 0 0 -270 0 -270 -65 0 c-51 0 -65 3 -65 15 0
13 -26 15 -175 15 -149 0 -175 -2 -175 -15 0 -13 -46 -15 -350 -15 -304 0
-350 2 -350 15 0 13 -26 15 -175 15 -149 0 -175 -2 -175 -15 0 -13 -46 -15
-350 -15 -304 0 -350 2 -350 15 0 13 -26 15 -175 15 l-175 0 0 255 0 255 -80
0 -80 0 0 -270 0 -270 -227 2 -226 3 -56 102 -56 103 -547 0 -548 0 0 -150 0
-150 -110 0 -110 0 0 150 0 150 -320 0 -320 0 0 -150 0 -150 -100 0 -100 0 0
150 0 150 -490 0 -490 0 0 165 0 165 -80 0 -80 0 0 -315 0 -315 -185 0 -185 0
0 185 0 185 -207 245 -208 244 -222 1 -223 0 0 165 0 165 1175 0 1175 0 0 30
0 30 -1175 0 -1175 0 0 130 0 130 1693 0 c932 0 1944 3 2250 7 l557 6 0 34 0
33 -381 0 -381 0 -58 45 -59 45 -298 -2 -297 -3 -12 -40 -11 -40 -456 0 c-252
0 -927 1 -1502 3 l-1045 2 0 742 0 741 93 154 92 153 293 0 292 0 0 356 0 355
-130 250 -130 249 0 80 c0 64 -3 80 -15 80 -13 0 -15 110 -15 930 0 884 1 930
18 930 12 0 37 37 85 127 l67 127 0 418 0 418 -233 0 -232 0 -243 243 -242
242 0 2674 0 2673 50 63 50 63 0 325 0 325 -217 206 -218 206 -1130 0 -1130 0
-446 -573z m2511 244 c0 -28 -12 -36 -220 -155 l-220 -126 -412 0 -413 0 -177
-150 -177 -150 -399 2 -400 3 119 143 120 142 270 0 271 0 78 68 c71 61 79 70
79 105 l1 37 229 0 c174 0 230 3 234 13 3 6 19 31 36 55 l31 42 475 0 475 0 0
-29z m-1570 -103 c0 -15 -20 -39 -56 -70 l-55 -48 -220 0 -220 0 57 70 58 70
218 0 218 0 0 -22z m1470 -720 c0 -298 -4 -538 -8 -533 -5 6 -43 52 -85 103
l-77 94 0 408 0 409 78 30 c42 17 80 30 85 31 4 0 7 -244 7 -542z m0 -2189 l0
-541 -85 103 -85 104 2 409 3 408 75 29 c41 15 78 28 83 28 4 1 7 -243 7 -540z
m-2 -2440 l-3 -270 -82 100 -83 101 0 409 0 408 83 30 82 29 3 -268 c1 -147 1
-390 0 -539z m-1828 -1052 c0 -6 20 -24 45 -40 l46 -27 443 0 c382 0 445 -2
456 -15 11 -13 75 -15 469 -15 l456 0 -210 -120 -210 -120 -1772 0 -1773 0 0
175 0 175 1025 0 c816 0 1025 -3 1025 -13z m1830 -882 c0 -294 -2 -535 -4
-535 -2 0 -40 45 -85 99 l-81 99 0 409 0 408 73 27 c39 15 78 27 85 27 9 1 12
-112 12 -534z m-8520 -725 l0 -190 -78 0 -78 0 -53 54 c-48 49 -52 56 -40 73
8 10 57 72 109 136 70 86 101 117 118 117 l22 0 0 -190z m-150 -377 l0 -113
-55 0 -55 0 0 167 0 167 55 -54 55 -54 0 -113z m4181 -239 l49 -36 0 -108 0
-108 -49 -36 -49 -36 -364 0 -364 0 -150 -130 -149 -130 -1607 0 -1608 0 0
310 0 310 2121 0 2121 0 49 -36z m2662 17 c2 -11 23 -29 45 -40 40 -20 55 -21
485 -21 383 0 446 -2 457 -15 11 -13 76 -15 479 -15 l466 0 -219 -125 -218
-125 -1774 0 -1774 0 0 180 0 180 1024 0 c1001 0 1024 0 1029 -19z m1827 -886
c0 -294 -2 -535 -4 -535 -2 0 -40 45 -85 99 l-81 99 0 409 0 408 73 27 c39 14
78 27 85 27 9 1 12 -112 12 -534z m-8700 106 l0 -99 -34 -21 c-18 -12 -36 -21
-40 -21 -3 0 -6 54 -6 120 l0 120 40 0 40 0 0 -99z m146 -938 c-2 -2 -54 24
-115 59 l-111 63 3 279 2 278 110 64 110 63 3 -401 c1 -221 0 -403 -2 -405z
m-86 -326 l0 -219 -32 19 -33 19 -3 217 -2 217 35 -17 35 -17 0 -219z m-590
-339 l0 -222 41 -48 c36 -43 40 -53 37 -94 l-3 -46 -67 80 -68 80 0 230 c0
240 0 239 43 241 16 1 17 -16 17 -221z m7400 174 c0 -11 16 -26 45 -40 45 -22
53 -22 489 -22 382 0 445 -2 456 -15 11 -13 76 -15 476 -15 l464 0 -91 -150
-91 -150 -1770 0 -1769 0 -260 -235 -260 -235 -376 0 -377 0 -114 -47 c-74
-31 -117 -54 -120 -65 -4 -17 -28 -18 -326 -18 -176 0 -500 3 -718 7 -384 6
-397 7 -400 26 -2 14 -28 29 -98 58 l-95 38 -402 0 -402 1 -3 43 -3 42 -490
282 c-269 155 -509 293 -533 307 l-43 26 48 90 48 90 3358 0 c3227 0 3357 -1
3357 -18z m-249 -912 l311 -120 844 0 844 0 -2 -297 -3 -298 -200 -152 -200
-153 -1405 0 -1406 0 -169 103 -170 103 -5 154 -5 154 -142 76 c-78 41 -141
78 -140 82 1 4 119 111 262 238 l260 230 508 0 507 0 311 -120z m-2263 -7568
c-1 -5 -21 -38 -43 -75 l-39 -67 -277 0 -277 0 -31 39 c-22 27 -31 50 -31 75
l0 36 351 0 c193 0 349 -4 347 -8z m1842 -420 l0 -59 1455 5 c1085 4 1455 2
1455 -7 0 -6 -15 -11 -35 -11 -37 0 -43 -8 -23 -28 8 -8 49 -12 119 -12 l108
0 61 -75 c59 -72 62 -78 58 -121 -3 -43 -2 -46 25 -51 16 -3 31 -12 34 -19 4
-12 -8 -169 -23 -281 l-5 -43 -206 0 -205 0 -48 -40 -48 -40 -194 0 -195 0
-11 -25 -12 -25 -678 0 -679 0 -11 25 -12 25 -279 0 -279 0 -553 383 -552 382
96 3 97 3 23 34 22 35 248 0 247 0 0 -58z m3212 -154 l-4 -42 -29 35 c-36 44
-36 49 4 49 32 0 32 0 29 -42z m2192 -163 c5 -23 13 -35 23 -35 13 0 15 -8 10
-42 -3 -24 -11 -103 -18 -175 l-13 -133 -726 0 c-714 0 -725 0 -738 20 -10 16
-23 20 -63 20 -50 0 -51 0 -45 28 3 15 10 100 17 190 l12 162 767 0 768 0 6
-35z m3246 0 c0 -35 0 -35 45 -35 33 0 105 -24 275 -92 l230 -92 0 -73 0 -73
-199 0 c-123 0 -202 4 -206 10 -4 6 -93 10 -234 10 l-228 0 -42 -60 -42 -60
-759 0 -759 0 -22 40 -23 40 -276 0 c-264 0 -278 1 -295 20 -13 14 -31 20 -62
20 -40 0 -43 2 -43 26 0 31 18 253 26 312 l5 42 1305 0 1304 0 0 -35z m-297
-4840 c73 -156 87 -194 87 -235 0 -48 -1 -50 -29 -50 -16 0 -31 6 -35 15 -8
22 -438 22 -476 0 -20 -12 -85 -14 -332 -15 l-306 0 -36 -42 c-20 -23 -36 -48
-36 -55 0 -11 -663 -13 -3820 -13 -2101 0 -3820 2 -3820 4 0 2 47 46 105 97
93 83 105 98 105 126 l0 33 481 0 482 0 197 140 198 140 2775 0 c2744 0 2775
0 2798 20 23 19 43 19 799 20 l775 0 88 -185z m127 -1483 c0 -116 -2 -128 -20
-140 -20 -12 -20 -10 -20 138 0 148 0 150 20 140 18 -10 20 -21 20 -138z m110
-139 c0 -285 0 -286 -20 -268 -19 17 -20 31 -20 287 0 261 0 268 20 268 20 0
20 -7 20 -287z m-9360 -68 l0 -255 95 0 95 0 0 -145 0 -145 515 0 515 0 0
-175 0 -175 -515 0 -515 0 0 -925 0 -925 515 0 515 0 0 -175 0 -175 -515 0
-515 0 0 -433 0 -432 460 -414 460 -415 0 -78 0 -78 55 0 55 0 0 -175 0 -175
-55 0 -55 0 0 -920 0 -920 55 0 55 0 0 -175 0 -175 -484 0 -484 0 -101 -96
-101 -96 0 -313 0 -312 530 -516 529 -517 310 0 309 0 128 154 129 155 550 0
550 1 28 35 c21 27 35 35 60 35 25 0 38 8 57 35 18 25 33 35 53 35 l27 0 0
-110 0 -110 -311 -370 -310 -370 -880 0 -879 0 0 205 0 205 -28 0 c-22 0 -86
58 -364 330 l-336 330 -169 0 -168 0 -67 63 -68 63 0 3810 0 3810 -63 109 -63
110 -260 162 c-148 94 -258 168 -256 175 2 7 14 24 28 39 l24 25 0 332 0 332
430 0 430 0 0 -255z m9288 -278 l72 -78 0 -220 0 -219 -103 0 c-58 0 -108 5
-113 10 -7 7 -90 9 -245 5 -129 -3 -376 -7 -550 -10 l-316 -6 -39 -49 -39 -49
-3197 -1 -3198 0 0 175 0 175 2459 0 2460 0 128 155 128 155 1238 0 1237 0 0
22 c0 12 2 19 3 17 2 -2 36 -39 75 -82z m42 -1652 c0 -4 -353 -428 -387 -465
-12 -13 -14 -9 -11 32 3 44 11 57 168 242 151 180 168 196 198 196 17 0 32 -2
32 -5z m-510 -503 l0 -108 -177 -212 -178 -212 -578 0 c-491 0 -583 -2 -614
-15 -29 -12 -92 -15 -338 -15 l-302 0 -31 -39 c-18 -22 -32 -45 -32 -50 0 -8
-749 -11 -2505 -11 l-2505 0 0 175 0 175 2008 0 2008 0 128 155 129 155 1387
0 1387 0 23 25 c15 16 34 25 55 25 22 0 40 9 60 30 16 17 39 30 52 30 23 0 23
-2 23 -108z m-1056 -1364 c-8 -12 -624 -749 -650 -778 -12 -12 -14 -7 -14 32
0 46 1 47 301 402 289 343 301 356 335 356 25 0 33 -3 28 -12z m-9064 -873 l0
-495 -120 0 -120 0 0 495 0 495 120 0 120 0 0 -495z m8290 62 l0 -113 -182
-217 -181 -217 -577 0 c-491 0 -583 -2 -613 -15 -30 -12 -93 -15 -340 -15
l-304 0 -29 -37 c-17 -21 -33 -46 -37 -55 -6 -17 -91 -18 -1587 -18 l-1580 0
0 175 0 175 1162 2 1162 3 125 153 126 152 1315 0 1316 0 34 35 c23 23 43 35
61 35 20 0 36 10 55 35 17 23 35 35 50 35 24 0 24 -1 24 -113z m-8760 -1930
l0 -1233 -151 -110 c-84 -60 -158 -113 -165 -117 -12 -7 -14 208 -14 1343 l0
1350 165 0 165 0 0 -1233z m470 533 l0 -259 190 -205 190 -205 0 -1535 0
-1536 -307 -372 c-168 -205 -308 -375 -310 -377 -1 -2 -3 1065 -3 2372 l0
2377 120 0 120 0 0 -260z m7230 25 c0 -5 -616 -743 -651 -780 -19 -19 -19 -19
-19 25 0 44 5 51 301 403 288 343 301 357 334 357 19 0 35 -2 35 -5z m-780
-824 l0 -109 -185 -221 -186 -221 -582 0 c-486 -1 -586 -3 -607 -15 -20 -12
-85 -14 -335 -15 l-310 0 -32 -40 c-18 -21 -33 -43 -33 -49 0 -8 -199 -11
-660 -11 l-660 0 0 175 0 175 313 0 313 0 132 155 132 155 1241 0 1240 0 30
35 c21 24 40 35 58 35 17 0 38 11 56 30 16 17 39 30 52 30 23 0 23 -2 23 -109z
m-6924 -1748 c-6 -6 -321 228 -321 239 0 5 72 62 160 126 l160 117 3 -239 c1
-131 1 -241 -2 -243z m5661 135 c-112 -134 -262 -312 -333 -397 l-129 -154 -3
41 c-3 41 0 45 295 397 296 352 298 355 336 355 l38 0 -204 -242z m-5816 -320
c87 -62 159 -116 159 -119 0 -4 -280 -210 -317 -232 -11 -7 -13 33 -13 228 0
129 3 235 6 235 3 0 77 -51 165 -112z m157 -783 l-3 -127 -162 118 c-89 66
-161 123 -160 128 2 5 75 61 162 125 l160 117 3 -117 c1 -65 1 -175 0 -244z
m2092 -212 c64 -65 133 -137 155 -160 l39 -43 -332 0 -332 0 0 160 0 160 178
0 177 0 115 -117z m-2254 -94 c85 -62 157 -115 159 -120 5 -7 -305 -239 -319
-239 -3 0 -6 106 -6 235 0 129 3 235 6 235 3 0 75 -50 160 -111z m164 -604 l0
-175 -165 0 -165 0 0 59 0 59 158 115 c86 64 160 116 165 116 4 1 7 -78 7
-174z"/>
<path d="M13430 28035 c0 -14 -4 -25 -10 -25 -6 0 -10 -35 -10 -85 0 -50 4
-85 10 -85 6 0 10 -11 10 -25 0 -23 4 -25 45 -25 l45 0 0 135 0 135 -45 0
c-41 0 -45 -2 -45 -25z"/>
</g>
</svg>
