<?xml version="1.0" standalone="no"?>
<!DOCTYPE svg PUBLIC "-//W3C//DTD SVG 20010904//EN"
 "http://www.w3.org/TR/2001/REC-SVG-20010904/DTD/svg10.dtd">
<svg version="1.0" xmlns="http://www.w3.org/2000/svg"
   viewBox="0 0 3507.000000 861.000000"
 preserveAspectRatio="xMidYMid meet">
<metadata>
Created by potrace 1.16, written by Peter Selinger 2001-2019
</metadata>
<g transform="translate(0.000000,861.000000) scale(0.100000,-0.100000)"
fill="#000000" stroke="none">
<path d="M6820 8539 c-630 -64 -663 -68 -858 -113 l-204 -48 -70 26 c-66 25
-75 26 -152 16 -226 -28 -1989 -170 -2117 -170 l-71 0 -117 -109 c-99 -92
-120 -108 -135 -99 -22 12 -2710 7 -2722 -5 -11 -10 -173 -1660 -165 -1669 4
-4 314 -12 689 -17 766 -12 680 -2 774 -87 l40 -36 -23 -157 -24 -156 -465 -5
-465 -5 -367 -225 -367 -225 -1 -877 0 -877 80 -43 80 -43 0 -1457 c0 -802 3
-1458 8 -1458 21 1 2610 -192 2629 -195 20 -5 21 -11 25 -119 1 -63 6 -118 10
-122 4 -4 430 -11 948 -17 883 -10 940 -12 945 -28 5 -13 19 -19 53 -21 43 -3
47 -5 50 -30 l3 -28 892 0 c491 0 916 3 946 7 47 5 55 10 65 35 l10 28 101 0
c55 0 595 -7 1200 -15 851 -11 1101 -11 1107 -2 4 7 8 157 8 335 0 177 2 322
4 322 3 0 291 47 641 105 604 99 636 106 658 130 12 14 103 117 202 230 l180
205 50 -5 c28 -3 185 -5 349 -5 l299 0 -7 -749 c-4 -466 -3 -751 2 -755 20
-12 3080 53 3472 74 912 49 1693 80 2215 89 438 8 816 23 1735 70 646 33 1402
67 1680 76 278 9 978 43 1555 75 578 33 1174 62 1325 65 530 13 4836 402 4865
440 6 7 15 21 20 30 8 14 77 29 330 71 l319 53 60 59 61 59 1015 162 c558 90
1618 268 2354 397 l1339 234 566 172 c311 95 572 179 579 188 47 56 47 58 16
102 -25 36 -37 43 -88 55 -32 7 -288 76 -570 152 l-511 140 -1340 190 c-737
105 -1664 233 -2060 286 -396 52 -756 102 -800 110 -44 8 -110 19 -146 25 -36
5 -133 20 -216 34 -83 15 -153 26 -156 26 -3 0 -28 40 -56 88 l-50 88 -311 40
c-172 21 -316 41 -320 44 -5 3 -15 70 -22 149 -6 79 -17 149 -23 155 -7 7
-239 27 -636 54 -343 24 -1357 101 -2254 172 -1488 118 -1657 134 -1940 175
-302 44 -336 47 -1300 105 l-990 60 -390 55 -390 55 -1391 79 -1390 79 -539
-58 -538 -59 -676 39 -676 39 -244 75 -244 75 -926 26 c-509 14 -964 25 -1011
25 l-85 0 -240 441 c-238 436 -241 442 -399 647 -87 114 -276 347 -419 519
l-259 312 -592 454 -591 453 -256 132 c-385 197 -936 445 -1094 492 -130 39
-130 39 -755 94 -344 31 -636 57 -650 59 -14 1 -320 -27 -680 -64z m2627
-4462 c38 -50 75 -102 82 -115 l12 -22 -191 0 -190 0 0 115 0 115 109 0 109 0
69 -93z m593 -22 l0 -115 -175 2 -176 3 -69 113 -70 112 245 0 245 0 0 -115z"/>
</g>
</svg>
