<?xml version="1.0" standalone="no"?>
<!DOCTYPE svg PUBLIC "-//W3C//DTD SVG 20010904//EN"
 "http://www.w3.org/TR/2001/REC-SVG-20010904/DTD/svg10.dtd">
<svg version="1.0" xmlns="http://www.w3.org/2000/svg"
   viewBox="0 0 4611.000000 1166.000000"
 preserveAspectRatio="xMidYMid meet">
<metadata>
Created by potrace 1.16, written by Peter Selinger 2001-2019
</metadata>
<g transform="translate(0.000000,1166.000000) scale(0.100000,-0.100000)"
fill="#000000" stroke="none">
<path d="M18054 11539 l-120 -120 -500 14 c-340 9 -506 17 -521 25 -16 9 -178
12 -615 12 l-593 0 -41 -53 -40 -52 -340 -39 c-186 -21 -379 -45 -428 -53
l-90 -16 -238 -198 -237 -199 -55 0 -55 0 -162 -285 -163 -285 -1421 0 -1422
0 -23 -25 -23 -25 -269 0 -268 0 0 -55 0 -56 -29 15 -28 15 -144 -130 c-112
-101 -145 -137 -149 -160 l-5 -31 -24 26 -24 26 -1559 0 -1558 0 -12 -25 c-14
-32 -51 2 362 -340 184 -153 354 -296 377 -317 l43 -38 -341 0 c-285 0 -345
-2 -369 -15 l-30 -16 0 -199 0 -200 -229 0 -230 0 -463 411 c-416 369 -472
415 -550 455 l-88 44 -195 0 c-107 0 -195 3 -195 6 0 4 16 32 35 64 l35 58 0
312 0 313 -54 67 -54 67 -114 23 c-112 24 -113 24 -173 80 l-60 57 -267 67
-268 66 -629 0 -630 0 -11 43 c-6 23 -13 48 -15 55 -3 9 -39 12 -135 12 -96 0
-132 -3 -135 -12 -2 -7 -9 -32 -15 -55 l-11 -43 -67 0 -68 0 -27 55 -27 55
-120 0 -120 0 -27 -55 -27 -55 -81 0 -81 0 -54 -55 -54 -55 -229 0 -228 0 -53
-40 -53 -40 -135 0 -135 0 -184 -106 c-101 -58 -203 -124 -226 -146 -32 -31
-61 -82 -126 -222 -47 -100 -149 -315 -226 -478 -78 -163 -141 -301 -141 -306
0 -6 23 -51 52 -101 l52 -91 493 0 493 0 0 -157 0 -157 57 -58 57 -58 -29 0
c-17 0 -127 -17 -245 -39 l-215 -38 -103 -64 -103 -64 -70 -137 -69 -138 0
-1194 c0 -984 2 -1199 14 -1227 7 -19 26 -67 41 -107 l27 -73 846 6 c466 3
1069 7 1340 10 l492 6 0 -131 0 -130 -173 0 -173 0 -27 -55 -27 -55 -377 0
-378 -1 -63 -115 c-35 -63 -62 -119 -60 -124 8 -24 484 -536 724 -780 149
-151 279 -290 290 -309 16 -28 54 -51 266 -157 l248 -124 255 0 256 0 74 -50
74 -50 1400 0 1399 0 576 308 576 307 0 401 0 400 -227 80 -228 81 -3 96 -3
97 1436 0 1435 0 0 130 0 130 940 0 940 0 2 -402 3 -402 120 -50 120 -51 668
-5 668 -5 226 -425 c225 -424 227 -426 284 -468 l57 -42 465 0 466 0 12 40 c7
22 15 40 19 40 4 0 17 -11 30 -25 l23 -25 413 0 413 0 403 390 403 390 386 0
c212 0 441 -3 507 -7 l122 -6 0 -101 0 -101 98 -82 97 -83 136 0 136 0 120
-224 120 -225 -42 -41 c-23 -22 -113 -82 -201 -133 l-159 -93 -3 -57 -3 -57
-299 0 c-188 0 -301 -4 -305 -10 -4 -6 -223 -10 -626 -10 l-619 0 0 -40 0 -40
614 0 c533 0 615 -2 626 -15 11 -13 58 -15 311 -15 l299 0 0 -55 0 -55 153
-77 c83 -42 179 -84 212 -93 l59 -17 -157 -39 -157 -38 2 -365 3 -364 571
-133 571 -133 939 -80 c516 -45 1549 -124 2294 -176 l1355 -95 388 0 387 0 0
-55 0 -55 -121 0 -121 0 6 -28 c3 -15 55 -326 116 -692 61 -366 113 -677 116
-692 l6 -28 764 0 c420 0 764 3 764 8 1 4 42 327 93 717 l93 710 -78 3 -78 3
0 54 0 55 198 0 198 0 482 455 c265 251 482 458 482 460 0 3 -149 228 -330
500 l-330 495 133 0 132 0 25 40 24 40 31 -30 c28 -27 67 -37 627 -164 328
-75 603 -136 612 -136 10 0 16 -9 16 -24 0 -18 17 -35 80 -76 44 -29 80 -56
80 -60 0 -4 12 -11 27 -14 14 -4 45 -20 69 -37 23 -16 51 -29 62 -29 10 0 52
-11 92 -25 50 -17 95 -25 141 -25 l68 0 3 131 3 132 142 -117 c122 -100 207
-156 587 -386 l445 -270 375 0 374 0 123 136 123 136 65 -6 c36 -3 129 -8 206
-11 77 -3 174 -8 216 -11 l75 -6 25 -116 c26 -127 14 -105 206 -382 l63 -90
-347 0 -346 0 23 -25 23 -25 -506 0 -507 0 0 -30 0 -30 83 0 c45 0 291 -5 547
-11 l465 -12 67 -53 67 -54 293 0 294 0 39 -40 39 -40 137 0 137 0 41 -55 42
-55 357 0 358 0 29 30 29 30 31 -30 c18 -17 42 -30 56 -30 21 0 56 -38 198
-213 l172 -213 163 -54 163 -53 629 36 c346 21 647 40 670 42 l40 6 38 104
c34 91 42 105 65 109 14 3 96 15 181 27 85 11 202 34 260 49 l105 29 1875 26
c1031 14 1910 25 1952 25 76 0 78 1 93 30 l16 30 -58 0 c-32 0 -893 22 -1913
50 l-1855 51 -60 28 c-52 25 -83 31 -208 42 -110 9 -147 16 -147 26 0 7 95 60
216 121 188 93 216 110 221 134 6 32 -48 22 528 99 453 61 460 62 493 90 18
16 55 40 81 54 l49 24 1974 26 c1086 14 2045 25 2131 25 l157 0 0 38 0 39
-137 6 c-75 4 -429 7 -787 7 l-651 0 25 24 25 24 575 -14 c482 -12 576 -12
588 0 20 20 -223 25 -1688 36 -696 5 -1436 14 -1645 19 -209 6 -658 10 -997
11 -521 0 -618 2 -618 14 0 8 -67 64 -150 126 -82 62 -150 114 -150 116 0 2
56 -24 125 -58 l124 -62 540 97 c297 53 557 103 579 110 26 9 114 82 276 228
189 171 245 216 277 223 l39 10 0 67 c0 47 -4 70 -15 79 -12 10 -15 37 -15
121 0 94 2 108 18 113 9 3 161 39 337 81 176 42 320 77 321 78 1 1 24 36 52
78 l51 77 283 6 c156 3 1500 15 2988 26 1488 11 2774 23 2858 26 l152 6 0 64
0 64 -42 0 c-24 0 -1310 11 -2858 25 -1548 14 -2941 25 -3095 25 l-280 0 -55
70 c-30 39 -57 70 -60 70 -3 0 -238 43 -521 95 -331 61 -539 95 -584 95 l-70
0 122 122 121 123 12 280 12 280 -101 395 c-56 217 -106 405 -111 418 -9 21
-1 29 123 109 283 185 1283 844 1492 983 149 100 311 197 501 299 155 83 284
151 288 151 3 0 6 -67 6 -148 l0 -148 28 -27 27 -26 365 40 c201 21 858 94
1460 160 l1095 121 108 81 109 80 951 108 c524 59 953 108 953 108 1 1 12 27
24 59 30 75 34 79 78 87 21 3 43 9 49 13 6 4 41 122 78 262 76 292 142 518
225 775 72 223 86 286 70 325 -11 27 -15 29 -93 34 -45 3 -1243 33 -2662 66
-1419 33 -2632 62 -2695 65 l-115 6 -27 -44 c-17 -27 -28 -58 -28 -81 l0 -36
-232 0 -233 0 -127 38 -128 37 0 41 c0 37 -4 44 -40 68 l-40 26 -2077 0 -2077
0 -28 -27 -28 -27 -28 27 -28 27 -336 0 -335 0 -53 80 c-29 44 -55 80 -59 81
-3 0 -166 12 -361 27 -306 23 -367 25 -435 15 -44 -6 -85 -12 -92 -12 -7 -1
-31 35 -55 79 l-43 80 -45 1 c-25 0 -193 6 -375 13 l-330 13 -68 -34 c-39 -19
-76 -31 -86 -28 -10 3 -26 27 -36 53 -10 26 -21 50 -24 54 -4 4 -386 26 -849
48 l-842 41 -78 -66 c-75 -64 -77 -65 -93 -45 -9 11 -29 34 -44 51 l-26 32
-382 23 c-210 12 -415 24 -456 26 l-75 3 -106 -145 -106 -145 -471 -3 -471 -2
-92 -120 -93 -120 -241 0 -240 0 -27 -26 -27 -26 -27 41 -28 41 -754 0 -754 0
-259 65 -259 65 -1480 0 -1479 0 -33 43 c-18 23 -48 59 -68 80 l-35 37 -201 0
-201 0 -39 40 -39 40 -326 0 -326 0 -39 -40 -39 -40 -201 0 -200 0 -80 -80
-80 -80 -576 0 -576 0 -54 66 c-30 36 -59 73 -66 81 -9 11 -60 18 -229 29
-209 14 -219 15 -244 39 -24 23 -34 25 -121 25 -53 0 -100 -5 -106 -11 -10
-10 -152 -8 -372 6 l-94 6 -33 -32 -33 -32 -278 17 c-153 9 -288 19 -300 22
-22 4 -23 9 -23 84 l0 80 1463 0 1463 0 64 65 64 65 938 0 938 0 0 123 -1 122
-57 41 c-31 23 -68 47 -82 54 -14 7 -50 36 -80 65 l-55 53 -347 53 -347 53
-12 28 c-6 15 -15 28 -18 28 -4 0 -209 29 -457 64 -247 36 -494 69 -549 75
-174 20 -168 18 -195 61 l-24 38 -110 17 c-61 9 -223 34 -361 54 -189 29 -254
35 -267 27 -9 -6 -35 -24 -58 -40 l-41 -29 -317 12 -317 13 -55 54 -55 54
-427 40 c-234 22 -428 40 -430 40 -1 0 -57 -54 -124 -121z m-15416 -2786 c-10
-2 -28 -2 -40 0 -13 2 -5 4 17 4 22 1 32 -1 23 -4z m21241 -4830 c71 -53 81
-58 146 -65 39 -4 118 -7 176 -7 58 -1 174 -4 257 -8 l151 -6 -66 -96 c-37
-52 -69 -109 -72 -127 l-6 -32 -315 170 c-173 93 -327 176 -342 184 -17 9 -25
20 -22 29 4 8 9 15 12 15 3 0 39 -26 81 -57z m744 -388 c-15 -20 -26 -24 -70
-25 -50 0 -53 1 -53 25 0 24 2 25 70 25 l71 0 -18 -25z m2260 0 l18 -25 -80 0
c-69 0 -82 3 -91 19 -5 11 -10 22 -10 25 0 3 33 6 73 6 65 -1 74 -3 90 -25z"/>
</g>
</svg>
