<?xml version="1.0" standalone="no"?>
<!DOCTYPE svg PUBLIC "-//W3C//DTD SVG 20010904//EN"
 "http://www.w3.org/TR/2001/REC-SVG-20010904/DTD/svg10.dtd">
<svg version="1.0" xmlns="http://www.w3.org/2000/svg"
   viewBox="0 0 4931.000000 2446.000000"
 preserveAspectRatio="xMidYMid meet">
<metadata>
Created by potrace 1.16, written by Peter Selinger 2001-2019
</metadata>
<g transform="translate(0.000000,2446.000000) scale(0.100000,-0.100000)"
fill="#000000" stroke="none">
<path d="M32745 24385 c-93 -41 -174 -75 -179 -77 -5 -2 -2 -35 7 -73 8 -39
15 -70 14 -71 -1 0 -264 5 -584 10 -517 10 -582 9 -579 -4 3 -8 26 -109 51
-225 l47 -209 -17 -106 c-10 -58 -21 -108 -24 -112 -3 -4 -1091 17 -2416 47
-1326 30 -2458 55 -2517 55 l-107 0 47 -135 47 -134 256 -198 c159 -123 347
-257 497 -353 132 -85 237 -156 234 -157 -4 -2 -795 -117 -1758 -257 l-1750
-255 -1790 -321 -1789 -321 -1984 -470 c-1091 -259 -1990 -468 -1997 -465 -8
3 -14 13 -14 21 0 9 -7 46 -15 84 l-16 67 -72 35 -72 36 -1700 -379 -1700
-378 -1130 -175 -1131 -174 -1169 25 -1170 25 -868 100 -868 100 -192 66
c-131 44 -539 215 -1282 536 -599 258 -1133 484 -1186 502 -179 61 -128 60
-1853 46 l-1571 -13 -110 -30 c-101 -28 -117 -35 -201 -99 l-91 -70 -21 -102
c-19 -97 -19 -109 -6 -232 l15 -130 559 -1451 560 -1451 0 -519 0 -519 1065
-1455 c586 -800 1069 -1458 1073 -1462 5 -5 672 -139 1483 -299 l1474 -290
1910 -304 1910 -304 1843 -152 c1514 -125 1845 -150 1852 -139 5 8 11 30 15
49 4 20 26 81 50 136 51 119 118 362 140 513 l7 42 536 0 c467 1 667 -5 1537
-41 l1000 -42 91 -56 91 -56 2337 -660 2337 -660 1038 -810 1038 -810 987
-1010 988 -1010 529 -250 c291 -137 529 -252 529 -255 0 -3 -101 -32 -225 -64
l-225 -60 0 -2066 0 -2066 963 -227 c943 -223 1014 -241 3604 -940 l2643 -712
0 -507 0 -508 1310 0 1310 0 2 232 3 233 1116 810 1117 810 991 883 991 883
687 702 c377 386 720 736 760 778 l74 75 79 386 c60 298 81 421 90 540 l12
153 -146 325 c-131 291 -151 329 -189 361 l-42 36 30 7 c17 3 142 24 279 47
l250 40 680 249 681 248 822 398 821 398 87 153 87 153 -16 66 -17 66 72 174
73 173 808 748 808 748 -262 5 -261 5 27 32 c22 27 52 137 216 800 l191 768
185 1125 c146 889 184 1137 179 1180 l-5 55 563 1 c309 1 678 5 820 9 l257 7
0 72 0 72 -501 519 c-276 286 -603 624 -726 752 l-224 231 78 177 78 177 145
55 c80 31 147 58 150 60 3 3 -23 59 -57 126 -56 109 -64 132 -74 214 l-12 91
-718 894 -719 893 -851 773 -851 774 -1057 742 -1056 742 -1754 718 c-964 395
-1757 714 -1761 709 -4 -4 -38 -89 -75 -188 -38 -99 -69 -182 -71 -184 -2 -2
-214 58 -472 133 l-470 135 -594 110 c-326 61 -820 151 -1098 200 l-505 91
-1345 94 c-740 53 -1375 98 -1412 102 l-67 6 -176 154 c-97 85 -182 154 -188
153 -7 -1 -88 -34 -182 -74z m714 -4690 l1683 -675 526 -336 c290 -185 536
-346 548 -358 11 -11 74 -104 139 -206 l119 -185 74 -228 74 -228 -24 -167
-23 -166 -160 -28 c-101 -17 -199 -27 -267 -27 -92 -1 -118 -5 -175 -28 -38
-14 -92 -41 -120 -60 -52 -32 -53 -34 -53 -80 0 -51 -41 -1097 -44 -1100 0 -1
-127 -20 -281 -42 -1711 -247 -1847 -268 -2210 -350 -223 -51 -354 -76 -361
-70 -6 5 -74 85 -150 178 l-138 169 -207 64 -206 63 -57 275 c-112 547 -114
560 -141 984 -20 314 -25 472 -25 822 l0 434 -27 -5 c-94 -16 -1153 -111
-2293 -205 l-1325 -110 -490 -111 c-459 -103 -523 -115 -1000 -185 l-510 -74
-964 -75 c-789 -61 -1003 -75 -1181 -75 l-217 0 33 138 c24 101 61 206 139
397 70 172 126 329 165 466 55 187 60 214 60 301 0 77 -40 355 -53 363 -5 4
-245 35 -270 35 -27 0 -4144 -882 -4184 -897 -28 -10 -207 -167 -229 -201 -9
-13 -45 -104 -79 -201 -62 -173 -63 -176 -94 -179 -28 -3 -934 51 -1067 64
l-62 5 -47 -75 c-26 -42 -51 -78 -55 -81 -7 -4 -794 109 -918 131 l-32 6 2
165 3 165 585 319 585 319 1245 415 1245 415 1665 185 c916 102 2394 261 3285
355 l1620 170 1930 39 c1062 21 2020 39 2131 40 l201 1 1682 -675z m1868
-6502 c142 -53 262 -100 267 -104 5 -4 -17 -82 -49 -176 -47 -137 -87 -225
-218 -478 -147 -286 -934 -1780 -1086 -2063 l-66 -122 -519 -400 -519 -400
-111 0 -112 0 -36 38 -36 37 -43 975 -42 975 151 266 150 266 45 393 c25 215
49 395 53 399 5 5 197 79 426 165 l418 158 527 83 c291 45 531 83 535 84 5 1
124 -43 265 -96z"/>
</g>
</svg>
