<?xml version="1.0" standalone="no"?>
<!DOCTYPE svg PUBLIC "-//W3C//DTD SVG 20010904//EN"
 "http://www.w3.org/TR/2001/REC-SVG-20010904/DTD/svg10.dtd">
<svg version="1.0" xmlns="http://www.w3.org/2000/svg"
   viewBox="0 0 4374.000000 571.000000"
 preserveAspectRatio="xMidYMid meet">
<metadata>
Created by potrace 1.16, written by Peter Selinger 2001-2019
</metadata>
<g transform="translate(0.000000,571.000000) scale(0.100000,-0.100000)"
fill="#000000" stroke="none">
<path d="M2230 5701 l-65 -6 -3 -100 c-2 -55 -1 -109 2 -120 4 -13 73 -61 195
-135 l190 -115 1 -412 0 -413 -883 0 -883 0 -64 -45 -64 -45 -213 0 -213 0
-115 -57 -115 -58 0 -45 c0 -25 12 -328 26 -674 l26 -629 154 -291 155 -291
125 -140 c198 -221 170 -201 314 -230 l125 -26 855 11 c470 5 1337 10 1926 10
744 0 1073 3 1081 11 7 7 278 14 839 20 689 9 831 13 848 25 17 12 119 14 633
14 l613 0 0 -24 c0 -23 1 -23 143 -29 78 -4 399 -11 712 -17 314 -6 585 -13
603 -16 28 -4 32 -9 32 -34 0 -23 -4 -30 -20 -30 -33 0 -120 -49 -130 -73 -28
-69 -31 -246 -5 -364 6 -26 89 -73 130 -73 l25 0 0 -187 0 -188 54 -48 55 -47
268 0 269 0 237 -164 c131 -91 259 -172 284 -180 41 -14 159 -16 1022 -16 537
0 1006 3 1043 6 l67 7 73 103 72 103 -3 234 -3 234 603 6 c331 4 694 7 806 7
l203 0 0 -105 0 -105 1530 0 1530 0 0 45 c0 25 2 45 4 45 2 0 23 -9 47 -20 43
-19 70 -20 1296 -20 l1252 0 46 22 45 22 45 -22 46 -22 1170 0 1170 0 40 23
39 22 39 -23 40 -22 1171 0 c1151 0 1171 0 1210 20 49 25 61 25 110 0 39 -20
59 -20 1259 -20 1187 0 1220 1 1262 20 l44 19 3 -174 2 -175 1495 0 1495 0 0
60 0 60 765 0 765 0 0 40 0 40 1265 0 1265 0 0 335 0 335 151 0 151 0 224
-164 225 -163 177 -7 c97 -3 319 -8 492 -11 173 -3 340 -8 370 -10 l55 -5 160
144 159 144 241 6 c132 3 371 8 530 11 l290 6 195 -306 195 -305 364 -2 364
-3 152 -240 151 -240 391 -5 391 -5 108 -129 109 -128 65 6 c36 3 139 6 229 7
l164 2 48 -66 c56 -76 28 -69 335 -92 299 -22 255 -35 366 108 72 93 240 363
712 1147 l618 1024 26 206 26 207 356 12 c195 6 374 14 398 17 l42 5 0 93 0
93 -370 13 c-203 7 -374 16 -380 20 -9 6 -8 37 3 121 l15 114 -50 435 -49 435
-120 217 c-67 119 -126 222 -133 227 -7 6 -181 74 -387 152 l-374 142 -3350
-26 c-1842 -15 -3418 -29 -3502 -31 l-152 -5 -40 122 -40 122 -817 3 c-720 2
-819 0 -827 -13 -7 -13 -102 -15 -776 -15 -681 0 -770 2 -781 15 -10 12 -29
15 -73 13 l-60 -3 -43 -120 c-24 -66 -43 -132 -43 -147 l-1 -28 -117 0 c-65 0
-840 -11 -1723 -25 -883 -13 -1915 -29 -2295 -35 l-690 -11 -755 -129 c-415
-71 -841 -145 -945 -165 l-189 -35 -999 0 -998 0 -157 45 -157 45 -399 0 -399
0 -211 -115 -212 -115 -1348 0 -1348 0 -203 95 -203 95 -1242 0 -1242 0 -136
-130 -136 -130 -966 0 -966 0 -58 59 -59 59 -856 5 c-471 2 -867 8 -881 12
-17 4 -48 42 -102 123 -74 111 -77 117 -55 123 12 3 106 12 209 19 102 7 191
16 196 19 9 5 32 191 32 252 0 9 -59 62 -131 118 l-130 103 -336 79 -335 79
-2282 0 -2281 0 -238 290 -239 290 -1756 -2 c-967 -1 -1786 -4 -1822 -7z"/>
</g>
</svg>
