<?xml version="1.0" standalone="no"?>
<!DOCTYPE svg PUBLIC "-//W3C//DTD SVG 20010904//EN"
 "http://www.w3.org/TR/2001/REC-SVG-20010904/DTD/svg10.dtd">
<svg version="1.0" xmlns="http://www.w3.org/2000/svg"
   viewBox="0 0 3520.000000 1149.000000"
 preserveAspectRatio="xMidYMid meet">
<metadata>
Created by potrace 1.16, written by Peter Selinger 2001-2019
</metadata>
<g transform="translate(0.000000,1149.000000) scale(0.100000,-0.100000)"
fill="#000000" stroke="none">
<path d="M8759 11465 c-148 -22 -164 -27 -355 -105 l-199 -82 -380 -281 -380
-281 -1805 -182 -1805 -182 -227 -76 -226 -77 -539 -306 -538 -306 -255 -251
c-215 -212 -277 -267 -393 -348 -150 -105 -121 -94 -347 -131 l-75 -13 -3 -50
-3 -50 -437 -38 c-240 -21 -456 -40 -479 -43 l-43 -6 0 -213 0 -213 48 -3 47
-3 3 -211 2 -212 -22 -5 c-13 -3 -56 -9 -97 -13 -111 -10 -126 -33 -97 -145
36 -135 91 -233 400 -702 277 -419 313 -469 353 -493 40 -23 168 -49 947 -196
l901 -169 673 4 672 3 0 -91 0 -91 82 -75 c81 -73 82 -74 147 -79 l65 -5 58
-160 c59 -157 61 -162 213 -381 84 -121 157 -230 163 -240 5 -10 16 -77 22
-149 l13 -130 -72 -150 -72 -151 -1187 -22 c-653 -13 -1502 -32 -1887 -42
-385 -11 -739 -20 -787 -20 l-88 0 0 -40 c0 -22 -3 -40 -7 -40 -5 0 -145 -13
-313 -29 -287 -28 -308 -31 -358 -58 -43 -23 -54 -35 -63 -66 -20 -74 -37
-883 -20 -961 5 -23 19 -36 66 -61 l61 -32 299 -7 c165 -4 302 -9 304 -12 2
-2 -3 -293 -12 -646 -8 -354 -14 -644 -12 -646 1 -2 389 -23 861 -47 695 -36
1099 -51 2117 -77 l1258 -32 415 43 c228 24 423 41 433 38 10 -2 95 -59 188
-126 161 -115 200 -136 739 -410 l569 -289 669 -266 668 -266 555 -105 c305
-58 556 -105 559 -105 2 0 4 -13 4 -30 l0 -30 375 0 375 0 0 65 c0 36 2 65 4
65 3 0 65 9 139 20 l134 19 268 127 269 126 156 145 c154 142 158 147 263 313
103 162 110 176 171 357 l63 188 38 313 37 312 -26 313 -27 312 -140 553 c-77
305 -139 555 -137 556 2 2 41 16 87 32 l85 29 116 360 c105 327 118 360 140
367 14 5 194 37 401 73 207 36 787 144 1290 240 729 140 1115 208 1909 336
854 137 1024 162 1200 174 193 13 206 12 230 -5 14 -9 185 -114 380 -232 l355
-214 415 -166 c534 -213 520 -210 1230 -283 l525 -55 580 -12 581 -12 384 107
385 106 579 -170 580 -170 750 -154 751 -155 1550 -230 c2565 -382 3302 -488
3693 -532 l372 -43 0 -27 c0 -37 18 -44 123 -51 48 -3 92 -9 97 -12 6 -3 10
-28 10 -54 l0 -47 -155 -83 -155 -83 0 -160 0 -161 163 7 c89 3 277 9 417 12
l255 7 360 102 360 101 250 305 250 305 360 53 c197 29 501 81 674 116 l315
63 114 -42 114 -42 282 38 281 38 224 108 224 107 138 147 c109 117 141 156
150 190 6 24 23 88 38 143 l27 100 -21 156 -20 156 -67 89 c-36 49 -117 139
-180 200 l-113 112 -280 140 -280 139 -190 6 c-104 3 -205 10 -222 14 -27 7
-49 31 -126 138 l-94 131 24 69 c28 83 35 69 -94 221 l-93 110 -163 91 c-279
157 -356 179 -1367 404 -470 104 -1118 250 -1440 324 -322 73 -695 158 -830
188 l-245 54 -63 -59 c-34 -32 -67 -58 -71 -58 -13 0 -385 91 -390 95 -1 2 25
56 59 120 34 64 60 119 57 122 -3 3 -394 88 -869 189 l-863 185 -2935 268
-2935 268 -134 78 -133 78 -777 84 -776 84 -821 22 -820 22 -132 125 c-130
123 -134 126 -230 161 -89 33 -127 40 -480 85 l-383 48 -49 67 -49 68 -148 46
c-81 25 -161 50 -178 55 -62 18 -178 30 -291 30 -102 0 -136 -5 -283 -41
l-166 -41 -48 -59 -48 -59 -364 -2 -364 -3 -457 548 c-502 603 -514 615 -689
695 -57 26 -285 100 -615 198 -289 86 -532 160 -540 164 -11 6 -26 74 -55 252
l-40 243 -93 103 c-52 56 -96 102 -99 102 -3 0 -69 13 -147 29 -209 43 -380
50 -1511 61 -555 5 -1131 12 -1280 14 -245 4 -284 3 -426 -19z"/>
</g>
</svg>
