<?xml version="1.0" standalone="no"?>
<!DOCTYPE svg PUBLIC "-//W3C//DTD SVG 20010904//EN"
 "http://www.w3.org/TR/2001/REC-SVG-20010904/DTD/svg10.dtd">
<svg version="1.0" xmlns="http://www.w3.org/2000/svg"
   viewBox="0 0 4720.000000 1197.000000"
 preserveAspectRatio="xMidYMid meet">
<metadata>
Created by potrace 1.16, written by Peter Selinger 2001-2019
</metadata>
<g transform="translate(0.000000,1197.000000) scale(0.100000,-0.100000)"
fill="#000000" stroke="none">
<path d="M14210 11895 l0 -75 -140 0 -140 0 0 -55 0 -55 -172 0 -173 0 -62
-169 c-58 -155 -63 -174 -63 -249 l0 -82 -1410 0 -1410 0 -17 60 -16 60 -1574
0 -1573 0 0 -239 0 -238 -90 -7 -90 -8 0 -89 0 -89 -1250 0 c-827 0 -1250 -3
-1250 -10 0 -6 -90 -10 -250 -10 l-250 0 0 -80 0 -80 -165 0 c-140 0 -165 -2
-165 -15 0 -13 -36 -15 -265 -15 l-265 0 0 -44 0 -45 -42 -5 c-24 -3 -793 -27
-1710 -53 -917 -26 -1666 -49 -1664 -50 3 -3 3311 -143 3379 -143 37 0 37 0
37 -43 l0 -42 243 -28 c133 -16 252 -31 265 -34 21 -5 22 -10 22 -109 l0 -104
50 0 50 0 0 -55 0 -55 115 0 115 0 0 -63 0 -64 -117 -6 c-65 -3 -719 -27
-1453 -54 -734 -26 -1328 -49 -1320 -50 8 -1 625 -25 1370 -53 745 -27 1392
-53 1438 -56 l82 -6 0 -729 0 -729 123 0 c85 0 1373 -27 1405 -30 1 0 2 -83 2
-184 0 -182 0 -184 23 -189 12 -3 86 -16 165 -28 l142 -23 0 -49 0 -48 233 6
c127 3 260 8 295 11 l62 5 0 -81 0 -80 1313 0 1313 0 266 -552 c216 -450 270
-554 287 -556 l21 -3 0 -695 0 -694 23 -5 c12 -3 168 -23 347 -46 179 -23 326
-42 328 -44 1 -1 11 -45 21 -96 l18 -94 490 -3 491 -2 12 -29 c6 -16 19 -36
28 -44 10 -8 88 -35 176 -61 l158 -47 84 26 c46 14 121 36 167 50 77 23 85 28
106 65 l22 40 728 0 728 0 34 -52 34 -52 164 -49 165 -49 165 50 166 49 30 51
30 52 263 0 262 0 0 130 0 130 735 0 735 0 0 285 0 285 279 0 279 0 12 80 12
80 448 0 448 0 6 -87 c4 -49 10 -96 12 -105 5 -17 59 -18 954 -18 l950 0 6 25
6 25 183 0 c209 0 195 7 195 -98 0 -37 3 -111 7 -165 l6 -97 159 0 158 0 0
-65 0 -65 355 0 355 0 0 -385 c0 -212 2 -385 4 -385 3 0 187 -50 411 -110
l405 -110 649 0 649 0 5 -32 c4 -18 31 -217 62 -443 31 -225 58 -420 61 -432
l4 -23 1379 0 1378 0 528 -1075 528 -1075 34 -6 c19 -4 37 -4 40 -1 3 4 38
174 77 379 l72 373 559 0 558 0 219 -465 c121 -256 223 -469 227 -473 4 -4 23
-10 42 -13 l35 -6 89 481 89 481 270 0 271 -1 60 -78 60 -78 157 -6 c87 -3
161 -8 165 -10 5 -3 125 -268 268 -590 258 -582 260 -585 294 -596 19 -6 37
-8 40 -6 2 3 34 176 71 385 36 209 68 381 71 383 2 2 328 -18 724 -44 l720
-48 628 0 627 -1 0 115 0 115 4613 0 4612 0 131 128 c72 70 153 153 180 185
l49 57 1725 25 c949 14 1762 28 1808 31 l82 6 0 69 0 69 -147 0 c-112 0 -3398
58 -3410 60 -2 0 -3 54 -3 120 l0 120 -74 0 -75 0 -78 101 -78 101 -525 253
-525 254 -6 43 c-4 24 -8 122 -9 218 l-3 175 27 9 c14 6 26 15 26 22 0 8 32
14 103 18 83 4 4655 97 4750 96 26 0 27 2 27 53 l0 52 -2387 58 c-1314 32
-2412 58 -2440 57 l-53 0 0 33 c0 31 -9 39 -249 202 l-249 170 231 3 232 3
560 212 560 212 3 307 2 307 -131 471 c-72 259 -130 473 -128 474 2 2 621 16
1374 32 991 21 1334 31 1240 36 -71 5 -697 20 -1390 34 -693 14 -1261 27
-1262 28 -1 1 -56 195 -122 431 -144 516 -424 1448 -445 1480 -9 13 -234 148
-536 320 -434 249 -522 296 -535 285 -12 -10 -88 28 -459 234 -244 135 -449
246 -454 246 -6 0 -37 -29 -68 -65 -32 -36 -62 -65 -67 -65 -5 0 -481 255
-1057 568 l-1048 567 49 91 49 90 -934 517 -933 517 -75 0 c-64 0 -76 3 -80
18 -4 14 -98 39 -504 135 l-499 117 -457 0 -458 0 0 200 0 200 -1435 0 -1435
0 0 35 0 35 -1799 0 -1798 0 -14 -52 -14 -53 -1721 -3 -1722 -2 -76 -184 -76
-185 0 -180 0 -181 -750 0 -750 0 0 138 0 137 -93 45 -92 45 -40 207 -40 208
-1582 0 -1583 0 0 109 c0 60 -3 116 -6 125 -5 14 -52 16 -425 16 l-419 0 0
-125 0 -125 -285 0 -285 0 0 85 0 85 -335 0 -335 0 0 40 0 40 -470 0 -470 0 0
-40 0 -40 -410 0 -410 0 0 -30 0 -30 -200 0 -200 0 0 75 0 75 -500 0 -500 0 0
-75z m8070 -3440 l0 -575 -103 0 -104 0 -52 -65 -53 -65 -2784 0 -2784 0 0
290 0 290 845 0 845 0 0 45 0 45 1133 0 1133 0 64 305 64 305 898 0 898 0 0
-575z m-724 -1209 l-86 -104 0 -81 0 -81 -3045 0 -3045 0 0 50 c0 43 3 50 23
55 20 4 974 125 990 125 4 0 7 32 7 70 l0 70 2621 0 2620 0 -85 -104z m-220
-673 c-3 -21 -8 -107 -12 -190 l-7 -153 -759 0 -758 0 -10 25 -10 25 -819 0
c-772 0 -820 -1 -825 -17 -3 -10 -8 -55 -12 -100 l-7 -83 -447 0 -447 0 -12
70 -13 70 -839 0 c-461 0 -839 3 -839 8 0 7 -16 112 -25 170 -6 32 -7 32 -60
32 l-55 0 0 90 0 90 2981 0 2981 0 -6 -37z m7130 -4347 c139 -296 254 -540
254 -542 0 -2 -65 -4 -145 -4 l-145 0 0 -50 0 -50 170 0 170 0 31 -61 c16 -34
28 -63 26 -65 -2 -2 -240 -3 -528 -2 l-525 3 127 655 c70 360 128 656 128 658
1 1 42 1 92 0 l90 -3 255 -539z m1546 214 l146 -330 -94 0 -93 0 -15 -52 c-42
-148 -41 -137 -2 -177 35 -36 36 -38 36 -119 l0 -82 -180 0 -180 0 5 23 c9 36
195 1046 195 1057 0 5 8 10 18 10 13 0 51 -75 164 -330z"/>
</g>
</svg>
