<?xml version="1.0" standalone="no"?>
<!DOCTYPE svg PUBLIC "-//W3C//DTD SVG 20010904//EN"
 "http://www.w3.org/TR/2001/REC-SVG-20010904/DTD/svg10.dtd">
<svg version="1.0" xmlns="http://www.w3.org/2000/svg"
   viewBox="0 0 4538.000000 2571.000000"
 preserveAspectRatio="xMidYMid meet">
<metadata>
Created by potrace 1.16, written by Peter Selinger 2001-2019
</metadata>
<g transform="translate(0.000000,2571.000000) scale(0.100000,-0.100000)"
fill="#000000" stroke="none">
<path d="M101 25661 c-36 -26 -69 -59 -73 -72 -11 -29 -1 -121 15 -142 7 -8
1370 -685 3030 -1503 1660 -819 3014 -1490 3009 -1492 -5 -1 -814 139 -1796
313 -1061 187 -1813 315 -1849 315 -45 0 -372 -71 -1202 -261 -627 -143 -1161
-265 -1187 -270 l-48 -11 0 -67 c0 -38 5 -75 12 -84 7 -9 75 -59 151 -110 76
-50 1382 -1041 2902 -2202 2643 -2018 2764 -2111 2762 -2140 -1 -23 84 -178
374 -675 207 -355 486 -845 619 -1090 212 -389 298 -529 379 -622 3 -3 201
-57 439 -119 l432 -112 838 -998 837 -998 575 -1 c476 -1 609 -4 775 -19 l200
-19 47 39 c46 39 47 39 132 39 127 0 173 13 239 68 31 26 75 63 99 83 l43 36
200 -13 200 -13 40 -45 40 -45 460 -32 460 -32 128 -113 c71 -62 137 -114 147
-116 10 -2 435 -372 945 -823 510 -451 934 -822 942 -823 11 -3 14 5 11 35 -3
37 -30 62 -924 853 -506 448 -956 851 -1000 895 l-79 80 230 -15 c127 -9 237
-20 245 -25 49 -29 469 -379 480 -400 10 -18 22 -25 44 -25 17 0 384 -25 816
-54 l785 -54 211 -100 210 -100 2139 -146 2140 -146 95 -94 c52 -51 1117
-1080 2365 -2287 l2270 -2193 1206 -3021 c663 -1661 1228 -3071 1255 -3134
l50 -113 1751 -719 1750 -718 741 -7 742 -7 0 61 c0 51 -39 191 -230 833 -127
424 -229 773 -228 774 2 1 46 31 98 66 l95 64 -6 105 c-5 91 -137 691 -967
4408 -529 2366 -962 4305 -962 4310 1 4 110 77 243 162 172 110 251 155 274
156 23 1 107 50 300 175 l268 173 245 -3 245 -2 181 -70 c99 -38 188 -69 198
-69 9 0 375 -138 812 -306 491 -189 804 -304 816 -301 12 4 319 -109 802 -295
429 -165 789 -303 799 -306 14 -4 17 3 17 39 l0 44 -803 309 c-442 170 -808
315 -813 322 -5 7 -364 149 -799 316 l-790 303 130 3 c144 4 287 -6 690 -44
l269 -26 547 -174 546 -174 979 0 979 0 2420 386 2420 386 314 -102 c325 -105
330 -106 331 -57 0 9 3 17 8 17 17 -1 1304 -318 1309 -324 3 -3 -18 -191 -48
-417 -50 -384 -52 -412 -36 -424 19 -13 168 -28 178 -17 3 4 238 505 522 1114
l516 1107 92 112 c89 107 94 111 125 106 29 -5 37 -1 65 31 20 22 80 63 153
103 l121 65 2 70 c3 83 -44 287 -68 292 -8 1 -282 55 -610 120 l-596 117 -168
205 c-92 113 -172 211 -179 218 -8 9 -543 112 -581 112 -3 0 6 23 21 51 18 37
22 55 15 62 -6 6 -11 21 -11 32 0 29 -27 51 -70 59 -28 5 -62 33 -170 141
l-135 135 108 0 107 0 0 120 0 120 -227 0 -228 0 -517 517 c-284 284 -521 514
-525 510 -4 -4 222 -237 502 -517 l510 -510 -1133 0 -1132 0 -2319 480 c-1276
264 -2322 480 -2325 480 -3 0 -27 32 -53 71 l-47 71 -577 288 -576 289 -94 99
-94 99 -740 211 -740 210 -560 113 -560 112 -153 99 c-108 69 -161 98 -180 96
-20 -1 -176 94 -620 380 l-593 381 -43 -18 c-24 -11 -46 -25 -49 -33 -3 -10
74 -65 259 -184 186 -119 267 -177 274 -195 8 -18 102 -88 295 -220 155 -107
282 -195 281 -196 -1 -2 -419 81 -928 184 l-926 187 89 58 c49 31 89 61 89 65
0 4 42 34 93 66 170 108 711 459 852 553 77 51 159 103 182 115 23 12 54 35
70 52 l28 30 -46 -26 c-39 -22 -48 -24 -53 -12 -3 10 10 23 39 41 25 14 45 28
45 30 0 7 -115 -39 -125 -51 -11 -13 -297 -177 -329 -189 -28 -10 -586 -325
-621 -351 -65 -47 -223 -134 -241 -133 -10 1 -95 -41 -189 -94 l-170 -96 -320
65 -320 65 -230 -6 c-126 -3 -384 -6 -572 -7 l-341 -1 -184 130 -183 130
-2030 482 c-1817 430 -3727 903 -3759 929 -6 5 -33 12 -61 16 -27 4 -2049 520
-4493 1146 l-4443 1139 -860 85 c-474 47 -878 85 -898 85 -32 0 -58 -19 -229
-161 l-192 -161 -4778 1955 c-3385 1386 -4792 1957 -4827 1961 -48 5 -53 3
-114 -43z m42824 -11241 c115 -115 127 -130 103 -130 -15 0 -29 -4 -32 -8 -3
-4 -42 -4 -88 0 -46 5 -101 7 -123 4 -28 -3 -240 37 -680 129 l-640 133 665 1
665 1 130 -130z m-31145 -724 c0 -2 -12 -12 -27 -21 l-28 -18 19 21 c17 20 36
29 36 18z m-90 -69 c0 -2 -10 -12 -22 -23 l-23 -19 19 23 c18 21 26 27 26 19z
m19642 -2336 l126 -6 -369 -254 c-204 -139 -372 -252 -374 -249 -4 4 -115 494
-115 509 0 10 526 11 732 0z"/>
</g>
</svg>
