<?xml version="1.0" standalone="no"?>
<!DOCTYPE svg PUBLIC "-//W3C//DTD SVG 20010904//EN"
 "http://www.w3.org/TR/2001/REC-SVG-20010904/DTD/svg10.dtd">
<svg version="1.0" xmlns="http://www.w3.org/2000/svg"
   viewBox="0 0 3997.000000 3710.000000"
 preserveAspectRatio="xMidYMid meet">
<metadata>
Created by potrace 1.16, written by Peter Selinger 2001-2019
</metadata>
<g transform="translate(0.000000,3710.000000) scale(0.100000,-0.100000)"
fill="#000000" stroke="none">
<path d="M7327 36959 c-4 -79 -9 -223 -12 -319 -7 -218 -15 -321 -24 -316 -4
3 -86 -15 -182 -39 -95 -25 -180 -45 -186 -45 -9 0 -13 15 -13 43 0 23 -3 58
-6 78 -6 36 -6 36 -49 31 l-43 -4 -12 56 c-6 31 -17 56 -23 56 -7 0 -464 -32
-1017 -70 l-1005 -70 -1650 -30 -1651 -30 -644 -165 c-355 -91 -653 -168 -664
-171 -17 -6 -18 -13 -12 -78 4 -39 9 -89 12 -112 l6 -40 -62 -19 c-33 -10 -63
-22 -66 -26 -2 -5 12 -108 31 -231 35 -217 36 -232 42 -578 3 -195 0 -558 -5
-806 l-11 -450 39 -169 c21 -92 45 -172 52 -176 7 -5 21 -9 31 -9 11 0 17 -8
17 -22 1 -33 97 -350 109 -357 5 -3 158 -39 340 -80 181 -41 328 -77 326 -80
-2 -3 -185 -89 -408 -190 l-405 -185 4 -75 c2 -42 9 -303 15 -581 10 -493 9
-522 -21 -1220 -28 -666 -36 -773 -106 -1564 -41 -466 -74 -850 -72 -851 2 -2
55 -19 118 -38 l115 -35 3 -134 3 -135 682 -336 c641 -315 687 -336 759 -346
42 -6 83 -9 90 -7 7 3 232 7 501 11 l487 6 0 -685 0 -685 233 -157 232 -158
390 -58 390 -57 655 -1 c360 0 719 -3 798 -7 l142 -6 0 -289 0 -288 48 0 c26
0 601 18 1277 40 677 22 1263 40 1303 40 l72 0 0 -360 0 -360 860 0 860 0 0
330 0 330 28 -5 c15 -3 70 -12 122 -21 l95 -16 31 36 31 36 222 -27 221 -26 0
-529 c0 -290 2 -528 5 -528 3 0 373 -93 822 -206 l817 -206 1540 26 c1525 27
1555 27 2846 86 718 33 1788 83 2379 112 l1074 53 301 217 301 218 100 -5 c55
-3 301 -8 546 -11 l446 -6 -24 -116 c-13 -63 -22 -116 -21 -117 2 -1 455 -194
1008 -429 l1005 -428 318 -241 318 -242 161 -359 160 -359 -68 -237 -69 -237
-152 -67 c-83 -37 -158 -73 -166 -79 -8 -7 -37 -118 -71 -277 -32 -146 -59
-272 -61 -280 -3 -10 51 -60 155 -145 155 -127 158 -130 141 -150 -10 -11
-473 -526 -1029 -1145 l-1010 -1125 -242 -215 c-132 -118 -249 -222 -260 -231
-19 -17 -19 -19 1 -180 l21 -164 115 -116 115 -116 -16 -744 c-18 -849 -22
-963 -41 -999 -12 -24 -23 -27 -127 -44 -62 -9 -120 -19 -129 -22 -11 -3 -25
-38 -43 -108 l-28 -103 123 -169 123 -169 99 -315 c55 -173 104 -320 108 -326
5 -6 71 -39 148 -75 l140 -64 256 -250 256 -250 165 -380 165 -379 -15 -495
c-9 -271 -17 -495 -19 -497 -2 -2 -109 -22 -238 -45 -128 -23 -238 -45 -242
-49 -4 -4 -45 -168 -91 -364 -46 -196 -89 -363 -97 -370 -8 -8 -1019 -655
-2247 -1440 l-2234 -1425 -1114 -1328 -1114 -1328 -867 -708 c-1060 -865
-1062 -867 -1072 -867 -5 0 -11 15 -15 33 -3 17 -13 65 -22 105 -16 72 -17 73
-43 67 -14 -3 -1198 -386 -2631 -850 l-2605 -844 -1955 -521 -1955 -522 -1040
-183 c-1228 -217 -3095 -558 -3095 -565 0 -3 964 -55 2143 -116 l2142 -110
2025 98 2025 98 2855 291 c1570 160 2856 292 2857 293 1 1 -36 125 -83 275
-46 151 -83 275 -82 277 2 1 635 215 1408 476 l1405 474 60 -95 c137 -217 220
-372 402 -756 57 -121 106 -221 107 -223 2 -1 808 394 1792 879 984 485 2990
1473 4458 2195 l2669 1313 84 -76 83 -76 115 53 c63 29 115 56 115 60 0 3
-166 249 -369 546 -255 373 -364 540 -353 542 12 3 445 -28 448 -32 1 0 114
-162 251 -359 l250 -357 434 -401 c239 -221 484 -451 546 -512 84 -83 115
-108 125 -100 7 5 636 500 1397 1099 l1384 1089 1398 1390 1398 1390 1328
1775 1328 1775 539 935 c296 514 543 940 549 946 7 6 102 50 212 99 110 48
204 92 210 97 5 5 77 313 160 686 l150 677 199 75 c110 41 203 82 208 90 4 8
58 247 118 530 61 283 114 524 119 536 5 11 95 74 200 140 169 105 192 122
196 149 19 110 184 1479 179 1484 -3 3 -545 51 -1205 107 -659 55 -1202 104
-1206 107 -3 4 108 582 249 1284 l255 1278 -30 852 c-17 469 -28 856 -25 859
3 3 430 70 948 149 519 80 944 146 945 147 2 2 -177 350 -396 773 -219 424
-399 776 -399 784 0 8 12 34 26 59 23 39 25 47 12 56 -9 6 -229 135 -490 286
l-475 274 75 124 c41 68 70 127 66 132 -5 4 -245 128 -534 275 -289 148 -529
271 -534 276 -4 4 37 60 92 124 l101 117 -62 46 c-34 25 -1015 745 -2181 1600
l-2118 1553 -3102 1590 -3101 1590 -2637 969 -2636 969 -4494 400 -4493 400
-2330 30 c-1281 17 -2470 34 -2641 37 l-311 7 -6 -144z"/>
</g>
</svg>
