<?xml version="1.0" standalone="no"?>
<!DOCTYPE svg PUBLIC "-//W3C//DTD SVG 20010904//EN"
 "http://www.w3.org/TR/2001/REC-SVG-20010904/DTD/svg10.dtd">
<svg version="1.0" xmlns="http://www.w3.org/2000/svg"
   viewBox="0 0 2879.000000 4111.000000"
 preserveAspectRatio="xMidYMid meet">
<metadata>
Created by potrace 1.16, written by Peter Selinger 2001-2019
</metadata>
<g transform="translate(0.000000,4111.000000) scale(0.100000,-0.100000)"
fill="#000000" stroke="none">
<path d="M20333 40853 l-110 -258 -674 -3 -674 -3 -35 -76 c-19 -41 -36 -80
-38 -84 -2 -5 8 -9 22 -9 26 0 24 -5 -85 -217 -62 -120 -220 -418 -352 -663
-132 -245 -262 -490 -290 -545 -27 -55 -368 -705 -757 -1445 -389 -740 -767
-1462 -841 -1605 -73 -143 -161 -312 -193 -376 l-60 -117 -98 -11 c-57 -6
-272 -11 -508 -11 l-410 0 -40 -80 -40 -80 407 0 c380 0 573 -10 573 -30 0 -8
-1954 -3782 -1976 -3817 l-14 -23 -755 0 -755 0 -30 -60 c-16 -33 -30 -62 -30
-65 0 -3 323 -5 719 -5 395 0 732 -3 749 -6 l31 -6 -54 -108 c-30 -59 -76
-145 -103 -191 -27 -46 -87 -158 -134 -249 -197 -379 -930 -1785 -932 -1788
-2 -1 -74 -11 -162 -22 -87 -11 -168 -22 -180 -25 -16 -3 -60 -77 -172 -287
l-152 -283 78 -3 c60 -2 93 -9 150 -34 39 -17 72 -35 72 -39 0 -4 -181 -422
-403 -930 l-404 -924 -55 -29 c-52 -28 -61 -39 -169 -209 -63 -99 -115 -183
-117 -188 -2 -4 17 -9 43 -11 l45 -3 -433 -775 c-290 -518 -558 -979 -807
-1390 -204 -338 -376 -619 -380 -623 -4 -5 -121 -25 -259 -46 -165 -24 -256
-42 -265 -52 -20 -20 -727 -1021 -724 -1024 2 -1 83 -22 181 -46 l178 -44
-835 -794 c-460 -437 -836 -795 -836 -795 -7 -17 -26 -273 -22 -278 4 -4 70
-61 147 -127 l140 -120 110 -27 c61 -15 115 -30 122 -33 8 -4 2 -16 -16 -37
-27 -30 -44 -34 -918 -233 l-890 -202 -714 -278 -714 -278 -3 -82 c-3 -76 -1
-83 18 -88 20 -5 20 -11 20 -399 0 -387 0 -394 -20 -394 -18 0 -20 -7 -20 -79
l0 -78 88 -11 c48 -6 156 -19 240 -29 l153 -17 -3 -129 -3 -130 -1330 -316
-1330 -317 -3 -27 -3 -27 -550 0 -549 0 0 -100 0 -100 565 0 565 0 0 -550 0
-550 -245 0 -245 0 0 -154 0 -154 221 -7 220 -8 -3 -26 c-3 -23 -9 -27 -48
-33 -25 -3 -534 -7 -1132 -7 l-1088 -1 0 -140 0 -140 1483 0 1482 0 335 -30
c184 -17 345 -33 357 -36 22 -4 23 -9 23 -89 0 -71 -3 -84 -17 -89 -10 -2
-128 -21 -263 -42 -174 -26 -245 -34 -248 -25 -3 8 -400 11 -1573 11 l-1569 0
0 -135 0 -135 1072 0 c736 0 1091 -3 1135 -11 60 -11 63 -12 63 -40 l0 -29
-225 0 -225 0 0 -160 0 -160 325 0 325 0 2 -422 3 -422 25 -7 c19 -5 14 -7
-22 -8 l-48 -1 0 -125 0 -125 -625 0 -625 0 0 -105 0 -105 1275 0 1275 0 0 45
0 45 153 0 c150 0 155 0 364 -52 l212 -52 3 -50 3 -50 644 -227 643 -226 97
-248 96 -248 123 -113 123 -114 237 -2 238 -3 -14 -77 -14 -78 -62 0 c-35 0
-131 -3 -213 -7 l-151 -6 55 -91 c30 -50 56 -92 57 -93 0 0 46 -6 101 -12 55
-6 119 -14 143 -17 l43 -5 -2 -65 -2 -65 203 -274 204 -274 167 -68 166 -68
597 -653 c328 -359 596 -656 596 -660 0 -5 -37 -29 -82 -55 l-83 -46 -58 -151
c-33 -83 -57 -153 -55 -155 1 -1 55 -29 118 -60 l115 -58 288 -38 c158 -20
294 -42 302 -49 7 -6 474 -553 1037 -1216 634 -747 1024 -1214 1026 -1229 3
-24 1 -24 -76 -27 l-80 -3 194 -243 194 -242 100 0 100 0 837 -1117 838 -1116
85 -326 85 -326 183 -9 182 -8 0 -134 0 -134 191 -286 c104 -157 292 -430 416
-607 l225 -322 229 -219 230 -219 161 -74 161 -73 1347 0 1346 0 229 100 229
100 160 0 c89 0 375 5 636 11 l475 11 825 229 c454 127 836 234 850 240 13 6
117 79 230 162 113 83 207 152 208 153 2 2 9 146 16 321 l11 318 150 247 150
248 910 0 c661 1 5582 44 5603 49 1 1 2 19 2 41 0 37 -2 40 -27 40 -16 0
-1146 11 -2513 25 -2007 20 -3001 25 -5170 25 l-2685 0 -84 186 c-46 102 -89
188 -95 190 -6 2 -96 10 -200 18 -103 8 -190 17 -192 19 -5 4 -474 1615 -474
1626 0 4 48 11 107 14 58 4 108 9 110 11 7 7 -138 541 -150 548 -7 5 -22 11
-33 14 -30 8 -44 112 -18 131 19 14 19 13 -57 114 l-57 76 -83 11 c-46 7 -86
15 -90 20 -4 4 -32 99 -62 212 -53 196 -537 2092 -537 2104 0 3 111 6 247 6
l246 0 137 41 137 41 -83 339 c-46 186 -87 353 -91 369 -7 28 -22 37 -163 101
l-155 70 -300 -2 -300 -1 -56 73 -56 74 -308 5 -308 5 99 67 c95 64 107 69
304 127 185 54 219 61 350 71 249 18 252 19 246 46 -6 22 -4 23 56 26 l63 3
52 300 c53 303 54 307 100 333 9 6 -26 154 -134 567 l-146 560 -210 170 c-116
94 -339 279 -496 413 l-284 243 -51 -5 c-28 -3 -143 -11 -256 -17 l-205 -12
-332 -264 c-183 -146 -333 -271 -333 -279 0 -12 -12 -14 -52 -12 l-53 3 -16
76 -16 76 368 277 369 276 280 0 280 0 0 720 0 721 -182 237 c-100 130 -182
239 -184 240 -1 2 -111 20 -243 40 l-241 36 0 63 0 63 265 0 265 0 0 63 c0 34
-9 298 -20 587 -11 289 -20 548 -20 575 0 50 -3 55 -238 381 l-238 331 -164
357 -163 356 -128 0 -127 0 -5 26 c-6 31 -29 8 273 263 214 180 215 181 263
181 40 0 153 42 645 241 328 132 652 263 720 291 l122 50 0 53 0 52 43 17 c38
14 133 16 934 16 l892 0 53 65 53 65 460 0 460 0 44 -65 44 -65 225 0 224 0
133 105 133 105 500 0 499 0 112 125 112 125 -3 67 -3 67 -235 128 -235 127
-399 1 -400 0 -56 44 -56 44 -172 -6 -172 -5 0 -43 c0 -43 -1 -44 -33 -44 -27
0 -44 -11 -97 -65 l-64 -65 -511 0 -512 0 -52 65 -53 65 -894 0 c-874 0 -896
0 -934 20 -38 19 -39 22 -42 77 l-3 57 -570 271 -570 271 -6 440 -6 439 68
105 67 106 366 1254 c326 1115 432 1458 946 3070 790 2479 2861 9012 2858
9015 -2 1 -15 6 -29 11 l-27 9 250 800 c137 440 611 1985 1054 3434 l804 2635
41 240 c22 133 42 249 45 259 5 16 -20 17 -424 17 l-429 0 -110 -257z m-923
-533 l0 -40 -108 0 -107 0 -182 -152 -182 -153 -243 -472 -243 -472 -52 -1
c-29 0 -53 3 -53 8 0 4 110 217 243 473 l243 466 228 192 228 191 114 0 114 0
0 -40z m600 0 l0 -40 -255 0 -255 0 0 40 0 40 255 0 255 0 0 -40z m422 -58
l66 -98 -208 -564 -208 -565 -51 -3 c-28 -2 -51 1 -51 6 0 5 88 252 195 548
l194 539 -52 77 -52 78 -82 0 -83 0 0 40 0 40 133 0 132 0 67 -98z m-2242
-1524 c-55 -106 -384 -744 -732 -1418 l-633 -1225 -48 -3 c-26 -2 -47 0 -47 4
0 4 327 643 728 1420 l727 1413 52 1 52 0 -99 -192z m1850 180 c0 -2 -232
-642 -514 -1423 l-513 -1420 -58 -3 c-44 -2 -56 0 -53 10 3 7 236 649 519
1426 l514 1412 52 0 c29 0 53 -1 53 -2z m-3401 -3185 c-67 -131 -125 -241
-128 -244 -3 -4 -28 -9 -54 -13 l-48 -6 128 250 128 250 48 0 47 0 -121 -237z
m2286 95 c-24 -68 -61 -172 -83 -233 l-39 -110 -56 -3 c-32 -2 -57 0 -57 5 0
4 37 110 82 235 l83 228 57 0 57 0 -44 -122z m-2565 -619 c0 -7 -437 -857
-971 -1890 -786 -1520 -976 -1880 -994 -1885 -12 -3 -35 -4 -51 -2 l-29 3 946
1825 c521 1004 964 1855 984 1893 35 65 37 67 76 67 22 0 39 -5 39 -11z m2336
-24 c-4 -14 -20 -63 -37 -110 l-31 -85 -151 -96 -152 -97 -73 -223 -73 -224
-54 0 -55 0 19 48 c10 26 47 126 82 223 l63 176 137 97 137 97 38 109 39 110
59 0 c57 0 58 0 52 -25z m-558 -957 c-3 -7 -180 -516 -394 -1130 l-389 -1118
-52 0 c-29 0 -53 1 -53 3 0 2 176 509 390 1127 215 617 390 1124 390 1126 0 2
25 4 56 4 41 0 55 -3 52 -12z m-880 -2530 c-33 -95 -66 -189 -72 -208 -13 -34
-15 -35 -71 -38 -44 -2 -56 0 -53 10 3 7 34 92 68 188 34 96 66 185 71 198 7
19 16 22 63 22 l54 0 -60 -172z m-2960 -473 c2 -2 -20 -48 -47 -104 l-51 -101
-51 0 -50 0 58 110 58 111 40 -7 c22 -3 41 -8 43 -9z m2642 -2 c0 -5 -157
-420 -348 -923 l-348 -915 -183 -3 -183 -2 73 137 c54 101 75 152 79 188 l5
50 86 3 85 3 51 52 c50 51 53 60 319 734 l269 683 48 0 c26 0 47 -3 47 -7z
m-2830 -375 c-127 -242 -710 -1377 -710 -1385 0 -5 14 -28 31 -51 l31 -42 134
0 134 0 0 -45 0 -45 -153 0 -152 0 -77 78 -77 77 355 685 c196 377 366 706
380 733 l24 47 54 0 54 0 -28 -52z m1538 -1135 c-18 -26 -79 -133 -135 -238
l-101 -190 -601 -3 -601 -2 0 45 0 45 562 2 561 3 91 193 90 192 84 0 83 0
-33 -47z m-1538 -388 l0 -45 -140 0 -140 0 0 45 0 45 140 0 140 0 0 -45z
m-2056 -3557 c3 -13 6 -26 6 -30 0 -5 -71 -8 -158 -8 l-158 0 -65 -45 -64 -44
-337 -583 -337 -583 -57 -3 c-43 -2 -55 0 -51 10 3 7 153 281 334 608 l329
595 89 53 89 52 187 0 c185 0 187 0 193 -22z m1358 -8 l5 -30 -604 0 c-641 0
-615 -2 -597 44 6 14 68 16 599 16 l593 0 4 -30z m548 25 c0 -2 -5 -16 -12
-30 l-11 -25 -164 0 -163 0 0 30 0 30 175 0 c96 0 175 -2 175 -5z m-3073
-1399 c-3 -7 -104 -186 -225 -397 -120 -211 -224 -394 -231 -407 -11 -21 -7
-28 50 -87 l62 -65 124 0 123 0 0 -40 0 -40 -121 0 -121 0 -118 110 -118 110
236 415 236 415 54 0 c42 0 53 -3 49 -14z m3213 -572 c0 -4 -5 -24 -12 -45
l-11 -39 -472 0 -473 0 -123 -189 -124 -190 -657 0 -658 -1 0 40 0 40 603 0
602 0 105 157 c58 85 117 173 133 194 l27 39 530 0 c292 0 530 -3 530 -6z
m-2660 -424 l0 -40 -260 0 -260 0 0 40 0 40 260 0 260 0 0 -40z m3080 -19682
c271 -436 500 -803 508 -815 l14 -23 -284 0 -284 0 -203 358 c-112 196 -209
360 -214 364 -6 4 -84 35 -174 69 l-163 62 -98 170 -97 169 -90 34 c-49 19
-109 34 -131 34 l-42 0 -115 185 -116 185 498 0 498 0 493 -792z m5512 -1818
l256 -250 654 0 653 0 73 -58 74 -57 -7 -245 c-4 -135 -9 -248 -11 -252 -2 -3
-93 -58 -202 -121 l-197 -115 -755 -205 -755 -205 -440 -11 c-242 -6 -490 -11
-552 -11 l-112 0 -7 45 c-3 25 -4 48 -1 51 2 3 238 10 523 16 l519 11 720 182
720 183 203 101 202 101 0 108 c0 59 3 150 6 203 l7 95 -66 52 -67 52 -1960 0
-1960 0 0 50 0 49 91 3 91 3 100 210 c54 116 103 214 107 218 5 5 96 16 202
26 164 16 304 19 914 20 l720 1 257 -250z m-5592 46 c0 -19 3 -41 6 -50 5 -14
-4 -16 -63 -16 -65 0 -73 -3 -116 -36 -26 -20 -47 -38 -47 -40 0 -2 91 -151
203 -331 112 -180 207 -334 211 -340 5 -10 -13 -13 -81 -13 l-88 0 -230 336
c-126 185 -231 342 -232 348 -1 6 41 48 95 94 l97 82 122 0 123 0 0 -34z
m1190 15 c0 -10 3 -33 6 -50 l7 -31 -527 0 -526 0 0 34 c0 71 -43 66 526 66
496 0 514 -1 514 -19z m1475 -134 l131 -152 81 -3 81 -3 4 -49 3 -50 -132 0
-132 0 -138 155 -138 155 -542 0 -543 0 0 43 c0 24 3 47 7 50 3 4 272 7 597 6
l591 0 130 -152z m-2251 -995 c167 -224 172 -229 318 -350 139 -116 155 -126
244 -158 94 -34 97 -34 264 -34 l170 0 0 -55 0 -55 -207 1 -208 0 -102 52
c-83 42 -136 81 -283 206 -180 153 -182 156 -356 382 -96 125 -174 230 -174
233 0 3 37 6 83 6 l82 -1 169 -227z m3703 -413 c-4 -29 -8 -53 -9 -55 -2 -1
-108 -43 -236 -93 l-232 -92 -128 3 -127 3 -3 53 -3 52 43 1 c30 0 114 28 268
88 l225 89 104 1 104 1 -6 -51z m-880 -133 c1 -1 0 -26 -4 -54 l-6 -52 -833 0
-834 0 0 55 0 55 308 3 c279 2 1364 -3 1369 -7z"/>
</g>
</svg>
