<?xml version="1.0" standalone="no"?>
<!DOCTYPE svg PUBLIC "-//W3C//DTD SVG 20010904//EN"
 "http://www.w3.org/TR/2001/REC-SVG-20010904/DTD/svg10.dtd">
<svg version="1.0" xmlns="http://www.w3.org/2000/svg"
   viewBox="0 0 2808.000000 4418.000000"
 preserveAspectRatio="xMidYMid meet">
<metadata>
Created by potrace 1.16, written by Peter Selinger 2001-2019
</metadata>
<g transform="translate(0.000000,4418.000000) scale(0.100000,-0.100000)"
fill="#000000" stroke="none">
<path d="M8354 43877 c-128 -166 -269 -350 -314 -409 l-82 -107 -154 -1128
c-85 -620 -153 -1132 -151 -1137 2 -5 120 -77 262 -161 l259 -151 198 -994
c108 -547 200 -1005 203 -1018 4 -15 221 -195 653 -539 356 -284 1163 -946
1793 -1471 l1147 -955 -11 -36 c-5 -20 -101 -397 -212 -839 l-202 -803 1061
-806 c584 -444 1308 -1005 1610 -1248 l549 -440 -469 -51 -469 -51 -435 -158
-435 -157 -805 22 -805 22 -1365 118 -1365 118 -582 -364 -582 -364 -130 0
-131 0 0 200 0 199 155 117 c85 65 155 122 155 128 0 6 -36 79 -79 161 l-79
150 -2303 633 -2304 633 -955 39 c-525 21 -971 39 -990 39 l-35 1 -59 -146
c-33 -80 -59 -151 -59 -157 0 -7 60 -155 134 -330 109 -261 130 -320 119 -327
-8 -5 -46 -29 -85 -53 l-70 -44 -5 -1659 -5 -1659 -27 -140 c-26 -135 -27
-155 -31 -595 l-5 -455 124 -584 c68 -322 124 -590 124 -596 0 -8 -85 -21
-247 -39 -137 -15 -261 -31 -277 -35 -28 -7 -31 -13 -67 -141 l-38 -135 -1
-357 0 -358 -42 0 c-36 0 -74 -18 -238 -113 l-195 -113 0 -1054 0 -1054 195
-113 c164 -95 202 -113 238 -113 l42 0 0 -62 c0 -56 62 -329 79 -350 3 -3 247
-71 541 -149 l535 -142 725 68 c399 38 748 68 775 68 45 0 4252 -414 4353
-428 l42 -6 56 -111 c37 -75 118 -197 248 -380 l193 -269 244 -166 c1152 -784
2482 -1693 2799 -1913 212 -147 540 -372 730 -500 190 -129 550 -374 800 -545
250 -171 597 -408 770 -525 173 -118 680 -464 1125 -770 446 -305 1310 -896
1920 -1313 611 -417 1391 -952 1735 -1189 344 -236 678 -462 742 -500 65 -39
120 -78 122 -87 36 -119 86 -312 86 -332 0 -15 -9 -38 -21 -53 -17 -21 -24
-24 -40 -16 -16 9 -22 6 -39 -22 -10 -18 -171 -280 -358 -583 l-338 -550 -39
-5 -39 -5 -210 -335 -211 -335 -174 -8 -175 -9 -145 -128 -146 -129 -53 -143
-52 -143 0 -121 c0 -155 5 -180 41 -201 18 -11 27 -23 24 -31 -3 -8 -119 -197
-259 -421 -280 -450 -306 -493 -306 -509 0 -7 -268 -415 -597 -907 l-596 -895
-216 0 -216 0 -125 -197 c-69 -108 -126 -203 -128 -210 -2 -7 315 -486 703
-1065 509 -757 705 -1058 702 -1073 -3 -11 -142 -348 -311 -748 l-306 -728
-755 -997 c-415 -548 -755 -1000 -755 -1003 0 -4 240 -233 533 -510 381 -360
620 -578 840 -762 169 -142 312 -255 317 -252 6 3 493 540 1082 1192 l1073
1185 639 906 c351 499 971 1372 1377 1940 l738 1032 612 1068 c337 587 617
1073 624 1080 8 9 99 20 294 35 279 22 283 22 300 47 10 14 1017 1829 2239
4035 l2221 4010 306 1125 306 1125 72 732 72 733 237 0 238 0 0 50 c0 58 12
53 -187 70 -169 14 -160 15 -173 -25 -11 -34 -13 -35 -61 -35 l-50 0 5 43 c4
23 34 330 67 682 60 629 61 647 66 1048 l6 407 -92 0 c-50 0 -91 3 -91 8 0 23
-242 1420 -249 1432 -4 8 -19 17 -32 20 -24 6 -24 8 -41 230 -23 312 -51 426
-238 985 -44 132 -80 244 -80 250 0 6 45 33 100 60 79 39 109 60 146 102 l46
54 -168 527 c-92 290 -193 590 -224 667 l-57 141 141 94 141 93 63 107 c34 59
62 112 62 117 0 6 -1130 1432 -2511 3169 l-2511 3159 -676 775 c-371 426 -681
781 -688 789 -10 11 -27 2 -99 -58 -48 -39 -91 -71 -96 -71 -4 0 -14 8 -21 18
-7 11 -618 632 -1358 1381 l-1345 1363 -1337 1191 -1337 1191 -1433 869
c-1263 766 -1655 997 -3300 1948 -1027 594 -1871 1079 -1875 1079 -5 0 -112
-136 -239 -303z m15834 -28339 c-5 -24 -63 -281 -128 -571 l-119 -528 -583
-1349 c-320 -742 -583 -1348 -585 -1347 -1 1 13 74 32 162 28 137 110 387 554
1710 287 853 537 1596 557 1653 l36 103 122 104 c66 57 122 104 122 105 1 0
-2 -19 -8 -42z m-4369 -2103 c-43 -77 -151 -208 -160 -193 -13 23 -81 279 -76
284 3 3 58 23 124 44 l118 39 11 -62 c10 -59 9 -64 -17 -112z"/>
</g>
</svg>
