<?xml version="1.0" standalone="no"?>
<!DOCTYPE svg PUBLIC "-//W3C//DTD SVG 20010904//EN"
 "http://www.w3.org/TR/2001/REC-SVG-20010904/DTD/svg10.dtd">
<svg version="1.0" xmlns="http://www.w3.org/2000/svg"
   viewBox="0 0 3254.000000 4028.000000"
 preserveAspectRatio="xMidYMid meet">
<metadata>
Created by potrace 1.16, written by Peter Selinger 2001-2019
</metadata>
<g transform="translate(0.000000,4028.000000) scale(0.100000,-0.100000)"
fill="#000000" stroke="none">
<path d="M22707 40273 c-4 -3 -7 -43 -7 -88 l0 -82 -922 -6 c-508 -4 -1301 -7
-1763 -7 l-840 0 -785 -866 -785 -865 -1642 3 -1642 3 -3140 -3139 -3141
-3138 0 -352 c0 -193 3 -537 7 -763 l6 -413 3856 0 3856 0 120 -222 c66 -122
121 -225 123 -230 2 -4 -111 -8 -251 -8 -204 0 -262 -3 -290 -15 -32 -13 -227
-15 -1544 -15 l-1508 0 -200 -145 -199 -145 -835 2 -835 3 -216 292 -215 292
-952 0 -952 1 -31 46 c-17 26 -50 68 -73 95 l-42 49 -1018 0 -1019 0 -110 -95
-111 -95 -2463 0 -2463 0 -78 29 c-59 21 -84 26 -102 19 -39 -14 -217 -150
-232 -177 -10 -17 -47 -37 -139 -72 l-125 -47 0 -1362 0 -1363 90 -33 c50 -19
109 -41 131 -50 23 -8 44 -23 47 -33 5 -19 184 -159 229 -178 23 -10 38 -7
104 18 l78 30 2461 -3 c2250 -3 2463 -4 2485 -19 14 -9 64 -51 112 -93 l87
-76 1016 0 1016 0 49 53 c27 28 59 71 72 95 l23 43 65 -3 65 -3 25 -133 26
-133 358 -319 357 -320 624 0 623 0 42 124 c24 72 47 127 56 130 23 9 417 7
430 -2 9 -6 43 -103 80 -235 5 -16 46 -17 722 -15 l717 3 30 113 c20 76 37
119 50 128 25 19 422 20 445 1 9 -7 29 -61 44 -122 16 -60 33 -114 38 -120 6
-6 212 -12 559 -15 l551 -5 87 -245 88 -245 489 -6 c269 -3 716 -7 994 -8
l504 -1 -47 -47 -46 -48 -7 -512 -7 -512 24 -5 c13 -4 352 -69 753 -146 401
-76 733 -143 737 -147 9 -9 459 -961 459 -971 0 -4 -38 -45 -85 -92 l-85 -85
0 -3215 0 -3215 108 -108 107 -107 503 0 502 0 0 -378 0 -377 175 -175 175
-175 0 -1090 -1 -1090 -330 -193 c-182 -106 -333 -192 -335 -189 -2 2 -75 206
-162 453 l-158 449 -587 3 -587 2 0 -921 0 -920 236 -587 c130 -323 239 -595
242 -604 4 -16 -3 -18 -59 -18 l-64 1 -104 254 -103 255 -796 -2 -796 -3 -172
-255 c-95 -140 -173 -262 -173 -270 0 -8 22 -69 49 -135 l49 -120 -130 -130
-129 -130 0 -257 0 -256 311 -406 312 -406 213 0 213 0 -16 53 c-8 28 -62 211
-118 406 l-104 354 127 253 127 254 795 0 795 0 84 -211 c81 -205 83 -211 65
-228 -11 -10 -107 -95 -214 -188 -107 -94 -262 -238 -344 -321 l-148 -149
1594 -4022 1595 -4022 783 -460 782 -459 862 0 c475 0 1268 -3 1764 -7 l902
-6 0 -21 c0 -12 3 -31 6 -44 6 -21 11 -22 121 -22 l115 0 -6 33 c-3 17 -278
2136 -611 4708 -448 3459 -605 4701 -605 4775 l0 100 -77 57 -77 57 -906 0
-905 0 -98 66 -99 65 -294 -3 -294 -3 0 153 0 152 470 0 470 0 0 45 c0 52 -4
50 165 60 55 3 135 8 178 11 l77 7 0 47 0 48 583 6 c320 3 1001 8 1512 11 512
3 1167 8 1458 12 504 6 527 7 527 24 0 18 -17 19 -367 19 -269 0 -3693 28
-3710 30 -2 0 -3 22 -3 48 l0 49 -117 7 c-65 3 -160 9 -210 13 l-93 6 0 48 0
49 -480 0 -480 0 0 356 0 357 -240 -8 -240 -7 -2 403 -3 404 -107 3 -108 3 0
913 0 913 46 7 c26 3 70 6 98 6 88 1 120 14 242 104 115 84 118 86 175 86 l57
0 28 -65 28 -65 162 0 162 0 52 -107 c28 -59 58 -115 67 -125 15 -17 58 -18
740 -18 l723 0 323 215 322 215 530 2202 530 2203 381 3 382 2 6 -37 c14 -80
-6 -73 224 -73 l207 1 38 49 38 50 334 0 334 0 142 35 143 35 773 0 773 0 0
265 0 265 -792 0 -793 0 -110 30 -110 30 -347 0 -346 0 -37 50 -37 50 -208 0
c-232 0 -212 7 -226 -73 l-6 -37 -381 2 -381 3 -50 208 -50 208 52 207 c28
114 57 247 64 295 l12 88 426 304 425 304 147 418 146 419 -243 1015 -243
1014 27 25 c14 14 49 44 76 66 l49 42 -39 168 c-21 93 -40 171 -41 173 -2 2
-45 12 -95 22 -51 11 -94 21 -96 23 -2 1 -104 425 -227 942 l-224 939 -152
146 -151 145 -44 175 c-43 169 -45 178 -45 334 0 141 3 172 26 263 l27 102
381 0 c210 0 1747 11 3416 25 l3035 24 35 -21 c32 -19 45 -20 185 -14 82 4
176 9 208 12 l57 6 0 48 0 48 -206 7 c-182 6 -210 5 -243 -10 -36 -16 -235
-15 -3426 8 -1863 14 -3390 28 -3393 31 -3 3 23 113 57 243 34 131 141 600
236 1043 96 443 199 913 230 1044 31 131 58 257 61 280 l5 41 -513 168 -513
168 -881 0 -882 -1 -6 123 c-3 67 -33 2230 -66 4807 -34 2577 -63 4713 -66
4748 l-6 62 -107 0 c-59 0 -111 -3 -114 -7z m-17787 -10176 l0 -93 -207 -43
c-115 -24 -238 -50 -275 -58 l-68 -15 0 -499 0 -499 -1710 0 -1710 0 0 615 0
615 38 1 c509 10 3671 67 3780 68 l152 1 0 -93z m-550 -1965 l0 -498 275 -60
275 -59 0 -92 c0 -90 -1 -93 -22 -93 -98 -1 -3677 62 -3795 66 l-153 6 0 614
0 614 1710 0 1710 0 0 -498z m14487 -4754 c-3 -8 -6 -5 -6 6 -1 11 2 17 5 13
3 -3 4 -12 1 -19z"/>
</g>
</svg>
