<?xml version="1.0" standalone="no"?>
<!DOCTYPE svg PUBLIC "-//W3C//DTD SVG 20010904//EN"
 "http://www.w3.org/TR/2001/REC-SVG-20010904/DTD/svg10.dtd">
<svg version="1.0" xmlns="http://www.w3.org/2000/svg"
   viewBox="0 0 4467.000000 1234.000000"
 preserveAspectRatio="xMidYMid meet">
<metadata>
Created by potrace 1.16, written by Peter Selinger 2001-2019
</metadata>
<g transform="translate(0.000000,1234.000000) scale(0.100000,-0.100000)"
fill="#000000" stroke="none">
<path d="M2360 12322 c0 -18 -15 -19 -217 -25 -120 -4 -652 -7 -1182 -7 -766
0 -962 -3 -959 -12 3 -7 110 -374 239 -815 l234 -803 173 0 172 0 0 -24 c0
-20 26 -43 145 -127 126 -89 146 -107 160 -143 8 -23 71 -205 140 -406 113
-327 130 -386 164 -566 22 -110 55 -254 74 -320 20 -65 45 -152 57 -191 l21
-73 925 -2 926 -3 107 -260 c107 -258 108 -260 140 -263 l31 -3 0 -300 0 -299
50 0 50 0 0 -60 0 -60 160 0 160 0 0 60 0 60 115 0 115 0 0 -1665 0 -1665 520
0 c513 0 520 0 520 -20 0 -20 7 -20 1150 -20 l1150 0 0 -205 0 -205 2443 0
2443 0 739 313 740 313 3 302 2 302 1543 0 1542 0 193 118 192 117 0 63 0 62
1260 0 c1253 0 1260 0 1260 -20 0 -19 7 -20 177 -20 l177 0 649 -315 648 -315
258 0 259 0 50 45 51 46 100 -53 101 -53 0 -182 0 -183 415 0 415 0 0 -175 0
-175 1270 0 1270 0 0 -43 c0 -24 5 -48 12 -55 9 -9 -249 -12 -1161 -12 l-1174
0 -41 -33 -41 -34 -320 -7 -320 -7 -630 -629 -630 -630 190 -190 190 -190 523
-12 523 -12 797 797 797 797 155 0 155 0 -1710 -1710 -1710 -1710 193 -192
192 -193 518 -12 517 -12 836 835 c726 726 837 833 848 820 10 -12 32 -16 83
-16 44 0 67 -4 63 -10 -4 -6 40 -10 123 -10 l130 0 776 798 776 797 0 613 0
612 205 0 205 0 0 420 0 420 295 0 295 0 0 36 0 36 1158 -7 c642 -4 1158 -11
1160 -16 5 -13 442 -12 442 1 0 7 557 10 1650 10 1093 0 1650 -3 1650 -10 0
-6 80 -10 220 -10 140 0 220 4 220 10 0 6 113 10 318 10 l318 0 664 299 665
299 5 71 5 71 412 -200 412 -200 1701 0 1701 0 707 70 c604 60 738 76 917 111
116 22 211 42 213 44 1 1 -2 43 -8 93 -16 127 -10 137 79 128 l66 -7 -40 41
-40 41 1010 -6 1010 -7 225 56 c124 31 235 58 248 61 19 5 22 12 22 55 l0 50
-50 0 -50 0 6 43 c3 23 20 168 38 322 28 243 31 293 23 380 l-9 100 -140 50
-139 50 6 65 6 65 -903 328 -903 328 -665 158 -665 158 -454 37 -454 38 -107
59 -107 59 -544 0 -544 0 -785 71 -785 70 -55 55 c-54 52 -133 94 -179 94 -11
0 -28 -11 -39 -25 -11 -14 -23 -25 -28 -25 -4 0 -800 325 -1768 721 -968 397
-1769 722 -1781 723 -19 1 -21 -10 -38 -181 l-19 -182 292 -399 c256 -350 297
-402 333 -418 22 -10 288 -120 591 -244 l550 -226 26 -129 c15 -72 29 -142 33
-157 6 -22 4 -28 -9 -28 -9 0 -46 -25 -82 -55 l-66 -55 -325 0 -324 0 -1013
-170 c-557 -93 -1015 -170 -1018 -170 -3 0 -6 -18 -6 -40 l0 -40 -1510 0
-1510 0 0 23 c0 21 -33 37 -332 164 -183 78 -580 243 -882 367 l-548 226 -163
0 -163 0 -251 95 -252 95 -1685 0 c-1405 0 -1684 2 -1684 13 0 9 -230 108
-612 266 l-613 251 -91 0 -92 0 -6 108 c-4 59 -9 150 -13 202 l-6 95 -385 314
-385 313 -55 -6 c-31 -4 -60 -10 -66 -15 -6 -5 -39 -11 -74 -14 -34 -3 -69
-11 -77 -17 -18 -15 8 -37 -278 226 l-231 211 -165 7 c-91 3 -234 9 -317 12
l-150 6 -173 -207 c-168 -201 -173 -208 -155 -225 11 -10 234 -203 497 -429
l478 -411 100 0 99 0 0 -85 c0 -71 -3 -85 -16 -85 -9 0 -365 110 -792 245
l-775 245 -1536 0 -1536 1 -330 142 -330 143 -3 192 -2 192 -53 14 c-28 9
-274 79 -546 156 l-494 140 -1489 0 -1488 0 0 -190 0 -190 -190 0 -190 0 0
320 0 320 -600 0 -600 0 0 200 0 200 -674 0 -675 0 -85 70 -85 70 -253 0 -253
0 -357 99 c-297 81 -361 102 -377 122 -18 22 -20 39 -21 186 l0 161 -84 7
c-58 5 -86 12 -90 21 -4 11 -36 14 -148 14 -85 0 -293 14 -513 35 -363 34
-379 35 -857 35 l-488 0 0 25 0 25 -175 0 -175 0 0 -25 c0 -20 -5 -25 -25 -25
-20 0 -25 5 -25 25 l0 25 -550 0 -550 0 0 -25 0 -25 -342 0 c-189 0 -353 3
-365 6 -14 4 -23 14 -23 25 0 18 -9 19 -125 19 -115 0 -125 -2 -125 -18z
m19428 -2524 c45 -38 51 -47 49 -77 -1 -24 -11 -40 -33 -57 l-30 -24 -101 93
c-113 103 -113 105 -2 106 62 1 67 -1 117 -41z m13772 -3676 l0 -69 -484 -221
-483 -222 -267 0 c-171 0 -266 4 -266 10 0 6 -25 10 -55 10 l-55 0 0 120 0
120 143 1 142 0 510 159 510 158 153 1 152 1 0 -68z m-15470 -147 l0 -204 -32
-5 c-18 -3 -573 -8 -1233 -11 l-1200 -6 215 216 215 215 1017 0 1018 0 0 -205z
m855 -179 l530 -234 3 -103 3 -104 252 -132 252 -133 -106 0 -106 0 -649 309
c-357 169 -666 316 -686 326 -21 11 -38 25 -38 32 0 7 -7 13 -15 13 -13 0 -15
22 -15 140 l0 140 23 -10 c12 -6 261 -116 552 -244z m9005 -46 l0 -120 -34 0
c-19 0 -36 -5 -38 -10 -2 -7 -368 -9 -1087 -8 l-1084 3 154 128 153 127 968 0
968 0 0 -120z m3770 0 l0 -120 -50 0 c-27 0 -50 -4 -50 -10 0 -7 -557 -10
-1650 -10 -1093 0 -1650 3 -1650 10 0 6 -16 10 -35 10 l-35 0 0 120 0 120
1735 0 1735 0 0 -120z m-7562 -2382 l-3 -263 -27 -3 c-19 -2 -61 -38 -147
-128 -117 -120 -121 -124 -163 -124 l-42 0 47 48 47 48 0 342 0 342 145 0 145
0 -2 -262z"/>
</g>
</svg>
