<?xml version="1.0" standalone="no"?>
<!DOCTYPE svg PUBLIC "-//W3C//DTD SVG 20010904//EN"
 "http://www.w3.org/TR/2001/REC-SVG-20010904/DTD/svg10.dtd">
<svg version="1.0" xmlns="http://www.w3.org/2000/svg"
   viewBox="0 0 4588.000000 4247.000000"
 preserveAspectRatio="xMidYMid meet">
<metadata>
Created by potrace 1.16, written by Peter Selinger 2001-2019
</metadata>
<g transform="translate(0.000000,4247.000000) scale(0.100000,-0.100000)"
fill="#000000" stroke="none">
<path d="M27366 42308 l-106 -163 0 -2237 0 -2238 -55 0 -55 0 0 2095 0 2095
-563 0 -562 0 -98 -195 -97 -195 -285 0 -285 0 0 -72 c0 -40 20 -928 45 -1973
25 -1045 45 -1941 45 -1991 l0 -92 -80 -12 c-45 -7 -83 -10 -87 -7 -3 4 -29
834 -58 1847 -28 1012 -53 1842 -56 1844 -2 2 -303 -80 -669 -184 l-665 -188
-620 -234 -620 -235 -513 -304 -513 -305 -566 -483 -565 -484 75 -76 c41 -42
570 -597 1177 -1235 l1103 -1158 -50 -50 -50 -50 -1350 1400 -1350 1399 -405
-389 -405 -390 43 -136 c24 -76 54 -171 66 -211 l22 -75 -204 -198 -205 -198
430 -428 c237 -236 804 -799 1262 -1253 l832 -824 -42 -82 -42 -83 -1128 1105
c-620 608 -1131 1105 -1135 1105 -4 0 -165 -271 -358 -603 l-351 -602 -278
-589 -278 -588 -159 -577 -159 -576 -71 -737 c-39 -406 -69 -741 -65 -744 3
-3 665 -34 1471 -68 806 -34 1468 -65 1471 -68 3 -3 1 -36 -6 -72 l-11 -67
-162 7 c-224 9 -3251 111 -3253 110 -1 -1 -9 -209 -17 -461 -9 -253 -18 -505
-21 -560 l-5 -101 195 -104 c107 -58 195 -108 195 -112 0 -5 -198 -8 -440 -8
l-439 0 -147 -105 c-81 -58 -150 -105 -154 -105 -4 0 -21 18 -39 40 l-32 40
-484 0 c-317 0 -485 3 -485 10 0 6 -18 10 -41 10 -33 0 -47 6 -69 30 -26 27
-34 30 -94 30 -65 0 -66 0 -66 27 0 22 -26 54 -127 155 -103 103 -123 128
-105 128 37 0 62 -18 62 -45 0 -23 4 -25 45 -25 l45 0 0 140 0 140 -45 0 c-41
0 -45 -2 -45 -25 0 -16 -6 -25 -15 -25 -8 0 -15 -8 -15 -18 0 -13 -14 -21 -57
-31 -59 -13 -93 -34 -93 -56 0 -7 -7 -18 -15 -25 -13 -10 -12 -17 6 -53 12
-22 43 -64 70 -92 l49 -52 0 -72 c0 -63 -3 -75 -27 -101 -21 -25 -34 -30 -70
-30 -23 0 -43 -4 -43 -10 0 -6 -92 -10 -255 -10 l-255 0 0 -125 0 -125 213 0
212 0 70 -123 71 -122 177 -46 c97 -25 181 -49 186 -55 5 -5 20 -36 33 -69
l24 -60 157 -3 157 -3 0 -689 c0 -683 0 -690 -20 -690 -17 0 -20 7 -20 40 l0
40 -1286 0 -1286 0 -120 -82 c-67 -46 -123 -91 -126 -100 -4 -16 -19 -18 -138
-18 l-134 0 -1540 -622 -1540 -621 0 -234 0 -233 -455 0 -455 0 0 210 0 210
-945 0 -945 0 0 -210 0 -210 -655 0 -655 0 0 215 0 215 -2261 0 -2261 0 6 -22
c3 -13 12 -44 20 -70 l15 -48 -119 0 c-66 0 -120 -3 -120 -7 0 -8 172 -607
203 -708 l22 -70 148 -105 c109 -77 152 -113 162 -137 8 -17 48 -151 91 -297
47 -160 82 -266 90 -266 14 0 12 3 66 -150 24 -70 55 -195 79 -320 22 -113 67
-303 102 -422 l62 -217 64 -3 64 -3 115 -277 c112 -272 115 -278 143 -278 l29
0 0 -315 0 -315 55 0 55 0 0 -65 0 -65 170 0 170 0 0 65 0 65 295 0 295 0 0
-65 0 -65 170 0 170 0 0 65 0 65 272 -2 271 -3 93 -180 c83 -160 94 -186 94
-232 l0 -53 -490 0 -490 0 0 -478 0 -479 90 -119 89 -119 1 -327 0 -328 413 0
413 0 32 -65 32 -65 910 0 910 0 0 -139 0 -140 465 6 465 6 0 -68 0 -68 61 7
c34 3 115 6 180 6 l119 0 0 53 0 54 272 6 c149 4 437 7 640 7 l369 0 393 275
393 275 -5 90 -5 90 112 0 111 0 0 -90 0 -90 284 -2 284 -3 -414 -305 -414
-304 0 -1033 0 -1033 620 0 620 0 0 -29 c0 -34 -25 -22 299 -136 l243 -85 449
0 449 0 0 -70 0 -70 170 0 170 0 0 70 0 70 155 0 155 0 0 -70 0 -70 165 0 165
0 0 70 0 70 434 0 434 0 76 95 c57 71 76 102 76 125 l0 30 143 0 142 1 345
494 345 494 98 1 97 0 0 -605 0 -605 -29 0 c-58 0 -61 -15 -61 -307 l0 -262
29 -20 c16 -12 36 -21 45 -21 11 0 16 -9 16 -30 l0 -30 868 0 867 0 56 -118
56 -119 -30 -41 -31 -42 -168 0 -168 0 0 -162 0 -163 710 -669 710 -670 0
-588 0 -588 -100 0 -100 0 0 -170 0 -170 -440 0 -440 0 0 -30 0 -30 -110 0
-110 0 0 -1400 0 -1400 650 0 650 0 0 -1400 0 -1400 1533 0 1533 0 332 -511
332 -511 0 -2344 0 -2344 -195 0 -195 0 0 -100 0 -100 70 0 70 0 0 -100 0
-100 -90 0 -90 0 0 -340 0 -340 446 0 446 0 299 -257 299 -258 0 -187 0 -188
219 0 220 0 3 52 3 52 123 55 122 55 0 43 0 43 990 0 990 0 0 35 0 35 -990 0
-990 0 0 180 0 180 1363 0 c750 0 1722 3 2160 7 l797 6 0 69 0 68 -208 0 -208
0 -22 -30 -23 -30 -1249 0 -1250 0 -70 50 -70 50 -339 0 -338 0 -9 -43 -9 -42
-263 -3 -262 -2 0 90 0 90 -125 0 -125 0 0 25 0 25 -125 0 -125 0 0 102 0 102
28 -25 c66 -60 46 -70 240 123 l177 176 1310 6 c721 3 1484 9 1698 12 l387 7
0 22 0 22 -532 6 c-293 4 -741 7 -995 7 -296 0 -463 4 -463 10 0 5 -30 30 -67
55 l-68 45 -534 0 -534 0 177 180 176 180 0 755 c0 597 3 755 13 755 6 1 176
232 377 515 334 470 365 517 368 558 l3 45 52 6 c29 3 204 11 390 17 l337 13
0 60 c0 34 -11 320 -25 636 -14 316 -25 581 -25 588 0 8 21 12 73 12 l73 0 22
-422 c13 -232 24 -423 25 -424 2 -2 333 32 738 76 l735 78 577 166 578 165
603 294 603 294 589 353 588 354 -1002 997 c-551 548 -1002 999 -1002 1001 0
2 41 24 90 48 l91 44 1147 -1147 1148 -1148 194 206 c107 113 200 205 206 205
6 0 99 -27 207 -60 107 -33 199 -60 205 -60 5 0 146 143 313 318 167 174 341
356 386 403 l84 86 -1187 1133 -1186 1133 51 51 51 51 67 -66 c38 -37 480
-455 983 -929 503 -475 931 -878 950 -897 l36 -33 479 565 480 566 304 517
304 517 230 615 230 615 187 670 186 670 -90 7 c-50 4 -602 19 -1226 33 -624
14 -1185 28 -1246 31 l-111 6 14 81 c8 45 17 84 19 86 3 3 674 -12 1492 -32
818 -21 1515 -38 1550 -37 l62 0 0 285 0 286 200 96 200 96 0 564 0 563 -1413
0 c-778 0 -1509 3 -1625 7 l-212 6 0 34 0 33 50 0 50 0 0 85 0 85 569 0 570 0
148 130 148 130 973 0 972 0 0 -563 0 -564 98 -239 99 -239 91 -3 92 -3 0 71
c0 61 22 150 165 655 l165 585 0 335 0 335 -672 0 -671 0 -78 -70 -77 -70
-4324 0 -4324 0 -52 60 -53 60 -2025 0 -2024 0 0 95 0 95 -85 0 -85 0 0 565 0
565 748 0 747 1 655 448 655 448 3 47 3 46 270 0 269 0 0 50 0 50 2095 0 2095
0 0 190 0 190 2198 -2 2197 -3 35 -87 35 -88 233 0 232 0 0 -31 0 -30 933 2
932 1 9 -31 9 -31 95 0 c90 0 99 2 159 35 l64 35 1504 0 1505 0 0 33 0 34
-392 6 c-215 4 -994 7 -1730 7 -885 0 -1338 3 -1338 10 0 6 -16 10 -35 10 -32
0 -35 3 -35 28 l0 29 182 6 c99 4 547 7 995 7 l813 0 0 25 0 25 -995 0 c-878
0 -995 2 -995 15 0 13 -54 15 -430 15 l-430 0 0 90 0 90 370 0 370 0 0 260 0
260 120 0 c94 0 120 3 120 13 0 11 80 15 422 20 232 4 529 7 660 7 l238 0 0
28 0 29 -667 7 c-368 4 -693 12 -723 18 -30 5 -81 12 -112 15 l-58 5 0 264 0
264 45 0 45 0 0 115 0 115 -40 0 -40 0 0 50 0 50 -48 0 c-42 0 -59 8 -159 75
l-113 75 -230 0 -230 0 -65 -40 -65 -40 -465 0 c-407 0 -465 -2 -465 -15 0
-13 -153 -15 -1315 -15 -1308 0 -1315 0 -1315 20 0 19 -7 20 -163 20 l-163 0
4 40 4 40 74 0 c52 0 74 4 75 13 0 6 4 45 8 85 l7 72 -393 0 -393 0 0 -29 c0
-15 -3 -49 -6 -75 -6 -42 -9 -46 -34 -46 -24 0 -28 -5 -34 -37 -3 -21 -6 -53
-6 -70 l0 -33 -660 0 c-653 0 -660 0 -660 20 0 19 -7 20 -166 20 l-166 0 6 23
c3 12 6 30 6 40 0 15 10 17 74 17 l73 0 7 53 c3 28 6 67 6 85 l0 32 -390 0
-390 0 0 -25 c0 -22 -4 -25 -38 -25 -23 0 -51 9 -74 25 l-37 25 -249 0 -250 0
-16 -25 -16 -25 -1125 0 -1125 0 0 85 0 85 -170 0 -170 0 0 170 0 170 -920 0
-920 0 0 145 0 145 -590 0 -590 0 0 170 0 170 735 0 735 0 0 170 0 170 -735 0
-735 0 0 45 c0 45 0 45 35 45 l35 0 0 56 0 56 130 163 130 163 0 151 0 151
378 0 377 0 137 -95 137 -95 148 0 148 0 578 576 577 577 0 338 0 339 885 0
885 0 0 -145 0 -145 135 0 135 0 0 145 0 145 320 0 320 0 0 -145 0 -145 135 0
135 0 0 145 0 145 451 0 450 0 82 -62 82 -63 954 -5 954 -5 81 -132 81 -133
647 0 647 0 4 108 3 107 2 -112 2 -113 130 0 c96 0 132 3 135 13 2 6 6 38 10
69 l6 57 126 3 126 3 28 84 c16 46 31 86 34 89 3 3 94 13 203 21 l197 16 3 48
c3 46 3 47 -27 47 l-31 0 0 135 0 135 2195 0 2195 0 103 -130 102 -130 2708 0
2707 0 214 135 213 135 1006 0 1006 0 239 -125 c194 -102 246 -125 280 -125
l42 0 0 1148 0 1147 -187 187 -188 186 -1453 7 -1454 7 -234 -156 -234 -156
-4573 0 -4572 0 -120 -120 -120 -120 -447 0 -448 0 0 -155 0 -155 -120 0 -120
0 0 155 0 155 -345 0 -345 0 0 -155 0 -155 -105 0 -105 0 0 155 0 155 -595 0
-595 0 0 -155 0 -155 -220 0 -220 0 0 198 0 197 -227 268 -228 267 -192 0
-193 0 0 105 0 105 133 0 134 0 89 62 c49 33 91 65 92 70 2 4 451 8 998 8
l994 0 0 30 0 30 -995 0 c-657 0 -995 3 -995 10 0 6 -82 10 -225 10 l-225 0 0
130 0 130 1803 0 c991 0 2062 3 2380 7 l577 6 0 39 0 38 -414 0 c-348 0 -415
2 -426 14 -6 8 -33 29 -59 45 l-48 31 -319 0 -320 0 -12 -45 -12 -45 -1184 0
c-982 0 -1185 2 -1189 13 -3 8 -43 39 -89 70 l-83 57 -302 0 -303 0 0 804 0
803 58 96 57 96 318 1 317 0 0 374 0 374 -145 283 -145 282 0 79 c0 63 -3 78
-15 78 -13 0 -15 118 -15 1005 l0 1005 23 0 c18 0 33 23 90 133 l68 132 0 453
-1 452 -248 0 -247 0 -263 263 -262 262 0 2874 0 2874 55 72 55 71 0 347 0
347 -152 147 c-84 82 -190 183 -234 226 l-81 78 -107 -163z m-336 -5038 l0
-50 -75 0 -75 0 37 50 c33 45 41 50 75 50 l38 0 0 -50z m-1672 -227 l-3 -48
-70 -12 c-102 -17 -97 -19 -93 35 l3 47 65 11 c107 19 102 21 98 -33z m1672
-98 l0 -45 115 0 115 0 0 -740 0 -740 -92 0 c-51 0 -147 -9 -213 -20 -66 -11
-123 -20 -127 -20 -5 0 -8 362 -8 805 l0 805 105 0 105 0 0 -45z m-1660 -272
c0 -49 9 -437 20 -863 10 -426 16 -778 12 -781 -4 -3 -119 -63 -257 -133 -248
-126 -257 -128 -140 -31 l48 41 -27 239 -27 238 48 71 c27 39 77 112 112 163
l64 92 -15 508 c-7 279 -13 509 -13 510 1 2 135 27 168 32 4 1 7 -38 7 -86z
m-2474 -759 l27 -35 -46 -47 -47 -46 -35 34 -35 34 47 48 c26 26 51 48 55 48
4 0 19 -16 34 -36z m823 -863 c344 -361 626 -661 628 -666 2 -6 -68 -81 -155
-168 l-158 -157 -471 489 c-260 269 -508 527 -552 573 l-79 84 -20 154 -20
155 96 98 c53 53 99 97 102 96 3 0 286 -296 629 -658z m-2170 -653 c-23 -43
-44 -78 -48 -78 -4 0 -22 13 -41 29 l-35 29 43 87 43 88 39 -38 39 -38 -40
-79z m5711 -388 l0 -490 -87 0 c-59 0 -218 -20 -478 -61 l-390 -61 -348 -177
-347 -176 -279 -280 -279 -280 -173 -340 -174 -340 -60 -380 -60 -380 -413 -3
-412 -2 0 89 c0 62 24 240 81 597 l80 509 231 455 230 455 362 363 361 363
461 234 460 234 495 80 c409 65 515 79 617 80 l122 1 0 -490z m-4761 -438
l734 -727 -91 -175 -90 -175 -103 85 c-56 48 -105 95 -109 106 -4 10 -20 99
-35 197 l-28 178 -549 536 c-301 295 -548 540 -548 544 0 13 74 159 80 159 3
0 335 -328 739 -728z m4761 -1957 l0 -1365 -575 0 -575 0 0 250 0 250 -480 0
-480 0 -4 23 c-3 12 -10 79 -16 148 l-12 127 47 298 47 299 139 270 138 270
218 216 218 215 264 133 263 133 297 48 c209 34 328 48 404 49 l107 1 0 -1365z
m-6703 -18 c-3 -8 -8 -39 -12 -70 l-7 -57 -50 0 -51 0 7 62 c4 34 10 66 12 70
3 4 28 8 56 8 38 0 49 -3 45 -13z m1392 -48 c520 -21 946 -41 948 -43 2 -1 -8
-73 -22 -159 -14 -86 -25 -185 -25 -221 l0 -65 -112 5 c-62 3 -371 14 -686 24
-316 10 -579 23 -585 28 -7 5 -103 81 -213 170 l-202 162 -141 6 c-78 4 -141
9 -141 12 0 3 5 34 11 69 l11 65 107 -7 c58 -3 531 -24 1050 -46z m9981 -6629
l0 -110 -79 0 -79 0 -12 -37 c-18 -57 -26 -59 -42 -11 l-15 43 -149 5 -149 5
140 107 140 107 123 0 122 1 0 -110z m-40 -355 c13 -14 21 -25 18 -25 -2 0
-15 11 -28 25 -13 14 -21 25 -18 25 2 0 15 -11 28 -25z m-9410 -3341 c0 -4
-21 -40 -47 -80 l-46 -74 -298 0 -297 0 -31 42 c-22 30 -31 53 -31 80 l0 38
375 0 c206 0 375 -3 375 -6z m1990 -457 l0 -64 1565 5 c1167 4 1565 2 1565 -7
0 -6 -17 -11 -40 -11 -41 0 -49 -7 -28 -28 8 -8 51 -12 129 -12 l117 0 67 -82
c63 -80 66 -85 62 -129 -4 -46 -3 -47 33 -58 l36 -11 -17 -162 c-10 -90 -18
-171 -18 -180 -1 -17 -19 -18 -225 -18 l-223 0 -46 -40 -45 -40 -210 0 -210 0
-16 -25 -16 -25 -735 0 -735 0 -6 25 -6 25 -305 0 -305 0 -597 413 -596 412
110 3 111 3 18 34 19 35 274 0 273 0 0 -63z m3453 -159 c-3 -24 -7 -44 -8 -45
-1 -2 -16 17 -34 42 l-32 45 39 0 40 0 -5 -42z m2357 -178 c7 -22 19 -40 27
-40 7 0 13 -3 13 -7 0 -5 -9 -87 -20 -183 -11 -96 -20 -178 -20 -182 0 -5
-350 -8 -778 -8 l-779 0 -23 25 c-18 19 -34 25 -67 25 -28 0 -43 4 -43 13 0 6
7 99 17 205 l17 192 821 0 822 0 13 -40z m3490 0 l0 -40 58 0 c49 -1 91 -14
297 -99 l240 -99 3 -76 3 -76 -221 0 c-140 0 -220 4 -220 10 0 6 -88 10 -244
10 l-244 0 -48 -65 -48 -65 -817 0 -818 0 -22 40 -23 40 -296 0 -297 0 -23 25
c-19 20 -33 25 -73 25 l-50 0 6 53 c4 28 12 121 19 205 l12 152 1403 0 1403 0
0 -40z m-6650 -5228 c0 -154 -4 -196 -49 -474 l-49 -305 -132 -264 -133 -264
-216 -218 -216 -218 -270 -138 -270 -138 -298 -47 c-296 -47 -298 -47 -420
-36 -67 6 -132 13 -144 16 l-23 4 0 490 0 490 -510 0 -510 0 0 350 0 350 49 0
c47 0 51 2 157 97 99 88 109 100 112 135 l3 38 522 0 522 0 205 150 205 149
733 1 732 0 0 -168z m910 84 c0 -57 -27 -253 -81 -596 l-81 -512 -230 -451
-230 -452 -367 -368 -366 -367 -454 -231 -454 -231 -271 -44 c-149 -24 -279
-44 -288 -44 -17 0 -18 20 -18 283 l0 283 373 58 372 59 345 174 345 175 281
279 280 280 176 347 176 347 61 390 c56 356 61 404 61 548 l0 157 185 0 185 0
0 -84z m3310 -1 l0 -85 45 0 c45 0 45 0 45 -35 l0 -35 -225 0 -225 0 -220
-165 -220 -165 -830 0 -831 0 6 33 c37 212 65 418 65 471 l0 66 1195 0 1195 0
0 -85z m430 -120 l0 -35 -50 0 -50 0 0 35 0 35 50 0 50 0 0 -35z m-1786 -1816
c644 -16 1172 -31 1174 -34 2 -2 -2 -43 -9 -90 l-12 -86 -166 6 c-173 6 -1766
45 -1843 45 -40 0 -59 -11 -203 -112 l-160 -112 -215 23 c-118 12 -226 24
-240 27 -26 5 -26 5 68 190 l93 186 172 -7 c95 -3 698 -19 1341 -36z m1512
-56 c-2 -10 -10 -51 -16 -92 l-12 -73 -41 6 c-23 4 -43 9 -45 10 -2 2 2 40 9
85 l12 81 49 0 c42 0 49 -3 44 -17z m-2855 -1804 l901 -852 -48 -48 -48 -49
-25 23 c-14 12 -85 78 -157 147 l-131 126 -272 32 -272 32 -562 536 c-309 296
-573 548 -587 561 l-25 23 160 160 c88 88 161 160 163 160 1 0 408 -383 903
-851z m-1996 -711 c270 -271 665 -669 879 -885 l389 -391 -93 -47 -93 -47
-666 665 -666 665 -191 27 -191 28 -152 180 c-84 99 -148 183 -144 187 4 4 78
17 163 30 119 18 168 29 210 51 30 15 57 28 60 29 3 0 226 -222 495 -492z
m3089 -409 c-27 -27 -51 -49 -54 -49 -3 0 -20 14 -39 31 l-33 31 47 48 48 49
39 -31 39 -31 -47 -48z m-1611 -1077 l37 -38 -94 -46 -93 -47 -38 39 -38 38
89 46 c49 25 91 45 94 45 3 1 23 -16 43 -37z"/>
</g>
</svg>
