<?xml version="1.0" standalone="no"?>
<!DOCTYPE svg PUBLIC "-//W3C//DTD SVG 20010904//EN"
 "http://www.w3.org/TR/2001/REC-SVG-20010904/DTD/svg10.dtd">
<svg version="1.0" xmlns="http://www.w3.org/2000/svg"
   viewBox="0 0 4007.000000 858.000000"
 preserveAspectRatio="xMidYMid meet">
<metadata>
Created by potrace 1.16, written by Peter Selinger 2001-2019
</metadata>
<g transform="translate(0.000000,858.000000) scale(0.100000,-0.100000)"
fill="#000000" stroke="none">
<path d="M9040 8480 l-72 -100 -326 0 c-214 0 -821 -19 -1767 -55 -792 -30
-1604 -61 -1803 -68 l-364 -12 -361 66 c-199 36 -379 69 -399 73 l-36 7 -8
-57 c-5 -42 -3 -59 7 -69 8 -7 59 -27 114 -44 l100 -31 -205 6 c-113 2 -713
16 -1333 30 l-1128 24 -61 -53 -60 -54 -131 -11 c-73 -6 -346 -50 -608 -97
-261 -47 -478 -85 -481 -85 -4 0 -8 -39 -10 -87 -2 -49 -28 -400 -58 -780 -30
-381 -51 -695 -49 -698 6 -6 388 -106 1369 -360 377 -98 686 -179 688 -180 2
-2 122 -512 267 -1135 145 -622 265 -1133 267 -1136 3 -2 387 -33 854 -68
l849 -64 125 19 c113 17 189 19 773 19 450 0 655 -3 669 -11 14 -8 23 -8 31 0
18 18 37 13 71 -16 29 -26 142 -53 1323 -323 710 -162 1290 -296 1288 -298 -2
-2 -286 1 -631 7 -345 6 -630 8 -633 5 -3 -3 0 -13 5 -22 11 -17 127 -23 624
-32 144 -2 142 -3 -240 -32 -212 -17 -387 -32 -389 -34 -3 -3 4 -13 15 -23 18
-18 32 -17 479 15 253 19 561 36 685 38 205 4 226 6 240 24 15 18 26 16 370
-62 260 -60 345 -82 320 -86 -26 -4 -36 -11 -40 -30 l-6 -25 -3354 -472
c-1845 -259 -3358 -472 -3362 -472 -5 -1 -8 -10 -8 -21 0 -11 -1 -20 -2 -21
-2 0 -56 -8 -122 -18 -115 -17 -119 -17 -124 1 -5 21 -5 21 -54 7 -41 -11 -45
-22 -32 -88 6 -30 9 -31 56 -31 44 0 50 2 45 19 -4 16 5 20 82 30 47 7 103 15
124 18 33 5 37 3 37 -17 0 -20 4 -21 38 -16 85 14 6660 936 6670 936 13 0 17
-40 5 -40 -5 0 -89 -7 -188 -15 -99 -8 -190 -15 -202 -15 -26 0 -31 -25 -8
-37 8 -5 90 -3 182 4 250 18 222 24 225 -53 l3 -66 460 -164 c253 -90 469
-163 480 -164 12 0 156 20 320 45 347 53 947 102 1125 93 81 -4 217 6 230 18
12 10 32 8 110 -10 75 -18 127 -40 245 -102 l150 -80 3 -72 3 -72 134 0 133 0
1284 -678 c705 -373 1403 -745 1549 -825 l267 -147 183 -25 184 -25 1425 16
1425 15 1435 59 1435 60 1710 130 c1286 98 1895 149 2457 205 554 56 784 75
892 75 l146 0 0 -31 c0 -28 2 -30 28 -25 15 3 59 8 97 11 132 11 132 11 148
58 l14 42 74 8 c128 14 121 9 117 74 l-3 57 343 32 c188 17 344 33 346 35 2 2
7 18 10 34 13 59 13 59 -369 89 -192 16 -352 30 -355 32 -6 7 -18 118 -13 124
4 4 532 27 676 29 55 1 57 2 57 29 -1 15 -11 40 -24 56 -23 28 -33 30 -382 93
-198 36 -360 66 -360 66 -1 1 -13 100 -27 221 -14 120 -27 219 -29 220 -2 2
-352 64 -778 140 -426 76 -1520 277 -2430 447 l-1655 310 -1355 339 -1355 339
-1645 300 -1645 300 -810 31 c-445 18 -811 33 -813 35 -7 6 91 145 102 145 6
0 166 20 356 45 298 39 367 45 510 44 91 -1 196 -4 234 -8 l68 -6 20 -64 20
-64 141 7 c78 3 177 9 220 12 l77 7 0 53 0 54 1065 0 1066 0 246 -115 245
-115 172 0 c170 1 174 1 846 113 l675 112 1050 -3 1050 -2 10 -23 10 -22 490
0 490 0 3 22 c2 12 12 25 23 28 17 6 19 16 19 99 l0 94 43 -5 c23 -2 740 -51
1592 -109 l1550 -105 1200 42 c660 23 1200 42 1201 43 1 0 4 22 7 49 6 40 4
47 -11 47 -9 0 -544 36 -1189 80 l-1172 79 -215 98 c-170 77 -216 101 -216
116 0 18 6 19 88 13 48 -4 1109 -65 2357 -136 l2270 -129 1510 -6 1510 -7
2330 -133 c1281 -73 2333 -131 2336 -129 4 2 10 48 13 102 4 53 12 152 18 220
l11 123 113 -7 c78 -4 114 -3 114 4 0 6 -30 13 -67 17 -38 3 -88 8 -112 11
l-43 6 6 46 c3 26 11 101 17 167 6 66 12 121 14 123 2 2 13 -26 25 -62 12 -36
25 -68 29 -71 5 -2 41 29 80 70 l72 74 122 10 c67 6 146 14 175 17 l52 5 0
140 c0 76 -2 139 -5 139 -2 0 -79 11 -170 25 -153 23 -173 29 -257 71 l-90 45
6 67 c4 37 9 81 12 97 l5 30 -3823 468 -3823 468 -2325 245 c-1564 166 -2328
250 -2335 259 -5 6 -48 19 -95 28 -47 9 -103 22 -125 27 -22 6 -659 76 -1415
156 -1370 145 -1655 169 -1667 139 -5 -14 -413 28 -422 43 -3 6 -38 16 -76 22
-39 6 -90 18 -115 25 -74 24 -2790 307 -2957 309 -79 0 -144 -3 -146 -8 -1 -4
-81 -1 -177 9 -142 14 -178 21 -190 36 -9 11 -40 22 -80 29 -36 6 -94 18 -130
26 -112 26 -2751 276 -2932 277 l-157 2 -16 -28 c-17 -28 -18 -28 -89 -22
-162 14 -1470 95 -1706 106 -249 11 -256 12 -294 38 l-39 26 -980 56 c-960 55
-980 56 -998 77 l-17 22 -1666 0 -1665 0 -71 -100z m13580 -3904 l315 -23
-363 -2 c-200 0 -361 2 -359 7 2 4 7 15 10 25 8 21 2 22 397 -7z m1504 -102
l46 -7 0 -103 0 -104 -292 2 c-258 2 -268 3 -85 5 l207 3 0 105 0 105 39 0
c21 0 59 -3 85 -6z m-14024 -1988 l95 -24 -102 -1 -103 -1 0 25 c0 30 -7 30
110 1z m728 -167 c305 -69 406 -95 385 -100 -15 -4 -221 -31 -458 -60 l-429
-53 -141 48 c-77 27 -143 51 -147 55 -4 3 -13 45 -20 92 l-14 86 179 0 c153 0
181 3 195 17 9 9 21 15 27 13 5 -2 196 -46 423 -98z"/>
</g>
</svg>
