<?xml version="1.0" standalone="no"?>
<!DOCTYPE svg PUBLIC "-//W3C//DTD SVG 20010904//EN"
 "http://www.w3.org/TR/2001/REC-SVG-20010904/DTD/svg10.dtd">
<svg version="1.0" xmlns="http://www.w3.org/2000/svg"
   viewBox="0 0 3585.000000 3862.000000"
 preserveAspectRatio="xMidYMid meet">
<metadata>
Created by potrace 1.16, written by Peter Selinger 2001-2019
</metadata>
<g transform="translate(0.000000,3862.000000) scale(0.100000,-0.100000)"
fill="#000000" stroke="none">
<path d="M15235 38520 l-140 -97 -227 -569 -227 -569 -143 -97 -143 -97 -1263
0 -1262 -1 -133 -96 -132 -97 -1202 -3331 -1201 -3331 -474 -5 -473 -6 -545
-52 -545 -53 -510 -135 c-280 -74 -518 -137 -527 -140 -16 -5 -18 -24 -18
-208 l0 -203 -103 -46 c-81 -36 -121 -48 -196 -57 -52 -6 -545 -94 -1095 -195
l-1001 -184 -830 -206 -829 -205 -837 -268 -837 -267 -171 -306 -171 -305 0
-422 0 -422 888 0 887 0 275 -99 276 -99 639 -31 c352 -17 648 -31 658 -31 16
0 17 -65 17 -1222 l0 -1223 983 -239 c540 -131 1322 -321 1737 -423 415 -101
816 -196 890 -209 300 -55 500 -97 799 -169 l314 -75 178 0 178 0 382 -452
c211 -249 412 -486 447 -525 l64 -73 868 0 869 0 250 -160 251 -161 1417 -199
1418 -199 1075 -224 1075 -225 1080 -302 c594 -166 1100 -313 1125 -326 25
-13 387 -221 805 -462 l760 -438 577 -605 c317 -332 580 -613 583 -624 3 -11
-78 -569 -179 -1240 l-185 -1220 -220 -795 -220 -795 -292 -800 -291 -800
-357 -158 -356 -157 -1889 0 -1888 0 -297 -85 c-163 -48 -317 -93 -342 -101
l-46 -15 99 -397 c105 -423 181 -830 198 -1067 5 -66 12 -141 15 -166 l7 -46
160 -77 161 -76 -6 -115 -5 -115 -90 -122 c-82 -113 -224 -326 -253 -379 -6
-13 -74 -228 -151 -479 l-139 -455 -56 -473 -55 -474 61 -468 61 -468 208
-471 207 -472 264 -342 265 -342 413 -341 413 -342 846 -362 846 -361 281
-191 c155 -105 288 -196 295 -203 7 -7 32 -81 54 -165 l40 -152 -14 -207 -15
-206 -252 -702 c-222 -618 -251 -705 -239 -721 7 -11 50 -58 94 -105 l81 -86
487 -219 487 -220 173 212 c912 1118 1299 1604 2244 2823 l1068 1378 956 1465
956 1465 851 1608 851 1608 495 1450 494 1450 315 1432 315 1432 305 2190
c255 1830 308 2192 323 2202 9 7 46 13 82 13 36 0 1484 18 3216 40 1733 22
3169 40 3193 40 l42 0 0 88 0 89 -277 21 c-153 13 -288 22 -301 22 -18 0 -28
-12 -49 -60 l-26 -60 -131 0 c-72 0 -1272 23 -2666 50 -1394 27 -2590 50
-2656 50 l-122 0 90 171 c49 95 87 173 86 174 -9 7 -129 65 -135 65 -4 0 -44
-70 -88 -155 l-80 -155 -87 88 -86 87 -11 285 c-5 156 -9 286 -7 287 2 2 122
-15 267 -37 145 -23 275 -42 289 -43 19 -1 62 28 167 113 l143 115 242 395
242 396 344 49 c189 28 347 52 351 55 5 3 42 59 84 125 l76 121 63 -4 63 -4
455 704 455 704 87 72 88 73 29 97 c16 53 100 329 186 612 l157 515 -7 402 -7
402 89 3 88 3 7 145 7 145 -61 152 -61 153 -226 120 c-124 66 -1198 645 -2385
1287 l-2159 1168 -249 525 c-138 289 -331 712 -430 940 -161 372 -187 425
-250 513 l-71 98 -128 65 -129 64 -1083 0 -1084 0 -319 414 -320 414 -1668
1618 -1669 1619 -1787 1170 -1788 1170 -194 58 -193 58 -820 -2 -820 -1 -140
-98z"/>
</g>
</svg>
