<?xml version="1.0" standalone="no"?>
<!DOCTYPE svg PUBLIC "-//W3C//DTD SVG 20010904//EN"
 "http://www.w3.org/TR/2001/REC-SVG-20010904/DTD/svg10.dtd">
<svg version="1.0" xmlns="http://www.w3.org/2000/svg"
   viewBox="0 0 3693.000000 1154.000000"
 preserveAspectRatio="xMidYMid meet">
<metadata>
Created by potrace 1.16, written by Peter Selinger 2001-2019
</metadata>
<g transform="translate(0.000000,1154.000000) scale(0.100000,-0.100000)"
fill="#000000" stroke="none">
<path d="M7805 11505 l-60 -34 -217 -1 -217 0 -68 -60 -67 -60 -372 0 -371 0
-1459 -830 -1459 -830 -137 -481 c-75 -265 -138 -482 -140 -484 -2 -1 -280
-79 -618 -173 l-615 -171 -85 -90 -85 -90 -605 -81 -605 -81 -75 -75 -76 -74
-153 -21 -152 -20 -84 -57 -84 -57 2 -919 2 -920 95 -57 95 -57 940 -96 c517
-54 958 -100 979 -104 l39 -7 72 -195 73 -195 63 -3 c35 -2 67 -6 71 -10 6 -6
78 -674 78 -719 0 -6 46 -29 103 -52 l103 -42 78 -342 c43 -188 80 -345 82
-349 2 -3 55 -49 118 -102 l113 -96 737 0 737 0 51 -105 51 -105 373 0 374 0
0 -31 c0 -23 25 -67 100 -173 l99 -141 1218 -430 1218 -430 1919 -5 1918 -5
162 -585 161 -585 1318 -3 1317 -2 0 -174 c0 -158 -2 -175 -17 -180 -10 -2
-116 -17 -235 -32 -120 -15 -223 -31 -230 -35 -9 -6 -7 -48 10 -186 12 -98 27
-197 33 -221 11 -40 13 -42 43 -37 43 8 1473 195 1487 195 24 0 -24 417 -51
444 -6 6 -86 -1 -212 -18 -112 -14 -209 -26 -215 -26 -10 0 -13 34 -13 135 l0
135 285 0 284 0 49 153 c27 83 120 378 208 655 l159 502 871 0 871 0 43 106
c32 79 47 104 58 99 8 -3 170 -55 361 -115 l346 -110 315 -36 315 -35 293 55
293 55 497 243 c432 211 530 263 751 400 l254 158 719 0 718 0 0 -102 0 -103
70 -29 70 -30 1 -250 0 -251 144 -122 144 -123 1877 0 1876 0 129 121 129 122
0 383 0 384 115 0 115 0 0 -104 0 -104 70 -28 70 -29 0 -250 0 -250 143 -122
142 -123 1878 0 1877 0 130 123 130 122 0 383 0 382 110 0 110 0 0 -102 0
-103 70 -29 70 -28 0 -249 0 -248 146 -126 145 -125 1877 0 1877 0 133 126
132 126 0 1236 0 1237 -78 112 -77 112 -317 1 -318 0 0 80 0 80 -160 0 -160 0
0 -80 0 -80 -125 0 -125 0 0 80 0 80 -165 0 -165 0 0 -80 0 -80 -120 0 -120 0
0 80 0 80 -165 0 -165 0 0 -80 0 -80 -939 0 -939 0 -86 -113 c-55 -73 -86
-122 -86 -138 0 -20 -15 -36 -70 -74 l-70 -48 0 -84 0 -83 -110 0 -110 0 0
160 0 161 -77 109 -77 110 -313 0 -313 0 0 80 0 80 -165 0 -165 0 0 -80 0 -80
-120 0 -120 0 0 80 0 80 -165 0 -165 0 0 -80 0 -80 -125 0 -125 0 0 80 0 80
-160 0 -160 0 0 -80 0 -80 -942 0 -943 -1 -80 -105 c-54 -71 -81 -115 -83
-137 -3 -27 -14 -39 -78 -82 l-74 -50 0 -82 0 -83 -110 0 -110 0 0 163 0 163
-76 107 -76 107 -314 0 -314 0 0 80 0 80 -165 0 -165 0 0 -80 0 -80 -120 0
-120 0 0 80 0 80 -165 0 -165 0 0 -80 0 -80 -120 0 -120 0 0 80 0 80 -165 0
-165 0 0 -80 0 -80 -940 0 -939 0 -86 -111 c-57 -75 -85 -120 -85 -138 0 -21
-13 -35 -70 -74 l-70 -48 0 -85 0 -84 -680 0 c-617 0 -680 1 -680 16 0 9 -28
79 -62 155 l-61 139 -975 -2 -975 -3 -63 -140 c-35 -77 -64 -146 -64 -152 0
-10 -134 -13 -634 -13 l-633 0 -433 312 c-365 264 -429 313 -409 318 22 5 25
12 30 80 4 41 7 162 8 268 l1 193 122 385 122 384 2106 0 2105 0 95 -95 95
-95 200 0 200 0 60 -70 60 -69 260 0 260 0 55 69 c50 63 83 135 335 720 l280
649 67 12 68 12 0 356 0 356 -181 160 c-99 88 -183 161 -187 162 -4 1 -1595
183 -3536 403 l-3529 401 -1397 419 -1397 420 -116 0 -117 0 0 135 0 135 -60
0 c-54 0 -60 2 -60 21 0 17 4 20 28 15 15 -3 145 -30 289 -60 l262 -53 20 56
c37 103 71 273 71 358 l0 38 -767 158 c-423 87 -771 158 -774 157 -28 -2 -99
-293 -99 -409 l0 -40 53 -10 c28 -6 81 -17 117 -24 l65 -13 3 -102 3 -102
-546 0 -545 0 0 55 0 55 -805 0 -805 0 0 64 c0 76 27 64 -225 101 -93 14 -213
37 -266 51 l-95 25 -42 137 c-23 75 -46 138 -50 141 -5 4 -66 55 -135 115
-122 104 -127 110 -127 147 0 32 -4 39 -22 43 -13 3 -164 19 -336 35 l-312 31
-87 65 -86 65 -176 0 -176 0 -60 -35z m5285 -973 l135 -28 3 -42 3 -42 -55 0
-56 0 0 -104 0 -104 -50 27 -50 26 0 73 0 72 -60 0 -60 0 0 49 c0 27 3 63 6
80 5 25 10 30 28 26 11 -3 82 -18 156 -33z m-9394 -5447 l339 -25 695 -218
695 -218 3 -317 2 -317 -307 0 -308 -1 -74 -94 -74 -95 -646 0 -647 0 -62 63
-62 63 -59 284 c-33 157 -59 285 -58 286 1 0 47 36 102 79 55 43 101 79 102
80 3 1 -33 359 -41 423 -6 40 -38 39 400 7z m16674 -2491 l-215 -106 -264 -48
-264 -49 -266 30 -266 31 -352 111 c-257 81 -350 114 -346 124 4 11 200 13
1097 13 l1091 0 -215 -106z m-5070 -1872 l0 -148 -102 -13 c-57 -6 -120 -15
-140 -18 l-38 -6 0 167 0 166 140 0 140 0 0 -148z"/>
</g>
</svg>
