<?xml version="1.0" standalone="no"?>
<!DOCTYPE svg PUBLIC "-//W3C//DTD SVG 20010904//EN"
 "http://www.w3.org/TR/2001/REC-SVG-20010904/DTD/svg10.dtd">
<svg version="1.0" xmlns="http://www.w3.org/2000/svg"
   viewBox="0 0 1561.000000 3597.000000"
 preserveAspectRatio="xMidYMid meet">
<metadata>
Created by potrace 1.16, written by Peter Selinger 2001-2019
</metadata>
<g transform="translate(0.000000,3597.000000) scale(0.100000,-0.100000)"
fill="#000000" stroke="none">
<path d="M10490 35924 c0 -27 -3 -73 -6 -101 l-7 -53 -212 0 c-177 0 -215 3
-225 15 -17 20 -98 19 -152 -1 -48 -19 -135 -100 -360 -337 l-141 -148 -108
-296 c-60 -162 -117 -310 -127 -327 l-18 -31 -136 -7 -135 -7 -248 -160 -249
-161 -143 -167 -143 -168 0 -207 0 -207 103 -31 c56 -17 124 -38 151 -47 43
-14 103 -15 425 -12 l375 4 67 -115 67 -115 394 -10 393 -10 50 -30 c28 -16
150 -90 272 -166 l223 -136 -163 -7 c-89 -4 -172 -10 -184 -13 -23 -5 -23 -6
-23 -198 l0 -193 98 -87 97 -87 5 -186 5 -186 82 -51 c60 -37 110 -81 187
-163 l106 -112 0 -150 0 -150 515 0 515 0 0 -200 0 -200 -189 0 -188 0 -269
-110 -269 -110 -408 0 -407 0 -70 35 -70 35 -2564 0 -2565 0 -3 -42 -3 -42
-370 -48 c-203 -26 -376 -47 -382 -48 -10 0 -13 29 -13 115 l0 114 33 5 c17 3
300 14 627 26 327 11 654 23 726 27 l130 6 18 201 c10 111 20 211 23 224 l5
22 229 0 229 0 0 685 0 685 -229 0 -228 0 -7 92 c-3 50 -6 124 -6 163 l0 73
-87 21 c-49 12 -105 26 -125 32 l-38 10 0 109 0 110 -669 0 -668 0 -456 -75
c-251 -41 -463 -75 -472 -75 -9 0 -23 16 -31 35 -8 21 -23 37 -37 40 -12 2
-229 23 -482 45 -253 22 -471 42 -485 44 -22 4 -34 -8 -100 -107 -46 -69 -118
-156 -188 -229 l-114 -117 -156 -36 c-87 -20 -164 -39 -173 -41 -11 -3 -31 24
-73 101 -46 83 -62 105 -79 105 -27 0 -1086 68 -1144 74 l-43 4 0 -1064 0
-1064 73 6 c39 2 310 16 600 29 291 14 532 27 536 29 4 3 29 53 56 111 l49
107 260 -7 c144 -4 264 -9 269 -12 4 -2 7 -533 7 -1179 l0 -1174 -225 0 -225
0 0 -125 0 -125 225 0 225 0 0 -1025 0 -1025 605 0 605 0 0 -40 0 -40 455 0
455 0 0 -100 0 -100 -742 0 -743 0 -108 -180 -108 -180 -135 0 c-100 0 -134
-3 -134 -12 0 -7 -5 -30 -11 -50 l-10 -38 -114 0 -115 0 0 -600 0 -600 126 0
125 0 -5 -92 c-3 -51 -9 -141 -12 -200 -6 -103 -7 -108 -28 -108 -16 0 -34
-18 -65 -62 l-44 -63 12 -170 c7 -93 15 -198 18 -232 l6 -63 101 -59 101 -59
255 -5 c233 -5 1041 -39 1237 -52 l81 -5 12 35 12 35 638 0 638 0 6 -25 6 -25
208 2 207 3 3 71 3 71 109 8 110 7 0 419 0 419 615 0 c403 0 615 3 615 10 0 7
283 10 830 10 l830 0 177 -160 178 -159 513 -1 512 0 0 -868 0 -868 -57 -15
-58 -15 -3 -547 -2 -547 489 0 490 0 15 54 c9 30 16 59 16 65 0 8 104 11 355
11 l355 0 0 -90 0 -90 189 0 189 0 4 -392 c3 -216 4 -394 2 -396 -1 -2 -503
32 -1116 76 -612 44 -1114 79 -1115 78 -1 -1 1 -34 5 -74 l8 -72 -134 0 c-122
0 -133 -1 -128 -17 2 -10 10 -52 16 -93 6 -41 14 -83 16 -92 5 -17 -35 -18
-735 -18 l-741 0 0 -230 0 -230 -95 0 -95 0 0 -128 c0 -71 3 -278 7 -460 l6
-332 89 0 88 0 0 -230 0 -230 1970 0 1970 0 0 -248 c0 -137 3 -527 7 -866 l6
-618 -1096 4 c-602 1 -1098 6 -1101 9 -4 3 -9 76 -13 162 l-6 157 -766 -6
c-421 -3 -784 -7 -807 -10 l-41 -5 -18 -142 c-9 -78 -22 -153 -27 -167 -5 -14
-16 -88 -24 -165 -11 -108 -583 -4231 -609 -4396 l-6 -36 87 -7 c48 -3 89 -7
90 -9 1 -1 -51 -544 -116 -1206 l-118 -1204 143 -366 c78 -201 145 -376 149
-388 l7 -23 -190 -2 -190 -3 1009 -2160 c555 -1188 1011 -2163 1012 -2167 2
-4 94 -10 205 -14 l202 -7 1018 -2129 1018 -2128 142 0 143 0 0 -135 0 -135
850 0 850 0 0 35 0 35 48 0 49 0 6 662 c4 364 7 1445 7 2402 0 958 3 2089 7
2514 l6 772 84 0 83 0 0 198 c0 109 -3 388 -7 620 l-6 422 -89 0 -88 0 0 575
0 575 150 0 150 0 0 41 c0 38 3 42 40 57 36 16 40 20 40 55 l0 37 99 0 99 0 6
72 c3 40 7 124 9 186 l4 113 -129 146 c-124 142 -128 148 -128 192 0 25 14
739 30 1586 16 847 30 1588 30 1648 l0 107 146 0 147 0 -7 208 c-3 114 -11
452 -16 752 -5 300 -12 596 -15 657 l-4 113 64 0 65 0 0 129 0 129 -65 7 -65
7 0 89 0 89 65 0 65 0 0 120 0 120 -34 0 c-18 0 -48 3 -65 6 l-31 7 0 88 0 89
65 0 65 0 0 140 0 140 -60 0 -60 0 0 100 0 100 61 0 62 0 -8 1253 -7 1254 55
22 55 23 6 131 c3 73 10 400 16 727 5 327 13 672 16 766 l6 171 88 79 89 79 0
110 1 110 -45 55 c-25 30 -45 59 -45 64 0 5 30 66 66 135 l67 126 -6 514 c-4
283 -8 515 -9 517 -2 1 -67 8 -146 15 -136 12 -142 14 -136 33 4 12 53 156
109 321 l102 300 102 3 101 3 0 1359 0 1360 280 0 280 0 0 1016 0 1016 -376
642 -377 641 -269 215 c-148 118 -276 220 -285 227 -9 7 -23 50 -34 105 -11
51 -24 117 -30 146 l-10 52 -40 0 -39 0 0 70 c0 68 -1 70 -25 70 -24 0 -24 2
-27 87 l-3 88 -42 9 -43 9 0 48 c0 44 2 49 23 49 49 0 67 11 67 41 0 16 5 29
10 29 6 0 10 26 10 58 l0 57 -142 167 -141 166 -89 7 -88 7 0 102 c0 57 -3
185 -7 284 l-6 182 35 0 36 0 7 248 8 247 243 169 244 168 0 154 c0 171 7 157
-82 170 l-48 6 0 134 0 133 93 -5 92 -5 252 201 252 200 25 83 c14 46 31 107
38 136 10 43 20 59 55 88 l43 35 0 83 0 83 -46 11 c-35 9 -44 15 -40 29 2 9
12 70 22 134 l18 117 40 6 c23 2 52 6 65 7 22 3 31 25 120 303 l97 301 -46
114 -46 114 -74 29 c-41 15 -106 39 -143 53 -54 21 -67 30 -62 43 24 61 24 60
-117 164 l-133 97 -48 138 -48 137 -231 138 -231 138 -256 18 c-254 18 -255
19 -276 45 -16 20 -30 26 -58 26 -35 0 -37 1 -37 34 0 28 -6 38 -34 55 -30 19
-48 21 -211 21 -176 0 -179 0 -212 -26 -21 -16 -33 -33 -33 -50 0 -23 -2 -24
-77 -24 -43 0 -355 -7 -693 -15 -841 -20 -870 -20 -870 3 0 11 -20 33 -50 53
-27 19 -50 41 -50 49 0 25 -93 90 -127 90 -16 0 -33 4 -39 9 -5 5 -125 13
-266 17 l-258 7 0 -49z m-7828 -5069 l63 -25 174 -368 c96 -202 174 -368 175
-369 1 0 372 -45 826 -98 454 -53 832 -99 840 -102 11 -4 12 -7 3 -10 -9 -3
-13 -36 -13 -114 l0 -109 -138 0 -138 0 -20 -62 -20 -63 -61 -18 -62 -18 -95
-150 -96 -151 0 -109 0 -109 -70 0 -70 0 0 -65 0 -65 -696 0 -697 0 7 718 c6
751 16 1312 22 1312 2 0 32 -11 66 -25z m1298 -2317 l0 -63 -368 -139 c-202
-76 -413 -156 -469 -178 l-103 -39 0 -234 0 -233 138 -34 137 -34 3 -192 2
-192 -120 0 -120 0 0 -35 0 -35 -256 0 -257 0 7 578 c3 317 9 648 12 735 l7
157 693 0 694 0 0 -62z m1697 -2490 c154 -179 289 -338 300 -352 l21 -26 841
0 841 0 0 -65 0 -65 190 0 190 0 0 -305 0 -305 -577 0 -578 0 -28 35 -28 35
-609 0 -610 0 0 460 0 460 -125 0 -125 0 0 174 0 175 -40 3 -40 3 43 52 c23
29 45 52 48 50 4 -1 132 -149 286 -329z m7353 -2038 l0 -150 -591 0 -592 0 7
-547 c3 -302 9 -671 12 -820 l7 -273 -187 0 -186 0 0 -75 0 -75 -352 0 -353 0
-17 30 -17 30 -126 0 -125 0 0 129 c0 126 -1 130 -25 149 l-25 20 0 866 0 866
1285 0 1285 0 0 -150z"/>
</g>
</svg>
