<?xml version="1.0" standalone="no"?>
<!DOCTYPE svg PUBLIC "-//W3C//DTD SVG 20010904//EN"
 "http://www.w3.org/TR/2001/REC-SVG-20010904/DTD/svg10.dtd">
<svg version="1.0" xmlns="http://www.w3.org/2000/svg"
   viewBox="0 0 3898.000000 1787.000000"
 preserveAspectRatio="xMidYMid meet">
<metadata>
Created by potrace 1.16, written by Peter Selinger 2001-2019
</metadata>
<g transform="translate(0.000000,1787.000000) scale(0.100000,-0.100000)"
fill="#000000" stroke="none">
<path d="M6818 17858 c-3 -7 -20 -86 -39 -175 l-34 -163 -185 0 -186 0 -86 80
-86 80 -377 0 -377 0 -86 -80 -86 -80 -232 0 -232 0 -197 -310 c-108 -170
-198 -310 -199 -310 -265 -19 -2051 -181 -2053 -187 -2 -4 -75 -141 -162 -303
-88 -162 -159 -296 -157 -297 2 -3 394 -43 417 -43 10 0 61 -68 133 -175 64
-97 122 -178 129 -180 13 -5 1911 -135 1964 -135 28 0 35 -6 65 -60 l33 -60
232 0 c128 0 233 -2 233 -4 0 -5 64 -339 81 -423 l10 -53 125 0 124 0 0 -149
0 -148 -107 -6 c-60 -4 -367 -12 -683 -18 -541 -11 -583 -13 -705 -36 l-130
-24 -1825 -24 c-1004 -13 -1896 -24 -1982 -25 -149 0 -158 -1 -158 -19 0 -17
10 -20 103 -25 56 -3 941 -15 1967 -26 l1865 -21 130 -24 c121 -23 174 -26
740 -40 336 -8 649 -15 697 -15 l87 0 3 -92 3 -92 1545 -1244 1545 -1245 122
7 123 7 0 -211 c0 -209 0 -210 23 -219 12 -5 274 -44 581 -86 475 -64 566 -79
597 -98 21 -12 279 -229 573 -482 l536 -460 0 -145 0 -145 310 -339 c171 -187
310 -342 310 -345 0 -4 -16 -29 -36 -56 l-36 -50 140 -136 c126 -123 138 -137
130 -159 -6 -17 -4 -33 8 -56 17 -31 17 -33 -20 -131 l-37 -99 235 -421 236
-420 0 -104 0 -104 181 -226 180 -226 1012 -6 c557 -4 1190 -7 1407 -7 217 0
400 -4 407 -8 7 -4 37 -60 68 -125 57 -120 58 -122 125 -129 21 -3 35 -22 82
-113 31 -60 58 -113 60 -117 3 -7 405 -58 461 -58 26 0 46 14 118 86 l86 85
669 -95 669 -96 381 0 381 0 184 -302 184 -303 98 -3 97 -3 0 -1150 0 -1149
33 -15 c19 -8 369 -52 892 -110 765 -85 879 -95 1036 -95 125 0 180 -4 192
-13 9 -6 112 -183 230 -391 118 -209 225 -387 238 -397 17 -11 155 -39 444
-88 231 -39 448 -76 483 -82 l62 -11 0 -237 0 -237 33 -32 33 -32 1162 0 1162
0 0 -25 c0 -24 -2 -25 -67 -25 -225 1 -3008 -32 -3100 -36 -102 -5 -113 -8
-113 -25 0 -17 8 -19 78 -19 240 1 3087 -32 3140 -36 l62 -6 0 -153 0 -153 28
-6 c15 -3 98 -8 185 -12 l157 -6 0 -443 0 -444 78 -85 77 -85 68 0 c58 -1 67
-4 67 -19 0 -26 23 -72 36 -72 6 0 41 -27 77 -60 l65 -60 373 0 372 0 68 60
c51 46 75 60 98 60 30 0 31 1 31 45 l0 45 175 0 175 0 0 -45 0 -45 190 0 190
0 0 45 0 45 159 0 159 0 81 89 81 89 0 95 0 95 50 -19 c47 -18 83 -19 580 -19
l530 0 0 -50 c0 -50 1 -52 135 -214 l135 -164 76 -7 c42 -4 164 -6 271 -3
l195 4 40 47 40 47 517 0 517 0 33 -44 c31 -41 36 -44 93 -50 79 -8 358 -8
434 0 l59 7 138 168 c133 163 137 169 137 215 l0 47 814 -6 814 -5 111 79 111
80 0 436 c0 410 1 435 18 431 9 -3 77 -20 149 -39 l133 -34 0 -198 c0 -184 1
-198 18 -193 9 2 76 12 147 22 72 9 135 22 141 28 10 10 183 391 219 484 10
23 22 42 29 42 6 -1 59 -7 119 -14 89 -11 145 -11 330 -1 l223 13 643 334
c470 243 657 345 693 376 l48 44 0 137 0 138 362 6 c199 4 480 7 625 7 169 0
263 4 263 10 0 6 -99 10 -278 10 -153 0 -435 3 -625 7 -284 5 -347 9 -347 20
0 7 7 16 15 19 8 4 15 12 15 18 0 16 313 26 837 26 210 0 383 4 383 9 0 4
-267 12 -592 16 -326 4 -594 8 -596 10 -2 2 5 20 16 42 18 35 19 41 5 67 -8
15 -13 29 -11 31 2 2 404 11 893 20 490 9 905 18 923 21 23 4 32 10 32 24 0
18 -7 20 -87 20 -49 0 -491 9 -984 19 l-897 19 -53 29 c-53 28 -57 28 -264 33
l-210 5 -3 43 -3 42 -140 0 -139 0 0 -40 0 -40 -62 0 c-35 0 -106 -3 -158 -6
-94 -7 -96 -7 -120 -40 -24 -33 -27 -33 -99 -34 -60 0 -79 4 -95 19 -21 19
-25 19 -316 -15 -162 -19 -304 -39 -315 -45 -17 -8 -105 28 -505 208 l-485
218 -388 5 -388 5 -72 79 -72 78 -167 22 c-91 11 -169 24 -173 27 -3 4 -75
288 -160 633 l-154 626 -92 118 -92 118 -321 38 c-176 21 -329 40 -338 42 -16
5 -18 20 -18 139 l0 133 283 6 c155 3 602 9 992 12 391 3 712 8 714 10 2 2 2
6 0 8 -3 4 -1684 26 -1944 26 -49 0 -52 2 -87 49 l-36 48 81 7 c45 3 115 6
155 6 54 0 72 3 72 14 0 14 -113 26 -269 26 l-86 1 -31 42 c-31 41 -33 43
-242 109 l-211 68 -289 0 -289 0 -299 147 -299 147 -143 6 -143 5 -82 92
c-127 142 -675 750 -830 921 l-139 152 -862 0 -862 0 -64 65 c-53 54 -75 68
-130 86 -57 19 -77 33 -165 119 -55 53 -120 108 -144 121 -24 13 -177 67 -340
119 l-296 95 -3 64 c-3 69 4 81 47 81 32 0 101 48 101 69 -1 9 -33 51 -73 93
l-72 77 -378 119 -378 118 -79 119 -80 120 -107 58 -106 57 -163 0 -162 0 -41
58 -41 57 35 8 c19 5 35 12 35 16 0 4 -97 30 -217 58 l-216 49 -20 52 -20 52
-197 0 -197 0 -13 40 c-9 27 -19 40 -32 40 -15 0 -18 8 -18 50 0 28 -3 50 -7
50 -5 0 -34 24 -66 53 l-57 52 142 147 c119 123 151 150 191 164 26 9 53 24
60 33 6 10 37 29 67 43 46 22 51 26 28 27 -31 1 -261 -64 -292 -83 -11 -7 -43
-19 -69 -26 -26 -7 -46 -15 -43 -17 2 -2 29 3 60 12 31 9 61 15 68 13 11 -4
-119 -118 -134 -118 -4 0 -8 7 -8 15 0 8 -6 24 -12 35 -11 17 -10 22 0 29 11
7 11 9 -2 14 -9 4 -16 13 -16 21 0 8 -5 27 -11 43 -7 15 -13 35 -14 43 -5 36
-30 102 -39 106 -6 2 -60 -11 -121 -29 l-110 -33 0 -34 0 -34 -136 -39 c-114
-34 -136 -43 -132 -57 4 -15 10 -16 39 -7 55 17 53 -2 -7 -57 l-56 -51 20 -72
20 -72 129 -30 c71 -17 145 -31 163 -31 31 0 32 -1 26 -32 l-7 -33 -174 -33
c-106 -20 -179 -39 -186 -48 -6 -8 -25 -14 -42 -14 -26 0 -32 -6 -46 -40 l-16
-39 -116 -3 -117 -3 -40 -107 -40 -108 -144 0 -143 0 0 -65 0 -65 -546 2 -545
3 -65 148 -64 149 0 252 c0 307 10 286 -141 286 l-105 0 -29 51 c-39 67 -56
75 -403 193 l-284 96 -310 0 -310 0 -84 -46 -84 -46 0 59 c0 52 -4 63 -27 85
l-28 27 -470 -24 c-258 -14 -484 -25 -501 -25 -31 0 -32 0 -60 101 -20 71 -34
105 -49 114 -11 7 -456 241 -990 520 l-970 506 -245 -27 -245 -27 -1630 763
c-896 420 -1639 763 -1650 762 -11 0 -108 -18 -215 -38 l-195 -37 -1105 587
c-608 323 -1108 591 -1112 594 -3 4 -10 121 -13 260 l-8 252 711 0 711 0 933
115 c513 63 947 117 963 120 28 5 40 25 190 318 l159 312 228 -25 c125 -15
229 -28 231 -31 2 -2 14 -45 27 -96 22 -90 23 -92 53 -95 l32 -3 21 -120 c14
-77 19 -126 13 -137 -16 -29 -10 -47 50 -174 50 -103 78 -147 173 -262 85
-105 126 -147 168 -171 273 -163 269 -161 437 -198 149 -32 159 -33 188 -18
28 15 54 14 375 -14 278 -25 395 -31 609 -31 214 0 267 -3 280 -14 11 -10 78
-19 229 -30 117 -9 226 -16 242 -16 25 0 30 -4 30 -25 l0 -25 178 0 178 0 22
-45 22 -45 86 0 c78 0 85 2 79 18 -3 9 -9 29 -12 45 -5 26 -4 27 41 27 l46 0
12 -45 12 -45 73 0 73 0 0 45 0 45 161 0 c155 0 162 1 205 26 35 21 44 31 44
53 l0 28 673 12 c595 12 683 15 772 33 94 18 178 21 1330 33 677 8 1314 14
1418 14 159 1 187 3 187 16 0 13 -31 15 -222 15 -123 0 -754 4 -1403 10 -1107
11 -1186 12 -1276 31 -84 17 -179 21 -720 34 -343 8 -654 15 -691 15 -68 0
-68 0 -68 28 0 22 -8 33 -39 50 -36 20 -52 22 -230 22 l-191 0 0 50 0 50 304
0 303 0 131 228 130 227 116 -3 c113 -3 116 -2 127 21 9 20 -11 71 -146 372
-87 193 -162 355 -169 361 -6 6 -670 223 -1476 482 -1450 465 -1471 472 -2078
631 -336 89 -614 161 -616 161 -2 0 -86 126 -186 280 l-183 280 -374 0 -375 0
-87 80 -88 80 -375 0 -375 0 -87 -80 -88 -80 -117 0 c-117 0 -124 1 -880 175
l-761 175 -1499 0 c-1190 0 -1500 -3 -1503 -12z m7707 -2584 c401 -44 593 -69
600 -78 6 -7 138 -171 295 -364 l285 -352 412 0 412 0 14 -27 c37 -73 37 -73
-52 -73 -72 0 -81 -2 -81 -19 0 -22 -15 -24 -303 -42 -165 -11 -189 -15 -198
-31 -9 -17 -29 -18 -300 -18 -228 0 -356 6 -592 26 -293 25 -303 26 -322 50
-17 20 -44 29 -160 52 -133 27 -146 32 -261 98 -116 66 -123 72 -210 178 -63
79 -104 141 -140 216 -32 65 -61 112 -77 123 -25 16 -26 20 -53 160 -5 25 -3
27 25 27 32 0 39 13 56 112 6 33 10 37 34 33 14 -3 292 -34 616 -71z m2374
-816 c4 -13 11 -35 15 -50 6 -28 6 -28 -43 -28 l-49 0 -11 44 c-6 25 -11 47
-11 50 0 3 20 6 45 6 38 0 47 -4 54 -22z m5975 -4472 c3 -13 9 -31 12 -40 4
-10 1 -16 -9 -16 -8 0 -18 11 -21 24 -3 13 -9 31 -12 40 -4 10 -1 16 9 16 8 0
18 -11 21 -24z m26 -88 c0 -2 7 -24 15 -50 12 -41 12 -48 0 -48 -13 0 -35 56
-35 88 0 9 20 19 20 10z m40 -138 c0 -5 -7 -10 -15 -10 -8 0 -15 5 -15 10 0 6
7 10 15 10 8 0 15 -4 15 -10z"/>
<path d="M24020 10215 c-19 -7 -28 -13 -20 -13 8 0 31 6 50 13 19 7 28 13 20
13 -8 0 -31 -6 -50 -13z"/>
<path d="M23935 10190 c-13 -5 -14 -9 -5 -9 8 0 24 4 35 9 13 5 14 9 5 9 -8 0
-24 -4 -35 -9z"/>
<path d="M23858 10163 c7 -3 16 -2 19 1 4 3 -2 6 -13 5 -11 0 -14 -3 -6 -6z"/>
<path d="M23758 10133 c7 -3 16 -2 19 1 4 3 -2 6 -13 5 -11 0 -14 -3 -6 -6z"/>
<path d="M23665 10110 c-13 -5 -14 -9 -5 -9 8 0 24 4 35 9 13 5 14 9 5 9 -8 0
-24 -4 -35 -9z"/>
</g>
</svg>
