<?xml version="1.0" standalone="no"?>
<!DOCTYPE svg PUBLIC "-//W3C//DTD SVG 20010904//EN"
 "http://www.w3.org/TR/2001/REC-SVG-20010904/DTD/svg10.dtd">
<svg version="1.0" xmlns="http://www.w3.org/2000/svg"
   viewBox="0 0 4270.000000 678.000000"
 preserveAspectRatio="xMidYMid meet">
<metadata>
Created by potrace 1.16, written by Peter Selinger 2001-2019
</metadata>
<g transform="translate(0.000000,678.000000) scale(0.100000,-0.100000)"
fill="#000000" stroke="none">
<path d="M9996 6720 l-50 -60 -162 0 -163 0 -258 -81 c-572 -179 -543 -168
-543 -190 0 -16 -7 -19 -40 -19 l-40 0 0 -445 0 -445 -60 0 -60 0 0 225 0 225
-185 0 -185 0 0 -40 0 -40 -130 0 -130 0 0 140 0 140 -171 0 -171 0 -45 50
-45 50 -238 0 -237 0 -47 -50 -47 -50 -209 0 -210 0 0 -100 0 -100 -1210 0
-1210 0 0 35 0 35 -55 0 -55 0 0 -75 0 -75 -704 0 -704 0 -17 28 c-10 15 -79
111 -154 215 l-135 187 -106 0 -106 0 -29 90 -29 90 -879 0 -879 0 5 -367 c2
-203 7 -377 11 -389 7 -20 17 -21 384 -33 207 -6 407 -14 445 -17 l67 -6 0
-119 0 -119 -207 0 c-115 0 -387 -3 -605 -7 l-398 -6 0 -809 0 -808 610 0 610
0 0 -989 0 -989 144 -136 143 -136 535 0 534 0 27 55 27 56 94 -76 93 -75 127
0 126 0 0 -35 0 -35 734 0 735 0 12 35 13 35 461 0 460 1 95 68 95 69 6 -97
c4 -53 7 -122 8 -153 l1 -58 414 0 414 0 7 155 7 155 859 0 c852 0 859 0 859
-20 0 -19 7 -20 185 -20 l185 0 0 995 0 995 60 0 60 0 0 -1125 0 -1125 96 0
97 0 67 -55 67 -55 424 0 c233 0 812 3 1286 7 l862 6 33 49 33 48 187 0 188 0
2 754 3 753 72 -31 73 -31 0 -593 0 -592 183 2 182 3 3 30 c1 17 5 54 8 82 l5
53 100 0 99 0 0 -55 0 -55 1159 0 1159 0 12 -65 12 -65 296 2 296 3 8 40 c4
22 10 50 13 63 l5 22 244 0 243 0 9 53 9 52 548 3 547 2 0 930 0 930 300 0
299 0 5 -32 c3 -18 7 -44 8 -58 3 -25 5 -25 101 -28 l97 -3 0 -954 0 -955 184
0 184 0 7 85 7 85 99 0 99 0 0 -32 c0 -18 3 -43 6 -55 l6 -23 1168 0 1168 0
12 -65 12 -65 296 2 296 3 8 40 c4 22 10 50 13 63 l5 22 229 0 229 0 6 37 c15
81 -47 73 562 73 l544 0 0 870 0 870 50 0 c49 0 49 0 55 37 3 21 8 48 11 61
l4 22 299 0 298 0 7 -60 7 -60 99 0 100 0 0 -955 0 -955 179 0 179 0 6 31 c3
17 6 49 6 69 0 69 1 70 111 70 l99 0 0 -55 0 -55 1723 2 1722 3 9 52 9 53 548
0 549 0 0 215 0 215 130 0 130 0 0 130 0 130 1310 0 1310 0 0 -130 0 -130 195
0 195 0 0 -94 c0 -63 4 -96 12 -98 6 -2 -13 -13 -43 -25 l-54 -20 -3 -481 -2
-480 65 -23 65 -24 0 -42 0 -43 119 0 c114 0 120 -1 123 -21 2 -16 162 -129
609 -430 l605 -408 165 53 164 52 3 457 2 457 -342 3 c-261 2 -235 2 112 3
250 0 409 -2 353 -3 l-103 -4 0 -457 0 -457 158 -49 c86 -27 162 -49 168 -49
5 0 281 182 612 404 l601 404 1 78 0 77 30 0 c30 0 30 1 30 55 l0 55 1265 0
1266 0 263 70 264 70 204 0 c116 0 208 4 214 10 5 5 244 14 574 20 311 6 567
13 569 16 2 2 -63 5 -145 5 -503 5 -793 14 -786 26 6 9 151 14 575 19 312 4
567 10 567 14 0 4 -256 11 -570 15 -317 4 -570 11 -570 16 0 5 -12 10 -27 10
-24 2 -25 2 -5 6 20 4 22 10 22 62 l0 58 188 6 c103 4 349 7 547 7 350 0 412
5 375 30 -8 5 -62 11 -120 12 -100 2 304 9 1425 26 474 7 489 7 290 14 -115 4
-571 11 -1012 14 -658 6 -805 9 -814 20 -9 11 -92 14 -445 14 l-434 0 0 43 0
42 -601 293 -601 292 -159 0 -159 0 0 40 0 40 65 0 65 0 0 100 0 100 46 23 47
22 -6 333 -7 332 31 0 c22 0 46 13 85 47 l54 47 0 313 c0 303 1 313 19 313 11
0 22 4 25 8 8 13 288 21 911 28 303 4 624 10 715 14 l165 7 -175 2 c-610 9
-1396 23 -1517 27 l-143 5 0 215 0 214 39 0 c31 0 42 5 56 26 l16 25 427 -1
c610 -2 592 -3 592 15 0 10 -11 15 -32 16 -18 0 -246 2 -506 3 -466 3 -473 4
-496 25 -14 13 -35 21 -59 21 l-37 0 0 193 0 194 602 6 c331 4 702 7 825 7
179 0 223 3 223 13 0 16 -502 27 -1222 27 -279 0 -428 3 -428 10 0 6 63 10
169 10 94 0 172 4 175 8 3 5 236 12 518 15 1210 16 1468 20 1468 27 0 4 -228
10 -507 13 -1286 17 -1474 21 -1479 29 -3 4 -78 8 -167 8 l-162 0 -65 60 -65
60 -132 0 c-126 0 -133 -1 -133 -20 0 -19 -7 -20 -130 -20 l-130 0 0 80 0 80
-300 0 -300 0 0 -80 0 -80 -495 0 -495 0 0 35 0 35 -1165 0 -1165 0 0 35 0 35
-125 0 -125 0 0 40 c0 36 -2 40 -25 40 -23 0 -25 4 -25 45 l0 45 -170 0 -170
0 0 -45 c0 -43 -1 -45 -30 -45 -28 0 -30 -2 -30 -39 l0 -39 -440 -7 -440 -7 0
-44 0 -44 -537 0 -538 1 -68 101 c-37 55 -66 102 -64 105 3 2 101 16 218 31
l214 28 3 30 3 31 177 11 c97 7 194 12 215 12 l37 0 0 54 c0 66 10 62 -205 71
-210 8 -223 11 -227 43 l-3 27 -215 27 -215 27 -762 1 -763 0 0 -195 0 -195
75 0 75 0 0 -105 0 -105 -240 0 -240 0 0 -470 0 -470 100 0 100 0 0 -35 0 -35
-130 0 -130 0 0 750 0 750 -365 0 -365 0 0 43 c0 23 -3 59 -6 80 l-7 37 -63 0
-63 0 -7 -35 c-5 -28 -11 -35 -29 -35 -16 0 -25 7 -29 25 l-6 25 -555 0 -555
0 0 -27 -1 -28 -14 33 -14 32 -186 0 -185 0 0 -30 0 -30 -205 0 -205 0 0 150
0 150 -615 0 -615 0 0 -100 0 -100 -342 -2 -343 -3 -3 -47 -3 -48 -180 0 -179
0 0 -165 0 -165 -100 0 -99 0 -7 -50 -7 -50 -301 2 -301 3 -3 25 c-7 68 -9 70
-62 70 l-50 0 0 120 0 120 -360 0 -360 0 -5 23 c-3 12 -6 47 -7 77 l-3 55 -67
3 -68 3 0 -36 c0 -32 -2 -35 -30 -35 -25 0 -30 4 -30 25 l0 25 -557 -2 -557
-3 -6 -25 c-6 -24 -6 -24 -13 8 l-6 32 -191 0 -190 0 0 -30 0 -30 -205 0 -205
0 0 150 0 150 -257 2 -258 3 -14 73 -15 72 -296 0 -296 0 -15 -72 c-14 -71
-15 -73 -47 -76 l-32 -3 0 -100 0 -99 -339 0 -339 0 -7 -50 -7 -50 -179 0
-179 0 0 -165 0 -164 -97 -3 c-96 -3 -98 -3 -101 -28 -1 -14 -5 -35 -7 -47
l-5 -23 -300 0 -300 0 0 170 0 170 -365 0 -365 0 0 58 c0 99 -3 102 -76 102
l-64 0 0 -35 c0 -32 -2 -35 -30 -35 -25 0 -30 4 -30 25 l0 25 -553 0 -554 0
-10 -22 c-11 -23 -11 -23 -18 5 l-7 27 -184 0 -185 0 -5 -30 -6 -30 -204 0
-204 0 0 150 0 150 -609 0 -608 0 -7 -31 c-3 -17 -6 -62 -6 -100 l0 -69 -340
0 -339 0 -7 -50 -7 -50 -178 0 -179 0 0 -280 0 -280 -75 0 -75 0 0 500 0 500
-64 0 c-59 0 -65 2 -68 22 -3 19 -47 35 -403 144 l-400 124 -145 1 -145 0 -48
60 -48 59 -357 0 -357 0 -49 -60z m22514 -2345 l0 -35 -120 0 -120 0 0 35 0
35 120 0 120 0 0 -35z m-20280 -949 l0 -265 -72 33 -73 33 -3 232 -2 231 75 0
75 0 0 -264z"/>
</g>
</svg>
