<?xml version="1.0" standalone="no"?>
<!DOCTYPE svg PUBLIC "-//W3C//DTD SVG 20010904//EN"
 "http://www.w3.org/TR/2001/REC-SVG-20010904/DTD/svg10.dtd">
<svg version="1.0" xmlns="http://www.w3.org/2000/svg"
   viewBox="0 0 4277.000000 2058.000000"
 preserveAspectRatio="xMidYMid meet">
<metadata>
Created by potrace 1.16, written by Peter Selinger 2001-2019
</metadata>
<g transform="translate(0.000000,2058.000000) scale(0.100000,-0.100000)"
fill="#000000" stroke="none">
<path d="M34780 20538 c0 -32 18 -79 70 -188 l70 -145 108 -3 108 -3 22 -44
c18 -37 19 -45 7 -45 -8 0 -15 -9 -15 -20 0 -20 -7 -20 -1304 -20 l-1304 0
-82 -75 c-45 -41 -91 -77 -103 -80 -12 -2 -71 -14 -132 -25 -158 -30 -145 -22
-145 -90 0 -54 2 -60 23 -65 118 -27 263 -55 284 -55 l25 0 -36 -44 -36 -44
63 -29 c34 -16 107 -49 163 -73 85 -38 103 -50 110 -73 8 -27 49 -46 519 -253
429 -188 518 -224 557 -224 40 0 110 -28 435 -174 l388 -174 3 -196 2 -196
-345 0 -345 0 0 -200 0 -200 -109 0 -109 0 -16 -40 -16 -40 -83 0 c-82 0 -84
-1 -117 -35 l-34 -35 -142 0 -142 0 -26 -35 -27 -35 -185 0 c-116 0 -184 -4
-184 -10 0 -6 135 -10 385 -10 250 0 385 4 385 10 0 17 245 12 337 -6 l82 -17
3 -56 3 -56 383 -3 382 -2 0 -270 0 -270 -73 0 c-65 0 -76 -3 -97 -25 l-23
-25 -379 0 c-312 0 -378 -2 -378 -14 0 -14 32 -19 192 -32 78 -6 90 -10 114
-35 l28 -29 308 0 308 0 0 -70 0 -70 170 0 170 0 0 -160 c0 -146 -2 -160 -17
-160 -10 0 -181 -7 -380 -17 l-363 -17 0 -203 0 -203 -295 0 -295 0 0 -30 0
-30 210 0 210 0 0 -255 0 -255 -515 0 -515 0 0 -28 c0 -27 8 -32 120 -83 66
-30 119 -58 117 -63 -2 -5 -126 -122 -277 -262 l-275 -253 -140 -1 c-119 0
-156 -5 -250 -29 -61 -15 -146 -46 -192 -69 -46 -23 -90 -42 -98 -42 -9 0 -75
-27 -148 -61 -130 -60 -133 -62 -197 -140 l-65 -79 -127 0 c-78 0 -128 -4
-128 -10 0 -6 154 -11 428 -12 l429 -3 -246 -222 -246 -223 -542 0 c-352 0
-543 -3 -543 -10 0 -6 188 -11 531 -12 l530 -3 -175 -157 -176 -158 -620 0
c-613 0 -620 0 -620 -20 0 -20 8 -20 597 -22 l597 -3 -250 -225 c-137 -124
-422 -381 -632 -572 l-384 -348 -5664 0 c-5028 0 -5664 -2 -5664 -15 0 -13
163 -15 1410 -15 l1410 0 0 -75 0 -75 -1840 0 c-1629 0 -1840 2 -1840 15 0 13
-29 15 -203 15 -145 0 -206 -3 -215 -12 -9 -9 -12 -103 -12 -363 l0 -352 -143
-46 c-78 -25 -249 -80 -379 -122 l-238 -76 0 -134 c0 -128 -1 -135 -20 -135
-11 0 -172 84 -358 187 l-339 187 -46 71 c-47 71 -47 72 -47 159 0 67 -5 96
-20 126 l-20 40 -89 0 -89 0 -18 -45 -17 -45 -276 0 -277 0 -98 -155 -98 -155
-152 0 c-136 0 -160 3 -226 25 l-74 25 -636 0 -636 0 -74 -25 c-48 -16 -96
-25 -137 -25 l-63 0 0 198 -1 197 -235 152 c-226 148 -236 153 -287 153 -46 0
-62 6 -144 60 l-93 59 0 521 0 520 -25 0 c-14 0 -29 8 -35 20 -8 14 -21 20
-45 20 l-35 0 -2 163 -2 162 -6 -164 c-4 -139 -7 -161 -17 -140 -8 14 -14 73
-16 139 l-3 115 -2 -137 -2 -138 -38 0 c-55 0 -78 -30 -233 -309 l-134 -240
-207 -1 -207 0 -233 -390 -233 -389 -1045 -1 c-1021 0 -1046 -1 -1070 -20 -35
-28 -51 -25 -83 15 l-28 35 -269 0 c-255 0 -274 -1 -377 -26 -59 -14 -153 -46
-208 -71 -339 -151 -317 -139 -381 -214 l-58 -69 -491 0 -491 0 -94 -105 -95
-105 -219 0 -219 0 -333 -107 -334 -107 0 -83 0 -83 -1849 0 c-1057 0 -1860
-4 -1873 -9 -13 -5 -77 -70 -143 -145 l-120 -136 -427 0 c-420 0 -428 0 -428
-20 0 -19 8 -20 406 -22 l407 -3 -269 -302 -269 -303 -127 0 -128 0 0 -215 0
-215 35 0 35 0 0 -114 0 -114 126 -50 c139 -55 140 -54 -11 -67 -38 -4 -78 -9
-87 -11 -17 -5 -18 -30 -18 -340 0 -313 1 -334 18 -334 9 0 298 -29 641 -65
l624 -65 176 -169 c97 -92 186 -173 198 -180 12 -6 240 -47 505 -90 l483 -80
375 -380 375 -381 845 0 845 0 175 -175 175 -175 2311 0 2311 0 79 70 79 70
1346 0 1346 0 141 -130 141 -130 3827 0 3826 0 418 -150 c372 -134 424 -150
481 -150 50 0 73 -5 104 -25 22 -13 36 -25 30 -25 -5 0 35 -27 90 -60 l100
-60 2376 0 2375 0 550 -346 c302 -190 580 -366 618 -390 l70 -44 -412 0 -412
0 0 -50 0 -50 -109 0 c-60 0 -142 6 -182 14 -41 8 -145 17 -233 21 -151 6
-160 5 -181 -15 -22 -20 -32 -21 -1036 -33 -1125 -13 -1087 -18 281 -32 706
-7 726 -8 754 -28 27 -19 37 -20 205 -13 97 4 196 11 221 16 25 5 98 9 163 10
l117 0 0 -45 0 -45 339 0 339 0 795 -240 796 -240 259 0 259 0 216 -65 216
-65 670 0 669 0 83 65 82 65 473 0 473 0 358 -380 358 -380 67 0 67 0 261
-274 261 -274 -1 -610 0 -610 89 -51 88 -51 470 0 469 0 265 -279 c187 -198
271 -280 287 -280 22 -1 22 -3 22 -146 l0 -145 377 -2 378 -3 204 -342 204
-343 132 0 133 0 94 -163 94 -162 102 -3 102 -3 0 334 0 334 55 37 c33 22 67
36 86 36 21 0 76 29 185 97 l154 97 0 42 c0 36 3 43 22 46 19 3 30 27 81 183
57 175 59 185 78 385 10 113 52 745 94 1405 76 1222 283 4302 291 4343 l4 22
334 0 333 0 716 408 716 407 1 88 0 87 765 0 765 0 0 60 0 60 -1622 1 -1623 0
-225 98 -225 98 -3 464 -3 464 127 262 127 263 459 0 458 0 0 30 0 30 -402 0
c-392 0 -478 4 -478 21 0 4 52 116 115 249 l115 240 0 637 0 638 251 590 c138
324 311 725 384 890 73 165 157 359 187 430 l54 130 106 55 107 55 234 540
234 540 917 3 916 2 0 30 0 30 -1028 0 -1029 0 -6 152 c-4 83 -7 198 -7 255
l0 103 810 0 810 0 0 30 0 30 -865 0 -865 0 0 193 0 193 -71 18 c-38 10 -86
22 -105 27 l-34 10 0 159 0 160 617 0 c539 0 627 2 695 17 l78 16 0 130 0 129
-67 142 -67 142 -602 187 c-543 168 -609 187 -673 187 l-71 0 0 115 0 115 -45
0 -45 0 0 94 0 95 46 3 46 3 -141 115 c-78 63 -153 116 -166 118 -22 3 -24 8
-27 70 l-3 66 -300 98 c-273 89 -307 98 -377 98 l-78 0 -2 185 -3 186 -1120
509 c-616 281 -1132 510 -1146 510 -21 0 -42 19 -105 95 l-78 95 -148 0 c-145
0 -148 0 -148 22 0 12 -48 111 -106 220 l-106 198 -383 0 c-328 0 -384 2 -395
15 -11 13 -62 15 -346 15 l-334 0 0 -42z m-4775 -8437 c-11 -10 -48 -44 -82
-75 l-63 -56 -497 0 -498 0 3 75 4 75 576 0 c563 0 576 0 557 -19z"/>
</g>
</svg>
