<?xml version="1.0" standalone="no"?>
<!DOCTYPE svg PUBLIC "-//W3C//DTD SVG 20010904//EN"
 "http://www.w3.org/TR/2001/REC-SVG-20010904/DTD/svg10.dtd">
<svg version="1.0" xmlns="http://www.w3.org/2000/svg"
   viewBox="0 0 3986.000000 1275.000000"
 preserveAspectRatio="xMidYMid meet">
<metadata>
Created by potrace 1.16, written by Peter Selinger 2001-2019
</metadata>
<g transform="translate(0.000000,1275.000000) scale(0.100000,-0.100000)"
fill="#000000" stroke="none">
<path d="M4417 12705 c-72 -32 -155 -84 -309 -194 l-210 -151 -1857 0 -1858 0
-91 -71 -92 -72 0 -257 0 -258 185 -240 c102 -133 185 -247 185 -254 0 -7 37
-193 82 -413 l82 -400 179 -237 179 -238 54 0 c53 0 54 -1 54 -28 0 -25 24
-47 200 -183 l200 -154 102 -180 103 -180 6 -380 c5 -326 8 -387 23 -432 l18
-53 163 0 c161 0 163 0 168 -22 3 -13 71 -306 152 -653 80 -346 149 -639 154
-650 8 -19 41 -23 668 -70 l659 -49 944 158 944 159 175 -48 c292 -81 271 -72
271 -106 0 -24 9 -35 63 -68 l62 -40 174 -423 174 -423 184 -148 184 -148 46
26 c37 22 47 25 54 14 5 -8 656 -1066 1446 -2351 1172 -1905 1440 -2335 1453
-2328 12 6 21 -1 39 -32 12 -22 20 -42 17 -45 -6 -7 12 -33 23 -33 3 0 14 7
24 14 19 14 14 46 -7 46 -7 0 -25 21 -39 48 -14 26 -674 1100 -1466 2387 -924
1503 -1436 2344 -1430 2351 5 7 -11 60 -43 140 -28 71 -52 130 -54 132 -1 2
-16 -4 -34 -13 -18 -9 -33 -15 -35 -13 -2 2 -107 173 -235 381 -128 207 -236
377 -240 377 -4 0 -17 -8 -29 -17 -21 -18 -20 -20 209 -392 127 -205 230 -377
230 -381 0 -4 -20 -15 -45 -25 -51 -19 -57 -17 -127 46 -31 28 -66 99 -212
424 -97 215 -176 394 -176 398 0 5 6 15 14 23 8 7 16 19 18 25 3 9 2477 -673
4858 -1339 l605 -170 625 -331 c344 -182 629 -337 635 -344 17 -23 122 -45
975 -203 809 -150 1003 -181 1026 -163 14 11 371 -56 393 -74 32 -26 180 -57
899 -188 l732 -134 -6 -155 -6 -155 356 -272 356 -272 381 -136 381 -135 506
-81 c279 -44 508 -81 509 -83 1 -1 -199 -85 -445 -187 l-447 -185 -3 -76 -3
-75 -42 -6 c-23 -3 -218 -25 -433 -48 l-390 -43 -30 21 c-16 11 -52 24 -81 28
l-52 7 -6 -34 c-24 -137 -11 -117 -156 -255 -301 -288 -269 -249 -276 -324 -5
-63 -5 -66 18 -72 13 -4 36 -7 51 -7 24 0 34 -12 86 -107 33 -60 66 -115 74
-124 12 -13 71 -18 364 -29 l349 -13 125 -54 125 -54 445 -19 c245 -11 453
-20 463 -20 14 0 3 -17 -42 -68 l-60 -67 -124 -38 -124 -37 -194 0 c-138 -1
-330 10 -661 37 -405 32 -474 36 -515 25 -26 -7 -49 -15 -52 -17 -4 -5 -20
-98 -17 -102 1 -1 469 -67 1041 -148 572 -80 1071 -153 1110 -163 61 -15 81
-26 165 -96 174 -144 256 -232 308 -328 l47 -88 1387 0 1387 0 22 51 c17 38
31 55 63 72 l41 22 1225 6 c1029 5 1502 13 2960 48 954 22 2124 55 2600 71
476 17 877 30 893 30 25 0 27 3 27 38 0 69 0 69 -285 112 -250 39 -267 43
-445 106 -102 37 -231 91 -286 121 -110 57 -276 187 -454 352 l-105 98 -320
22 c-176 12 -432 33 -570 47 -137 13 -254 24 -260 24 -5 0 -19 -14 -30 -30
-11 -16 -23 -30 -26 -30 -4 0 -53 54 -110 121 l-104 121 -50 147 -50 146 -270
27 c-148 15 -282 27 -298 27 l-27 1 34 53 c19 28 44 81 57 117 12 36 25 69 29
73 10 12 1212 40 1389 32 84 -3 838 6 1675 20 l1521 27 836 104 836 104 1174
40 c646 22 2065 69 3154 105 1089 35 2031 67 2093 71 l112 6 0 224 0 225 -252
-7 c-139 -3 -1229 -23 -2423 -45 -1699 -31 -2192 -43 -2270 -54 -55 -8 -143
-22 -195 -30 -68 -11 -184 -15 -415 -15 -438 -1 -1849 -27 -2237 -41 -307 -11
-488 -7 -488 12 0 5 -26 9 -58 9 -32 0 -161 13 -287 30 -126 16 -243 30 -259
30 -17 0 -91 28 -166 61 -125 57 -140 67 -201 131 l-66 70 -545 -11 c-299 -6
-556 -11 -571 -11 l-27 0 0 -120 0 -119 50 -7 c106 -14 50 -21 -203 -27 -228
-5 -279 -9 -392 -32 -71 -14 -134 -30 -139 -35 -6 -6 -66 -10 -134 -10 -114 0
-135 -3 -244 -36 -66 -19 -122 -33 -124 -31 -3 2 -16 69 -29 147 -13 78 -25
144 -27 145 -3 3 -412 -117 -993 -290 l-210 -62 -65 62 c-46 45 -88 73 -143
98 -69 32 -92 37 -209 46 -73 6 -176 11 -230 11 -72 0 -110 5 -146 19 -33 13
-88 22 -173 26 -111 7 -132 5 -204 -15 -44 -12 -99 -33 -122 -47 l-43 -25 0
126 0 126 117 0 117 0 43 42 43 42 0 178 0 178 563 0 564 0 24 -26 c13 -14 63
-62 111 -106 84 -77 89 -80 125 -73 32 5 43 14 68 57 17 28 29 54 28 58 -1 4
-72 107 -158 229 l-156 221 -585 0 -584 0 0 118 c0 144 -19 221 -85 352 -57
113 -104 170 -295 356 -123 119 -161 150 -247 198 l-102 58 -736 163 c-405 89
-738 165 -741 168 -3 3 57 55 133 116 l138 111 30 -34 c47 -53 66 -52 154 6
218 147 392 272 401 288 15 28 13 33 -30 88 -22 27 -40 54 -40 59 0 5 24 27
52 48 29 22 84 70 123 107 65 61 73 74 94 141 l24 74 216 6 c119 4 269 7 333
7 l117 0 163 59 c137 49 181 60 280 71 l118 13 4 31 c3 17 8 63 11 101 l6 70
-980 285 c-538 157 -974 288 -967 292 13 9 14 274 0 287 -5 5 -308 101 -674
215 -860 266 -4356 1429 -4945 1645 -349 128 -597 210 -1200 395 l-760 234
-445 96 c-381 82 -710 141 -1032 185 -55 8 -384 115 -1185 386 l-1108 376
-295 64 c-162 35 -1961 429 -3998 875 l-3703 810 -127 -1 -127 0 -98 -44z
m15528 -7110 c281 -49 514 -92 519 -96 5 -5 -6 -77 -27 -175 -35 -160 -38
-168 -77 -210 l-40 -44 0 -238 0 -239 -272 101 c-150 56 -580 214 -955 351
l-681 250 -16 59 c-9 32 -15 60 -13 62 1 2 45 -4 97 -12 l95 -16 415 150 c228
83 422 150 430 148 9 -2 245 -43 525 -91z m4042 -3027 l-25 -43 -528 -3 c-290
-1 -530 -6 -533 -10 -4 -5 -31 2 -61 14 l-55 23 40 1 c31 1 1056 53 1164 59
l23 1 -25 -42z m4731 5 c-3 -24 -10 -29 -73 -45 -44 -11 -105 -17 -165 -17
l-95 0 140 44 c77 23 153 43 168 44 25 1 28 -2 25 -26z m-338 -228 l0 -35
-237 2 c-154 2 -237 7 -234 13 10 28 128 43 424 53 l47 2 0 -35z m-1415 -174
c15 -6 2 -11 -50 -20 -155 -26 -166 -24 -53 9 72 21 76 21 103 11z m-1866
-262 c39 -45 89 -95 112 -112 45 -33 59 -60 59 -114 l0 -35 -81 7 c-136 12
-124 2 -221 178 l-86 157 73 0 74 0 70 -81z m496 -291 c7 -7 -5 -9 -39 -4 -27
3 -62 6 -77 6 -16 0 -29 5 -29 11 0 14 130 2 145 -13z m2123 -650 c-13 -18
-33 -45 -44 -60 l-19 -27 -205 0 -205 1 230 58 c282 71 275 70 243 28z"/>
</g>
</svg>
