<?xml version="1.0" standalone="no"?>
<!DOCTYPE svg PUBLIC "-//W3C//DTD SVG 20010904//EN"
 "http://www.w3.org/TR/2001/REC-SVG-20010904/DTD/svg10.dtd">
<svg version="1.0" xmlns="http://www.w3.org/2000/svg"
   viewBox="0 0 4714.000000 1657.000000"
 preserveAspectRatio="xMidYMid meet">
<metadata>
Created by potrace 1.16, written by Peter Selinger 2001-2019
</metadata>
<g transform="translate(0.000000,1657.000000) scale(0.100000,-0.100000)"
fill="#000000" stroke="none">
<path d="M11665 16509 c-775 -32 -1429 -58 -1453 -58 -39 -1 -42 -3 -37 -23 3
-13 7 -115 8 -228 l2 -204 -1870 -371 -1870 -371 -455 -295 -455 -295 -3 -201
-2 -200 -388 -117 c-213 -65 -391 -122 -396 -126 -4 -4 -14 -61 -22 -126 -7
-64 -17 -121 -21 -124 -8 -8 -1943 -530 -1962 -530 -6 0 -34 46 -62 103 -28
56 -53 104 -55 106 -1 2 -353 -115 -781 -260 -715 -242 -785 -268 -868 -318
l-90 -55 3 -126 c1 -69 7 -231 12 -360 6 -129 10 -321 10 -426 l0 -190 -449
-194 -449 -194 -4 -960 c-3 -529 -4 -962 -3 -963 1 -2 77 -19 171 -38 139 -30
1168 -273 1226 -291 24 -7 36 -79 48 -303 6 -107 11 -196 13 -197 1 -1 274 -9
607 -18 333 -9 651 -19 708 -22 l102 -6 0 -292 0 -292 -120 -56 -120 -56 0
-144 c0 -79 5 -439 12 -802 l12 -659 30 -12 c17 -7 70 -23 117 -36 l86 -23 7
-125 c3 -69 6 -246 6 -393 l0 -268 233 0 c127 0 765 7 1416 15 651 8 1186 13
1189 11 2 -3 8 -134 14 -293 5 -158 12 -317 16 -352 l7 -65 795 -118 795 -117
355 -16 c195 -8 362 -15 372 -15 15 0 18 -9 18 -63 l0 -63 234 21 234 20 7
-100 c3 -55 12 -183 18 -284 l12 -183 235 1 c129 1 450 6 714 10 l478 9 150
-104 149 -104 1097 -10 c603 -5 1109 -10 1125 -10 26 0 27 2 27 48 l0 49 98 6
c53 3 529 23 1057 44 796 31 932 39 795 43 l-165 5 170 7 c94 4 414 13 712 20
299 6 541 14 538 16 -5 5 -2792 61 -3057 62 l-158 0 0 44 0 43 178 7 c97 3
458 11 802 17 344 6 631 12 638 14 9 3 12 41 12 142 0 76 3 148 6 159 5 20 14
22 155 29 l149 7 0 97 0 97 533 28 532 29 95 71 95 71 572 10 c591 10 782 25
326 25 -143 0 -389 3 -546 7 l-286 6 59 45 60 44 0 347 0 348 158 6 c86 4 224
7 306 7 l148 0 -7 1498 -7 1499 184 7 c101 3 1338 6 2749 6 2519 -1 2573 -2
3072 -24 l509 -23 41 -41 42 -40 1609 -102 1610 -101 65 65 66 65 250 -10 250
-11 535 -181 c294 -99 536 -181 538 -183 3 -2 72 -391 72 -405 0 -3 157 -66
350 -139 l350 -133 10 -36 c17 -62 19 -61 -87 -62 -135 -1 -2750 -76 -2688
-77 1083 -19 2715 -56 2729 -61 36 -13 -842 -42 -2194 -71 -751 -17 -1403 -30
-1450 -31 -47 -1 781 -16 1839 -35 1470 -25 1926 -35 1931 -45 5 -6 11 -29 14
-50 6 -37 8 -39 69 -57 449 -136 1203 -366 1206 -369 3 -2 8 -94 13 -206 6
-159 54 -713 72 -824 l3 -21 -341 4 c-188 2 -378 6 -423 8 l-81 4 -5 -57 c-3
-45 22 -773 27 -777 2 -2 1065 -24 1931 -40 634 -12 1063 -14 1630 -9 l770 7
-3 149 -3 149 220 0 c191 0 220 -2 223 -16 3 -13 62 -15 540 -14 l537 0 10
-37 c5 -21 15 -60 22 -86 12 -48 12 -48 48 -43 213 33 575 75 580 68 4 -6 247
23 636 78 l630 87 1140 93 1140 92 733 295 733 295 152 -96 c230 -145 242
-153 588 -410 177 -132 397 -305 488 -384 295 -258 613 -556 758 -713 165
-179 665 -809 653 -824 -5 -6 123 -212 295 -478 l303 -468 204 -212 c202 -210
207 -216 467 -585 144 -204 265 -372 267 -372 3 0 26 11 53 24 l48 25 103
-261 c57 -144 124 -298 150 -342 63 -111 210 -450 210 -486 0 -17 4 -30 8 -30
4 0 115 225 245 500 261 551 374 825 506 1235 338 1049 473 1722 566 2805 46
549 58 932 45 1550 -10 447 -14 524 -56 980 -24 272 -53 549 -64 615 -33 195
-23 175 -88 175 l-57 0 -43 183 c-23 100 -42 185 -42 189 0 4 35 8 79 10 l78
3 -49 170 c-38 130 -114 327 -320 830 l-271 660 -375 617 -376 617 -480 540
-481 539 -578 483 -578 484 -492 302 -492 302 -675 307 -675 307 -765 262
-765 263 -591 141 c-497 118 -681 157 -1165 245 l-574 105 -583 40 -583 40
-124 -91 -124 -91 97 -66 c91 -62 214 -152 237 -174 6 -6 2 -7 -12 -3 -25 8
-27 5 -44 -106 -7 -48 -16 -78 -24 -78 -6 0 -279 52 -605 115 l-593 114 -276
-60 c-352 -76 -326 -68 -407 -126 l-69 -50 -665 88 c-602 80 -818 103 -2278
244 -886 85 -1618 155 -1625 155 -9 0 -21 -87 -46 -327 -18 -181 -35 -330 -36
-331 -3 -4 -6845 183 -7131 194 l-162 7 -10 66 c-6 36 -15 78 -21 94 l-11 27
-783 0 -784 0 -6 182 c-4 99 -7 300 -7 445 l0 263 -187 0 c-104 0 -620 -7
-1148 -15 -528 -8 -1018 -15 -1089 -15 l-129 0 6 44 c4 25 10 162 13 305 l7
261 -2479 -1 -2479 -2 -1410 -58z"/>
</g>
</svg>
