<?xml version="1.0" standalone="no"?>
<!DOCTYPE svg PUBLIC "-//W3C//DTD SVG 20010904//EN"
 "http://www.w3.org/TR/2001/REC-SVG-20010904/DTD/svg10.dtd">
<svg version="1.0" xmlns="http://www.w3.org/2000/svg"
   viewBox="0 0 2486.000000 3986.000000"
 preserveAspectRatio="xMidYMid meet">
<metadata>
Created by potrace 1.16, written by Peter Selinger 2001-2019
</metadata>
<g transform="translate(0.000000,3986.000000) scale(0.100000,-0.100000)"
fill="#000000" stroke="none">
<path d="M19860 39851 c0 -5 50 -308 110 -673 l110 -665 0 -259 c0 -167 23
-740 65 -1619 l65 -1360 46 -279 46 -280 334 -889 334 -889 0 -142 c0 -205
-123 -1768 -141 -1793 -8 -11 -115 -144 -238 -297 -124 -154 -227 -292 -232
-309 -5 -18 -177 -770 -383 -1672 -356 -1561 -374 -1644 -369 -1715 3 -41 1
-92 -5 -112 -7 -27 14 -695 79 -2470 49 -1338 89 -2464 89 -2503 l0 -70 408
-660 407 -660 383 -3 c248 -1 382 -6 382 -12 0 -33 -81 -535 -87 -541 -5 -3
-1000 -719 -2213 -1590 -1234 -886 -2213 -1582 -2224 -1581 -10 0 -163 -103
-339 -229 -260 -187 -322 -227 -329 -214 -8 12 -34 15 -161 15 l-152 0 -247
-170 -247 -170 -185 0 -186 0 -68 -44 -67 -44 -605 48 -605 48 -625 7 c-525 5
-724 3 -1245 -14 l-620 -21 -1315 -120 c-1325 -120 -2164 -204 -4165 -415
l-1090 -115 -713 -28 c-393 -15 -716 -24 -718 -20 -3 5 -111 8 -241 8 l-236 0
7 49 c5 41 4 51 -11 59 -33 19 -1 55 91 102 47 25 87 51 88 59 2 8 -10 29 -27
47 -16 18 -45 49 -63 68 -20 23 -72 55 -137 86 -58 28 -105 54 -105 60 0 5
-17 9 -37 8 -45 -1 -567 129 -571 143 -5 12 -82 12 -82 -1 0 -14 -287 -13
-295 1 -9 14 -118 0 -127 -16 -5 -7 -68 -19 -163 -30 l-155 -19 0 -58 c0 -57
1 -59 35 -75 19 -9 35 -21 35 -25 0 -20 -34 -58 -52 -58 -45 0 -58 -17 -58
-80 l0 -60 -239 0 c-238 0 -240 0 -243 -22 -2 -14 -17 -27 -44 -39 l-41 -17
-5 468 c-3 258 -9 473 -12 479 -11 17 -430 15 -444 -1 -14 -18 7 -1570 22
-1580 13 -9 408 -11 430 -2 14 5 16 31 16 189 l0 183 29 5 c33 7 41 27 41 110
0 31 5 57 10 57 6 0 10 -6 10 -14 0 -11 80 -13 500 -10 l500 3 130 -44 c118
-41 140 -45 233 -47 56 -1 81 -3 54 -5 l-47 -4 0 -97 1 -97 72 -125 72 -125
61 -3 62 -3 6 -37 c3 -20 6 -67 6 -104 0 -64 -1 -68 -22 -68 -13 0 -42 -8 -65
-17 l-43 -18 0 -117 0 -117 54 -15 c30 -9 59 -16 64 -16 15 0 72 -75 72 -93 0
-9 5 -28 12 -42 11 -25 12 -25 135 -25 67 0 123 4 123 9 0 14 440 25 475 11
21 -8 73 -9 171 -4 130 6 141 8 150 28 9 20 21 22 265 36 169 10 261 19 271
27 9 8 82 17 194 24 98 6 184 15 189 18 11 8 1513 -89 2920 -188 739 -52 999
-75 1730 -152 1425 -149 2118 -226 2560 -284 320 -42 2447 -281 3155 -355 230
-24 1429 -93 2249 -130 731 -33 984 -40 1390 -41 273 -1 708 -5 966 -8 l471
-6 463 -510 c255 -280 479 -526 497 -545 l34 -35 -91 -950 -90 -950 4 -565 c2
-311 0 -682 -5 -825 -5 -143 -10 -366 -11 -496 l-2 -236 86 -12 c48 -6 117
-11 155 -11 l69 0 60 171 c49 141 61 166 63 138 2 -19 -1 -216 -7 -438 l-11
-403 -336 -1875 -335 -1876 6 -286 5 -286 -92 -300 c-78 -254 -135 -481 -368
-1470 l-276 -1170 27 -3 26 -3 -27 -116 -28 -116 146 6 c80 4 149 10 153 14 3
5 178 676 387 1493 l380 1485 426 2150 425 2150 90 635 c185 1295 255 1910
431 3730 165 1716 219 2372 225 2710 3 168 0 215 -20 344 -14 88 -29 153 -37
157 -7 5 -166 9 -353 9 -187 0 -369 3 -405 6 l-65 6 -67 -193 -67 -194 0 152
c-1 91 3 154 9 158 6 4 10 70 10 164 l0 158 107 6 c58 4 224 7 369 7 l263 0
27 35 26 35 1439 0 c1432 0 1439 0 1439 20 0 20 -7 20 -1462 23 -805 1 -1631
2 -1836 2 l-372 0 0 51 0 51 366 6 366 5 32 31 32 31 1437 0 c1427 0 1437 0
1437 20 0 20 -11 20 -1462 24 -805 3 -1641 5 -1859 4 l-397 -1 -322 212 -322
211 -241 -2 -241 -3 -8 -32 -9 -33 -229 0 -230 0 -4 23 c-3 12 -7 33 -9 47 -2
14 -6 30 -8 36 -3 10 2081 1505 2089 1499 2 -2 25 -123 52 -271 64 -348 54
-314 94 -314 31 0 37 -5 83 -82 l49 -83 75 2 c89 3 94 8 103 103 l7 70 45 0
c42 0 222 66 249 91 5 6 22 480 42 1162 51 1842 51 1885 -57 5787 l-90 3245
-96 1055 c-59 654 -97 1120 -99 1225 -3 130 -26 375 -100 1030 -124 1116 -531
4407 -590 4775 -49 305 -585 3039 -610 3110 -16 46 -88 441 -106 585 -6 50
-61 278 -122 508 l-111 417 -283 0 c-156 0 -283 -4 -283 -9z m1380 -20387 c0
-4 260 -1422 298 -1626 l9 -47 -1281 -919 c-1013 -727 -1289 -921 -1317 -924
-29 -2 -34 -7 -37 -30 -3 -27 -11 -32 -39 -29 -7 1 -36 -10 -64 -25 -57 -28
-69 -24 -69 28 0 55 -6 58 -95 58 l-83 0 -14 43 -15 42 -90 3 -90 3 -13 -45
-12 -45 -102 -3 -101 -3 -9 -52 -9 -53 -72 0 c-78 0 -85 5 -85 55 0 51 -7 55
-95 55 l-82 0 -13 45 -13 45 -92 0 -92 0 -13 -45 -12 -44 -102 -3 -101 -3 -9
-52 c-8 -51 -10 -53 -40 -53 -27 1 -42 14 -114 100 l-83 100 -302 2 -301 3
170 118 c93 64 176 128 184 142 13 22 4373 3163 4393 3164 4 1 7 -2 7 -5z
m339 -1851 c0 -25 -106 -104 -1117 -829 l-1117 -801 -13 30 c-7 16 -11 32 -8
34 22 22 2234 1592 2244 1592 7 1 12 -11 11 -26z m-8449 -1710 l0 -28 -402 11
c-222 5 -664 9 -983 8 -319 0 -537 1 -485 3 435 18 955 30 1373 32 l497 1 0
-27z m448 20 c-21 -2 -55 -2 -75 0 -21 2 -4 4 37 4 41 0 58 -2 38 -4z m-2460
-40 c-10 -2 -28 -2 -40 0 -13 2 -5 4 17 4 22 1 32 -1 23 -4z m3258 -18 c443
-34 434 -33 434 -56 0 -18 -10 -19 -216 -19 -165 0 -562 23 -570 33 -1 1 -5
17 -9 35 -8 39 -44 39 361 7z m-3378 8 c-10 -2 -28 -2 -40 0 -13 2 -5 4 17 4
22 1 32 -1 23 -4z m-110 -10 c-10 -2 -28 -2 -40 0 -13 2 -5 4 17 4 22 1 32 -1
23 -4z m-120 -10 c-10 -2 -26 -2 -35 0 -10 3 -2 5 17 5 19 0 27 -2 18 -5z
m-115 -10 c-7 -2 -21 -2 -30 0 -10 3 -4 5 12 5 17 0 24 -2 18 -5z m-120 -10
c-7 -2 -19 -2 -25 0 -7 3 -2 5 12 5 14 0 19 -2 13 -5z m-110 -10 c-7 -2 -21
-2 -30 0 -10 3 -4 5 12 5 17 0 24 -2 18 -5z m-120 -10 c-7 -2 -19 -2 -25 0 -7
3 -2 5 12 5 14 0 19 -2 13 -5z m-116 -9 c-3 -3 -12 -4 -19 -1 -8 3 -5 6 6 6
11 1 17 -2 13 -5z m-110 -10 c-3 -3 -12 -4 -19 -1 -8 3 -5 6 6 6 11 1 17 -2
13 -5z m2915 -40 l126 -7 -2 -196 c-2 -260 10 -574 24 -600 10 -20 19 -21 154
-21 139 0 143 1 166 25 22 23 31 25 110 25 79 0 88 -2 110 -25 23 -24 27 -25
165 -25 146 0 165 5 165 42 0 17 47 18 1088 18 l1087 -1 128 -219 c71 -120
135 -221 144 -224 8 -3 153 -6 322 -6 l308 0 86 130 87 130 218 0 217 0 65
-55 c62 -54 66 -55 125 -55 49 0 68 -5 95 -25 32 -23 41 -25 158 -25 l123 0
97 -67 c53 -38 105 -70 117 -73 19 -5 941 -1007 933 -1015 -1 -2 -365 -7 -808
-12 -1099 -13 -2383 5 -3295 47 -638 29 -677 32 -2075 160 -1717 156 -1996
185 -2885 294 -379 47 -1030 126 -1445 176 l-755 90 -1105 45 c-608 24 -1465
58 -1905 75 -440 16 -852 34 -915 40 -63 6 -270 20 -459 31 l-344 19 -22 -20
c-14 -13 -35 -20 -60 -20 -37 0 -38 1 -21 19 17 19 17 20 -20 27 -33 6 -40 4
-59 -20 -16 -20 -30 -26 -58 -26 -35 0 -48 12 -27 25 20 13 9 25 -23 25 -21 0
-41 -8 -52 -20 -12 -14 -31 -20 -59 -20 -31 0 -37 3 -28 12 33 33 14 34 -289
30 -237 -4 -303 -2 -309 8 -4 7 3 44 16 83 13 39 24 72 24 74 0 2 -16 3 -35 3
l-35 0 0 109 0 109 53 6 c28 3 84 8 122 12 l70 6 19 77 c35 140 49 172 88 204
l37 30 923 -12 923 -11 910 90 c2602 257 5283 495 5750 510 250 9 1531 4 1737
-6z m7038 -1011 l90 -58 0 -598 0 -598 -128 3 -129 3 -535 585 c-294 322 -533
591 -531 598 4 9 79 12 328 12 l323 0 89 55 88 55 157 0 158 0 90 -57z m90
-1413 c0 -57 -1 -60 -24 -60 -30 0 -131 100 -113 112 7 4 40 8 75 8 l62 0 0
-60z m-560 -5 l44 -45 -34 0 c-117 0 -1654 31 -1840 37 -213 7 -179 8 610 29
459 11 912 22 1005 23 l171 1 44 -45z m-2142 8 c-27 -2 -69 -2 -95 0 -27 2 -5
3 47 3 52 0 74 -1 48 -3z m3342 -617 c-8 -91 -18 -167 -20 -170 -5 -4 -145
145 -273 291 l-39 43 174 0 174 0 -16 -164z"/>
</g>
</svg>
