<?xml version="1.0" standalone="no"?>
<!DOCTYPE svg PUBLIC "-//W3C//DTD SVG 20010904//EN"
 "http://www.w3.org/TR/2001/REC-SVG-20010904/DTD/svg10.dtd">
<svg version="1.0" xmlns="http://www.w3.org/2000/svg"
   viewBox="0 0 3888.000000 3730.000000"
 preserveAspectRatio="xMidYMid meet">
<metadata>
Created by potrace 1.16, written by Peter Selinger 2001-2019
</metadata>
<g transform="translate(0.000000,3730.000000) scale(0.100000,-0.100000)"
fill="#000000" stroke="none">
<path d="M18880 37291 c0 -5 32 -17 72 -27 39 -10 76 -24 83 -30 6 -6 384
-114 839 -240 456 -126 822 -230 814 -232 -16 -3 -1034 68 -1355 94 l-202 17
-212 -63 c-194 -57 -234 -65 -458 -94 l-246 -32 -3 -37 c-4 -44 12 -42 -246
-27 l-169 11 -49 36 c-55 40 -83 35 -48 -10 l20 -26 -52 5 c-29 2 -179 11
-333 19 l-279 15 -57 40 c-32 22 -62 40 -68 40 -22 0 -10 -29 21 -53 l31 -25
-69 4 c-38 3 -106 7 -151 10 l-83 6 0 33 c0 18 -6 37 -12 42 -7 6 -76 20 -153
33 -76 12 -145 24 -152 27 -7 3 -35 40 -62 82 l-50 78 -158 6 c-301 13 -416 9
-470 -14 -47 -20 -57 -20 -463 -13 l-414 7 -131 97 -130 97 -775 12 c-426 7
-840 16 -920 21 -79 5 -474 15 -876 21 l-732 12 -378 -331 c-355 -311 -381
-332 -417 -332 -23 0 -36 4 -32 10 14 23 -7419 -5 -10312 -39 l-43 -1 0 -53 0
-54 158 -12 c86 -6 173 -15 192 -18 l35 -7 -45 -11 -45 -11 -3 -57 -3 -57 63
0 c35 0 889 -7 1898 -16 l1835 -17 580 -42 580 -43 -1106 -1 c-608 0 -1619 -4
-2247 -8 l-1142 -6 0 -114 0 -113 -45 0 c-28 0 -47 -5 -49 -12 -2 -7 -14 -110
-27 -228 l-23 -215 -52 -55 -51 -55 -13 -230 c-7 -127 -19 -250 -26 -275 -27
-88 -26 -90 69 -90 46 0 158 -3 249 -7 l165 -6 59 -93 59 -93 940 -557 c517
-306 947 -564 957 -573 9 -9 155 -277 324 -596 l308 -580 -17 -130 c-9 -71
-15 -131 -13 -132 1 -1 240 -7 532 -12 470 -9 551 -13 724 -36 107 -14 201
-25 208 -25 7 0 12 -12 12 -29 l0 -28 102 -6 c57 -4 419 -17 806 -29 l702 -22
0 -103 c0 -85 12 -167 66 -456 36 -193 68 -363 71 -376 l6 -24 761 7 761 6 65
-57 c35 -32 406 -377 825 -767 l760 -709 5 -106 5 -106 158 -308 158 -309 6
-179 6 -179 116 0 c104 0 142 -6 373 -57 l258 -57 0 -206 0 -205 212 -480
c116 -264 370 -865 564 -1335 l353 -855 -267 -262 c-147 -144 -271 -262 -276
-262 -6 -1 -204 118 -292 175 -19 13 -32 2 -205 -183 -101 -108 -206 -221
-233 -250 l-49 -54 851 -852 850 -852 305 -665 c168 -366 438 -939 600 -1275
278 -576 311 -638 580 -1102 l284 -492 -41 -207 -42 -208 -35 -26 -36 -25 42
-91 42 -91 900 -869 c496 -478 900 -870 899 -871 -1 -2 -306 -14 -677 -29
-371 -14 -693 -28 -716 -31 l-43 -5 0 -46 0 -45 283 6 c155 4 503 15 772 26
l490 19 115 -108 c63 -60 144 -138 180 -174 64 -66 66 -67 200 -110 74 -24
143 -46 152 -48 9 -1 176 -171 372 -377 l354 -374 -44 -66 c-45 -67 -49 -84
-38 -165 7 -45 11 -50 217 -239 l210 -192 -179 -7 c-384 -15 -660 -29 -686
-35 -29 -6 -34 -23 -22 -70 6 -22 10 -23 148 -23 77 0 222 4 321 9 99 6 259
13 355 16 l175 7 700 -642 c385 -353 715 -657 733 -675 19 -21 32 -45 32 -60
0 -29 10 -35 79 -44 48 -6 52 -10 260 -223 187 -191 210 -218 189 -222 -13 -3
-90 -7 -173 -10 -82 -3 -166 -8 -185 -12 -35 -6 -35 -6 -31 -51 l3 -46 262 6
263 6 175 -183 c129 -133 201 -199 267 -245 55 -37 543 -465 1243 -1088 l1153
-1026 117 -56 c114 -55 125 -63 429 -326 172 -148 318 -270 324 -270 6 0 79
-49 163 -110 l151 -110 13 -74 13 -75 1060 -857 1060 -858 80 0 79 -1 41 40
41 41 855 -196 c470 -108 862 -198 872 -201 15 -5 12 -14 -26 -67 -24 -34 -51
-76 -60 -94 l-16 -31 164 -128 164 -128 -33 -46 c-155 -214 -199 -283 -189
-298 17 -28 593 -439 3813 -2722 1735 -1230 3495 -2479 3910 -2775 415 -295
760 -539 766 -542 7 -2 124 126 261 286 136 159 251 290 255 291 4 0 115 -76
247 -169 342 -240 426 -290 502 -301 l62 -9 106 83 c58 46 163 136 232 200
129 118 227 239 365 451 55 84 59 96 74 190 l16 101 -113 104 c-62 58 -204
196 -315 307 l-202 202 66 73 66 74 -744 693 -744 694 53 98 c42 80 75 124
174 231 l123 133 -1 90 0 90 -49 55 -49 55 -48 -18 c-26 -10 -52 -19 -57 -20
-5 -1 -447 501 -983 1116 -911 1045 -974 1119 -959 1136 9 10 16 24 16 32 0
12 -48 149 -56 158 -2 2 -21 -16 -43 -40 -35 -39 -41 -42 -54 -29 -7 8 -92
105 -187 215 -96 110 -200 230 -232 266 l-58 66 -26 129 c-15 71 -32 138 -39
150 -7 11 -113 139 -234 283 -122 144 -221 265 -221 268 0 3 14 22 30 43 l31
39 -34 131 -33 132 -58 -66 c-32 -36 -61 -66 -66 -66 -4 0 -124 144 -265 321
-250 313 -257 320 -276 303 -15 -14 -22 -15 -32 -5 -6 6 -602 713 -1323 1569
-721 856 -1321 1563 -1335 1570 -13 7 -80 36 -148 65 l-124 52 -1107 1568
-1107 1568 -37 117 -37 117 -136 154 -135 155 6 80 6 81 -258 355 c-250 344
-259 356 -312 381 -51 24 -63 37 -155 170 l-100 144 -177 24 -176 23 -322 708
-321 708 20 66 20 66 -76 172 c-42 95 -78 175 -79 177 -2 2 -23 -4 -47 -12
l-45 -15 -219 482 -219 482 54 217 c30 120 52 220 49 223 -3 3 -51 13 -106 22
l-101 16 5 35 c7 50 124 1324 127 1386 l3 50 45 -57 c25 -32 52 -58 61 -58 12
0 24 -28 48 -112 17 -62 137 -503 268 -980 154 -564 242 -868 250 -868 7 0 10
6 8 13 -35 99 -528 1938 -531 1981 -5 62 -10 79 -23 72 -4 -3 -25 59 -46 137
-21 78 -42 147 -46 153 -6 7 15 183 51 435 65 452 103 642 331 1637 242 1060
355 1767 470 2936 l34 339 171 -6 171 -7 6 68 c3 37 11 133 18 213 l12 146
158 99 c132 82 159 103 159 123 0 30 2 31 -167 -77 -106 -68 -143 -87 -143
-74 0 63 37 371 73 607 l42 279 80 14 c43 7 81 15 83 17 2 2 16 60 31 129 16
69 35 134 43 143 8 10 148 175 311 366 283 333 385 437 428 437 23 0 35 73 20
114 -7 16 -9 50 -5 80 5 43 80 348 87 351 17 10 3124 234 3253 235 l31 0 -10
-56 c-5 -30 -7 -57 -5 -60 3 -2 29 -8 58 -14 29 -6 55 -12 57 -14 2 -2 13 -55
25 -117 11 -63 21 -115 22 -116 5 -7 449 -84 498 -86 l63 -2 15 97 c8 53 17
99 20 101 3 3 30 1 62 -4 36 -6 125 -41 250 -99 106 -50 299 -131 429 -180
203 -77 289 -102 599 -180 l362 -91 411 -44 c374 -41 435 -45 658 -45 209 0
248 -2 253 -15 7 -19 114 -88 125 -81 4 3 16 25 25 50 16 43 18 44 69 50 29 3
138 8 242 12 162 5 243 15 555 64 l365 58 235 87 c129 48 240 92 246 99 6 6
25 46 42 88 25 60 32 93 32 145 l0 68 66 75 c135 154 133 151 149 241 18 103
97 699 120 900 l17 146 -55 108 -54 108 44 134 c23 74 43 138 43 143 0 18
-487 329 -674 431 -190 102 -655 312 -864 389 -51 19 -89 36 -85 37 9 3 4 105
-6 115 -9 10 -115 -16 -145 -36 -24 -15 -29 -14 -98 11 -40 14 -80 32 -89 39
-35 31 -410 155 -541 180 -73 14 -168 34 -210 45 -50 12 -235 33 -515 59 -375
33 -503 40 -888 49 -478 11 -673 20 -679 30 -2 3 2 40 9 81 7 41 11 77 9 79
-8 8 -413 81 -484 87 l-75 6 -50 -96 -50 -96 -67 0 c-38 0 -68 -2 -68 -4 0 -9
-60 -391 -65 -417 -6 -25 -6 -25 -73 -18 -37 4 -733 94 -1547 199 l-1480 191
-695 134 c-382 74 -735 143 -783 154 l-88 19 -146 139 c-182 173 -170 163
-398 327 -104 76 -190 142 -190 148 0 19 50 78 63 73 6 -2 77 -54 156 -114
l144 -110 106 80 c90 67 105 82 96 97 -5 9 -94 138 -197 287 l-188 269 -635
456 -635 457 -520 265 -520 265 -285 64 -285 63 -105 76 -105 76 -855 62
c-470 34 -961 67 -1090 73 -129 6 -255 14 -280 19 -25 5 -469 126 -988 269
-519 144 -947 259 -953 256 -5 -3 -40 3 -77 15 -77 22 -92 24 -92 11z m4740
-1276 l355 -122 395 -227 c217 -125 399 -231 403 -235 4 -5 -19 -40 -52 -80
-33 -40 -70 -84 -80 -98 l-20 -25 -135 82 c-122 75 -193 106 -812 357 -374
151 -681 277 -683 279 -2 2 15 61 38 133 l41 129 98 -35 c53 -20 257 -91 452
-158z m1820 -14487 c0 -5 -9 -8 -20 -8 -40 0 -76 133 -64 236 l7 58 38 -140
c21 -76 39 -142 39 -146z m2751 -7545 c13 -16 12 -17 -3 -4 -17 13 -22 21 -14
21 2 0 10 -8 17 -17z m70 -100 c13 -16 12 -17 -3 -4 -17 13 -22 21 -14 21 2 0
10 -8 17 -17z m69 -98 c17 -25 29 -45 26 -45 -3 0 -19 20 -36 45 -17 25 -29
45 -26 45 3 0 19 -20 36 -45z m70 -100 c17 -25 29 -45 26 -45 -3 0 -19 20 -36
45 -17 25 -29 45 -26 45 3 0 19 -20 36 -45z m431 -612 c216 -307 404 -573 417
-590 13 -18 22 -33 19 -33 -11 0 -238 315 -512 710 -158 228 -297 427 -307
443 -11 15 -17 27 -14 27 2 0 181 -251 397 -557z m1898 -2650 c314 -408 571
-750 571 -760 0 -10 -22 -91 -48 -181 l-48 -162 -455 482 c-250 264 -468 497
-485 517 l-32 36 -41 390 c-23 215 -43 400 -45 413 -2 13 0 20 4 15 4 -4 265
-342 579 -750z"/>
</g>
</svg>
