<?xml version="1.0" standalone="no"?>
<!DOCTYPE svg PUBLIC "-//W3C//DTD SVG 20010904//EN"
 "http://www.w3.org/TR/2001/REC-SVG-20010904/DTD/svg10.dtd">
<svg version="1.0" xmlns="http://www.w3.org/2000/svg"
   viewBox="0 0 4512.000000 1025.000000"
 preserveAspectRatio="xMidYMid meet">
<metadata>
Created by potrace 1.16, written by Peter Selinger 2001-2019
</metadata>
<g transform="translate(0.000000,1025.000000) scale(0.100000,-0.100000)"
fill="#000000" stroke="none">
<path d="M28340 10238 c-511 -11 -1259 -60 -2721 -178 -1006 -81 -1379 -115
-2075 -191 -467 -51 -851 -94 -853 -96 -2 -1 1 -24 6 -51 l9 -48 -970 -118
c-818 -99 -1108 -139 -1841 -252 -1817 -281 -3398 -558 -6080 -1064 -1704
-322 -4109 -800 -4809 -956 -208 -46 -382 -84 -386 -84 -4 0 -13 29 -20 65 -7
36 -15 65 -18 65 -3 0 -273 -43 -601 -95 l-596 -95 -155 -55 -155 -56 -1084
-190 c-782 -137 -1090 -194 -1103 -206 -13 -11 -18 -31 -18 -65 l0 -48 -129 0
c-102 0 -131 -3 -141 -15 -10 -12 -44 -15 -182 -15 l-170 0 -41 -32 c-39 -31
-45 -33 -146 -36 -76 -3 -111 -8 -123 -19 -13 -12 -84 -21 -281 -38 -189 -16
-271 -27 -288 -38 -13 -8 -43 -20 -67 -27 -24 -6 -50 -14 -58 -17 -9 -3 -14 1
-14 12 0 12 -6 16 -18 12 -9 -2 -54 -15 -99 -28 -102 -29 -116 -49 -35 -50
l57 -1 -62 -16 c-81 -20 -98 -54 -72 -141 l11 -37 110 -27 c118 -29 143 -27
151 15 2 13 5 -1 6 -31 l1 -53 -42 5 c-24 4 -82 9 -131 13 -116 9 -111 -12 11
-45 48 -13 93 -26 100 -29 6 -2 12 3 12 12 0 9 2 16 4 16 12 0 143 -43 151
-50 6 -4 109 -11 230 -14 301 -9 314 -11 327 -47 10 -28 12 -29 79 -29 38 0
69 -4 69 -8 0 -4 -192 -19 -427 -32 l-428 -25 -3 -117 -3 -118 -204 0 -204 0
-3 -77 -3 -78 -65 -12 c-36 -7 -75 -10 -86 -8 -12 3 -84 -7 -160 -21 -113 -21
-142 -23 -161 -13 -18 10 -37 8 -105 -11 -46 -13 -89 -28 -95 -33 -24 -18 -13
-29 24 -23 21 3 73 8 116 12 l77 6 0 -31 c0 -18 -4 -30 -9 -27 -16 10 -225
-44 -238 -62 -16 -20 -17 -93 -2 -126 10 -21 26 -29 93 -46 l81 -20 -78 5
c-123 8 -97 -20 57 -60 61 -17 69 -17 77 -3 7 13 23 12 131 -9 68 -13 161 -25
208 -27 47 -2 97 -7 113 -11 l27 -7 0 -113 0 -114 -42 -5 c-24 -4 -131 -15
-238 -26 -107 -11 -211 -24 -230 -30 -19 -6 -56 -8 -82 -4 -35 4 -82 -3 -183
-26 -108 -26 -138 -30 -150 -20 -11 10 -32 7 -102 -11 -107 -27 -140 -49 -73
-48 25 0 81 4 126 7 75 7 80 6 70 -10 -7 -12 -14 -14 -22 -7 -16 13 -225 -38
-241 -59 -27 -34 -10 -152 22 -152 9 0 14 -4 11 -9 -10 -16 23 -33 112 -56 72
-18 91 -20 98 -9 7 11 37 7 157 -21 114 -26 154 -32 174 -24 14 5 41 7 59 3
l34 -6 -27 -32 c-14 -17 -39 -59 -54 -94 l-28 -62 -586 0 -585 0 0 -135 0
-135 -85 0 c-61 0 -85 -3 -85 -12 0 -18 -342 -88 -365 -76 -11 7 -54 -2 -136
-28 -100 -31 -122 -35 -129 -24 -8 12 -19 12 -77 -4 -87 -23 -133 -42 -133
-56 0 -10 57 -8 193 9 l57 8 0 -29 c0 -29 -9 -35 -26 -18 -14 14 -224 -37
-241 -58 -15 -19 -17 -90 -4 -125 8 -21 25 -28 119 -52 87 -21 114 -24 131
-16 19 11 21 9 21 -20 0 -27 -3 -30 -22 -26 -13 3 -69 9 -126 13 -86 6 -102 5
-97 -7 3 -8 47 -26 98 -40 80 -23 94 -24 108 -12 14 12 33 10 138 -17 106 -26
124 -29 141 -17 17 12 43 10 182 -15 90 -15 164 -33 166 -38 2 -6 41 -10 88
-10 l84 0 0 -130 0 -130 2400 0 2400 0 0 -263 0 -264 183 -56 c128 -39 246
-67 397 -93 l215 -37 210 -105 210 -105 270 -44 c255 -42 292 -45 670 -63 220
-10 401 -19 403 -19 1 -1 2 -20 2 -44 l0 -42 160 -44 161 -43 167 6 c92 3 220
9 285 12 l117 6 0 70 0 70 328 -6 c180 -4 344 -9 364 -12 l37 -6 3 -61 3 -62
225 -6 c224 -6 225 -6 368 25 132 28 142 32 142 53 0 22 3 23 76 23 l76 0 124
-107 c113 -97 139 -114 277 -181 137 -66 176 -80 392 -137 201 -53 267 -66
405 -79 l165 -17 82 -49 83 -49 397 -10 c219 -6 430 -13 468 -14 l70 -4 50 59
50 58 507 0 508 0 0 -293 0 -292 133 -133 132 -132 361 0 360 0 57 51 c53 47
59 50 104 47 l48 -3 12 -130 c6 -72 12 -131 12 -132 1 -2 846 -3 1879 -3
l1877 -1 298 58 297 57 0 413 0 413 4418 0 4417 0 35 28 35 29 485 -28 c267
-16 495 -28 508 -29 22 0 22 -1 22 -155 0 -117 3 -155 13 -155 6 0 512 -59
1122 -131 l1110 -131 995 -5 995 -4 931 259 930 259 176 145 176 145 507 6
507 7 776 365 777 364 3 60 3 61 47 13 c26 8 190 54 365 102 l317 89 0 91 0
92 193 6 c105 4 383 10 617 14 424 8 425 8 205 14 -121 4 -399 10 -617 14
l-398 7 0 68 0 67 183 7 c100 3 745 9 1432 12 688 4 1239 10 1225 14 -14 4
-518 10 -1120 14 -602 3 -1236 9 -1407 12 l-313 7 0 93 0 94 163 1 c89 1 506
6 927 13 l765 11 -655 8 c-360 4 -778 10 -927 14 l-273 6 0 37 c0 37 1 38 43
43 23 4 176 9 340 13 165 4 293 10 287 14 -7 4 -148 11 -314 14 -165 4 -313 9
-328 12 -26 5 -28 10 -28 50 l0 44 50 0 50 0 0 -40 c0 -33 3 -40 19 -40 38 0
51 11 51 46 l0 34 200 0 200 0 0 -40 c0 -36 3 -40 24 -40 44 0 56 10 56 46 l0
34 200 0 200 0 0 -41 c0 -38 1 -40 28 -37 23 3 27 8 30 41 l3 37 575 0 574 0
0 -40 c0 -36 3 -40 24 -40 44 0 56 10 56 46 l0 34 200 0 200 0 0 -41 c0 -38 1
-40 28 -37 23 3 27 8 30 40 l3 38 1065 0 c930 0 1064 2 1064 15 0 12 25 15
147 17 l146 3 16 32 c16 32 17 33 84 33 l67 0 0 30 0 30 -67 0 c-65 0 -69 1
-85 30 l-17 30 -146 0 -145 0 0 185 0 185 -1335 0 -1335 0 0 30 0 30 -925 0
-925 0 0 693 -1 692 -180 203 c-100 112 -178 206 -174 210 4 4 10 1 12 -5 5
-15 110 -18 132 -4 12 8 12 32 2 163 l-12 153 -122 335 -122 335 -221 315
-221 315 -372 313 -372 313 -407 248 c-364 222 -455 273 -859 474 -248 125
-649 315 -890 423 -377 169 -493 216 -833 336 -393 139 -398 140 -1020 294
-758 188 -1501 345 -1912 403 -800 114 -1548 187 -2213 216 -824 36 -1243 41
-2015 23z m-25061 -4015 c-1 -17 -3 -21 -6 -10 -2 9 -9 17 -14 17 -5 0 -9 5
-9 10 0 6 7 10 15 10 10 0 15 -9 14 -27z m-112 11 c-3 -3 -12 -4 -19 -1 -8 3
-5 6 6 6 11 1 17 -2 13 -5z"/>
</g>
</svg>
