<?xml version="1.0" standalone="no"?>
<!DOCTYPE svg PUBLIC "-//W3C//DTD SVG 20010904//EN"
 "http://www.w3.org/TR/2001/REC-SVG-20010904/DTD/svg10.dtd">
<svg version="1.0" xmlns="http://www.w3.org/2000/svg"
   viewBox="0 0 4698.000000 980.000000"
 preserveAspectRatio="xMidYMid meet">
<metadata>
Created by potrace 1.16, written by Peter Selinger 2001-2019
</metadata>
<g transform="translate(0.000000,980.000000) scale(0.100000,-0.100000)"
fill="#000000" stroke="none">
<path d="M9210 9670 l0 -130 -105 0 -105 0 0 -95 0 -95 40 0 40 0 0 -195 0
-195 145 0 145 0 0 -45 0 -45 -115 0 -115 0 0 -50 0 -50 55 0 55 0 0 -120 0
-120 -260 0 -260 0 0 -95 c0 -90 -1 -95 -21 -95 -31 0 -126 -84 -140 -125 -7
-20 -20 -35 -29 -35 -8 0 -168 -12 -354 -26 l-339 -26 -101 -65 c-101 -64
-101 -64 -117 -120 -13 -49 -19 -58 -45 -65 -16 -4 -1404 -8 -3084 -10 l-3055
-3 -415 -123 c-228 -68 -415 -124 -417 -125 -8 -9 22 -84 38 -95 24 -17 18
-27 -34 -53 -23 -12 -69 -45 -103 -75 -60 -52 -61 -54 -87 -152 -31 -113 -34
-194 -12 -326 14 -89 14 -90 65 -134 47 -41 50 -46 35 -61 -13 -15 -15 -57
-15 -274 0 -251 0 -256 21 -262 18 -6 20 -12 15 -39 -4 -17 -16 -83 -28 -146
l-21 -115 25 -120 c14 -66 25 -121 24 -121 -7 -7 -423 -20 -430 -13 -11 10
-67 12 -90 3 -9 -3 -16 -12 -16 -20 0 -12 47 -14 279 -14 l279 0 31 -48 c19
-29 26 -48 18 -49 -6 -1 -33 -5 -59 -8 -73 -9 -57 -25 25 -25 l72 0 32 -49
c20 -32 75 -83 156 -146 l124 -97 194 -64 c107 -35 208 -64 225 -64 23 0 37
-9 60 -39 19 -27 39 -41 59 -44 17 -2 981 -114 2142 -248 l2113 -244 0 -117 0
-118 95 0 95 0 0 105 c0 69 4 105 11 105 6 0 24 -9 40 -21 28 -20 29 -23 29
-105 l0 -84 95 0 95 0 0 30 c0 17 3 30 7 30 5 0 121 -43 260 -96 l252 -96 253
97 253 98 825 -96 825 -96 2690 -963 2690 -964 5 -467 c3 -291 9 -470 15 -476
8 -8 1546 -111 1653 -111 l32 0 0 -485 c0 -267 3 -485 6 -485 3 0 191 -36 418
-80 l412 -80 3093 0 3094 0 496 61 496 61 515 309 515 309 772 0 c739 0 773 1
782 18 9 18 35 19 387 26 l376 6 88 46 c49 25 113 50 142 55 29 6 256 35 503
64 448 54 452 55 790 136 210 50 359 91 390 107 47 24 132 35 1488 188 l1438
163 287 157 287 158 2745 167 2745 167 2185 426 2185 426 433 0 432 0 0 85 c0
47 1 85 3 85 1 0 60 11 132 25 122 24 148 25 473 25 l343 0 82 84 82 84 367
71 c202 39 381 77 396 85 28 14 31 13 111 -40 l82 -55 180 86 c100 47 182 85
184 83 1 -2 8 -14 15 -27 14 -27 2 -41 -37 -41 -16 0 -21 -4 -17 -15 8 -19 61
-11 116 16 32 17 62 19 231 19 107 0 323 3 480 7 230 5 287 9 287 20 0 10 -31
13 -147 13 -82 0 -286 3 -455 7 l-307 6 15 30 c12 23 13 32 4 41 -9 8 -14 8
-17 0 -2 -6 -10 -20 -18 -30 -13 -18 -15 -18 -49 15 -46 45 -48 88 -8 152 28
43 34 47 143 84 159 54 282 134 370 241 61 74 68 87 86 165 19 84 19 84 -2
172 -19 82 -24 93 -86 165 -51 60 -88 91 -162 137 -58 36 -96 67 -97 77 0 11
-19 22 -62 36 l-63 20 353 1 c336 1 352 2 352 20 0 15 -10 19 -57 25 -42 5
-61 3 -68 -6 -8 -10 -77 -12 -340 -7 -181 3 -331 6 -332 7 -12 8 5 35 46 76
41 41 56 48 102 55 74 10 107 37 197 160 63 87 83 125 118 220 37 103 42 129
47 235 l6 120 -62 195 -62 194 -146 118 c-126 101 -153 118 -193 124 l-47 7
28 18 c15 10 43 33 61 52 l32 34 -75 109 c-41 60 -82 113 -90 118 -9 5 -48 19
-87 33 -70 23 -87 24 -650 41 l-579 17 3 142 3 143 -33 15 c-28 14 -89 16
-415 16 l-382 0 -141 -141 -141 -141 -1436 43 -1435 43 -6 29 c-3 16 -6 147
-6 291 0 143 -3 352 -7 464 -5 180 -8 202 -23 202 -15 0 -17 -25 -23 -247 -4
-137 -7 -309 -7 -384 0 -75 -3 -184 -7 -242 l-6 -107 -112 0 c-160 0 -205 7
-205 34 -1 12 -31 53 -69 94 l-68 73 -1134 34 c-624 19 -1181 35 -1239 36
l-105 3 -77 -74 c-44 -40 -78 -81 -78 -91 0 -18 -10 -19 -232 -13 -128 4 -235
9 -238 11 -2 2 -12 171 -21 376 -10 205 -18 373 -18 375 -1 1 -7 2 -15 2 -17
0 -22 -54 -37 -442 l-13 -308 -50 0 c-28 0 -278 7 -556 15 -413 12 -674 27
-1430 81 -509 37 -926 67 -926 68 -4 3 -283 1091 -280 1093 1 2 86 14 187 27
l184 25 1117 -60 1118 -59 136 100 c74 56 147 105 160 111 14 5 92 9 173 9 81
0 182 3 223 6 l74 7 -32 136 c-19 75 -33 139 -34 143 0 4 40 37 90 73 82 60
94 74 134 148 42 78 45 89 57 208 l12 126 -32 46 c-25 37 -38 47 -59 47 -15 0
-846 30 -1847 67 l-1820 67 -3235 -1 -3235 -1 -1240 -46 c-887 -33 -1566 -65
-2385 -110 l-1145 -65 -1040 -102 c-572 -56 -1042 -103 -1043 -105 -4 -3 38
-447 42 -451 1 -1 447 18 991 42 545 25 1020 45 1057 45 l67 0 152 -176 c83
-96 149 -177 148 -179 -2 -1 -180 -26 -395 -54 l-391 -51 -286 0 -286 0 -421
-386 c-232 -212 -423 -384 -424 -383 -2 2 -36 42 -76 89 -55 64 -88 93 -134
117 l-61 32 -1490 1 -1490 1 -67 84 c-38 46 -68 85 -68 88 0 2 91 7 203 10
l202 7 148 45 c81 24 152 47 157 50 6 3 10 15 10 25 0 13 40 49 118 109 113
85 121 93 177 187 95 160 95 239 -1 400 -52 87 -67 103 -141 157 -67 49 -83
66 -83 87 0 22 -11 31 -87 68 -49 24 -190 111 -316 194 l-227 151 -1783 -6
-1783 -7 -284 -49 c-219 -38 -351 -67 -570 -127 l-284 -78 -221 -143 c-121
-79 -276 -190 -344 -246 -69 -56 -133 -108 -142 -114 -18 -14 -1425 -283
-1476 -283 -51 0 -93 12 -93 26 0 12 -48 14 -270 14 l-270 0 0 120 0 120 50 0
50 0 0 50 0 50 -115 0 -115 0 0 125 0 125 -97 1 c-120 0 -106 8 92 51 77 16
146 31 153 34 9 2 12 61 12 247 l0 244 -128 26 c-71 15 -168 38 -216 52 -53
15 -112 25 -151 25 l-65 0 0 -130z m0 -440 l0 -120 80 0 c64 0 80 -3 80 -15 0
-12 -17 -15 -90 -15 l-90 0 0 135 c0 83 4 135 10 135 6 0 10 -47 10 -120z
m12429 -1117 c-22 -37 -129 -206 -133 -210 -1 -1 -53 -14 -116 -27 l-113 -25
24 23 c13 13 88 80 167 150 103 90 150 126 168 126 l26 0 -23 -37z m17341
-869 l1155 -35 53 -55 c28 -30 52 -59 52 -64 0 -6 -19 -10 -42 -10 -173 1
-2591 79 -2596 84 -3 4 20 33 52 65 l58 59 57 -4 c31 -2 576 -20 1211 -40z
m5640 -169 l0 -125 -42 0 c-129 -1 -895 24 -904 29 -6 3 37 51 96 106 l106
100 225 5 c123 3 290 7 372 8 l147 2 0 -125z"/>
</g>
</svg>
