<?xml version="1.0" standalone="no"?>
<!DOCTYPE svg PUBLIC "-//W3C//DTD SVG 20010904//EN"
 "http://www.w3.org/TR/2001/REC-SVG-20010904/DTD/svg10.dtd">
<svg version="1.0" xmlns="http://www.w3.org/2000/svg"
   viewBox="0 0 4631.000000 1206.000000"
 preserveAspectRatio="xMidYMid meet">
<metadata>
Created by potrace 1.16, written by Peter Selinger 2001-2019
</metadata>
<g transform="translate(0.000000,1206.000000) scale(0.100000,-0.100000)"
fill="#000000" stroke="none">
<path d="M18748 12037 c-15 -14 -33 -50 -47 -94 l-22 -73 -252 0 -252 0 -24
79 c-17 58 -29 82 -47 91 -40 22 -67 -6 -92 -94 l-23 -76 -253 0 -253 0 -22
74 c-21 72 -44 106 -71 106 -27 0 -50 -34 -71 -106 l-22 -74 -478 0 -479 0 0
30 0 30 -3100 0 -3100 0 0 55 0 55 -550 0 -550 0 0 -200 0 -200 -331 0 -331 0
-327 90 -328 90 -956 0 -956 0 -3 -147 -3 -148 -195 -5 -195 -5 -132 -58 -133
-57 -160 0 -160 0 0 45 0 45 -2394 0 -2394 0 -6 -327 c-3 -181 -13 -481 -22
-668 -14 -315 -14 -364 1 -670 10 -181 20 -508 22 -725 5 -381 5 -396 25 -417
11 -12 46 -68 77 -125 l56 -102 170 -37 c105 -24 198 -38 243 -38 l72 -1 0
-30 0 -30 -69 0 -69 0 -7 -83 -7 -84 -151 -32 c-84 -18 -160 -34 -170 -37 -10
-3 -37 -44 -61 -92 -24 -48 -58 -104 -75 -126 l-31 -39 0 -457 c0 -452 0 -457
21 -476 12 -10 40 -57 64 -104 65 -129 56 -123 248 -164 l169 -36 429 0 429 0
0 -110 0 -110 -175 0 -175 0 0 -95 0 -95 -95 0 -95 0 0 -155 0 -155 270 0 270
0 0 -80 0 -80 450 0 450 0 0 -40 0 -40 -120 0 c-100 0 -120 -2 -120 -15 0 -13
-23 -15 -145 -15 l-145 0 0 -43 c0 -40 6 -50 88 -143 49 -54 114 -117 145
-139 l57 -40 0 -97 0 -98 -145 0 -145 0 0 -41 c0 -36 8 -50 81 -134 45 -51
111 -115 147 -141 l65 -48 -7 -251 c-3 -138 -3 -272 0 -298 6 -45 8 -47 38
-47 24 0 52 -17 125 -77 l94 -78 -547 -3 -546 -2 0 -80 c0 -79 0 -80 -27 -87
-16 -3 -93 -21 -173 -38 l-145 -31 -50 -95 c-27 -53 -62 -112 -78 -132 l-27
-36 0 -449 c0 -437 1 -449 20 -467 11 -10 46 -66 77 -124 31 -58 57 -107 59
-109 1 -2 73 -19 159 -38 125 -27 178 -34 266 -34 l109 0 0 -280 0 -280 290 0
290 0 0 -147 c0 -143 1 -150 37 -260 37 -113 37 -113 78 -126 l40 -14 3 -96 3
-95 62 -7 c34 -4 469 -5 967 -2 l905 4 140 55 140 55 3 42 3 41 67 0 c37 0
254 7 482 15 l415 15 282 88 283 87 0 168 0 167 -700 0 -700 0 0 100 0 100
309 0 c262 0 310 2 321 15 11 13 70 15 416 15 388 0 404 1 404 19 0 14 10 20
38 25 20 3 232 6 470 6 377 0 432 2 432 15 0 13 -46 15 -354 15 l-354 0 -22
35 -22 35 -308 0 c-195 0 -311 -4 -315 -10 -3 -5 -34 -10 -69 -10 l-62 0 -23
41 -23 40 23 45 24 44 57 0 c31 0 60 -5 63 -10 4 -6 122 -10 320 -10 l314 0
20 28 20 29 352 6 c193 3 354 9 357 12 3 3 3 8 -1 11 -3 3 -215 8 -471 11
-444 6 -466 7 -466 25 0 17 -18 18 -398 18 -385 0 -400 1 -417 20 -17 19 -33
20 -314 22 l-296 3 717 39 c664 36 718 37 739 22 40 -28 181 -19 785 49 317
36 579 65 583 65 4 0 84 83 179 184 l172 185 0 144 0 145 -141 88 -141 87 239
239 240 240 321 -2 c327 -1 362 3 362 37 0 10 62 13 283 13 319 0 437 7 437
25 0 16 -292 25 -854 25 l-450 0 32 33 32 33 0 162 0 162 188 0 187 0 105 193
105 192 -1 107 -1 107 76 16 c227 50 211 45 211 74 l0 26 -435 -4 c-314 -2
-435 0 -435 8 0 7 39 11 120 11 l120 0 0 173 0 173 252 212 253 212 1337 0
1338 0 171 -130 c152 -115 176 -130 210 -130 l39 0 0 -155 0 -155 451 0 451 0
40 35 c40 33 43 34 102 28 51 -5 75 -14 149 -61 l87 -55 -2 -170 -3 -170 -87
-49 -88 -49 0 -172 0 -172 319 -319 319 -319 180 5 180 4 6 -48 7 -48 103 0
103 0 19 -72 19 -73 208 -3 c180 -2 207 0 207 13 0 27 25 16 73 -33 41 -42 47
-53 47 -90 l0 -42 390 0 c340 0 390 2 390 15 0 13 47 15 363 14 199 0 384 -4
411 -7 l50 -7 37 -90 c34 -82 42 -94 95 -132 l58 -43 598 0 597 0 106 41 105
40 0 65 0 64 -101 0 c-89 0 -133 7 -356 60 -141 33 -257 60 -259 60 -2 0 -4
50 -4 110 l0 110 560 0 560 0 0 100 0 100 61 0 c60 0 61 0 130 -61 l69 -62 0
-138 0 -139 539 0 c465 0 540 -2 545 -15 4 -11 32 -15 133 -17 l128 -3 5 -182
5 -181 32 -46 33 -46 458 0 459 0 31 44 32 44 0 157 c0 145 2 158 22 185 l22
30 172 0 173 0 3 -182 3 -183 34 -47 34 -48 247 0 c136 0 341 -3 457 -7 l211
-6 36 49 36 49 0 160 c1 219 -13 205 214 205 l176 0 0 -174 0 -173 37 -57 37
-56 458 0 457 0 36 46 c33 45 35 51 35 125 l0 79 188 0 188 0 171 130 172 130
442 0 442 0 68 55 c52 42 69 62 69 80 l0 25 630 0 630 0 0 -55 0 -55 66 0 c63
0 68 2 111 40 25 22 50 40 54 40 5 0 9 6 9 13 0 15 191 27 442 27 l138 0 0 25
0 25 -447 1 c-247 1 -695 5 -998 8 l-550 6 82 55 c75 50 82 58 83 88 l0 32
-415 0 -415 0 0 155 0 155 200 0 200 0 0 25 c0 25 0 25 95 25 105 0 145 15
145 54 l0 22 275 -4 274 -4 31 26 32 26 344 0 c337 0 344 0 344 20 0 19 -7 20
-263 20 -145 0 -385 3 -534 7 l-271 6 195 164 194 163 551 0 551 0 172 -130
c156 -119 175 -130 213 -130 l42 0 0 -160 0 -160 444 0 443 0 44 35 c39 31 50
35 106 35 l61 0 359 -235 358 -235 586 0 587 0 203 -150 204 -149 663 -1 662
0 0 -405 0 -405 -288 0 -288 0 -22 -30 c-19 -25 -22 -42 -22 -123 l0 -93 134
-113 133 -113 7 -96 c3 -54 6 -117 6 -140 0 -41 7 -52 103 -163 l102 -119 83
0 83 0 -3 -62 -3 -63 -217 -3 -218 -2 0 -84 0 -83 83 -6 c45 -4 125 -7 177 -7
l96 0 72 -45 72 -45 424 0 423 0 7 -77 c3 -42 6 -149 6 -239 l0 -163 -26 -20
c-24 -19 -40 -21 -185 -21 l-159 0 0 -187 0 -188 125 -110 c90 -79 134 -111
155 -113 24 -3 30 -8 30 -27 0 -15 11 -32 30 -45 22 -15 30 -30 30 -51 l0 -29
679 0 678 0 577 566 576 567 0 316 0 315 90 213 c56 132 90 225 90 247 0 33 8
42 100 118 l99 83 1 113 0 112 -80 0 -79 0 5 68 c8 95 5 92 74 92 56 0 60 2
60 23 0 12 7 166 16 343 l16 320 -55 135 -55 134 -62 8 c-56 8 -61 11 -56 30
2 12 8 61 12 110 l7 87 73 0 74 0 0 80 0 80 270 0 270 0 0 150 0 150 -95 0
-95 0 0 95 0 95 937 0 936 0 174 130 173 130 0 89 0 89 233 6 c127 3 410 8
627 11 l395 5 33 -87 33 -88 536 -327 535 -328 120 0 c114 0 123 -1 172 -29
l51 -29 805 -7 c443 -4 1163 -13 1600 -20 l795 -13 520 -152 520 -152 60 -58
c57 -55 65 -60 160 -85 55 -14 108 -28 118 -31 16 -5 17 9 17 199 l0 205 -81
229 -80 228 -243 415 -242 415 -221 280 c-122 154 -287 352 -367 439 -80 86
-146 161 -146 166 0 5 9 12 20 15 11 4 33 17 49 31 l30 25 -75 129 c-42 71
-73 133 -70 138 2 4 -208 220 -467 479 -439 439 -498 493 -842 784 -223 188
-495 405 -685 548 -302 225 -336 247 -825 539 -466 278 -555 327 -1030 565
-286 143 -788 386 -1115 539 l-595 279 -615 226 c-527 194 -707 254 -1260 424
-587 181 -690 210 -1150 318 -383 91 -678 153 -1220 255 l-715 136 -730 85
c-726 85 -734 86 -1475 130 l-745 44 -2570 16 c-1413 8 -2643 15 -2732 15
l-163 0 0 -30 c0 -21 -5 -30 -16 -30 -9 0 -30 -6 -47 -14 -62 -27 -263 -46
-494 -46 l-223 0 0 25 0 25 -555 0 -555 0 0 -25 0 -25 -130 0 -130 0 0 25 0
25 -550 0 -550 0 0 -25 0 -25 -130 0 -130 0 0 25 0 25 -555 0 -555 0 0 -25 0
-25 -130 0 -130 0 0 25 0 25 -550 0 -550 0 0 -24 c0 -22 -4 -23 -82 -29 -46
-4 -138 -7 -205 -7 l-123 0 -22 76 c-27 90 -52 116 -93 94 -19 -10 -31 -32
-48 -89 l-23 -76 -254 0 -253 0 -24 75 c-15 49 -31 81 -46 92 -22 16 -25 15
-49 -5z m-13638 -9962 l0 -45 -115 0 -115 0 0 45 0 45 115 0 115 0 0 -45z"/>
</g>
</svg>
