<?xml version="1.0" standalone="no"?>
<!DOCTYPE svg PUBLIC "-//W3C//DTD SVG 20010904//EN"
 "http://www.w3.org/TR/2001/REC-SVG-20010904/DTD/svg10.dtd">
<svg version="1.0" xmlns="http://www.w3.org/2000/svg"
   viewBox="0 0 4852.000000 3434.000000"
 preserveAspectRatio="xMidYMid meet">
<metadata>
Created by potrace 1.16, written by Peter Selinger 2001-2019
</metadata>
<g transform="translate(0.000000,3434.000000) scale(0.100000,-0.100000)"
fill="#000000" stroke="none">
<path d="M42555 34208 l-1380 -127 -3350 -546 -3350 -546 -5445 -609 -5445
-610 -620 -152 c-341 -83 -621 -151 -622 -152 -2 -1 -37 -128 -79 -282 l-76
-279 12 -265 11 -265 91 -362 c68 -271 95 -364 107 -367 9 -3 277 -68 597
-145 l580 -140 2580 -131 c1418 -73 2580 -133 2581 -134 4 -3 124 -668 121
-670 -2 -1 -757 -44 -1678 -94 l-1675 -92 -745 -120 c-410 -66 -755 -122 -767
-125 l-23 -5 0 -820 0 -820 23 -5 c12 -3 369 -63 792 -134 l770 -130 2080 -90
2080 -90 1940 -5 1941 -6 1542 -493 c848 -272 1544 -496 1546 -498 2 -2 214
-398 471 -879 l467 -875 68 -685 c38 -377 67 -686 66 -687 -1 -1 -116 -20
-256 -42 -232 -37 -374 -70 -1585 -371 l-1330 -331 -2650 -259 -2650 -260
-13265 -1050 -13265 -1050 -1380 -198 -1380 -197 -3 -152 -3 -152 293 -222
c161 -122 298 -226 304 -230 6 -5 503 -65 1105 -134 l1094 -125 13220 -940
13220 -940 2685 -435 2685 -434 478 -195 c262 -107 481 -197 486 -200 10 -7
-77 -366 -93 -382 -6 -6 -74 -36 -151 -65 l-139 -54 -236 -226 -235 -227 -58
-358 -57 -359 0 -1480 0 -1480 57 -330 57 -330 235 -237 236 -237 1023 -410
1023 -411 417 -1 417 0 75 -48 75 -48 53 -128 c28 -71 51 -129 50 -130 -2 -2
-268 -8 -593 -14 l-590 -12 -565 -176 -565 -176 -342 -211 -342 -211 -3 -110
-3 -110 -620 -81 c-341 -45 -767 -101 -947 -125 l-328 -42 0 -748 0 -747 38
-6 c20 -3 433 -46 917 -96 484 -50 895 -93 913 -96 l32 -5 0 -103 0 -102 338
-210 338 -210 569 -196 570 -197 555 -10 c305 -6 648 -14 763 -17 l207 -6 0
-442 c0 -242 5 -585 11 -761 l11 -320 230 -580 c190 -480 310 -775 324 -793 1
-2 728 11 1616 28 l1613 31 1435 165 c789 91 1438 166 1442 167 5 1 419 337
921 747 l914 745 672 2512 672 2511 -225 3549 c-124 1951 -275 4351 -336 5333
-61 982 -177 2780 -260 3995 -82 1216 -182 2775 -221 3466 l-72 1256 437 1176
438 1177 26 1697 26 1698 -87 785 -87 785 -216 480 -216 480 -281 426 -282
426 -578 262 -579 261 -1007 85 c-553 46 -1020 86 -1036 88 -17 1 -652 -55
-1410 -125z"/>
</g>
</svg>
