<?xml version="1.0" standalone="no"?>
<!DOCTYPE svg PUBLIC "-//W3C//DTD SVG 20010904//EN"
 "http://www.w3.org/TR/2001/REC-SVG-20010904/DTD/svg10.dtd">
<svg version="1.0" xmlns="http://www.w3.org/2000/svg"
   viewBox="0 0 3937.000000 471.000000"
 preserveAspectRatio="xMidYMid meet">
<metadata>
Created by potrace 1.16, written by Peter Selinger 2001-2019
</metadata>
<g transform="translate(0.000000,471.000000) scale(0.100000,-0.100000)"
fill="#000000" stroke="none">
<path d="M25405 4683 c-616 -22 -662 -25 -888 -57 -235 -34 -239 -34 -258 -15
-10 10 -31 19 -46 19 -46 1 -377 -53 -390 -63 -18 -13 -5 -98 17 -118 12 -11
15 -20 9 -30 -23 -37 -13 -39 124 -34 510 21 594 27 705 51 l22 4 0 -170 0
-170 -32 0 c-18 0 -202 -5 -408 -11 l-375 -10 -570 85 -570 86 -770 0 -770 -1
-103 -73 -104 -73 -251 -7 c-139 -3 -398 -8 -577 -11 -179 -3 -375 -8 -436
-11 l-112 -6 -6 -49 -7 -50 -222 6 c-122 3 -1264 10 -2537 16 -1273 6 -2316
12 -2318 14 -10 9 390 221 618 326 l275 127 49 66 c27 37 46 70 42 73 -7 8
-2303 -8 -5466 -37 -1185 -11 -2747 -24 -3470 -28 l-1315 -8 -500 -163 c-318
-104 -558 -189 -659 -232 l-159 -69 -148 6 c-170 8 -245 -5 -334 -59 -48 -28
-104 -84 -116 -116 -5 -14 -30 -16 -196 -12 -157 2 -201 0 -249 -14 -89 -25
-164 -71 -204 -123 -33 -42 -35 -51 -35 -118 0 -54 4 -77 17 -91 10 -11 18
-24 18 -29 0 -18 -307 -151 -785 -339 l-490 -193 -395 -232 -394 -233 -231
-214 -230 -214 -86 -207 -86 -207 68 -199 c38 -110 74 -205 81 -212 7 -6 110
-74 228 -150 l214 -137 366 -64 c353 -61 1264 -181 1662 -220 98 -9 176 -18
175 -19 -1 -1 -156 -8 -344 -15 -189 -7 -343 -15 -343 -19 0 -3 43 -27 96 -53
79 -40 176 -70 582 -183 483 -134 491 -135 1012 -230 l525 -96 530 -33 530
-34 1485 60 c1710 68 3954 144 6799 229 1097 33 1996 62 1998 64 3 3 -76 135
-92 154 -1 1 -134 20 -296 42 -285 39 -303 42 -619 130 -244 68 -405 121 -645
211 l-321 119 -94 0 c-52 0 -794 -20 -1649 -45 -855 -25 -1562 -44 -1571 -43
-8 2 226 18 520 36 387 24 1123 54 2665 108 1172 41 2942 103 3935 139 l1805
65 110 -109 c86 -84 167 -149 369 -291 l259 -183 351 -168 c345 -166 358 -171
761 -308 l410 -138 160 -7 c88 -4 462 -17 830 -31 369 -13 716 -27 773 -30
l102 -6 37 59 37 59 588 5 c324 3 591 8 594 11 3 3 18 56 34 117 16 61 31 114
34 118 4 3 293 -4 644 -16 741 -26 1488 -47 2352 -66 l615 -14 265 146 c146
80 282 156 304 168 l39 22 -82 47 c-44 26 -79 50 -76 55 8 12 215 160 238 170
12 5 123 25 247 45 123 20 225 37 226 38 1 1 22 38 47 81 l45 79 1404 -2 c771
-1 1900 -8 2508 -16 l1105 -15 895 120 c723 97 915 126 1000 150 84 25 123 31
195 30 50 0 502 -29 1005 -63 503 -35 929 -60 945 -56 17 4 119 28 228 54
l198 47 102 85 c56 47 103 86 104 87 1 1 15 65 31 143 l30 143 -62 102 c-45
76 -82 123 -141 179 l-80 76 -426 181 -427 181 -808 206 c-808 205 -810 206
-1409 316 -330 60 -832 155 -1115 210 -511 100 -524 102 -1720 260 -663 87
-1533 200 -1935 249 -401 50 -867 108 -1035 129 l-305 39 -500 7 -500 6 -235
94 c-228 91 -239 94 -370 110 -109 14 -155 24 -238 57 -74 29 -146 48 -258 67
l-155 26 -59 49 c-46 37 -60 54 -60 75 0 19 -16 43 -59 85 l-59 59 -164 -7
c-90 -3 -291 -11 -448 -17 l-285 -10 -170 75 c-154 69 -175 76 -230 75 -33 -1
-352 -12 -710 -26z"/>
</g>
</svg>
