<?xml version="1.0" standalone="no"?>
<!DOCTYPE svg PUBLIC "-//W3C//DTD SVG 20010904//EN"
 "http://www.w3.org/TR/2001/REC-SVG-20010904/DTD/svg10.dtd">
<svg version="1.0" xmlns="http://www.w3.org/2000/svg"
   viewBox="0 0 4329.000000 539.000000"
 preserveAspectRatio="xMidYMid meet">
<metadata>
Created by potrace 1.16, written by Peter Selinger 2001-2019
</metadata>
<g transform="translate(0.000000,539.000000) scale(0.100000,-0.100000)"
fill="#000000" stroke="none">
<path d="M28636 5283 c-17 -279 -36 -411 -78 -527 -45 -126 -46 -129 -147
-254 l-75 -92 -904 0 -904 0 -221 90 -222 90 -988 0 -989 0 -68 -30 -68 -30
-370 0 -369 0 -283 85 -283 85 -1138 0 -1137 0 -141 55 -141 55 -628 0 -628 0
-76 -55 -76 -55 -1287 0 -1287 0 -135 60 -136 60 -285 0 -285 0 -139 80 -140
80 -1761 0 -1761 0 -92 -70 -92 -70 -851 0 -852 0 -67 45 -67 45 -211 0 -211
0 -149 -45 -149 -45 -1277 0 -1278 0 0 -430 0 -430 -132 1 -133 0 -145 185
c-80 101 -151 184 -159 184 -29 0 -4108 -320 -4148 -326 -39 -5 -43 -8 -43
-33 0 -16 -3 -49 -6 -75 l-7 -46 -429 0 c-372 0 -429 -2 -434 -15 -5 -12 -24
-15 -85 -15 -64 0 -79 3 -79 15 0 12 -14 15 -64 15 -57 0 -168 -31 -308 -85
-17 -7 -18 -37 -18 -435 l0 -428 135 -46 c102 -34 151 -46 195 -46 47 0 60 3
60 15 0 22 155 22 164 0 5 -13 62 -15 434 -15 l429 0 7 -46 c3 -26 6 -59 6
-75 0 -26 3 -28 53 -34 28 -3 954 -75 2057 -160 1103 -85 2025 -156 2050 -158
l45 -4 145 183 145 184 133 0 132 0 0 -240 0 -240 2045 0 c1811 0 2045 -2
2045 -15 0 -13 79 -15 650 -15 571 0 650 2 650 15 0 12 17 15 95 15 88 0 95
-1 95 -20 0 -19 5 -20 213 -14 116 3 316 10 442 16 127 6 496 13 820 14 l590
4 140 -189 140 -189 230 -7 c127 -3 903 -5 1725 -2 l1495 4 141 52 142 51
2984 0 2984 0 137 -55 137 -55 645 0 645 0 212 85 213 85 631 0 632 0 119 45
119 45 1248 -2 1249 -3 37 -105 37 -105 129 -5 c127 -5 130 -5 181 -40 39 -26
70 -63 127 -147 l76 -112 62 -3 62 -3 73 -315 c39 -173 72 -325 72 -336 1 -13
-7 -24 -19 -27 -32 -8 127 -281 286 -490 l129 -169 214 -108 214 -108 241 -16
c300 -20 316 -20 316 -1 0 13 79 15 650 15 l650 0 0 210 0 210 145 0 145 0 0
-85 0 -85 383 -4 c210 -3 407 -6 437 -7 46 -1 1372 15 2020 24 107 1 -244 4
-780 6 -536 2 -986 6 -1000 10 -19 6 -6 10 58 21 47 7 86 18 88 25 4 8 39 15
102 20 53 4 105 13 117 21 17 11 130 16 545 24 289 5 551 10 583 10 49 0 57 3
57 19 0 18 -13 19 -212 25 -117 3 -379 9 -582 12 -277 5 -377 9 -400 20 -17 7
-70 16 -118 19 -78 6 -88 9 -88 26 0 17 8 19 68 19 60 0 80 6 196 59 l128 59
71 106 70 107 -17 55 c-10 33 -36 77 -66 113 l-50 60 -2 227 -3 228 -116 29
-116 28 -15 65 -15 64 73 0 c72 0 74 1 168 60 87 55 100 60 151 60 l55 0 0 95
0 95 273 0 c384 0 426 -8 708 -134 l215 -96 524 0 525 0 177 130 176 130 688
0 688 0 163 95 163 95 337 0 338 0 72 113 72 112 288 0 288 0 170 99 170 99
206 22 205 21 190 112 190 112 269 0 269 0 240 66 c133 37 242 68 244 69 1 1
6 45 10 97 l8 96 -166 66 c-165 66 -166 67 -240 141 l-74 75 -525 0 -524 0
-151 46 c-162 49 -236 80 -498 211 l-168 83 -292 0 -293 0 -40 60 -40 60 -246
-7 -245 -6 -46 26 -45 27 -391 0 -391 0 -69 -25 c-60 -22 -86 -25 -193 -25
l-124 0 -96 -153 -96 -152 -289 -3 -288 -2 -123 122 -123 123 -260 17 -259 17
-191 105 -191 106 -952 0 -952 0 -34 -53 -33 -52 -146 3 c-98 2 -149 7 -154
15 -4 7 -24 58 -44 115 l-37 102 -629 0 -629 0 -51 26 -51 26 6 69 6 69 -395
0 -394 0 0 40 0 40 -65 0 -65 0 -116 120 -117 120 -132 0 -132 0 -16 183 c-9
100 -19 217 -23 260 l-6 77 -138 0 -138 0 -6 -62 c-3 -35 -13 -146 -21 -248
-15 -172 -19 -194 -61 -315 -24 -71 -70 -179 -102 -240 l-57 -110 -211 -3
-212 -2 -94 109 -95 108 -41 129 c-42 135 -64 279 -78 522 l-6 112 -138 0
-138 0 -7 -87 c-26 -321 -43 -437 -84 -556 -38 -113 -43 -122 -132 -227 l-92
-110 -181 0 -181 1 -92 107 c-91 105 -93 109 -132 227 -46 138 -71 291 -80
500 l-6 140 -142 3 -141 3 -6 -108z"/>
</g>
</svg>
