<?xml version="1.0" standalone="no"?>
<!DOCTYPE svg PUBLIC "-//W3C//DTD SVG 20010904//EN"
 "http://www.w3.org/TR/2001/REC-SVG-20010904/DTD/svg10.dtd">
<svg version="1.0" xmlns="http://www.w3.org/2000/svg"
   viewBox="0 0 4277.000000 2309.000000"
 preserveAspectRatio="xMidYMid meet">
<metadata>
Created by potrace 1.16, written by Peter Selinger 2001-2019
</metadata>
<g transform="translate(0.000000,2309.000000) scale(0.100000,-0.100000)"
fill="#000000" stroke="none">
<path d="M9960 22931 c-402 -116 -643 -192 -920 -290 l-375 -133 -370 -259
c-203 -142 -391 -280 -416 -306 -26 -26 -171 -187 -323 -357 -243 -272 -374
-404 -1092 -1104 -449 -438 -834 -818 -855 -846 -22 -28 -101 -136 -177 -240
l-137 -189 -305 -148 c-168 -82 -306 -152 -307 -156 -2 -5 13 -111 32 -238 19
-126 32 -231 30 -233 -2 -3 -349 -95 -770 -206 l-767 -201 -327 -385 -327
-385 -1274 -472 c-701 -260 -1276 -472 -1278 -473 -6 0 140 -279 173 -330 20
-30 83 -149 140 -265 57 -115 148 -291 201 -390 111 -206 228 -445 339 -690
42 -93 222 -443 401 -776 179 -334 360 -680 402 -770 91 -194 187 -377 371
-709 75 -135 192 -357 261 -495 70 -137 198 -389 286 -560 89 -170 205 -396
259 -502 l97 -191 97 -6 c53 -3 438 -9 856 -12 418 -4 852 -9 965 -13 l204 -6
23 -190 c18 -154 172 -977 185 -990 2 -2 86 -35 188 -75 102 -39 352 -141 555
-227 l370 -156 350 -347 350 -348 235 -87 c129 -48 239 -91 244 -95 5 -5 50
-244 101 -532 169 -949 580 -3092 990 -5160 223 -1120 405 -2042 405 -2047 0
-6 129 -76 288 -155 l287 -144 286 -23 285 -23 305 22 304 23 292 141 292 142
124 196 124 196 381 2034 c363 1940 388 2080 532 3000 l150 965 205 774 c112
426 206 775 207 777 2 1 78 20 170 41 l167 38 667 620 c367 341 682 634 700
650 l32 30 26 560 c20 433 24 617 19 814 l-6 253 565 -7 565 -8 7 114 c3 63
13 290 21 504 8 215 18 431 21 482 l6 92 261 243 261 243 671 8 670 9 737
-446 c701 -424 770 -463 1403 -797 l666 -350 572 -49 c315 -27 595 -52 624
-55 l52 -6 296 -549 296 -548 77 -24 c42 -14 332 -107 643 -208 l566 -182 43
-154 42 -153 142 -125 c167 -146 115 -128 611 -206 176 -28 412 -66 524 -85
112 -19 223 -35 245 -35 29 0 92 22 209 72 l167 72 87 133 87 133 45 -5 c25
-3 255 -21 511 -40 256 -19 475 -36 488 -38 20 -2 5 -31 -168 -310 -104 -169
-190 -318 -190 -330 0 -12 62 -342 138 -733 l137 -711 578 -600 577 -600 355
-109 354 -109 1008 -847 1008 -846 587 -322 588 -321 296 278 c163 153 301
279 308 280 6 1 259 -85 561 -191 l550 -193 28 51 c15 28 125 233 245 455
l217 405 193 118 c106 65 196 118 200 118 4 0 18 -20 31 -45 13 -24 26 -43 30
-41 3 1 131 70 284 151 l277 148 10 41 c33 127 144 474 306 951 188 557 492
1436 497 1441 2 2 122 19 268 38 248 33 271 38 382 81 l119 45 171 0 171 0 46
-44 45 -44 2730 134 c1502 73 2738 133 2748 134 15 0 17 14 17 160 l0 160 -57
1 c-32 0 -1268 53 -2748 118 l-2690 117 -45 -43 -46 -43 -153 0 -153 0 -141
45 c-81 26 -180 50 -234 57 -61 8 -93 16 -93 24 0 7 13 46 28 86 l28 73 -162
284 c-90 156 -167 288 -172 293 -6 6 -25 2 -48 -10 -84 -42 -75 -49 -144 115
-34 81 -163 378 -287 660 l-224 512 -9 188 c-9 172 -24 332 -36 376 -5 14 -18
17 -95 17 -49 0 -89 2 -89 4 0 2 -140 449 -310 993 l-311 988 22 290 c17 235
20 333 14 515 l-6 225 -191 685 -192 685 -479 789 -479 789 -435 521 -435 521
-464 426 -463 426 -483 310 c-378 243 -574 361 -901 543 l-419 232 -1312 239
-1312 238 -1459 194 -1460 193 -1030 -91 -1030 -92 -995 159 c-547 88 -1273
201 -1612 252 l-618 93 -812 -134 -813 -135 -885 27 c-487 14 -1023 33 -1191
42 -301 16 -320 16 -1135 -10 -456 -15 -858 -28 -893 -30 l-64 -2 -126 225
-126 225 -659 630 -659 630 -302 226 -303 225 -178 37 c-99 21 -181 37 -184
36 -3 -1 -250 -72 -550 -158z"/>
</g>
</svg>
