<?xml version="1.0" standalone="no"?>
<!DOCTYPE svg PUBLIC "-//W3C//DTD SVG 20010904//EN"
 "http://www.w3.org/TR/2001/REC-SVG-20010904/DTD/svg10.dtd">
<svg version="1.0" xmlns="http://www.w3.org/2000/svg"
   viewBox="0 0 4215.000000 1134.000000"
 preserveAspectRatio="xMidYMid meet">
<metadata>
Created by potrace 1.16, written by Peter Selinger 2001-2019
</metadata>
<g transform="translate(0.000000,1134.000000) scale(0.100000,-0.100000)"
fill="#000000" stroke="none">
<path d="M32747 11325 c-27 -7 -56 -20 -66 -29 -15 -14 -62 -16 -362 -16
l-344 -1 30 -25 c17 -14 57 -44 89 -66 33 -22 76 -56 98 -76 38 -34 38 -35 38
-108 l0 -74 -1437 -1 -1438 -1 605 -201 605 -202 231 -142 230 -142 144 -176
145 -176 -4 -205 -4 -204 874 -2 874 -3 9 -79 9 -78 475 7 475 8 -6 -33 c-4
-18 -7 -41 -7 -51 0 -13 -15 -27 -45 -41 -36 -18 -47 -29 -55 -58 -5 -19 -10
-40 -10 -47 0 -17 -25 -28 -91 -43 l-56 -12 -65 -162 c-76 -184 -63 -174 -205
-161 l-73 7 0 33 0 33 -67 6 c-38 4 -80 9 -95 12 l-28 6 0 120 0 121 -187 -6
c-641 -22 -2040 -36 -5853 -58 l-1865 -10 -2400 -80 c-1320 -43 -2426 -79
-2458 -79 l-57 0 0 -49 0 -49 -62 -6 c-35 -4 -87 -9 -115 -13 l-53 -5 0 -64
c0 -35 -2 -64 -4 -64 -2 0 -304 -38 -672 -84 l-669 -85 -522 -165 -522 -165
-1275 -7 -1276 -7 0 -284 0 -283 -1114 0 -1115 0 -1158 246 c-637 135 -1182
250 -1210 256 l-53 11 0 112 0 113 63 10 c34 6 140 23 234 38 l173 27 0 198 0
198 -37 10 c-397 104 -470 119 -955 187 -411 58 -487 71 -484 84 3 8 31 130
63 272 l58 256 180 48 c99 26 183 50 187 53 5 4 -8 55 -28 114 l-36 107 -931
0 -932 0 -213 -47 -214 -48 -50 -45 -50 -45 366 -69 c201 -39 366 -72 366 -75
0 -4 -125 -128 -278 -277 l-277 -271 -145 -17 c-80 -9 -512 -62 -960 -118
l-815 -100 -1800 -433 c-990 -238 -2175 -525 -2632 -636 l-833 -203 0 -97 c0
-87 2 -97 18 -93 9 2 413 78 897 169 484 91 888 168 898 171 16 5 17 -12 17
-270 l0 -275 -37 -7 c-21 -4 -567 -107 -1213 -229 l-1175 -221 -3 -1075 -2
-1075 1202 -228 c662 -126 1209 -231 1215 -234 9 -3 13 -62 15 -230 l3 -226
2152 -528 2152 -527 223 -113 223 -113 3 -146 3 -146 46 -7 c25 -3 61 -6 80
-6 23 0 47 -10 72 -28 53 -42 110 -52 301 -52 180 0 251 10 286 42 20 18 33
18 225 12 189 -6 206 -8 234 -29 53 -38 111 -47 326 -49 200 -1 205 -1 238 23
33 24 35 24 195 17 88 -3 296 -10 461 -16 165 -5 348 -12 408 -15 l107 -5 0
151 0 151 230 111 230 112 0 562 0 562 262 86 c145 48 670 221 1168 386 l906
299 1016 0 1016 0 118 135 117 135 1674 0 1673 0 0 170 0 170 1065 0 1065 0 0
-100 0 -100 645 0 645 0 0 218 0 219 392 6 c215 4 676 7 1025 7 l633 0 0 -230
0 -230 105 0 105 0 0 -290 0 -290 23 0 c12 0 906 -47 1987 -105 l1965 -106
645 -123 644 -123 30 -49 c16 -27 49 -80 74 -118 l44 -69 1351 6 c744 4 1406
10 1473 13 l121 7 -5 103 -5 104 164 0 c222 1 1680 28 1684 32 1 2 -1 57 -5
123 -5 66 -9 138 -9 161 l-1 41 263 6 c1032 26 1259 29 1266 21 5 -5 14 -333
20 -729 6 -396 14 -753 17 -792 l6 -73 69 0 69 0 0 -174 c0 -95 3 -187 6 -203
6 -30 5 -31 -43 -37 -26 -4 -58 -10 -69 -12 l-21 -6 5 -946 c2 -521 6 -949 9
-952 2 -2 8 1 12 9 10 15 251 78 337 87 l60 6 51 -63 c28 -35 54 -79 58 -97 3
-17 10 -32 15 -32 4 0 311 106 682 235 l673 234 384 211 c363 199 401 224 701
436 312 221 324 231 663 542 313 288 373 348 646 652 l300 335 327 485 327
485 235 505 234 505 123 395 c114 366 129 424 204 788 44 217 81 401 81 410 0
11 -48 48 -122 97 l-123 80 -12 60 c-20 97 -22 93 87 180 55 44 100 83 100 88
0 4 -49 105 -109 225 -152 305 -355 629 -790 1267 -147 216 -428 535 -741 841
-205 201 -255 243 -563 478 -309 236 -365 273 -665 454 -303 182 -353 208
-687 360 -325 147 -396 176 -729 288 -424 142 -929 280 -1461 399 -438 99
-1023 183 -1455 211 l-275 17 -44 36 -44 36 -210 3 c-242 4 -282 0 -332 -34
l-36 -24 -320 0 -319 0 -42 28 -41 27 -211 2 c-153 1 -224 -2 -259 -12z
m-17517 -5165 c0 -76 1 -80 23 -80 12 0 240 -5 507 -10 1235 -26 7644 -146
12643 -237 202 -3 370 -9 372 -13 2 -4 9 -40 16 -80 8 -53 8 -74 0 -79 -6 -4
-288 -47 -626 -96 l-614 -89 -1503 55 -1503 55 -116 62 c-110 59 -119 62 -185
62 l-70 0 -64 -65 -64 -65 -228 0 -228 0 0 -85 0 -85 -795 0 -795 0 0 75 0 75
-645 0 -645 0 0 -65 0 -65 -1065 0 -1065 0 0 115 0 115 -1672 0 -1671 0 -113
85 -114 85 -1015 0 -1015 0 0 23 c0 12 5 104 12 205 l12 182 1113 0 1113 0 0
-80z"/>
</g>
</svg>
