<?xml version="1.0" standalone="no"?>
<!DOCTYPE svg PUBLIC "-//W3C//DTD SVG 20010904//EN"
 "http://www.w3.org/TR/2001/REC-SVG-20010904/DTD/svg10.dtd">
<svg version="1.0" xmlns="http://www.w3.org/2000/svg"
   viewBox="0 0 4351.000000 863.000000"
 preserveAspectRatio="xMidYMid meet">
<metadata>
Created by potrace 1.16, written by Peter Selinger 2001-2019
</metadata>
<g transform="translate(0.000000,863.000000) scale(0.100000,-0.100000)"
fill="#000000" stroke="none">
<path d="M0 8310 c0 -176 1 -320 3 -321 1 -1 242 -20 535 -43 l534 -41 79
-150 c43 -82 83 -153 87 -157 4 -4 395 -26 867 -48 473 -22 878 -41 900 -42
32 -3 13 -10 -100 -39 l-140 -36 -15 -80 c-11 -60 -14 -125 -10 -253 l5 -173
1324 -299 1324 -299 901 -407 901 -408 483 -284 484 -284 312 -321 313 -320
146 -223 c156 -239 150 -224 222 -489 l39 -142 56 -7 c30 -4 1111 -4 2401 0
l2346 8 12 -33 c6 -18 83 -162 171 -319 l160 -285 228 -239 227 -239 330 -212
c287 -184 379 -237 701 -402 l372 -191 198 -16 199 -16 765 -261 765 -261
1230 -259 1230 -260 1887 -229 1887 -230 198 120 c209 127 223 132 306 109
l37 -10 0 -109 0 -110 470 0 470 0 0 99 0 100 33 -5 c60 -9 1850 -184 1853
-182 1 2 57 97 123 213 l121 210 -32 7 c-18 4 -393 86 -833 183 l-799 176
-593 312 -593 312 -403 364 c-221 200 -410 376 -420 392 l-19 29 59 -5 c32 -3
551 -35 1153 -70 885 -52 1337 -73 2360 -110 1185 -43 1274 -47 1405 -70 176
-31 1340 -165 1434 -165 l70 0 8 82 c4 46 8 89 8 97 0 10 -173 54 -655 166
l-655 152 -350 131 c-290 108 -399 155 -633 270 -155 77 -297 151 -315 165
l-32 25 40 -4 c22 -3 359 -34 749 -69 l709 -64 56 59 56 59 1994 26 c1097 14
1996 23 1998 21 12 -11 -64 -117 -210 -293 -141 -172 -180 -212 -357 -365
l-198 -173 -277 -133 -276 -134 -427 -89 c-235 -49 -437 -91 -449 -94 -22 -5
-23 -11 -23 -85 0 -69 2 -80 18 -80 9 0 318 20 686 46 l668 45 23 -21 23 -21
118 31 c116 30 141 32 1049 95 l930 64 935 141 935 141 615 155 c338 85 631
159 651 165 l36 9 -1 56 -1 55 555 180 555 179 345 161 345 160 162 132 c135
111 174 149 243 239 78 101 84 114 120 230 l38 123 80 3 80 3 27 -89 27 -88
181 -18 c138 -14 298 -20 662 -23 l480 -5 390 51 c470 62 474 63 650 107 172
43 290 87 331 123 l31 28 -78 148 -77 148 -210 196 -209 196 -394 217 -394
217 -505 165 c-408 134 -610 194 -1050 310 l-546 145 -1399 260 c-1185 220
-1511 277 -2125 370 -399 61 -1121 174 -1605 251 l-880 141 -1735 189 c-1732
189 -1739 190 -4085 394 l-2350 206 -5905 295 c-3248 162 -5944 297 -5991 301
l-87 6 -178 -236 -178 -236 -127 0 c-69 0 -141 3 -158 6 -28 6 -31 10 -31 45
l0 39 -220 0 c-189 0 -220 2 -220 15 0 8 -4 15 -10 15 -30 0 -4514 452 -4560
460 -30 5 -239 30 -465 56 -331 38 -414 50 -430 64 -17 15 -81 23 -378 50
l-359 31 -71 44 -72 43 -339 32 c-186 17 -344 29 -351 26 -7 -2 -33 -40 -58
-83 -26 -43 -51 -84 -55 -91 -7 -10 -143 -1 -678 43 -658 54 -705 57 -2759
145 -1149 50 -2111 90 -2137 90 l-48 0 0 -320z"/>
</g>
</svg>
