<?xml version="1.0" standalone="no"?>
<!DOCTYPE svg PUBLIC "-//W3C//DTD SVG 20010904//EN"
 "http://www.w3.org/TR/2001/REC-SVG-20010904/DTD/svg10.dtd">
<svg version="1.0" xmlns="http://www.w3.org/2000/svg"
   viewBox="0 0 4083.000000 2592.000000"
 preserveAspectRatio="xMidYMid meet">
<metadata>
Created by potrace 1.16, written by Peter Selinger 2001-2019
</metadata>
<g transform="translate(0.000000,2592.000000) scale(0.100000,-0.100000)"
fill="#000000" stroke="none">
<path d="M5755 25813 c-10 -161 -9 -171 18 -263 36 -127 297 -987 389 -1285
44 -143 115 -381 158 -530 43 -148 151 -485 240 -749 88 -263 159 -480 158
-481 -3 -2 -289 10 -435 18 l-71 4 -79 -108 c-43 -60 -85 -109 -93 -108 -8 0
-248 17 -532 37 l-518 38 -1080 -241 -1079 -240 -39 -37 -38 -38 -1377 0
-1377 0 0 -90 0 -90 1290 -2 1290 -3 -1287 -170 -1288 -170 0 -1040 0 -1039
1187 -155 1188 -156 -1190 -3 -1190 -2 0 -90 0 -90 1382 0 1381 0 33 -25 33
-25 3400 0 3401 0 0 165 0 165 270 0 270 0 2 -55 c1 -30 2 -66 2 -79 1 -20
-53 -74 -269 -269 l-270 -244 -3 93 -3 94 -3401 0 -3401 0 -33 -25 -33 -25
-1380 0 -1381 0 0 -90 0 -90 1208 -2 1207 -3 -1175 -154 c-646 -84 -1190 -156
-1207 -159 l-33 -5 0 -1037 0 -1037 33 -5 c17 -3 590 -79 1272 -169 l1240
-164 -1272 -3 -1273 -2 0 -90 0 -90 1377 0 1377 0 41 -38 40 -39 1077 -239
1078 -238 502 32 c277 18 517 33 534 32 29 0 40 -11 105 -100 l74 -99 71 -1
c123 0 719 31 725 38 3 4 40 60 82 124 l75 116 54 6 c44 5 2388 166 2411 166
4 0 7 243 7 540 0 297 2 540 5 540 3 0 132 -115 286 -255 l279 -255 110 0 c61
0 110 -2 110 -5 0 -3 22 -202 49 -443 27 -240 55 -502 61 -582 6 -80 13 -146
15 -148 1 -2 434 -239 961 -528 l959 -525 135 141 135 141 1200 -725 1200
-725 280 -284 280 -283 2987 -1522 c1643 -837 2990 -1522 2995 -1522 4 1 35
44 67 96 33 53 66 105 75 116 16 19 98 -38 2691 -1866 l2675 -1885 66 -218 66
-218 109 -77 c60 -42 152 -106 204 -142 l95 -65 1306 -105 c718 -59 1311 -106
1317 -106 8 0 12 -43 14 -141 l3 -141 140 -57 c77 -31 146 -60 153 -64 8 -6
12 -43 12 -126 0 -117 0 -118 -50 -244 l-49 -126 407 -703 407 -703 310 -253
c171 -139 364 -297 430 -350 l120 -98 336 41 337 41 658 -267 659 -267 5 -34
c4 -30 45 -71 318 -321 l312 -287 475 0 474 0 28 -75 28 -75 775 3 774 2 27
70 27 70 771 3 770 2 219 286 219 285 6 202 c4 111 7 308 7 438 l0 236 128 6
c70 4 259 10 420 13 l292 7 0 51 c0 28 3 88 7 134 l6 82 133 0 134 0 0 724 c0
805 6 736 -69 736 l-36 0 -58 173 -57 173 0 435 0 435 -110 206 -110 206 0
1600 0 1600 209 148 209 147 7 318 7 318 125 218 125 218 -26 279 c-14 154
-29 283 -33 287 -5 5 -87 44 -183 88 l-175 79 -3 121 -3 121 -37 0 -38 0 -18
68 c-9 37 -24 91 -33 121 l-15 53 -104 -4 -104 -4 0 71 c0 38 23 765 50 1615
l49 1545 78 70 c43 39 97 88 121 110 l42 40 -19 815 c-11 448 -22 955 -26
1125 -4 238 -12 366 -32 553 -15 133 -29 246 -33 251 -3 5 -63 0 -135 -10 -71
-11 -135 -17 -141 -15 -6 2 -14 32 -17 66 -4 34 -16 122 -28 194 l-21 131
-149 44 c-83 25 -153 49 -157 55 -4 6 -23 79 -43 163 l-36 152 131 32 c72 17
132 32 134 34 2 2 -282 778 -312 849 -9 22 -132 240 -273 485 l-257 446 -379
455 c-209 250 -390 466 -403 479 l-22 24 -38 -31 -37 -31 -236 228 -236 228
-282 162 c-156 88 -286 161 -290 161 -5 0 -24 -18 -43 -40 l-35 -41 -44 32
c-24 18 -240 156 -480 307 l-436 275 -260 112 -260 112 -3 239 -3 239 -312
194 -312 195 -820 171 -820 171 -5 250 -5 249 -88 155 c-49 85 -90 156 -91
158 -4 3 -1744 272 -1764 272 -12 0 -43 -48 -99 -152 -81 -153 -81 -153 -99
-278 -9 -69 -20 -131 -24 -139 -9 -17 -410 -140 -458 -141 -18 0 -420 45 -894
100 -474 55 -862 99 -863 97 -1 -1 -7 -38 -13 -81 -7 -44 -14 -81 -16 -83 -4
-4 -6706 744 -6712 750 -2 2 -14 75 -26 162 -13 86 -27 159 -33 161 -16 6
-1074 109 -3420 334 -1210 116 -2209 213 -2220 215 -16 3 -28 26 -53 102 l-32
99 -262 28 c-145 15 -275 30 -289 33 -25 5 -31 -3 -105 -141 -44 -82 -85 -146
-93 -146 -8 0 -528 52 -1156 115 -628 63 -1144 115 -1147 115 -4 0 -20 22 -36
48 l-29 48 -294 28 c-162 16 -510 50 -774 76 l-480 48 -15 -21 c-8 -12 -22
-30 -31 -41 -17 -20 -17 -20 -995 78 -539 53 -995 100 -1015 103 l-35 5 -18
-81 -17 -82 -47 6 c-53 6 -37 5 -2131 150 -832 58 -1530 105 -1551 105 l-38 0
-7 -107z m4043 -4565 l2 -197 48 -4 c26 -2 -13 -4 -85 -5 l-133 -2 0 205 0
206 83 -3 82 -3 3 -197z m23380 -17233 c508 -40 925 -75 928 -77 7 -7 96
-2159 89 -2166 -4 -4 -848 308 -857 316 -4 4 -29 134 -56 290 l-49 282 -228
223 c-227 221 -972 1033 -959 1046 3 3 24 13 47 22 l42 17 3 66 3 67 57 -6
c31 -3 473 -39 980 -80z"/>
</g>
</svg>
