<?xml version="1.0" standalone="no"?>
<!DOCTYPE svg PUBLIC "-//W3C//DTD SVG 20010904//EN"
 "http://www.w3.org/TR/2001/REC-SVG-20010904/DTD/svg10.dtd">
<svg version="1.0" xmlns="http://www.w3.org/2000/svg"
   viewBox="0 0 4231.000000 572.000000"
 preserveAspectRatio="xMidYMid meet">
<metadata>
Created by potrace 1.16, written by Peter Selinger 2001-2019
</metadata>
<g transform="translate(0.000000,572.000000) scale(0.100000,-0.100000)"
fill="#000000" stroke="none">
<path d="M8568 5556 c-5 -93 -8 -264 -8 -380 0 -116 -3 -241 -7 -278 l-6 -68
-99 0 c-55 0 -166 -5 -247 -11 -140 -10 -164 -15 -587 -130 -380 -103 -487
-128 -775 -179 -184 -33 -1133 -218 -2109 -410 l-1776 -350 -606 0 -606 0 -5
23 c-3 12 -47 216 -97 452 -51 237 -94 432 -96 434 -2 2 -6 2 -9 0 -3 -4 135
-824 150 -886 5 -23 4 -23 -92 -23 l-98 0 -94 443 c-89 415 -110 502 -111 452
0 -10 34 -214 75 -452 41 -237 75 -435 75 -438 0 -3 -325 -5 -722 -5 -637 0
-720 -2 -702 -15 16 -12 73 -14 339 -15 307 0 324 -1 423 -25 98 -24 118 -25
398 -25 255 0 294 -2 294 -15 0 -8 1 -15 3 -15 1 0 54 -9 117 -20 87 -15 161
-20 303 -20 103 0 187 -4 187 -9 0 -11 -36 -21 -78 -21 -44 0 -151 -59 -149
-82 1 -12 21 -25 63 -40 59 -21 61 -23 42 -37 l-21 -14 23 -12 23 -12 -23 -16
c-21 -14 -21 -17 -7 -23 29 -11 19 -21 -41 -42 -79 -29 -78 -48 1 -90 41 -21
79 -33 112 -34 41 -3 50 -7 54 -23 2 -11 7 -22 12 -25 4 -3 -5 -28 -21 -56
l-30 -51 -242 -64 c-216 -56 -247 -67 -278 -96 -26 -24 -30 -31 -15 -28 11 3
297 52 635 110 l616 105 664 0 665 0 755 -171 755 -172 55 -41 c30 -22 109
-69 175 -103 l120 -62 -237 -1 -237 0 -3 -27 c-2 -23 -9 -29 -38 -34 -40 -7
-112 -47 -105 -59 3 -4 34 -13 70 -20 l64 -12 -71 -56 -72 -56 29 -12 28 -11
-29 -7 -29 -8 35 -30 c19 -17 52 -43 72 -58 l38 -28 -63 -12 c-35 -6 -68 -15
-75 -19 -12 -7 77 -57 121 -66 22 -4 27 -11 27 -35 l0 -30 480 0 480 0 0 30 0
30 60 0 60 0 0 -66 0 -66 275 4 275 3 0 -57 0 -58 -495 0 c-323 0 -495 -3
-495 -10 0 -6 41 -10 103 -10 57 0 145 -3 195 -6 l92 -7 0 -82 0 -82 98 -13
c53 -7 195 -14 315 -17 l217 -5 0 -33 0 -33 -1117 -6 c-2928 -15 -3314 -18
-3308 -24 3 -3 690 -9 1526 -13 836 -4 1522 -9 1524 -11 2 -2 15 -73 29 -158
14 -85 28 -170 31 -187 l6 -33 -1128 -2 -1128 -3 1124 -2 c852 -2 1127 -6
1132 -15 4 -6 10 -37 14 -68 l7 -57 121 -7 c67 -3 164 -9 215 -13 l92 -6 11
32 11 31 151 2 152 2 -147 3 c-82 2 -148 7 -148 11 0 5 36 111 79 238 l79 229
336 3 c222 1 336 -1 336 -8 0 -6 76 -10 215 -10 137 0 215 4 215 10 0 7 201
10 583 10 l582 0 125 33 c118 32 125 35 128 60 l3 27 305 0 c287 0 304 -1 295
-17 -6 -10 -50 -79 -99 -153 l-89 -135 74 -3 73 -3 -48 -72 c-27 -40 -52 -78
-56 -84 -6 -10 282 -13 1423 -13 l1431 0 0 88 0 87 85 115 c70 96 84 121 85
153 l0 37 1505 0 1505 0 0 -38 c0 -32 -14 -57 -85 -155 -73 -100 -85 -122 -85
-157 l0 -40 -45 0 c-41 0 -45 -2 -45 -25 0 -25 1 -25 80 -25 73 0 80 -2 80
-20 0 -20 7 -20 780 -20 l780 0 0 275 0 275 128 0 127 0 75 50 75 50 502 0
502 0 197 -45 c109 -25 202 -44 208 -42 5 2 -67 20 -160 41 -93 22 -170 40
-172 42 -2 1 96 3 217 3 l221 1 120 -60 120 -60 447 0 c437 0 448 0 461 -20
11 -19 23 -20 175 -20 l162 0 682 -130 682 -130 936 0 936 0 209 -50 209 -50
534 0 534 0 25 -58 c14 -31 63 -139 108 -239 l82 -183 254 0 c196 0 254 3 254
13 0 6 11 109 25 227 14 118 25 221 25 228 0 9 114 12 535 12 528 0 535 0 535
-20 0 -18 7 -20 83 -20 l84 0 86 -65 c77 -58 91 -65 132 -65 25 0 45 -4 45
-10 0 -6 80 -10 220 -10 140 0 220 4 220 10 0 7 145 10 415 10 270 0 415 -3
415 -10 0 -6 82 -10 225 -10 143 0 225 4 225 10 0 18 98 10 361 -30 l262 -40
2046 0 2047 0 122 30 123 30 480 0 480 0 777 -101 c427 -55 812 -102 854 -104
133 -6 672 -76 687 -90 7 -7 93 -158 190 -336 160 -290 201 -356 201 -319 0 6
-74 155 -165 331 -91 176 -165 321 -165 323 0 2 689 -84 788 -99 23 -3 42 -2
42 2 0 5 -183 33 -407 62 -225 29 -415 54 -423 57 -12 3 -96 155 -148 267 -2
4 455 7 1015 7 l1019 0 58 -130 59 -130 221 0 221 1 79 105 c44 58 83 107 87
110 4 2 115 -12 246 -31 131 -20 244 -34 252 -33 8 2 -75 19 -185 38 l-199 35
620 5 621 5 28 22 29 23 468 0 469 0 0 105 0 105 -175 0 c-149 0 -175 2 -175
15 0 12 -18 15 -105 15 l-105 0 0 29 c0 24 3 28 20 24 17 -4 20 0 20 24 0 17
-9 38 -20 48 -11 10 -20 26 -20 37 0 17 14 18 238 19 293 1 389 11 197 22 -71
4 -199 7 -282 7 l-153 0 0 120 0 120 188 0 c216 0 372 9 372 21 0 5 -17 9 -37
9 l-38 1 25 14 c22 12 -189 14 -1620 15 l-1646 0 -64 66 -65 65 -690 -6 c-616
-6 -699 -9 -770 -25 -44 -10 -82 -16 -85 -14 -2 3 -8 112 -11 242 -4 130 -8
248 -10 262 -5 55 -16 -135 -18 -302 0 -97 -5 -187 -10 -200 l-9 -23 -183 12
c-101 6 -201 12 -221 12 -30 1 -38 5 -38 20 0 28 -131 38 -190 15 -35 -14 -62
-16 -157 -10 -97 5 -121 10 -157 31 -34 20 -57 25 -108 25 -50 0 -228 40 -782
176 l-718 175 -882 300 -881 300 -748 129 -747 130 -285 6 -285 7 0 52 0 52
-152 6 c-271 12 -272 12 -452 -43 l-163 -50 -281 0 c-154 0 -283 4 -286 8 -3
5 -8 150 -11 323 -3 173 -9 370 -13 439 l-7 125 -6 -115 c-3 -63 -7 -205 -8
-315 0 -110 -4 -257 -8 -326 l-6 -126 -1186 5 c-652 2 -1187 6 -1189 7 -2 2
-8 115 -13 252 -5 136 -11 257 -12 268 -4 26 -15 -148 -23 -357 l-6 -168
-1107 0 -1108 0 -6 263 c-4 144 -7 337 -7 429 0 92 -4 169 -8 172 -10 6 -22
-331 -22 -594 0 -91 -3 -189 -6 -217 l-7 -53 -1072 0 -1072 0 -6 203 c-4 111
-7 281 -8 377 -1 96 -4 202 -8 235 -5 50 -8 32 -14 -100 -4 -88 -7 -234 -7
-325 0 -91 -3 -216 -7 -277 l-6 -113 -3311 0 -3311 0 -233 130 -232 130 -125
0 -125 0 0 65 0 65 844 0 844 0 48 44 c50 44 72 52 177 63 65 6 74 26 14 31
-65 6 -40 22 33 22 63 0 70 2 70 20 0 18 -7 20 -67 20 -57 0 -91 8 -210 51
-93 34 -144 57 -148 68 -6 21 -174 84 -265 100 -36 6 -271 31 -523 56 l-458
45 -554 0 -554 0 -553 234 -554 235 -1109 17 -1110 17 -296 129 -296 128 -80
0 -80 0 -6 158 c-4 86 -7 203 -7 260 0 56 -4 102 -8 102 -9 0 -22 -244 -22
-417 l0 -103 -788 0 -789 0 -6 152 c-4 83 -7 202 -7 265 0 69 -4 113 -10 113
-6 0 -10 -54 -10 -143 0 -79 -3 -199 -7 -265 l-6 -122 -77 0 -77 0 -7 92 c-3
50 -7 202 -7 337 -1 135 -4 296 -8 356 l-6 110 -7 -169z m-189 -4060 c-2 -2
-39 -18 -82 -35 l-78 -31 -329 0 -330 0 0 35 0 35 412 0 c226 0 409 -2 407 -4z
m3666 -294 c6 -4 19 -17 29 -29 l19 -23 -356 0 c-197 0 -357 4 -357 8 0 5 9
18 20 30 21 22 25 22 328 22 169 0 312 -4 317 -8z m25158 -368 c38 -69 66
-128 63 -131 -7 -8 -639 77 -646 86 -3 4 -284 44 -625 88 l-620 81 880 1 880
0 68 -125z"/>
<path d="M18568 1653 c7 -3 16 -2 19 1 4 3 -2 6 -13 5 -11 0 -14 -3 -6 -6z"/>
<path d="M18768 1573 c7 -3 16 -2 19 1 4 3 -2 6 -13 5 -11 0 -14 -3 -6 -6z"/>
<path d="M40488 843 c6 -2 18 -2 25 0 6 3 1 5 -13 5 -14 0 -19 -2 -12 -5z"/>
<path d="M40558 833 c7 -3 16 -2 19 1 4 3 -2 6 -13 5 -11 0 -14 -3 -6 -6z"/>
<path d="M38228 553 c7 -3 16 -2 19 1 4 3 -2 6 -13 5 -11 0 -14 -3 -6 -6z"/>
<path d="M38308 543 c7 -3 16 -2 19 1 4 3 -2 6 -13 5 -11 0 -14 -3 -6 -6z"/>
</g>
</svg>
