<?xml version="1.0" standalone="no"?>
<!DOCTYPE svg PUBLIC "-//W3C//DTD SVG 20010904//EN"
 "http://www.w3.org/TR/2001/REC-SVG-20010904/DTD/svg10.dtd">
<svg version="1.0" xmlns="http://www.w3.org/2000/svg"
   viewBox="0 0 3911.000000 2077.000000"
 preserveAspectRatio="xMidYMid meet">
<metadata>
Created by potrace 1.16, written by Peter Selinger 2001-2019
</metadata>
<g transform="translate(0.000000,2077.000000) scale(0.100000,-0.100000)"
fill="#000000" stroke="none">
<path d="M26862 20624 c-337 -78 -619 -144 -626 -147 -7 -3 -59 -116 -116
-251 l-103 -246 -73 0 -74 0 0 88 -1 87 -64 50 c-52 40 -71 49 -98 47 -98 -10
-1598 -173 -1629 -178 l-38 -6 0 -226 c0 -125 5 -316 10 -424 8 -156 6 -335
-10 -845 -11 -357 -17 -687 -14 -735 7 -84 8 -87 33 -92 54 -11 1654 -246
1675 -246 17 0 33 21 76 100 l55 99 68 1 69 0 101 -209 c75 -156 107 -211 122
-215 11 -2 300 -51 643 -108 l622 -103 0 -212 0 -213 -40 -26 -40 -27 0 -249
0 -250 91 -104 90 -104 -3 -197 -3 -198 -46 -65 -46 -65 -8 -270 -7 -269 -235
-338 -236 -338 -1085 0 -1086 0 -65 70 c-56 59 -71 70 -99 70 l-32 0 0 104 0
103 -182 35 c-101 20 -346 66 -545 104 -356 68 -362 69 -365 93 -3 25 -9 26
-243 68 -132 23 -249 43 -261 43 -18 0 -25 -16 -53 -118 l-32 -118 -207 37
c-114 21 -222 41 -239 44 -29 5 -33 10 -33 35 l0 30 -102 0 -103 0 -40 66 -40
67 -171 -7 -170 -6 -34 35 c-28 29 -41 35 -76 35 -34 0 -66 14 -170 75 -71 42
-145 80 -164 85 -19 5 -377 93 -795 195 -418 102 -767 188 -776 191 -9 2 -30
-7 -47 -21 -30 -25 -32 -25 -215 -25 -183 0 -185 0 -191 23 -3 12 -6 34 -6 50
l0 27 -254 0 -253 0 -98 275 -99 274 -120 3 -120 3 -16 65 -16 65 -1408 0
-1408 0 -125 -321 -125 -321 -1506 -6 c-829 -4 -1753 -7 -2053 -7 l-547 0 -24
78 -24 77 -602 3 -602 2 0 -116 0 -116 -72 6 c-40 3 -380 7 -755 8 l-682 3
-93 -137 -93 -137 -672 -1 -673 0 -145 -72 -145 -73 -2 -439 -3 -440 -155 -68
c-85 -38 -429 -186 -765 -330 l-610 -261 -125 -123 -125 -124 -2433 0 -2432 0
0 -144 c0 -86 4 -147 10 -151 7 -4 10 -577 10 -1687 l0 -1680 2043 3 2042 3
623 -144 624 -143 94 94 93 93 153 -33 153 -33 78 81 78 82 267 -46 c228 -38
316 -48 597 -66 182 -12 332 -23 333 -24 2 -2 37 -153 78 -337 40 -183 93
-409 117 -503 l43 -170 130 -3 130 -3 39 -39 39 -40 511 0 510 0 26 43 27 44
92 6 c50 4 249 10 441 14 l349 6 90 49 90 49 0 359 0 360 68 -1 c37 0 220 -8
407 -17 l340 -17 210 47 c115 27 220 48 233 48 13 0 66 -10 118 -22 l94 -21
1292 208 c711 115 1297 211 1301 215 4 4 18 65 31 135 27 145 18 133 149 208
l84 47 3704 35 c2037 19 3745 35 3794 35 l90 0 -3 -668 -3 -667 87 -43 87 -43
22 21 23 22 606 -212 c334 -117 614 -214 624 -217 16 -4 25 16 62 135 l43 140
81 -5 c45 -2 86 -6 91 -8 6 -1 28 -37 50 -79 l40 -76 48 0 47 0 0 -75 0 -75
288 0 289 0 43 60 c46 64 39 61 176 74 l52 5 6 -52 c3 -29 24 -268 47 -532
l41 -480 176 -204 c98 -112 195 -225 217 -252 l40 -48 295 -1 295 -1 240 -357
240 -358 -4 -427 -3 -427 -149 0 -149 0 0 -60 0 -60 -2952 -2 -2952 -3 -338
-545 c-186 -300 -336 -549 -335 -555 2 -5 1234 -945 2738 -2087 l2734 -2078
673 0 672 0 0 2015 0 2015 25 0 c25 0 25 -1 25 -80 l0 -80 690 0 690 0 0 80
c0 79 0 80 25 80 l25 0 0 -2015 0 -2015 673 0 674 0 2736 2078 c1788 1357
2736 2082 2734 2093 -1 8 -153 259 -337 557 l-335 541 -2957 1 -2958 0 0 60 0
60 -155 0 c-85 0 -156 1 -156 3 -1 1 -9 342 -18 757 -13 599 -16 1051 -13
2187 l4 1433 44 0 44 0 0 875 0 875 -45 0 -45 0 0 110 0 110 -79 0 -78 0 201
510 201 510 1668 0 1668 0 -28 -47 c-17 -30 -23 -48 -16 -50 17 -6 4 -33 -16
-33 -20 0 -57 -56 -40 -62 17 -6 -1 -38 -22 -38 -10 0 -19 -4 -19 -8 0 -11
-183 -42 -245 -42 l-45 0 0 -195 0 -194 53 6 c28 3 56 9 62 14 22 21 195 -4
195 -28 0 -10 30 -13 130 -13 123 0 130 1 130 20 0 20 7 20 288 20 l289 0 22
-24 c22 -23 24 -23 72 -11 81 22 79 15 79 210 0 196 1 192 -84 215 -48 13 -49
13 -70 -13 l-22 -27 -287 0 c-196 0 -287 3 -287 11 0 6 5 20 11 32 9 16 9 22
1 25 -16 5 4 42 23 42 20 0 54 52 38 57 -18 6 -3 33 17 33 12 0 29 18 47 50
l28 50 210 0 c116 0 396 -3 622 -7 389 -6 413 -7 419 -25 5 -17 21 -18 254
-18 240 0 249 1 255 20 6 19 15 20 336 20 181 0 329 -3 329 -6 0 -4 -10 -23
-22 -42 -14 -23 -18 -37 -11 -39 17 -6 4 -33 -16 -33 -9 0 -25 -14 -34 -30
-16 -26 -16 -30 -2 -30 13 0 13 -3 3 -20 -7 -11 -21 -20 -30 -20 -10 0 -18 -4
-18 -8 0 -11 -183 -42 -245 -42 l-45 0 0 -195 0 -194 53 6 c28 3 56 9 62 14
22 21 182 -2 198 -28 6 -10 41 -13 132 -13 118 0 125 1 125 20 0 20 7 20 288
20 l289 0 22 -24 c22 -23 24 -23 72 -11 81 22 79 15 79 210 0 196 1 193 -85
214 -48 12 -50 12 -70 -13 l-21 -26 -287 0 c-196 0 -287 3 -287 11 0 6 5 20
11 32 9 16 9 22 1 25 -16 5 4 42 23 42 20 0 54 52 38 57 -18 6 -4 33 17 33 11
0 29 18 44 45 l27 45 303 0 c295 0 304 -1 309 -20 5 -19 14 -20 230 -20 217 0
226 1 232 20 6 19 15 20 185 20 l180 0 85 40 c69 31 87 36 92 25 3 -8 10 -15
15 -15 5 0 85 52 176 116 92 64 172 118 177 120 6 3 28 -14 50 -36 l39 -40
493 0 c430 0 494 -2 499 -15 5 -12 27 -15 109 -15 89 0 104 2 120 20 14 16 31
20 77 20 50 0 66 5 111 34 l52 34 435 5 435 5 215 40 c118 23 217 39 220 37 3
-2 42 64 88 145 l82 149 0 228 0 228 -105 105 c-58 58 -108 104 -110 103 -13
-7 -23 -1 -33 21 -8 18 -31 31 -99 53 -82 28 -91 29 -127 16 -44 -15 -40 -16
-122 52 l-47 40 -391 3 -391 3 -32 25 -32 24 -338 0 -339 0 -29 -30 c-29 -30
-29 -30 -146 -30 -124 0 -129 -2 -129 -51 0 -17 -8 -19 -71 -19 l-71 0 -76
-70 c-43 -39 -84 -82 -92 -96 -11 -19 -62 -47 -198 -109 -174 -79 -185 -83
-236 -78 -49 5 -54 4 -61 -17 l-7 -22 -282 4 -281 5 -62 36 c-88 53 -142 52
-223 -3 l-59 -40 -263 0 -264 0 -44 45 c-40 40 -49 45 -90 45 -38 0 -57 -7
-110 -45 l-64 -45 -255 0 -256 0 -60 40 c-51 34 -68 40 -113 40 -46 0 -62 -6
-114 -41 l-61 -42 -276 12 c-152 7 -286 14 -297 16 -18 4 -23 15 -28 59 l-7
54 -204 7 -203 7 -35 37 c-19 20 -37 45 -39 56 -3 19 -12 20 -217 23 -136 1
-218 -1 -225 -8 -6 -6 -96 -10 -236 -10 l-227 0 -13 40 -13 40 -394 0 c-386 0
-393 0 -393 20 0 19 -7 20 -190 20 l-190 0 0 45 0 45 -660 0 -660 0 0 -75 0
-75 -140 0 -140 0 0 -35 0 -35 -105 0 -104 0 24 63 c13 34 64 165 114 292 l91
230 0 364 0 363 -60 68 -60 68 0 198 1 199 89 99 90 100 0 252 0 251 -34 23
-33 23 -7 105 c-3 58 -6 152 -6 210 l0 104 33 -5 c17 -3 66 -9 108 -12 l76 -7
5 1863 c3 1025 5 1865 4 1865 0 1 -269 4 -597 6 l-595 4 -612 -142z m8117
-7404 c49 -35 64 -40 111 -40 45 0 66 6 113 35 l58 35 147 0 c81 0 228 -5 327
-10 l180 -10 27 -32 c15 -17 25 -35 22 -39 -2 -4 -67 -52 -144 -105 -129 -90
-140 -100 -140 -129 0 -28 -6 -34 -65 -63 l-65 -32 -185 0 -185 0 -6 25 -6 25
-224 0 -224 0 -6 -25 -6 -25 -788 0 c-780 0 -789 0 -795 20 -6 19 -15 20 -255
20 -246 0 -249 0 -256 -22 l-6 -21 -2421 6 c-1331 4 -2422 9 -2424 11 -2 1 5
24 14 49 l17 47 903 0 c812 0 903 -2 903 -16 0 -13 29 -15 250 -12 l249 3 38
38 39 37 1242 0 1242 0 0 119 0 118 98 6 c53 4 180 10 283 13 l185 7 68 -43
c60 -38 72 -42 114 -38 30 3 68 18 107 41 l60 37 261 0 261 0 56 -40 c47 -34
63 -40 105 -40 43 0 56 6 99 40 l50 40 209 3 c115 1 231 3 257 5 43 2 56 -3
106 -38z m-9916 -792 l424 -313 -141 -5 -141 -5 -63 -48 -62 -48 0 -143 0
-143 -177 -53 c-98 -29 -185 -56 -194 -61 -9 -5 -39 -73 -69 -159 l-52 -150
-47 0 c-25 0 -70 3 -99 7 l-53 6 -45 88 -44 89 -285 0 -285 0 0 -93 0 -94 -57
-9 -57 -9 -37 -85 -36 -85 -59 -3 -59 -3 -64 163 c-35 90 -65 164 -66 165 -1
2 -228 -73 -506 -166 l-504 -168 -4120 -27 -4120 -28 -1592 29 c-876 16 -1594
31 -1597 34 -5 5 15 922 20 928 3 3 782 6 1732 8 l1727 4 416 140 415 140 25
82 24 82 675 6 c371 3 743 7 826 8 l152 1 57 95 58 95 2558 0 2559 0 0 -145 0
-145 208 1 c114 0 605 8 1092 17 l885 17 3 148 3 147 174 0 174 0 424 -312z
m906 222 c-34 -50 -65 -92 -69 -95 -5 -3 -258 160 -279 180 -2 3 89 5 203 5
l207 0 -62 -90z"/>
</g>
</svg>
