<?xml version="1.0" standalone="no"?>
<!DOCTYPE svg PUBLIC "-//W3C//DTD SVG 20010904//EN"
 "http://www.w3.org/TR/2001/REC-SVG-20010904/DTD/svg10.dtd">
<svg version="1.0" xmlns="http://www.w3.org/2000/svg"
   viewBox="0 0 3951.000000 1611.000000"
 preserveAspectRatio="xMidYMid meet">
<metadata>
Created by potrace 1.16, written by Peter Selinger 2001-2019
</metadata>
<g transform="translate(0.000000,1611.000000) scale(0.100000,-0.100000)"
fill="#000000" stroke="none">
<path d="M22907 16087 c-3 -12 -11 -64 -18 -114 -11 -83 -14 -93 -33 -94 -12
-1 -592 -4 -1291 -8 l-1270 -7 -1540 -377 c-847 -208 -2327 -572 -3288 -808
-961 -236 -1751 -427 -1756 -425 -4 3 -25 43 -45 90 -21 48 -42 86 -47 86 -5
0 -6 -35 -2 -77 4 -43 7 -89 7 -103 1 -24 -6 -26 -294 -97 l-295 -72 -1724
-620 -1724 -621 -1708 -225 c-1468 -193 -1727 -225 -1838 -225 l-128 0 -519
121 -519 121 -805 -12 -805 -12 -75 -77 c-41 -42 -113 -116 -160 -165 l-85
-89 -503 -129 -503 -128 -247 -7 -246 -8 -27 -113 c-14 -62 -31 -118 -37 -124
-6 -6 -91 -54 -189 -107 l-178 -96 -3 -355 -2 -355 197 -102 c109 -56 207
-109 218 -117 18 -14 -4 -15 -230 -16 l-250 0 -138 -86 -137 -85 2 -732 3
-731 118 -70 117 -71 0 -257 0 -257 105 -63 c96 -57 103 -64 83 -73 -13 -5
-95 -42 -183 -81 l-160 -72 -34 -96 -33 -96 -72 -21 c-233 -69 -590 -180 -594
-184 -16 -16 -22 -411 -21 -1400 2 -1026 8 -1417 22 -1432 3 -3 552 -141 1219
-308 l1213 -302 490 -33 490 -34 475 -463 475 -463 765 0 c421 0 1422 7 2225
15 803 8 1519 15 1591 15 l131 0 399 263 c220 144 449 295 511 336 l112 73
858 23 c958 27 4134 70 4341 60 l133 -7 278 -228 278 -229 1022 9 1022 8 52
45 c29 25 133 120 232 211 l180 166 645 -5 644 -4 107 -192 107 -192 263 -264
c264 -264 264 -264 563 -485 l299 -220 246 -9 c135 -4 676 -8 1202 -9 l957 0
6 -287 c3 -159 15 -458 27 -667 l22 -379 227 -349 227 -350 -21 -39 c-14 -25
-17 -41 -11 -47 6 -5 214 -104 464 -221 l453 -212 305 -19 c168 -11 309 -17
314 -15 4 3 10 19 14 35 8 36 -9 35 306 12 l226 -17 7 255 c3 140 9 331 13
423 l6 168 1981 -4 c1943 -3 1984 -4 2131 -24 128 -18 168 -29 275 -71 l125
-49 540 -18 c566 -18 650 -17 1075 20 182 15 307 45 623 146 150 48 274 97
398 155 l181 84 162 0 161 0 231 232 c211 213 241 247 338 390 58 86 106 161
106 167 0 5 -27 33 -60 62 -56 50 -62 60 -109 178 -46 117 -51 137 -66 281
-14 134 -19 158 -39 180 -12 14 -77 85 -145 159 -67 73 -121 135 -119 137 2 1
37 7 78 13 68 9 97 21 315 136 132 70 298 156 369 192 104 52 173 98 351 234
l223 168 102 181 101 180 734 0 c419 0 744 4 758 9 20 8 95 -24 482 -210 l458
-219 161 1 c89 0 249 -4 356 -10 107 -6 241 -11 297 -11 l101 0 349 131 c191
73 349 133 350 134 2 0 -52 165 -119 366 l-122 365 -132 38 c-72 21 -137 42
-144 46 -6 4 -150 269 -318 588 l-307 581 -93 64 -94 65 -69 146 -69 147 -156
717 c-144 664 -163 764 -255 1342 -54 344 -99 633 -99 643 0 11 9 21 20 24 11
3 20 8 20 11 0 2 -38 280 -85 616 l-85 611 -49 135 c-26 74 -52 151 -56 170
-22 109 -201 658 -276 850 -78 202 -295 719 -319 762 -5 9 -95 127 -200 261
-203 262 -198 257 -289 257 -32 0 -92 43 -551 389 l-514 390 -661 384 -662
385 -419 151 -419 150 -760 191 c-418 105 -829 209 -913 231 -83 22 -824 168
-1645 325 l-1492 285 -1595 150 -1595 149 -690 30 c-418 18 -818 30 -1016 30
l-326 0 -7 61 c-3 34 -6 83 -6 109 0 52 -24 78 -33 37z m-21217 -5517 c0 -16
-7 -20 -33 -20 -21 0 -41 8 -52 20 -18 20 -17 20 33 20 45 0 52 -3 52 -20z
m-20 -2415 c0 -8 -17 -19 -42 -26 -24 -6 -46 -13 -50 -16 -5 -2 -8 3 -8 11 0
10 9 16 24 16 13 0 29 7 36 15 16 19 40 19 40 0z m29250 -4130 c0 -3 -28 -81
-62 -173 -60 -163 -64 -171 -187 -346 l-126 -178 -2230 7 -2230 7 -398 221
-398 222 -80 92 c-43 51 -79 95 -79 99 0 3 19 3 43 -1 76 -14 1298 -17 1313
-4 11 9 289 14 1027 21 556 5 1473 15 2037 22 1305 17 1370 17 1370 11z m-620
-1525 c0 -70 -3 -90 -14 -90 -17 0 -227 47 -232 52 -4 4 226 127 239 128 4 0
7 -40 7 -90z"/>
</g>
</svg>
