<?xml version="1.0" standalone="no"?>
<!DOCTYPE svg PUBLIC "-//W3C//DTD SVG 20010904//EN"
 "http://www.w3.org/TR/2001/REC-SVG-20010904/DTD/svg10.dtd">
<svg version="1.0" xmlns="http://www.w3.org/2000/svg"
   viewBox="0 0 4230.000000 752.000000"
 preserveAspectRatio="xMidYMid meet">
<metadata>
Created by potrace 1.16, written by Peter Selinger 2001-2019
</metadata>
<g transform="translate(0.000000,752.000000) scale(0.100000,-0.100000)"
fill="#000000" stroke="none">
<path d="M16633 7466 l-283 -51 0 -62 0 -63 -1145 0 -1145 0 0 -650 0 -650
-38 0 c-21 0 -66 -11 -100 -25 -53 -22 -77 -25 -177 -25 l-115 0 0 -180 0
-180 -114 0 -115 0 -3 454 c-2 250 -5 457 -8 459 -3 3 -491 -10 -1085 -29
l-1080 -35 -80 29 -80 29 -3837 -141 c-2110 -78 -3839 -144 -3842 -147 -3 -3
-2 -75 3 -160 6 -85 13 -223 16 -306 l7 -153 -585 0 -585 0 -7 38 c-12 72 30
71 -542 14 -285 -28 -545 -54 -578 -56 -33 -3 -104 -10 -157 -17 l-98 -11
-430 -639 -430 -639 0 -410 0 -410 55 -110 c35 -71 55 -122 55 -145 0 -27 4
-35 18 -35 13 0 52 -69 151 -267 l133 -267 423 -561 424 -560 96 -53 95 -54 0
-179 c0 -177 0 -179 22 -184 13 -3 131 -25 263 -50 l239 -45 308 0 c292 0 308
-1 317 -19 6 -11 94 -62 196 -115 l185 -96 1126 0 1125 0 223 -125 222 -125
1795 0 1795 0 175 81 c96 44 178 85 184 90 5 5 26 49 46 97 l36 87 104 6 c57
4 336 7 620 8 l516 1 61 25 c55 22 76 25 191 25 l128 0 -5 271 -5 270 87 -43
c85 -42 86 -43 86 -80 l0 -38 975 0 975 0 0 38 c0 36 2 38 77 77 42 22 81 42
86 44 6 2 7 -100 2 -268 l-7 -271 131 0 c117 0 138 -3 193 -25 l61 -25 919 0
918 0 62 25 c55 22 76 25 191 25 l130 0 -5 270 c-3 149 -4 270 -1 270 3 0 41
-19 84 -42 77 -41 79 -43 79 -80 l0 -38 440 0 440 0 0 -166 0 -166 41 -49 41
-49 157 0 157 0 84 -210 84 -210 150 0 c145 -1 152 -2 178 -25 15 -13 35 -43
44 -67 9 -24 32 -59 50 -78 19 -20 34 -46 34 -58 0 -13 5 -42 11 -66 11 -43
11 -43 75 -55 57 -12 64 -16 64 -37 0 -20 5 -24 30 -24 l30 0 0 95 0 95 -30 0
c-27 0 -30 -3 -30 -30 0 -28 -3 -30 -35 -30 l-35 0 0 120 c0 101 2 120 15 120
9 0 32 8 53 17 28 14 73 19 191 23 l155 5 82 205 82 205 898 5 899 5 53 23
c46 19 70 22 183 22 l131 0 -6 118 c-3 64 -7 256 -8 426 l-3 309 145 78 145
78 248 1 247 0 0 -425 0 -425 1530 0 1530 0 0 425 0 425 228 0 227 1 365 279
365 280 308 0 307 0 0 -100 0 -100 265 0 265 0 0 99 0 98 68 6 c123 12 112 22
112 -98 l0 -105 84 0 c80 0 85 -1 89 -22 l4 -23 2 23 c1 22 2 22 176 22 l175
0 0 105 0 105 80 0 80 0 0 -105 0 -105 119 0 118 0 -105 -423 -106 -424 17
-44 c10 -24 21 -50 26 -57 7 -11 141 2 736 72 400 48 733 89 739 93 6 4 46 33
88 65 74 56 77 60 66 83 -8 19 -9 28 0 37 6 6 342 48 775 97 l764 86 11 -28
11 -28 78 7 c113 10 128 16 126 47 -2 29 -3 29 172 47 55 6 116 13 136 16 l37
5 -78 -311 -78 -312 24 -54 c13 -30 29 -54 35 -54 6 0 335 39 732 86 l721 85
83 62 c83 61 91 73 73 107 -8 14 -5 20 18 28 24 9 1456 173 1509 172 16 0 25
-8 29 -25 7 -29 9 -29 124 -14 85 10 104 20 94 50 -5 19 6 22 174 40 62 6 115
9 118 6 3 -3 -26 -135 -64 -292 l-70 -287 24 -55 c24 -53 26 -55 57 -50 18 3
347 43 732 88 l700 82 80 60 c44 33 82 62 85 64 2 2 -1 17 -7 34 -11 27 -9 31
10 39 12 5 351 45 752 90 402 44 740 83 753 86 19 4 26 -1 35 -26 11 -28 15
-30 47 -26 19 3 65 8 103 12 67 6 73 11 68 51 -1 7 9 15 21 17 31 7 2257 256
2285 256 16 0 25 -9 33 -35 13 -41 12 -40 162 -23 l103 11 448 365 c246 201
447 369 447 374 0 5 -10 32 -21 59 -16 37 -27 49 -43 49 -11 0 -347 14 -746
30 -399 16 -750 30 -781 30 -69 0 -69 1 -78 150 l-6 105 -1823 96 c-1002 53
-1825 98 -1827 101 -3 3 54 138 71 166 2 3 505 -51 600 -64 41 -6 41 -5 73 46
l32 51 -43 48 c-24 26 -200 219 -391 428 l-348 380 -122 33 c-114 31 -121 32
-131 15 -6 -9 -18 -26 -26 -36 -14 -17 -63 -5 -1140 285 l-1125 304 3 30 c3
28 0 32 -35 41 -166 43 -157 42 -170 24 -7 -9 -14 -20 -16 -26 -3 -11 -1470
380 -1495 399 -14 10 -14 14 2 39 l18 27 -83 77 -82 76 -681 188 c-375 103
-692 190 -706 193 -22 5 -29 -1 -56 -48 l-32 -53 36 -358 c19 -196 33 -359 30
-362 -3 -3 -82 15 -175 41 l-171 47 2 30 c1 29 0 30 -93 55 l-93 24 -22 -25
-21 -25 -734 198 c-404 109 -740 205 -748 213 -13 13 -13 18 1 39 15 23 14 25
-59 98 l-75 75 -713 196 -712 196 -32 -53 -31 -52 25 -254 c22 -217 24 -259
13 -298 -23 -83 -23 -88 -2 -94 20 -7 20 -9 7 -46 -13 -37 -13 -39 8 -42 21
-3 23 -12 37 -160 l16 -158 -37 0 c-36 0 -39 -3 -63 -56 l-26 -56 -77 6 c-204
17 -191 13 -212 62 -18 40 -23 44 -55 44 l-36 0 0 160 0 160 36 0 c40 0 40 -4
2 98 -18 49 -21 52 -54 52 -30 0 -35 4 -40 30 l-6 30 -183 0 -183 0 -16 -47
c-21 -60 -20 -70 3 -78 18 -6 19 -9 6 -45 l-14 -40 44 0 45 0 0 -160 0 -160
-45 0 c-38 0 -47 -4 -54 -23 -8 -22 -12 -22 -92 -16 -46 4 -96 8 -111 8 l-28
1 0 164 0 164 -27 6 c-16 3 -840 145 -1833 315 -1547 265 -1815 309 -1875 305
-59 -5 -229 21 -1038 155 -533 89 -976 161 -985 161 -9 0 -76 -60 -149 -132
l-133 -133 0 393 0 393 -157 200 -158 199 -820 2 c-451 2 -1143 1 -1537 -1
l-718 -3 0 116 c0 114 0 116 -22 115 -13 -1 -150 -24 -305 -53z m5212 -2070
c435 -74 786 -135 780 -135 -5 -1 -289 17 -630 39 l-620 40 -167 46 -168 47 0
48 c0 27 3 49 8 49 4 0 363 -61 797 -134z m9591 -1446 c832 -93 1515 -170
1518 -170 3 0 -15 -44 -41 -97 -40 -86 -48 -111 -57 -202 l-11 -104 -285 -84
-285 -84 -735 -60 -735 -60 -398 15 c-394 16 -397 16 -437 -4 -38 -19 -57 -20
-634 -20 l-596 0 -4 23 c-3 12 -10 83 -16 157 -11 133 -36 328 -46 363 -5 16
10 17 210 17 l216 0 0 35 0 35 168 1 c92 1 283 4 425 8 143 3 261 3 264 -2 2
-4 28 -4 56 -1 92 12 91 8 35 109 -142 257 -160 295 -141 295 9 0 698 -76
1529 -170z m2182 -245 c218 -24 411 -46 428 -49 28 -4 34 0 50 30 10 19 20 34
23 34 18 0 2675 -301 2678 -303 2 -2 -16 -45 -39 -96 l-42 -92 -81 6 c-88 6
-3481 185 -3520 185 -23 0 -25 4 -25 43 0 30 15 76 57 165 31 67 60 122 65
122 4 0 187 -20 406 -45z m-6996 -340 c86 -148 87 -151 88 -217 l0 -68 -160 0
-160 0 0 220 0 221 72 -3 72 -3 88 -150z m784 137 c-3 -10 -42 -101 -86 -202
l-79 -185 -1 203 0 202 86 0 c77 0 85 -2 80 -18z m702 -199 l-3 -218 -77 -3
-78 -3 0 221 0 220 80 0 80 0 -2 -217z m6817 -263 c974 -44 1781 -80 1795 -80
21 0 29 -8 42 -45 l17 -45 -82 5 c-45 3 -754 33 -1576 66 -1023 41 -1498 56
-1505 49 -12 -12 -123 -13 -318 -4 l-136 7 -25 63 -25 64 21 0 c12 0 819 -36
1792 -80z m-2025 -31 c0 -5 -12 -9 -27 -9 -27 1 -27 1 -9 15 19 14 36 12 36
-6z m5820 -141 c905 -40 1626 -74 1602 -76 -24 -2 -728 25 -1565 58 l-1521 62
-53 -26 c-71 -35 -150 -37 -162 -3 -26 68 -26 68 16 63 21 -3 778 -38 1683
-78z"/>
</g>
</svg>
