<?xml version="1.0" standalone="no"?>
<!DOCTYPE svg PUBLIC "-//W3C//DTD SVG 20010904//EN"
 "http://www.w3.org/TR/2001/REC-SVG-20010904/DTD/svg10.dtd">
<svg version="1.0" xmlns="http://www.w3.org/2000/svg"
   viewBox="0 0 4746.000000 2809.000000"
 preserveAspectRatio="xMidYMid meet">
<metadata>
Created by potrace 1.16, written by Peter Selinger 2001-2019
</metadata>
<g transform="translate(0.000000,2809.000000) scale(0.100000,-0.100000)"
fill="#000000" stroke="none">
<path d="M24052 27547 l-1173 -542 6 -2735 c3 -1504 8 -3645 11 -4758 l6
-2023 1149 7 1149 7 0 -41 c0 -35 3 -42 20 -42 19 0 20 -7 20 -90 0 -83 -1
-90 -20 -90 -11 0 -20 -4 -20 -10 0 -5 -22 -10 -49 -10 -55 0 -56 -1 -66 -83
l-7 -57 -1197 0 c-658 0 -1861 3 -2673 7 l-1478 6 0 79 0 78 -239 0 -239 0 -7
-55 -6 -55 -2367 0 -2367 0 -170 110 -170 110 -930 0 -930 -1 -290 -399 -290
-399 -307 0 -308 -1 0 34 0 33 -452 6 c-249 3 -590 3 -758 -1 l-305 -7 -3 -32
-3 -33 -448 0 -448 0 -6 -57 c-4 -32 -9 -124 -13 -205 l-7 -147 24 -5 c13 -3
70 -10 127 -17 l104 -11 -45 -32 c-24 -17 -87 -60 -140 -96 -71 -48 -99 -73
-106 -95 -5 -16 -31 -99 -57 -182 l-47 -153 -84 0 -83 0 0 -185 0 -185 -250 0
-250 0 0 260 0 260 -23 -5 c-12 -3 -294 -52 -627 -110 -333 -58 -617 -108
-633 -111 l-27 -6 0 -138 0 -139 -46 -3 -47 -3 -233 -370 c-128 -203 -235
-374 -236 -378 -3 -6 -1954 -52 -2825 -67 -10 0 -13 27 -13 100 l0 100 -115 0
-115 0 0 30 0 30 -87 0 c-79 0 -93 -3 -138 -30 l-50 -30 -167 0 -168 0 0 -530
0 -530 165 0 c157 0 168 -1 215 -25 42 -21 63 -25 140 -25 89 0 90 0 90 25 l0
25 115 0 115 0 0 68 0 67 82 -2 c46 -2 580 -12 1188 -23 608 -11 1156 -23
1218 -26 l112 -6 0 -99 0 -99 -382 0 -383 0 -395 -171 -395 -171 -297 -296
-298 -296 31 -32 31 -32 -154 -139 c-84 -77 -209 -190 -276 -251 l-124 -112
-141 1 -142 0 -1011 -208 -1011 -208 -114 -195 c-62 -107 -134 -224 -160 -260
-26 -36 -51 -79 -55 -95 -4 -17 -112 -210 -240 -430 -127 -220 -229 -401 -225
-402 3 -1 340 -97 749 -213 l743 -210 943 0 943 0 13 40 13 40 339 0 338 0
-24 -63 c-13 -34 -121 -311 -240 -614 -119 -304 -216 -557 -216 -563 0 -6 42
-110 92 -231 l93 -220 127 -64 126 -64 589 -1 c438 -2 601 1 638 10 28 7 391
140 808 297 l757 284 1238 685 c1732 960 1841 1022 1847 1048 3 11 32 208 65
436 53 365 109 719 126 803 l6 27 233 0 233 0 50 -142 c27 -79 61 -179 76
-223 23 -69 42 -100 142 -230 63 -82 121 -158 129 -168 8 -12 126 -58 316
-124 l304 -105 210 -14 c116 -8 229 -17 253 -20 l42 -5 0 -175 0 -174 1509 0
1508 0 7 77 c3 42 6 96 6 120 l0 43 420 0 420 0 0 -125 0 -125 550 0 550 0 0
150 0 150 1290 0 1290 0 0 -290 0 -290 510 0 510 0 0 -80 c0 -79 0 -80 25 -80
25 0 25 -1 25 -90 0 -89 0 -90 -25 -90 -24 0 -25 -2 -25 -72 l0 -71 -3438 7
-3439 7 -7 -4687 c-4 -2577 -6 -4688 -4 -4690 2 -1 381 -6 843 -9 l840 -7
3655 3683 c2010 2026 3655 3690 3654 3699 0 8 -205 459 -454 1002 l-453 988
-376 0 c-207 0 -427 3 -488 7 l-113 6 0 69 c0 61 -2 68 -20 68 -19 0 -20 7
-20 90 0 83 1 90 20 90 18 0 20 7 20 80 l0 80 1039 0 1039 0 6 23 c3 12 6 85
6 162 0 77 3 177 7 223 l6 82 477 0 c538 0 690 -6 690 -27 0 -11 73 -13 410
-13 l410 0 132 51 133 51 351 8 351 7 196 104 197 104 0 80 c0 44 -4 85 -8 92
-5 8 -55 14 -142 19 -74 4 -142 10 -150 15 -8 4 -136 102 -285 218 l-270 211
-167 0 c-141 0 -168 2 -168 15 0 8 -17 26 -37 40 -35 23 -46 25 -148 25 -60 0
-211 -9 -335 -20 -124 -11 -231 -20 -237 -20 -7 0 -13 -9 -13 -20 0 -19 -7
-20 -110 -20 l-110 0 0 58 0 57 -128 128 -127 127 -303 0 c-235 0 -302 -3
-302 -12 0 -7 -3 -22 -6 -33 -4 -17 16 -38 101 -110 l106 -90 -3 -232 c-2
-127 -5 -234 -8 -236 -3 -3 -116 -3 -252 0 l-248 6 0 337 0 337 -119 165 -120
165 -728 6 c-400 4 -998 7 -1329 7 l-600 0 -56 78 c-31 42 -156 180 -278 305
-197 201 -265 262 -578 518 l-354 291 -397 243 -396 243 -260 102 c-143 56
-262 104 -264 106 -2 2 829 4 1847 4 l1851 0 3 -42 3 -43 243 -3 242 -2 0 73
0 74 763 6 c419 4 1620 10 2668 13 l1906 7 7 -49 c15 -105 -11 -94 232 -94
l213 0 5 33 c3 17 8 53 11 80 4 26 9 47 13 47 4 0 414 -97 912 -215 l905 -214
-267 0 -268 -1 0 -79 0 -78 -67 -6 c-38 -4 -433 -7 -879 -7 -731 0 -812 -2
-818 -16 -3 -9 -6 -163 -6 -344 0 -181 3 -335 6 -344 6 -14 74 -16 673 -16
367 0 763 -3 879 -7 l212 -6 0 -137 0 -138 303 -7 c166 -4 334 -5 372 -3 l70
3 3 144 3 144 1376 -4 1377 -4 9 39 10 39 231 -6 c127 -4 374 -7 549 -7 l317
0 0 -30 0 -30 -450 0 -450 0 0 -510 0 -510 1670 0 1670 0 0 -50 c0 -43 3 -50
20 -50 19 0 20 -7 20 -90 0 -83 -1 -90 -20 -90 -18 0 -20 -7 -20 -67 l0 -66
-1410 7 -1410 6 0 -1990 0 -1990 358 0 357 0 1545 1555 c850 856 1546 1559
1548 1564 1 5 -84 198 -189 430 l-192 421 -194 0 -193 0 0 65 c0 63 -1 65 -25
65 -25 0 -25 1 -25 90 0 89 0 90 25 90 23 0 25 3 25 50 l0 50 258 1 257 0 125
58 125 57 3 395 2 396 -132 56 -133 57 -252 0 c-226 0 -253 2 -253 16 0 14 11
15 88 10 48 -3 449 -8 892 -11 443 -3 840 -8 882 -11 l78 -6 6 -49 7 -49 238
0 239 0 0 80 0 80 205 0 205 0 0 -385 0 -385 358 0 359 0 790 389 790 388
1320 7 1320 8 8 -58 c4 -31 9 -63 12 -71 4 -10 49 -13 218 -13 l212 0 7 38 c3
20 6 58 6 83 l0 46 313 6 c171 4 812 14 1422 22 611 9 1174 18 1253 21 l142 6
0 145 0 145 -1565 -8 -1565 -7 0 44 c0 24 -3 61 -6 82 l-7 37 -213 0 c-239 0
-217 8 -230 -82 l-6 -48 -907 1 -906 1 343 169 c331 164 342 170 342 198 0 16
-7 34 -15 41 -8 7 -15 15 -15 19 0 3 45 24 100 46 l100 40 0 176 0 176 -1701
6 c-936 3 -1703 8 -1705 10 -3 2 -2 11 1 19 5 13 317 16 2638 20 1539 4 2633
2 2635 -3 2 -5 256 -9 591 -9 l587 0 34 25 c48 35 138 35 195 0 37 -23 50 -25
162 -25 70 0 124 4 128 10 4 6 57 10 125 10 68 0 121 -4 125 -10 3 -6 50 -10
106 -10 l99 0 0 155 0 155 -99 0 c-56 0 -103 -4 -106 -10 -4 -6 -57 -10 -125
-10 -68 0 -121 4 -125 10 -4 6 -57 10 -126 10 -110 0 -122 -2 -159 -25 -57
-36 -157 -36 -204 0 l-33 25 -586 0 -587 0 0 -40 0 -40 -2640 0 -2640 0 0 65
0 65 -79 0 -79 0 -208 257 c-115 141 -521 667 -904 1167 -652 855 -695 913
-695 951 l0 40 2388 3 c2382 2 2387 2 2387 -18 0 -20 6 -20 593 -20 l592 0 37
25 c51 35 130 35 198 0 44 -22 62 -25 163 -25 76 0 117 4 125 12 15 15 245 12
250 -3 2 -5 48 -9 103 -9 l99 0 0 155 0 155 -100 0 c-60 0 -100 -4 -100 -10 0
-6 -48 -10 -124 -10 -73 0 -127 4 -131 10 -4 6 -55 10 -121 10 -102 0 -120 -3
-164 -25 -69 -35 -151 -35 -202 0 l-37 25 -590 0 -591 0 0 -32 0 -31 -587 6
c-322 4 -1398 7 -2390 7 l-1803 0 0 43 c0 93 13 87 -201 87 -143 0 -191 -3
-194 -12 -2 -7 -6 -34 -10 -60 l-6 -48 -2850 0 -2849 0 0 65 0 65 -45 0 -45 0
0 55 c0 48 -2 55 -20 55 -19 0 -20 7 -20 90 0 83 1 90 20 90 17 0 20 7 20 45
l0 45 828 0 c455 0 1046 3 1315 7 l487 6 -2 991 -3 991 -4354 4290 c-2394
2360 -4359 4291 -4365 4292 -6 1 -539 -242 -1184 -540z m7068 -10082 c0 -38 3
-45 20 -45 19 0 20 -7 20 -90 0 -83 -1 -90 -20 -90 -18 0 -20 -7 -20 -55 l0
-55 -49 0 c-53 0 -61 -9 -61 -75 l0 -30 -2542 11 c-1399 7 -2630 12 -2735 13
l-193 1 0 43 c0 23 -3 59 -6 80 l-7 37 -58 0 c-46 0 -59 3 -59 15 0 8 -9 15
-20 15 -19 0 -20 7 -20 90 0 83 1 90 20 90 17 0 20 7 20 40 l0 40 1593 3 c875
1 2160 3 2855 5 l1262 2 0 -45z m4953 -712 l1057 -6 0 -31 c0 -70 6 -75 80
-78 l68 -3 613 -755 c699 -860 1220 -1528 1214 -1557 -2 -10 -7 -35 -10 -55
l-6 -38 -2849 0 -2850 0 0 65 0 64 -72 3 -72 3 -913 1148 -913 1148 7 56 6 56
1791 -6 c985 -4 2267 -10 2849 -14z m-5059 -29 c3 -9 6 -31 6 -49 l0 -34 74
-3 73 -3 910 -1152 c881 -1118 909 -1154 905 -1189 l-5 -37 -1441 6 c-792 4
-2023 10 -2733 14 l-1293 6 0 52 c0 29 -3 67 -6 84 l-6 31 -92 0 -91 0 -56 68
c-31 37 -431 526 -889 1087 l-832 1019 6 45 c3 24 8 46 10 48 4 5 2972 19
4387 21 965 2 1067 0 1073 -14z m-5929 -91 c11 -86 6 -83 104 -83 l87 0 899
-1042 c494 -573 898 -1046 897 -1052 0 -6 -6 -42 -13 -79 l-12 -68 -2666 7
c-1466 4 -2667 7 -2668 8 -1 1 -5 39 -9 84 l-7 82 -126 -6 -126 -7 -460 554
c-253 304 -639 778 -857 1054 -382 480 -398 502 -398 543 l0 42 638 1 c350 1
1218 5 1927 8 710 4 1626 8 2036 9 l747 2 7 -57z m-5835 -68 l0 -45 148 0 147
0 225 -272 c228 -275 1437 -1793 1447 -1816 3 -6 2 -23 -1 -37 l-6 -25 -2440
0 -2439 0 101 167 102 166 7 113 c4 62 9 116 12 121 3 4 168 80 366 168 l361
160 0 188 0 187 -40 0 -40 0 0 115 0 115 -145 0 -145 0 -418 340 -417 339
-327 1 c-321 0 -328 0 -365 23 l-38 22 395 5 c217 3 1096 6 1953 8 l1557 2 0
-45z m-7700 -1072 c0 -98 -3 -208 -7 -245 l-6 -68 -48 0 -48 0 -71 115 -72
115 -785 0 -785 0 6 23 c21 68 15 129 -20 222 -6 13 90 15 915 15 l921 0 0
-177z m3050 -948 l0 -45 -100 0 -100 0 0 45 0 45 100 0 100 0 0 -45z m19706
-750 c484 -119 1246 -310 1694 -425 l815 -209 -190 0 c-143 -1 -2257 19 -4276
39 -13 0 -18 14 -23 58 -4 31 -9 65 -12 75 -5 16 -47 17 -691 17 l-687 0 -590
145 c-325 80 -877 217 -1226 304 l-635 158 1670 6 c919 4 1930 9 2247 13 l576
6 7 -56 7 -56 199 0 199 0 0 70 c0 62 2 70 19 70 10 0 414 -97 897 -215z
m4292 189 c272 -4 492 -10 492 -15 0 -5 -36 -9 -80 -9 l-80 0 0 -435 0 -435
-205 0 -205 0 0 80 0 80 -239 0 -238 0 -7 -50 -7 -50 -85 0 c-76 0 -202 28
-1267 281 -1063 252 -2284 553 -2297 566 -6 6 3550 -5 4218 -13z m-22448 -245
c127 -9 228 -26 565 -95 l410 -85 390 -141 390 -141 370 -223 370 -223 320
-274 c311 -266 520 -467 638 -613 l57 -71 0 -308 0 -308 -377 6 c-207 4 -787
7 -1290 7 l-913 0 0 25 0 25 -252 0 c-139 0 -385 3 -545 7 l-293 6 0 -114 c0
-63 -3 -131 -6 -151 l-7 -38 -417 0 -417 0 -7 147 c-4 81 -8 148 -9 149 -1 1
-677 4 -1503 7 l-1501 7 -7 -172 c-3 -94 -8 -173 -10 -176 -2 -2 -114 4 -248
13 -239 16 -245 17 -388 62 l-145 45 -78 103 c-56 74 -90 131 -121 206 l-44
104 2842 3 2843 2 7 77 c3 42 6 143 6 225 l0 148 154 0 c85 0 157 3 159 8 3 4
8 346 12 760 l7 752 -611 0 -611 0 0 28 c1 64 20 155 40 187 25 40 12 39 220
24z m-1550 -129 l0 -110 -105 0 -105 0 0 110 0 110 105 0 105 0 0 -110z
m15200 -205 l225 -54 -237 0 -238 -1 0 55 c0 37 4 55 13 55 6 0 113 -25 237
-55z m-24040 -675 l0 -30 -257 0 c-142 0 -263 -4 -269 -8 -6 -4 -79 -187 -164
-407 -84 -220 -159 -417 -167 -437 l-15 -38 -304 0 -304 0 0 45 0 45 -147 1
c-82 0 -168 4 -193 7 l-44 7 306 285 305 285 242 130 c285 153 225 141 694
143 l317 2 0 -30z m29633 -87 c389 -5 477 -9 477 -20 0 -11 -188 -13 -1110
-13 l-1110 0 0 27 0 26 633 -6 c347 -4 847 -10 1110 -14z"/>
</g>
</svg>
