<?xml version="1.0" standalone="no"?>
<!DOCTYPE svg PUBLIC "-//W3C//DTD SVG 20010904//EN"
 "http://www.w3.org/TR/2001/REC-SVG-20010904/DTD/svg10.dtd">
<svg version="1.0" xmlns="http://www.w3.org/2000/svg"
   viewBox="0 0 4384.000000 2871.000000"
 preserveAspectRatio="xMidYMid meet">
<metadata>
Created by potrace 1.16, written by Peter Selinger 2001-2019
</metadata>
<g transform="translate(0.000000,2871.000000) scale(0.100000,-0.100000)"
fill="#000000" stroke="none">
<path d="M39580 26650 l0 -2060 -88 0 -87 0 -1425 1425 -1425 1425 -52 -52
-53 -53 997 -997 c941 -941 996 -998 982 -1017 -8 -11 -162 -193 -344 -405
l-330 -386 -40 1 c-22 0 -584 33 -1250 73 -836 50 -1212 69 -1217 62 -4 -6 -8
-41 -8 -78 0 -64 -1 -68 -22 -68 -13 -1 -733 36 -1600 82 l-1578 82 0 58 c0
52 -2 58 -22 62 -18 4 -4111 207 -4140 206 -5 0 -8 -25 -8 -56 l0 -57 -102 6
c-57 4 -167 10 -245 13 l-143 7 0 -77 0 -76 -398 0 -397 0 -85 85 -85 85
-1277 0 -1278 0 0 -231 c0 -141 -4 -229 -9 -227 -6 2 -354 199 -775 438 l-766
434 0 152 0 151 100 82 100 82 0 204 0 205 -1425 0 -1425 0 0 -275 0 -275
-150 0 -150 0 0 278 c0 154 -3 333 -6 399 l-7 120 -846 6 c-465 4 -1050 10
-1299 14 l-452 6 0 49 0 48 -655 0 -655 0 0 93 c0 82 -13 204 -23 213 -2 2
-52 7 -110 11 l-107 6 -5 31 c-51 277 -61 363 -49 419 l11 57 -128 0 -129 0 0
-60 0 -60 -590 0 -590 0 0 -87 0 -88 -106 -197 -105 -198 -50 0 -49 0 0 -70 0
-70 -2227 0 -2228 0 -128 210 -128 210 -398 0 -398 0 -84 95 -84 95 -852 0
-853 0 0 505 0 505 165 0 165 0 0 25 0 25 -165 0 -165 0 0 110 0 110 53 1 c46
2 42 3 -30 11 -51 5 -115 5 -165 0 -73 -8 -77 -9 -30 -11 l52 -1 0 -110 0
-110 -150 0 -150 0 0 -25 0 -25 150 0 150 0 0 -505 0 -505 -340 0 -340 0 0
-140 0 -140 249 0 249 0 89 -152 88 -153 -3 -112 -4 -113 -594 0 -594 0 0 95
0 95 -349 0 -350 0 -83 50 -83 50 -1626 0 -1626 0 -68 -95 c-58 -80 -71 -93
-84 -82 -8 6 -100 87 -204 180 -105 92 -193 167 -197 167 -4 0 -14 -8 -23 -18
-16 -18 -6 -28 198 -208 l215 -189 0 -1386 0 -1387 80 -111 81 -111 304 0 304
0 147 70 c134 64 152 70 210 70 l64 0 0 -30 0 -30 95 0 95 0 0 -74 0 -73 430
-419 430 -419 0 -72 0 -73 499 0 499 0 471 -632 471 -633 -130 -3 -130 -3 0
-344 0 -345 493 0 492 0 378 -395 377 -394 0 -191 0 -190 55 0 55 0 0 -110 0
-110 -59 0 -59 0 -73 -117 c-40 -65 -73 -125 -73 -133 0 -10 774 -1266 865
-1402 3 -5 617 -216 1364 -469 l1358 -459 239 0 238 0 0 -252 0 -253 498 -201
497 -201 3 -170 2 -171 -35 -30 c-35 -31 -35 -32 -35 -112 l0 -80 73 0 74 0
176 -632 177 -633 0 -604 0 -604 -580 7 -581 7 -336 -171 -336 -170 -1398 0
-1399 0 0 -220 0 -220 -1195 0 -1195 0 0 -120 0 -120 1195 0 c1188 0 1195 0
1195 -20 0 -20 7 -20 1947 -20 l1946 0 366 -257 c201 -141 554 -389 784 -550
l418 -293 158 0 158 0 7 38 c3 20 6 50 6 66 l0 29 -124 -6 -124 -6 -219 153
-218 153 -3 250 -2 250 2077 -894 c1143 -492 2079 -896 2080 -897 2 -2 27
-153 57 -337 l53 -334 2 -845 2 -844 163 -221 c89 -121 165 -225 169 -231 4
-7 20 -96 37 -199 23 -144 28 -191 19 -201 -9 -11 -8 -18 4 -32 11 -12 26 -74
42 -174 21 -129 25 -191 25 -352 l0 -196 243 0 243 0 1395 -1817 c767 -999
1414 -1843 1437 -1875 l44 -58 -46 -86 -46 -86 0 -277 0 -277 265 -217 265
-217 174 22 174 22 84 -22 84 -22 127 35 127 35 122 -26 123 -26 385 155 c212
85 607 246 879 356 272 111 504 201 515 201 12 0 867 -195 1901 -434 1332
-307 1882 -430 1887 -422 4 6 9 14 10 18 2 4 525 -113 1163 -261 638 -147
1161 -267 1163 -265 7 5 53 217 48 221 -2 2 -523 124 -1158 270 -634 146
-1156 269 -1159 272 -4 3 15 100 42 215 27 117 45 212 40 215 -5 3 -408 98
-895 210 -748 173 -885 207 -881 220 2 9 298 1220 655 2691 358 1471 653 2682
656 2691 3 12 56 26 207 58 112 23 216 45 232 49 27 8 77 104 669 1273 l641
1264 1310 3 1311 2 1397 2355 1397 2355 0 90 0 90 -60 0 -60 0 0 195 0 195
660 0 660 0 0 799 0 800 122 130 c115 124 123 131 160 131 l38 0 0 -930 0
-930 1008 0 1007 1 163 120 162 120 0 855 0 854 495 0 495 0 0 184 0 184 -85
77 -85 77 0 279 0 279 1950 0 1950 0 0 -110 0 -110 35 0 35 0 0 110 0 110 195
0 195 0 0 50 0 50 -195 0 -195 0 0 60 0 60 294 0 294 0 350 683 c192 375 359
701 371 725 l21 42 -144 0 -144 0 -203 -284 -204 -285 -1342 0 -1341 -1 -142
165 -142 165 -219 0 -219 0 0 96 c0 80 17 185 101 627 56 293 105 536 110 541
5 5 14 5 22 -2 10 -9 25 9 70 88 31 55 57 103 57 107 -1 4 -82 53 -180 108
l-180 100 0 1603 0 1602 -38 0 -39 0 -6 182 c-4 99 -7 1098 -7 2220 l0 2038
-35 0 -35 0 0 -2060z m-270 -2192 c0 -14 -9 -18 -41 -18 -62 0 -1403 81 -1407
85 -2 2 141 173 319 380 l322 377 403 -403 c225 -225 404 -412 404 -421z
m-451 -5423 c-4 -4 -221 -96 -296 -126 -23 -8 -23 -7 -23 61 l0 70 162 0 c89
0 159 -2 157 -5z m3581 -905 l0 -60 -1950 0 -1950 0 0 60 0 60 1950 0 1950 0
0 -60z m-28480 -3839 c0 -24 -11 -37 -72 -81 l-73 -52 68 69 c37 38 67 74 67
81 0 6 2 12 5 12 3 0 5 -13 5 -29z m120 -1691 l120 0 0 -190 0 -190 -287 1
-288 0 -324 406 -324 407 38 31 c21 18 51 40 66 49 l29 17 0 -60 0 -61 320 0
320 0 0 298 0 298 103 75 102 75 3 -578 2 -578 120 0z m-1510 646 c0 -2 -91
-70 -202 -152 -112 -81 -218 -159 -235 -172 l-33 -24 0 76 0 76 100 0 100 0 0
100 0 100 135 0 c74 0 135 -2 135 -4z m516 -831 l348 -435 383 0 383 0 0 -47
0 -48 242 -242 243 -243 537 0 c296 0 538 -3 538 -7 1 -5 61 -380 133 -835 73
-454 130 -825 127 -824 -3 1 -856 369 -1897 817 -1660 714 -1890 816 -1878
829 20 23 65 129 65 155 0 13 -44 80 -105 160 l-105 137 0 282 0 281 308 227
c169 124 312 227 319 227 6 1 168 -195 359 -434z m4764 130 l0 -55 -70 0 -70
0 0 55 0 55 70 0 70 0 0 -55z m0 -245 l0 -80 -70 0 -70 0 0 80 0 80 70 0 70 0
0 -80z m192 -1157 l3 -838 915 -346 915 -346 3 -391 2 -392 -85 0 -85 0 0 85
0 85 -210 0 -210 0 0 30 0 30 280 0 280 0 0 205 0 205 -280 0 c-242 0 -280 2
-280 15 0 13 -21 15 -131 15 -71 0 -128 4 -125 9 3 4 -341 180 -764 389 l-770
382 0 698 0 697 105 105 c104 104 105 105 105 152 l0 48 165 0 165 0 2 -837z
m1 -1554 c293 -194 560 -365 595 -382 l62 -31 0 -58 0 -58 60 0 60 0 0 -115 0
-115 -65 0 -65 0 0 85 0 85 -482 0 -483 0 -112 47 -113 47 0 423 c0 233 2 423
5 423 3 0 245 -158 538 -351z m8040 -2786 c-13 -54 -295 -1213 -627 -2575
-331 -1363 -605 -2480 -608 -2483 -3 -4 -34 0 -68 7 l-62 12 5 41 c3 22 135
1138 293 2480 157 1342 288 2442 290 2444 3 3 768 168 790 170 8 1 3 -32 -13
-96z m-7170 -1518 l270 -265 524 0 523 0 0 -190 0 -190 40 0 40 0 0 -1112 0
-1113 -54 -100 c-29 -55 -56 -100 -59 -100 -6 0 -2557 3321 -2557 3330 0 3
225 5 501 5 l501 0 271 -265z"/>
</g>
</svg>
