<?xml version="1.0" standalone="no"?>
<!DOCTYPE svg PUBLIC "-//W3C//DTD SVG 20010904//EN"
 "http://www.w3.org/TR/2001/REC-SVG-20010904/DTD/svg10.dtd">
<svg version="1.0" xmlns="http://www.w3.org/2000/svg"
   viewBox="0 0 3754.000000 2006.000000"
 preserveAspectRatio="xMidYMid meet">
<metadata>
Created by potrace 1.16, written by Peter Selinger 2001-2019
</metadata>
<g transform="translate(0.000000,2006.000000) scale(0.100000,-0.100000)"
fill="#000000" stroke="none">
<path d="M28760 20050 l-775 -6 -1125 -72 -1125 -73 -816 -129 -816 -130 -194
0 c-107 0 -1129 -20 -2272 -45 -2045 -44 -2078 -45 -2105 -65 -28 -21 -29 -21
-333 -5 -859 44 -1837 118 -2639 200 -317 32 -348 37 -582 94 -220 54 -259 66
-360 117 l-112 56 -1706 -17 -1705 -17 -635 -48 -635 -49 -495 -150 -495 -151
-535 0 c-484 0 -595 -3 -1178 -36 -354 -19 -646 -34 -647 -32 -2 2 -71 111
-154 243 -84 132 -155 243 -159 247 -4 4 -347 -15 -762 -42 l-755 -49 -835
-140 c-459 -78 -844 -143 -855 -146 -13 -3 -118 -158 -310 -458 l-290 -454
-636 -157 -637 -157 -973 -370 c-536 -203 -1004 -381 -1041 -395 l-68 -26 0
-242 0 -243 92 -7 c50 -3 212 -6 360 -6 147 0 268 -2 268 -4 0 -35 44 -424 55
-486 8 -46 19 -143 25 -215 23 -292 71 -820 75 -824 3 -2 52 -6 110 -9 l105
-5 0 -446 0 -447 523 -47 c287 -26 560 -49 607 -50 47 -2 -22 -4 -153 -5
l-237 -2 2 -692 3 -693 659 -38 659 -38 69 41 69 41 60 -52 61 -53 887 -103
c487 -56 886 -103 887 -103 0 0 25 -36 55 -80 43 -63 60 -80 84 -85 17 -3 192
-23 390 -45 l360 -41 380 45 380 45 305 131 c173 75 313 141 323 153 11 12 38
42 60 67 l42 45 265 57 265 57 1180 51 c649 28 1197 50 1218 50 36 0 37 -1 37
-35 0 -30 -3 -35 -22 -35 -13 0 -94 -5 -182 -12 -142 -10 -161 -9 -186 5 -27
16 -36 15 -184 -13 -86 -16 -206 -33 -266 -36 -87 -6 -114 -11 -123 -24 -9
-12 -92 -31 -317 -74 -168 -31 -312 -59 -322 -62 -10 -3 -39 -61 -77 -157
l-61 -152 0 -462 0 -462 61 -155 60 -155 52 -10 c153 -31 1127 -211 1141 -211
8 0 49 22 90 49 l75 48 123 -21 123 -21 9 -62 9 -62 41 -6 c23 -2 248 -21 501
-40 253 -19 486 -38 517 -41 l58 -6 2 -196 3 -197 494 -32 c272 -18 499 -34
505 -36 7 -3 19 -29 29 -59 15 -47 17 -101 17 -396 0 -246 3 -343 11 -348 7
-4 111 -13 232 -21 l221 -14 134 -126 134 -125 0 -607 c-1 -532 1 -616 16
-686 l17 -80 938 -46 939 -46 78 -78 79 -78 375 -69 375 -68 258 -179 c307
-212 709 -440 854 -485 48 -14 361 -78 695 -141 l609 -114 1135 -32 1135 -33
265 44 265 44 40 41 c22 22 150 159 284 305 150 163 252 266 265 268 18 2
3037 -278 3157 -294 l47 -6 190 -311 c316 -518 425 -703 539 -911 l108 -199
475 -141 475 -141 300 -159 c252 -134 388 -217 850 -513 l549 -354 456 -442
c250 -244 559 -536 686 -650 196 -176 292 -272 635 -644 290 -315 695 -731
1436 -1478 l1031 -1040 554 -44 c554 -43 1692 -135 2080 -168 114 -9 210 -14
214 -10 4 4 15 103 24 219 13 166 14 215 5 223 -15 13 -321 2293 -309 2305 5
4 34 15 64 25 30 10 59 21 63 25 5 4 -39 223 -97 486 -97 446 -107 484 -145
552 l-40 73 -17 397 c-11 278 -14 475 -10 659 l7 263 -81 249 -80 249 -105 97
c-58 54 -105 101 -105 105 0 4 31 12 68 19 l68 12 52 107 52 107 8 315 8 315
-33 260 c-38 294 -20 250 -168 403 -74 76 -83 82 -120 82 -70 0 -85 8 -85 45
0 18 23 108 51 201 l51 168 142 171 c79 93 149 181 157 195 7 14 29 157 50
317 l37 293 -103 267 -102 267 -238 97 c-131 53 -241 102 -245 110 -4 8 -19
60 -34 116 l-27 102 29 108 29 108 66 17 c46 11 135 18 299 24 183 5 267 12
393 34 l160 27 206 99 207 99 91 205 91 205 13 259 13 259 -72 192 c-39 106
-74 197 -77 202 -4 6 -98 60 -209 121 l-203 111 -165 26 -165 27 33 351 34
352 38 35 c28 27 56 40 111 54 41 10 85 29 99 41 24 22 57 26 620 78 l595 56
90 34 90 35 -35 14 c-123 51 -155 56 -830 118 l-665 62 -57 30 c-32 17 -58 34
-58 39 0 5 284 431 304 456 1 1 231 26 512 55 l509 52 299 185 299 185 95 195
95 196 28 245 28 245 -50 285 c-27 157 -52 295 -55 308 -3 15 -31 40 -83 73
l-79 50 5 102 c2 56 8 188 12 292 l8 190 -158 453 c-127 363 -167 468 -203
525 -25 40 -123 193 -218 341 l-174 269 -457 346 -458 346 -612 311 -612 312
-745 226 -745 226 -755 101 -755 100 -860 34 c-473 19 -894 34 -935 33 -41 -1
-424 -5 -850 -8z"/>
</g>
</svg>
