<?xml version="1.0" standalone="no"?>
<!DOCTYPE svg PUBLIC "-//W3C//DTD SVG 20010904//EN"
 "http://www.w3.org/TR/2001/REC-SVG-20010904/DTD/svg10.dtd">
<svg version="1.0" xmlns="http://www.w3.org/2000/svg"
   viewBox="0 0 2482.000000 4893.000000"
 preserveAspectRatio="xMidYMid meet">
<metadata>
Created by potrace 1.16, written by Peter Selinger 2001-2019
</metadata>
<g transform="translate(0.000000,4893.000000) scale(0.100000,-0.100000)"
fill="#000000" stroke="none">
<path d="M11197 47151 c-609 -978 -1107 -1783 -1107 -1790 0 -6 7 -23 16 -36
9 -13 14 -31 12 -39 -2 -8 -640 -977 -1418 -2154 -1354 -2048 -1417 -2141
-1464 -2169 -36 -21 -107 -96 -274 -288 -123 -143 -226 -266 -229 -273 -3 -7
32 -100 78 -206 l84 -194 160 -6 c88 -3 653 -11 1255 -17 602 -7 1096 -13
1098 -14 1 -1 6 -198 9 -437 l6 -435 -114 -17 c-63 -9 -131 -20 -151 -23 l-38
-6 0 -272 0 -273 -65 -24 -65 -23 0 -545 0 -546 65 -35 65 -34 0 -390 -1 -390
-874 -660 c-481 -363 -877 -667 -879 -675 -2 -8 -125 -859 -272 -1890 -147
-1031 -268 -1876 -269 -1878 -1 -1 -56 -21 -121 -44 -65 -23 -120 -42 -121
-43 -1 0 -84 -541 -183 -1200 -125 -826 -274 -1888 -480 -3405 -165 -1213
-301 -2216 -304 -2230 -4 -23 6 -32 124 -100 106 -62 128 -78 125 -95 -3 -11
-138 -990 -301 -2175 -163 -1185 -300 -2158 -303 -2162 -3 -3 -332 -14 -731
-22 -399 -9 -776 -19 -838 -22 l-113 -6 -825 -1030 c-453 -566 -825 -1033
-827 -1037 -1 -5 41 -42 93 -82 l95 -74 -340 -6 -340 -7 -715 -114 -715 -114
-3 -965 -2 -965 788 -128 787 -128 381 3 381 4 315 -675 315 -675 610 0 610 0
1842 -2223 1842 -2222 1242 0 1242 0 523 -2037 c288 -1121 532 -2075 544
-2120 l20 -81 129 -32 c91 -23 130 -37 133 -49 42 -141 220 -918 262 -1140 49
-265 75 -366 244 -971 104 -371 253 -910 331 -1196 l143 -522 1086 -287 c597
-159 1101 -292 1121 -298 36 -9 37 -11 59 -93 13 -46 28 -90 34 -98 9 -12
2033 -546 2067 -546 5 0 8 377 7 972 l-3 973 -98 29 -97 30 2 850 3 850 170
39 c93 21 170 39 171 40 1 1 -13 1431 -32 3177 -18 1746 -33 3272 -34 3390 l0
215 550 645 c535 626 556 653 734 915 l184 270 2228 616 2229 616 3 96 3 97
28 0 c16 0 43 3 60 6 27 6 31 11 31 40 0 33 0 33 60 40 l60 7 0 303 0 304 -60
0 -60 0 0 755 0 755 58 0 c31 0 392 11 802 25 410 14 751 25 758 25 8 0 12 19
12 64 l0 63 -127 7 c-71 3 -432 15 -803 26 -371 11 -708 23 -747 26 l-73 6 0
46 c0 26 16 99 34 162 23 78 30 116 22 119 -6 3 -994 282 -2196 621 l-2185
616 -199 271 -200 271 -270 6 c-149 3 -370 9 -490 12 l-220 6 -252 242 -252
241 -1 1399 -1 1400 36 52 36 52 -31 1459 c-17 802 -32 1503 -33 1558 l-2 99
152 56 152 55 0 1882 0 1882 -37 10 c-21 5 -85 20 -143 32 -58 12 -108 25
-112 28 -4 3 -8 733 -10 1622 l-3 1615 108 74 c89 61 107 78 107 99 0 47 -70
5872 -73 6035 l-2 159 -72 25 -73 24 0 273 0 273 -97 22 c-54 12 -108 24 -120
27 l-23 5 0 432 0 432 168 38 c92 20 175 39 185 42 16 5 17 50 17 757 l0 753
-65 28 -65 28 0 698 0 697 83 25 82 24 3 781 2 781 -42 16 c-24 9 -61 22 -83
30 l-40 13 -3 1585 -2 1585 70 32 c38 17 70 37 70 43 9 233 27 964 24 967 -3
3 -3994 40 -4499 41 l-220 0 -1108 -1779z"/>
</g>
</svg>
