<?xml version="1.0" standalone="no"?>
<!DOCTYPE svg PUBLIC "-//W3C//DTD SVG 20010904//EN"
 "http://www.w3.org/TR/2001/REC-SVG-20010904/DTD/svg10.dtd">
<svg version="1.0" xmlns="http://www.w3.org/2000/svg"
   viewBox="0 0 3504.000000 1194.000000"
 preserveAspectRatio="xMidYMid meet">
<metadata>
Created by potrace 1.16, written by Peter Selinger 2001-2019
</metadata>
<g transform="translate(0.000000,1194.000000) scale(0.100000,-0.100000)"
fill="#000000" stroke="none">
<path d="M2890 11913 c0 -21 37 -79 141 -222 77 -106 139 -194 137 -196 -4 -4
-496 -45 -539 -45 -20 0 -30 7 -39 30 -22 53 -27 54 -181 34 -78 -10 -146 -23
-151 -28 -5 -6 -17 -24 -27 -41 l-18 -30 -1019 -81 -1019 -81 -86 -44 -85 -44
216 -980 c119 -539 218 -987 222 -995 8 -20 260 -95 510 -152 160 -36 187 -45
183 -59 -4 -11 22 -41 84 -98 l89 -81 250 0 c230 0 251 -1 256 -17 3 -10 51
-196 107 -413 56 -217 105 -399 110 -405 5 -5 276 -102 602 -215 l592 -206 5
-185 5 -184 151 -147 151 -148 516 0 517 0 119 50 c130 55 171 60 216 29 17
-11 104 -56 194 -100 125 -60 167 -76 173 -67 9 12 5 70 -8 151 l-7 37 95 0
94 0 49 -101 c40 -82 58 -107 92 -130 41 -29 42 -29 196 -29 138 0 156 -2 161
-17 8 -20 2 -26 -196 -175 -103 -78 -137 -109 -138 -125 l0 -23 214 0 214 0
20 -67 c11 -38 35 -118 53 -180 l32 -112 56 -16 c31 -9 67 -19 81 -24 22 -7
79 -140 550 -1307 l526 -1299 71 -10 c40 -5 77 -14 82 -20 8 -8 37 -78 138
-331 2 -6 -9 -14 -26 -17 -24 -5 -375 -137 -543 -204 -39 -15 -44 -23 -104
-151 -35 -73 -64 -142 -64 -151 0 -13 55 -50 187 -126 l187 -107 153 -17 c129
-13 154 -18 159 -33 3 -10 12 -18 20 -18 8 0 14 -4 14 -9 0 -6 13 -23 29 -38
28 -27 31 -41 87 -368 46 -263 63 -344 77 -358 13 -13 24 -54 38 -145 26 -169
25 -167 55 -181 15 -6 28 -10 30 -8 2 2 -36 241 -85 531 -73 427 -88 532 -79
552 10 22 17 24 80 24 l68 0 0 -170 c0 -117 3 -170 11 -170 6 0 178 -27 382
-61 l372 -60 565 4 c526 4 571 6 648 25 45 11 94 28 109 37 23 15 81 19 491
31 255 7 466 14 468 17 2 2 -206 7 -463 11 -265 4 -474 11 -485 17 -16 8 -18
28 -20 190 l-3 181 -145 59 -145 58 -290 1 c-279 1 -289 1 -258 18 19 10 96
99 192 222 195 248 193 239 90 329 -39 33 -80 63 -92 66 -51 11 -255 35 -298
35 l-47 0 -20 60 -21 60 22 -4 c12 -3 45 -8 72 -11 28 -3 65 -9 83 -12 l32 -5
0 55 c0 30 -19 132 -41 227 l-41 172 -42 18 -41 17 -333 1367 c-320 1310 -333
1368 -316 1387 17 18 40 19 808 19 720 0 809 2 986 20 107 11 195 20 197 20
22 0 -37 48 -244 196 l-248 177 -160 30 c-154 29 -175 30 -532 36 l-372 6 60
84 c38 52 59 90 56 102 -7 26 26 51 127 98 l89 41 248 0 c154 0 250 4 254 10
4 6 172 10 470 10 l464 0 91 105 91 105 407 -1 407 0 253 -281 252 -281 0
-113 0 -112 143 -47 c78 -26 150 -55 159 -64 12 -11 24 -58 39 -154 l22 -137
300 0 299 0 811 -225 c446 -124 812 -227 812 -228 1 -1 113 -157 249 -347
l248 -345 941 -387 942 -386 299 -194 299 -193 402 -105 402 -105 914 -902
914 -902 270 -495 270 -495 400 -290 400 -291 638 -2 c350 -1 672 -3 714 -3
l76 0 20 59 c18 55 19 60 3 93 -9 20 -15 37 -14 39 2 2 343 4 757 4 l753 2 51
-76 52 -76 332 0 333 0 6 -28 c15 -68 -39 -62 519 -62 l504 0 8 43 9 42 338 3
338 2 130 125 130 125 1735 0 c1718 0 1735 0 1763 -20 27 -20 47 -20 1058 -22
l1031 -3 -18 -41 -19 -41 159 -174 c154 -169 162 -176 286 -251 l127 -78 256
0 256 0 17 30 18 30 472 0 c363 0 485 3 530 14 32 7 60 16 63 19 3 2 -60 62
-139 133 l-143 129 -414 57 c-334 46 -417 61 -431 75 -17 17 -17 22 8 123 14
58 27 107 29 109 2 2 41 12 86 21 l83 18 -115 1 -115 2 -78 115 c-44 64 -80
125 -81 138 -2 17 -143 296 -149 296 -1 0 -179 49 -395 109 l-393 108 -151
-28 c-82 -16 -154 -31 -159 -34 -4 -3 -369 62 -810 145 -441 82 -809 150 -818
150 -8 0 -31 -18 -51 -39 l-35 -40 -445 39 c-245 22 -450 40 -456 40 -7 0 -19
-11 -28 -25 -15 -23 -15 -28 -1 -56 9 -17 15 -32 13 -34 -2 -2 -202 -5 -444
-7 l-441 -3 -37 67 c-20 36 -34 73 -30 81 3 8 18 21 34 27 53 22 53 26 3 191
-26 85 -47 155 -48 156 0 1 -140 20 -310 41 l-310 39 -126 -48 c-77 -30 -130
-56 -135 -68 -9 -17 -73 -8 -1184 154 -646 95 -1214 178 -1262 185 l-88 12
-12 39 c-7 26 -18 41 -32 44 -12 3 -264 36 -561 75 -297 39 -555 73 -572 76
-31 6 -33 5 -33 -25 0 -17 -3 -31 -7 -31 -5 0 -48 7 -98 15 -49 8 -93 15 -96
15 -4 0 -12 -28 -18 -63 -6 -34 -14 -74 -17 -90 -3 -16 -12 -27 -22 -27 -20 0
-2004 379 -2009 383 -1 2 29 49 68 105 l70 102 -22 96 -22 95 -381 552 -380
552 -627 1079 -627 1080 36 29 c21 16 37 33 37 38 0 5 -265 231 -589 502
l-589 492 -72 154 c-39 85 -78 159 -86 163 -8 5 -993 256 -2190 557 l-2175
549 -645 305 -646 305 -1614 427 c-888 235 -1663 440 -1722 455 l-109 29 7
-27 c4 -15 31 -57 62 -95 30 -38 53 -70 51 -72 -2 -3 -388 122 -858 277 l-853
281 -541 344 -540 345 -161 35 -160 35 -67 -39 c-41 -25 -77 -39 -90 -36 -13
2 -536 74 -1163 160 l-1140 157 -655 6 c-360 4 -667 10 -682 14 -26 8 -28 6
-28 -21z m8573 -4447 c37 -7 73 -18 80 -25 8 -8 -88 -11 -388 -11 l-398 0 23
25 23 25 296 0 c202 -1 318 -5 364 -14z m-3293 -4205 l324 -46 28 -89 c15 -49
27 -91 25 -92 -1 -2 -154 -4 -340 -6 l-337 -3 -59 148 -60 148 47 -7 c26 -4
193 -28 372 -53z"/>
</g>
</svg>
