<?xml version="1.0" standalone="no"?>
<!DOCTYPE svg PUBLIC "-//W3C//DTD SVG 20010904//EN"
 "http://www.w3.org/TR/2001/REC-SVG-20010904/DTD/svg10.dtd">
<svg version="1.0" xmlns="http://www.w3.org/2000/svg"
   viewBox="0 0 3175.000000 1269.000000"
 preserveAspectRatio="xMidYMid meet">
<metadata>
Created by potrace 1.16, written by Peter Selinger 2001-2019
</metadata>
<g transform="translate(0.000000,1269.000000) scale(0.100000,-0.100000)"
fill="#000000" stroke="none">
<path d="M7647 12658 c-8 -18 -36 -84 -62 -145 l-48 -113 -274 0 -273 0 -131
-130 -131 -129 7 -533 8 -533 54 -62 c30 -34 55 -65 55 -70 1 -4 24 -34 52
-65 38 -43 57 -58 77 -58 15 0 41 -3 58 -6 l31 -6 0 -97 c0 -95 0 -97 -24 -96
-16 0 -65 -36 -155 -115 l-131 -114 0 -382 c0 -327 -2 -383 -15 -394 -13 -11
-15 -92 -15 -624 l0 -611 120 -375 120 -374 0 -501 0 -500 -49 -42 -50 -43
-243 0 c-277 -1 -332 -9 -428 -63 -36 -20 -170 -124 -299 -231 l-234 -195 -70
-3 -70 -3 -26 -78 -26 -78 -112 -93 -111 -93 -159 -6 c-87 -4 -201 -7 -253 -7
l-95 1 -41 67 -41 67 -265 3 -266 2 -43 -70 -44 -70 -229 0 -229 0 -49 -31
-48 -31 0 -72 0 -71 -438 -148 -437 -147 -537 0 -538 0 0 -80 0 -80 -65 0 -65
0 0 -40 0 -40 -67 0 c-50 0 -186 -26 -520 -102 l-453 -102 0 -47 0 -46 -48 -6
c-26 -3 -109 -12 -184 -18 l-138 -13 0 -99 0 -100 106 7 c84 5 105 4 102 -6
-3 -9 -39 -16 -106 -22 l-102 -8 0 -124 0 -124 105 0 105 0 0 -35 0 -35 -74 0
c-40 0 -88 -3 -105 -6 l-31 -7 0 -122 0 -122 68 -6 c37 -4 84 -7 105 -7 36 0
37 -1 37 -35 l0 -35 -105 0 -105 0 0 -119 0 -119 28 -6 c15 -3 60 -8 101 -12
41 -3 80 -11 86 -18 9 -8 -18 -10 -102 -8 l-113 4 0 -96 c0 -112 -19 -99 175
-116 72 -6 145 -13 163 -16 l32 -5 0 -69 c0 -57 3 -70 18 -74 9 -3 207 -50
440 -106 l423 -100 1336 0 1335 0 158 115 158 115 211 0 211 0 69 50 69 50
1152 -2 1151 -3 517 -1268 517 -1267 160 -136 c88 -75 174 -147 191 -160 27
-21 144 -45 919 -194 l889 -169 31 36 c16 21 62 82 102 136 63 88 70 102 62
125 -5 13 -8 26 -7 27 2 2 388 -70 858 -160 848 -162 855 -163 876 -144 11 10
58 71 104 135 79 111 83 118 72 146 -10 28 -10 30 11 25 12 -3 391 -76 842
-162 451 -86 830 -159 841 -161 18 -5 36 13 106 108 47 62 92 124 101 138 16
25 13 35 -122 363 l-139 337 897 0 896 0 900 530 c725 428 1038 618 1143 696
2 1 -9 25 -23 54 -14 29 -24 55 -21 58 4 3 286 -2 627 -11 l622 -16 110 71
c75 48 114 68 123 62 7 -5 83 -92 169 -194 195 -230 235 -265 330 -280 49 -8
65 -7 101 10 109 47 160 110 175 213 10 70 10 76 -14 123 -14 27 -96 132 -182
232 -86 101 -155 185 -153 186 2 1 65 42 141 90 l137 88 0 139 0 139 614 0
614 0 181 253 181 254 412 6 c227 4 1189 7 2138 7 l1726 0 209 -70 c115 -39
213 -69 217 -68 4 2 -78 32 -183 68 l-191 65 699 6 c384 3 885 8 1113 10 391
3 376 3 -262 8 -372 4 -679 8 -682 12 -3 3 15 60 41 127 l46 122 763 0 764 0
-16 -38 c-9 -20 -18 -43 -21 -49 -4 -10 321 -13 1608 -13 l1614 0 78 124 77
124 0 86 0 86 -1555 0 c-1548 0 -1555 0 -1555 -20 0 -20 -7 -20 -745 -20 -738
0 -745 0 -745 20 0 20 -7 20 -460 20 -300 0 -460 3 -460 10 0 7 -223 10 -649
10 l-648 0 -7 77 c-3 42 -6 91 -6 110 l0 33 125 0 125 0 0 70 0 70 -129 0
-129 0 -4 65 c-1 36 1 65 6 65 4 0 37 21 72 47 l64 47 0 375 c0 269 4 412 15
501 8 69 15 130 15 136 0 19 -173 34 -391 34 l-214 0 -115 -54 c-90 -42 -116
-58 -118 -75 l-4 -22 -33 25 -34 26 -313 0 c-305 0 -318 1 -478 30 -185 34
-290 39 -290 15 0 -13 -46 -15 -350 -15 l-350 0 0 115 0 115 -60 0 -60 0 0
-115 0 -115 -1477 0 -1477 0 -226 85 -226 85 -407 0 c-387 0 -407 1 -407 18 0
10 -10 28 -23 40 -22 21 -32 22 -215 22 -116 0 -193 -4 -197 -10 -4 -6 -212
-10 -591 -10 l-584 0 0 32 c0 56 -50 190 -83 226 l-31 32 -166 0 -166 0 -31
-32 c-33 -36 -83 -170 -83 -226 l0 -32 -235 0 -235 0 0 159 0 159 73 17 c39 9
89 20 110 26 l38 10 -3 157 -3 156 -107 25 -108 24 0 54 0 53 -280 0 c-309 0
-281 -6 -284 57 -1 13 23 22 114 43 l115 27 3 35 3 36 -83 7 c-46 3 -153 5
-238 3 l-155 -3 -62 -515 c-34 -283 -62 -518 -62 -522 -1 -5 -280 -8 -621 -8
l-620 0 0 30 0 30 -787 0 -788 1 -80 74 -80 75 -1197 0 -1198 0 0 299 0 299
31 6 c17 3 49 6 71 6 21 0 314 -74 651 -163 l612 -164 1255 143 c690 79 1261
143 1268 144 9 0 12 44 12 185 l0 184 -1936 2498 c-1065 1374 -1943 2504
-1950 2512 -12 13 -76 13 -491 -1 l-478 -16 -22 26 -23 27 23 7 c12 3 182 11
377 17 195 7 383 14 418 18 l62 5 0 174 0 174 -67 0 c-38 0 -286 7 -553 15
-267 8 -536 15 -597 15 l-113 0 -13 -32z m-299 -1867 c11 -6 12 -28 7 -100
l-8 -91 -52 0 c-29 0 -67 3 -84 6 l-31 7 0 93 0 94 78 0 c42 0 83 -4 90 -9z
m631 -37 l31 -6 0 -105 c0 -104 0 -105 -22 -99 -13 3 -35 6 -50 6 l-28 0 0
105 c0 116 -2 113 69 99z m31 -1409 l0 -105 -34 0 c-65 0 -66 2 -66 111 l0 99
50 0 50 0 0 -105z m422 -1207 c70 -50 127 -93 125 -94 -1 -1 -31 1 -67 5 -65
7 -96 23 -293 152 -21 14 7 29 56 29 50 0 58 -4 179 -92z m-1884 -1855 c-32
-2 -86 -2 -120 0 -35 2 -9 3 57 3 66 0 94 -1 63 -3z m15745 -629 c-8 -4 3 -31
33 -80 24 -42 44 -78 44 -80 0 -2 -66 -4 -147 -4 l-148 0 -240 85 -240 84 355
0 c195 0 350 -3 343 -5z m1052 -19 l120 -23 -148 -1 c-146 -1 -151 -2 -387
-61 -132 -33 -260 -60 -285 -60 -49 0 -47 -2 -119 123 l-28 47 364 -1 c338 0
371 -2 483 -24z m-625 -1340 c22 -13 -4 -14 -227 -15 -218 0 -253 -2 -253 -15
0 -12 -18 -15 -105 -15 l-106 0 23 30 22 30 310 0 c251 -1 316 -3 336 -15z
m-480 -500 l0 -25 1195 0 1195 0 0 -40 0 -40 -1157 0 c-637 0 -1310 3 -1495 7
l-337 6 20 29 20 28 150 0 149 0 0 30 0 30 130 0 130 0 0 -25z"/>
</g>
</svg>
