<?xml version="1.0" standalone="no"?>
<!DOCTYPE svg PUBLIC "-//W3C//DTD SVG 20010904//EN"
 "http://www.w3.org/TR/2001/REC-SVG-20010904/DTD/svg10.dtd">
<svg version="1.0" xmlns="http://www.w3.org/2000/svg"
   viewBox="0 0 4628.000000 816.000000"
 preserveAspectRatio="xMidYMid meet">
<metadata>
Created by potrace 1.16, written by Peter Selinger 2001-2019
</metadata>
<g transform="translate(0.000000,816.000000) scale(0.100000,-0.100000)"
fill="#000000" stroke="none">
<path d="M22280 7825 l0 -335 -224 0 c-123 0 -238 3 -255 6 -27 6 -31 10 -31
40 0 24 -5 34 -15 34 -10 0 -15 -10 -15 -34 0 -43 -9 -46 -172 -46 l-128 0 0
34 c0 40 -11 46 -81 46 l-49 0 0 -40 0 -40 -175 0 -175 0 0 -497 0 -497 -67
-68 -67 -67 -72 39 c-39 22 -77 40 -84 40 -7 0 -70 -31 -140 -70 -70 -38 -130
-70 -134 -70 -3 0 -6 32 -6 70 0 40 -4 70 -10 70 -6 0 -10 54 -10 141 l0 141
-27 -6 c-16 -3 -379 -58 -808 -121 -429 -64 -790 -118 -802 -120 -13 -3 -23
-12 -23 -20 0 -13 -59 -15 -445 -15 l-445 0 0 -240 0 -240 -285 0 -285 0 0
-55 c0 -55 0 -55 31 -55 29 0 30 -1 27 -42 l-3 -42 -450 -154 -450 -155 -275
-18 c-151 -10 -477 -29 -725 -44 -538 -30 -555 -32 -555 -51 0 -12 -66 -14
-445 -14 -290 0 -445 3 -445 10 0 6 -27 10 -60 10 -57 0 -73 6 -343 143 l-282
142 -1265 5 -1265 5 -617 130 -618 130 0 117 0 118 -125 0 c-117 0 -125 1
-125 19 0 13 -9 21 -30 26 -25 6 -30 12 -31 38 -2 31 -2 31 -6 5 -2 -16 -8
-28 -11 -28 -4 0 -81 22 -172 48 l-164 49 -108 -167 c-105 -162 -108 -169
-108 -224 l0 -56 -360 0 -360 0 0 30 c0 36 -23 50 -79 50 l-41 0 0 -40 0 -40
-1040 0 c-824 0 -1041 3 -1044 13 -3 6 -7 24 -10 40 -6 27 -8 27 -81 27 -85 0
-102 17 -22 23 28 2 -31 3 -133 3 -102 0 -161 -1 -133 -3 75 -6 66 -23 -12
-23 -59 0 -65 -2 -65 -21 0 -11 -5 -29 -10 -40 -10 -18 -29 -19 -686 -19
l-676 0 -658 -115 c-363 -63 -666 -115 -675 -115 -13 0 -15 17 -15 110 0 67
-4 110 -10 110 -6 0 -10 -45 -10 -114 l0 -114 -28 -6 c-15 -3 -108 -19 -207
-36 -99 -17 -190 -33 -202 -35 -19 -5 -23 -1 -23 20 0 16 6 25 15 25 8 0 15 5
15 10 0 6 -10 8 -22 5 -13 -3 -99 -19 -192 -35 -158 -28 -207 -40 -159 -40 12
0 23 -8 26 -20 6 -24 4 -26 -57 -35 -27 -3 -55 -9 -62 -12 -12 -4 -14 29 -14
191 0 124 -4 196 -10 196 -6 0 -10 -71 -10 -194 0 -218 8 -199 -83 -212 -26
-3 -50 -10 -53 -15 -3 -5 -162 -9 -354 -9 l-349 0 -3 33 c-3 31 -5 32 -50 35
l-48 3 -1 62 c-2 70 -5 57 -14 -55 l-7 -78 -46 0 c-38 0 -93 -21 -304 -117
l-256 -118 -5 -40 c-2 -24 15 -143 44 -295 73 -380 68 -360 89 -360 11 0 20
-10 24 -25 8 -32 29 -32 92 0 47 24 57 25 232 25 l182 0 0 -95 0 -95 -185 0
c-170 0 -188 2 -213 20 -15 11 -42 24 -61 30 -31 9 -34 7 -44 -20 -7 -18 -19
-30 -29 -30 -10 0 -18 -1 -18 -2 0 -2 -27 -138 -59 -303 -43 -221 -57 -312
-52 -344 l6 -44 222 -101 222 -101 1 -152 0 -153 560 0 560 0 0 -75 c0 -43 4
-75 10 -75 6 0 10 32 10 75 l0 75 153 0 c123 0 208 -8 442 -40 159 -22 295
-40 302 -40 8 0 13 -13 13 -35 0 -19 5 -35 10 -35 6 0 10 14 10 30 0 22 5 30
18 30 9 0 163 -20 342 -45 193 -27 362 -45 417 -45 l93 0 0 105 0 105 215 0
215 0 0 -430 0 -430 22 -5 c146 -34 172 -35 649 -35 l479 0 0 -140 0 -140 59
0 59 0 7 -97 c10 -153 12 -157 14 -25 l1 122 244 0 244 0 5 -22 c3 -13 11 -58
18 -101 10 -58 17 -77 28 -77 9 0 94 14 189 30 119 21 212 31 295 32 92 1 109
3 67 8 -30 3 -48 9 -40 12 34 15 695 118 755 118 l65 0 0 -120 c0 -73 4 -120
10 -120 6 0 10 47 10 120 l0 120 95 0 94 0 58 98 c31 53 58 99 60 101 1 2 89
-2 195 -8 l193 -11 615 -158 615 -157 340 -5 340 -5 3 -127 c1 -74 7 -128 12
-128 6 0 10 111 10 295 l0 295 2390 0 2389 0 145 -167 146 -168 0 -231 c0
-223 1 -232 20 -237 19 -5 20 -14 20 -211 0 -131 4 -206 10 -206 6 0 10 77 10
210 l0 210 1030 0 1030 0 0 -150 c0 -82 4 -150 9 -150 5 0 11 55 15 122 3 68
8 185 12 260 l7 138 36 9 c217 58 307 81 314 81 4 0 7 -61 7 -135 l0 -135
1613 0 1612 0 70 28 70 27 2038 -3 2037 -2 0 -220 c0 -140 4 -220 10 -220 6 0
10 80 10 220 l0 220 2323 0 2322 -1 165 -354 164 -355 63 0 63 0 0 -120 0
-120 1370 0 1370 0 0 -235 0 -235 30 0 30 0 0 235 0 235 268 0 268 0 93 327
c52 181 98 343 103 361 l9 32 211 0 c171 0 2348 68 2671 83 l87 4 0 -123 0
-124 429 0 429 0 111 149 c61 81 111 153 111 160 0 8 103 11 390 11 l390 0 0
-145 0 -144 208 -5 c251 -6 238 -6 545 0 l247 5 0 144 0 145 55 0 55 0 0 -60
c0 -33 4 -60 10 -60 6 0 10 27 10 60 l0 60 295 0 295 0 3 -227 2 -228 3 228 2
227 745 0 745 0 0 -225 c0 -143 4 -225 10 -225 6 0 10 82 10 225 0 218 1 225
20 225 19 0 20 7 20 235 l0 235 75 0 75 0 0 -145 0 -145 500 0 500 0 0 145 0
145 40 0 c29 0 40 4 40 15 0 13 51 15 395 15 344 0 395 -2 395 -15 0 -8 9 -15
20 -15 11 0 20 7 20 15 0 13 84 15 699 15 l700 0 4 -27 4 -28 2 28 1 27 685 0
c602 0 685 2 685 15 0 13 -76 15 -624 15 -342 0 -651 3 -684 6 l-61 7 -4 46
-3 46 -2 -47 -2 -48 -678 0 -677 0 -24 45 c-29 54 -51 57 -77 10 l-19 -35
-377 0 c-370 0 -378 0 -378 20 0 12 -8 21 -22 25 -28 6 -1571 195 -1593 195
-13 0 -15 18 -15 115 l0 115 250 0 250 0 0 70 0 70 -250 0 -250 0 0 40 0 40
625 0 625 0 0 300 0 300 -24 0 c-13 0 -342 20 -732 45 -389 25 -723 45 -741
45 l-33 0 0 238 0 239 -30 41 -30 42 0 1000 0 1000 195 0 195 0 0 50 0 50
-145 0 -145 0 0 34 c0 39 -11 46 -76 46 l-44 0 0 -40 0 -40 -67 2 c-64 2 -65
2 -15 5 28 2 52 5 52 6 0 2 -22 70 -50 152 l-50 149 0 288 0 288 65 0 c51 0
65 3 65 15 0 12 -14 15 -65 15 -63 0 -65 1 -65 25 l0 25 -265 0 -265 0 0 370
0 370 -25 0 -25 0 0 -370 0 -370 -2495 0 -2495 0 0 34 c0 39 -11 46 -76 46
l-44 0 0 -40 c0 -37 -2 -40 -27 -40 -16 0 -35 5 -43 10 -13 9 -13 12 3 24 41
32 20 36 -168 36 -188 0 -209 -4 -167 -36 15 -12 15 -15 2 -24 -10 -6 -219
-10 -580 -10 l-566 0 4 35 4 35 -62 0 -62 0 4 -35 4 -35 -183 0 -183 0 0 60 0
60 -1530 0 -1530 0 0 -60 0 -60 -2378 0 -2378 0 -822 80 c-451 44 -828 80
-836 80 -14 0 -16 26 -16 205 l0 205 -55 0 c-54 0 -55 0 -55 30 l0 30 -80 0
-80 0 0 -30 0 -30 -370 0 -370 0 0 335 0 335 -30 0 -30 0 0 -335z m-4720
-2645 l0 -40 -1657 0 -1658 1 -75 39 -75 39 1733 1 1732 0 0 -40z m23440
-2620 l0 -40 -225 0 -225 0 0 40 0 40 225 0 225 0 0 -40z m0 -290 c0 -60 -2
-110 -5 -110 -11 0 -583 70 -612 75 -32 6 -33 7 -33 55 l0 50 100 0 c93 0 100
1 100 20 0 19 7 20 225 20 l225 0 0 -110z m-2740 50 c0 -19 -7 -20 -164 -20
-159 0 -164 1 -159 20 5 19 14 20 164 20 152 0 159 -1 159 -20z m520 0 c0 -19
-7 -20 -250 -20 -243 0 -250 1 -250 20 0 19 7 20 250 20 243 0 250 -1 250 -20z
m130 0 c0 -17 -7 -20 -50 -20 -43 0 -50 3 -50 20 0 17 7 20 50 20 43 0 50 -3
50 -20z m340 0 c0 -19 -7 -20 -155 -20 -148 0 -155 1 -155 20 0 19 7 20 155
20 148 0 155 -1 155 -20z m130 0 c0 -17 -7 -20 -45 -20 -38 0 -45 3 -45 20 0
17 7 20 45 20 38 0 45 -3 45 -20z m930 -27 l0 -48 -386 3 c-342 2 -386 1 -380
-13 3 -8 28 -49 56 -90 l51 -75 -81 0 -80 0 0 103 c0 112 -6 127 -52 127 -21
0 -28 5 -28 20 0 20 7 20 450 20 l450 0 0 -47z m2998 -400 c-65 -2 -171 -2
-235 0 -65 1 -12 3 117 3 129 0 182 -2 118 -3z"/>
</g>
</svg>
