<?xml version="1.0" standalone="no"?>
<!DOCTYPE svg PUBLIC "-//W3C//DTD SVG 20010904//EN"
 "http://www.w3.org/TR/2001/REC-SVG-20010904/DTD/svg10.dtd">
<svg version="1.0" xmlns="http://www.w3.org/2000/svg"
   viewBox="0 0 4624.000000 2380.000000"
 preserveAspectRatio="xMidYMid meet">
<metadata>
Created by potrace 1.16, written by Peter Selinger 2001-2019
</metadata>
<g transform="translate(0.000000,2380.000000) scale(0.100000,-0.100000)"
fill="#000000" stroke="none">
<path d="M30755 23759 l-1860 -37 -1590 -101 c-874 -55 -1622 -103 -1661 -106
l-70 -6 -34 -175 c-21 -106 -39 -174 -46 -174 -13 0 -3334 -326 -3409 -335
l-51 -6 -19 115 c-10 63 -22 121 -26 127 -5 9 -410 -51 -1550 -230 l-1544
-242 -2235 -460 c-1229 -253 -2236 -464 -2238 -468 -12 -34 -47 -45 -417 -135
-388 -93 -390 -93 -411 -74 -21 19 -24 18 -488 -98 -393 -99 -466 -120 -466
-135 0 -21 22 -14 -285 -89 -137 -33 -257 -63 -266 -65 -11 -4 -18 2 -22 16
-4 15 -11 19 -24 15 -10 -3 -301 -77 -648 -165 -531 -135 -1106 -297 -3674
-1035 -1674 -481 -3045 -877 -3047 -879 -2 -2 1 -43 7 -91 6 -48 9 -89 7 -90
-16 -12 -1784 -586 -1794 -582 -10 4 -12 21 -7 72 6 63 5 67 -13 60 -10 -3
-613 -237 -1340 -518 l-1321 -511 -106 -234 -107 -234 100 -199 c55 -110 103
-200 108 -200 9 0 836 -133 840 -135 10 -7 65 -308 86 -475 20 -154 34 -226
57 -290 16 -47 33 -90 37 -96 4 -7 1060 -292 2348 -636 l2341 -623 1183 68
c650 38 1184 66 1187 64 2 -3 17 -155 33 -338 16 -184 31 -350 33 -371 5 -34
3 -36 -29 -43 -33 -6 -34 -7 -29 -43 11 -79 137 -959 144 -1002 5 -33 -10
-146 -57 -425 -51 -309 -62 -400 -62 -489 0 -61 3 -112 6 -115 3 -3 55 -8 116
-11 l112 -5 29 -190 c15 -104 30 -191 31 -193 2 -1 51 5 110 14 62 10 111 13
115 8 4 -5 38 -187 75 -404 37 -217 69 -403 72 -412 3 -10 15 -18 27 -18 55
-1 2213 334 2225 345 12 11 10 34 -7 144 -25 157 -26 171 -6 171 8 0 15 -1 15
-2 0 -2 16 -126 34 -277 28 -224 37 -276 52 -291 18 -17 78 -18 1111 -22 985
-4 1091 -3 1083 11 -26 50 -191 423 -188 426 1 1 354 -22 783 -53 l780 -56
1220 87 c671 48 1230 88 1242 87 15 0 71 -54 187 -182 257 -283 219 -260 654
-403 l367 -121 545 62 c300 35 552 63 561 63 11 1 25 -18 38 -50 17 -38 27
-50 39 -46 164 43 1199 342 1206 348 4 4 3 29 -2 55 -7 30 -7 51 -1 54 5 4 85
28 179 54 l169 48 43 87 43 86 790 147 c435 81 791 148 793 148 1 0 2 -10 2
-22 0 -13 4 -29 9 -37 6 -9 417 -97 1197 -257 l1189 -243 162 -68 161 -68 81
-106 82 -106 388 -98 389 -98 39 -151 c22 -83 40 -151 39 -152 -1 0 -392 17
-871 38 l-870 38 -450 -132 c-247 -72 -451 -132 -452 -132 -1 -1 -5 -116 -8
-256 l-7 -255 437 -134 c412 -125 444 -134 542 -139 l103 -5 0 -36 c0 -30 10
-50 53 -102 l53 -64 100 -18 c123 -22 1157 -88 1374 -87 l154 0 63 62 c61 61
62 62 65 122 2 45 7 61 18 63 9 2 181 -215 455 -576 l440 -578 682 -484 682
-484 736 -292 737 -293 804 -75 805 -75 792 234 792 235 595 351 595 352 705
-102 c388 -56 705 -103 706 -104 7 -14 69 -387 86 -514 l23 -174 250 -173 250
-173 480 -127 c264 -70 485 -132 491 -139 6 -6 77 -333 159 -726 89 -430 155
-727 166 -745 15 -26 149 -100 781 -434 l763 -402 575 -621 c372 -402 586
-626 607 -634 17 -8 474 -178 1015 -380 864 -321 1134 -428 2230 -876 l1246
-510 79 -116 78 -116 92 -30 92 -30 117 27 c65 15 119 29 120 30 1 1 -32 313
-72 692 -56 526 -108 939 -219 1739 l-145 1049 -174 906 c-213 1104 -588 2854
-1167 5440 l-180 805 -300 1035 c-165 570 -420 1438 -565 1928 l-266 893 -353
652 -353 653 -528 316 -529 316 -1570 426 -1570 425 -1495 327 c-881 193
-1499 333 -1506 341 -6 7 -16 84 -23 171 -7 87 -16 175 -20 196 l-6 39 -92 29
c-88 28 -92 31 -97 62 -7 47 -26 553 -26 693 l0 121 -215 63 -215 63 41 76
c23 42 47 83 55 90 7 8 125 54 261 102 l248 87 -2 53 c-9 193 -256 3305 -263
3309 -4 3 -444 66 -977 140 -532 74 -971 139 -975 145 -6 8 -65 187 -110 333
l-10 32 -101 -1 c-56 -1 -939 -19 -1962 -40z m-16505 -2424 c0 -2 -16 -33 -35
-69 -23 -41 -44 -66 -58 -70 -12 -3 -715 -161 -1562 -351 -847 -190 -1549
-348 -1560 -351 -15 -4 -17 -3 -5 4 8 5 252 67 543 138 448 109 527 131 527
146 0 12 12 20 38 27 20 6 145 37 277 70 216 54 241 59 252 44 11 -14 59 -4
475 97 255 62 479 119 498 128 40 17 578 190 598 191 6 1 12 -1 12 -4z m5263
-7735 l245 -130 1319 0 1319 0 196 -197 c107 -109 198 -207 201 -218 10 -37
40 -395 34 -401 -3 -3 -870 42 -1927 100 l-1921 106 -247 227 c-136 124 -260
238 -275 252 l-28 25 -820 37 c-451 21 -822 39 -824 41 -1 1 2 39 9 83 l11 80
1180 61 c649 34 1203 62 1231 63 48 1 69 -8 297 -129z m-8485 -1160 l0 -285
-39 245 c-21 135 -38 258 -39 275 0 20 10 40 33 63 32 33 32 33 39 10 3 -13 6
-151 6 -308z m8668 -1205 c-120 -36 -220 -66 -222 -67 -1 -2 2 -25 8 -51 5
-27 8 -50 6 -52 -1 -1 -223 -27 -493 -57 -375 -42 -497 -52 -522 -45 -18 6
-33 13 -33 17 0 3 120 61 268 129 l267 123 445 33 c245 18 456 33 470 33 14 1
-73 -28 -194 -63z"/>
</g>
</svg>
