<?xml version="1.0" standalone="no"?>
<!DOCTYPE svg PUBLIC "-//W3C//DTD SVG 20010904//EN"
 "http://www.w3.org/TR/2001/REC-SVG-20010904/DTD/svg10.dtd">
<svg version="1.0" xmlns="http://www.w3.org/2000/svg"
   viewBox="0 0 3766.000000 1364.000000"
 preserveAspectRatio="xMidYMid meet">
<metadata>
Created by potrace 1.16, written by Peter Selinger 2001-2019
</metadata>
<g transform="translate(0.000000,1364.000000) scale(0.100000,-0.100000)"
fill="#000000" stroke="none">
<path d="M7560 13583 l-195 -56 -913 -562 -912 -562 -79 14 -78 15 -155 -101
-154 -101 -125 7 -125 6 -134 -88 -135 -87 -56 6 c-55 5 -61 3 -146 -44 l-89
-50 -46 -97 c-26 -54 -61 -138 -79 -187 l-33 -89 -141 -92 c-132 -86 -143 -95
-170 -149 l-30 -58 -460 -282 -460 -283 -3 -206 -2 -207 -786 0 -785 0 -129
-132 -129 -133 0 -980 0 -980 124 -135 124 -135 955 -5 954 -5 44 -50 c23 -27
52 -59 63 -70 18 -19 63 -24 525 -63 278 -24 520 -46 538 -49 l32 -5 0 -84 0
-85 -117 6 c-133 7 -1645 55 -1717 55 l-46 0 0 -165 0 -165 -798 0 -798 0 -27
-28 -27 -28 0 -1981 0 -1981 -67 -6 c-38 -3 -210 -8 -383 -11 -173 -3 -332 -8
-352 -11 l-38 -6 0 -53 0 -53 67 -6 c38 -3 205 -8 373 -11 168 -3 326 -8 353
-11 l47 -6 0 -111 c0 -107 1 -112 27 -139 l27 -28 798 0 798 0 0 -345 0 -345
23 0 c12 0 580 18 1262 40 682 22 1241 40 1243 40 1 0 2 -94 2 -209 l0 -208
57 -50 c32 -27 129 -102 216 -166 l159 -117 79 0 79 0 0 -660 0 -660 1320 0
1320 0 0 595 0 595 201 0 202 0 38 35 c38 34 42 35 119 35 l80 0 0 30 0 30 80
0 80 0 0 -660 0 -660 1320 0 1320 0 0 660 0 660 74 0 c114 0 133 19 344 343
l172 265 0 114 0 114 -50 19 c-27 10 -48 21 -46 22 3 4 2173 53 2324 53 l92 0
0 59 0 59 -122 6 c-68 3 -604 15 -1193 27 -588 12 -1072 24 -1074 25 -2 2 13
33 33 69 l36 66 0 264 0 264 -57 43 c-32 23 -125 74 -208 113 l-150 70 -397 5
-397 5 464 740 464 740 1 343 0 342 1958 0 1957 0 66 -87 c36 -49 211 -295
389 -548 177 -253 359 -511 403 -572 l81 -113 2053 0 c1816 0 2054 2 2059 15
4 8 3 21 0 28 -3 6 -132 176 -286 377 l-280 365 58 3 c31 2 514 27 1072 56
l1015 53 107 -78 108 -77 62 5 c35 2 1298 64 2808 138 1510 74 2789 137 2843
141 l97 6 0 239 0 239 614 0 613 0 79 -105 79 -104 1512 -1 1511 0 467 -553
466 -553 126 -57 125 -57 543 0 543 0 25 30 26 30 595 0 596 0 71 52 71 52 83
166 84 167 131 105 132 105 174 7 c96 4 231 4 299 0 l125 -7 0 32 0 32 -167
-6 c-93 -3 -208 -2 -258 2 l-90 8 97 77 c54 42 162 123 241 180 l143 103 -635
437 -635 438 -84 0 -83 0 -466 322 -467 321 -375 129 -375 129 -473 44 -473
43 -74 59 -74 59 -363 33 c-200 19 -785 73 -1299 120 l-935 86 -100 -117 -100
-118 -1012 0 -1011 0 -6 28 c-3 15 -8 140 -12 279 l-7 252 -61 5 c-33 3 -425
24 -871 46 -445 22 -831 41 -857 43 l-48 4 -62 -96 -63 -96 -3175 193 -3175
192 -110 114 -110 114 -1045 42 c-575 23 -1048 45 -1051 48 -4 4 -39 93 -78
197 -40 105 -75 193 -79 197 -4 3 -1220 172 -2702 374 -1482 202 -2696 368
-2697 369 -2 1 -45 154 -97 339 -52 186 -97 340 -100 343 -3 3 -220 21 -483
40 -263 19 -481 37 -484 41 -4 4 -192 679 -418 1501 -226 822 -412 1495 -413
1496 -2 1 -68 48 -147 103 l-145 102 -1170 -1 -1171 -1 -195 -55z"/>
</g>
</svg>
