<?xml version="1.0" standalone="no"?>
<!DOCTYPE svg PUBLIC "-//W3C//DTD SVG 20010904//EN"
 "http://www.w3.org/TR/2001/REC-SVG-20010904/DTD/svg10.dtd">
<svg version="1.0" xmlns="http://www.w3.org/2000/svg"
   viewBox="0 0 4626.000000 996.000000"
 preserveAspectRatio="xMidYMid meet">
<metadata>
Created by potrace 1.16, written by Peter Selinger 2001-2019
</metadata>
<g transform="translate(0.000000,996.000000) scale(0.100000,-0.100000)"
fill="#000000" stroke="none">
<path d="M22395 9937 l-40 -22 0 -67 c0 -36 -3 -70 -7 -74 -4 -4 -285 3 -625
14 -467 16 -717 20 -1023 15 l-405 -5 -1155 -196 -1155 -195 -1555 -7 -1555
-7 -445 195 c-245 108 -456 195 -470 195 -14 -1 -62 15 -108 34 -45 20 -84 34
-86 32 -2 -2 -1 -38 4 -80 6 -67 15 -91 68 -191 l61 -115 -232 80 c-128 43
-239 81 -247 84 -12 3 -30 -34 -79 -166 -35 -94 -64 -171 -66 -171 -2 0 -61
20 -130 45 l-126 45 -11 -30 c-5 -17 -17 -30 -27 -30 -13 0 -39 -69 -120 -311
-56 -171 -101 -312 -99 -313 1 -2 17 -8 33 -14 23 -8 -14 -11 -161 -11 l-191
-1 -6 96 c-4 54 -9 99 -12 102 -3 4 -263 10 -578 14 -315 4 -763 13 -997 19
-234 7 -965 15 -1625 19 l-1200 7 -499 77 c-274 42 -501 74 -505 70 -3 -3 -8
-70 -9 -149 l-4 -143 93 -13 c52 -7 88 -14 82 -16 -10 -4 -796 79 -885 93
l-38 6 0 49 0 50 43 -5 c23 -3 157 -15 297 -26 140 -11 272 -22 293 -24 l38
-4 -3 111 -3 110 -353 118 c-313 104 -384 124 -620 173 l-267 56 -993 0 -992
0 0 -230 0 -230 65 0 c42 0 65 -4 65 -11 0 -9 -26 -10 -94 -5 -84 6 -95 4
-101 -11 -8 -20 -7 -574 1 -583 3 -3 47 -12 97 -20 l92 -15 3 -178 2 -177 658
-1 c609 -2 646 -3 507 -15 -82 -7 -167 -13 -187 -13 l-38 -1 0 -50 0 -50 -300
0 c-284 0 -309 -2 -487 -30 l-188 -30 -235 -102 c-129 -56 -239 -106 -245
-111 -6 -6 35 -7 115 -3 69 3 250 9 402 13 l278 6 0 -256 0 -257 -825 0 -825
0 -2 -962 -3 -961 -872 -301 c-642 -221 -872 -305 -870 -315 2 -16 -44 -35
-365 -145 l-197 -68 5 -38 5 -38 -80 -27 -81 -27 0 -68 c0 -65 21 -140 39
-140 4 0 33 9 64 19 45 16 56 17 59 6 2 -10 331 101 1176 396 l1173 409 1290
0 1289 0 0 -186 0 -187 61 7 c34 3 223 6 420 6 l359 0 0 180 0 180 239 0 238
0 107 -50 107 -50 1579 0 c1573 0 1580 0 1580 20 0 20 7 20 1709 20 1592 0
1710 -1 1713 -17 3 -17 -18 -13 1246 -214 l202 -32 0 -37 0 -37 213 -6 212 -6
325 -136 c179 -75 547 -222 817 -326 271 -103 555 -214 630 -245 76 -31 143
-58 149 -61 6 -2 14 8 18 22 5 19 11 25 24 21 68 -23 4807 -2007 4806 -2013
-1 -5 -4 -17 -8 -28 -5 -18 76 -54 915 -404 506 -211 922 -382 924 -380 1 2
16 41 32 85 l28 82 1114 -464 c612 -255 1116 -464 1120 -464 4 0 20 25 35 56
26 53 28 55 49 41 12 -8 76 -47 142 -87 66 -40 127 -78 135 -85 16 -13 99 -45
116 -45 5 0 16 16 23 36 11 30 11 38 0 44 -55 31 -207 148 -215 165 -7 14 -7
29 0 44 9 20 6 26 -19 45 -16 11 -41 26 -56 33 -24 10 -28 9 -31 -5 -2 -12
-13 -17 -35 -17 -28 0 -32 3 -28 22 2 13 6 26 9 31 3 5 -522 228 -1167 496
-645 269 -1174 490 -1175 491 -7 6 22 75 30 75 5 0 25 -7 45 -15 43 -18 59
-19 66 -2 3 6 26 57 51 111 l45 100 -274 114 c-246 103 -276 117 -297 149 -22
33 -147 86 -2508 1071 l-2484 1037 149 3 c83 1 184 -1 225 -5 67 -7 75 -10 78
-30 2 -13 5 -23 7 -23 2 0 626 -54 1387 -120 760 -66 1384 -116 1386 -112 2 8
156 -4 182 -14 11 -4 4 -11 -22 -23 l-37 -16 22 -40 c22 -39 24 -40 92 -46
122 -11 2065 -10 2065 1 0 7 -270 10 -787 11 -496 0 -777 4 -758 10 17 5 326
9 720 8 380 0 698 3 708 6 11 5 17 18 17 36 l0 29 -345 0 -345 0 0 160 0 160
150 0 150 0 0 115 0 115 373 1 372 0 125 58 125 57 190 -37 c856 -170 1112
-221 1126 -225 12 -3 20 20 42 117 15 67 26 124 24 126 -2 2 -54 41 -116 87
-110 83 -113 84 -206 102 -70 13 -95 22 -95 33 0 8 10 66 22 128 l22 113 403
0 403 0 0 85 c0 50 4 85 10 85 6 0 10 -22 10 -50 l0 -50 604 0 c332 0 617 -3
633 -6 29 -6 35 -17 121 -222 50 -120 94 -225 98 -234 6 -17 -30 -18 -665 -18
l-671 0 0 -110 0 -110 -45 0 -45 0 0 -120 0 -120 2103 0 2102 0 843 -95 842
-95 861 0 860 0 244 95 244 95 5003 0 c2752 0 5414 0 5916 0 l912 0 0 240 0
240 -2447 1 c-1347 1 -3950 5 -5786 8 l-3339 6 -89 214 c-70 165 -87 216 -77
222 7 5 823 9 1813 9 l1801 0 654 -100 c524 -80 676 -100 762 -100 l108 0 0
150 0 150 2030 0 2030 0 0 55 0 55 -1080 0 -1080 0 0 35 0 34 -60 7 c-37 4
-60 11 -60 19 0 19 -59 25 -275 25 l-199 0 -381 110 -382 110 -126 0 -127 0 0
100 0 100 140 0 140 0 0 40 0 40 40 0 40 0 0 850 0 850 1540 0 1540 0 0 45 0
45 83 0 c72 0 114 9 342 74 213 61 278 75 363 81 77 5 102 11 102 21 0 17 29
17 175 0 61 -7 111 -12 113 -11 1 1 -125 62 -280 137 -261 124 -283 136 -286
161 l-3 28 135 -7 136 -7 0 35 c0 38 -123 425 -143 450 -10 12 -133 26 -612
67 -503 43 -636 51 -826 51 l-226 0 -10 50 -10 50 78 0 79 0 0 40 0 40 -240 0
-240 0 0 -40 0 -40 71 0 72 0 -7 -31 c-3 -17 -6 -40 -6 -50 0 -18 -32 -19
-1133 -19 -1512 0 -2247 9 -2247 27 0 11 70 13 385 13 336 0 385 2 385 15 0
13 -67 15 -542 15 -299 0 -594 3 -655 7 -101 5 -113 4 -113 -10 0 -13 -9 -17
-35 -17 -31 0 -35 -3 -35 -25 l0 -25 -1942 0 -1943 -1 -585 48 -585 47 -1455
-48 -1455 -49 -585 27 c-322 15 -925 45 -1340 67 -707 37 -801 44 -1480 114
l-725 74 -980 279 -980 279 -872 169 -871 169 -6 29 c-4 19 0 39 14 61 25 41
25 43 -8 82 l-27 31 -40 -21z m-15152 -1194 c-7 -2 -19 -2 -25 0 -7 3 -2 5 12
5 14 0 19 -2 13 -5z m18987 -3698 c0 -31 -3 -35 -25 -35 -22 0 -25 4 -25 35 0
31 3 35 25 35 22 0 25 -4 25 -35z m4607 -171 c28 -5 35 -18 116 -212 48 -114
87 -210 87 -214 0 -5 -506 -8 -1125 -8 -1118 0 -1125 0 -1125 -20 0 -19 -7
-20 -179 -20 -118 0 -189 4 -208 12 -15 7 -93 15 -173 18 l-144 5 -92 217
c-57 136 -87 219 -80 222 17 7 2889 7 2923 0z m3311 -3 c20 -5 39 -43 113
-220 50 -117 89 -214 87 -215 -2 -1 -670 0 -1484 2 l-1482 4 -89 212 c-58 137
-86 214 -79 218 14 9 2902 9 2934 -1z m-12061 -1167 c-3 -3 -12 -4 -19 -1 -8
3 -5 6 6 6 11 1 17 -2 13 -5z"/>
</g>
</svg>
