<?xml version="1.0" standalone="no"?>
<!DOCTYPE svg PUBLIC "-//W3C//DTD SVG 20010904//EN"
 "http://www.w3.org/TR/2001/REC-SVG-20010904/DTD/svg10.dtd">
<svg version="1.0" xmlns="http://www.w3.org/2000/svg"
   viewBox="0 0 4153.000000 862.000000"
 preserveAspectRatio="xMidYMid meet">
<metadata>
Created by potrace 1.16, written by Peter Selinger 2001-2019
</metadata>
<g transform="translate(0.000000,862.000000) scale(0.100000,-0.100000)"
fill="#000000" stroke="none">
<path d="M39635 8535 l-200 -84 -3 -45 c-2 -25 -4 -46 -5 -47 -22 -7 -1691
-33 -3437 -54 -1235 -14 -2291 -28 -2347 -31 l-101 -6 -484 -548 c-306 -348
-485 -559 -489 -577 -4 -15 -7 -70 -8 -120 l-1 -93 -139 0 -138 0 -92 95 c-74
76 -97 95 -120 95 -16 0 -48 9 -72 20 -24 11 -54 20 -66 20 -21 0 -23 5 -23
49 0 44 3 50 28 59 15 6 51 14 80 17 l52 7 0 122 0 122 -51 57 -51 57 -236 0
-237 0 -23 35 -22 35 -98 0 c-65 1 -105 5 -122 15 -20 11 -78 14 -283 15
l-257 0 -10 -25 c-9 -25 -11 -25 -129 -25 -116 0 -120 1 -123 23 l-3 22 -357
3 -357 2 -16 -23 c-12 -18 -31 -27 -85 -37 -45 -9 -70 -18 -70 -27 0 -7 -7
-13 -15 -13 -8 0 -15 6 -15 13 0 11 -30 8 -140 -12 l-140 -26 0 -62 0 -63 70
0 70 0 0 -40 0 -40 -874 0 -874 0 -109 -46 c-59 -26 -109 -50 -111 -55 -2 -5
-60 -9 -128 -9 -71 0 -134 -5 -145 -11 -12 -6 -227 -29 -480 -52 l-459 -42 0
-76 0 -76 -172 -6 c-95 -3 -408 -5 -696 -3 l-523 2 -35 -48 c-36 -48 -36 -48
-94 -48 -56 0 -58 1 -69 30 l-10 30 -100 0 -101 0 0 -30 0 -30 -470 0 -470 0
0 30 c0 29 -2 30 -45 30 -25 0 -48 0 -52 1 -4 0 -11 -14 -16 -30 l-8 -31 -124
0 -125 0 0 60 0 60 -151 0 c-87 0 -159 -4 -170 -11 -27 -14 -176 -1 -194 17
-10 10 -42 14 -114 14 -122 0 -975 94 -1047 115 -28 8 -83 15 -122 15 -70 0
-72 1 -72 25 l0 25 -235 0 -235 0 0 631 c0 415 -4 637 -10 650 -10 18 -27 19
-514 19 -439 0 -505 2 -510 15 -8 23 -524 23 -532 0 -5 -11 -22 -15 -68 -15
l-61 0 -324 -230 -325 -230 -568 0 -569 0 -90 60 -89 61 -88 -3 -87 -3 -3 -57
-3 -58 -65 0 c-64 0 -68 2 -154 60 l-88 61 -88 -3 -89 -3 -3 -57 -3 -58 -67 0
c-66 0 -69 1 -152 60 l-85 60 -90 -2 -90 -3 -3 -57 -3 -58 -77 0 -78 0 -654
-350 c-359 -192 -655 -348 -657 -346 -2 1 -9 40 -15 84 l-12 82 -103 0 -103 0
0 -40 0 -40 -465 0 -465 0 0 40 0 40 -54 0 c-62 0 -56 12 -77 -157 l-12 -103
-359 0 -358 0 -28 30 -27 29 -220 16 c-298 21 -1014 21 -1311 0 -199 -14 -221
-18 -244 -38 -14 -12 -26 -25 -28 -29 -2 -5 -151 -8 -330 -8 -298 0 -1314 -21
-1724 -35 l-168 -6 0 33 0 33 -593 67 -592 68 -419 6 c-411 6 -419 6 -435 -13
-15 -19 -43 -22 -311 -42 -162 -12 -312 -21 -332 -21 -32 0 -58 18 -233 165
l-196 165 -865 0 -864 0 0 -244 0 -245 -43 -5 c-23 -3 -701 -53 -1507 -111
-1784 -128 -1600 -112 -1600 -141 0 -25 -10 -27 -154 -38 -38 -3 -70 -7 -71
-8 -9 -9 -133 -764 -127 -769 4 -4 599 -521 1322 -1150 l1315 -1143 505 -133
c278 -73 1106 -282 1840 -464 l1335 -331 77 -49 77 -49 301 0 302 0 275 -267
275 -268 -336 -5 -336 -5 63 -71 62 -70 395 -47 395 -48 766 1 767 0 83 -85
c81 -83 83 -85 131 -85 36 0 48 -4 48 -15 0 -13 30 -15 210 -15 180 0 210 2
210 15 0 12 16 15 82 15 l82 0 43 42 43 42 0 -27 0 -27 165 0 165 0 0 35 c0
33 2 35 35 35 33 0 35 -2 35 -35 l0 -35 165 0 165 0 0 35 c0 33 2 35 35 35 33
0 35 -2 35 -35 l0 -35 165 0 165 0 0 35 c0 33 2 35 35 35 33 0 35 -2 35 -35
l0 -35 165 0 165 0 0 35 0 35 97 0 96 0 71 77 c39 42 74 83 77 92 4 10 13 -4
24 -41 l19 -58 929 -2 930 -3 268 -415 267 -415 -82 -7 c-44 -3 -234 -6 -422
-7 -187 -1 -456 -4 -597 -8 l-257 -6 0 -59 c0 -32 4 -58 10 -58 6 0 10 -13 10
-29 0 -25 14 -39 102 -105 l102 -76 388 0 388 0 0 95 0 95 233 0 232 0 54 -85
53 -85 856 0 855 0 322 -175 c177 -96 327 -175 333 -175 10 0 32 -58 32 -85 0
-5 16 -20 35 -32 29 -19 49 -23 115 -23 79 0 80 0 80 25 l0 25 230 0 230 0 0
-235 0 -235 754 0 754 0 310 160 309 160 1864 0 1864 0 247 117 247 118 1 138
0 137 3061 0 3062 0 601 -117 601 -116 490 2 c398 1 836 15 2330 72 1012 39
2793 101 3957 138 1165 37 2120 70 2123 72 2 3 5 248 6 544 l1 540 -873 845
c-480 465 -872 850 -872 855 1 4 563 351 1250 769 l1248 761 5 785 5 785 118
209 117 208 0 604 0 604 -185 0 -185 0 0 115 0 115 -662 -1 -663 -1 -200 -83z"/>
</g>
</svg>
