<?xml version="1.0" standalone="no"?>
<!DOCTYPE svg PUBLIC "-//W3C//DTD SVG 20010904//EN"
 "http://www.w3.org/TR/2001/REC-SVG-20010904/DTD/svg10.dtd">
<svg version="1.0" xmlns="http://www.w3.org/2000/svg"
   viewBox="0 0 4544.000000 866.000000"
 preserveAspectRatio="xMidYMid meet">
<metadata>
Created by potrace 1.16, written by Peter Selinger 2001-2019
</metadata>
<g transform="translate(0.000000,866.000000) scale(0.100000,-0.100000)"
fill="#000000" stroke="none">
<path d="M9694 8522 l-266 -133 -1630 3 -1630 3 -22 28 -23 28 -1175 -65
c-646 -36 -1184 -66 -1195 -66 -15 0 -46 41 -122 160 -102 159 -103 160 -139
160 -33 0 -1276 -101 -1278 -104 -40 -61 -424 -678 -424 -682 0 -2 72 -133
160 -290 150 -268 160 -290 160 -339 0 -49 -2 -54 -42 -85 l-42 -34 -1008 -67
c-555 -36 -1012 -69 -1015 -73 -3 -3 5 -6 19 -6 37 0 1787 98 1883 105 l80 7
-42 -37 -43 -37 0 -309 0 -309 -190 0 -189 0 -3 -67 -3 -67 -77 -23 -78 -24 0
-629 0 -629 78 -23 77 -24 3 -67 3 -67 224 0 c143 0 225 -4 225 -10 0 -6 98
-10 275 -10 l275 0 35 -37 c32 -36 34 -42 35 -105 l0 -68 64 0 64 0 120 -127
120 -126 881 -5 880 -5 75 -176 c147 -350 189 -452 185 -455 -2 -2 -147 -54
-321 -116 -175 -62 -318 -118 -318 -124 0 -6 -430 -148 -955 -316 -526 -168
-961 -308 -968 -312 -6 -4 -9 -9 -7 -11 3 -3 435 127 960 289 525 162 958 294
963 294 4 0 7 -45 7 -100 0 -89 2 -100 18 -100 9 0 188 31 398 68 l380 68 496
-1181 496 -1180 169 -43 169 -44 102 -266 103 -267 457 -146 457 -145 332 199
333 200 0 38 c0 20 -56 744 -125 1608 -69 863 -125 1587 -125 1608 0 21 4 43
8 49 4 7 260 -88 732 -272 l725 -283 1288 -1 c1280 0 1287 0 1287 20 0 20 7
20 278 20 l277 0 358 295 357 295 224 0 224 0 119 92 c65 50 199 145 298 210
l180 118 618 0 617 0 100 -50 100 -50 114 0 115 0 40 -74 c28 -49 49 -76 64
-79 12 -4 119 -26 237 -51 l215 -45 844 -36 c464 -20 847 -38 851 -40 4 -2 69
-112 145 -245 l138 -240 173 0 173 0 496 130 495 130 863 0 862 0 120 120 120
120 398 0 398 0 167 105 167 105 567 0 567 0 12 -22 c6 -13 13 -24 14 -26 1
-1 108 -24 237 -52 l235 -49 836 -36 c460 -19 843 -35 850 -35 7 0 76 -110
152 -245 l140 -245 173 0 174 0 496 130 497 130 860 0 860 0 120 120 120 120
399 0 400 0 167 105 167 105 565 0 565 0 19 -26 c17 -23 41 -30 250 -74 l232
-49 573 -26 573 -25 304 -64 c167 -35 308 -69 314 -75 6 -6 57 -90 112 -188
l101 -176 205 2 c112 1 1199 15 2414 31 2120 29 2250 32 3206 70 955 38 1032
40 1828 40 l831 0 0 -40 0 -40 -121 0 c-119 0 -120 0 -117 -22 3 -20 13 -24
88 -35 161 -24 150 -20 150 -58 l0 -35 219 0 218 0 24 35 24 35 550 0 c303 0
715 3 918 7 l367 6 0 189 0 188 -70 0 c-38 0 -70 -2 -70 -4 0 -2 11 -34 25
-70 l25 -67 -797 7 c-439 4 -799 8 -801 9 -2 2 86 107 195 233 l198 231 83 0
82 1 0 120 0 120 45 0 45 0 0 103 1 102 40 43 40 42 182 0 183 0 23 31 c23 30
23 33 7 65 l-16 34 -134 0 c-195 0 -188 14 35 68 l179 44 0 134 0 134 253 2
252 2 -165 6 c-91 4 -204 8 -252 9 l-88 1 0 45 0 45 228 1 c125 1 238 5 252 9
14 5 -85 8 -227 9 -235 1 -253 2 -253 19 0 9 -48 65 -107 123 l-108 106 -235
12 c-129 7 -432 21 -672 31 l-437 20 -2400 470 c-2243 440 -2406 470 -2505
470 l-106 0 0 90 0 90 -654 0 -654 0 -13 70 -12 70 -2084 0 -2083 0 0 45 0 45
-2969 0 -2969 0 -26 45 c-15 25 -29 45 -31 45 -3 0 -1129 124 -2502 275
l-2497 275 -2063 0 -2063 0 0 50 c0 43 -3 50 -22 54 -40 8 -2750 177 -2833
176 -74 0 -392 -21 -527 -35 l-57 -6 -36 77 c-19 43 -33 79 -31 81 2 2 97 -1
212 -7 115 -5 230 -10 257 -10 l47 0 0 63 0 62 -102 98 c-57 54 -113 105 -125
114 -17 11 -562 68 -2297 237 l-2275 221 -267 -133z m14046 -4372 l100 -50
113 0 113 0 17 -35 17 -35 -560 0 -560 0 -168 -105 -168 -105 -379 0 -378 0
21 23 c20 21 22 34 22 140 l0 117 138 1 137 0 95 49 95 49 623 0 622 1 100
-50z m8040 0 l100 -50 113 0 113 0 17 -29 c9 -16 17 -32 17 -35 0 -3 -252 -6
-559 -6 l-559 0 -166 -105 -167 -105 -381 0 -381 0 21 23 c20 21 22 34 22 140
l0 117 138 1 137 0 95 49 95 49 623 0 622 1 100 -50z m13608 -721 l31 -81
-882 7 -882 7 -35 39 c-28 31 -42 39 -68 39 l-34 0 24 29 23 30 225 3 c124 2
527 4 896 6 l671 2 31 -81z"/>
</g>
</svg>
