<?xml version="1.0" standalone="no"?>
<!DOCTYPE svg PUBLIC "-//W3C//DTD SVG 20010904//EN"
 "http://www.w3.org/TR/2001/REC-SVG-20010904/DTD/svg10.dtd">
<svg version="1.0" xmlns="http://www.w3.org/2000/svg"
   viewBox="0 0 4377.000000 865.000000"
 preserveAspectRatio="xMidYMid meet">
<metadata>
Created by potrace 1.16, written by Peter Selinger 2001-2019
</metadata>
<g transform="translate(0.000000,865.000000) scale(0.100000,-0.100000)"
fill="#000000" stroke="none">
<path d="M6 8483 c2 -92 7 -236 10 -320 l6 -151 57 -6 c31 -4 326 -27 656 -51
523 -40 602 -48 613 -63 7 -9 44 -79 83 -154 38 -75 73 -139 77 -142 5 -3 402
-23 883 -46 481 -22 883 -41 894 -43 11 -1 -42 -18 -117 -37 l-137 -35 -13
-70 c-10 -57 -14 -422 -4 -432 1 -1 598 -137 1327 -302 l1324 -300 880 -399
c484 -219 891 -404 905 -411 14 -7 240 -140 503 -295 l479 -281 311 -316 312
-316 132 -204 c72 -112 140 -220 151 -239 11 -19 44 -120 73 -225 29 -104 54
-192 55 -194 2 -2 1083 -3 2402 -2 l2400 2 11 -33 c6 -18 82 -158 168 -311
l155 -278 229 -243 229 -243 328 -212 c290 -186 373 -234 708 -405 l379 -194
189 -12 189 -13 776 -264 775 -263 1233 -260 1232 -260 1848 -225 c1016 -123
1862 -227 1878 -230 26 -4 61 14 232 120 l202 124 58 -9 c32 -6 61 -10 66 -10
4 0 7 -49 7 -110 l0 -110 475 0 475 0 0 94 0 95 33 -5 c23 -3 1626 -159 1820
-176 27 -3 34 8 151 208 l123 210 -831 183 -831 182 -595 314 -595 315 -400
361 c-220 199 -408 375 -419 391 l-19 29 74 -6 c41 -3 524 -33 1074 -65 795
-48 1277 -70 2350 -110 1164 -42 1365 -52 1460 -69 159 -30 1400 -172 1465
-169 l55 3 12 95 c6 52 11 95 10 96 -1 0 -292 67 -647 148 l-645 148 -365 135
c-321 119 -399 153 -650 279 -157 79 -296 152 -310 163 l-25 20 40 -5 c22 -3
358 -34 748 -69 l707 -64 48 51 c26 27 50 54 53 60 5 7 3316 57 3872 58 l137
0 -26 -51 c-14 -28 -95 -135 -180 -238 -133 -160 -183 -211 -356 -363 l-201
-177 -282 -135 -281 -134 -445 -94 -444 -94 -3 -82 c-2 -45 1 -82 5 -82 4 0
313 20 686 46 l678 47 23 -22 23 -21 114 30 c110 30 142 33 1034 95 l920 64
945 142 945 141 595 149 c327 82 622 156 656 165 l60 15 -4 57 -4 57 559 180
558 179 345 160 345 159 159 131 c122 101 177 155 242 236 79 100 85 111 119
220 20 63 38 121 40 128 3 8 29 12 83 12 l78 0 24 -77 c13 -43 27 -82 31 -87
4 -5 81 -17 171 -27 123 -14 281 -20 648 -25 l485 -6 390 51 c508 67 504 66
690 117 195 53 285 87 316 120 l23 25 -74 148 -75 148 -211 195 -211 195 -393
216 -392 217 -517 169 c-431 142 -604 193 -1054 311 l-538 141 -1392 259
c-1098 204 -1532 280 -2052 360 -363 56 -1096 170 -1630 255 l-970 154 -1695
185 c-1692 185 -1699 186 -4050 391 l-2355 205 -5970 300 c-3283 165 -5988
300 -6010 300 l-40 0 -174 -230 c-96 -127 -178 -233 -183 -236 -5 -3 -76 -3
-159 1 l-149 8 0 38 0 39 -220 0 c-189 0 -220 2 -220 15 0 8 -2 15 -4 15 -35
0 -4505 452 -4541 459 -27 5 -239 31 -470 57 -341 37 -425 50 -447 65 -22 15
-87 24 -385 50 l-358 32 -69 44 -69 45 -349 32 -349 32 -58 -95 c-56 -93 -59
-96 -92 -94 -19 2 -313 25 -654 53 -589 48 -730 55 -2810 145 -1204 52 -2234
97 -2287 100 l-97 7 5 -169z"/>
</g>
</svg>
