<?xml version="1.0" standalone="no"?>
<!DOCTYPE svg PUBLIC "-//W3C//DTD SVG 20010904//EN"
 "http://www.w3.org/TR/2001/REC-SVG-20010904/DTD/svg10.dtd">
<svg version="1.0" xmlns="http://www.w3.org/2000/svg"
   viewBox="0 0 4304.000000 856.000000"
 preserveAspectRatio="xMidYMid meet">
<metadata>
Created by potrace 1.16, written by Peter Selinger 2001-2019
</metadata>
<g transform="translate(0.000000,856.000000) scale(0.100000,-0.100000)"
fill="#000000" stroke="none">
<path d="M8886 8470 l-199 -90 -311 0 c-251 -1 -316 -3 -336 -15 -17 -10 -59
-14 -135 -15 l-110 0 -114 -65 -113 -65 -247 0 -246 0 -180 -85 -180 -85 -3
-100 -3 -100 103 0 102 0 110 -62 109 -63 -604 -3 -603 -2 -43 -42 -43 -42 42
-43 42 -43 888 0 888 0 0 -55 0 -56 -1277 4 c-1012 3 -1359 7 -1668 21 -302
13 -419 15 -520 7 -215 -17 -347 -21 -1135 -32 l-755 -10 -240 -35 c-196 -28
-268 -44 -401 -84 -155 -48 -166 -50 -280 -50 l-119 0 -252 -124 -253 -125 -9
37 c-6 20 -16 60 -23 88 l-13 52 -177 -82 -177 -81 -1 -361 c0 -280 -3 -363
-12 -367 -7 -2 -46 -10 -86 -17 l-72 -13 0 -76 1 -76 156 -170 c86 -93 159
-169 162 -168 3 1 30 11 58 22 l53 21 125 -150 c69 -82 125 -151 125 -155 0
-3 -94 -5 -208 -5 -278 0 -387 -21 -574 -112 l-128 -62 0 -566 0 -566 127 -62
c189 -91 295 -112 573 -112 l210 0 0 -70 0 -70 565 0 565 0 0 -104 0 -105 66
-75 66 -76 63 0 c57 0 64 -2 67 -21 3 -21 82 -49 451 -160 l67 -20 0 -47 0
-47 258 -258 257 -257 203 0 c186 0 205 -2 220 -19 10 -10 112 -73 229 -140
l212 -121 190 0 190 0 3 -51 3 -51 755 -338 755 -339 1341 -1 1341 0 96 53
c65 35 97 58 97 70 0 16 50 17 913 17 l913 0 398 190 398 190 1012 0 c970 0
1094 -2 3071 -55 1133 -30 2465 -66 2960 -79 568 -15 910 -28 928 -35 16 -6
45 -11 65 -11 30 0 45 -8 87 -50 l51 -51 720 40 c395 22 814 40 931 40 117 0
634 10 1150 22 516 11 990 19 1053 16 63 -3 257 1 430 9 173 7 509 18 745 23
237 6 912 25 1501 43 l1071 32 184 -42 184 -42 458 0 457 0 0 -190 0 -190
1476 0 1477 0 98 52 c80 43 99 57 99 76 0 19 5 22 43 22 31 0 49 -6 62 -20 18
-20 31 -20 832 -20 l814 0 409 241 410 241 0 109 0 109 -86 40 -87 40 -238 0
c-153 0 -239 4 -239 10 0 7 501 10 1484 10 l1484 0 170 133 c143 111 171 137
176 164 l7 33 93 0 c76 0 98 4 117 19 13 10 106 77 207 150 l183 131 655 0
655 0 342 81 c188 44 350 83 360 85 15 5 17 21 17 147 l0 142 1243 290 c683
159 1247 294 1253 300 6 5 205 55 442 110 l432 100 0 462 c0 255 -2 463 -4
463 -11 0 -3278 330 -3318 336 l-48 6 0 46 0 47 -378 88 -377 88 -532 0 c-293
-1 -533 2 -533 5 0 3 92 101 205 217 l205 212 -2 195 -3 195 -420 231 -420
230 -837 -5 c-764 -6 -838 -7 -850 -23 -7 -9 -32 -19 -54 -23 -39 -6 -42 -5
-47 22 -5 23 -22 37 -105 81 l-99 52 -1340 0 -1340 0 -754 -338 -754 -338 -3
-97 -3 -97 -58 0 c-54 0 -69 -5 -185 -71 -69 -39 -126 -77 -126 -85 0 -12 -66
-14 -423 -14 l-423 0 -280 89 c-264 85 -341 103 -494 116 l-65 6 -135 121
c-119 107 -147 127 -238 170 l-103 48 -284 0 c-278 0 -285 0 -285 20 0 20 -7
20 -270 20 -263 0 -270 0 -270 -20 0 -20 -7 -20 -1700 -20 -1693 0 -1700 0
-1700 20 0 20 -7 20 -270 20 -263 0 -270 0 -270 -20 0 -20 -7 -20 -1695 -20
-1688 0 -1695 0 -1695 20 0 20 -7 20 -270 20 -263 0 -270 0 -270 -20 0 -20 -7
-20 -1700 -20 -1693 0 -1700 0 -1700 20 0 20 -7 20 -270 20 -263 0 -270 0
-270 -20 0 -19 -7 -20 -117 -20 l-118 0 -827 322 -828 323 0 68 0 67 241 0
241 0 84 39 84 40 0 108 -1 108 -404 238 -404 237 -822 0 c-705 0 -825 -2
-838 -15 -9 -8 -35 -17 -58 -21 -40 -6 -42 -5 -45 22 -3 25 -16 35 -103 81
l-100 53 -1340 -1 -1340 0 -199 -89z m5814 -1464 l834 -326 123 0 123 0 0 -25
c0 -25 1 -25 80 -25 47 0 80 -4 80 -10 0 -6 -56 -10 -147 -10 -157 0 -213 -11
-213 -42 0 -17 -15 -18 -234 -18 l-235 0 -3 37 -3 37 -435 162 -435 163 -682
0 -683 1 0 48 c0 41 -4 50 -27 64 -27 17 -13 17 312 18 l340 0 149 139 150
139 35 -13 c20 -7 412 -160 871 -339z m5020 -356 c0 -18 7 -20 75 -20 43 0 75
-4 75 -10 0 -6 -55 -10 -144 -10 -155 0 -206 -10 -206 -41 0 -19 -33 -19
-1515 -19 -1464 0 -1515 1 -1515 18 0 33 -43 42 -195 42 -90 0 -145 4 -145 10
0 6 35 10 85 10 78 0 85 2 85 20 0 20 7 20 1700 20 1693 0 1700 0 1700 -20z
m3930 0 c0 -18 7 -20 80 -20 47 0 80 -4 80 -10 0 -6 -57 -10 -150 -10 -157 0
-210 -11 -210 -45 0 -13 -186 -15 -1510 -15 -1477 0 -1510 0 -1510 19 0 31
-51 41 -201 41 -86 0 -139 4 -139 10 0 6 35 10 85 10 78 0 85 2 85 20 0 20 7
20 1695 20 1688 0 1695 0 1695 -20z m3940 0 c0 -18 7 -20 80 -20 47 0 80 -4
80 -10 0 -6 -56 -10 -147 -10 -157 0 -213 -11 -213 -42 0 -17 -63 -18 -1510
-18 -1324 0 -1510 2 -1510 15 0 33 -53 45 -205 45 -90 0 -145 4 -145 10 0 6
35 10 85 10 78 0 85 2 85 20 0 20 7 20 1700 20 1693 0 1700 0 1700 -20z m1193
-35 c37 -31 67 -58 67 -60 0 -3 -124 -5 -275 -5 -264 0 -275 1 -275 19 0 31
-51 41 -201 41 -86 0 -139 4 -139 10 0 6 35 10 85 10 78 0 85 2 85 20 0 20 7
20 293 20 l293 0 67 -55z m9130 -392 l-238 -232 -215 0 -215 0 28 24 c27 24
33 25 174 25 l145 0 209 201 c139 135 209 209 209 223 1 16 17 28 68 52 l67
31 3 -46 4 -46 -239 -232z m-20323 -113 c0 -6 -53 -10 -139 -10 -83 0 -142 4
-146 10 -4 6 45 10 139 10 91 0 146 -4 146 -10z m-50 -2839 c0 -87 18 -156 85
-323 7 -17 34 -18 376 -18 l369 0 0 -228 0 -229 152 -6 c83 -4 317 -7 520 -7
l368 0 0 -106 0 -106 -157 7 c-193 7 -2818 75 -2930 75 -26 0 -33 4 -33 20 0
18 7 20 75 20 l75 0 0 105 0 105 103 -5 c168 -9 700 -25 807 -25 l100 0 0 405
0 405 45 0 45 0 0 -89z m7787 -288 c-1 -71 -3 -13 -3 127 0 140 2 198 3 128 2
-71 2 -185 0 -255z m-3847 250 c0 -42 11 -91 42 -180 l43 -123 368 0 367 0 0
-231 0 -230 148 5 c81 3 317 8 525 12 l377 6 0 -126 0 -126 -77 0 c-43 0 -383
-7 -755 -16 -372 -8 -693 -14 -713 -12 -35 3 -30 7 130 107 l165 104 0 194 0
193 -42 -5 c-24 -3 -158 -12 -298 -20 -140 -8 -283 -18 -317 -21 l-63 -6 0
266 0 266 50 0 50 0 0 -57z m-7040 -448 l0 -145 43 0 c23 0 229 -7 457 -15
228 -8 443 -15 478 -15 l62 0 0 -120 0 -120 65 0 c37 0 65 -4 65 -10 0 -14
-63 -13 -985 11 -440 12 -1196 24 -1680 28 l-880 6 550 262 550 263 638 0 637
0 0 -145z m19770 80 l0 -35 115 0 115 0 0 35 0 35 1195 0 c657 0 1195 -2 1195
-4 0 -2 -39 -33 -87 -69 l-88 -64 -920 -7 c-506 -3 -1166 -9 -1467 -13 -457
-5 -548 -4 -548 8 0 7 -14 28 -32 46 l-32 33 82 0 82 0 0 35 0 35 195 0 195 0
0 -35z m-7931 -491 l215 -49 -90 -6 c-49 -4 -233 -10 -409 -13 l-320 -7 118
79 118 80 77 -18 c42 -9 173 -39 291 -66z m-10199 -19 c0 -13 -21 -15 -125
-15 -104 0 -125 2 -125 15 0 13 21 15 125 15 104 0 125 -2 125 -15z"/>
<path d="M19053 383 l-423 -3 0 -190 0 -190 1395 0 1395 0 0 195 0 195 -972
-2 c-535 -2 -1163 -4 -1395 -5z"/>
<path d="M22483 383 l-33 -4 0 -190 0 -189 1395 0 1395 0 0 195 0 195 -1362
-2 c-750 0 -1378 -3 -1395 -5z"/>
</g>
</svg>
