<?xml version="1.0" standalone="no"?>
<!DOCTYPE svg PUBLIC "-//W3C//DTD SVG 20010904//EN"
 "http://www.w3.org/TR/2001/REC-SVG-20010904/DTD/svg10.dtd">
<svg version="1.0" xmlns="http://www.w3.org/2000/svg"
   viewBox="0 0 4068.000000 1532.000000"
 preserveAspectRatio="xMidYMid meet">
<metadata>
Created by potrace 1.16, written by Peter Selinger 2001-2019
</metadata>
<g transform="translate(0.000000,1532.000000) scale(0.100000,-0.100000)"
fill="#000000" stroke="none">
<path d="M14150 15316 c0 -4 133 -351 295 -770 l295 -762 0 -82 c0 -81 13
-132 34 -132 6 1 292 -14 636 -32 l625 -32 50 -48 50 -48 -597 0 -598 0 0
-410 0 -410 -267 0 -267 0 29 30 c23 24 37 30 72 30 l43 0 0 63 c0 59 -3 68
-41 121 l-41 57 -126 -3 -127 -3 -29 -72 -29 -72 21 -52 c20 -47 22 -69 22
-257 l0 -206 27 -28 c17 -18 37 -28 55 -28 19 0 28 -5 28 -16 0 -10 -6 -13
-17 -10 -116 36 -150 38 -875 43 l-718 5 0 57 0 57 -99 98 c-65 63 -101 106
-103 123 -3 23 -27 35 -275 136 l-273 112 0 128 0 127 30 0 c23 0 30 5 30 19
0 16 11 20 75 26 l75 7 0 124 0 124 268 0 c147 0 277 3 290 6 22 6 22 8 22
195 l0 188 -67 20 c-38 11 -90 26 -118 34 l-50 14 -3 182 -2 181 165 0 c158 0
165 1 165 20 0 11 -1 20 -2 20 -2 0 -68 12 -148 27 -143 26 -154 26 -855 37
-549 9 -902 8 -1555 -2 l-845 -13 -285 -54 c-157 -30 -609 -122 -1005 -204
-546 -113 -723 -147 -731 -138 -9 10 -574 952 -774 1290 -28 49 -54 87 -56 84
-2 -2 175 -315 394 -694 342 -592 398 -695 394 -722 l-4 -31 -540 0 c-534 0
-539 0 -576 22 l-38 21 -714 -238 -715 -239 -230 -30 -230 -29 -842 -4 c-540
-2 -843 -7 -843 -13 0 -6 -40 -10 -97 -10 -92 0 -98 -1 -125 -27 -19 -18 -28
-37 -28 -58 0 -22 -10 -41 -35 -65 -35 -34 -35 -35 -35 -120 0 -85 0 -86 35
-120 30 -29 35 -40 35 -82 l0 -48 -755 0 -755 0 0 -35 0 -35 -390 0 -390 0 0
-185 c0 -167 -2 -185 -17 -185 -9 0 -30 -12 -45 -27 -27 -26 -28 -29 -28 -138
l0 -111 45 -44 45 -44 0 -566 0 -566 -45 -44 -45 -44 0 -116 c0 -109 2 -118
23 -138 13 -12 33 -22 45 -22 l22 0 0 -250 0 -250 995 0 995 0 0 -62 c0 -60 2
-64 44 -108 25 -25 48 -57 51 -72 l7 -28 -181 0 c-158 0 -194 3 -287 25 l-106
25 -706 -1 -707 0 -24 -30 -24 -31 96 -396 c94 -384 98 -398 129 -424 l32 -28
608 0 608 0 106 25 c98 23 124 25 355 25 159 0 249 -4 249 -10 0 -5 15 -10 34
-10 29 0 36 -5 44 -29 l11 -30 -299 -3 -299 -3 -28 -27 -29 -28 -564 0 -565 0
-72 -72 -73 -72 0 -288 0 -288 -138 0 c-198 0 -182 30 -182 -343 0 -273 -1
-297 -17 -297 -9 0 -30 -12 -45 -27 -27 -26 -28 -29 -28 -138 l0 -111 45 -44
45 -44 0 -571 0 -571 -45 -44 -45 -44 0 -111 c0 -109 1 -112 28 -138 15 -15
36 -27 45 -27 15 0 17 -15 17 -143 0 -137 1 -144 23 -165 13 -12 33 -22 45
-22 21 0 22 -5 22 -70 l0 -70 -55 0 -55 0 0 -275 0 -275 64 0 64 0 7 -38 c5
-29 20 -52 59 -91 74 -73 139 -91 328 -91 108 0 138 -3 138 -13 0 -8 10 -23
23 -35 l23 -22 2081 0 c1241 0 2083 4 2085 9 2 5 104 -35 228 -90 l225 -99
1298 0 c713 0 1297 -4 1297 -8 0 -5 -7 -33 -16 -63 -16 -53 -16 -57 17 -222
l34 -167 69 -46 69 -46 -6 -364 -7 -363 32 -67 33 -66 573 -287 573 -286 -396
-624 c-218 -343 -394 -625 -392 -627 2 -2 187 275 411 616 l408 619 719 -359
719 -360 2290 0 2290 0 0 -345 0 -345 300 0 300 0 0 25 0 25 235 0 235 0 0
-25 0 -25 225 0 225 0 0 25 0 25 235 0 235 0 0 -25 0 -25 225 0 225 0 0 25 0
25 235 0 235 0 0 -25 0 -25 223 0 222 1 75 84 c68 77 78 84 113 85 l37 0 1 48
c1 29 4 36 6 20 l4 -28 580 0 579 0 0 25 0 25 4125 0 4125 0 0 -45 0 -45 353
1 352 1 215 66 215 67 0 65 0 64 -215 66 -215 66 -3 62 -3 62 3248 0 c2195 0
3260 -3 3285 -10 30 -9 69 -5 205 20 92 17 178 32 189 35 17 4 23 15 28 50 7
42 5 48 -31 90 l-37 45 -188 0 -188 0 -15 36 c-8 20 -15 40 -15 45 0 5 55 9
123 9 122 0 123 0 157 30 35 29 35 29 168 30 l132 0 0 53 c0 47 3 56 30 75 33
25 110 31 110 9 0 -11 82 -77 95 -77 3 0 23 -11 45 -25 39 -25 42 -25 259 -25
190 0 220 2 225 16 8 22 8 22 -11 27 -10 3 149 5 352 6 l371 1 724 -854 c399
-470 727 -853 729 -851 1 2 -320 393 -715 870 -625 752 -719 870 -719 898 l0
32 63 3 c61 3 62 2 62 -23 0 -20 5 -25 25 -25 l24 0 6 273 c3 149 8 505 10
789 l5 518 -95 0 -95 0 0 196 0 196 38 -6 c20 -3 64 -8 97 -11 33 -4 72 -9 88
-11 22 -5 27 -2 27 15 0 14 13 27 40 41 46 24 50 24 50 7 0 -7 22 -34 48 -60
l48 -47 247 0 247 0 0 220 0 220 -140 0 -140 0 0 28 c-1 20 -27 58 -99 142
l-99 115 -96 5 -96 5 238 152 237 151 559 16 c308 9 561 18 563 20 2 1 7 24
12 50 5 26 11 49 13 51 2 3 172 10 376 17 l372 12 0 138 0 138 -2535 0 -2535
0 0 50 0 50 2685 0 2685 0 0 3629 c0 2891 -3 3631 -12 3639 -7 5 -118 47 -247
91 -129 45 -236 83 -238 84 -1 2 -6 21 -11 43 l-8 39 -142 3 -142 3 -1348 689
-1348 690 -79 0 c-73 0 -81 2 -100 26 -19 24 -23 25 -71 17 l-51 -10 -254 353
c-139 194 -255 351 -257 349 -2 -2 104 -163 237 -359 133 -195 241 -359 241
-363 0 -5 -159 -73 -352 -151 l-353 -142 -9635 0 -9635 0 -1054 -25 c-580 -14
-1056 -24 -1058 -22 -2 2 -138 339 -304 748 -165 409 -302 746 -305 748 -2 2
-4 1 -4 -3z m9440 -3941 l0 -635 -85 0 -85 0 0 635 0 635 85 0 85 0 0 -635z
m5650 0 l0 -635 -85 0 -85 0 0 635 0 635 85 0 85 0 0 -635z m5640 0 l0 -635
-75 0 -75 0 0 635 0 635 75 0 75 0 0 -635z m-15290 -4187 l2322 -2043 75 -5
74 -5 -74 -73 -74 -74 -7 49 -7 48 -1155 1025 c-919 817 -1159 1024 -1176
1021 -13 -2 -31 -4 -40 -5 -14 -1 -568 489 -2341 2066 l-42 37 61 1 61 0 2323
-2042z m4000 -1358 l0 -690 -85 0 -85 0 0 690 0 690 85 0 85 0 0 -690z m5650
0 l0 -690 -85 0 -85 0 0 690 0 690 85 0 85 0 0 -690z m5640 0 l0 -690 -75 0
-75 0 0 690 0 690 75 0 75 0 0 -690z m-6230 -640 l0 -50 -2320 0 -2320 0 0 50
0 50 2320 0 2320 0 0 -50z m5650 0 l0 -50 -2315 0 -2315 0 0 50 0 50 2315 0
2315 0 0 -50z m-23390 -122 c179 -61 327 -113 330 -116 3 -2 -7 -14 -22 -27
l-26 -22 125 -132 125 -131 -584 0 -583 1 -228 128 -229 127 -48 112 -48 112
297 0 297 0 29 30 c28 30 30 30 134 30 l106 0 325 -112z m2650 -223 l0 -145
-175 0 -175 0 0 145 0 145 175 0 175 0 0 -145z m8360 -335 c0 -6 -77 -10 -210
-10 l-210 0 0 -55 0 -55 -1080 0 -1080 0 0 65 0 65 1290 0 c853 0 1290 -3
1290 -10z m13990 -241 c102 -142 108 -186 23 -163 -16 4 -45 44 -95 132 -40
70 -74 130 -76 134 -2 4 12 8 32 8 33 0 39 -6 116 -111z m-15840 -2088 l715
-239 -360 -1 -360 -1 -110 36 c-60 20 -113 39 -116 43 -4 3 0 48 8 99 8 52 13
95 11 96 -1 2 -136 48 -298 104 -247 84 -288 101 -250 101 33 1 233 -62 760
-238z m1477 -543 l-25 -43 -199 -3 -198 -2 -130 44 -130 44 354 1 353 1 -25
-42z m1815 -93 l-27 -44 -400 -1 -400 0 -27 45 -28 45 455 0 454 0 -27 -45z
m3016 23 c-8 -13 -21 -33 -29 -45 l-14 -23 -397 0 -397 0 -26 37 c-14 21 -25
41 -25 45 0 5 203 8 451 8 l451 0 -14 -22z m2989 -20 l-25 -43 -76 -3 -76 -3
0 46 0 45 101 0 101 0 -25 -42z m3023 37 c0 -3 -11 -23 -25 -45 l-25 -40 -400
2 -400 3 -26 43 -25 42 450 0 c248 0 451 -2 451 -5z m2982 -40 l-27 -44 -400
-1 -400 0 -27 45 -28 45 455 0 454 0 -27 -45z m-7282 -293 c0 -16 17 -20 163
-31 89 -7 179 -15 200 -18 l37 -6 0 -53 0 -54 -4125 0 c-4118 0 -4125 0 -4125
20 0 20 -7 20 -579 20 l-580 0 -4 -22 c-2 -13 -5 2 -6 33 l-1 57 43 6 c23 3
113 11 200 17 141 11 157 14 157 31 0 17 137 18 4310 18 4158 0 4310 -1 4310
-18z"/>
</g>
</svg>
