<?xml version="1.0" standalone="no"?>
<!DOCTYPE svg PUBLIC "-//W3C//DTD SVG 20010904//EN"
 "http://www.w3.org/TR/2001/REC-SVG-20010904/DTD/svg10.dtd">
<svg version="1.0" xmlns="http://www.w3.org/2000/svg"
   viewBox="0 0 3758.000000 1553.000000"
 preserveAspectRatio="xMidYMid meet">
<metadata>
Created by potrace 1.16, written by Peter Selinger 2001-2019
</metadata>
<g transform="translate(0.000000,1553.000000) scale(0.100000,-0.100000)"
fill="#000000" stroke="none">
<path d="M9770 15445 c-382 -46 -696 -84 -697 -84 -2 -1 -3 -392 -3 -871 l0
-869 33 -5 c17 -3 124 -7 237 -8 l205 -3 436 -387 437 -387 61 -7 61 -7 0
-178 c0 -177 0 -178 -22 -181 -25 -3 -29 -31 -15 -95 l6 -33 -592 -2 -592 -3
-3 -199 -2 -199 -624 6 -623 6 -6 -256 c-4 -141 -7 -312 -7 -380 l0 -123 458
0 c251 0 535 -3 630 -7 l172 -6 0 -24 0 -24 -980 7 -980 7 0 -375 0 -375 46
-7 c26 -3 376 -6 778 -6 402 0 822 -3 934 -7 l202 -6 0 -47 0 -47 -765 5 -765
5 0 -375 0 -375 527 -6 c289 -4 634 -7 765 -7 l238 0 0 -1700 0 -1700 -115 0
-115 0 0 -35 c0 -31 -3 -35 -27 -35 -16 0 -201 -11 -413 -25 -212 -14 -388
-25 -392 -25 -5 0 -8 -214 -8 -475 0 -468 0 -475 20 -475 19 0 20 -7 20 -240
l0 -240 -420 0 -420 0 0 98 c0 90 -2 100 -23 120 l-23 22 -1860 0 -1860 0
-144 48 -145 49 -356 -56 -355 -55 -79 -108 -79 -108 -592 0 -592 0 -71 99
-70 99 -88 -18 c-422 -87 -1068 -222 -1069 -223 0 -1 -10 -18 -22 -38 -22 -36
-22 -40 -22 -568 l0 -532 22 -39 c13 -22 32 -41 43 -44 11 -2 271 -57 579
-122 466 -98 560 -115 566 -103 5 8 36 51 70 97 l61 82 597 0 597 -1 74 -103
75 -103 355 -57 356 -57 135 45 134 46 1871 0 1872 0 21 23 c19 21 22 34 22
120 l0 97 420 0 420 0 0 -260 0 -259 40 -12 41 -12 -3 -1133 -3 -1132 40 -6
c22 -3 542 -67 1155 -141 l1115 -135 1483 -90 1483 -90 1962 0 1962 0 2270
125 2270 125 2440 206 2440 205 2220 230 c1751 181 2579 272 3920 429 1651
195 1731 205 2775 361 l1075 160 300 118 299 118 -2 84 c-1 46 -5 107 -8 134
l-6 50 -317 207 -317 207 -1025 274 -1024 275 -1775 371 c-1404 293 -2228 459
-3945 792 l-2170 420 -1560 215 c-858 118 -1848 248 -2200 289 -352 42 -746
89 -875 106 -129 16 -486 56 -793 89 -307 32 -560 60 -563 62 -2 3 2 66 8 141
7 85 8 140 2 145 -5 5 -787 86 -1739 181 l-1730 172 -682 -1 -683 0 0 34 c0
33 -7 39 -162 150 l-163 116 -251 0 -252 0 -12 -30 -12 -30 -503 0 -503 0 -11
30 c-9 28 -13 30 -63 30 l-53 0 -55 -150 -54 -150 -112 0 -111 0 -6 28 c-63
310 -472 2195 -539 2489 l-93 401 -37 11 -36 11 -32 133 c-642 2722 -647 2742
-631 2749 9 4 1119 158 2466 343 l2450 337 131 130 131 129 17 92 17 93 387
-33 c510 -42 1776 -174 2526 -263 330 -39 604 -69 608 -68 8 3 -101 108 -215
207 -26 24 -164 87 -475 218 -344 145 -597 242 -1187 455 -711 257 -801 287
-1725 570 l-975 299 -1105 265 -1105 265 -1085 168 -1085 169 -840 16 c-462 9
-865 18 -895 20 -32 2 -350 -31 -750 -79z m7083 -2139 c213 -18 392 -37 397
-42 16 -16 16 -76 0 -85 -17 -9 -2345 -292 -2362 -287 -6 2 102 103 238 225
l249 222 545 0 c536 1 552 0 933 -33z m-2203 -446 c-122 -18 -154 -21 -148
-15 9 10 97 23 153 23 l50 0 -55 -8z"/>
</g>
</svg>
