<?xml version="1.0" standalone="no"?>
<!DOCTYPE svg PUBLIC "-//W3C//DTD SVG 20010904//EN"
 "http://www.w3.org/TR/2001/REC-SVG-20010904/DTD/svg10.dtd">
<svg version="1.0" xmlns="http://www.w3.org/2000/svg"
   viewBox="0 0 2425.000000 805.000000"
 preserveAspectRatio="xMidYMid meet">
<metadata>
Created by potrace 1.16, written by Peter Selinger 2001-2019
</metadata>
<g transform="translate(0.000000,805.000000) scale(0.100000,-0.100000)"
fill="#000000" stroke="none">
<path d="M11876 8018 c-14 -18 -24 -33 -23 -34 1 -1 171 -72 377 -158 370
-153 378 -157 634 -311 226 -136 635 -409 650 -434 3 -5 -22 0 -57 11 -34 11
-336 80 -670 154 -488 107 -729 154 -1222 239 l-613 105 -1048 105 c-1000 99
-1085 106 -1829 149 -429 25 -967 50 -1195 56 -228 6 -563 17 -745 25 -425 19
-433 19 -415 0 9 -8 146 -42 330 -80 471 -98 664 -151 993 -271 256 -94 316
-120 550 -242 144 -76 295 -162 335 -192 l73 -55 -209 -3 -210 -2 -5 -38 c-3
-20 -9 -85 -13 -144 l-7 -108 -846 0 -846 0 -99 66 -98 66 -237 23 c-130 13
-257 27 -283 30 l-48 6 0 -96 0 -95 -40 0 -40 0 0 73 c0 108 1 107 -200 107
-163 0 -163 0 -209 29 -39 25 -112 44 -485 125 -242 53 -442 92 -445 88 -3 -5
-43 -61 -89 -125 l-84 -117 -119 0 c-113 0 -122 -2 -153 -25 l-33 -25 -561 0
-562 0 0 -30 0 -30 560 -2 561 -3 -573 -155 -573 -155 -3 -671 -2 -672 -63
-15 c-34 -9 -217 -52 -406 -97 -298 -70 -384 -95 -640 -184 -163 -58 -303
-107 -312 -111 -12 -4 -16 -20 -15 -67 l1 -61 -220 -124 c-166 -94 -234 -138
-278 -181 -55 -54 -117 -145 -117 -172 0 -20 65 -120 119 -184 46 -54 68 -68
273 -176 l223 -118 -3 -73 -3 -74 308 -107 c296 -103 331 -113 814 -224 l504
-116 865 -128 c519 -77 991 -141 1179 -161 l315 -33 305 -221 c290 -209 332
-236 816 -514 l510 -293 638 -259 638 -258 737 -216 737 -217 825 -184 825
-185 915 -139 915 -138 955 -81 955 -81 455 0 455 0 75 74 75 74 822 -80 821
-81 27 22 c27 21 35 21 361 21 l334 0 0 28 0 27 -348 94 -347 94 -350 171
-350 170 -328 232 -329 233 -299 286 -298 286 -258 332 -257 332 -174 312
-173 312 -39 203 c-22 112 -42 213 -45 226 -5 19 2 17 56 -23 56 -41 66 -45
123 -46 33 -1 131 -4 216 -8 l155 -6 3 -136 c2 -129 4 -136 25 -147 27 -14
3313 -706 3782 -797 1055 -204 2025 -404 3010 -621 1265 -279 1606 -349 1617
-330 4 7 16 23 26 36 l19 24 179 -22 c98 -12 188 -22 199 -22 11 0 115 68 230
151 l210 150 100 207 101 207 -9 258 -8 259 -108 216 c-105 209 -115 224 -266
417 -221 281 -510 572 -815 819 -363 295 -813 592 -1534 1013 l-589 344 -597
274 c-515 237 -688 310 -1267 539 l-671 265 -1158 362 -1159 361 -443 69
c-350 55 -453 68 -490 61 -44 -7 -64 -1 -342 104 -268 101 -313 115 -495 152
-191 40 -406 65 -520 61 -37 -1 -276 59 -947 240 -493 132 -904 241 -912 241
-8 0 -26 -14 -40 -32z"/>
</g>
</svg>
