<?xml version="1.0" standalone="no"?>
<!DOCTYPE svg PUBLIC "-//W3C//DTD SVG 20010904//EN"
 "http://www.w3.org/TR/2001/REC-SVG-20010904/DTD/svg10.dtd">
<svg version="1.0" xmlns="http://www.w3.org/2000/svg"
   viewBox="0 0 4902.000000 1645.000000"
 preserveAspectRatio="xMidYMid meet">
<metadata>
Created by potrace 1.16, written by Peter Selinger 2001-2019
</metadata>
<g transform="translate(0.000000,1645.000000) scale(0.100000,-0.100000)"
fill="#000000" stroke="none">
<path d="M36132 16410 c-1 -25 -7 -250 -13 -500 -7 -250 -16 -456 -21 -458 -4
-2 -8 -156 -8 -343 0 -219 -4 -339 -10 -339 -6 0 -10 -27 -10 -60 0 -33 -4
-60 -10 -60 -6 0 -10 -45 -10 -115 0 -70 4 -115 10 -115 7 0 10 -154 10 -442
0 -424 -1 -444 -20 -468 -18 -22 -20 -42 -20 -187 l0 -163 -312 0 -313 0 -59
-163 c-33 -89 -61 -168 -64 -174 -3 -10 21 -13 102 -13 l106 0 0 -145 c0 -80
-1 -145 -2 -145 -2 0 -531 -11 -1177 -25 -646 -14 -1176 -27 -1179 -30 -3 -3
-20 -61 -37 -128 l-32 -122 -59 -6 c-38 -4 -300 -89 -739 -239 -374 -128 -686
-235 -692 -237 -10 -4 -13 16 -13 78 l0 83 -97 154 c-93 148 -102 159 -246
292 -132 122 -156 140 -191 145 -39 5 -1516 112 -1622 117 l-51 3 -131 159
-132 158 0 79 0 79 105 0 105 0 0 135 0 135 -75 0 -75 0 0 75 0 75 -490 0
-490 0 0 -75 0 -75 -605 0 -605 0 0 -135 0 -135 100 0 100 0 0 -83 0 -82 -117
-143 -117 -142 -85 0 -86 -1 -195 -254 -195 -254 -17 -148 c-11 -97 -17 -231
-17 -390 l-1 -243 -282 0 -281 0 7 363 7 362 50 75 c28 41 107 157 175 257
l125 182 -117 36 c-63 20 -117 35 -118 33 -2 -2 -86 -140 -187 -308 -101 -168
-191 -312 -199 -320 -9 -9 -84 -30 -175 -49 -88 -18 -168 -37 -177 -42 -9 -5
-328 -281 -710 -614 l-693 -605 -92 -183 -92 -182 0 -82 -1 -82 -45 19 -45 19
0 -384 0 -385 -80 0 -80 0 0 240 0 240 -30 0 -30 0 0 295 0 295 -1572 2 -1571
3 -121 195 -122 195 -97 3 -97 3 0 99 0 100 1194 0 c1159 0 1197 -1 1278 -20
57 -14 118 -20 196 -20 l112 0 0 686 0 687 -3475 -5 c-3340 -4 -3475 -3 -3475
14 0 15 -9 18 -60 18 l-60 0 0 60 c0 33 -2 60 -4 60 -5 0 -193 38 -224 45 -21
5 -22 3 -22 -80 l0 -85 -35 0 c-27 0 -35 -4 -35 -18 0 -17 -15 -19 -202 -25
-112 -4 -251 -7 -310 -7 l-107 0 -21 -46 c-19 -44 -20 -66 -20 -360 l0 -314
-300 0 -300 0 0 40 0 40 -815 0 -815 0 0 25 0 25 -360 0 -360 0 0 -60 c0 -59
-1 -60 -27 -60 -150 2 -5636 230 -5641 235 -4 4 -9 45 -12 93 l-5 86 -655 297
-654 297 -202 438 -201 439 171 97 171 98 178 0 177 0 0 170 0 170 -79 0 -79
0 -23 68 c-12 37 -27 70 -33 74 -6 4 -39 8 -72 8 l-62 0 -27 -75 -28 -75 -93
0 c-94 0 -94 0 -94 25 l0 25 -1435 0 -1435 0 0 -25 0 -25 -110 0 -110 0 0
-172 1 -173 130 -90 c72 -49 135 -92 139 -95 4 -3 14 -203 21 -446 l13 -441
-29 -163 -29 -163 -253 -476 -253 -476 0 -857 0 -858 260 0 259 0 6 -1132 c8
-1715 19 -2600 34 -2684 l13 -71 346 -6 c190 -4 419 -7 509 -7 l165 0 226 -60
227 -60 808 -55 c444 -30 828 -55 853 -55 l44 0 0 -180 0 -180 -190 0 -191 0
-272 -111 c-150 -61 -290 -124 -311 -140 -39 -28 -43 -29 -163 -29 -122 0
-122 0 -156 30 l-35 30 -143 0 c-121 0 -966 -69 -1046 -85 -12 -3 -25 -17 -31
-35 l-11 -30 -1013 -2 c-752 -1 -922 -4 -658 -9 195 -3 651 -7 1013 -8 l658
-1 10 -29 c12 -35 -33 -29 532 -81 247 -23 484 -40 560 -40 l133 0 29 30 29
30 126 0 c123 0 128 -1 166 -28 21 -15 163 -78 314 -140 l275 -112 663 0 662
0 0 380 0 380 -228 2 -229 3 73 175 73 175 2255 3 2256 2 0 80 0 80 1128 0
c620 0 1502 3 1959 7 l833 6 0 -51 0 -52 400 0 400 0 31 -50 31 -50 202 0 202
0 29 50 30 50 143 0 142 0 0 -145 0 -145 -50 0 -50 0 0 -50 0 -50 50 0 c43 0
50 -3 50 -20 0 -17 -7 -20 -40 -20 l-40 0 0 -50 0 -50 40 0 40 0 0 -795 0
-795 30 0 30 0 0 -147 c0 -82 7 -728 15 -1438 8 -710 15 -1427 16 -1595 1
-168 8 217 15 855 7 638 15 1422 19 1742 l7 583 29 0 29 0 0 795 0 795 40 0
40 0 0 50 0 50 -40 0 c-33 0 -40 3 -40 20 0 17 7 20 50 20 l50 0 0 50 0 50
-50 0 -50 0 0 145 0 145 160 0 160 0 0 -95 0 -95 125 0 125 0 0 -358 0 -358
50 -21 51 -22 -3 -77 -3 -76 -45 -18 -45 -18 2 -97 c2 -89 10 -122 79 -361
l77 -263 52 -6 52 -7 6 -541 c4 -297 7 -720 7 -939 0 -347 2 -398 15 -398 13
0 15 89 15 738 0 405 3 828 7 939 l6 201 53 7 c37 4 55 11 58 23 3 9 37 128
76 264 65 229 70 254 70 343 l0 96 -50 21 -50 21 0 74 0 74 50 21 50 21 0 358
0 359 440 0 440 0 0 58 c0 31 3 74 6 95 l7 37 1098 0 1099 0 0 363 c0 199 3
514 7 700 l6 337 506 0 506 0 150 -175 150 -175 95 0 c52 0 203 5 335 12 l240
11 263 164 263 163 484 0 485 0 0 140 0 140 75 0 75 0 0 126 0 127 31 -7 c17
-3 53 -6 80 -6 l49 0 0 -205 0 -205 85 0 85 0 2 -592 3 -592 1877 -698 1878
-698 1122 -159 1123 -160 1614 -36 1614 -36 36 -32 c307 -274 811 -730 811
-732 0 -1 -37 -29 -82 -62 l-83 -59 -3240 -35 c-2358 -25 -3154 -36 -2925 -41
173 -3 1631 -21 3240 -39 l2925 -32 136 -99 c103 -74 145 -98 168 -98 l31 0 0
-165 0 -165 -515 0 -515 0 0 -755 0 -755 515 0 515 0 0 -315 0 -315 -515 0
-515 0 0 -90 0 -90 1570 0 1570 0 0 90 0 90 2615 0 2615 0 0 1190 0 1190 90 0
90 0 0 -694 c0 -668 3 -738 29 -768 4 -5 218 239 476 542 l470 549 5 -872 c3
-549 9 -880 15 -893 9 -20 56 32 480 527 l470 548 5 -887 c4 -764 7 -891 20
-913 l15 -27 854 999 c502 587 858 996 865 992 6 -3 23 -15 38 -25 14 -10 29
-18 32 -18 3 0 6 212 6 470 l0 470 28 0 c25 0 31 6 40 39 7 21 12 95 12 164
l0 125 203 6 c111 3 951 9 1867 12 916 3 1667 8 1669 10 2 2 2 6 -1 9 -3 4
-2971 24 -3625 25 l-113 0 0 525 0 525 250 0 249 0 3 -95 3 -95 190 89 190 88
257 319 257 319 1 273 0 272 430 0 c423 0 430 0 430 20 0 19 7 20 175 20 l175
0 0 510 0 510 -175 0 -175 0 0 765 0 765 125 0 125 0 0 250 0 250 -125 0 -125
0 0 1078 0 1077 -430 -3 -430 -3 0 250 0 251 -255 328 -256 327 -192 91 -192
92 -3 -109 -3 -109 -248 0 -249 0 -12 100 -13 100 -29 0 -28 0 0 225 0 225 90
0 90 0 0 128 0 128 -313 455 -314 454 -456 3 -455 2 -498 296 c-273 163 -505
299 -515 301 -18 5 -19 -8 -21 -259 l-3 -264 -455 272 c-250 150 -461 273
-467 273 -10 1 -13 -63 -15 -273 l-3 -274 -459 274 c-252 151 -465 274 -472
274 -12 0 -14 -47 -14 -270 0 -148 -2 -270 -4 -270 -3 0 -212 124 -465 275
-253 151 -465 275 -471 275 -7 0 -10 -305 -10 -960 l0 -960 -794 0 -794 0
-292 -100 -293 -100 -241 0 -242 0 -33 138 c-19 75 -35 138 -36 140 -1 1 -53
11 -116 22 -63 11 -124 23 -136 25 -23 5 -23 8 -23 150 l0 145 106 0 c58 0
104 4 102 8 -1 5 -30 84 -63 175 l-60 167 -102 0 -103 0 0 125 0 125 -45 0
-45 0 0 505 c0 442 2 505 15 505 12 0 15 19 15 115 l0 115 -295 0 -295 0 0 60
c0 33 -4 60 -10 60 -6 0 -11 130 -14 343 -3 309 -41 1406 -44 1297z m248
-2495 l0 -505 -50 0 -50 0 0 -125 c0 -118 -1 -125 -20 -125 -19 0 -20 7 -20
164 0 148 -2 166 -20 189 -19 24 -20 40 -20 466 l0 441 90 0 90 0 0 -505z
m-27760 -2425 c1520 -60 2781 -110 2802 -110 l38 0 0 -65 0 -65 360 0 360 0 0
25 0 25 815 0 815 0 0 45 0 45 300 0 300 0 0 -109 c0 -88 4 -117 20 -155 l21
-46 294 0 295 0 0 -29 c0 -15 3 -49 6 -75 l7 -46 -707 0 -706 0 0 -115 0 -115
-601 0 -601 0 56 46 c31 25 56 46 57 47 3 5 26 342 24 345 -1 1 -949 -13
-2106 -32 l-2104 -35 -1255 180 c-690 99 -1265 182 -1277 184 -22 5 -23 11
-23 85 0 77 1 80 23 80 13 0 1267 -49 2787 -110z m8640 -485 l0 -75 -845 0
-845 0 0 75 0 75 845 0 845 0 0 -75z m824 38 c3 -21 6 -55 6 -75 l0 -38 -150
0 -150 0 0 75 0 75 144 0 143 0 7 -37z m8246 -1119 l0 -367 -302 8 c-167 4
-304 8 -306 10 -2 1 5 22 14 45 15 38 16 74 10 356 l-7 314 296 0 295 0 0
-366z"/>
</g>
</svg>
