<?xml version="1.0" standalone="no"?>
<!DOCTYPE svg PUBLIC "-//W3C//DTD SVG 20010904//EN"
 "http://www.w3.org/TR/2001/REC-SVG-20010904/DTD/svg10.dtd">
<svg version="1.0" xmlns="http://www.w3.org/2000/svg"
   viewBox="0 0 2399.000000 706.000000"
 preserveAspectRatio="xMidYMid meet">
<metadata>
Created by potrace 1.16, written by Peter Selinger 2001-2019
</metadata>
<g transform="translate(0.000000,706.000000) scale(0.100000,-0.100000)"
fill="#000000" stroke="none">
<path d="M12490 6997 c-454 -48 -568 -63 -578 -76 -9 -12 -11 -47 -5 -151 5
-74 8 -171 8 -215 l0 -80 -645 -123 -645 -123 -60 32 -61 32 -129 -27 c-239
-51 -265 -57 -265 -70 0 -7 -38 -22 -87 -35 -75 -19 -95 -29 -133 -65 -43 -41
-50 -44 -175 -70 -71 -15 -301 -68 -510 -118 -344 -82 -391 -96 -495 -144 -86
-40 -252 -96 -650 -218 -514 -158 -541 -165 -685 -181 l-150 -17 -65 -64 c-70
-69 -106 -87 -940 -481 -613 -289 -1809 -902 -2635 -1351 -451 -244 -827 -452
-836 -461 -9 -9 -28 -51 -44 -94 l-27 -77 -322 -216 c-176 -119 -327 -222
-335 -230 -12 -11 -12 -28 3 -119 10 -59 14 -111 9 -115 -4 -4 -109 -85 -233
-180 -256 -197 -239 -169 -197 -318 l26 -93 -31 -35 c-30 -34 -30 -35 -29
-143 l2 -108 -785 -264 c-432 -145 -786 -266 -786 -269 0 -3 35 -26 78 -51 42
-25 156 -94 254 -153 l176 -108 298 26 299 26 80 -80 c86 -86 171 -131 230
-124 354 43 483 92 541 205 26 53 20 51 229 64 50 3 107 8 128 11 l37 6 0 -46
c0 -45 1 -46 33 -46 17 0 126 9 241 20 115 11 212 17 217 14 4 -2 18 -36 30
-74 13 -39 29 -70 35 -70 7 0 68 13 136 29 69 17 240 43 388 61 146 17 628 87
1072 156 443 68 809 124 812 124 4 0 5 24 4 52 l-3 53 155 22 c85 12 158 22
162 22 4 1 8 20 10 43 l3 42 1345 273 1345 273 1000 145 1000 145 990 55 990
55 865 -19 865 -20 121 78 120 78 175 -87 174 -87 370 -47 370 -48 508 -124
c280 -68 514 -124 522 -124 7 0 28 19 46 43 l34 44 320 -69 320 -69 253 21
c205 17 263 19 308 10 43 -9 66 -9 105 1 47 12 52 12 117 -19 37 -17 96 -39
131 -47 35 -9 103 -38 151 -65 l87 -50 7 -52 c3 -29 6 -69 6 -88 l0 -35 348
-134 347 -133 165 -116 c175 -123 350 -259 350 -273 0 -8 264 -226 443 -366
l92 -71 230 -18 230 -17 230 105 230 106 467 -37 467 -36 33 -32 33 -31 495
-7 495 -7 396 102 396 102 125 175 124 175 -37 225 -36 225 -98 144 -97 143
21 30 c12 16 21 34 21 40 0 6 -42 68 -93 138 -74 101 -100 129 -127 138 -28 9
-49 32 -107 116 l-72 106 40 62 c21 34 39 64 39 67 0 24 -183 292 -268 391
-99 116 -106 123 -141 123 -33 0 -49 11 -134 88 -53 48 -250 261 -438 475
l-341 387 -78 0 -78 0 -66 56 c-36 31 -66 60 -66 65 0 5 25 75 55 155 30 81
55 152 55 158 0 6 -116 133 -257 281 l-256 270 -411 244 c-405 239 -416 245
-741 386 -426 185 -1102 494 -1470 674 l-290 142 -190 189 -190 189 -400 106
c-370 98 -432 112 -835 180 -491 83 -562 90 -1120 105 -195 5 -464 14 -596 20
-133 5 -407 10 -608 10 -314 0 -366 -2 -366 -15 0 -19 -20 -22 -365 -40 -212
-11 -357 -24 -499 -46 -109 -16 -200 -28 -201 -27 -2 2 -10 70 -19 152 -14
130 -52 298 -66 295 -3 -1 -259 -29 -570 -62z"/>
</g>
</svg>
