<?xml version="1.0" standalone="no"?>
<!DOCTYPE svg PUBLIC "-//W3C//DTD SVG 20010904//EN"
 "http://www.w3.org/TR/2001/REC-SVG-20010904/DTD/svg10.dtd">
<svg version="1.0" xmlns="http://www.w3.org/2000/svg"
   viewBox="0 0 4771.000000 2600.000000"
 preserveAspectRatio="xMidYMid meet">
<metadata>
Created by potrace 1.16, written by Peter Selinger 2001-2019
</metadata>
<g transform="translate(0.000000,2600.000000) scale(0.100000,-0.100000)"
fill="#000000" stroke="none">
<path d="M15553 25935 l-58 -65 -1109 0 -1108 0 -710 -506 c-391 -279 -725
-511 -742 -515 -28 -8 -2203 -279 -2238 -279 -19 0 -826 -758 -849 -797 -16
-26 -15 -42 7 -233 13 -113 23 -208 21 -211 -1 -3 -888 250 -1972 562 -1083
313 -1984 573 -2001 578 -29 8 -39 3 -135 -70 -57 -44 -113 -91 -125 -105
l-21 -26 -117 33 c-69 19 -116 38 -116 45 0 7 11 55 25 106 14 51 25 98 25
104 0 10 -208 74 -240 74 -7 0 -89 -37 -182 -82 l-168 -81 -16 -51 c-34 -115
-482 -1689 -619 -2181 l-148 -530 -1241 -128 c-790 -82 -1244 -133 -1249 -140
-5 -7 -111 -286 -236 -622 l-228 -610 1269 -3 c1202 -2 1269 -3 1264 -20 -3
-9 -10 -36 -16 -60 l-11 -42 100 -167 101 -167 72 -21 c41 -12 72 -27 71 -33
-2 -7 -120 -161 -263 -344 -142 -183 -259 -337 -258 -343 0 -5 262 -214 582
-464 320 -250 670 -524 779 -609 l198 -155 587 -68 c323 -38 595 -70 604 -73
10 -2 117 -68 238 -146 l220 -143 0 -598 0 -599 1118 0 1118 0 262 -1138 262
-1137 0 -231 0 -231 1853 -6 c1018 -4 2168 -7 2554 -7 l701 0 6 -27 c3 -16 10
-57 16 -93 7 -40 50 -159 112 -310 98 -240 102 -248 203 -385 64 -87 132 -166
179 -208 72 -65 76 -71 76 -110 l-1 -42 -387 -179 c-440 -204 -1021 -456
-1320 -572 l-203 -79 -133 -205 -133 -205 12 -310 12 -310 82 -260 c46 -143
86 -266 90 -272 4 -7 137 -150 296 -317 l290 -305 514 -292 513 -292 446 -18
c370 -15 447 -16 456 -5 9 11 76 11 396 0 212 -8 390 -16 395 -18 6 -2 357
-453 780 -1003 l770 -1000 670 -295 670 -295 115 119 115 120 1960 -1838
c1079 -1012 2500 -2345 3159 -2963 l1199 -1124 18 22 19 23 77 -70 c43 -39 98
-91 122 -116 44 -45 44 -46 26 -66 -10 -11 -16 -22 -14 -24 2 -1 29 -20 59
-40 l55 -37 52 58 c29 32 53 61 53 65 0 3 -18 30 -41 58 l-41 52 -21 -20 -22
-21 -120 113 -120 114 19 21 c11 12 17 23 15 24 -3 3 -6201 5811 -6294 5898
-19 18 -19 19 8 46 l26 28 -264 350 c-145 193 -269 350 -275 350 -5 0 -46 -31
-90 -68 l-81 -69 -52 49 c-29 27 -409 384 -846 793 l-795 745 2149 5 2149 5
237 320 c130 176 243 321 251 323 9 2 292 -51 629 -117 1143 -223 1352 -260
2329 -410 1339 -206 1497 -226 2710 -346 998 -98 1106 -107 1720 -139 691 -37
1976 -71 3697 -97 l761 -12 132 33 c101 26 134 39 142 54 7 12 12 85 14 171 2
150 8 203 45 410 17 93 88 430 118 559 9 37 6 44 -116 248 l-125 210 41 133
c43 139 55 251 29 260 -7 2 -108 19 -223 37 l-211 34 -263 -124 -264 -123
-396 80 c-2221 451 -3308 672 -3319 676 -10 4 -5 17 18 48 l31 43 152 17 c555
63 3042 369 3048 375 11 13 128 773 135 878 l7 102 -149 6 c-82 4 -471 20
-864 36 -393 17 -985 41 -1315 55 -330 14 -1455 73 -2500 130 -1045 58 -2090
115 -2322 128 -233 13 -425 26 -428 28 -2 3 -48 230 -101 505 l-96 499 -27
585 -27 585 119 489 119 489 245 346 c135 190 247 348 249 350 2 2 200 -57
439 -132 239 -76 445 -137 458 -137 25 0 57 44 57 78 0 15 9 21 34 26 20 4 41
16 50 31 10 15 27 97 43 208 l27 183 424 55 c326 41 426 57 432 69 4 8 92 294
194 634 103 341 189 622 191 625 3 2 1014 -5 2248 -17 2371 -24 8853 -64 9462
-60 l360 3 381 623 c209 342 385 627 390 632 20 20 2375 -111 3769 -210 699
-49 1287 -92 1308 -94 l37 -4 336 395 c311 365 338 395 363 390 25 -5 28 -2
49 58 20 54 51 96 217 292 l193 228 646 215 646 215 31 85 c74 203 159 465
159 490 l0 27 -747 150 c-412 83 -1474 297 -2360 474 -894 180 -1613 329
-1613 334 0 6 -2464 439 -5792 1018 l-5793 1007 -2145 340 -2145 340 -1415
149 -1415 149 -1249 63 c-1151 57 -1251 63 -1265 80 -16 18 -52 22 -461 44
-69 4 -362 47 -726 106 -607 98 -613 99 -786 99 l-174 0 -56 69 -56 69 -154 6
c-84 4 -421 15 -748 26 -1102 37 -2363 80 -2605 90 -132 5 -275 10 -317 10
l-77 0 -58 -65z m10082 -9277 c-3 -18 -14 -89 -24 -158 -16 -109 -17 -129 -5
-152 18 -34 18 -72 2 -66 -7 3 -184 58 -394 123 -338 105 -381 121 -376 138 2
10 10 16 17 13 78 -29 533 -166 555 -166 49 0 77 49 95 168 8 56 15 106 15
111 0 11 29 18 83 20 37 1 38 1 32 -31z m-8822 -8894 c485 -455 899 -843 920
-864 l38 -36 -125 -107 -125 -107 -210 92 -209 93 -721 873 c-397 480 -721
874 -721 877 0 3 61 5 136 5 l135 0 882 -826z"/>
</g>
</svg>
