<?xml version="1.0" standalone="no"?>
<!DOCTYPE svg PUBLIC "-//W3C//DTD SVG 20010904//EN"
 "http://www.w3.org/TR/2001/REC-SVG-20010904/DTD/svg10.dtd">
<svg version="1.0" xmlns="http://www.w3.org/2000/svg"
   viewBox="0 0 1264.000000 462.000000"
 preserveAspectRatio="xMidYMid meet">
<metadata>
Created by potrace 1.16, written by Peter Selinger 2001-2019
</metadata>
<g transform="translate(0.000000,462.000000) scale(0.100000,-0.100000)"
fill="#000000" stroke="none">
<path d="M4416 4501 c-284 -110 -300 -118 -309 -146 -13 -40 -12 -40 -47 -15
-36 26 -25 32 -153 -83 l-87 -79 -48 38 c-26 21 -52 41 -58 46 -7 5 -56 -24
-129 -78 -65 -47 -123 -88 -129 -90 -6 -2 -31 16 -55 40 l-43 44 -127 -104
-126 -103 -47 46 -46 46 -113 -102 -112 -102 -46 45 -47 46 -122 -100 c-67
-55 -126 -100 -131 -100 -4 0 -21 18 -36 40 -16 23 -34 39 -40 36 -7 -2 -65
-43 -130 -90 l-118 -87 -36 35 -36 34 -170 -148 -169 -148 -47 34 -46 34 -805
-288 -806 -288 24 -29 c34 -43 39 -63 18 -86 -9 -10 -15 -21 -13 -23 18 -16
198 -73 350 -111 279 -71 362 -74 1789 -75 l1175 0 193 -29 c107 -16 195 -31
197 -33 1 -2 21 -40 44 -85 39 -78 43 -83 74 -83 17 0 216 -13 440 -30 l408
-29 156 -83 c155 -82 157 -84 247 -185 78 -89 95 -114 123 -189 l33 -86 -29
-52 c-51 -88 -180 -202 -322 -283 l-125 -71 -92 -126 -92 -126 66 -143 c36
-78 70 -147 77 -154 7 -6 77 -47 157 -90 80 -43 258 -155 395 -249 l250 -170
217 -68 217 -68 188 32 c179 30 196 36 353 102 l165 71 270 12 c265 12 280 12
800 -21 292 -19 538 -34 548 -34 13 0 17 -8 17 -34 0 -42 -81 -29 655 -106
679 -72 635 -66 635 -90 0 -23 22 -25 170 -10 79 8 138 5 343 -16 137 -13 314
-33 394 -44 229 -31 360 -27 625 19 123 21 292 49 376 61 141 21 154 21 171 6
24 -22 52 -20 151 8 118 34 695 183 749 193 25 5 46 13 48 19 5 14 -116 21
-462 30 -223 5 -259 8 -337 30 -106 29 -126 30 -154 3 -23 -21 -25 -21 -226
-10 -112 6 -275 20 -363 31 -316 38 -466 49 -850 60 -328 9 -405 15 -485 32
-66 15 -95 17 -98 9 -2 -6 -10 -11 -17 -11 -7 0 -15 -4 -17 -9 -1 -6 -279 62
-617 150 -465 120 -617 156 -627 148 -11 -9 -132 41 -526 216 l-513 227 -260
166 c-236 150 -266 172 -325 240 -75 88 -89 135 -90 290 l0 93 41 54 c23 30
47 55 53 55 7 0 40 -9 74 -21 l62 -21 97 33 c119 39 240 98 272 133 14 14 30
26 37 26 7 0 21 -26 31 -57 l20 -58 79 -3 c47 -2 85 -8 94 -16 8 -8 101 -28
205 -46 130 -22 205 -40 238 -57 37 -18 52 -21 62 -13 11 9 100 -42 402 -228
l388 -240 83 -106 c65 -82 89 -106 108 -106 13 0 24 -4 24 -10 0 -5 9 -10 20
-10 16 0 20 -7 20 -33 0 -24 8 -41 30 -62 16 -15 27 -32 24 -37 -3 -5 4 -34
17 -64 27 -69 28 -69 217 -100 41 -6 41 -23 -3 -52 -31 -20 -35 -27 -35 -66
l0 -45 58 -8 c72 -10 291 -10 355 0 l47 8 0 48 c0 35 -5 53 -20 66 -31 28 -25
45 15 45 31 0 35 3 35 25 0 21 5 25 32 25 24 0 43 10 75 42 24 23 43 46 43 51
0 5 -9 22 -21 38 -17 24 -18 29 -5 29 9 0 45 15 82 33 l66 32 -6 220 c-4 121
-9 270 -12 331 -6 105 -5 113 20 162 14 28 39 58 56 69 l30 17 -2 340 -3 340
-155 111 -154 111 -61 141 -60 141 -140 158 c-76 88 -192 213 -256 279 l-117
120 -40 130 -40 130 28 6 c16 3 46 20 68 37 l39 31 179 5 c98 3 260 9 359 13
l180 8 -160 9 c-93 5 -171 14 -185 21 -14 7 -102 18 -197 25 l-172 12 -76 43
c-42 24 -84 50 -93 58 -13 11 -194 28 -757 71 l-740 58 -190 -12 c-104 -7
-194 -16 -199 -21 -6 -5 -179 -9 -393 -9 -372 0 -383 1 -383 19 0 24 15 22
-410 61 -323 30 -327 31 -625 20 -278 -11 -313 -14 -478 -46 -99 -20 -181 -34
-183 -31 -2 2 -14 33 -27 69 l-22 65 -299 -116z m4874 -3196 l45 -46 -74 3
c-60 2 -76 7 -85 22 -8 14 -8 20 3 24 7 2 21 13 30 22 24 27 33 24 81 -25z"/>
</g>
</svg>
