<?xml version="1.0" standalone="no"?>
<!DOCTYPE svg PUBLIC "-//W3C//DTD SVG 20010904//EN"
 "http://www.w3.org/TR/2001/REC-SVG-20010904/DTD/svg10.dtd">
<svg version="1.0" xmlns="http://www.w3.org/2000/svg"
   viewBox="0 0 3232.000000 1702.000000"
 preserveAspectRatio="xMidYMid meet">
<metadata>
Created by potrace 1.16, written by Peter Selinger 2001-2019
</metadata>
<g transform="translate(0.000000,1702.000000) scale(0.100000,-0.100000)"
fill="#000000" stroke="none">
<path d="M7850 16935 c-597 -46 -1373 -100 -1725 -120 l-640 -36 -720 -95
c-716 -94 -723 -95 -1260 -205 -463 -95 -613 -131 -1050 -249 l-510 -138 -680
-325 -680 -326 -111 -6 c-111 -7 -113 -8 -210 -61 l-99 -53 -81 -278 c-71
-242 -79 -279 -65 -284 19 -8 354 -67 424 -75 l47 -5 0 -420 c0 -230 1 -419 3
-419 1 0 63 -18 137 -40 l135 -39 75 -80 75 -79 1075 -126 c591 -69 1505 -169
2031 -221 l956 -94 299 -104 299 -103 325 9 325 9 50 48 50 49 40 -32 c22 -18
104 -85 183 -149 78 -65 153 -120 165 -123 113 -26 444 -97 718 -155 l333 -70
196 -195 c108 -107 198 -195 201 -196 2 0 258 -35 569 -78 l565 -77 225 58
c399 104 324 96 616 67 l256 -25 50 55 50 54 506 30 507 29 155 154 c85 85
161 154 167 154 7 0 48 11 91 25 65 20 87 33 117 66 l37 42 67 -6 c50 -5 158
-39 436 -138 l370 -132 245 27 245 27 350 -12 c306 -10 353 -14 375 -30 15
-10 275 -74 670 -164 l644 -148 193 7 192 8 208 -67 c524 -168 1149 -379 1255
-423 208 -88 207 -88 489 -63 134 12 254 21 266 21 18 0 26 -14 52 -90 l30
-91 -34 -179 c-27 -145 -52 -236 -131 -474 l-98 -295 -109 -97 -109 -98 -355
64 c-296 52 -356 61 -364 49 -5 -8 -23 -48 -40 -89 -17 -41 -66 -158 -110
-260 -43 -102 -79 -191 -79 -197 0 -10 254 -162 731 -436 129 -75 357 -213
505 -308 148 -94 274 -173 280 -176 5 -2 30 24 54 57 24 33 45 60 47 60 4 0
493 -401 527 -431 9 -8 -3 -111 -21 -186 -4 -18 38 -59 264 -256 228 -200 302
-273 496 -486 l229 -250 63 50 c34 27 67 49 71 49 9 -1 646 -840 652 -859 2
-5 -14 -35 -34 -66 l-38 -57 213 -421 c118 -232 234 -459 258 -504 l44 -82 52
7 c29 3 67 7 86 7 l33 0 164 -459 164 -459 70 -92 c69 -90 70 -93 120 -263 27
-94 50 -177 50 -184 0 -7 -32 -35 -71 -61 -50 -35 -68 -53 -65 -65 34 -111
108 -404 116 -462 6 -41 13 -85 15 -97 5 -20 -5 -25 -122 -63 -71 -23 -229
-85 -353 -137 -150 -64 -340 -133 -570 -208 l-345 -112 -152 -229 c-136 -204
-156 -229 -178 -227 -14 1 -156 39 -316 84 l-290 82 -42 -19 c-23 -10 -472
-218 -997 -460 l-955 -442 2 -79 c2 -91 202 -1158 233 -1237 10 -27 12 -28 68
-22 31 3 230 20 442 36 212 16 409 32 438 35 l52 6 0 -34 c0 -19 -7 -72 -16
-117 -8 -45 -14 -83 -12 -85 2 -1 260 -43 573 -93 l570 -90 1180 -7 1180 -7
455 77 c250 42 456 78 457 79 1 1 -58 110 -132 241 -73 132 -133 240 -132 241
14 14 512 232 516 226 24 -34 176 -231 224 -291 59 -72 60 -73 98 -67 58 9
864 241 958 275 l83 30 182 -85 182 -85 1275 433 1275 434 172 154 172 154
212 73 c116 40 221 81 232 92 12 11 190 205 396 431 l375 411 115 -5 c63 -3
156 -9 205 -12 l90 -6 185 502 c102 277 190 508 197 515 22 23 258 98 357 114
l100 16 62 330 c34 181 62 330 61 331 -1 0 -19 10 -39 23 -39 23 -39 25 -53
155 -5 41 -13 64 -26 75 -19 16 -18 23 48 366 l68 350 71 9 70 8 90 305 c49
167 92 309 95 315 4 7 94 6 284 -1 197 -8 280 -9 285 -1 9 14 33 260 27 267
-3 3 -89 17 -191 31 l-185 26 -5 81 c-3 44 -7 170 -9 281 l-3 201 165 7 c90 3
248 6 351 6 l187 0 7 83 c3 45 8 136 11 202 9 181 -10 161 165 167 83 3 153 8
156 11 6 5 184 689 184 705 0 4 -80 147 -179 317 l-178 309 -259 148 c-259
148 -259 148 -677 476 l-419 328 -415 189 -416 190 -777 755 -777 755 -974
651 c-938 627 -1011 674 -1989 1269 l-1015 618 -180 178 c-134 132 -200 189
-259 225 l-78 47 -177 -16 c-157 -14 -300 -13 -314 3 -2 3 -9 72 -14 153 -6
81 -14 152 -19 157 -5 4 -274 96 -599 204 l-590 196 -51 -57 -52 -57 -318 149
c-450 209 -495 229 -528 227 -16 -2 -83 -11 -148 -22 l-118 -19 -794 223 -795
223 -159 95 -159 94 -157 33 -157 34 -87 -42 c-48 -22 -97 -41 -108 -41 -16 0
-572 147 -666 176 -13 4 -18 19 -20 57 l-3 52 -345 72 c-190 39 -359 74 -377
78 -31 5 -32 4 -103 -110 -40 -63 -75 -115 -79 -115 -3 0 -120 23 -259 51
l-252 50 -104 62 c-86 51 -108 69 -126 105 -13 24 -30 47 -39 51 -9 5 -82 23
-162 41 l-146 33 -74 -56 -74 -55 -590 58 c-518 51 -686 63 -1375 99 -1058 55
-2356 88 -3680 94 l-975 5 -1085 -83z m3937 -2376 c-6 -9 -15 -15 -21 -14 -6
2 -37 9 -68 15 l-58 11 0 49 0 49 79 -46 c69 -40 78 -48 68 -64z m-4741 -1183
l331 -44 249 -95 c185 -70 275 -99 352 -113 56 -9 102 -20 102 -24 0 -3 -57
-34 -127 -69 l-128 -63 -180 11 c-379 23 -473 33 -640 67 -93 19 -176 40 -185
48 -8 7 -68 57 -133 111 l-118 98 58 59 c31 32 64 58 73 58 8 0 164 -20 346
-44z m5919 -520 c86 -5 221 -29 623 -114 l514 -107 -68 -9 c-41 -5 -180 -5
-349 1 l-280 10 -245 68 -245 67 -55 49 c-45 41 -51 49 -30 45 14 -3 75 -7
135 -10z m-1539 -112 c19 -29 35 -56 36 -62 2 -5 -20 -28 -49 -51 l-52 -42
-147 3 -147 3 124 111 123 110 40 -10 c32 -9 46 -21 72 -62z m-786 -133 l135
-29 -136 -1 -136 -1 -11 25 c-20 43 -30 43 148 6z m8631 -1398 c85 -47 239
-133 343 -190 161 -89 240 -142 555 -375 l366 -271 165 -275 c91 -151 169
-283 174 -294 8 -16 -14 -43 -156 -186 -91 -92 -259 -277 -373 -412 -114 -135
-213 -251 -220 -258 -10 -11 -25 -10 -86 6 l-75 19 -142 -65 -142 -65 -116 77
-116 77 -121 -20 -122 -19 -35 27 c-19 15 -157 120 -307 234 l-272 207 24 53
c12 28 39 87 59 131 20 43 36 85 36 93 0 8 -44 71 -97 139 l-98 124 3 53 c16
278 15 275 112 542 50 137 104 297 121 355 17 58 39 135 50 173 l20 67 137 70
c75 38 142 69 148 69 7 1 81 -38 165 -86z m2342 -2388 c91 -149 169 -278 172
-286 5 -12 -60 -79 -239 -250 -135 -128 -246 -236 -246 -239 0 -14 90 -613 93
-615 1 -1 133 -75 292 -165 254 -142 324 -188 325 -211 1 -19 -86 -99 -159
-147 l-86 -56 -125 -4 -125 -3 -182 78 -183 78 -395 418 c-217 230 -395 421
-395 423 0 2 18 34 40 70 22 36 37 71 33 77 -4 7 -62 83 -130 169 -68 87 -123
162 -123 166 0 5 36 40 81 78 l80 69 -5 76 -5 76 362 161 c292 128 396 180
537 265 l175 105 21 -31 c11 -18 95 -154 187 -302z m1145 -2295 c191 -45 429
-103 530 -130 100 -28 190 -50 200 -50 16 0 23 -43 66 -392 27 -216 66 -525
87 -687 21 -162 36 -297 34 -302 -3 -4 -68 -54 -146 -110 -126 -93 -139 -106
-135 -129 3 -14 8 -70 11 -125 l7 -100 -304 -330 -304 -330 -150 -3 -151 -3
-69 156 -69 156 -68 52 c-75 58 -65 38 -137 283 l-32 110 26 128 26 128 -225
469 c-124 258 -225 473 -225 476 0 4 20 28 45 54 l46 46 16 144 16 144 78 104
c65 86 92 112 152 149 101 64 299 172 315 172 8 0 170 -36 360 -80z"/>
</g>
</svg>
