<?xml version="1.0" standalone="no"?>
<!DOCTYPE svg PUBLIC "-//W3C//DTD SVG 20010904//EN"
 "http://www.w3.org/TR/2001/REC-SVG-20010904/DTD/svg10.dtd">
<svg version="1.0" xmlns="http://www.w3.org/2000/svg"
   viewBox="0 0 4581.000000 2216.000000"
 preserveAspectRatio="xMidYMid meet">
<metadata>
Created by potrace 1.16, written by Peter Selinger 2001-2019
</metadata>
<g transform="translate(0.000000,2216.000000) scale(0.100000,-0.100000)"
fill="#000000" stroke="none">
<path d="M34275 22040 c-100 -100 -125 -120 -150 -120 -25 0 -35 8 -57 45 -15
25 -33 45 -41 45 -38 0 -1062 -151 -1067 -158 -4 -4 -12 -33 -19 -64 l-12 -58
-162 0 c-170 0 -1373 -17 -1679 -24 l-178 -3 -24 76 -24 76 -199 -1 c-109 -1
-459 -5 -779 -9 l-581 -7 -21 -49 -20 -49 -174 -1 c-95 0 -382 -4 -638 -8
l-465 -8 -137 -56 -136 -56 -344 -2 -344 -2 -205 137 -206 137 -444 -15 c-323
-11 -595 -28 -999 -61 -305 -25 -555 -45 -557 -45 -1 0 5 16 13 35 11 27 11
35 2 35 -7 0 -222 -29 -478 -64 -401 -56 -502 -66 -730 -77 l-265 -12 -72 -49
-71 -49 -414 -9 c-227 -5 -431 -12 -453 -15 -75 -10 -629 -25 -634 -17 -3 5
-122 6 -263 4 -198 -3 -258 -7 -258 -17 0 -10 -65 -14 -277 -20 -247 -7 -285
-10 -353 -30 l-75 -23 -55 53 -55 52 -632 -143 c-478 -108 -725 -169 -1015
-253 -211 -60 -1384 -392 -2608 -736 l-2225 -627 -565 -255 c-311 -140 -570
-260 -576 -267 -6 -6 -16 -26 -23 -45 -11 -33 -9 -36 68 -134 59 -75 91 -129
126 -208 l47 -107 -163 -339 c-89 -186 -165 -341 -169 -345 -3 -5 -685 -82
-1515 -173 -831 -90 -1528 -167 -1550 -170 l-40 -6 -90 116 c-50 64 -97 125
-105 136 -16 20 -41 16 -2085 -286 -1139 -168 -2076 -309 -2084 -313 -8 -4
-63 -95 -122 -202 -95 -170 -113 -197 -141 -207 -18 -7 -1077 -294 -2353 -638
-1276 -344 -2327 -629 -2336 -633 -35 -15 29 -126 262 -457 124 -176 452 -644
729 -1040 l504 -720 127 -380 c219 -655 306 -874 422 -1060 l55 -87 203 -94
c146 -67 215 -93 244 -94 38 0 41 -3 73 -60 l33 -60 126 -60 126 -60 112 0
112 0 113 -292 c182 -472 230 -572 373 -770 l122 -168 55 0 c30 0 231 -5 445
-11 349 -10 394 -14 427 -31 l38 -18 0 -476 0 -475 33 -13 c17 -7 65 -26 105
-40 71 -27 72 -28 73 -64 1 -30 8 -43 37 -68 33 -29 103 -51 637 -203 377
-107 879 -260 1350 -412 413 -132 752 -243 754 -245 3 -2 8 -32 12 -65 4 -33
9 -62 10 -63 2 -2 326 -29 719 -60 393 -31 729 -59 746 -62 28 -4 47 8 171
105 l139 109 950 61 949 61 903 0 902 0 0 -60 0 -60 240 0 240 0 0 -110 0
-110 1939 0 1939 0 12 -30 12 -30 138 0 137 0 203 -86 c185 -78 213 -93 319
-174 157 -118 265 -239 330 -368 36 -73 50 -113 55 -162 4 -36 12 -82 17 -102
l10 -38 929 0 c613 0 930 -3 930 -10 0 -6 58 -10 153 -10 85 0 195 -3 245 -6
81 -6 92 -9 92 -25 0 -18 12 -19 215 -19 177 0 350 -11 997 -65 430 -36 842
-66 917 -66 133 -1 129 -2 -164 -25 -165 -13 -316 -24 -336 -26 l-36 -3 52
-120 c28 -66 139 -318 245 -560 l193 -440 28 -170 c25 -149 28 -197 29 -387
l0 -218 29 0 c16 0 33 -6 38 -12 5 -7 18 -62 27 -123 10 -60 21 -113 24 -116
4 -3 412 -74 907 -158 l900 -153 155 44 155 45 141 -346 c168 -411 385 -888
485 -1067 58 -104 92 -151 178 -244 58 -64 143 -143 188 -178 l82 -62 -19 -56
c-27 -78 -26 -91 10 -99 34 -8 34 2 -3 -118 l-21 -68 -37 6 c-34 6 -36 4 -45
-27 -8 -27 -17 -36 -54 -48 -60 -20 -70 -27 -70 -51 0 -37 49 -118 95 -156 42
-35 71 -45 373 -131 196 -55 441 -117 612 -153 l285 -60 35 -37 35 -37 355
-59 c195 -32 359 -62 363 -66 4 -4 3 -19 -2 -33 -6 -15 -7 -27 -3 -27 4 0 39
-52 77 -116 l70 -115 208 6 c183 5 207 4 207 -9 0 -12 11 -16 50 -16 38 0 50
4 50 15 0 12 16 15 80 15 l80 0 0 -50 0 -50 138 0 c118 0 148 -3 207 -23 l69
-24 76 24 75 23 773 0 772 0 0 -25 0 -25 105 0 105 0 0 25 0 25 313 0 312 -1
40 -35 c38 -33 39 -35 21 -49 -11 -8 -15 -19 -10 -27 21 -36 117 -158 124
-158 4 0 13 7 20 15 20 24 34 18 69 -26 18 -22 72 -84 119 -137 l85 -97 161
-48 161 -47 57 16 c70 21 43 41 254 -192 149 -164 161 -175 189 -170 17 2 596
113 1287 246 l1257 241 274 129 c151 72 279 130 285 130 7 0 197 -91 424 -203
l413 -203 154 91 153 90 558 1468 c307 807 559 1469 561 1471 2 2 60 -18 129
-45 170 -66 402 -151 405 -147 1 2 288 392 636 868 l635 865 386 860 386 860
151 787 151 787 41 563 40 563 110 720 110 720 156 410 c155 406 158 412 264
585 l107 175 68 6 c38 4 129 7 202 8 l132 1 0 49 c0 56 8 51 -120 71 -99 15
-100 15 -100 -25 l0 -35 -65 0 c-36 0 -65 3 -65 6 0 4 34 62 75 129 l75 122
293 7 c160 3 535 8 832 11 297 3 618 8 713 11 l172 6 0 52 0 52 -122 13 c-68
7 -142 15 -165 18 l-42 6 -7 -42 -7 -42 -691 7 c-380 3 -739 9 -798 13 l-107
6 354 580 c290 474 410 684 659 1145 309 573 450 861 832 1704 l149 328 45 -7
c25 -4 54 -8 64 -9 16 -1 76 86 273 394 140 217 263 413 273 435 11 22 72 282
136 578 l116 538 -76 430 -75 430 -135 182 c-74 100 -156 211 -183 246 l-48
63 -1194 575 -1194 574 -1116 473 -1116 474 -980 192 -980 192 -1405 53 -1405
52 -20 -22 c-11 -12 -41 -52 -68 -88 l-47 -67 -41 21 c-93 47 -412 105 -874
158 -242 28 -445 51 -450 51 -6 0 -64 -54 -130 -120z"/>
</g>
</svg>
