<?xml version="1.0" standalone="no"?>
<!DOCTYPE svg PUBLIC "-//W3C//DTD SVG 20010904//EN"
 "http://www.w3.org/TR/2001/REC-SVG-20010904/DTD/svg10.dtd">
<svg version="1.0" xmlns="http://www.w3.org/2000/svg"
   viewBox="0 0 4111.000000 711.000000"
 preserveAspectRatio="xMidYMid meet">
<metadata>
Created by potrace 1.16, written by Peter Selinger 2001-2019
</metadata>
<g transform="translate(0.000000,711.000000) scale(0.100000,-0.100000)"
fill="#000000" stroke="none">
<path d="M3569 7096 c-49 -14 -219 -123 -241 -155 -13 -18 -86 -28 -768 -105
-456 -52 -756 -90 -760 -96 -4 -7 -13 -36 -19 -65 l-12 -53 -62 -17 c-34 -9
-429 -114 -877 -233 l-815 -217 -9 -92 -9 -92 43 -120 42 -119 46 -6 c26 -3
209 -19 407 -36 198 -16 386 -32 418 -36 l57 -6 0 -218 0 -218 -127 -7 c-71
-4 -153 -10 -183 -14 l-55 -6 -127 -235 -127 -235 -1 -719 0 -719 75 -144 c41
-79 75 -148 75 -153 0 -5 -11 -12 -24 -16 -19 -4 -33 -27 -70 -117 l-46 -112
0 -910 0 -911 44 -109 44 -110 111 -47 c93 -38 149 -53 334 -89 207 -39 244
-43 540 -58 302 -15 317 -15 317 1 0 17 48 18 899 18 l899 0 436 -261 435
-261 1515 188 1516 189 9 27 10 28 3520 0 3521 0 0 -140 0 -140 335 0 c217 0
335 -4 335 -10 0 -14 936 -14 945 0 4 7 585 10 1709 10 l1704 0 57 25 c49 22
98 30 349 55 252 26 491 38 1766 90 l1476 60 887 0 887 0 0 -95 0 -95 440 0
440 0 0 95 0 95 525 0 525 0 0 -95 0 -95 440 0 440 0 0 95 0 95 520 0 520 0 0
-95 0 -95 440 0 440 0 0 165 0 165 51 0 c43 0 50 -3 45 -16 -3 -9 -6 -18 -6
-20 0 -2 -18 -4 -40 -4 l-40 0 0 -40 0 -40 850 0 850 0 0 30 0 30 -71 0 c-69
0 -71 1 -65 23 3 12 6 25 6 30 0 9 883 9 896 -1 5 -4 73 -6 152 -4 115 3 142
6 142 18 0 9 -11 14 -34 14 -18 0 -61 3 -95 6 l-61 7 0 38 0 39 115 0 c91 0
115 3 115 14 0 18 -315 35 -333 17 -8 -8 -349 -11 -1244 -11 -1089 0 -1233 2
-1233 15 0 12 17 15 89 15 86 0 93 2 163 40 61 33 83 40 130 40 31 0 58 4 60
10 2 6 214 13 583 17 564 8 572 8 295 14 -157 3 -417 7 -577 8 -161 0 -293 4
-293 9 0 4 30 22 66 41 48 25 76 48 106 88 26 34 48 53 62 53 11 0 211 11 442
24 l422 23 115 79 c83 57 110 81 98 85 -9 3 -128 15 -266 25 -183 14 -234 20
-190 24 l59 5 142 225 142 225 163 131 163 131 43 223 c24 123 45 225 48 228
3 4 467 61 498 62 4 0 7 14 7 30 l0 30 -244 0 -243 0 18 92 c11 51 18 96 16
102 -2 5 -59 28 -128 51 l-124 42 -3 181 -2 182 92 0 92 0 336 146 c184 80
340 150 345 155 6 5 21 60 35 122 l25 112 314 3 314 2 513 -290 514 -290 168
0 168 0 53 -54 52 -53 1192 -7 c3618 -19 4141 -19 4632 -2 l470 17 60 36 c86
52 118 77 134 106 13 24 11 31 -29 95 -42 68 -59 82 -776 637 l-733 568 -473
199 c-260 110 -588 244 -728 298 -140 54 -604 237 -1030 408 l-775 310 -1013
317 -1014 317 -641 114 -642 115 -1925 35 -1925 35 -1981 -6 -1981 -5 -163
-60 -164 -60 -126 0 -127 0 -87 144 -87 143 -52 7 c-29 3 -959 6 -2067 6
l-2015 0 -490 -261 -490 -262 -175 17 c-96 9 -317 28 -490 41 l-315 24 -580
125 c-792 171 -730 162 -988 142 -235 -18 -218 -12 -263 -99 l-25 -48 -82 3
-82 3 -5 300 -5 300 -1042 3 -1043 2 0 -75 0 -75 -55 0 -55 0 0 63 c0 34 -4
68 -8 75 -7 10 -218 12 -1023 10 l-1014 -3 -3 -72 -3 -73 -54 0 -55 0 0 59 c0
33 -3 66 -6 75 -6 14 -105 16 -1019 16 -914 0 -1013 -2 -1019 -16 -3 -9 -6
-42 -6 -75 l0 -59 -55 0 -55 0 0 59 c0 33 -3 66 -6 75 -6 14 -105 16 -1019 16
-914 0 -1013 -2 -1019 -16 -3 -9 -6 -42 -6 -75 l0 -59 -55 0 -54 0 -3 73 -3
72 -1016 3 -1017 2 -6 -22 c-3 -13 -6 -47 -6 -75 l0 -53 -55 0 -54 0 -3 73 -3
72 -1050 2 c-819 1 -1060 -2 -1096 -11z m27287 -6598 c-3 -13 -6 -26 -6 -30 0
-5 -133 -8 -294 -8 l-295 0 10 30 11 30 290 0 290 0 -6 -22z"/>
</g>
</svg>
