<?xml version="1.0" standalone="no"?>
<!DOCTYPE svg PUBLIC "-//W3C//DTD SVG 20010904//EN"
 "http://www.w3.org/TR/2001/REC-SVG-20010904/DTD/svg10.dtd">
<svg version="1.0" xmlns="http://www.w3.org/2000/svg"
   viewBox="0 0 3304.000000 2118.000000"
 preserveAspectRatio="xMidYMid meet">
<metadata>
Created by potrace 1.16, written by Peter Selinger 2001-2019
</metadata>
<g transform="translate(0.000000,2118.000000) scale(0.100000,-0.100000)"
fill="#000000" stroke="none">
<path d="M9540 20906 c494 -198 876 -361 1556 -664 l900 -400 1407 -905 1407
-904 625 -563 c344 -309 624 -565 621 -567 -2 -2 -260 41 -572 96 -444 78
-2225 361 -2274 361 -6 0 -10 83 -10 234 l0 234 -92 6 c-51 3 -496 20 -988 36
-730 25 -1022 30 -1582 30 l-688 0 0 -200 c0 -199 0 -200 -22 -204 -19 -4
-1552 -121 -1682 -129 l-40 -2 -32 194 c-18 106 -35 196 -38 199 -11 11 -1319
-181 -1966 -289 l-655 -109 -1010 -304 -1010 -304 -895 -365 -895 -365 -3 -66
c-2 -36 0 -66 2 -66 3 0 430 121 948 269 l943 269 998 232 c549 128 999 231
1001 229 1 -2 77 -183 168 -401 l166 -398 -52 -29 c-68 -39 -592 -324 -634
-345 -32 -16 -32 -16 -42 9 -12 31 23 49 -355 -179 -189 -114 -292 -170 -297
-163 -4 6 -10 29 -13 49 -4 21 -10 40 -15 43 -5 3 -152 -81 -327 -186 -275
-165 -410 -237 -994 -530 l-677 -338 -6 31 c-4 22 -9 28 -18 21 -47 -37 -648
-453 -654 -453 -5 0 -22 13 -39 30 l-31 30 -89 -79 c-85 -75 -93 -80 -229
-129 -355 -129 -336 -123 -341 -107 -3 8 -7 22 -10 30 -3 10 -131 -58 -477
-256 -260 -149 -485 -282 -500 -297 l-28 -26 0 -157 c0 -109 9 -239 30 -424
16 -147 30 -273 30 -281 0 -20 170 -19 1565 16 660 16 1228 30 1263 30 l62 0
0 -1240 0 -1240 165 0 165 0 0 -65 0 -65 200 0 200 0 0 33 c0 31 4 35 70 67
l70 34 0 64 0 65 132 -167 133 -166 272 0 c149 0 274 -4 277 -9 3 -5 -119 -95
-272 -200 l-277 -192 -67 -301 -66 -301 74 -146 c90 -175 140 -251 321 -482
l138 -176 675 -371 675 -371 600 -267 c533 -237 697 -304 1470 -601 l870 -335
805 -235 c674 -196 1975 -555 2644 -728 l168 -44 207 103 207 104 35 74 35 75
663 -177 662 -176 168 -168 169 -169 863 -100 864 -100 1105 32 1105 32 1969
195 c1082 107 1976 194 1985 194 14 0 43 -87 154 -462 l137 -463 -165 -165
c-126 -126 -165 -171 -165 -190 0 -14 74 -663 165 -1441 155 -1331 168 -1437
232 -1787 l67 -372 86 168 c114 221 236 421 354 578 53 70 99 137 101 148 3
12 169 752 369 1646 l364 1625 12 440 c7 242 14 442 16 444 2 2 108 14 236 27
128 13 1804 235 3723 494 l3490 470 715 138 715 137 3 143 3 142 -63 0 c-35 0
-340 -7 -678 -15 -491 -12 -1333 -14 -4165 -14 -3217 1 -3923 4 -3939 19 -3 3
-79 588 -171 1300 l-166 1295 -401 1070 -401 1070 -372 710 -372 710 -466 666
-466 665 -1178 1211 -1178 1212 -733 599 -733 599 -1277 706 -1277 705 -1475
570 -1475 569 -936 301 -936 301 -641 161 c-353 88 -645 160 -649 160 -5 -1
287 -119 647 -264z m2231 -11057 l92 -61 433 -134 434 -133 386 -36 386 -35
636 0 c619 0 649 0 1052 -31 l415 -31 1420 -574 1420 -573 775 -269 c426 -148
1041 -358 1366 -466 l592 -197 201 -316 c110 -174 200 -317 198 -318 -1 -1
-648 19 -1437 46 -1304 43 -1538 53 -2565 114 l-1130 67 -851 169 -852 169
-267 -33 -268 -34 -406 237 c-223 131 -694 420 -1046 642 -631 399 -1445 935
-1517 1000 l-36 33 94 250 c92 241 95 252 89 310 l-6 60 70 39 c39 22 99 69
138 108 37 37 73 66 80 64 7 -3 54 -33 104 -67z"/>
</g>
</svg>
