<?xml version="1.0" standalone="no"?>
<!DOCTYPE svg PUBLIC "-//W3C//DTD SVG 20010904//EN"
 "http://www.w3.org/TR/2001/REC-SVG-20010904/DTD/svg10.dtd">
<svg version="1.0" xmlns="http://www.w3.org/2000/svg"
   viewBox="0 0 4568.000000 1983.000000"
 preserveAspectRatio="xMidYMid meet">
<metadata>
Created by potrace 1.16, written by Peter Selinger 2001-2019
</metadata>
<g transform="translate(0.000000,1983.000000) scale(0.100000,-0.100000)"
fill="#000000" stroke="none">
<path d="M19120 19760 c-269 -66 -284 -71 -675 -228 -332 -133 -440 -181 -636
-285 l-237 -126 -963 81 -964 81 -58 35 c-53 30 -64 33 -105 27 -26 -4 -59
-14 -74 -23 -26 -15 -93 -11 -1075 71 -848 71 -2951 227 -3065 227 -17 0 -28
-5 -28 -14 0 -13 87 -32 547 -118 l123 -23 0 -87 c0 -50 4 -88 10 -88 5 0 477
-61 1049 -135 972 -126 1052 -138 1248 -185 114 -28 214 -52 221 -55 9 -3 1
-28 -28 -85 l-40 -80 -38 5 c-20 3 -341 28 -712 56 l-675 51 -157 94 c-86 52
-164 94 -173 94 -54 0 -67 -39 -39 -110 9 -23 14 -43 12 -46 -3 -2 -155 7
-339 22 l-334 25 -156 95 c-86 52 -164 94 -173 94 -55 0 -68 -38 -40 -110 9
-23 14 -43 11 -46 -2 -3 -154 7 -336 21 l-332 26 -159 96 c-135 81 -163 94
-188 88 -39 -8 -46 -44 -21 -103 11 -25 18 -47 15 -49 -2 -2 -710 50 -1573
116 -862 67 -1575 121 -1583 121 -13 0 -23 -59 -57 -342 l-42 -341 31 -36 c17
-20 95 -102 174 -183 l143 -148 988 -606 c543 -333 991 -609 995 -613 4 -3
109 -305 234 -671 125 -366 228 -666 229 -668 1 -2 3815 -472 3830 -472 2 0
-36 -90 -83 -200 l-86 -201 -92 -76 c-62 -50 -98 -88 -110 -114 l-17 -39 -176
0 c-97 0 -855 14 -1686 29 -830 16 -1512 27 -1515 24 -3 -2 -5 -32 -5 -66 l0
-61 85 -18 c67 -15 3707 -338 3799 -338 20 0 24 -8 36 -65 l6 -31 -828 -148
c-455 -81 -840 -150 -855 -153 l-28 -5 0 -94 0 -94 -285 0 -285 0 0 -123 0
-123 229 -1009 c126 -556 271 -1198 322 -1429 l93 -418 160 7 161 6 355 -355
355 -356 491 0 491 0 12 -82 c7 -46 14 -90 17 -99 4 -13 -5 -18 -43 -24 -26
-4 -73 -15 -105 -25 -44 -14 -58 -15 -60 -5 -2 9 -32 4 -113 -21 -60 -19 -120
-32 -131 -29 -13 3 -201 -63 -490 -174 -258 -98 -471 -177 -472 -175 -2 1 -1
11 2 22 4 12 31 30 66 46 33 14 60 29 60 34 0 8 -69 184 -75 190 -2 2 -327
-119 -722 -269 l-719 -273 -49 -92 c-48 -89 -57 -99 -190 -213 l-140 -120
-5625 -2136 c-3249 -1235 -5633 -2145 -5643 -2156 -18 -19 -18 -21 2 -74 12
-30 30 -80 42 -110 19 -51 22 -55 48 -50 16 3 2570 970 5675 2150 l5648 2145
163 0 c162 0 164 0 253 -34 l90 -35 714 271 c392 149 716 274 720 277 6 5 -56
188 -67 200 -2 2 -31 -6 -63 -17 -33 -11 -65 -17 -71 -13 -6 4 194 86 446 181
252 96 461 178 465 184 3 6 60 33 125 60 104 43 119 52 116 70 -3 17 5 25 49
42 48 19 528 124 719 156 l76 13 161 -345 161 -345 88 -3 88 -3 -940 -288
-939 -287 -81 16 -80 16 -112 -37 c-69 -23 -200 -82 -334 -151 l-221 -113 6
-86 c14 -208 18 -803 7 -1078 -11 -297 -7 -450 13 -456 6 -2 82 -7 168 -10
l157 -7 123 -134 c68 -74 155 -159 195 -189 l72 -55 813 -16 c447 -9 814 -17
814 -18 1 0 7 -55 13 -121 11 -117 13 -124 79 -267 49 -108 72 -149 87 -153
11 -2 389 -49 840 -105 l820 -100 110 -40 c61 -22 116 -44 124 -49 11 -7 -95
-487 -558 -2532 -314 -1388 -571 -2530 -571 -2536 0 -16 13 -19 223 -52 l175
-27 10 35 c6 20 306 1112 667 2426 361 1315 663 2413 671 2441 l15 52 92 -24
c56 -15 624 -98 1461 -214 l1368 -190 537 -165 536 -164 520 -36 c383 -26 556
-42 655 -60 125 -23 160 -25 439 -25 l303 0 2464 -1570 c1356 -863 2466 -1570
2468 -1570 11 0 106 164 99 171 -4 4 -1061 679 -2348 1499 -1287 820 -2341
1494 -2343 1498 -4 13 373 89 2865 576 2376 465 2470 483 4080 761 1634 283
1676 290 4988 795 1837 280 4461 687 5830 904 l2490 394 195 90 195 91 6 178
c3 98 3 282 0 409 l-6 231 -27 39 c-26 37 -39 43 -215 105 l-188 67 -5 68 -5
69 -112 130 -112 130 277 3 c360 4 363 4 439 -58 l61 -50 26 68 c23 60 26 81
26 203 l0 136 -67 46 c-66 45 -83 50 -660 212 -325 91 -601 165 -613 165 -11
0 -97 -20 -190 -44 l-170 -45 0 79 0 78 -67 25 c-241 90 -331 129 -335 145 -3
10 -38 38 -79 62 l-74 44 -1420 7 c-781 4 -1652 8 -1935 8 l-515 0 -25 -35
-25 -36 -285 6 -285 6 -195 -55 -195 -55 -1434 -60 c-789 -33 -1435 -59 -1437
-58 -1 2 236 142 527 312 l529 308 0 129 0 129 1185 0 1185 0 0 35 0 35 -1185
0 -1185 0 0 67 c0 59 -3 70 -27 95 l-27 28 -1803 0 -1803 0 0 179 0 180 -117
100 c-85 73 -125 101 -145 101 -22 0 -55 33 -197 196 l-170 196 -623 347 -623
347 -1037 239 c-571 131 -1036 240 -1034 242 2 3 1789 -18 1793 -21 1 -1 -7
-66 -17 -146 -11 -80 -19 -163 -20 -186 l0 -41 478 -6 c262 -4 2453 -7 4867
-8 l4390 0 9 69 c5 39 6 85 2 104 -3 18 -41 98 -84 178 l-78 145 1113 3 c730
1 1113 6 1113 12 0 7 169 10 483 10 266 0 1072 3 1790 7 l1307 6 0 22 0 22
-1622 7 c-1543 6 -1933 14 -1949 37 -3 5 -525 14 -1160 20 -635 6 -1158 15
-1163 19 -4 5 -86 149 -181 322 l-173 313 195 190 c156 152 194 195 190 210
-12 38 -37 158 -35 160 2 2 181 46 397 99 217 53 397 98 399 101 2 2 23 66 46
142 l42 138 164 68 c91 38 338 133 548 212 l384 144 396 11 c477 12 552 16
563 27 5 5 -3 21 -21 38 -16 16 -30 33 -30 38 0 4 -28 40 -62 78 -55 61 -82
81 -230 163 l-167 94 -398 67 c-219 36 -560 95 -758 131 -336 60 -385 72 -735
174 l-375 110 -2385 380 -2385 381 -408 234 c-225 129 -418 235 -428 235 -16
0 -19 -7 -19 -52 l1 -53 179 -140 c98 -77 178 -141 177 -142 -2 -1 -210 31
-464 71 l-460 74 -411 236 c-226 130 -418 236 -427 236 -12 0 -15 -12 -15 -53
l0 -54 176 -139 c97 -76 172 -140 167 -141 -4 -1 -213 30 -463 70 l-455 74
-400 230 c-220 127 -410 234 -422 237 -22 7 -23 5 -23 -51 l1 -58 160 -125
c88 -69 170 -132 182 -142 20 -16 19 -16 -23 -8 -25 4 -236 39 -470 76 l-425
68 -406 233 c-223 128 -413 233 -422 233 -14 0 -17 -10 -17 -54 l0 -53 175
-138 c96 -75 175 -138 175 -139 0 -1 -874 139 -1942 311 l-1943 313 -1325 125
c-729 69 -1388 132 -1464 140 l-140 15 -280 144 c-155 79 -379 194 -499 256
l-218 112 -227 59 -227 59 -735 90 c-404 50 -913 113 -1132 140 -383 48 -405
50 -640 49 l-243 -1 -275 -68z m9095 -5953 c-4 -41 -11 -80 -15 -87 -6 -10
-30 -11 -106 -4 l-98 9 109 81 c61 44 112 80 113 78 2 -1 1 -36 -3 -77z m-885
-182 c107 -9 256 -22 330 -30 74 -8 217 -19 317 -26 100 -7 187 -15 193 -19 8
-5 8 -35 -1 -116 -6 -60 -15 -116 -18 -125 -5 -14 -86 2 -618 125 -336 78
-614 144 -618 147 -10 11 159 67 190 63 17 -2 118 -11 225 -19z m-11066 -6123
c4 -7 -240 -54 -269 -52 -26 2 76 45 120 51 75 9 143 10 149 1z"/>
</g>
</svg>
