<?xml version="1.0" standalone="no"?>
<!DOCTYPE svg PUBLIC "-//W3C//DTD SVG 20010904//EN"
 "http://www.w3.org/TR/2001/REC-SVG-20010904/DTD/svg10.dtd">
<svg version="1.0" xmlns="http://www.w3.org/2000/svg"
   viewBox="0 0 4588.000000 825.000000"
 preserveAspectRatio="xMidYMid meet">
<metadata>
Created by potrace 1.16, written by Peter Selinger 2001-2019
</metadata>
<g transform="translate(0.000000,825.000000) scale(0.100000,-0.100000)"
fill="#000000" stroke="none">
<path d="M12116 8219 l-6 -32 -120 8 -120 7 -205 -53 -205 -52 0 -33 c0 -18 6
-35 13 -37 6 -3 -23 -6 -66 -6 l-78 -1 3 -31 c3 -29 19 -39 388 -236 330 -176
415 -217 605 -290 212 -82 259 -106 1336 -682 614 -328 1115 -598 1114 -599
-2 -2 -261 4 -577 13 l-573 18 -51 32 -52 33 -1446 44 -1447 43 -51 -29 -51
-29 -261 7 c-864 24 -2203 68 -2273 76 -46 5 -95 16 -110 23 -25 13 -110 26
-258 42 -27 3 -459 17 -960 31 -880 25 -1133 26 -1206 3 -71 -22 -202 -27
-482 -18 l-288 10 -1227 -116 -1227 -116 -805 -129 -805 -130 -58 -62 -57 -63
0 -90 0 -91 -137 -43 c-76 -23 -188 -58 -249 -77 l-111 -35 -6 -1070 -6 -1069
262 -480 262 -479 1750 -1 1750 -1 107 -89 c83 -70 121 -109 166 -177 75 -110
200 -263 215 -263 7 0 536 -36 1177 -80 641 -44 1860 -123 2710 -175 2487
-153 2278 -134 3065 -276 242 -43 535 -96 650 -116 176 -32 201 -38 155 -41
-30 -1 -797 -11 -1704 -21 -1291 -15 -1650 -22 -1656 -32 -5 -7 -40 -14 -89
-17 -72 -4 -81 -3 -81 13 0 13 -5 16 -22 11 -13 -3 -26 -6 -30 -6 -5 0 -8 -16
-8 -35 0 -24 5 -35 14 -35 8 0 21 -3 30 -6 11 -4 16 -1 16 10 0 13 14 16 85
16 64 0 85 -3 85 -13 0 -11 56 -13 298 -10 163 3 1035 12 1937 22 l1640 19
165 -32 165 -33 -1 -34 -1 -34 279 -143 278 -143 102 -5 c57 -3 332 6 611 19
339 16 525 21 560 15 218 -37 434 -78 699 -134 l309 -64 330 -7 329 -6 6 -24
c8 -31 33 -43 92 -43 27 0 62 -4 78 -10 16 -5 495 -18 1084 -29 1287 -25 1443
-27 1545 -15 78 9 79 9 89 42 l9 32 161 0 162 0 12 -34 c12 -33 15 -35 75 -41
34 -4 379 -9 765 -11 l704 -5 151 -103 c148 -100 157 -105 342 -170 187 -67
193 -68 400 -92 l210 -25 210 25 c209 25 211 25 400 93 173 63 201 77 314 152
l123 83 212 -46 211 -46 961 0 961 0 1034 200 1034 200 1160 136 1160 136 222
89 222 89 3293 349 c2028 215 3412 358 3602 371 170 12 318 25 330 30 12 4 50
11 86 15 35 4 71 11 80 16 11 6 3228 351 3261 349 4 0 127 159 274 353 l268
354 256 7 c141 3 322 9 402 12 l146 7 7 -102 c8 -105 9 -107 55 -94 23 6 24 7
18 98 l-5 92 51 7 c29 3 85 6 125 6 l72 0 0 -49 c0 -26 3 -69 6 -95 7 -45 8
-46 42 -46 l35 0 -7 94 -6 93 52 7 c29 3 81 6 114 6 61 0 62 0 68 -31 3 -17 6
-60 6 -95 0 -61 1 -64 24 -64 50 0 52 4 48 99 l-4 89 93 6 c52 3 261 10 464
16 204 5 433 13 511 16 l141 6 -5 74 -5 74 40 0 c165 0 976 33 1005 40 26 8
53 29 97 79 59 67 62 71 82 167 11 55 25 142 30 194 8 85 7 108 -17 220 -14
69 -41 174 -61 233 -35 108 -35 109 -79 127 -92 40 -141 51 -283 65 -122 12
-621 35 -768 35 l-43 0 0 108 0 108 -597 29 -598 30 0 108 1 107 -37 0 -36 0
-5 -100 c-3 -55 -7 -103 -10 -106 -3 -3 -61 -2 -129 2 l-124 7 3 108 4 109
-36 0 c-35 0 -36 -1 -36 -37 0 -21 -3 -68 -7 -105 l-6 -68 -57 0 c-31 0 -91 3
-132 6 l-75 7 5 98 5 99 -36 0 -35 0 -7 -99 -7 -99 -57 4 c-31 3 -2373 122
-5206 264 -2832 143 -5323 271 -5535 285 -212 14 -799 43 -1304 65 -506 23
-923 43 -927 46 -4 2 -10 18 -14 35 -4 17 -12 28 -18 26 -7 -2 -51 -16 -98
-31 l-87 -26 -668 30 c-368 16 -1355 52 -2193 81 l-1524 52 -186 -42 c-102
-22 -314 -59 -471 -81 -157 -21 -486 -72 -732 -112 l-447 -73 -10 -42 c-6 -24
-11 -146 -11 -282 l0 -241 -457 0 -458 -1 -80 -102 c-44 -56 -163 -195 -265
-310 l-185 -207 -131 0 -132 0 -18 117 c-17 115 -20 124 -119 328 l-102 210
-153 162 -152 162 -195 106 -196 105 -201 35 c-149 26 -231 35 -316 35 l-115
1 -46 67 c-45 65 -55 72 -295 223 -380 239 -312 213 -1035 390 l-624 152 -562
18 -561 17 -1701 923 c-936 508 -1701 929 -1701 935 0 6 -6 17 -14 23 -12 10
-1193 251 -1231 251 -7 0 -15 -14 -19 -31z m1854 -7315 l355 -63 -315 2 -315
3 -92 49 c-72 39 -93 55 -93 71 0 20 3 21 53 11 28 -5 212 -38 407 -73z"/>
</g>
</svg>
