<?xml version="1.0" standalone="no"?>
<!DOCTYPE svg PUBLIC "-//W3C//DTD SVG 20010904//EN"
 "http://www.w3.org/TR/2001/REC-SVG-20010904/DTD/svg10.dtd">
<svg version="1.0" xmlns="http://www.w3.org/2000/svg"
   viewBox="0 0 3658.000000 853.000000"
 preserveAspectRatio="xMidYMid meet">
<metadata>
Created by potrace 1.16, written by Peter Selinger 2001-2019
</metadata>
<g transform="translate(0.000000,853.000000) scale(0.100000,-0.100000)"
fill="#000000" stroke="none">
<path d="M7145 8495 l-60 -35 -196 0 -195 0 -56 -50 -56 -50 -339 0 -340 0
-1339 -762 c-736 -418 -1341 -762 -1343 -764 -1 -1 -47 -157 -100 -346 l-98
-343 -101 -29 -101 -29 -30 -76 c-17 -42 -31 -86 -31 -98 0 -16 -8 -24 -32
-31 -18 -5 -224 -62 -458 -127 l-425 -117 -80 -84 -80 -83 -555 -76 -554 -75
-71 -69 -70 -69 -141 -18 -141 -17 -74 -51 -74 -51 -2 -845 -2 -845 82 -50 82
-51 902 -94 903 -95 67 -182 67 -183 41 0 c22 0 63 -3 92 -6 45 -6 52 -10 58
-33 24 -100 21 -96 157 -212 l131 -112 547 -58 548 -57 646 -213 646 -213 0
-308 0 -308 94 -132 94 -133 1119 -395 1118 -395 1754 -5 1754 -5 20 -57 19
-58 2027 0 2027 0 15 47 15 48 64 6 c36 3 86 15 113 27 55 25 53 10 29 207
l-17 140 -31 9 -31 9 15 51 15 50 -52 45 -52 46 99 260 100 260 843 5 842 5
59 140 c32 77 77 184 99 238 l41 97 1209 0 1210 0 169 96 170 96 0 39 0 39
795 0 795 0 0 -90 0 -91 65 -29 65 -29 0 -538 0 -538 83 -83 82 -82 678 0 677
0 45 90 c25 49 45 103 45 119 0 55 11 55 1160 59 l1035 3 73 114 72 114 0 490
0 491 100 0 100 0 0 -92 0 -93 63 -26 62 -25 3 -540 2 -539 82 -82 83 -83 675
0 675 0 42 80 c29 54 43 92 43 118 l0 39 100 16 c87 15 216 17 1099 17 l1001
0 70 108 70 107 0 498 0 497 100 0 100 0 0 -92 0 -93 63 -27 62 -26 5 -539 5
-539 76 -82 76 -82 679 0 680 0 42 85 c24 49 42 100 42 119 0 59 3 60 1169 66
l1033 5 69 105 68 105 1 498 0 497 69 0 69 0 48 75 49 75 602 0 601 0 83 -95
82 -95 231 0 c211 1 233 2 254 19 12 11 22 29 22 40 0 20 4 21 170 21 l170 0
0 40 0 40 -170 0 c-159 0 -170 1 -170 19 0 15 -178 94 -952 424 -524 224 -999
426 -1055 449 l-103 43 0 393 0 393 -70 100 -71 99 -707 4 c-599 4 -1481 19
-1489 24 -2 1 -3 21 -3 43 0 30 -12 64 -42 120 l-43 79 -676 0 -676 0 -82 -83
-81 -82 0 -372 0 -372 -62 -43 -63 -44 -3 -82 -3 -82 -99 0 -100 0 0 348 -1
347 -67 95 -68 95 -710 7 c-623 6 -1484 21 -1491 26 -2 1 -3 20 -3 42 0 27
-13 67 -40 120 l-40 80 -678 0 -677 0 -83 -83 -82 -82 0 -372 0 -371 -65 -47
-65 -46 0 -80 0 -79 -100 0 -100 0 0 341 0 341 -72 104 -73 104 -705 4 c-600
4 -1479 18 -1487 24 -2 1 -3 17 -3 36 0 21 -17 66 -46 120 l-46 86 -677 0
-676 0 -83 -83 -82 -82 0 -375 0 -375 -65 -43 -65 -42 0 -80 0 -80 -620 0
c-539 0 -620 2 -620 15 0 8 -26 73 -57 145 l-58 130 -894 -3 -895 -2 -57 -125
c-32 -69 -58 -133 -58 -142 -1 -17 -35 -18 -578 -18 l-578 1 -425 310 c-234
170 -424 315 -422 322 1 7 8 24 14 40 l10 27 980 0 980 0 204 108 204 107 0
132 c0 117 2 132 18 137 25 8 533 106 547 106 7 0 17 -11 23 -25 l12 -25 547
0 548 0 50 59 c43 51 52 58 72 50 19 -7 28 -1 62 38 32 38 38 50 30 66 -12 21
-8 27 65 112 l50 56 -21 57 c-12 31 -32 86 -45 122 l-25 65 128 155 c112 135
132 155 155 153 15 -1 32 4 38 12 6 7 20 15 30 17 22 3 30 26 40 114 6 58 6
61 -19 72 -14 7 -25 20 -25 31 0 16 -11 20 -72 28 l-73 8 -121 180 c-101 150
-129 184 -169 209 -48 30 -50 30 -884 127 -460 54 -1225 143 -1701 198 -476
56 -877 101 -892 101 -26 0 -90 -50 -99 -77 -3 -9 -227 14 -864 86 l-860 98
-1255 377 c-690 207 -1263 379 -1272 382 -26 8 -22 32 5 36 20 3 23 11 34 103
18 157 19 151 -27 169 -22 9 -60 16 -84 16 -41 0 -43 1 -55 40 l-12 40 -210 0
-211 0 -380 -66 -381 -65 -29 35 -29 36 -237 0 -237 1 -69 90 c-37 50 -73 92
-80 94 -6 2 -261 27 -566 55 -305 28 -573 53 -596 56 -40 6 -41 7 -89 104
l-48 98 -106 31 c-324 98 -294 86 -318 135 -26 53 59 40 -687 106 l-559 50
-76 57 -76 57 -165 4 -165 3 -60 -36z"/>
</g>
</svg>
