<?xml version="1.0" standalone="no"?>
<!DOCTYPE svg PUBLIC "-//W3C//DTD SVG 20010904//EN"
 "http://www.w3.org/TR/2001/REC-SVG-20010904/DTD/svg10.dtd">
<svg version="1.0" xmlns="http://www.w3.org/2000/svg"
   viewBox="0 0 3514.000000 1573.000000"
 preserveAspectRatio="xMidYMid meet">
<metadata>
Created by potrace 1.16, written by Peter Selinger 2001-2019
</metadata>
<g transform="translate(0.000000,1573.000000) scale(0.100000,-0.100000)"
fill="#000000" stroke="none">
<path d="M13035 15719 c-611 -5 -1084 -15 -1590 -33 -708 -26 -799 -32 -1079
-77 -102 -16 -121 -17 -130 -5 -6 8 -27 35 -46 60 l-35 45 -316 1 c-174 0
-385 -3 -469 -7 l-153 -6 -19 -45 c-18 -41 -19 -46 -4 -54 9 -5 16 -15 16 -23
0 -22 -22 -65 -34 -65 -6 0 -34 24 -64 53 l-53 52 -517 8 c-284 4 -771 4
-1082 1 l-565 -6 -101 -59 -100 -59 -670 0 -669 0 -207 -131 c-192 -121 -208
-134 -208 -160 l0 -29 -92 -1 c-51 0 -101 -3 -110 -7 -9 -4 -46 -32 -82 -62
-58 -49 -65 -59 -65 -92 -1 -34 -4 -38 -26 -38 l-25 0 0 -150 0 -150 -210 0
-210 0 0 -45 0 -45 -182 0 -181 0 -93 -70 -93 -70 -418 0 -417 0 -239 41
c-131 22 -249 38 -262 35 -29 -7 -33 -34 -24 -156 9 -113 20 -137 73 -146 30
-5 52 -18 81 -48 l40 -41 -93 -3 c-89 -3 -92 -3 -92 -27 0 -13 -4 -25 -9 -27
-6 -1 3 -34 20 -73 16 -38 29 -73 29 -77 0 -14 -54 -8 -293 32 -286 49 -271
53 -268 -78 1 -88 4 -105 23 -155 8 -21 19 -29 49 -33 22 -4 42 -10 44 -14 6
-9 -7 -12 -639 -150 l-460 -100 -70 -46 c-39 -26 -116 -81 -171 -123 -142
-106 -447 -341 -464 -356 -11 -11 -6 -26 29 -92 24 -43 44 -79 45 -80 3 -5
452 -96 735 -148 402 -75 689 -145 1060 -260 283 -88 896 -293 937 -313 10 -5
119 -42 243 -82 124 -40 528 -176 898 -303 l672 -230 0 -57 0 -57 86 -7 c78
-6 91 -10 142 -45 83 -56 181 -81 321 -81 69 0 110 -4 106 -10 -3 -5 8 -45 25
-88 29 -77 32 -80 68 -86 62 -10 272 -7 272 4 0 12 115 12 144 1 18 -7 18 -8
-5 -14 -35 -10 -79 -8 -79 2 0 5 -88 -20 -195 -56 l-195 -65 21 -36 c12 -21
25 -40 28 -44 4 -4 162 19 351 51 l345 58 145 -52 c80 -29 204 -71 275 -93
l130 -40 655 -13 c639 -12 656 -12 685 -33 29 -20 43 -21 407 -24 l378 -3 21
-27 21 -27 -36 -3 -36 -3 0 -73 0 -73 53 -7 c28 -3 66 -6 82 -6 23 0 38 -9 64
-42 18 -24 183 -272 365 -553 l332 -510 90 -3 90 -3 74 -169 75 -170 620 0
620 0 82 -172 c45 -95 118 -250 164 -345 l82 -172 -33 -50 -32 -51 -412 0
-411 0 -98 -65 -97 -65 0 -68 0 -67 -217 -155 c-119 -85 -222 -158 -229 -163
-8 -4 -425 157 -1054 409 l-1040 416 -429 -198 c-399 -183 -430 -200 -433
-225 -4 -23 79 -139 520 -735 288 -390 607 -831 707 -980 101 -149 190 -276
198 -282 7 -6 92 -41 188 -77 l174 -66 127 31 c71 18 132 29 140 24 7 -4 47
-33 88 -64 54 -41 116 -75 225 -120 83 -35 153 -66 156 -69 11 -10 -127 -246
-142 -244 -8 2 -93 36 -189 77 l-175 75 -23 -52 -23 -52 27 -68 c15 -38 33
-75 39 -83 5 -8 577 -257 1270 -552 l1260 -538 921 -502 921 -501 74 20 c41
12 75 22 76 23 1 1 14 27 27 58 l25 57 -149 81 c-83 45 -150 86 -150 91 0 15
124 239 132 239 5 0 69 -34 143 -75 88 -48 391 -253 876 -592 l741 -518 1057
-889 c581 -489 1070 -895 1086 -903 17 -7 480 -185 1030 -396 l1000 -382 455
7 c274 4 459 3 464 -3 15 -14 166 -11 171 3 5 12 -209 437 -225 448 -4 3 -145
278 -314 612 -292 578 -306 607 -287 618 12 6 21 18 21 28 0 9 -38 91 -84 182
l-84 165 -464 136 -463 136 -17 -26 -17 -25 -20 44 c-11 25 -337 726 -724
1558 l-704 1513 189 362 c103 199 188 368 188 374 0 7 -159 342 -354 745 -194
403 -411 853 -481 1001 l-128 267 -343 0 -344 0 -21 42 c-12 24 -41 84 -64
134 l-43 92 150 -94 149 -94 563 0 563 0 159 -240 159 -240 113 0 c105 0 112
-1 112 -20 0 -17 7 -20 40 -20 33 0 40 3 40 20 0 18 7 20 60 20 53 0 60 -2 60
-20 0 -17 7 -20 40 -20 33 0 40 3 40 20 0 20 7 20 1050 20 674 0 1050 3 1050
10 0 5 38 350 85 767 47 417 85 775 85 796 0 38 -12 52 -437 480 -241 243
-527 533 -637 644 l-199 201 42 289 c91 626 112 769 117 801 4 28 9 32 34 32
17 0 30 2 30 5 0 2 -11 34 -25 71 -23 61 -25 79 -25 240 l0 174 249 0 248 0
402 -310 c282 -218 409 -310 429 -311 37 -3 433 158 450 182 13 19 44 19 1432
19 l1420 0 25 -50 25 -50 191 0 191 0 255 -176 c140 -96 260 -177 267 -180 7
-3 47 16 88 42 l76 46 49 -33 c26 -18 436 -300 911 -627 770 -531 862 -597
862 -621 0 -14 13 -42 29 -61 l29 -34 1688 -361 1689 -362 3 -306 2 -306 55
-20 c42 -16 60 -18 77 -11 19 9 131 -32 683 -245 363 -141 694 -270 737 -286
58 -23 77 -35 82 -53 4 -18 27 -31 108 -63 96 -38 104 -40 113 -23 9 17 14 16
81 -9 l70 -28 364 564 363 563 294 0 c286 0 293 0 293 -20 0 -19 7 -20 200
-20 l200 0 90 135 c67 100 90 143 90 167 0 45 58 140 82 132 12 -4 22 5 37 34
12 24 16 43 11 48 -6 6 71 135 193 326 l202 317 69 3 68 3 59 108 59 108 -45
81 c-25 44 -45 81 -45 83 0 1 89 12 198 25 108 12 202 25 208 29 15 8 -437
707 -696 1076 -168 239 -237 328 -397 506 -106 119 -201 220 -210 224 -10 4
-322 121 -693 262 l-675 254 -1055 274 -1055 274 -175 79 c-173 78 -182 81
-680 210 -380 99 -981 238 -2425 562 -1056 237 -2028 460 -2160 496 l-240 65
-1095 120 c-1737 190 -3168 325 -4435 419 -942 70 -1218 87 -2155 130 -1049
48 -1096 49 -1960 55 -487 3 -937 7 -1000 9 -63 2 -506 0 -985 -5z"/>
</g>
</svg>
