<?xml version="1.0" standalone="no"?>
<!DOCTYPE svg PUBLIC "-//W3C//DTD SVG 20010904//EN"
 "http://www.w3.org/TR/2001/REC-SVG-20010904/DTD/svg10.dtd">
<svg version="1.0" xmlns="http://www.w3.org/2000/svg"
   viewBox="0 0 3729.000000 702.000000"
 preserveAspectRatio="xMidYMid meet">
<metadata>
Created by potrace 1.16, written by Peter Selinger 2001-2019
</metadata>
<g transform="translate(0.000000,702.000000) scale(0.100000,-0.100000)"
fill="#000000" stroke="none">
<path d="M560 6967 c-30 -40 -40 -63 -40 -90 0 -32 -6 -41 -48 -73 l-49 -36
-6 -346 c-3 -201 -1 -354 4 -364 5 -9 29 -31 54 -49 42 -30 45 -36 45 -76 0
-40 7 -53 76 -138 52 -63 90 -99 115 -111 22 -9 39 -18 39 -20 0 -2 -25 -116
-55 -254 -30 -138 -55 -253 -55 -256 0 -2 -8 -4 -18 -4 -15 0 -27 -31 -68
-182 l-49 -183 -82 -120 c-44 -66 -111 -165 -147 -221 l-66 -100 -28 -188 -28
-187 26 -137 c26 -132 31 -144 125 -332 l97 -195 209 -160 c115 -88 216 -161
224 -163 10 -2 15 -16 15 -43 0 -34 -3 -39 -22 -39 -13 -1 -121 -5 -241 -10
l-219 -8 -184 -69 -184 -68 0 -541 0 -541 188 -85 187 -85 400 -37 c389 -35
412 -36 844 -36 l443 0 141 63 140 62 191 175 191 174 3 63 c3 60 4 62 35 72
18 5 124 35 237 67 113 31 213 61 224 66 10 6 91 66 179 135 l161 124 58 110
c55 104 61 123 112 351 41 179 59 243 73 253 63 44 61 40 72 197 6 81 11 205
11 275 l0 129 43 58 42 58 3 -401 2 -400 93 -55 92 -54 131 -7 132 -7 43 -44
43 -44 741 0 741 0 43 44 43 44 132 7 131 7 93 54 92 55 0 357 0 357 38 31
c58 48 58 48 114 3 66 -52 66 -50 67 -407 1 -233 3 -273 23 -350 11 -48 22
-88 22 -89 2 -2 368 -33 388 -33 5 0 40 -30 80 -66 l72 -66 121 6 c66 3 377
13 690 22 l570 17 50 43 51 43 197 12 198 12 34 62 35 62 0 364 0 363 57 58
57 58 63 -62 63 -62 0 -332 0 -332 115 -237 114 -236 122 -125 122 -124 3533
0 3533 0 208 134 208 133 137 239 137 239 1 320 1 320 65 55 c36 30 70 57 76
59 5 2 34 -21 64 -50 l54 -53 0 -346 0 -345 114 -230 114 -230 117 -123 117
-122 3535 0 3536 0 204 132 c148 95 211 141 228 167 13 20 77 131 144 247
l121 211 0 312 c0 309 0 311 21 311 12 0 48 26 85 61 l63 61 48 -40 c26 -22
57 -49 67 -61 11 -11 25 -21 33 -21 11 0 13 -96 13 -553 l0 -553 77 -59 c42
-33 86 -65 97 -71 12 -6 91 -24 176 -39 131 -24 164 -34 214 -63 46 -27 91
-42 195 -64 l136 -29 1068 -19 1068 -19 87 46 c48 25 107 61 132 79 l45 32
1095 30 1095 30 153 73 152 72 -2 1705 -3 1705 -145 63 -145 63 -2656 1 -2657
0 -98 -67 -97 -66 6 -664 c6 -629 6 -663 -11 -663 -10 0 -42 -25 -72 -55 -30
-30 -59 -55 -65 -55 -5 0 -38 25 -72 55 -33 30 -71 55 -82 55 -21 0 -21 3 -21
288 l0 288 -140 244 -140 245 -205 133 -206 132 -3537 0 -3537 0 -122 -122
-121 -123 -111 -229 -111 -229 0 -316 0 -317 -54 -53 c-30 -29 -59 -52 -64
-50 -6 2 -40 29 -76 59 l-65 55 0 292 -1 291 -137 240 -138 239 -205 132 -205
131 -3539 0 -3540 0 -120 -126 -119 -126 -114 -231 -113 -232 0 -305 0 -306
-63 -62 -63 -62 -51 52 -52 53 1 546 1 547 -53 61 -53 61 -926 0 c-509 0
-1045 -3 -1190 -7 l-264 -6 -49 -76 -50 -76 6 -350 c3 -192 9 -449 12 -570 l6
-221 -53 -41 -53 -41 -48 40 -48 40 0 562 0 562 -88 52 -88 52 -1102 0 -1102
0 -85 -52 -85 -53 -2 -488 -3 -489 -42 61 c-40 56 -43 65 -43 126 l0 65 -68 0
-69 0 -6 323 c-4 177 -7 446 -7 597 0 260 -1 280 -24 363 -26 96 -24 92 -107
187 -53 60 -67 70 -183 123 -109 49 -134 57 -186 57 -67 0 -75 6 -168 122 -33
42 -49 51 -155 92 l-118 46 -299 0 c-320 0 -310 -2 -310 51 0 19 -18 19 -795
19 l-794 0 -41 -53z"/>
<path d="M34615 5735 c-101 -15 -223 -72 -323 -149 l-74 -57 -354 -6 -354 -6
0 30 c0 30 -1 30 -67 36 -38 4 -182 7 -320 7 l-253 0 -85 -37 -85 -38 0 -182
0 -183 -85 0 -85 0 0 -216 0 -217 -75 -82 -75 -83 0 -332 0 -333 72 -76 c56
-59 81 -78 110 -84 37 -8 38 -9 38 -53 0 -38 3 -46 25 -54 14 -5 25 -15 25
-22 0 -7 18 -54 41 -105 l42 -92 109 -3 110 -3 65 -180 c65 -179 66 -181 193
-365 108 -155 143 -198 219 -265 50 -44 91 -83 91 -86 0 -4 -21 -12 -46 -19
-37 -11 -74 -39 -198 -153 l-151 -140 -26 -81 c-15 -45 -50 -159 -78 -253 -69
-232 -69 -268 -2 -401 26 -53 65 -147 85 -209 l37 -112 172 -164 c165 -158
185 -173 517 -398 l345 -234 240 -88 c132 -48 310 -115 396 -148 l157 -60 793
-19 c437 -11 853 -20 925 -20 l130 0 140 99 c120 85 151 113 229 207 l90 108
6 86 6 85 -46 59 c-26 33 -67 70 -94 86 -29 16 -76 61 -121 114 -72 86 -76 89
-187 139 -63 28 -116 52 -118 53 -2 2 15 108 38 236 l41 233 0 334 0 334 -90
326 c-88 316 -93 332 -187 529 l-97 203 -90 87 -91 87 8 150 c12 209 -10 402
-65 575 -64 200 -192 469 -279 589 -72 98 -80 105 -272 243 -183 132 -206 146
-321 189 -86 33 -146 49 -200 54 l-76 7 0 229 0 229 -50 25 c-60 30 -74 31
-122 5 l-37 -19 -19 23 c-16 21 -80 48 -107 45 -5 -1 -46 -7 -90 -14z"/>
</g>
</svg>
