<?xml version="1.0" standalone="no"?>
<!DOCTYPE svg PUBLIC "-//W3C//DTD SVG 20010904//EN"
 "http://www.w3.org/TR/2001/REC-SVG-20010904/DTD/svg10.dtd">
<svg version="1.0" xmlns="http://www.w3.org/2000/svg"
   viewBox="0 0 4757.000000 1542.000000"
 preserveAspectRatio="xMidYMid meet">
<metadata>
Created by potrace 1.16, written by Peter Selinger 2001-2019
</metadata>
<g transform="translate(0.000000,1542.000000) scale(0.100000,-0.100000)"
fill="#000000" stroke="none">
<path d="M36135 15390 c-120 -21 -180 -37 -242 -64 -44 -20 -87 -36 -95 -36
-7 0 -59 -36 -116 -79 -97 -75 -105 -79 -133 -69 -16 5 -29 13 -29 18 0 33
-269 5 -352 -36 -26 -13 -54 -24 -61 -24 -8 0 -60 -36 -115 -80 -97 -78 -100
-82 -95 -114 6 -41 22 -35 -202 -76 l-170 -31 -82 35 -83 35 -73 -14 c-41 -8
-123 -26 -183 -41 -106 -26 -112 -29 -202 -101 l-94 -75 -599 -145 -599 -145
-79 41 c-145 75 -135 76 -466 -28 -159 -50 -293 -91 -298 -91 -6 0 -34 22 -62
49 -36 34 -64 52 -91 57 -86 16 -840 -67 -860 -94 -8 -11 -33 -17 -76 -20
l-65 -4 -35 41 -36 42 -83 -15 c-76 -13 -1062 -233 -1151 -257 -30 -8 -38 -15
-38 -32 0 -12 25 -116 54 -230 l54 -208 -26 -10 c-14 -5 -67 -45 -118 -89 -85
-71 -102 -81 -181 -105 -49 -14 -439 -134 -868 -267 -657 -203 -846 -266
-1200 -399 l-420 -157 -228 -132 -227 -132 -50 -91 c-27 -51 -62 -117 -77
-148 l-28 -57 -880 -267 c-484 -148 -899 -274 -921 -281 l-42 -12 -37 92 -37
92 -203 -25 -203 -24 -87 72 c-48 39 -93 71 -99 71 -7 0 -58 -13 -113 -28
l-100 -28 -101 38 -100 39 -63 155 c-42 104 -68 154 -78 154 -8 0 -103 -11
-211 -26 l-195 -25 -855 -321 c-470 -176 -879 -329 -908 -340 -43 -16 -52 -24
-50 -40 3 -18 -17 -29 -148 -83 -126 -52 -153 -60 -168 -50 -14 11 -44 1 -193
-61 -155 -65 -178 -72 -192 -60 -9 8 -49 18 -88 21 -40 4 -73 12 -73 17 0 27
-181 -31 -254 -82 -25 -16 -48 -30 -53 -30 -4 -1 -36 -36 -70 -78 -47 -59 -61
-83 -56 -100 3 -15 0 -24 -11 -28 -9 -3 -118 -121 -243 -261 l-228 -256 -175
-116 -174 -116 -40 -157 -40 -158 -36 0 c-19 0 -234 18 -478 40 l-443 39 -622
-59 c-342 -33 -625 -60 -629 -60 -5 0 -8 10 -8 23 0 12 -9 47 -19 77 -23 65
-104 146 -191 190 -71 35 -187 46 -262 23 -40 -11 -77 -13 -169 -8 -103 7
-119 10 -124 26 -8 23 -14 23 -85 4 -30 -8 -56 -15 -57 -15 0 0 -9 13 -20 28
l-18 29 -143 -66 c-156 -71 -148 -62 -127 -136 5 -18 -18 -29 -227 -107 -187
-69 -235 -84 -243 -73 -7 8 -55 18 -125 25 -70 7 -118 17 -122 25 -20 35 -272
-56 -413 -151 -59 -39 -94 -72 -133 -124 -46 -62 -57 -71 -75 -64 -43 15 -103
6 -177 -25 -41 -18 -81 -38 -90 -46 -8 -7 -27 -20 -42 -28 -15 -7 -53 -46 -84
-86 -55 -71 -56 -74 -46 -109 6 -20 10 -37 9 -37 -64 -39 -198 -154 -282 -241
l-110 -114 -250 -70 c-137 -39 -356 -101 -485 -136 -129 -36 -383 -113 -565
-170 l-330 -106 -60 30 -60 29 -134 -13 -135 -14 -49 32 c-31 20 -83 39 -141
53 l-93 22 -209 -23 c-168 -18 -772 -115 -1090 -175 l-62 -12 -111 62 c-98 54
-123 64 -218 81 -173 32 -251 28 -433 -24 -85 -25 -201 -62 -257 -83 -91 -35
-100 -40 -91 -57 7 -13 7 -20 0 -25 -8 -5 -5 -30 8 -81 11 -41 20 -80 20 -87
0 -6 -26 -17 -57 -23 -32 -6 -70 -13 -85 -16 -28 -6 -28 -6 -28 -90 l0 -84
-235 0 -235 0 0 -26 0 -25 -427 7 c-236 4 -429 8 -431 9 -2 2 4 20 13 41 8 21
12 40 8 44 -111 93 -198 150 -319 207 -132 62 -149 67 -339 104 -186 36 -213
39 -377 39 l-178 0 0 -49 0 -49 -80 -11 c-44 -6 -116 -16 -160 -22 -66 -9 -80
-14 -80 -29 0 -19 -17 -22 -202 -36 -77 -6 -88 -4 -88 10 0 18 -27 20 -128 10
-45 -5 -61 -11 -65 -24 -3 -14 -21 -18 -100 -23 -53 -4 -116 -12 -142 -18 -32
-8 -53 -9 -68 -2 -25 12 -224 -19 -671 -101 -222 -42 -252 -49 -280 -74 -17
-15 -98 -85 -180 -157 l-149 -130 -265 -55 -264 -56 -51 -136 -51 -137 -335
-162 -335 -162 -175 16 c-155 14 -178 15 -198 2 -28 -19 -33 -19 -33 0 0 12
-17 15 -82 17 -46 1 -96 1 -113 0 -39 -3 -150 -65 -199 -111 -51 -48 -139
-179 -132 -196 3 -8 0 -17 -5 -21 -6 -3 -9 -14 -6 -24 4 -15 -71 -59 -401
-241 l-405 -223 7 -141 c3 -77 9 -183 12 -235 l7 -96 111 -23 c61 -12 132 -27
158 -33 37 -7 47 -14 50 -31 3 -19 14 -24 98 -39 52 -10 116 -20 141 -23 l46
-6 30 -104 30 -104 -127 -87 -128 -86 20 -46 20 -45 -27 -21 -27 -22 32 -96
c31 -96 50 -126 70 -113 25 15 49 -8 71 -69 l22 -62 70 13 c68 13 106 11 52
-3 -24 -6 -26 -10 -21 -37 4 -17 29 -78 57 -136 50 -105 50 -106 30 -120 -25
-16 -26 -29 -6 -73 8 -18 22 -61 32 -95 13 -47 22 -63 37 -65 15 -2 26 -22 45
-81 l26 -79 37 6 38 6 71 -142 c39 -79 72 -144 73 -145 0 -1 40 -8 89 -17 79
-14 95 -20 174 -75 47 -34 93 -61 100 -61 9 0 4 -14 -15 -42 -19 -27 -32 -63
-37 -97 -5 -36 -15 -62 -30 -77 l-23 -23 26 -38 c54 -80 114 -143 137 -143 13
0 67 -21 121 -47 l99 -48 157 1 c108 0 162 4 170 12 14 14 88 16 88 2 0 -6 62
-10 165 -10 133 0 165 -3 165 -14 0 -26 81 -66 205 -101 186 -53 343 -69 388
-41 13 8 61 16 113 19 l90 4 -4 -53 c-2 -29 -2 -65 2 -79 l6 -25 254 0 c235 0
285 3 653 44 219 25 594 63 833 86 398 38 448 44 591 81 159 40 294 58 589 79
80 5 168 12 196 16 l52 5 6 58 c7 58 7 59 44 65 20 3 153 6 295 6 l257 0 0
252 0 251 197 -6 c108 -4 279 -7 379 -7 l183 0 3 -147 3 -147 170 -27 c258
-42 235 -35 235 -74 0 -27 9 -41 49 -78 l50 -44 98 -6 c54 -4 494 -7 979 -7
l880 0 694 170 c382 94 697 173 699 176 3 3 8 44 11 92 l5 87 158 3 157 3 0
-51 0 -50 625 0 625 0 0 -155 0 -155 815 0 815 0 0 -120 0 -119 127 -3 127 -3
33 -75 c18 -41 34 -78 35 -83 2 -4 75 -24 163 -46 l160 -38 307 -5 307 -5 68
-60 c51 -45 108 -81 228 -141 147 -73 186 -87 485 -175 l325 -96 635 -64 635
-64 1010 43 c802 34 1115 51 1520 84 l510 41 196 57 196 57 7 74 c3 41 6 112
6 158 l0 83 195 0 195 0 0 -85 0 -85 448 0 448 0 589 -54 c325 -30 662 -66
750 -80 212 -34 953 -222 1133 -287 102 -37 350 -151 379 -174 2 -1 -13 -72
-32 -159 l-35 -157 136 -132 c75 -73 146 -138 156 -146 11 -7 114 -58 230
-113 l211 -99 241 -50 241 -50 245 10 245 10 182 58 183 58 0 178 c0 111 4
177 10 177 6 0 10 -50 10 -130 l0 -130 434 0 433 0 24 35 24 35 133 0 c72 0
132 -4 132 -8 0 -5 69 -21 153 -37 83 -15 161 -31 171 -35 16 -5 25 -35 50
-158 l31 -152 132 -123 132 -123 352 -154 352 -153 341 -59 341 -59 560 5
c537 6 1342 30 1945 60 220 11 345 23 545 52 l260 38 175 122 175 121 85 -113
84 -114 1471 0 1470 0 105 135 c58 74 107 135 111 135 3 0 85 -47 183 -105
l179 -105 218 0 219 0 16 25 16 25 1469 0 1468 0 27 -84 27 -83 66 -21 c78
-25 418 -78 546 -86 50 -3 252 -7 450 -8 411 -2 448 3 517 69 l37 36 768 -11
c422 -7 957 -14 1188 -17 231 -3 509 -8 617 -11 l198 -7 -3 -76 -2 -76 170
-10 c176 -11 778 -5 790 7 4 4 -32 115 -79 246 -47 132 -86 242 -86 246 0 3
16 6 35 6 19 0 35 3 35 8 -1 4 -43 97 -95 207 -90 191 -93 201 -76 215 18 14
12 23 -101 155 -155 181 -207 246 -548 685 -260 336 -285 371 -308 440 -30 88
-82 169 -160 248 -46 47 -84 71 -202 130 -80 39 -147 67 -148 62 -2 -6 -16
-23 -31 -38 -14 -15 -35 -39 -46 -55 l-20 -27 -179 77 -178 78 5 121 6 121
-62 60 c-34 33 -84 73 -110 88 -39 22 -47 32 -43 49 2 11 26 120 51 241 26
121 48 221 48 222 1 0 56 10 122 20 l120 18 38 58 c21 32 37 60 35 62 -2 2
-64 13 -138 25 -73 11 -135 21 -136 23 -1 1 24 52 57 113 l59 111 153 18 154
18 17 45 c9 25 14 48 10 51 -6 6 -321 18 -521 20 -110 1 -113 1 -126 27 -8 16
-81 69 -191 139 l-177 112 -137 7 -137 6 -111 111 -111 111 -244 32 -244 32
-250 170 -249 171 -26 109 c-21 87 -34 121 -67 169 -79 116 -165 181 -358 271
-110 51 -118 50 -159 -26 -14 -25 -33 -53 -43 -62 -17 -16 -22 -14 -83 24
l-64 41 -58 -12 -57 -12 -206 72 c-205 72 -206 72 -200 99 5 22 -11 48 -103
167 l-109 142 23 173 c13 95 36 225 51 288 l28 115 110 61 110 61 12 59 c7 32
12 62 13 65 0 3 -43 13 -96 23 -60 12 -94 23 -91 30 2 6 48 134 102 284 l98
272 66 0 66 0 74 213 c48 138 97 256 139 337 66 125 66 125 191 235 70 61 188
158 263 215 l137 105 0 187 1 187 -35 7 c-20 3 -35 12 -35 20 0 8 14 79 31
159 29 138 34 152 95 256 64 107 67 111 130 142 l64 31 0 73 c0 69 1 73 23 73
12 0 56 9 97 20 41 11 88 20 103 20 17 0 103 39 203 93 l174 92 -2 69 -3 69
-50 18 c-27 10 -79 18 -115 19 -36 1 -56 4 -45 7 11 2 149 61 307 130 l286
126 114 124 c95 105 127 149 203 281 96 166 142 282 210 524 32 117 35 137 35
265 0 76 -5 176 -12 222 -10 77 -10 85 7 97 17 12 15 18 -25 103 -51 108 -22
98 -314 107 l-209 6 7 77 c3 42 9 127 12 189 7 105 8 112 28 112 22 1 96 94
118 148 18 45 14 202 -6 240 -10 19 -16 35 -14 36 2 1 37 10 78 19 l76 18 38
138 38 139 36 7 c20 4 66 22 103 40 57 29 70 41 90 82 21 41 24 60 21 133 -2
76 -5 87 -30 113 -15 16 -53 42 -85 58 -51 26 -68 44 -147 152 -50 67 -101
136 -114 152 -14 18 -102 75 -216 139 -165 94 -248 132 -594 274 -260 107
-501 197 -686 258 -266 87 -305 97 -585 149 -315 59 -1114 247 -1125 265 -4 6
-177 32 -386 58 -366 46 -379 48 -382 69 -2 16 -12 24 -35 27 -31 5 -940 90
-1087 102 -62 5 -97 1 -200 -24 l-125 -29 -215 13 c-118 7 -241 15 -272 17
-58 3 -58 3 -58 -25 0 -16 -5 -28 -12 -28 -7 1 -171 13 -365 28 l-352 28 -523
-61 -523 -61 -3 32 c-3 31 -4 32 -158 84 -124 43 -154 57 -154 72 0 15 -9 18
-62 18 -35 0 -72 2 -83 4 -11 2 -92 -9 -180 -24z"/>
</g>
</svg>
