<?xml version="1.0" standalone="no"?>
<!DOCTYPE svg PUBLIC "-//W3C//DTD SVG 20010904//EN"
 "http://www.w3.org/TR/2001/REC-SVG-20010904/DTD/svg10.dtd">
<svg version="1.0" xmlns="http://www.w3.org/2000/svg"
   viewBox="0 0 4073.000000 3354.000000"
 preserveAspectRatio="xMidYMid meet">
<metadata>
Created by potrace 1.16, written by Peter Selinger 2001-2019
</metadata>
<g transform="translate(0.000000,3354.000000) scale(0.100000,-0.100000)"
fill="#000000" stroke="none">
<path d="M23840 33440 l-2405 -98 -2500 -326 -2500 -326 -1079 -220 c-593
-121 -1082 -220 -1087 -220 -5 0 -9 76 -9 170 l0 169 -72 100 -73 100 -1170 0
-1170 1 -137 -214 c-76 -118 -138 -222 -138 -233 0 -10 25 -155 55 -322 30
-167 52 -308 49 -312 -3 -5 -15 -9 -26 -9 -11 0 -555 -286 -1209 -635 l-1187
-635 -784 -529 -783 -530 -170 -160 -169 -161 -78 0 -78 0 0 -74 0 -75 -259
-249 c-143 -137 -270 -252 -283 -255 -13 -3 -364 -74 -782 -157 l-758 -152
-1237 -655 c-680 -361 -1246 -661 -1257 -668 -30 -19 -808 -1185 -798 -1195 5
-4 290 -174 634 -376 l625 -367 297 -226 c163 -124 296 -226 295 -227 -1 -1
-456 -57 -1012 -125 -555 -67 -1014 -126 -1019 -130 -5 -4 -46 -165 -92 -356
-46 -191 -86 -352 -88 -358 -2 -5 -315 -131 -695 -280 l-690 -270 -1 -1087 0
-1086 227 -90 c126 -49 438 -171 694 -272 l466 -183 83 -196 c46 -108 86 -199
89 -203 4 -4 486 -66 1071 -138 586 -71 1082 -133 1102 -136 l38 -6 2 -346 3
-346 1673 -295 1672 -296 0 -2042 0 -2043 3948 0 3947 0 192 -286 193 -285 20
-867 c11 -477 20 -868 20 -869 0 -2 946 -4 2102 -5 l2102 -3 1511 -1990 1512
-1990 969 -3 969 -3 940 -2427 c772 -1992 965 -2481 1078 -2729 75 -166 137
-305 137 -308 0 -3 -52 -5 -116 -5 -64 0 -114 -4 -112 -8 2 -5 345 -527 763
-1160 l760 -1151 2211 -1 2211 0 6 488 c4 268 7 792 7 1165 l0 677 -105 0
-105 0 0 295 0 295 -158 0 -159 0 -6 98 c-4 53 -7 982 -7 2065 l0 1967 165 0
165 0 0 370 0 370 336 0 335 0 -6 472 c-23 1660 -72 7174 -65 7182 5 5 359
224 787 485 l778 477 592 749 c326 413 593 758 593 768 0 14 72 54 306 169
169 82 322 155 340 161 18 7 370 192 783 411 l750 399 3 44 3 45 91 29 91 29
1189 1141 c654 627 1193 1146 1197 1152 5 7 84 441 176 966 l168 953 -441
1213 -441 1212 -694 659 c-567 539 -704 665 -755 690 -33 18 -911 440 -1951
939 -1039 499 -2074 1002 -2298 1118 l-408 210 -173 251 c-95 138 -176 257
-180 263 -4 7 -63 279 -131 605 -69 326 -127 602 -129 613 -3 11 -220 359
-483 773 l-478 754 -808 289 -808 289 -2048 120 c-1126 66 -2094 119 -2152
119 -57 -1 -1186 -46 -2509 -99z"/>
</g>
</svg>
