<?xml version="1.0" standalone="no"?>
<!DOCTYPE svg PUBLIC "-//W3C//DTD SVG 20010904//EN"
 "http://www.w3.org/TR/2001/REC-SVG-20010904/DTD/svg10.dtd">
<svg version="1.0" xmlns="http://www.w3.org/2000/svg"
   viewBox="0 0 4594.000000 2912.000000"
 preserveAspectRatio="xMidYMid meet">
<metadata>
Created by potrace 1.16, written by Peter Selinger 2001-2019
</metadata>
<g transform="translate(0.000000,2912.000000) scale(0.100000,-0.100000)"
fill="#000000" stroke="none">
<path d="M27812 29000 c-162 -102 -198 -120 -232 -120 -37 0 -40 -2 -35 -22 5
-19 -3 -28 -50 -56 -30 -18 -55 -39 -55 -47 0 -8 92 -337 204 -732 142 -498
216 -775 241 -904 29 -149 174 -662 744 -2635 390 -1347 707 -2450 706 -2452
-2 -2 -900 -7 -1997 -11 l-1994 -9 -64 -39 -65 -39 -25 -205 c-23 -186 -27
-204 -45 -206 -11 -1 -195 33 -410 75 -390 78 -390 78 -388 102 3 25 -16 31
-1498 474 -825 246 -1509 450 -1519 453 -16 4 -32 -21 -99 -156 -45 -89 -85
-161 -91 -161 -5 0 -841 164 -1857 365 -1016 200 -1848 363 -1850 361 -2 -1
67 -61 152 -132 85 -71 154 -131 155 -134 0 -3 -487 -83 -1082 -178 -1663
-265 -1534 -246 -1610 -238 l-66 7 5 216 6 216 -44 -6 c-152 -19 -449 -50
-453 -46 -2 2 -7 30 -10 61 -7 57 -7 57 21 64 28 7 385 215 379 221 -2 2 -63
-3 -135 -12 -108 -13 -148 -13 -214 -4 -79 12 -86 11 -192 -19 -103 -30 -228
-44 -1802 -212 l-1691 -179 -99 -103 c-55 -57 -202 -211 -327 -343 l-228 -240
-1076 -247 c-592 -136 -1329 -300 -1637 -364 l-560 -117 -2175 -28 -2175 -27
-1003 -43 -1003 -44 -285 -437 c-156 -240 -284 -441 -284 -446 0 -6 405 -288
900 -628 820 -564 899 -621 900 -646 0 -22 5 -28 21 -28 18 0 175 -97 483
-298 l99 -65 -8 -706 c-6 -605 -5 -761 11 -1090 15 -329 16 -404 5 -518 -8
-74 -12 -136 -10 -138 2 -2 528 -15 1169 -30 l1165 -26 127 -75 c100 -60 209
-109 515 -234 l388 -158 2080 -107 c1144 -59 3086 -165 4315 -234 l2235 -128
380 -162 c209 -90 886 -394 1505 -676 l1125 -513 1170 -36 1170 -36 98 -48 99
-47 765 -1490 c420 -820 809 -1578 863 -1685 l98 -194 714 -308 713 -308 -66
0 c-50 0 -70 -4 -82 -17 -8 -10 -653 -1447 -1432 -3193 -779 -1746 -1419
-3178 -1422 -3182 -2 -5 0 -8 5 -8 5 0 892 1344 1972 2988 1080 1643 1966
2991 1970 2995 6 7 2185 -924 2202 -941 4 -4 -178 -79 -404 -167 -225 -88
-413 -162 -418 -165 -8 -5 -37 -1027 -29 -1033 2 -2 407 3 899 10 492 7 1616
15 2497 19 l1601 7 -57 -204 c-32 -112 -152 -539 -266 -948 l-209 -744 75 -72
75 -72 -362 -1512 c-325 -1355 -385 -1593 -583 -2310 -122 -440 -221 -804
-221 -810 0 -5 17 -15 38 -21 47 -13 659 -150 671 -150 5 0 34 42 64 94 l56
93 142 7 c77 4 143 5 146 2 3 -2 -4 -45 -16 -94 -26 -109 -25 -105 -2 -92 18
9 20 6 23 -40 l3 -50 125 136 c75 82 157 159 205 194 l80 58 579 2018 c769
2679 839 2922 1006 3521 79 282 147 517 151 524 5 8 69 -9 220 -60 118 -39
219 -71 225 -71 6 0 155 171 330 380 176 209 328 382 339 384 29 7 2509 77
2706 76 l165 0 -77 412 c-42 227 -76 414 -75 414 9 9 1643 -106 2991 -211
l1720 -134 1192 -355 c655 -196 1195 -356 1200 -356 5 0 113 363 242 808 128
444 236 811 241 815 4 5 547 17 1206 27 660 10 1201 19 1204 21 3 1 -531 7
-1187 13 -655 6 -1194 14 -1198 17 -3 4 70 269 163 590 l169 583 -520 193
c-285 106 -522 194 -524 197 -3 3 2 37 12 76 10 39 15 73 13 75 -2 3 -816 402
-1809 889 -1486 728 -1840 905 -2009 1006 -113 67 -394 230 -625 362 -231 132
-468 271 -527 310 l-108 71 -27 -18 c-16 -10 -173 -121 -350 -247 -177 -125
-326 -228 -332 -228 -6 0 -161 67 -344 149 l-332 148 -1455 828 c-800 455
-1469 841 -1486 858 l-32 32 19 397 19 396 81 229 c44 125 96 270 116 321 l36
93 -79 264 c-43 146 -82 265 -86 265 -6 0 -1051 928 -1171 1040 -12 11 -72
202 -172 549 l-154 532 21 89 20 90 -123 353 c-116 331 -126 354 -154 367 -21
11 -33 26 -41 56 l-12 41 207 6 c113 3 1277 23 2586 44 1309 21 2367 39 2350
40 -16 1 -1191 21 -2610 44 -1419 24 -2581 43 -2582 44 -1 0 -583 2007 -1293
4459 l-1291 4458 -137 179 -137 179 -53 -167 c-29 -93 -60 -190 -70 -218 l-17
-49 -109 -23 c-60 -13 -113 -20 -117 -16 -4 4 -55 107 -112 228 l-105 220
-119 52 c-65 28 -123 52 -128 52 -6 1 -97 -53 -203 -119z"/>
<path d="M11630 24518 c-5 -13 -38 -90 -74 -173 -63 -147 -64 -150 -43 -157
53 -17 2932 -830 2956 -834 24 -5 40 9 156 136 72 78 131 146 133 151 2 5 -7
13 -20 19 -27 12 -3074 880 -3089 880 -5 0 -14 -10 -19 -22z"/>
<path d="M22790 24490 c6 -11 13 -20 16 -20 2 0 0 9 -6 20 -6 11 -13 20 -16
20 -2 0 0 -9 6 -20z"/>
<path d="M22896 24294 c44 -83 354 -671 689 -1306 l610 -1155 48 23 c26 14 47
29 47 34 0 12 -1447 2529 -1463 2545 -5 6 26 -58 69 -141z"/>
</g>
</svg>
