<?xml version="1.0" standalone="no"?>
<!DOCTYPE svg PUBLIC "-//W3C//DTD SVG 20010904//EN"
 "http://www.w3.org/TR/2001/REC-SVG-20010904/DTD/svg10.dtd">
<svg version="1.0" xmlns="http://www.w3.org/2000/svg"
   viewBox="0 0 4689.000000 1418.000000"
 preserveAspectRatio="xMidYMid meet">
<metadata>
Created by potrace 1.16, written by Peter Selinger 2001-2019
</metadata>
<g transform="translate(0.000000,1418.000000) scale(0.100000,-0.100000)"
fill="#000000" stroke="none">
<path d="M9325 14050 l-900 -128 -762 -201 -762 -200 -373 -31 -373 -31 -320
21 -320 21 -1386 -211 -1387 -210 -238 -86 -239 -86 -1084 -159 c-596 -87
-1089 -159 -1095 -159 -12 0 -86 -93 -86 -108 0 -4 52 -62 116 -128 l116 -119
134 -285 c74 -156 148 -301 164 -322 l30 -37 0 -1429 0 -1429 121 -111 121
-112 746 -1 c723 0 752 -1 886 -22 l140 -23 35 -139 36 -140 202 -135 202
-135 1 -233 0 -234 403 8 403 7 749 -513 c413 -282 765 -527 784 -544 18 -17
312 -336 653 -708 l620 -678 1383 0 1384 0 5 -53 c33 -308 32 -330 -38 -660
l-43 -207 -110 -168 c-60 -92 -120 -183 -133 -202 -13 -19 -115 -120 -226
-224 -185 -173 -230 -209 -521 -413 -175 -124 -400 -274 -500 -334 l-181 -109
-704 0 -705 0 -173 -35 -173 -35 -489 0 -488 0 0 -1155 0 -1155 473 0 472 0
194 -40 195 -41 2740 3 2741 3 480 34 c264 18 481 34 483 36 2 2 10 29 18 62
37 145 27 129 109 167 66 31 77 40 97 80 16 33 30 48 52 55 17 6 101 31 186
56 152 45 641 204 649 211 2 2 13 97 25 211 21 204 22 208 46 215 14 5 157 33
319 63 162 31 296 56 297 58 1 1 16 130 33 287 18 157 34 295 36 306 5 25 299
226 1022 702 l471 310 294 133 c276 125 313 139 648 241 l355 109 1795 159
1795 160 1280 0 1280 1 75 137 75 137 118 3 c128 3 121 6 132 -61 l6 -37 339
0 340 0 0 -445 0 -445 -280 0 -280 0 0 -40 0 -40 2323 0 2323 0 109 100 109
100 1066 0 c586 0 1939 3 3006 7 l1942 6 5 40 c3 22 11 43 17 47 6 4 106 35
222 69 137 41 269 88 380 136 121 53 227 90 367 129 108 30 274 82 369 115
168 58 172 59 177 38 2 -12 29 -128 60 -257 31 -129 83 -374 116 -545 87 -449
107 -544 144 -695 19 -74 57 -236 85 -360 28 -124 55 -228 58 -231 15 -13
1673 -694 1767 -725 92 -31 547 -129 2094 -450 l505 -104 480 -45 c265 -25
495 -48 513 -50 21 -4 112 -68 279 -197 l246 -191 602 6 601 5 546 155 545
156 445 334 444 335 259 282 258 282 164 443 164 442 19 414 18 414 -98 643
-99 644 -180 711 -180 712 -172 489 -172 488 -53 30 c-49 28 -53 33 -53 67 0
21 -3 66 -7 101 l-6 62 -524 662 -525 661 -651 638 -652 639 -627 314 -627
314 -825 230 -825 230 -823 145 -823 145 -2190 210 -2190 210 -2785 179 -2785
180 -1388 35 -1387 35 -148 74 -147 74 -3049 7 -3049 7 -64 57 c-95 84 -276
367 -327 512 -21 58 -40 111 -44 117 -4 6 -132 24 -302 42 l-295 31 -956 0
-957 0 -227 55 -226 55 -1165 0 -1164 0 0 -36 0 -36 -37 28 -38 29 -1432 3
-1433 3 0 -20 c0 -20 -5 -21 -165 -21 -103 0 -165 -4 -165 -10 0 -7 -189 -10
-546 -10 l-546 0 -55 -50 -55 -50 -205 0 c-114 0 -204 2 -202 4 2 2 258 135
569 296 311 161 640 333 732 382 l168 90 -23 37 c-12 20 -58 93 -101 161 -78
123 -81 126 -202 218 -68 50 -132 92 -141 91 -10 0 -423 -59 -918 -129z m6354
-2170 c-13 -35 -11 -35 -74 -11 -54 21 -49 28 25 34 25 2 48 4 52 5 4 1 2 -11
-3 -28z m20590 -7439 l54 -6 -160 -87 -160 -86 -134 -12 c-123 -11 -143 -11
-249 9 -75 13 -208 52 -380 110 l-265 90 620 -6 c341 -3 644 -8 674 -12z"/>
</g>
</svg>
