<?xml version="1.0" standalone="no"?>
<!DOCTYPE svg PUBLIC "-//W3C//DTD SVG 20010904//EN"
 "http://www.w3.org/TR/2001/REC-SVG-20010904/DTD/svg10.dtd">
<svg version="1.0" xmlns="http://www.w3.org/2000/svg"
   viewBox="0 0 4103.000000 2575.000000"
 preserveAspectRatio="xMidYMid meet">
<metadata>
Created by potrace 1.16, written by Peter Selinger 2001-2019
</metadata>
<g transform="translate(0.000000,2575.000000) scale(0.100000,-0.100000)"
fill="#000000" stroke="none">
<path d="M20070 24525 l0 -1225 -1940 0 -1940 0 0 -135 0 -135 210 0 210 0 0
-270 0 -270 -2120 0 -2120 0 0 -668 0 -668 -590 -293 -590 -294 2 -588 3 -589
-1965 2 -1965 3 -57 -425 c-31 -234 -57 -431 -57 -437 -1 -10 -369 -13 -1803
-13 l-1803 0 -200 -244 c-191 -232 -210 -251 -408 -422 -193 -167 -214 -182
-312 -226 l-105 -48 -1125 0 -1125 0 0 -810 0 -810 -107 -1 c-187 -2 -187 1
-29 -109 l136 -94 0 -908 0 -908 785 0 784 0 10 -37 c6 -20 9 -38 7 -40 -2 -2
-185 -6 -407 -9 -222 -2 -450 -7 -506 -10 l-103 -6 0 -289 0 -289 1238 0 1237
-1 835 -193 835 -193 191 -214 191 -214 -43 -9 c-24 -4 -44 -14 -44 -21 0 -9
10 -10 46 -2 34 8 51 8 65 -1 28 -18 49 -15 49 7 0 14 12 22 45 30 55 14 62
35 8 25 -61 -12 -78 -10 -76 6 1 8 -65 91 -147 184 -82 94 -148 171 -146 173
1 2 876 -198 1944 -444 l1941 -448 -6 -25 c-3 -14 -6 -26 -7 -27 -1 -1 -24 4
-51 11 l-50 12 -10 -45 c-11 -48 -16 -50 -69 -37 -21 5 -25 1 -35 -39 -6 -24
-11 -50 -11 -58 0 -7 125 -89 278 -182 l279 -167 -19 -95 c-11 -52 -18 -96
-16 -99 4 -4 885 -204 898 -204 4 0 20 65 36 145 l28 145 92 0 92 0 6 35 c4
19 12 35 19 35 7 0 129 -29 272 -64 143 -36 263 -61 266 -58 6 7 39 133 39
150 0 5 -103 35 -229 67 l-229 57 9 30 c4 17 10 32 11 34 2 1 107 -23 233 -53
127 -30 408 -90 625 -132 l395 -78 6 466 c3 256 7 576 8 711 l1 245 682 -47
c375 -26 683 -46 685 -45 1 2 9 35 16 75 l14 71 -66 14 c-36 8 -207 44 -378
78 -172 35 -313 66 -313 69 0 3 204 20 453 38 248 18 462 35 475 38 17 3 22
11 22 34 0 25 4 30 25 30 l25 0 0 -995 0 -995 86 2 87 3 187 -446 c103 -246
200 -462 215 -481 16 -21 307 -701 711 -1664 l683 -1629 -132 -25 c-129 -25
-132 -26 -135 -53 -4 -33 2 -34 129 -8 178 35 157 38 181 -19 22 -52 25 -54
78 -44 32 7 32 7 28 63 l-3 55 128 24 c102 19 127 27 127 41 -1 40 -11 41
-144 15 -71 -14 -134 -23 -141 -20 -7 2 -15 22 -17 43 -3 21 -320 790 -706
1710 -646 1539 -702 1676 -702 1728 0 49 -16 95 -136 381 -75 179 -134 327
-131 330 2 3 164 9 358 13 l354 8 237 -59 c131 -32 248 -58 261 -58 24 0 24
-2 30 -126 3 -69 7 -127 9 -128 2 -1 349 2 772 7 l769 10 150 -29 c83 -15 156
-34 162 -41 9 -9 14 -188 19 -740 4 -400 9 -745 12 -765 l6 -37 -484 -322
c-266 -177 -491 -328 -500 -337 -17 -14 -16 -21 11 -61 7 -11 120 61 509 323
l501 336 325 0 326 0 0 -55 0 -55 640 0 c562 0 640 -2 640 -15 0 -12 -17 -15
-95 -15 l-95 0 0 -70 0 -70 1838 0 1837 0 505 -67 505 -66 60 23 c33 12 69 23
80 23 11 1 370 -247 797 -551 l778 -552 157 50 158 50 99 -67 100 -68 22 -75
c12 -41 48 -129 79 -195 92 -193 95 -206 95 -382 l0 -153 48 0 48 0 353 -1109
c195 -610 357 -1114 360 -1119 4 -6 85 -1 205 12 l198 22 8 -21 c4 -11 52
-155 106 -320 54 -165 108 -313 120 -330 13 -18 239 -691 558 -1660 294 -897
538 -1638 542 -1648 5 -14 0 -17 -37 -17 -24 0 -81 -3 -126 -7 -81 -6 -83 -7
-83 -32 l0 -26 88 7 c48 3 107 7 132 7 l45 1 66 -199 66 -198 -81 -7 c-44 -3
-100 -6 -123 -6 -41 0 -43 -1 -43 -31 0 -30 1 -31 38 -25 20 3 80 8 133 11
l96 7 13 -47 c13 -45 15 -47 43 -41 16 3 33 6 38 6 5 0 9 20 9 44 l0 44 120 7
120 8 0 29 c0 27 -2 29 -32 24 -18 -3 -77 -8 -130 -12 -105 -6 -103 -7 -99 46
0 8 -23 90 -52 181 l-54 167 45 6 c25 3 66 6 93 6 63 0 79 7 79 37 0 24 -1 24
-72 18 -40 -3 -93 -8 -118 -10 l-46 -5 -567 1727 c-515 1570 -567 1734 -567
1793 0 54 -12 101 -70 275 -38 115 -69 209 -67 210 1 2 157 19 347 39 190 20
364 39 386 42 l42 6 22 -67 c21 -63 23 -66 49 -60 l26 5 314 -917 c173 -505
346 -1010 384 -1122 l70 -203 35 6 c19 3 36 7 38 9 3 3 -768 2263 -800 2347
-5 13 59 22 444 64 248 26 453 46 456 43 15 -14 734 -2231 734 -2261 0 -40 8
-66 21 -66 5 0 9 24 9 54 0 30 4 56 9 58 5 2 9 48 9 103 0 296 -4 434 -10 441
-10 10 -10 15 -17 -113 l-6 -113 -313 956 c-172 526 -312 957 -310 959 3 3
955 105 976 105 9 0 12 60 12 267 l0 267 -324 1170 c-317 1142 -326 1178 -371
1441 -38 222 -126 604 -191 828 -5 16 79 17 1665 17 l1671 0 0 280 0 279 -128
3 -129 3 122 430 122 430 552 3 551 2 0 127 0 126 143 -6 c78 -4 283 -10 455
-13 266 -6 312 -5 308 7 -23 67 -416 1442 -413 1445 2 3 154 -14 336 -36 183
-22 336 -40 340 -40 5 0 64 108 132 240 l124 240 523 0 522 0 0 -40 0 -40 145
0 145 0 0 -1640 c0 -1633 0 -1640 -20 -1640 -17 0 -20 -7 -20 -50 l0 -50 230
0 230 0 0 -685 0 -685 790 0 790 0 0 -40 0 -40 1235 0 1235 0 0 55 0 55 -1015
0 -1015 0 0 645 0 645 360 0 360 0 0 55 0 55 -360 0 -360 0 0 4320 0 4320 645
0 645 0 0 50 0 50 -645 0 -645 0 0 25 c0 25 1 25 80 25 l80 0 0 350 0 350
-225 0 c-143 0 -225 -4 -225 -10 0 -7 -430 -10 -1270 -10 l-1270 0 0 -700 0
-700 -85 0 -85 0 0 -1127 1 -1128 -177 -572 c-98 -315 -179 -571 -181 -569 -4
4 24 309 33 364 4 27 2 32 -16 32 -17 0 -20 6 -20 40 l0 40 -110 0 -110 0 0
295 0 295 -245 0 -245 0 0 -80 0 -80 -165 0 -165 0 7 165 6 165 -266 0 -267 0
0 1075 0 1075 -1172 0 c-1146 1 -1179 1 -1421 24 -136 13 -249 25 -250 27 -2
2 -1 32 1 67 l4 64 91 44 91 44 123 0 123 0 0 170 0 170 -510 0 -510 0 0 -90
c0 -49 -3 -90 -7 -90 -5 0 -527 107 -1160 237 l-1153 237 0 2168 0 2168 -1203
0 -1203 0 -47 48 -48 49 85 99 86 99 0 57 0 58 -180 0 c-165 0 -180 1 -180 18
0 9 11 79 24 155 l23 138 -86 183 -86 184 -186 77 -186 77 -186 -77 -185 -77
-86 -184 -86 -184 25 -149 c14 -82 25 -151 25 -155 0 -3 -19 -6 -43 -6 l-42 0
-35 -122 -36 -123 -1642 -3 -1642 -2 0 105 0 105 90 0 90 0 0 105 0 105 -92 0
c-85 0 -100 3 -229 52 -76 28 -136 55 -133 59 3 5 198 239 435 521 236 281
429 515 429 519 0 4 -17 21 -38 37 l-38 31 -448 -535 c-247 -294 -453 -534
-460 -534 -6 1 -150 54 -321 118 l-310 118 -3 1227 -2 1227 -55 0 -55 0 0
-1225z m14430 -10875 l0 -59 -82 30 c-46 17 -108 40 -138 50 -95 34 -84 39 73
39 l147 0 0 -60z"/>
</g>
</svg>
