<?xml version="1.0" standalone="no"?>
<!DOCTYPE svg PUBLIC "-//W3C//DTD SVG 20010904//EN"
 "http://www.w3.org/TR/2001/REC-SVG-20010904/DTD/svg10.dtd">
<svg version="1.0" xmlns="http://www.w3.org/2000/svg"
   viewBox="0 0 4284.000000 2031.000000"
 preserveAspectRatio="xMidYMid meet">
<metadata>
Created by potrace 1.16, written by Peter Selinger 2001-2019
</metadata>
<g transform="translate(0.000000,2031.000000) scale(0.100000,-0.100000)"
fill="#000000" stroke="none">
<path d="M23040 20214 l0 -99 1018 -513 c559 -281 1827 -921 2817 -1422 1637
-827 1800 -911 1798 -932 -1 -13 -12 -173 -24 -355 -13 -183 -23 -332 -24
-330 -12 17 -759 1024 -764 1028 -3 4 -472 109 -1043 233 l-1036 226 -2258 0
-2258 0 -1010 -221 c-556 -121 -1024 -223 -1039 -226 -22 -4 -61 -47 -173
-189 l-146 -184 -1826 0 -1827 0 -100 80 -100 80 -1161 0 -1161 0 -167 -245
-167 -245 -547 0 -547 0 -165 200 c-115 139 -171 200 -185 199 -11 0 -927 -93
-2035 -207 l-2016 -208 -193 -152 c-107 -84 -197 -150 -202 -145 -4 4 -141
215 -304 468 -163 253 -300 464 -304 468 -5 5 -546 -118 -1202 -273 -657 -155
-1205 -283 -1219 -286 -23 -5 -30 5 -104 150 l-79 155 -31 -16 c-80 -41 -692
-375 -698 -381 -4 -4 -11 -65 -16 -136 -6 -71 -15 -131 -20 -135 -6 -3 -477
-82 -1046 -176 l-1036 -170 0 -1265 0 -1265 1048 -194 c576 -107 1053 -196
1059 -199 9 -3 13 -35 13 -111 l0 -108 356 -174 c196 -96 359 -175 364 -177 4
-2 55 62 112 142 56 80 110 145 119 145 9 1 544 -116 1190 -260 676 -150 1179
-257 1186 -252 7 4 148 217 314 473 165 256 302 466 302 466 1 1 58 -43 127
-97 69 -55 157 -124 196 -154 l70 -55 1363 -140 c749 -77 1364 -140 1365 -140
5 0 126 -185 126 -193 0 -4 -67 -7 -150 -7 l-150 0 0 41 0 42 -58 -6 c-31 -4
-100 -9 -152 -12 -149 -9 -160 -12 -160 -40 l0 -25 -188 0 -188 0 -185 -84
-185 -84 -3480 -76 -3479 -76 -655 -60 c-360 -33 -670 -63 -687 -66 -31 -5
-33 -8 -33 -44 0 -31 4 -40 18 -40 9 0 305 -27 657 -60 l640 -61 3510 -78
3510 -78 180 -82 179 -81 197 0 196 0 8 -452 c4 -249 10 -532 14 -628 6 -175
6 -175 30 -178 l24 -4 -6 -146 c-4 -81 -16 -580 -29 -1109 -12 -530 -26 -963
-31 -963 -4 0 -455 56 -1000 125 l-992 125 -1548 10 -1549 11 -82 -69 -82 -70
-194 -31 c-107 -18 -203 -33 -213 -34 -14 -2 -25 14 -45 63 l-28 65 -128 0
-129 0 -47 -110 -46 -110 -1349 -92 c-743 -51 -1367 -92 -1387 -93 l-38 0 0
-134 0 -134 63 -6 c34 -3 640 -46 1347 -96 707 -50 1303 -92 1326 -95 l40 -6
45 -107 44 -107 130 -3 130 -3 25 67 c14 36 27 67 31 69 9 6 420 -64 432 -73
7 -5 44 -34 83 -64 l70 -56 1560 13 1559 13 865 136 865 136 3240 95 c1782 52
3296 97 3363 101 l124 6 20 47 19 48 691 6 c380 4 922 7 1205 7 449 0 513 2
513 15 0 13 -124 15 -1053 15 -580 0 -1122 3 -1205 7 l-152 6 -16 44 c-9 24
-21 46 -26 49 -5 3 -1170 43 -2589 89 -1419 45 -2583 85 -2585 88 -3 3 332
489 745 1081 414 591 788 1136 832 1210 80 135 81 136 117 136 24 0 261 -83
667 -235 l630 -236 148 -259 148 -259 42 -9 c23 -4 664 -134 1423 -287 l1382
-278 25 19 c14 10 95 81 179 156 l155 137 769 -24 c423 -14 804 -25 847 -25
l77 0 0 -29 c0 -24 16 -43 93 -112 50 -46 106 -96 124 -112 31 -29 34 -29 223
-44 l191 -14 144 91 145 92 6 50 7 50 96 -6 c53 -3 514 -18 1026 -33 l930 -27
165 -104 165 -104 190 6 c105 3 327 9 495 12 l305 7 65 -347 c35 -191 67 -350
70 -355 3 -5 1216 -284 2695 -620 1480 -337 2698 -614 2708 -617 13 -4 17 -16
16 -57 0 -29 -4 -70 -7 -92 l-7 -40 -2645 576 c-1455 318 -2659 580 -2676 583
-30 6 -31 5 -42 -45 -7 -28 -12 -60 -12 -72 0 -12 136 -602 302 -1311 264
-1122 306 -1290 323 -1297 11 -4 1179 -252 2595 -550 1416 -298 2576 -542
2577 -543 1 -1 -1 -65 -4 -142 l-6 -140 -2346 518 c-1290 285 -2347 518 -2348
518 -1 0 -7 -16 -12 -36 -9 -32 12 -130 176 -813 102 -427 189 -780 194 -785
4 -5 1108 -248 2454 -541 1345 -293 2449 -536 2452 -539 4 -3 -4 -41 -16 -83
-21 -72 -24 -113 -36 -518 -7 -242 -12 -441 -10 -443 1 -1 420 -135 931 -297
l929 -295 1320 -331 c726 -181 1327 -332 1335 -334 12 -4 30 46 84 233 38 130
141 462 228 737 87 275 244 786 348 1135 117 392 241 784 325 1023 74 213 135
395 135 404 0 9 -114 226 -254 482 l-254 466 113 729 c62 400 117 731 122 735
4 4 77 38 162 76 l154 67 322 -7 322 -7 33 -79 32 -79 267 0 c239 0 306 -4
663 -41 l398 -40 513 -253 514 -253 38 -102 c21 -56 43 -105 49 -110 9 -6 579
-245 640 -267 14 -5 39 15 115 94 l96 101 255 -27 c141 -16 266 -34 280 -42
14 -7 58 -35 98 -62 l73 -49 264 3 264 3 5 -80 c5 -62 87 -2004 86 -2037 0 -7
119 -12 121 -5 0 1 94 479 208 1062 l207 1060 311 3 310 2 32 105 c27 87 36
106 54 109 12 3 290 16 617 31 327 15 601 28 608 30 6 3 12 18 12 35 0 17 -6
32 -12 35 -7 2 -236 11 -508 19 -272 9 -549 19 -616 22 l-120 6 -35 105 -34
104 -248 -1 c-231 -1 -247 1 -247 17 0 10 108 896 241 1968 132 1073 240 1973
240 2000 -1 67 -228 2596 -234 2602 -5 4 -4510 2148 -4664 2218 l-72 33 -97
-136 c-53 -75 -100 -140 -103 -144 -4 -5 -281 121 -616 278 -336 157 -647 303
-692 324 l-82 38 29 88 c17 48 28 89 26 92 -13 12 -6261 2940 -6267 2937 -4
-3 -10 -36 -14 -75 -4 -38 -9 -70 -11 -70 -2 0 -455 223 -1006 496 -1935 958
-1917 949 -3323 1574 -720 320 -1316 585 -1322 587 -10 4 -13 -19 -13 -93z
m5450 -7064 l0 -210 -144 0 -144 0 141 210 c77 116 142 210 144 210 2 0 3 -94
3 -210z m-9882 35 l62 -95 -369 0 -369 0 -68 -55 c-37 -31 -76 -57 -88 -60
-12 -2 -132 -11 -267 -19 l-245 -16 -273 -120 -273 -120 -507 11 -506 10 -177
96 -177 95 167 136 c92 75 193 157 225 184 l59 48 1371 0 1372 0 63 -95z
m-6199 -57 c19 -31 19 -33 3 -40 -9 -3 -145 -18 -302 -32 -267 -25 -873 -114
-927 -136 -22 -9 -23 -15 -23 -120 0 -83 -3 -110 -13 -110 -7 0 -31 38 -55 85
l-42 85 123 150 122 149 547 1 546 0 21 -32z m4580 -2199 l274 -121 1011 -69
1011 -68 1020 0 1020 0 170 164 170 165 425 0 425 0 172 -165 171 -165 964 0
965 0 274 -65 c151 -36 278 -67 283 -68 11 -4 -180 -138 -204 -144 -8 -2 -103
33 -210 77 l-195 81 -695 -10 -695 -11 -360 84 -360 83 -13 -41 c-8 -27 -9
-56 -4 -87 l9 -46 -225 -6 c-124 -4 -284 -7 -356 -7 l-131 -1 -160 -133 -161
-134 -2209 49 c-1216 27 -2259 49 -2320 49 l-110 0 -170 163 -170 163 -520
133 c-286 74 -524 137 -528 141 -5 4 27 27 70 50 l78 43 445 7 c245 4 472 7
505 8 56 2 75 -5 334 -119z m19504 -4186 c9 -65 14 -119 13 -120 -3 -4 -481
-22 -659 -26 l-109 -2 -30 -72 -31 -73 -89 0 c-68 0 -89 3 -85 13 2 6 33 99
68 205 l64 192 421 0 421 0 16 -117z m2937 45 c0 -40 -3 -117 -7 -170 l-6 -98
-156 0 -156 0 -40 100 c-32 79 -44 100 -60 100 -175 3 -1906 -44 -2035 -55
-96 -8 -175 -13 -177 -11 -5 4 -33 167 -33 189 0 16 70 17 1335 17 l1335 0 0
-72z m-46 -1031 l-7 -243 134 -17 c74 -10 153 -19 176 -20 l42 -2 -88 -62 -89
-62 -188 16 c-104 9 -190 17 -191 17 -1 1 -10 47 -19 102 l-17 101 -266 111
-266 111 211 1 210 0 39 95 38 95 144 0 144 0 -7 -243z m-1063 42 c-45 -20
-45 -20 -90 0 l-46 20 90 0 90 0 -44 -20z"/>
</g>
</svg>
