<?xml version="1.0" standalone="no"?>
<!DOCTYPE svg PUBLIC "-//W3C//DTD SVG 20010904//EN"
 "http://www.w3.org/TR/2001/REC-SVG-20010904/DTD/svg10.dtd">
<svg version="1.0" xmlns="http://www.w3.org/2000/svg"
   viewBox="0 0 4369.000000 1463.000000"
 preserveAspectRatio="xMidYMid meet">
<metadata>
Created by potrace 1.16, written by Peter Selinger 2001-2019
</metadata>
<g transform="translate(0.000000,1463.000000) scale(0.100000,-0.100000)"
fill="#000000" stroke="none">
<path d="M5634 14498 c-98 -72 -180 -132 -180 -132 -1 -1 94 -669 211 -1486
l212 -1485 -115 -3 c-110 -3 -116 -2 -141 21 l-26 25 -1040 -59 c-572 -32
-1063 -59 -1091 -59 l-50 0 -93 145 c-88 136 -95 145 -125 145 -66 0 -1152
-91 -1163 -98 -7 -4 -99 -144 -204 -312 l-191 -304 15 -31 c8 -16 74 -135 146
-264 117 -209 131 -239 131 -282 0 -41 -4 -51 -34 -77 -20 -17 -50 -32 -73
-36 -21 -3 -440 -31 -931 -63 -490 -32 -892 -61 -892 -66 0 -4 33 -5 73 -2
100 8 1662 95 1701 95 l31 -1 -33 -29 -32 -30 0 -285 0 -285 -175 0 -175 0 0
-59 0 -60 -58 -16 c-31 -9 -63 -18 -70 -20 -10 -4 -12 -125 -10 -582 l3 -578
68 -19 67 -20 0 -58 0 -58 205 0 c176 0 205 -2 205 -15 0 -13 35 -15 255 -15
l255 0 30 -32 c26 -29 29 -40 30 -95 l0 -63 59 0 59 0 110 -115 111 -115 955
0 c843 0 956 -2 956 -15 0 -13 26 -15 176 -15 l177 0 294 -210 294 -210 122 0
122 0 186 -108 186 -107 7 -517 7 -517 55 -163 56 -163 49 -2142 49 -2142 -49
-83 -48 -83 5 -573 5 -572 252 0 252 0 6 563 6 562 40 90 40 90 47 2151 47
2151 -32 168 -33 168 11 436 c6 240 11 454 11 476 l0 41 125 53 125 53 0 84
c0 80 9 102 27 69 5 -8 327 -138 716 -290 l708 -275 1175 0 c1167 0 1174 0
1174 20 0 19 7 20 255 20 l256 0 327 270 327 270 204 0 205 0 130 99 c72 54
194 140 272 190 l141 91 567 0 566 0 90 -45 c89 -45 90 -45 194 -45 l104 0 37
-67 c20 -38 38 -69 39 -70 0 -1 98 -22 216 -47 l215 -45 722 -30 c397 -17 746
-31 775 -31 l54 0 128 -225 129 -225 161 0 161 0 458 120 458 120 782 0 782 0
143 143 142 142 0 108 0 107 125 0 125 0 90 45 90 45 565 0 565 0 83 -43 c79
-41 86 -42 197 -47 l114 -5 34 -60 c18 -33 36 -63 40 -67 4 -4 102 -27 218
-52 l210 -45 740 -30 c406 -17 756 -32 778 -34 l39 -2 126 -220 126 -220 162
-3 162 -2 458 120 459 120 779 0 780 0 147 147 148 148 0 102 0 103 120 0 120
0 90 45 90 45 570 0 570 0 90 -45 c89 -45 90 -45 194 -45 l104 0 36 -70 c21
-38 40 -70 43 -70 3 0 101 -20 217 -44 l211 -45 512 -22 512 -21 293 -62 292
-61 99 -173 99 -173 216 6 c120 3 1095 17 2167 31 1845 23 2004 27 2955 64
898 36 1075 40 1653 40 l647 0 0 -40 0 -40 -110 0 c-101 0 -110 -2 -110 -19 0
-15 13 -20 78 -30 151 -24 142 -20 142 -52 l0 -29 213 0 212 0 20 30 20 30
721 0 721 0 7 -87 c12 -157 13 -157 62 -181 l44 -22 0 -125 0 -125 75 0 75 0
0 275 0 275 1105 0 1105 0 0 25 0 25 -1013 0 c-558 0 -1055 3 -1105 6 l-92 7
0 428 0 429 45 0 45 0 0 2079 0 2080 -47 4 -48 3 48 2 47 2 0 320 0 320 -58 0
-57 0 -63 -327 -63 -328 1 -877 0 -876 -335 -328 -335 -328 -2 -316 -3 -316
-995 118 c-904 107 -1000 120 -1045 143 -44 22 -111 32 -603 89 l-554 65 -46
38 c-26 21 -73 61 -104 90 -31 29 -67 55 -80 58 -13 3 -450 91 -973 196 l-950
191 -708 5 -707 5 -5 22 c-3 11 -9 39 -13 61 l-8 40 -1907 3 -1907 2 0 40 0
40 -2713 0 -2713 0 -21 43 -20 42 -2299 253 -2299 253 -1872 -1 -1873 0 0 45
c0 38 -3 45 -22 49 -13 3 -601 41 -1308 86 l-1285 81 -269 -21 c-148 -11 -270
-19 -271 -18 -3 3 -65 139 -65 142 0 0 73 -2 162 -6 90 -4 198 -8 241 -10 l77
-3 0 54 c0 53 0 54 -77 133 -43 44 -94 93 -113 108 l-36 28 -2083 203 -2082
203 -235 -117 -234 -117 -1070 0 c-842 0 -1070 3 -1070 12 0 31 -142 942 -150
963 -5 14 -60 89 -122 167 l-113 143 -132 875 c-72 481 -137 918 -143 970 -6
52 -15 99 -19 103 -4 4 -88 -52 -187 -125z m35259 -7044 l113 -57 86 -152 85
-152 12 -129 c7 -71 14 -141 17 -156 l6 -28 -695 0 -695 0 -33 38 -33 37 225
3 224 4 280 324 c154 178 283 323 287 324 4 0 59 -25 121 -56z"/>
</g>
</svg>
