<?xml version="1.0" standalone="no"?>
<!DOCTYPE svg PUBLIC "-//W3C//DTD SVG 20010904//EN"
 "http://www.w3.org/TR/2001/REC-SVG-20010904/DTD/svg10.dtd">
<svg version="1.0" xmlns="http://www.w3.org/2000/svg"
   viewBox="0 0 3696.000000 829.000000"
 preserveAspectRatio="xMidYMid meet">
<metadata>
Created by potrace 1.16, written by Peter Selinger 2001-2019
</metadata>
<g transform="translate(0.000000,829.000000) scale(0.100000,-0.100000)"
fill="#000000" stroke="none">
<path d="M15138 8254 l-436 -33 -51 -33 c-32 -21 -59 -50 -76 -80 -31 -57 47
-46 -720 -99 -340 -23 -740 -57 -944 -80 -361 -40 -438 -44 -624 -32 l-107 6
0 39 c0 23 -5 38 -12 38 -14 0 -3605 -487 -3654 -495 -23 -4 -34 -12 -38 -29
-4 -16 -15 -26 -33 -30 -16 -3 -501 -87 -1079 -186 l-1051 -180 -219 99 -219
99 -805 -49 -805 -48 -829 -235 -829 -234 -62 -62 -62 -62 -554 -58 c-982
-104 -1155 -126 -1329 -171 -85 -22 -210 -61 -278 -87 l-122 -47 0 -42 c0 -42
-1 -43 -58 -72 -74 -37 -92 -76 -92 -201 0 -73 -3 -87 -22 -108 -22 -23 -22
-24 -5 -37 18 -13 18 -25 8 -222 -5 -114 -10 -230 -10 -257 0 -27 -5 -164 -11
-305 -13 -301 -12 -310 70 -364 49 -32 50 -32 50 -87 l1 -55 101 -85 c55 -47
107 -88 114 -93 7 -4 68 -18 136 -32 68 -14 133 -27 145 -30 14 -3 123 -120
269 -288 161 -184 254 -283 268 -284 11 -2 241 -12 511 -23 l490 -21 35 38
c19 21 56 62 81 91 l46 53 394 -51 c300 -38 601 -87 1264 -205 1049 -187 980
-174 966 -188 -8 -8 -6 -16 7 -30 23 -25 23 -85 0 -93 -29 -9 -21 -20 27 -40
l45 -18 -39 -16 c-22 -8 -42 -18 -46 -22 -4 -3 16 -17 44 -30 28 -12 51 -26
51 -30 0 -4 -18 -20 -41 -35 -39 -26 -40 -28 -38 -80 2 -29 0 -56 -4 -60 -4
-3 -7 -34 -7 -68 l0 -62 93 -9 c50 -4 506 -7 1012 -5 l920 4 220 79 c242 88
239 86 352 231 l37 47 176 0 c96 0 394 3 662 7 l486 6 402 319 c222 175 405
318 407 318 2 0 374 27 826 60 806 60 827 61 1084 54 l262 -7 127 -104 126
-105 462 11 c541 13 1161 42 1541 72 l270 21 156 -160 155 -160 239 -11 c131
-6 240 -10 241 -8 2 1 -33 99 -77 216 -43 118 -78 215 -77 216 2 1 59 12 128
24 69 12 137 24 152 27 26 5 32 19 120 284 86 259 94 280 118 284 14 3 177 37
363 76 243 50 359 70 413 70 61 0 81 4 112 24 29 19 164 50 643 150 334 69
609 126 611 126 3 0 127 -183 277 -408 l271 -408 488 -67 487 -68 250 98 c138
54 259 103 269 110 18 10 19 15 8 63 -7 28 -24 81 -38 117 l-26 65 48 44 c27
24 67 58 90 76 l41 32 17 130 c9 71 21 135 27 143 12 14 76 16 167 5 l52 -7
285 -425 c187 -278 293 -428 308 -433 12 -4 232 -36 488 -72 l466 -64 240 94
c133 51 255 101 273 110 31 16 33 16 73 -11 23 -15 278 -187 567 -382 l525
-354 287 -89 c324 -101 358 -114 358 -133 0 -7 17 -21 38 -30 l37 -17 489
-1502 c269 -826 494 -1508 500 -1515 7 -7 20 -10 28 -7 13 5 16 20 16 63 0 47
-82 307 -480 1522 -423 1292 -478 1465 -464 1476 9 6 16 18 16 26 0 8 18 29
39 46 33 26 71 39 232 80 l194 48 -3 75 c-2 41 -12 216 -22 389 -10 173 -16
318 -13 322 3 6 227 124 274 146 4 2 28 -27 55 -63 27 -36 53 -64 59 -61 5 2
202 89 437 194 l426 191 699 37 698 37 375 158 375 159 345 -74 c190 -41 899
-210 1575 -376 677 -166 1293 -311 1370 -324 l140 -23 1581 -787 1582 -788
-18 -59 -18 -59 27 -22 c15 -13 114 -66 219 -118 l192 -94 50 49 50 49 79 -39
c61 -29 80 -43 78 -57 -1 -14 18 -30 76 -61 71 -38 79 -40 88 -25 9 16 18 14
98 -26 l88 -45 459 652 c252 359 555 779 672 935 117 156 211 286 208 289 -2
3 -1277 322 -2833 709 -2806 699 -2837 707 -3928 945 -605 132 -1115 243
-1133 247 -32 7 -28 10 238 217 l269 209 -592 106 -592 107 -728 261 -729 262
-876 105 -877 106 -507 255 -508 255 -577 40 c-318 21 -1644 111 -2948 199
-1303 88 -2818 194 -3365 235 -952 72 -1009 77 -1320 125 -179 28 -336 52
-350 54 -14 2 -222 -11 -462 -30z m4257 -3374 c284 -17 332 -22 343 -37 6 -9
12 -20 12 -23 0 -3 9 -45 19 -93 l19 -87 -46 -34 c-35 -25 -50 -32 -60 -24 -9
8 -23 3 -52 -21 l-40 -32 -74 52 c-68 47 -78 51 -114 46 -35 -6 -45 -2 -98 37
-32 24 -119 87 -193 140 l-134 96 44 0 c24 0 193 -9 374 -20z m5237 -327 c25
-22 23 -30 -11 -47 -27 -15 -29 -14 -35 7 -15 56 7 76 46 40z"/>
</g>
</svg>
