<?xml version="1.0" standalone="no"?>
<!DOCTYPE svg PUBLIC "-//W3C//DTD SVG 20010904//EN"
 "http://www.w3.org/TR/2001/REC-SVG-20010904/DTD/svg10.dtd">
<svg version="1.0" xmlns="http://www.w3.org/2000/svg"
   viewBox="0 0 4693.000000 2945.000000"
 preserveAspectRatio="xMidYMid meet">
<metadata>
Created by potrace 1.16, written by Peter Selinger 2001-2019
</metadata>
<g transform="translate(0.000000,2945.000000) scale(0.100000,-0.100000)"
fill="#000000" stroke="none">
<path d="M19067 28707 c-38 -601 -205 -2888 -210 -2894 -1 0 -259 4 -573 10
l-571 11 -1349 -188 c-742 -104 -1353 -191 -1359 -194 -5 -3 -40 -30 -78 -59
l-67 -54 -604 -114 -604 -114 -200 -103 -199 -103 -46 38 -46 38 -38 -61 c-21
-34 -42 -68 -48 -75 -5 -7 -242 -96 -525 -198 l-515 -185 -48 41 c-55 45 -48
49 -99 -49 l-32 -62 -921 -383 c-506 -210 -966 -402 -1023 -426 l-102 -42 -55
49 c-31 28 -57 50 -60 50 -2 0 -271 -165 -597 -367 -326 -201 -650 -401 -720
-444 l-126 -78 -136 122 -136 122 5 48 4 47 -77 75 -77 75 -50 -6 c-49 -6 -54
-4 -189 76 -76 45 -139 80 -141 78 -2 -2 34 -66 81 -143 84 -138 85 -139 75
-184 l-9 -44 70 -78 71 -78 46 6 46 5 110 -111 c61 -62 111 -116 113 -120 2
-5 -25 -26 -60 -47 -35 -20 -524 -362 -1087 -758 l-1024 -721 -704 -808 c-387
-445 -707 -815 -709 -821 -3 -7 15 -55 40 -106 42 -86 44 -94 31 -119 -8 -14
-99 -165 -203 -336 -167 -274 -191 -310 -213 -309 -13 1 -49 4 -80 7 l-57 6
-37 -152 c-37 -147 -51 -180 -403 -968 l-364 -816 -93 -28 -93 -27 -46 -99
c-25 -55 -46 -103 -46 -108 0 -5 21 -23 48 -40 26 -17 55 -37 65 -45 17 -13 9
-38 -129 -422 -80 -225 -149 -412 -153 -415 -12 -12 -1347 -109 -1500 -109
l-23 0 4 -265 c1 -146 0 -265 -4 -265 -5 0 -8 -6 -8 -14 0 -18 -32 -20 -595
-46 -237 -11 -472 -23 -523 -26 l-92 -6 0 -264 0 -264 208 5 c114 3 306 7 428
10 l221 5 6 -107 c4 -58 7 -190 7 -293 l0 -187 73 -6 c39 -3 322 -22 627 -43
305 -20 559 -41 565 -46 6 -6 9 -175 7 -473 l-4 -465 414 -1 c227 -1 447 -4
487 -8 l75 -6 417 -925 417 -925 31 -159 c16 -87 32 -161 35 -163 3 -3 40 0
83 5 43 6 81 8 85 4 4 -4 91 -155 193 -337 l186 -330 -44 -95 -44 -95 715
-820 714 -820 1016 -718 1017 -718 901 -554 c496 -305 906 -555 910 -555 5 0
29 25 53 56 31 39 48 54 60 49 9 -3 460 -189 1004 -412 l987 -406 42 -78 41
-78 48 34 c25 19 51 35 55 35 5 1 244 -81 532 -182 l522 -182 36 -65 c20 -36
38 -68 40 -70 2 -2 22 11 46 28 23 17 45 31 50 31 4 0 91 -45 193 -100 l185
-99 553 -106 c303 -58 576 -110 604 -116 39 -8 71 -25 125 -67 l73 -56 1370
-193 1370 -193 590 7 590 6 73 -984 c41 -541 93 -1279 116 -1639 l41 -655 38
495 c20 272 75 1004 122 1625 47 622 86 1138 87 1149 2 15 49 34 225 95 122
42 224 79 227 82 3 3 -85 45 -197 93 -111 48 -208 90 -215 95 -11 7 -12 31 -3
130 9 111 12 124 39 158 27 34 31 51 42 153 l12 114 -34 31 -33 30 5 218 5
217 85 69 85 70 15 211 15 211 -76 82 -76 82 11 170 11 170 70 27 c39 15 167
63 285 107 l215 79 -45 19 c-25 11 -147 59 -271 107 l-225 88 4 56 c4 56 5 58
78 125 l74 69 0 258 0 259 -65 53 -64 53 4 335 c3 184 10 857 15 1495 5 638
13 1346 16 1573 l6 412 70 0 c47 0 249 34 621 106 l552 106 685 214 c654 205
686 213 715 200 16 -8 151 -64 300 -126 l269 -112 666 76 c612 69 1189 126
1284 126 65 0 307 -144 737 -439 l391 -268 345 -324 c291 -273 455 -440 1037
-1055 380 -401 695 -732 701 -735 23 -10 126 576 185 1051 62 502 84 636 101
632 8 -2 343 -167 745 -366 l730 -363 701 -430 700 -431 1704 -345 1704 -345
1103 -28 1104 -27 1016 22 1017 22 1490 95 1490 95 830 105 c804 102 858 111
1705 260 745 132 1944 359 2018 382 21 7 14 22 -152 309 -96 166 -218 382
-271 480 -54 98 -138 240 -187 316 -49 76 -92 144 -94 152 -5 12 -20 10 -307
-51 l-27 -6 75 219 c42 120 375 1132 740 2248 366 1117 681 2073 700 2125 56
157 107 332 98 340 -4 4 -651 168 -1438 364 l-1430 356 -1370 221 -1370 220
-1110 109 -1110 110 -1260 64 -1260 63 -2350 -7 -2350 -7 -135 141 c-75 78
-158 164 -185 193 l-50 51 -990 -79 -990 -79 -1250 -210 c-1128 -188 -1291
-218 -1670 -304 -231 -52 -634 -133 -895 -181 -261 -47 -485 -89 -498 -92 -16
-4 -52 -48 -114 -142 -50 -75 -91 -137 -92 -138 -1 0 -145 -20 -321 -43 -985
-127 -1908 -254 -2105 -290 -123 -22 -225 -40 -226 -40 -1 0 -24 54 -50 120
l-47 120 -104 76 -103 76 17 29 c10 16 122 173 250 349 l233 319 0 126 c0 186
-35 365 -111 575 -50 137 -62 182 -70 265 -30 311 -36 338 -124 551 l-17 42
-267 76 c-146 41 -315 87 -376 102 -60 15 -113 30 -117 33 -4 3 -20 94 -36
201 l-30 195 15 360 14 360 120 197 119 197 0 443 0 443 -48 40 c-26 23 -116
99 -200 170 l-153 128 -170 -169 -169 -169 0 -441 0 -442 89 -199 89 -200 12
-374 c12 -360 11 -379 -8 -507 -11 -74 -22 -136 -24 -138 -2 -2 -20 1 -39 6
-52 15 -1233 197 -1325 205 l-82 7 -6 151 c-3 84 -10 712 -16 1397 -5 685 -13
1362 -16 1505 l-5 260 75 60 75 60 0 275 1 275 -84 75 -83 75 -7 90 c-4 50 -9
110 -12 135 l-5 46 385 94 c212 52 382 98 378 101 -4 3 -173 48 -377 98 -203
51 -379 97 -391 101 -20 8 -22 17 -29 155 l-7 147 82 83 83 83 -17 219 c-9
120 -16 223 -16 230 0 7 -43 47 -95 89 l-95 78 0 155 c0 86 -3 192 -6 237 l-7
81 40 28 39 28 -14 131 c-12 126 -14 132 -45 164 -29 30 -32 40 -38 115 -3 45
-6 82 -5 83 0 1 167 39 370 86 l368 84 -380 80 -381 79 -6 50 c-3 28 -55 712
-115 1520 -144 1915 -158 2096 -162 2100 -2 2 -25 -330 -51 -738z m-245 -3364
c-4 -47 -11 -65 -37 -95 -30 -35 -32 -45 -44 -165 l-13 -127 36 -29 36 -29 0
-81 c0 -45 -3 -153 -7 -240 l-6 -159 -92 -73 -91 -74 -12 -188 c-7 -103 -15
-206 -18 -228 -5 -39 -3 -43 79 -130 l85 -91 -9 -109 c-4 -61 -8 -125 -8 -142
-1 -30 -4 -33 -30 -33 -16 0 -183 -32 -372 -71 -189 -39 -353 -71 -364 -71
-11 0 -96 21 -189 46 l-169 45 -396 -70 -396 -71 -135 -63 -135 -64 -407 -61
c-395 -59 -409 -61 -437 -44 -28 17 -35 15 -637 -150 l-607 -168 -239 -119
c-195 -98 -335 -159 -654 -286 -6 -2 -40 48 -75 111 -49 89 -68 116 -84 116
-14 0 -61 46 -144 140 -126 143 -144 161 -136 138 30 -88 102 -379 98 -399 -3
-18 9 -53 41 -117 25 -50 42 -93 37 -97 -5 -3 -222 -91 -483 -196 -451 -181
-497 -202 -978 -446 l-505 -256 -344 -264 c-188 -145 -347 -263 -351 -261 -5
2 -428 369 -939 817 l-931 815 47 27 c27 14 336 176 688 359 352 183 642 334
644 336 2 1 -4 24 -13 50 -9 26 -15 48 -13 50 2 2 1069 543 1555 789 l312 158
75 -32 c41 -17 76 -31 79 -31 2 0 10 23 17 50 7 28 18 55 24 59 5 5 234 94
507 198 l496 190 59 -22 c107 -40 99 -42 119 15 21 58 1 52 249 76 l170 17
575 199 575 200 95 -12 95 -12 1335 196 1335 195 520 19 c286 11 520 20 521
21 0 0 -1 -25 -4 -56z m-472 -2379 c184 -20 336 -38 338 -40 2 -1 -1 -57 -6
-124 l-10 -121 -81 -75 -81 -76 0 -278 0 -278 70 -57 70 -57 0 -98 0 -98 -32
-6 c-18 -3 -445 -67 -948 -142 l-915 -137 -305 -5 -305 -4 -400 -113 c-220
-62 -419 -118 -443 -125 l-43 -11 3 -75 3 -74 -344 -166 c-189 -90 -345 -163
-346 -162 -1 2 -14 25 -30 51 l-27 48 -47 -28 c-90 -53 -100 -58 -104 -53 -3
3 -143 244 -313 535 -299 514 -309 534 -346 654 -20 69 -36 126 -35 126 1 1
96 46 211 99 l209 97 252 39 c234 36 297 51 846 199 327 88 595 164 597 169
12 37 43 48 403 143 l374 100 145 -6 c126 -5 197 -1 537 34 l391 41 164 60
c90 33 174 58 188 56 14 -2 176 -21 360 -42z m-8885 -1678 c509 -489 925 -892
924 -895 0 -3 -100 -85 -221 -181 -122 -96 -286 -226 -364 -287 l-142 -113
-55 19 -56 19 -668 -759 c-367 -418 -669 -764 -671 -769 -2 -5 7 -23 19 -39
l22 -30 -234 -390 c-164 -273 -239 -389 -249 -386 -8 2 -31 6 -50 9 l-35 6
-355 -836 c-195 -460 -359 -838 -364 -841 -10 -6 -3413 -254 -3437 -251 -16 3
-10 27 116 490 l27 96 43 11 c40 10 46 16 94 101 28 49 51 95 51 100 0 6 -17
38 -39 72 l-39 61 23 51 c81 180 706 1491 713 1495 5 3 74 49 152 101 l142 94
-70 66 -70 65 174 294 c95 162 177 298 181 302 5 4 55 2 113 -6 l105 -14 46
47 c26 26 336 367 689 757 l642 710 860 818 c829 788 864 820 947 862 47 24
92 43 99 42 7 -1 428 -402 937 -891z m4053 442 c59 -80 123 -201 347 -648 151
-302 275 -552 275 -554 0 -3 -42 -31 -92 -62 -70 -43 -1271 -884 -1630 -1142
l-47 -33 -263 251 -263 250 -105 -5 -105 -6 -367 325 -367 324 333 211 c184
115 544 339 802 497 l469 287 460 218 c398 188 461 216 470 202 6 -9 43 -60
83 -115z m5122 -850 c0 -270 -21 -2282 -23 -2284 -1 -1 -83 2 -182 7 l-180 9
-548 -126 -548 -126 -767 -347 -767 -347 -479 -272 -479 -272 -81 78 c-1443
1364 -2014 1907 -2008 1913 8 7 1491 1012 1508 1022 14 8 225 50 229 45 5 -6
195 -388 195 -393 0 -2 -13 -19 -29 -38 l-30 -33 161 -310 c88 -170 163 -312
167 -317 12 -12 316 -96 323 -89 10 10 118 303 118 319 0 8 -77 152 -172 320
l-172 305 -46 -6 -45 -6 -88 153 -87 152 57 13 c32 7 59 14 60 16 2 1 -7 31
-18 65 -12 34 -19 65 -15 68 6 7 673 213 689 213 6 0 23 -12 38 -26 l27 -26
358 117 c198 64 499 168 669 231 l310 113 860 59 c473 33 890 60 928 61 l67 1
0 -262z m-7688 -1025 l404 -391 0 -101 -1 -100 1345 -1206 c740 -664 1358
-1219 1373 -1234 l29 -28 -169 -93 -168 -92 -3005 -373 c-1653 -205 -3041
-376 -3084 -380 -64 -6 -78 -4 -74 7 145 385 528 1426 528 1433 0 6 -20 23
-45 39 -43 26 -45 30 -32 50 8 11 108 174 222 361 114 187 209 341 210 343 1
1 24 -7 50 -18 l48 -20 32 37 c18 21 310 355 649 743 584 668 616 707 610 735
-4 17 -7 39 -8 50 -1 15 92 106 333 328 184 169 338 306 342 305 4 -2 189
-179 411 -395z m-4962 -7284 c1600 -26 2004 -29 3713 -29 l1918 0 257 -40
c141 -23 394 -56 562 -75 258 -29 393 -52 880 -146 316 -61 586 -113 599 -116
13 -2 20 -8 15 -12 -5 -5 -587 -527 -1294 -1161 l-1285 -1153 1 -100 0 -99
-393 -379 c-216 -208 -397 -379 -401 -379 -5 0 -168 132 -363 293 l-355 293
18 59 c10 33 18 65 18 72 0 6 -225 228 -500 493 -275 265 -500 487 -500 493 0
7 18 68 40 137 22 69 40 131 40 139 0 9 -336 570 -365 609 -2 2 -122 31 -268
66 l-266 62 -98 -170 c-54 -94 -99 -175 -100 -181 -2 -5 129 -224 290 -487
l292 -476 519 -501 519 -501 77 0 77 0 394 -291 c217 -161 395 -292 396 -293
1 -1 -213 -218 -475 -482 l-477 -482 -175 -62 c-96 -34 -182 -71 -191 -81 -24
-27 -412 -739 -406 -745 3 -3 178 82 388 188 l384 193 83 185 84 185 490 415
c270 228 494 416 498 418 3 1 159 -115 346 -258 l339 -260 510 -259 c478 -242
538 -270 960 -441 248 -100 465 -188 483 -196 l33 -13 -47 -92 c-32 -65 -44
-100 -40 -118 4 -23 -16 -106 -89 -366 l-14 -50 69 75 c38 41 95 105 127 142
34 40 69 70 84 74 21 5 39 29 89 119 l63 114 46 -19 c312 -123 436 -177 633
-276 l233 -117 610 -168 610 -169 27 20 27 20 409 -64 409 -64 126 -60 126
-60 399 -72 399 -71 171 45 c94 26 178 46 187 46 9 0 170 -32 358 -70 187 -38
367 -70 398 -70 l57 0 6 -42 c3 -24 8 -103 12 -176 l7 -134 -76 -76 -77 -77
15 -185 c8 -102 15 -197 15 -212 0 -21 17 -40 83 -95 l84 -68 6 -65 c4 -36 7
-137 7 -225 l0 -160 -30 -20 c-35 -23 -36 -38 -19 -180 9 -78 15 -94 39 -120
27 -28 30 -37 36 -135 l7 -106 -39 3 c-22 2 -273 17 -559 34 l-520 30 -1328
195 -1327 195 -86 -15 -85 -15 -572 200 -572 200 -200 24 c-110 14 -206 25
-213 25 -7 0 -23 25 -37 55 -13 30 -26 55 -29 55 -3 0 -34 -14 -69 -31 l-63
-31 -506 188 -507 189 -17 61 -16 61 -80 -31 -81 -31 -346 175 c-190 97 -619
314 -952 483 l-606 307 9 51 c5 28 8 52 6 54 -3 2 -1277 668 -1528 798 -85 44
-180 94 -211 111 -41 23 -288 252 -898 833 l-841 801 -682 754 -682 753 -75
-5 c-42 -2 -96 -4 -120 -5 l-45 0 -161 301 -162 302 59 65 59 66 -139 104
-138 105 -357 745 c-196 410 -360 752 -363 760 -5 14 17 15 193 11 109 -3
1006 -18 1993 -35z m9104 -775 c242 -86 816 -293 1274 -460 l833 -305 567 -85
567 -85 166 7 167 7 6 -134 c9 -214 30 -2768 23 -2776 -4 -4 -437 21 -961 55
l-954 62 -283 104 c-156 57 -457 161 -668 231 l-385 128 -27 -30 -27 -31 -345
107 c-190 58 -348 109 -352 113 -6 5 8 59 32 124 2 7 -20 16 -57 23 l-61 12
36 62 c19 34 59 103 87 154 l52 92 46 -6 47 -5 171 304 c95 167 172 311 172
320 0 17 -108 310 -118 319 -4 4 -78 -14 -165 -40 l-159 -46 -163 -314 -163
-315 31 -39 32 -39 -99 -191 c-55 -106 -100 -194 -102 -196 -2 -2 -52 6 -112
17 l-110 21 -432 256 -432 256 -330 261 -330 262 94 87 c51 48 516 488 1033
977 517 490 944 891 949 891 4 1 207 -69 450 -155z m-1534 -2856 c250 -156
483 -301 518 -322 34 -21 62 -39 62 -42 0 -2 -126 -255 -279 -562 -225 -449
-292 -575 -348 -649 -37 -50 -72 -98 -78 -107 -9 -15 -68 11 -458 194 l-448
211 -477 290 c-503 306 -1142 710 -1142 720 0 4 162 150 361 325 l361 319 46
0 c26 -1 73 -3 104 -5 l56 -5 267 252 266 252 367 -293 367 -293 455 -285z
m1705 -885 l-7 -72 69 -20 c37 -11 237 -67 443 -124 l375 -105 300 -6 300 -6
955 -135 c525 -75 967 -138 983 -141 l27 -6 0 -198 0 -199 -65 -53 -65 -53 1
-255 0 -255 79 -70 79 -70 0 -57 1 -58 -41 0 c-22 0 -196 -18 -385 -40 l-345
-40 -167 59 -167 60 -395 40 c-333 34 -417 39 -535 35 l-140 -6 -380 101
c-357 96 -396 109 -407 143 -2 5 -268 80 -592 168 -552 149 -603 161 -834 196
l-247 37 -215 100 c-118 54 -216 100 -217 101 -1 1 14 56 34 122 34 114 49
142 347 656 171 296 314 538 318 538 4 0 37 -18 73 -40 36 -22 67 -40 69 -40
2 0 18 22 35 49 l30 50 347 -167 346 -166 -7 -73z"/>
</g>
</svg>
