<?xml version="1.0" standalone="no"?>
<!DOCTYPE svg PUBLIC "-//W3C//DTD SVG 20010904//EN"
 "http://www.w3.org/TR/2001/REC-SVG-20010904/DTD/svg10.dtd">
<svg version="1.0" xmlns="http://www.w3.org/2000/svg"
   viewBox="0 0 3772.000000 847.000000"
 preserveAspectRatio="xMidYMid meet">
<metadata>
Created by potrace 1.16, written by Peter Selinger 2001-2019
</metadata>
<g transform="translate(0.000000,847.000000) scale(0.100000,-0.100000)"
fill="#000000" stroke="none">
<path d="M13270 8450 c-13 -17 -37 -20 -215 -30 -110 -6 -224 -13 -252 -16
-51 -5 -53 -7 -53 -35 l0 -29 -327 0 c-246 1 -344 4 -393 15 -54 12 -231 14
-1027 15 l-962 0 -143 -31 c-123 -27 -147 -35 -172 -60 -31 -31 -46 -37 -46
-16 0 7 -6 21 -13 31 -12 17 -22 16 -202 -8 -105 -15 -202 -29 -217 -32 l-28
-6 0 -102 0 -102 -290 -49 -290 -49 2 -446 3 -445 260 -17 c143 -9 266 -17
273 -17 8 -1 12 -25 12 -86 l0 -85 113 0 114 0 21 -74 c15 -52 22 -102 22
-165 0 -50 -1 -92 -2 -93 -2 -1 -86 -4 -188 -7 l-184 -6 -24 -65 c-14 -36 -26
-67 -28 -69 -2 -2 -33 22 -69 53 l-66 56 -329 0 -329 0 -423 -75 c-233 -42
-430 -78 -438 -81 -8 -3 -150 -84 -316 -180 l-300 -174 -121 0 -121 0 -266
-169 -265 -169 -576 -74 -576 -73 -51 -83 c-28 -45 -55 -85 -59 -87 -4 -3
-135 -16 -291 -30 -156 -14 -307 -27 -336 -31 l-52 -5 -160 -170 -160 -170 0
-115 0 -114 -130 0 -130 0 0 88 0 89 -173 146 -172 146 -662 1 -661 0 -55 -45
-56 -45 -286 0 -287 0 -52 45 c-79 67 -85 66 -522 -69 -203 -63 -408 -126
-457 -141 l-87 -26 0 -288 0 -289 470 -748 470 -749 0 -332 0 -332 -60 -253
c-89 -369 -73 -328 -128 -328 -29 0 -59 -8 -79 -20 -34 -20 -33 -18 -87 -218
l-24 -94 65 -167 c63 -162 66 -168 112 -199 28 -19 59 -32 78 -32 31 0 32 -2
60 -87 l30 -88 78 -5 78 -5 126 -262 126 -263 36 0 c23 0 73 18 135 48 l99 47
385 5 385 5 38 202 39 203 288 0 287 0 22 73 c11 39 52 194 89 342 l69 270
154 6 c85 4 263 7 397 8 l242 1 0 -148 0 -149 278 4 c152 3 525 8 827 12 l550
7 93 59 c59 38 113 82 148 122 l56 63 257 0 c142 0 340 3 441 7 l182 6 254
234 253 233 680 0 681 0 0 -309 0 -309 72 -126 72 -126 1202 0 1201 0 37 -60
37 -60 890 0 889 0 0 -90 0 -90 915 0 915 0 0 -175 0 -175 1575 0 1575 0 0
-118 0 -119 548 -6 c301 -4 849 -7 1218 -7 l672 0 16 25 c9 13 16 33 16 43 0
25 63 42 157 42 86 0 106 -6 118 -33 10 -21 15 -22 130 -19 1854 42 1930 44
1941 58 6 8 26 14 45 14 43 1 127 35 204 84 l59 39 506 -7 c278 -4 522 -9 543
-12 29 -5 37 -3 37 10 0 13 -12 16 -57 16 -160 1 -1046 49 -1052 57 -3 5 -42
24 -86 41 -71 28 -91 32 -176 32 -96 0 -97 0 -103 26 -4 15 -5 28 -4 30 2 2
49 -1 103 -6 125 -11 768 -19 735 -9 -14 4 -90 13 -170 19 -80 6 -210 17 -290
25 -80 8 -168 15 -196 15 -34 0 -56 5 -65 16 -9 11 -29 15 -78 13 -36 -1 -66
2 -67 7 -2 5 -8 28 -14 52 -8 31 -16 42 -30 42 -11 0 -20 5 -20 10 0 17 79 11
120 -10 l39 -20 431 162 c348 131 430 165 430 180 0 17 23 18 458 18 l457 0
603 137 602 137 0 33 0 33 185 0 186 0 76 42 c42 23 78 50 81 60 3 13 14 18
38 18 l34 0 0 224 0 223 -99 46 c-79 37 -151 58 -374 111 l-276 66 -808 0
-808 1 -909 117 -909 117 -44 82 c-27 50 -59 94 -81 111 -27 21 -173 74 -533
195 l-495 167 -349 0 -348 0 7 53 c4 28 9 93 12 142 l6 90 -282 200 c-155 110
-320 221 -366 246 l-85 46 73 27 c40 14 90 26 111 26 25 0 37 4 37 14 0 9 94
49 268 113 l267 100 3 156 c2 157 3 157 25 152 12 -2 118 -14 235 -26 190 -19
214 -20 225 -6 7 8 43 54 81 101 l69 86 409 0 c354 0 408 2 408 15 0 9 32 29
80 51 l80 37 0 48 0 49 210 0 210 0 0 349 0 349 43 6 c23 3 119 13 212 21 94
9 287 29 430 45 143 17 604 66 1025 110 951 100 1075 113 1380 152 135 16 315
34 400 39 121 7 3799 75 4193 78 70 1 87 4 87 16 0 13 -21 15 -132 15 -73 0
-671 9 -1328 20 -657 11 -1272 20 -1367 20 l-172 0 10 30 11 30 4764 0 4765 0
50 26 c51 25 56 26 438 39 212 8 394 15 404 15 14 0 17 9 17 45 l0 45 -52 1
c-29 0 -213 6 -408 13 -355 13 -355 13 -400 39 l-45 27 -4767 0 -4767 0 -16
55 -16 55 -217 2 -216 3 -9 38 -9 37 -2629 0 -2629 0 -19 38 c-19 37 -31 44
-311 170 l-291 132 -235 0 -234 0 0 83 c0 46 6 105 14 131 9 30 11 57 6 75
l-8 28 197 6 c108 4 318 10 466 14 l270 8 -335 7 c-491 10 -610 17 -610 33 0
8 19 15 53 19 109 14 127 18 127 31 0 19 -24 25 -106 25 l-73 0 -3 118 -3 117
-42 20 -42 20 -1 203 c0 128 -4 202 -10 202 -6 0 -10 -75 -10 -205 0 -195 -1
-205 -19 -205 -17 0 -20 10 -26 88 -10 140 -12 144 -14 25 l-1 -113 -54 0 -53
0 -52 -115 c-28 -63 -51 -122 -51 -131 0 -10 -8 -15 -22 -14 -13 1 -29 2 -35
1 -18 -1 -16 -60 2 -67 10 -4 15 -20 15 -49 0 -26 -6 -47 -15 -55 -8 -7 -15
-23 -15 -37 0 -14 -17 -45 -40 -72 l-40 -47 0 -167 0 -167 -1183 0 -1183 0
-693 613 c-462 408 -686 613 -674 615 16 2 1416 112 1428 112 3 0 5 39 5 88
l0 87 -872 69 c-480 37 -900 70 -934 73 -57 5 -62 8 -80 41 -27 51 -136 130
-187 136 -78 9 -331 17 -857 26 -492 8 -548 11 -885 45 -351 35 -374 39 -375
71 0 12 -55 24 -110 24 -22 -1 -40 -8 -50 -20z m3416 -6640 c12 0 27 -7 34
-15 10 -13 53 -15 265 -15 l253 0 41 -55 c22 -30 41 -57 41 -60 0 -3 -209 -5
-465 -5 l-465 0 0 212 0 213 138 -138 c90 -89 145 -137 158 -137z"/>
</g>
</svg>
