<?xml version="1.0" standalone="no"?>
<!DOCTYPE svg PUBLIC "-//W3C//DTD SVG 20010904//EN"
 "http://www.w3.org/TR/2001/REC-SVG-20010904/DTD/svg10.dtd">
<svg version="1.0" xmlns="http://www.w3.org/2000/svg"
   viewBox="0 0 4043.000000 4314.000000"
 preserveAspectRatio="xMidYMid meet">
<metadata>
Created by potrace 1.16, written by Peter Selinger 2001-2019
</metadata>
<g transform="translate(0.000000,4314.000000) scale(0.100000,-0.100000)"
fill="#000000" stroke="none">
<path d="M25857 42748 c-4 -215 -7 -949 -7 -1630 l0 -1238 100 0 100 0 0
-1672 0 -1673 196 -327 197 -328 -7 -1342 -7 -1343 -95 -88 -94 -89 0 -2033 0
-2033 -210 -196 -210 -196 -295 0 -295 0 0 83 c0 45 -9 361 -20 702 -11 341
-20 644 -20 673 l0 52 -80 0 c-76 0 -80 1 -80 23 0 12 -7 245 -15 517 -8 272
-15 514 -15 538 l0 42 95 0 95 0 0 58 c0 51 -236 8730 -242 8926 l-3 78 -225
84 -225 84 -565 0 -565 -1 -150 -83 -150 -83 -7 -124 c-4 -68 -6 -421 -5 -785
l2 -660 223 -177 222 -177 0 -48 c0 -26 -52 -1656 -115 -3622 -63 -1966 -115
-3650 -115 -3742 l0 -168 70 0 70 0 0 -67 c0 -38 -5 -287 -12 -555 l-12 -488
-58 0 c-52 0 -58 -2 -62 -22 -3 -13 -9 -203 -15 -423 -6 -220 -14 -457 -18
-527 l-6 -128 -716 -1 c-394 -1 -857 -4 -1030 -8 l-313 -6 -131 -368 -130
-368 -95 3 -95 3 -58 304 -57 304 -166 166 -166 167 -238 58 -237 58 -239 -60
-239 -60 -161 -161 -161 -161 -49 -262 c-26 -145 -52 -284 -58 -310 l-10 -48
-538 0 -539 0 -517 591 c-492 563 -516 593 -511 624 5 28 -1 40 -39 83 -41 47
-47 50 -69 40 -14 -6 -26 -9 -28 -7 -2 2 -49 56 -105 120 l-102 117 -45 -17
c-37 -13 -45 -20 -43 -37 2 -12 287 -356 633 -765 347 -408 631 -748 633 -753
1 -7 -1060 -163 -2955 -434 l-2958 -423 -1795 1 -1795 1 -228 23 c-125 13
-230 25 -233 28 -4 5 -33 331 -34 390 0 17 -32 18 -497 20 l-497 3 -98 325
c-54 179 -105 349 -113 378 l-16 52 -254 0 -255 0 0 -380 0 -380 -733 0 -732
0 -348 -430 -349 -430 -333 0 -333 0 -283 403 c-156 221 -371 528 -479 682
-755 1075 -1704 2422 -1714 2432 -9 10 -69 -22 -290 -156 -153 -93 -279 -171
-282 -173 -2 -3 40 -67 94 -144 l98 -139 134 0 134 0 604 -858 604 -858 -21
-35 -21 -36 212 -304 213 -305 39 3 39 3 183 -260 182 -260 -131 -6 c-73 -4
-488 -7 -924 -8 l-791 -1 4 -2157 c5 -2488 10 -3632 17 -3639 3 -3 102 -36
221 -73 l216 -67 -324 -460 -323 -459 -133 0 -134 0 -98 -139 c-54 -77 -97
-140 -95 -142 1 -2 128 -80 282 -173 218 -133 282 -168 291 -158 7 6 229 320
494 697 265 377 485 686 490 688 9 3 550 -165 559 -174 3 -3 45 -69 92 -147
l86 -142 162 -3 161 -2 0 -175 c0 -96 3 -175 7 -175 12 0 1256 -180 1286 -186
23 -5 27 -11 27 -38 l0 -32 -391 -57 c-215 -31 -395 -55 -399 -52 -4 2 -29 57
-55 120 -39 94 -52 116 -72 121 -18 5 -192 -68 -686 -287 -364 -161 -665 -296
-668 -301 -3 -5 -49 -127 -102 -271 l-97 -263 272 -649 273 -650 5 -462 5
-461 -67 -30 -67 -30 25 -64 c14 -34 29 -66 33 -71 4 -4 40 -1 81 8 53 11 302
117 911 387 l838 371 3 85 3 85 125 33 125 34 320 -149 320 -149 1697 -14
c933 -7 1699 -16 1703 -20 7 -6 1005 -2627 1005 -2638 0 -3 -14 -25 -32 -48
l-32 -42 -103 0 -103 0 0 -76 c0 -68 3 -80 30 -120 l31 -44 184 0 c117 0 185
-4 185 -10 0 -6 44 -10 113 -10 l113 0 69 85 70 84 305 -5 c168 -2 479 -7 691
-10 l386 -6 1314 -770 1314 -769 2515 2 2514 3 31 -122 30 -122 105 -95 105
-94 891 -1 891 0 24 105 24 105 1237 0 1237 0 5 -52 c3 -29 13 -316 21 -638 9
-322 18 -595 21 -607 4 -21 10 -23 62 -23 l58 0 12 -483 c7 -265 12 -515 12
-554 l0 -73 -70 0 -70 0 1 -162 c0 -90 53 -1793 117 -3786 l117 -3624 -223
-177 -223 -177 -5 -675 c-2 -371 0 -707 4 -747 l7 -74 150 -84 150 -84 565 0
565 0 223 84 c123 47 225 86 226 88 2 2 55 1949 120 4328 64 2379 120 4400
123 4492 l6 168 -96 0 -97 0 0 38 c0 20 7 260 15 532 8 272 15 505 15 518 0
21 4 22 80 22 l80 0 0 48 c0 26 11 405 25 842 14 437 25 801 25 808 0 9 103
12 480 12 420 0 480 2 480 15 0 12 13 15 55 15 51 0 55 -2 55 -23 0 -13 306
-817 680 -1787 374 -969 680 -1765 680 -1766 0 -2 331 -4 736 -4 l736 0 -6
1067 c-3 588 -9 1303 -12 1590 l-6 523 -194 141 -194 141 0 224 0 224 -1210 0
-1210 0 0 -25 c0 -24 -3 -25 -55 -25 -52 0 -55 1 -55 25 l0 25 -320 0 -320 0
0 105 0 105 200 0 200 0 0 130 0 130 -202 0 -203 1 980 318 980 319 3 101 3
101 282 0 281 0 58 57 58 57 0 513 0 513 649 0 649 0 76 -227 c1357 -4097
4168 -12569 4171 -12571 7 -7 401 199 1035 541 l655 353 -3 41 c-2 38 0 41 39
58 32 15 39 23 35 39 -3 12 -577 2654 -1276 5871 -699 3218 -1273 5860 -1277
5873 l-5 22 3435 0 c3358 0 3439 0 3569 20 131 19 135 20 241 81 l107 62 62
106 63 106 3 138 4 138 -61 108 c-34 59 -69 115 -79 123 -9 8 -60 39 -112 70
-167 96 185 88 -3901 88 l-3556 0 -36 167 c-20 93 -106 490 -192 884 l-155
716 0 710 0 709 -45 22 -45 22 0 115 0 115 -25 0 c-22 0 -25 4 -25 35 l0 35
-260 0 -260 0 0 484 0 485 -75 58 -75 58 2 205 3 205 72 55 73 55 0 190 0 190
290 239 290 239 0 78 c0 44 2 79 5 79 3 0 24 -9 45 -20 l40 -20 0 1760 0 1760
-46 0 -46 0 6 1038 c3 570 8 2956 11 5302 3 2346 8 5112 11 6148 l7 1882 -472
0 -471 0 0 195 c0 191 -1 197 -34 322 l-35 127 -87 87 -87 88 -132 32 -131 32
-132 -33 -133 -33 -82 -89 c-89 -97 -88 -95 -112 -182 l-16 -59 -202 6 c-111
4 -1008 7 -1993 7 l-1790 0 4 1346 5 1346 -59 59 -58 59 -207 0 -206 0 -6
-392z m-16923 -16201 c15 -11 -18 -18 -216 -46 -128 -18 -243 -35 -255 -38
-22 -5 -23 -2 -23 46 l0 51 238 0 c179 0 243 -3 256 -13z m-5056 -8833 l63 -7
-3 -150 -3 -151 -74 -13 c-40 -8 -76 -12 -78 -9 -3 3 -8 82 -11 177 l-5 172
24 -6 c13 -3 52 -9 87 -13z m24460 -1861 c447 -3 812 -10 812 -15 0 -4 -562
-8 -1250 -8 -1104 0 -1250 2 -1250 15 0 18 341 19 1688 8z"/>
</g>
</svg>
