<?xml version="1.0" standalone="no"?>
<!DOCTYPE svg PUBLIC "-//W3C//DTD SVG 20010904//EN"
 "http://www.w3.org/TR/2001/REC-SVG-20010904/DTD/svg10.dtd">
<svg version="1.0" xmlns="http://www.w3.org/2000/svg"
   viewBox="0 0 4011.000000 2572.000000"
 preserveAspectRatio="xMidYMid meet">
<metadata>
Created by potrace 1.16, written by Peter Selinger 2001-2019
</metadata>
<g transform="translate(0.000000,2572.000000) scale(0.100000,-0.100000)"
fill="#000000" stroke="none">
<path d="M5655 25582 c-4 -87 -3 -146 3 -158 5 -11 15 -46 22 -79 7 -33 21
-82 31 -109 11 -26 38 -114 60 -195 47 -171 191 -652 289 -966 38 -121 107
-350 154 -510 46 -159 155 -497 240 -750 86 -253 156 -466 156 -474 0 -11 -18
-13 -97 -8 -54 4 -168 9 -253 13 l-155 6 -79 -107 c-79 -106 -79 -106 -115
-101 -20 3 -254 20 -521 37 l-485 31 -1055 -232 -1055 -232 -40 -39 -41 -39
-1357 0 -1357 0 0 -90 0 -90 1268 -1 c697 0 1263 -2 1257 -5 -5 -2 -563 -76
-1240 -164 -676 -88 -1240 -163 -1253 -165 l-22 -5 0 -1019 0 -1018 28 -6 c15
-3 539 -72 1164 -153 l1138 -149 -1170 -3 -1170 -2 0 -90 0 -90 1362 0 1361 0
33 -25 33 -25 3335 0 3336 0 0 180 0 180 264 0 263 0 7 -46 c15 -112 33 -87
-261 -355 l-268 -243 -3 92 -3 92 -3335 0 -3336 0 -30 -25 -30 -25 -1364 0
-1364 0 0 -90 0 -90 1172 -2 1173 -3 -1140 -149 c-627 -82 -1152 -151 -1168
-153 l-27 -6 2 -1020 3 -1021 1235 -162 c679 -89 1246 -164 1260 -167 14 -2
-545 -5 -1242 -6 l-1268 -1 0 -90 0 -90 1359 0 1359 0 34 -38 33 -39 1060
-233 1060 -233 495 32 c272 17 507 34 522 36 24 4 35 -6 104 -100 l78 -105 61
0 c33 0 188 7 345 15 157 8 303 15 325 15 l40 0 80 125 c50 78 86 125 97 125
9 0 542 36 1185 80 642 44 1180 80 1195 80 l28 0 2 544 3 543 280 -253 279
-254 108 0 107 0 5 -32 c14 -85 97 -859 105 -981 5 -76 12 -142 17 -147 5 -5
431 -239 948 -521 l939 -512 131 137 131 137 1165 -795 1165 -796 245 -244
245 -245 2979 -1446 c2412 -1171 2981 -1444 2991 -1433 6 7 40 58 75 113 35
55 64 102 66 104 2 3 5050 -3553 5210 -3670 l51 -37 64 -214 64 -215 75 -50
c41 -28 131 -89 200 -136 l126 -86 1284 -105 c707 -59 1288 -106 1292 -106 4
0 9 -53 10 -117 l3 -117 146 -59 146 -59 6 -140 6 -139 -49 -125 -49 -125 398
-690 399 -691 417 -339 c230 -187 421 -342 425 -344 4 -3 157 13 339 36 l331
40 642 -259 643 -258 3 -36 c3 -32 28 -58 317 -322 l314 -286 248 0 c136 0
359 -3 496 -7 l247 -6 0 -194 0 -193 750 0 750 0 0 195 0 195 333 1 c182 1
538 5 789 8 l457 6 220 285 220 285 1 426 0 426 198 7 c108 3 295 9 415 12
l217 7 0 128 0 129 135 0 135 0 0 715 0 714 -37 6 c-21 4 -44 7 -52 8 -9 1
-36 66 -72 175 l-58 173 6 413 6 414 -111 212 -112 212 0 1572 1 1571 203 143
203 143 6 211 c4 116 7 255 7 308 l0 97 124 219 125 219 -24 265 c-13 146 -24
270 -25 276 0 6 -83 49 -185 95 l-184 84 -1 118 0 117 -34 0 c-37 0 -40 4 -66
110 -6 25 -16 62 -21 83 l-10 37 -107 0 -107 0 50 1586 51 1586 69 61 c39 34
92 83 119 108 l49 46 -27 1154 c-24 1009 -30 1178 -50 1346 -12 106 -25 195
-28 198 -4 4 -66 -1 -138 -11 -106 -14 -133 -15 -140 -5 -4 7 -18 90 -31 183
-13 93 -28 176 -34 183 -5 7 -73 32 -150 55 -77 24 -142 44 -143 46 -5 3 -82
308 -79 311 1 1 62 17 134 35 l131 33 -157 427 -157 427 -259 448 -258 448
-396 471 -395 472 -34 -29 c-18 -16 -35 -29 -38 -29 -3 0 -110 99 -238 220
l-233 221 -279 161 -278 161 -37 -43 -37 -43 -39 30 c-21 17 -233 153 -472
303 -432 271 -435 272 -690 384 l-256 111 -3 235 -2 236 -313 191 -312 190
-755 158 c-415 86 -777 161 -804 167 l-49 10 7 229 8 229 -87 155 c-48 85 -92
161 -99 169 -8 11 -245 51 -861 146 -467 71 -859 132 -870 135 -17 3 -33 -20
-101 -148 -80 -149 -82 -154 -98 -267 -9 -63 -19 -124 -21 -136 -4 -18 -37
-31 -224 -88 l-220 -67 -828 95 c-455 53 -846 99 -869 102 l-40 6 -12 -78 c-7
-43 -14 -80 -17 -82 -4 -4 -6587 727 -6592 731 -1 1 -12 73 -24 159 l-22 157
-41 6 c-52 7 -421 43 -3218 315 -1247 121 -2276 220 -2287 220 -16 0 -25 18
-52 100 -19 55 -38 100 -44 100 -5 0 -131 13 -280 30 -148 16 -273 26 -277 22
-4 -4 -40 -68 -81 -142 -65 -118 -77 -135 -98 -133 -162 14 -2245 227 -2249
230 -3 3 -7 79 -9 169 l-3 164 -813 0 -813 0 -6 -22 c-3 -13 -6 -51 -6 -85 0
-44 -4 -63 -12 -63 -7 1 -454 45 -993 99 -600 60 -982 95 -986 89 -3 -5 -12
-41 -19 -79 l-12 -70 -62 6 c-79 7 -316 24 -2066 145 -795 55 -1475 102 -1511
106 l-67 6 -7 -140z m3933 -4262 l52 0 0 -180 0 -180 120 0 c113 0 120 -1 120
-20 0 -19 -7 -20 -210 -20 l-210 0 0 206 0 207 38 -7 c20 -3 61 -6 90 -6z
m22997 -17121 c506 -40 921 -73 921 -73 1 -1 18 -442 38 -981 19 -539 38
-1019 42 -1068 l6 -88 -49 19 c-26 10 -217 81 -424 157 l-375 139 -49 283 -49
282 -223 216 c-200 195 -260 261 -576 642 -193 234 -353 428 -355 432 -1 3 17
13 40 21 41 14 43 17 46 59 l3 43 42 -5 c23 -4 456 -38 962 -78z"/>
</g>
</svg>
