<?xml version="1.0" standalone="no"?>
<!DOCTYPE svg PUBLIC "-//W3C//DTD SVG 20010904//EN"
 "http://www.w3.org/TR/2001/REC-SVG-20010904/DTD/svg10.dtd">
<svg version="1.0" xmlns="http://www.w3.org/2000/svg"
   viewBox="0 0 4043.000000 811.000000"
 preserveAspectRatio="xMidYMid meet">
<metadata>
Created by potrace 1.16, written by Peter Selinger 2001-2019
</metadata>
<g transform="translate(0.000000,811.000000) scale(0.100000,-0.100000)"
fill="#000000" stroke="none">
<path d="M34402 8083 c-5 -16 -19 -51 -30 -79 l-21 -52 239 -223 c214 -201
236 -224 212 -227 -24 -2 -722 30 -3393 159 l-847 41 -393 -57 c-342 -49 -444
-68 -770 -143 l-376 -87 -709 10 c-563 8 -975 7 -2004 -7 l-1295 -17 -205 -61
c-181 -53 -307 -80 -1080 -226 -838 -159 -900 -172 -1475 -315 -330 -83 -883
-226 -1230 -319 -346 -93 -648 -172 -670 -176 -22 -4 -49 -11 -59 -17 -11 -5
-723 -39 -1625 -77 l-1606 -68 -720 80 c-396 43 -742 82 -770 84 -27 3 -394
43 -815 90 l-765 84 -1215 33 -1215 33 -870 -38 c-590 -26 -918 -36 -1020 -33
-155 6 -1003 -34 -1155 -55 -164 -22 -1199 -105 -2600 -210 -1432 -106 -1497
-112 -2220 -195 -568 -66 -933 -101 -1537 -150 l-792 -65 -679 -145 c-374 -80
-682 -145 -685 -145 -4 0 -2 -11 5 -24 13 -30 -5 -28 458 -62 281 -20 384 -32
559 -64 117 -21 215 -41 217 -43 2 -2 -118 -10 -267 -17 l-271 -13 -78 -66
-79 -66 0 -601 -1 -601 79 -66 78 -67 679 -36 c374 -19 689 -37 702 -40 26 -5
30 -34 4 -34 -10 0 -306 -16 -657 -35 -352 -19 -659 -35 -681 -35 -37 0 -51
-8 -123 -68 l-80 -67 -1 -601 0 -601 79 -66 78 -67 1544 -81 1544 -82 115 67
c63 36 118 66 121 66 3 0 34 -25 68 -57 l63 -56 266 -38 267 -39 2290 -39
2290 -39 122 -56 122 -56 1653 0 1653 0 382 76 382 77 43 63 43 64 300 0 c165
0 962 -5 1770 -11 l1470 -11 473 -38 472 -38 43 -38 c23 -22 135 -124 250
-228 114 -103 207 -189 207 -190 0 0 -46 0 -102 2 l-103 4 -65 -50 -65 -49
-23 -115 c-12 -63 -22 -138 -22 -166 0 -44 -8 -66 -50 -141 l-49 -89 51 -119
51 -118 -6 -136 -6 -136 57 -56 57 -57 620 -9 c755 -13 3833 -17 4142 -6 l222
8 56 49 55 50 0 172 c0 163 2 177 29 257 21 62 26 91 19 108 -4 13 -6 26 -3
29 3 3 184 -10 403 -30 l397 -35 235 -108 234 -107 1546 -25 c850 -13 1546
-26 1548 -27 1 -2 9 -75 17 -162 9 -87 18 -174 21 -191 l5 -33 1239 0 1240 0
0 195 0 195 1334 0 1334 0 6 -67 c4 -38 9 -82 12 -99 6 -30 4 -31 -48 -46
l-53 -15 -3 -56 -3 -56 63 -3 63 -3 10 -95 10 -95 130 -27 130 -27 1290 39
1290 40 190 37 190 37 185 89 c102 49 237 111 300 139 63 27 169 84 235 127
66 43 165 103 221 135 l100 56 100 0 c94 1 101 2 138 30 l40 30 463 0 463 0 0
85 0 85 -247 1 -248 1 145 49 145 50 155 -1 c174 -1 369 -18 635 -56 224 -31
341 -61 501 -125 l125 -49 227 2 226 3 24 75 c15 47 45 229 82 495 l59 420
-186 948 -186 948 -344 571 -345 571 -413 486 -414 486 -297 275 c-164 151
-390 350 -503 443 -252 204 -727 539 -1076 758 l-260 163 -460 197 c-253 108
-541 235 -640 282 l-180 85 -345 51 c-190 28 -350 51 -357 51 -6 0 -15 -12
-21 -27z"/>
</g>
</svg>
