<?xml version="1.0" standalone="no"?>
<!DOCTYPE svg PUBLIC "-//W3C//DTD SVG 20010904//EN"
 "http://www.w3.org/TR/2001/REC-SVG-20010904/DTD/svg10.dtd">
<svg version="1.0" xmlns="http://www.w3.org/2000/svg"
   viewBox="0 0 3845.000000 3968.000000"
 preserveAspectRatio="xMidYMid meet">
<metadata>
Created by potrace 1.16, written by Peter Selinger 2001-2019
</metadata>
<g transform="translate(0.000000,3968.000000) scale(0.100000,-0.100000)"
fill="#000000" stroke="none">
<path d="M23345 39589 c-912 -75 -1485 -129 -3509 -334 -1330 -135 -2426 -245
-2436 -245 -11 0 -35 -28 -66 -80 -28 -45 -56 -80 -65 -80 -15 0 -3632 -355
-3700 -363 l-36 -5 -64 120 -64 119 -225 -3 -225 -3 -588 -354 -587 -354 -401
-450 -401 -449 -134 -457 c-124 -423 -132 -457 -116 -469 9 -7 54 -33 100 -58
l82 -45 -36 -67 c-71 -129 -71 -129 -113 -136 -24 -3 -42 -13 -46 -23 -4 -10
-46 -128 -95 -263 l-88 -245 -12 -215 c-8 -146 -24 -299 -51 -475 -38 -252
-39 -267 -39 -526 0 -250 3 -289 40 -598 l40 -330 133 -288 c96 -211 162 -336
242 -467 l109 -178 243 -207 242 -206 295 -130 c163 -71 294 -133 293 -137 -1
-4 -139 -161 -307 -349 -168 -188 -311 -352 -318 -366 -8 -14 -225 -494 -484
-1066 -258 -573 -471 -1043 -473 -1045 -1 -2 -60 74 -129 168 -70 93 -128 170
-129 171 -1 0 -386 27 -855 59 l-853 59 -522 -342 -522 -343 -87 -159 c-74
-137 -133 -277 -403 -961 l-317 -801 -275 -64 -275 -63 6 -81 c12 -167 69
-1606 63 -1611 -7 -7 -493 -28 -510 -21 -6 2 -73 113 -147 246 -98 174 -139
239 -150 236 -8 -2 -515 -135 -1127 -294 l-1111 -290 -604 -23 c-331 -13 -587
-24 -568 -25 19 -2 215 -10 434 -18 220 -8 401 -16 403 -18 1 -2 -424 -114
-945 -250 l-947 -246 -350 -22 c-316 -20 -353 -24 -382 -43 -18 -12 -35 -28
-38 -36 -2 -8 -28 -118 -56 -245 l-52 -230 -18 -450 c-13 -337 -18 -670 -19
-1325 0 -773 3 -990 30 -1865 l31 -990 61 -255 c33 -140 61 -255 61 -256 1 0
160 -11 352 -24 l350 -22 2149 -579 c1181 -319 2150 -579 2153 -579 3 0 3 -91
-1 -202 -4 -112 -9 -283 -11 -381 l-4 -177 148 -253 149 -252 573 -487 574
-488 110 0 c316 0 1470 -33 1476 -41 3 -5 16 -110 29 -234 12 -124 26 -225 29
-225 3 0 50 -7 103 -15 l97 -13 445 -295 444 -295 510 -231 510 -231 605 -45
605 -45 152 -87 153 -86 186 -39 c102 -22 217 -42 255 -46 l70 -7 222 -550
c123 -302 223 -555 224 -560 0 -6 -326 -28 -887 -57 -487 -26 -889 -51 -892
-56 -3 -5 -13 -12 -21 -15 -12 -4 -11 -6 3 -6 9 -1 17 -7 17 -14 0 -9 212 -23
933 -60 512 -27 938 -52 945 -55 8 -4 92 -201 187 -437 l173 -430 89 -60 c48
-32 257 -158 463 -279 269 -157 391 -223 430 -233 30 -7 165 -22 298 -33 l244
-20 131 -104 c73 -57 481 -381 907 -720 l775 -616 215 2 214 3 60 -342 60
-343 51 0 c27 0 322 11 655 25 333 14 619 25 637 25 l32 0 3 329 c2 181 7 333
11 338 5 4 132 11 282 14 l273 6 111 82 c93 69 111 88 115 114 16 106 28 555
22 835 -6 256 -5 312 6 312 44 -1 901 42 936 46 l42 5 0 79 0 78 -157 8 -158
8 675 40 675 41 0 30 0 30 -1020 61 c-561 34 -1021 62 -1022 63 -2 1 -3 60 -3
131 l0 130 28 0 c85 -1 2838 72 2890 76 l62 6 0 79 0 79 -47 0 c-182 2 -1005
29 -1010 34 -4 3 27 6 68 6 92 0 119 7 119 30 0 15 -12 19 -72 24 -55 5 -2022
126 -2044 126 -2 0 -4 5 -4 11 0 8 241 9 885 4 l885 -8 0 106 0 106 -32 9
c-20 5 144 16 458 30 269 13 513 25 542 29 49 5 52 7 52 33 l0 27 -97 6 c-54
3 -683 33 -1398 68 -715 34 -1303 65 -1306 68 -8 7 -54 1710 -46 1717 3 3 961
39 2128 81 1168 41 2127 79 2130 84 4 7 1649 74 1979 80 36 1 -389 19 -945 40
-555 21 -1016 38 -1022 38 -7 1 -13 10 -13 20 0 16 -9 21 -52 25 -29 3 -906
35 -1948 71 -1042 36 -1898 67 -1902 68 -4 1 226 292 511 647 l518 645 32 618
33 617 -153 233 -152 233 -1351 494 c-743 271 -1445 531 -1561 576 l-210 82
-3 74 -3 75 -80 33 c-44 18 -82 36 -84 40 -3 5 12 79 32 165 l37 157 61 -6
c33 -3 110 -8 170 -12 l110 -6 322 126 323 125 3007 -183 3008 -184 344 -137
345 -136 390 34 390 35 595 -460 c328 -253 597 -464 599 -468 2 -4 -38 -167
-89 -361 l-91 -354 12 -260 c6 -143 16 -289 21 -325 5 -36 9 -71 9 -77 0 -10
-103 -13 -482 -13 l-483 0 -245 -83 -245 -82 -133 -136 -133 -137 852 -1453
c469 -800 853 -1461 854 -1470 1 -18 998 -1585 1024 -1610 9 -9 237 -92 508
-184 l491 -169 582 -928 c319 -510 579 -932 576 -937 -3 -4 -160 -97 -350
-207 l-344 -198 13 -35 c39 -110 568 -1528 574 -1539 4 -8 120 -109 256 -225
l249 -212 562 -888 562 -888 4 -177 4 -177 548 -765 c301 -421 551 -768 554
-771 4 -4 230 -48 503 -98 l496 -90 126 33 c70 18 127 32 127 30 0 -2 -21 -18
-47 -35 -27 -18 -71 -50 -100 -71 l-52 -38 756 -1202 c416 -662 769 -1224 785
-1251 16 -26 37 -47 46 -47 10 0 70 11 135 25 l117 25 1515 0 c833 0 1515 3
1515 8 0 4 -178 486 -394 1072 l-394 1065 -164 45 -163 45 -401 1052 -400
1052 18 161 18 161 -936 2572 c-515 1415 -941 2585 -948 2601 -8 21 -54 58
-161 130 l-149 101 -458 1289 -458 1289 59 184 59 183 -195 493 c-108 270
-196 497 -196 502 0 6 27 68 60 139 l60 130 -343 855 -342 856 -694 3 -693 3
-247 407 -247 407 457 5 457 5 170 68 c94 38 174 72 178 76 6 6 -200 451 -217
468 -3 3 -85 9 -183 12 l-178 6 -71 172 -71 171 48 69 c27 37 48 73 49 78 0 6
-522 1428 -1159 3160 l-1159 3150 -149 111 -148 110 -278 755 c-152 415 -277
760 -277 767 0 7 20 53 45 103 l46 90 -51 145 c-27 80 -50 148 -50 150 0 2 49
28 109 58 l108 55 -360 999 -361 999 -1711 926 c-940 509 -1718 929 -1728 933
-10 3 -50 -7 -95 -25 -42 -16 -84 -32 -92 -33 -12 -2 -20 52 -45 310 l-30 314
-700 415 -700 415 -185 240 -185 241 -860 609 c-473 335 -866 615 -874 623
-11 11 39 115 330 679 l344 666 568 0 567 0 0 -55 0 -55 1489 0 1490 0 130
-110 130 -110 899 0 900 0 26 -110 c14 -61 26 -113 26 -116 0 -7 -693 5 -727
12 -23 4 -23 4 -23 -117 l0 -122 108 6 c59 3 1093 32 2299 64 1205 32 2191 59
2190 60 -1 1 -722 18 -1602 37 -880 20 -1651 39 -1712 42 l-113 6 0 58 c0 31
3 85 6 119 l7 61 937 0 937 0 119 96 c107 86 126 107 187 200 37 58 65 109 62
114 -11 18 -1135 964 -2610 2196 -3300 2758 -2931 2454 -2978 2453 -23 -1
-532 -41 -1132 -90z m-342 -2669 c408 -27 748 -51 755 -52 6 -2 241 -318 521
-703 l509 -700 -1244 -3 -1244 -2 0 -55 0 -55 -461 0 c-425 0 -461 1 -455 17
4 9 181 354 395 767 214 413 398 770 410 794 17 33 27 42 47 42 14 0 359 -22
767 -50z m-10268 -750 l211 -140 12 -602 c7 -331 9 -604 6 -607 -3 -3 -213
-139 -467 -302 l-462 -296 -193 -305 -192 -305 -56 -264 c-30 -145 -58 -272
-61 -283 -6 -20 -5 -22 -167 241 -61 99 -118 211 -188 370 l-99 228 7 350 7
350 84 305 c46 168 114 406 150 529 l65 223 -30 30 -29 30 25 67 c14 36 26 67
28 69 1 2 29 -10 63 -27 33 -17 68 -31 78 -31 10 0 133 46 273 102 l255 101
225 153 c124 84 229 153 235 153 5 1 104 -62 220 -139z m256 -2519 l4 -343
-62 -26 c-35 -14 -63 -30 -63 -36 0 -6 -42 -228 -94 -493 l-93 -481 -67 -76
-68 -75 -238 180 c-132 98 -241 183 -244 188 -3 5 10 217 30 472 l36 464 115
240 115 240 306 232 307 232 6 -187 c3 -103 8 -342 10 -531z m-6835 -9191 l44
0 0 -40 c0 -22 -3 -40 -7 -39 -5 0 -46 20 -93 45 l-85 45 49 -6 c27 -3 68 -5
92 -5z m12078 -3290 c59 -217 109 -403 112 -412 11 -37 -44 -15 -309 128 -150
81 -274 148 -276 150 -4 3 56 259 67 287 6 14 293 249 298 243 1 0 50 -179
108 -396z m9506 -4250 l194 -60 206 0 206 0 66 -117 c37 -65 138 -250 226
-410 l160 -293 -662 0 -663 0 -41 133 c-41 132 -41 132 -45 327 l-4 195 49
140 c26 77 50 145 53 152 3 9 12 10 32 3 15 -5 116 -37 223 -70z"/>
</g>
</svg>
