<?xml version="1.0" standalone="no"?>
<!DOCTYPE svg PUBLIC "-//W3C//DTD SVG 20010904//EN"
 "http://www.w3.org/TR/2001/REC-SVG-20010904/DTD/svg10.dtd">
<svg version="1.0" xmlns="http://www.w3.org/2000/svg"
   viewBox="0 0 3846.000000 3968.000000"
 preserveAspectRatio="xMidYMid meet">
<metadata>
Created by potrace 1.16, written by Peter Selinger 2001-2019
</metadata>
<g transform="translate(0.000000,3968.000000) scale(0.100000,-0.100000)"
fill="#000000" stroke="none">
<path d="M23350 39589 c-899 -73 -1500 -131 -3506 -334 -1332 -135 -2430 -245
-2440 -245 -13 0 -36 -28 -68 -80 -36 -59 -55 -80 -70 -80 -12 0 -856 -83
-1876 -184 -1020 -101 -1856 -181 -1858 -177 -1 3 -30 57 -63 119 l-60 113
-223 -3 -223 -3 -594 -357 -594 -357 -365 -411 c-201 -226 -379 -428 -397
-449 -28 -33 -49 -95 -163 -484 -71 -245 -130 -451 -130 -459 0 -11 144 -98
178 -106 18 -5 15 -12 -42 -118 -48 -88 -51 -92 -89 -97 -21 -3 -40 -7 -42 -9
-2 -1 -46 -122 -98 -268 l-94 -265 -12 -221 c-8 -159 -23 -293 -51 -479 -38
-248 -40 -270 -40 -500 0 -219 3 -271 41 -585 l41 -345 131 -285 c95 -207 162
-335 244 -470 l112 -184 238 -203 238 -202 298 -133 c187 -83 296 -137 293
-144 -3 -7 -142 -167 -311 -356 l-306 -343 -479 -1060 c-263 -583 -481 -1060
-484 -1060 -3 0 -60 74 -127 165 -67 91 -123 167 -125 169 -7 7 -1708 120
-1718 114 -6 -4 -243 -159 -526 -344 l-515 -339 -85 -157 c-70 -130 -140 -298
-401 -958 l-317 -800 -268 -63 c-148 -35 -271 -66 -273 -68 -5 -5 56 -1571 64
-1645 l5 -47 -87 -6 c-49 -3 -167 -9 -263 -12 l-175 -6 -137 243 c-75 135
-143 244 -150 243 -7 -1 -515 -132 -1128 -292 l-1115 -291 -600 -23 c-330 -13
-584 -24 -565 -25 19 -2 215 -10 434 -18 220 -9 401 -17 402 -18 1 -1 -426
-113 -949 -250 l-952 -247 -317 -20 c-174 -11 -332 -20 -350 -20 -21 0 -45
-10 -66 -28 -31 -26 -34 -36 -88 -277 l-55 -250 -20 -505 c-32 -848 -27 -1856
16 -3120 l34 -1015 58 -240 59 -240 359 -25 360 -25 2148 -580 c1585 -427
2146 -582 2143 -592 -3 -7 -8 -178 -12 -381 l-7 -367 149 -252 149 -252 571
-484 570 -483 580 -12 c318 -7 676 -15 795 -19 l217 -6 23 -223 c12 -123 26
-229 29 -234 4 -6 50 -17 104 -25 l96 -13 440 -291 c241 -160 464 -303 495
-318 l55 -27 0 -821 c0 -452 3 -917 7 -1033 6 -195 8 -212 24 -212 10 0 725
144 1590 320 864 177 1576 319 1582 317 17 -5 197 -458 184 -462 -7 -1 -408
-24 -891 -49 -484 -25 -882 -50 -885 -54 -3 -5 -13 -12 -21 -15 -12 -4 -11 -6
3 -6 9 -1 17 -7 17 -14 0 -9 214 -24 943 -62 518 -27 945 -53 948 -58 4 -5 84
-201 179 -436 l172 -426 117 -77 c64 -42 274 -169 467 -281 258 -150 366 -208
405 -216 29 -7 161 -21 292 -31 131 -11 243 -23 249 -26 6 -4 415 -328 909
-720 l899 -714 372 9 c205 6 374 8 376 6 2 -2 27 -134 55 -294 l51 -291 56 1
c30 0 251 10 490 22 l435 22 6 120 c4 66 7 192 8 281 l1 161 83 6 c45 4 168 7
272 8 285 1 280 0 407 94 l107 80 1 50 c0 28 7 157 14 287 10 175 11 316 5
535 -5 163 -8 298 -6 299 1 1 205 12 452 23 248 12 469 24 493 27 l42 5 0 78
0 79 -157 8 -158 9 678 40 678 40 -3 30 -3 30 -1012 60 c-556 33 -1014 63
-1016 65 -3 3 -8 62 -12 133 l-7 127 28 0 c88 -1 2839 72 2892 76 l62 6 0 79
0 79 -42 0 c-188 2 -1010 29 -1015 34 -4 3 27 6 68 6 92 0 119 7 119 30 0 15
-12 19 -72 25 -56 4 -2020 125 -2043 125 -3 0 -5 5 -5 11 0 8 241 9 890 4
l890 -8 0 106 0 105 -37 9 c-26 6 111 15 458 31 272 13 518 25 547 29 49 5 52
7 52 33 l0 27 -97 5 c-54 3 -686 34 -1405 69 l-1307 64 -5 70 c-3 38 -7 156
-9 261 l-4 192 51 7 c28 3 53 10 56 15 3 5 500 38 1105 74 605 36 1133 68
1173 72 l72 6 0 114 0 114 268 0 267 0 1254 -395 c690 -217 1260 -395 1267
-395 7 0 459 130 1005 290 546 159 994 288 995 287 0 -1 205 -321 454 -712
249 -390 456 -714 460 -718 4 -4 231 -85 505 -180 l498 -172 574 -915 c316
-503 578 -923 583 -932 8 -14 -42 -46 -343 -219 l-353 -203 296 -792 295 -792
250 -211 250 -212 564 -891 563 -892 5 -175 5 -176 551 -771 551 -771 497 -91
496 -91 118 30 c64 17 119 28 122 25 2 -2 -37 -32 -86 -67 -50 -34 -91 -66
-91 -70 0 -6 1555 -2486 1567 -2499 2 -2 54 7 116 20 l112 25 1536 5 1537 5
-397 1070 -396 1070 -160 44 c-88 24 -161 45 -163 47 -2 1 -184 474 -404 1051
l-400 1048 17 165 17 165 -942 2590 c-519 1425 -947 2596 -953 2603 -6 7 -75
56 -153 109 -79 53 -146 103 -149 112 -54 140 -905 2554 -905 2566 0 10 25 96
56 191 l55 175 -196 494 c-134 338 -194 502 -190 516 4 11 31 72 61 136 l55
116 -343 858 -343 859 -694 2 -693 3 -244 400 c-134 220 -244 403 -244 408 0
4 199 7 442 7 l441 0 188 72 c104 40 189 78 189 83 0 6 -38 89 -84 185 l-84
175 37 2 c20 1 212 9 426 18 215 8 436 18 493 21 l102 6 0 124 c0 120 -1 124
-22 128 -13 3 -336 17 -718 31 -382 14 -726 29 -765 33 l-69 7 -20 47 -19 47
50 73 50 73 -1161 3156 -1161 3155 -148 110 -149 109 -279 760 -280 760 47
101 46 101 -50 145 -50 145 109 54 c79 38 109 58 106 69 -9 30 -716 1983 -720
1987 -10 10 -3439 1863 -3448 1863 -5 0 -48 -16 -96 -35 -48 -19 -88 -33 -91
-31 -2 3 -17 143 -33 313 -16 169 -33 311 -38 316 -4 4 -318 192 -697 416
l-689 409 -188 242 -188 242 -874 620 -874 620 41 81 c63 127 1690 3272 1694
3276 2 2 351 -20 776 -48 671 -45 775 -54 789 -69 9 -9 330 -449 713 -976
l696 -959 177 -148 177 -149 900 -2 901 -3 23 -108 c13 -60 22 -111 19 -114
-3 -3 -170 -1 -371 4 l-366 8 0 -119 0 -119 108 6 c59 4 1095 32 2302 64 1207
32 2173 59 2145 61 -27 1 -801 20 -1718 41 -917 21 -1670 40 -1672 42 -2 3 -1
57 2 122 l6 117 939 0 939 0 124 101 c113 92 129 109 188 203 l64 103 -556
470 c-534 451 -2086 1750 -4060 3398 -928 775 -934 780 -980 782 -25 0 -534
-39 -1131 -88z m-10609 -3422 l207 -139 6 -261 c4 -144 8 -417 9 -606 l2 -344
-463 -297 -462 -297 -194 -305 -194 -306 -58 -281 c-44 -210 -62 -277 -70
-268 -6 7 -63 96 -127 198 -93 150 -135 232 -215 416 l-99 229 4 339 5 340 89
325 c49 179 118 422 153 540 l64 215 -29 31 c-32 33 -32 30 10 136 l10 27 73
-33 72 -33 265 107 266 106 225 153 c123 83 229 150 235 149 5 -2 103 -65 216
-141z m254 -2399 l7 -457 -63 -29 -64 -29 -94 -489 -93 -489 -57 -64 c-31 -35
-64 -69 -72 -74 -12 -7 -71 33 -257 173 l-241 183 5 41 c2 22 20 235 39 471
l34 430 113 234 113 234 305 231 305 232 6 -71 c4 -39 10 -276 14 -527z
m-6797 -9313 c2 -2 2 -19 0 -39 l-3 -35 -90 44 -90 44 90 -6 c50 -3 91 -7 93
-8z m12062 -3367 l123 -457 395 -478 394 -478 595 -298 595 -298 2215 -19
2214 -19 37 -28 c20 -15 296 -227 612 -471 l575 -444 -60 7 c-33 3 -69 8 -80
10 -13 3 -72 -33 -175 -106 l-155 -109 -1775 0 -1776 0 -194 78 -195 78 -890
-83 -890 -83 -908 0 -907 1 -173 63 c-94 35 -254 96 -354 136 l-183 71 0 73 0
73 -82 35 c-65 28 -83 39 -81 54 1 11 158 676 348 1479 299 1259 349 1462 368
1477 12 9 78 61 147 115 74 59 127 95 131 89 3 -6 61 -217 129 -468z m7435
-4000 l158 -112 459 53 c252 30 461 51 465 47 3 -3 -15 -88 -40 -188 l-47
-183 15 -275 c8 -151 18 -301 21 -332 l7 -58 -482 0 -482 0 -243 -80 -243 -80
-132 -135 c-72 -74 -131 -139 -131 -144 0 -8 308 -542 392 -678 13 -22 15 -31
6 -28 -80 27 -578 167 -593 167 -11 0 -585 -179 -1275 -396 l-1255 -396 -262
0 -262 0 -3 117 -3 118 -785 47 c-432 26 -804 48 -828 50 l-43 3 277 345 c152
190 279 350 281 357 3 7 19 286 37 620 l33 608 -153 235 -154 236 -244 89
c-135 49 -244 91 -242 92 2 2 376 -31 832 -73 l829 -76 200 80 200 80 1765 1
1766 1 159 -112z m2047 -168 l196 -60 206 0 205 0 74 -132 c62 -110 324 -587
366 -666 l12 -22 -663 2 -662 3 -43 135 -43 135 0 195 0 195 51 147 51 146 27
-8 c14 -5 114 -36 223 -70z"/>
</g>
</svg>
