<?xml version="1.0" standalone="no"?>
<!DOCTYPE svg PUBLIC "-//W3C//DTD SVG 20010904//EN"
 "http://www.w3.org/TR/2001/REC-SVG-20010904/DTD/svg10.dtd">
<svg version="1.0" xmlns="http://www.w3.org/2000/svg"
   viewBox="0 0 1979.000000 3599.000000"
 preserveAspectRatio="xMidYMid meet">
<metadata>
Created by potrace 1.16, written by Peter Selinger 2001-2019
</metadata>
<g transform="translate(0.000000,3599.000000) scale(0.100000,-0.100000)"
fill="#000000" stroke="none">
<path d="M11450 34925 l0 -1065 -202 0 c-112 0 -227 -3 -255 -6 l-53 -7 0 327
0 326 -25 0 -25 0 0 -325 0 -325 -105 0 c-97 0 -105 2 -105 19 0 12 -17 30
-45 48 -25 15 -45 35 -45 44 0 24 -77 81 -124 92 -55 12 -251 25 -408 26
l-128 1 0 -95 0 -95 -210 0 c-133 0 -210 4 -210 10 0 16 -121 10 -166 -8 -30
-12 -99 -76 -249 -230 l-208 -213 -102 -283 c-57 -156 -110 -297 -120 -313
-17 -29 -19 -29 -149 -40 l-131 -11 -230 -146 -230 -147 -137 -162 -138 -162
0 -196 0 -196 151 -43 150 -43 347 7 347 6 64 -109 c60 -103 67 -110 100 -115
20 -3 189 -8 375 -12 l339 -7 254 -156 254 -156 -123 -8 c-68 -4 -147 -10
-175 -13 l-53 -5 0 -178 0 -178 100 -93 100 -92 0 -169 0 -168 88 -59 c57 -39
119 -94 180 -160 l92 -100 0 -135 0 -135 485 -7 485 -7 0 -189 0 -189 -183 0
-183 0 -256 -105 -257 -105 -377 0 -377 0 -73 40 -73 40 -2426 0 -2425 0 0
-45 c0 -25 -2 -45 -4 -45 -10 0 -675 -81 -698 -85 l-28 -4 0 114 0 115 58 0
c79 0 1375 49 1378 53 1 1 10 81 18 177 9 96 19 190 22 208 l5 32 214 0 215 0
0 650 0 650 -215 0 -215 0 0 63 c0 35 -3 105 -6 155 l-7 90 -66 17 c-36 9 -90
23 -118 31 l-53 15 0 105 0 104 -627 -1 -628 0 -450 -72 -450 -73 -13 30 c-7
17 -15 32 -18 35 -3 3 -220 26 -482 51 l-477 46 -82 -116 c-47 -67 -125 -158
-185 -217 l-103 -102 -159 -36 c-87 -20 -159 -35 -161 -33 -1 2 -25 46 -53 99
l-51 95 -548 32 c-301 18 -558 34 -570 36 l-23 3 0 -1003 0 -1004 38 0 c76 0
1094 50 1100 54 4 2 30 50 57 106 l50 102 50 -6 c28 -3 139 -6 248 -6 l197 0
0 -1130 0 -1130 -205 0 -205 0 0 -120 0 -120 205 0 205 0 0 -970 0 -970 580 0
580 0 0 -35 0 -35 430 0 430 0 0 -85 0 -85 -704 0 -705 0 -102 -170 -103 -170
-128 0 c-96 0 -128 -3 -128 -12 0 -7 -5 -30 -11 -50 l-10 -38 -104 0 -105 0 0
-565 0 -565 114 0 114 0 -4 -57 c-2 -32 -7 -119 -10 -194 -5 -125 -7 -136 -24
-132 -13 4 -29 -11 -59 -56 -35 -52 -41 -67 -41 -113 0 -38 25 -362 30 -385 0
-1 42 -28 92 -60 l93 -58 185 0 c102 -1 435 -13 740 -28 305 -15 560 -27 566
-27 6 0 14 14 18 30 l6 30 606 0 c600 0 606 0 611 -20 5 -20 12 -20 202 -18
l196 3 3 68 3 67 37 0 c20 0 67 3 105 7 l67 6 0 393 0 394 574 0 c465 0 576 3
585 13 9 11 151 13 798 9 l787 -5 165 -148 166 -148 483 -1 482 0 2 -585 c2
-322 3 -692 3 -822 l0 -237 -57 -14 -58 -14 0 -519 0 -519 464 0 465 0 17 60
17 60 333 0 334 0 0 -84 0 -83 177 -7 c98 -4 178 -8 179 -9 1 -1 4 -167 6
-369 l5 -366 -31 4 c-61 8 -2077 147 -2080 143 -2 -2 -1 -34 3 -72 l7 -68
-127 7 -127 7 14 -79 c7 -43 15 -91 18 -106 l5 -28 -699 0 -700 0 0 -220 0
-220 -90 0 -90 0 0 -435 0 -435 90 0 90 0 0 -220 0 -220 1864 0 1863 0 5 -817
c3 -450 4 -819 3 -821 -2 -2 -471 0 -1044 4 l-1041 7 0 149 0 148 -522 0
c-288 0 -634 -3 -770 -7 l-246 -6 -17 -136 c-10 -75 -22 -144 -27 -153 -4 -10
-15 -86 -24 -170 -8 -84 -143 -1060 -298 -2168 -155 -1108 -281 -2017 -278
-2020 2 -3 41 -7 86 -10 l82 -5 -107 -1100 c-59 -605 -108 -1122 -109 -1150
-2 -42 18 -101 128 -385 71 -184 132 -345 136 -357 l7 -23 -181 0 c-100 0
-180 -4 -178 -8 2 -5 435 -932 962 -2060 l960 -2052 190 -2 190 -3 966 -2017
965 -2018 110 0 c167 0 155 10 155 -136 l0 -124 810 0 810 0 0 35 c0 35 0 35
43 35 l44 0 6 1418 c4 779 7 1851 7 2382 0 531 3 1245 7 1588 l6 622 79 0 78
0 0 443 c0 243 -3 506 -7 584 l-6 142 -81 3 -81 3 -3 543 -2 542 77 0 c43 0
108 3 146 7 l67 6 0 38 c0 35 4 40 35 53 31 13 35 19 35 50 l0 36 94 0 93 0 7
92 c3 50 6 129 6 175 l0 84 -120 138 -120 138 25 1404 c13 772 28 1495 31
1607 l6 202 134 0 134 0 0 113 c0 61 -7 407 -15 767 -8 360 -15 676 -15 703
l0 47 60 0 60 0 0 125 0 125 -60 0 -60 0 0 90 0 90 60 0 60 0 0 115 0 115 -60
0 -60 0 0 90 0 90 60 0 60 0 0 135 0 135 -60 0 -60 0 0 90 0 90 60 0 61 0 -7
1188 -7 1188 56 23 57 23 0 127 c0 69 7 450 15 846 l15 720 38 35 c21 19 59
54 85 78 l47 42 0 108 0 107 -46 53 -46 52 65 123 64 123 -5 487 c-5 486 -5
487 -26 492 -12 2 -70 9 -131 15 -60 6 -111 13 -113 15 -4 4 50 170 148 453
l53 152 92 0 92 0 6 188 c4 103 7 680 7 1283 l0 1096 92 7 c50 3 169 6 264 6
l172 0 -5 510 -6 510 880 0 881 0 12 -30 c12 -29 15 -30 76 -30 61 0 64 1 79
30 l16 31 102 -3 102 -3 50 -206 50 -206 73 -115 c59 -94 87 -127 156 -186 71
-60 90 -72 120 -72 l36 0 0 475 0 475 23 1 c184 5 2350 147 2317 152 -25 4
-538 36 -1140 72 -602 36 -1119 68 -1147 71 l-53 5 0 470 0 469 -41 0 c-35 0
-50 -8 -119 -67 -64 -54 -94 -90 -152 -182 l-73 -115 -50 -206 -50 -205 -102
-3 -102 -3 -16 31 c-15 29 -18 30 -79 30 -61 0 -64 -1 -76 -30 l-12 -30 -879
0 -879 0 0 144 0 144 -354 604 -353 603 -268 216 c-148 119 -272 225 -275 235
-4 10 -18 74 -31 142 l-23 122 -38 0 -38 0 0 65 c0 63 -1 65 -25 65 -25 0 -25
1 -25 84 l0 84 -40 7 c-39 7 -40 7 -40 50 l0 43 44 6 c43 7 43 7 50 53 16 116
18 111 -126 283 l-131 157 -81 7 c-44 4 -82 9 -85 11 -2 3 -6 124 -9 270 l-5
265 36 0 37 0 2 232 3 233 232 160 232 160 1 146 0 147 -37 6 c-21 4 -50 9
-65 12 l-28 6 0 119 0 119 88 0 87 0 241 190 240 190 38 133 c34 117 42 135
71 157 31 23 34 30 40 102 4 42 4 81 1 86 -3 6 -24 13 -46 17 -36 6 -39 9 -34
33 3 15 13 72 23 127 19 110 21 112 103 114 l37 1 31 98 c17 53 58 182 91 285
l60 188 -43 109 -43 109 -115 42 c-63 23 -125 45 -138 50 -22 8 -22 10 -7 45
8 20 15 38 15 39 0 2 -58 45 -129 95 l-129 92 -42 121 c-23 67 -49 129 -58
138 -10 9 -110 73 -223 142 l-206 125 -224 16 c-123 9 -233 16 -245 16 -12 0
-26 11 -34 25 -11 20 -21 25 -52 25 -35 0 -38 2 -38 29 0 21 -8 36 -29 50 -27
19 -43 21 -199 21 -156 0 -174 -2 -206 -21 -24 -14 -36 -28 -36 -43 0 -23 -2
-23 -172 -29 -95 -4 -260 -7 -365 -7 l-193 0 0 1060 0 1060 -25 0 -25 0 0
-1065z m-8929 -5699 l54 -24 164 -343 c91 -189 166 -346 167 -347 1 -2 335
-46 741 -97 406 -52 757 -97 781 -100 l42 -6 0 -105 0 -104 -128 0 -128 0 -21
-57 c-19 -56 -22 -59 -77 -79 l-58 -20 -88 -139 -88 -139 5 -108 6 -108 -71 0
-71 0 -3 -67 -3 -68 -659 -3 -659 -2 7 452 c3 249 9 686 12 971 4 284 10 517
14 517 4 0 32 -11 61 -24z m1227 -2202 l-3 -46 -435 -165 c-239 -91 -438 -168
-442 -172 -3 -3 -9 -103 -13 -222 l-7 -215 106 -28 c58 -15 122 -32 141 -37
l35 -10 0 -194 0 -195 -115 0 -115 0 0 -30 0 -30 -246 0 -246 0 6 638 c4 350
9 663 12 695 l6 57 660 0 659 0 -3 -46z m1647 -2398 l260 -304 798 -1 797 -1
0 -70 0 -70 170 0 170 0 0 39 c0 51 10 101 21 101 5 0 9 -157 9 -350 l0 -350
-552 0 -553 1 -25 34 -25 34 -577 1 -578 0 0 430 0 430 -115 0 -115 0 0 169 0
170 -41 3 -41 3 43 49 43 48 25 -31 c14 -17 143 -168 286 -335z m6925 -1799
c0 -35 3 -98 6 -140 l7 -77 -568 0 -568 0 6 -332 c4 -183 10 -532 14 -775 l6
-443 -70 0 c-38 0 -118 -3 -176 -7 l-107 -6 0 -69 0 -68 -335 0 -334 0 -16 30
-16 30 -114 0 -115 0 0 123 c0 122 0 124 -25 135 l-25 12 0 825 0 825 1215 0
1215 0 0 -63z"/>
</g>
</svg>
